G04 #@! TF.GenerationSoftware,KiCad,Pcbnew,5.1.6-c6e7f7d~86~ubuntu18.04.1*
G04 #@! TF.CreationDate,2020-06-11T10:01:39+01:00*
G04 #@! TF.ProjectId,HL2_MRF101,484c325f-4d52-4463-9130-312e6b696361,2.0-build8*
G04 #@! TF.SameCoordinates,PX42c1d80PY2625a00*
G04 #@! TF.FileFunction,Legend,Bot*
G04 #@! TF.FilePolarity,Positive*
%FSLAX46Y46*%
G04 Gerber Fmt 4.6, Leading zero omitted, Abs format (unit mm)*
G04 Created by KiCad (PCBNEW 5.1.6-c6e7f7d~86~ubuntu18.04.1) date 2020-06-11 10:01:39*
%MOMM*%
%LPD*%
G01*
G04 APERTURE LIST*
%ADD10C,0.150000*%
%ADD11C,0.120000*%
%ADD12C,0.010000*%
%ADD13C,0.100000*%
%ADD14C,0.127000*%
%ADD15C,0.101600*%
G04 APERTURE END LIST*
D10*
X129267771Y-75865542D02*
X129315390Y-76008400D01*
X129363009Y-76056019D01*
X129458247Y-76103638D01*
X129601104Y-76103638D01*
X129696342Y-76056019D01*
X129743961Y-76008400D01*
X129791580Y-75913161D01*
X129791580Y-75532209D01*
X128791580Y-75532209D01*
X128791580Y-75865542D01*
X128839200Y-75960780D01*
X128886819Y-76008400D01*
X128982057Y-76056019D01*
X129077295Y-76056019D01*
X129172533Y-76008400D01*
X129220152Y-75960780D01*
X129267771Y-75865542D01*
X129267771Y-75532209D01*
X129791580Y-76960780D02*
X129267771Y-76960780D01*
X129172533Y-76913161D01*
X129124914Y-76817923D01*
X129124914Y-76627447D01*
X129172533Y-76532209D01*
X129743961Y-76960780D02*
X129791580Y-76865542D01*
X129791580Y-76627447D01*
X129743961Y-76532209D01*
X129648723Y-76484590D01*
X129553485Y-76484590D01*
X129458247Y-76532209D01*
X129410628Y-76627447D01*
X129410628Y-76865542D01*
X129363009Y-76960780D01*
X129124914Y-77436971D02*
X129791580Y-77436971D01*
X129220152Y-77436971D02*
X129172533Y-77484590D01*
X129124914Y-77579828D01*
X129124914Y-77722685D01*
X129172533Y-77817923D01*
X129267771Y-77865542D01*
X129791580Y-77865542D01*
X129791580Y-78770304D02*
X128791580Y-78770304D01*
X129743961Y-78770304D02*
X129791580Y-78675066D01*
X129791580Y-78484590D01*
X129743961Y-78389352D01*
X129696342Y-78341733D01*
X129601104Y-78294114D01*
X129315390Y-78294114D01*
X129220152Y-78341733D01*
X129172533Y-78389352D01*
X129124914Y-78484590D01*
X129124914Y-78675066D01*
X129172533Y-78770304D01*
X128791580Y-79913161D02*
X128791580Y-80579828D01*
X129791580Y-80151257D01*
X86842785Y-94759357D02*
X86842785Y-93559357D01*
X86442785Y-94416500D01*
X86042785Y-93559357D01*
X86042785Y-94759357D01*
X84785642Y-94759357D02*
X85185642Y-94187928D01*
X85471357Y-94759357D02*
X85471357Y-93559357D01*
X85014214Y-93559357D01*
X84899928Y-93616500D01*
X84842785Y-93673642D01*
X84785642Y-93787928D01*
X84785642Y-93959357D01*
X84842785Y-94073642D01*
X84899928Y-94130785D01*
X85014214Y-94187928D01*
X85471357Y-94187928D01*
X83871357Y-94130785D02*
X84271357Y-94130785D01*
X84271357Y-94759357D02*
X84271357Y-93559357D01*
X83699928Y-93559357D01*
X82614214Y-94759357D02*
X83299928Y-94759357D01*
X82957071Y-94759357D02*
X82957071Y-93559357D01*
X83071357Y-93730785D01*
X83185642Y-93845071D01*
X83299928Y-93902214D01*
X81871357Y-93559357D02*
X81757071Y-93559357D01*
X81642785Y-93616500D01*
X81585642Y-93673642D01*
X81528500Y-93787928D01*
X81471357Y-94016500D01*
X81471357Y-94302214D01*
X81528500Y-94530785D01*
X81585642Y-94645071D01*
X81642785Y-94702214D01*
X81757071Y-94759357D01*
X81871357Y-94759357D01*
X81985642Y-94702214D01*
X82042785Y-94645071D01*
X82099928Y-94530785D01*
X82157071Y-94302214D01*
X82157071Y-94016500D01*
X82099928Y-93787928D01*
X82042785Y-93673642D01*
X81985642Y-93616500D01*
X81871357Y-93559357D01*
X80328500Y-94759357D02*
X81014214Y-94759357D01*
X80671357Y-94759357D02*
X80671357Y-93559357D01*
X80785642Y-93730785D01*
X80899928Y-93845071D01*
X81014214Y-93902214D01*
X78271357Y-94759357D02*
X78957071Y-94759357D01*
X78614214Y-94759357D02*
X78614214Y-93559357D01*
X78728500Y-93730785D01*
X78842785Y-93845071D01*
X78957071Y-93902214D01*
X77528500Y-93559357D02*
X77414214Y-93559357D01*
X77299928Y-93616500D01*
X77242785Y-93673642D01*
X77185642Y-93787928D01*
X77128500Y-94016500D01*
X77128500Y-94302214D01*
X77185642Y-94530785D01*
X77242785Y-94645071D01*
X77299928Y-94702214D01*
X77414214Y-94759357D01*
X77528500Y-94759357D01*
X77642785Y-94702214D01*
X77699928Y-94645071D01*
X77757071Y-94530785D01*
X77814214Y-94302214D01*
X77814214Y-94016500D01*
X77757071Y-93787928D01*
X77699928Y-93673642D01*
X77642785Y-93616500D01*
X77528500Y-93559357D01*
X76385642Y-93559357D02*
X76271357Y-93559357D01*
X76157071Y-93616500D01*
X76099928Y-93673642D01*
X76042785Y-93787928D01*
X75985642Y-94016500D01*
X75985642Y-94302214D01*
X76042785Y-94530785D01*
X76099928Y-94645071D01*
X76157071Y-94702214D01*
X76271357Y-94759357D01*
X76385642Y-94759357D01*
X76499928Y-94702214D01*
X76557071Y-94645071D01*
X76614214Y-94530785D01*
X76671357Y-94302214D01*
X76671357Y-94016500D01*
X76614214Y-93787928D01*
X76557071Y-93673642D01*
X76499928Y-93616500D01*
X76385642Y-93559357D01*
X75585642Y-93559357D02*
X75299928Y-94759357D01*
X75071357Y-93902214D01*
X74842785Y-94759357D01*
X74557071Y-93559357D01*
X73185642Y-94759357D02*
X73185642Y-93559357D01*
X72728500Y-93559357D01*
X72614214Y-93616500D01*
X72557071Y-93673642D01*
X72499928Y-93787928D01*
X72499928Y-93959357D01*
X72557071Y-94073642D01*
X72614214Y-94130785D01*
X72728500Y-94187928D01*
X73185642Y-94187928D01*
X72042785Y-94416500D02*
X71471357Y-94416500D01*
X72157071Y-94759357D02*
X71757071Y-93559357D01*
X71357071Y-94759357D01*
X70214214Y-93959357D02*
X69757071Y-93959357D01*
X70042785Y-94759357D02*
X70042785Y-93730785D01*
X69985642Y-93616500D01*
X69871357Y-93559357D01*
X69757071Y-93559357D01*
X69185642Y-94759357D02*
X69299928Y-94702214D01*
X69357071Y-94645071D01*
X69414214Y-94530785D01*
X69414214Y-94187928D01*
X69357071Y-94073642D01*
X69299928Y-94016500D01*
X69185642Y-93959357D01*
X69014214Y-93959357D01*
X68899928Y-94016500D01*
X68842785Y-94073642D01*
X68785642Y-94187928D01*
X68785642Y-94530785D01*
X68842785Y-94645071D01*
X68899928Y-94702214D01*
X69014214Y-94759357D01*
X69185642Y-94759357D01*
X68271357Y-94759357D02*
X68271357Y-93959357D01*
X68271357Y-94187928D02*
X68214214Y-94073642D01*
X68157071Y-94016500D01*
X68042785Y-93959357D01*
X67928500Y-93959357D01*
X66614214Y-94759357D02*
X66614214Y-93559357D01*
X66614214Y-94130785D02*
X65928500Y-94130785D01*
X65928500Y-94759357D02*
X65928500Y-93559357D01*
X64899928Y-94702214D02*
X65014214Y-94759357D01*
X65242785Y-94759357D01*
X65357071Y-94702214D01*
X65414214Y-94587928D01*
X65414214Y-94130785D01*
X65357071Y-94016500D01*
X65242785Y-93959357D01*
X65014214Y-93959357D01*
X64899928Y-94016500D01*
X64842785Y-94130785D01*
X64842785Y-94245071D01*
X65414214Y-94359357D01*
X64328500Y-94759357D02*
X64328500Y-93959357D01*
X64328500Y-94187928D02*
X64271357Y-94073642D01*
X64214214Y-94016500D01*
X64099928Y-93959357D01*
X63985642Y-93959357D01*
X63585642Y-94759357D02*
X63585642Y-93959357D01*
X63585642Y-94073642D02*
X63528500Y-94016500D01*
X63414214Y-93959357D01*
X63242785Y-93959357D01*
X63128500Y-94016500D01*
X63071357Y-94130785D01*
X63071357Y-94759357D01*
X63071357Y-94130785D02*
X63014214Y-94016500D01*
X62899928Y-93959357D01*
X62728500Y-93959357D01*
X62614214Y-94016500D01*
X62557071Y-94130785D01*
X62557071Y-94759357D01*
X61528500Y-94702214D02*
X61642785Y-94759357D01*
X61871357Y-94759357D01*
X61985642Y-94702214D01*
X62042785Y-94587928D01*
X62042785Y-94130785D01*
X61985642Y-94016500D01*
X61871357Y-93959357D01*
X61642785Y-93959357D01*
X61528500Y-94016500D01*
X61471357Y-94130785D01*
X61471357Y-94245071D01*
X62042785Y-94359357D01*
X61014214Y-94702214D02*
X60899928Y-94759357D01*
X60671357Y-94759357D01*
X60557071Y-94702214D01*
X60499928Y-94587928D01*
X60499928Y-94530785D01*
X60557071Y-94416500D01*
X60671357Y-94359357D01*
X60842785Y-94359357D01*
X60957071Y-94302214D01*
X61014214Y-94187928D01*
X61014214Y-94130785D01*
X60957071Y-94016500D01*
X60842785Y-93959357D01*
X60671357Y-93959357D01*
X60557071Y-94016500D01*
X59985642Y-94302214D02*
X59071357Y-94302214D01*
X57928500Y-94759357D02*
X58499928Y-94759357D01*
X58499928Y-93559357D01*
X57528500Y-94759357D02*
X57528500Y-93959357D01*
X57528500Y-93559357D02*
X57585642Y-93616500D01*
X57528500Y-93673642D01*
X57471357Y-93616500D01*
X57528500Y-93559357D01*
X57528500Y-93673642D01*
X57128500Y-93959357D02*
X56671357Y-93959357D01*
X56957071Y-93559357D02*
X56957071Y-94587928D01*
X56899928Y-94702214D01*
X56785642Y-94759357D01*
X56671357Y-94759357D01*
X55814214Y-94702214D02*
X55928500Y-94759357D01*
X56157071Y-94759357D01*
X56271357Y-94702214D01*
X56328500Y-94587928D01*
X56328500Y-94130785D01*
X56271357Y-94016500D01*
X56157071Y-93959357D01*
X55928500Y-93959357D01*
X55814214Y-94016500D01*
X55757071Y-94130785D01*
X55757071Y-94245071D01*
X56328500Y-94359357D01*
X54385642Y-93673642D02*
X54328500Y-93616500D01*
X54214214Y-93559357D01*
X53928500Y-93559357D01*
X53814214Y-93616500D01*
X53757071Y-93673642D01*
X53699928Y-93787928D01*
X53699928Y-93902214D01*
X53757071Y-94073642D01*
X54442785Y-94759357D01*
X53699928Y-94759357D01*
X52271357Y-94759357D02*
X52271357Y-93959357D01*
X52271357Y-94187928D02*
X52214214Y-94073642D01*
X52157071Y-94016500D01*
X52042785Y-93959357D01*
X51928500Y-93959357D01*
X51299928Y-93559357D02*
X51185642Y-93559357D01*
X51071357Y-93616500D01*
X51014214Y-93673642D01*
X50957071Y-93787928D01*
X50899928Y-94016500D01*
X50899928Y-94302214D01*
X50957071Y-94530785D01*
X51014214Y-94645071D01*
X51071357Y-94702214D01*
X51185642Y-94759357D01*
X51299928Y-94759357D01*
X51414214Y-94702214D01*
X51471357Y-94645071D01*
X51528500Y-94530785D01*
X51585642Y-94302214D01*
X51585642Y-94016500D01*
X51528500Y-93787928D01*
X51471357Y-93673642D01*
X51414214Y-93616500D01*
X51299928Y-93559357D01*
X50385642Y-94645071D02*
X50328500Y-94702214D01*
X50385642Y-94759357D01*
X50442785Y-94702214D01*
X50385642Y-94645071D01*
X50385642Y-94759357D01*
X49928500Y-93559357D02*
X49185642Y-93559357D01*
X49585642Y-94016500D01*
X49414214Y-94016500D01*
X49299928Y-94073642D01*
X49242785Y-94130785D01*
X49185642Y-94245071D01*
X49185642Y-94530785D01*
X49242785Y-94645071D01*
X49299928Y-94702214D01*
X49414214Y-94759357D01*
X49757071Y-94759357D01*
X49871357Y-94702214D01*
X49928500Y-94645071D01*
X85871357Y-95795071D02*
X85985642Y-95737928D01*
X86214214Y-95737928D01*
X86328500Y-95795071D01*
X86442785Y-95909357D01*
X86499928Y-96023642D01*
X86499928Y-96252214D01*
X86442785Y-96366500D01*
X86328500Y-96480785D01*
X86214214Y-96537928D01*
X85985642Y-96537928D01*
X85871357Y-96480785D01*
X86099928Y-95337928D02*
X86385642Y-95395071D01*
X86671357Y-95566500D01*
X86842785Y-95852214D01*
X86899928Y-96137928D01*
X86842785Y-96423642D01*
X86671357Y-96709357D01*
X86385642Y-96880785D01*
X86099928Y-96937928D01*
X85814214Y-96880785D01*
X85528500Y-96709357D01*
X85357071Y-96423642D01*
X85299928Y-96137928D01*
X85357071Y-95852214D01*
X85528500Y-95566500D01*
X85814214Y-95395071D01*
X86099928Y-95337928D01*
X83928500Y-95623642D02*
X83871357Y-95566500D01*
X83757071Y-95509357D01*
X83471357Y-95509357D01*
X83357071Y-95566500D01*
X83299928Y-95623642D01*
X83242785Y-95737928D01*
X83242785Y-95852214D01*
X83299928Y-96023642D01*
X83985642Y-96709357D01*
X83242785Y-96709357D01*
X82499928Y-95509357D02*
X82385642Y-95509357D01*
X82271357Y-95566500D01*
X82214214Y-95623642D01*
X82157071Y-95737928D01*
X82099928Y-95966500D01*
X82099928Y-96252214D01*
X82157071Y-96480785D01*
X82214214Y-96595071D01*
X82271357Y-96652214D01*
X82385642Y-96709357D01*
X82499928Y-96709357D01*
X82614214Y-96652214D01*
X82671357Y-96595071D01*
X82728500Y-96480785D01*
X82785642Y-96252214D01*
X82785642Y-95966500D01*
X82728500Y-95737928D01*
X82671357Y-95623642D01*
X82614214Y-95566500D01*
X82499928Y-95509357D01*
X81642785Y-95623642D02*
X81585642Y-95566500D01*
X81471357Y-95509357D01*
X81185642Y-95509357D01*
X81071357Y-95566500D01*
X81014214Y-95623642D01*
X80957071Y-95737928D01*
X80957071Y-95852214D01*
X81014214Y-96023642D01*
X81699928Y-96709357D01*
X80957071Y-96709357D01*
X80214214Y-95509357D02*
X80099928Y-95509357D01*
X79985642Y-95566500D01*
X79928500Y-95623642D01*
X79871357Y-95737928D01*
X79814214Y-95966500D01*
X79814214Y-96252214D01*
X79871357Y-96480785D01*
X79928500Y-96595071D01*
X79985642Y-96652214D01*
X80099928Y-96709357D01*
X80214214Y-96709357D01*
X80328500Y-96652214D01*
X80385642Y-96595071D01*
X80442785Y-96480785D01*
X80499928Y-96252214D01*
X80499928Y-95966500D01*
X80442785Y-95737928D01*
X80385642Y-95623642D01*
X80328500Y-95566500D01*
X80214214Y-95509357D01*
X78385642Y-96709357D02*
X78385642Y-95509357D01*
X78099928Y-95509357D01*
X77928500Y-95566500D01*
X77814214Y-95680785D01*
X77757071Y-95795071D01*
X77699928Y-96023642D01*
X77699928Y-96195071D01*
X77757071Y-96423642D01*
X77814214Y-96537928D01*
X77928500Y-96652214D01*
X78099928Y-96709357D01*
X78385642Y-96709357D01*
X76785642Y-96080785D02*
X76614214Y-96137928D01*
X76557071Y-96195071D01*
X76499928Y-96309357D01*
X76499928Y-96480785D01*
X76557071Y-96595071D01*
X76614214Y-96652214D01*
X76728500Y-96709357D01*
X77185642Y-96709357D01*
X77185642Y-95509357D01*
X76785642Y-95509357D01*
X76671357Y-95566500D01*
X76614214Y-95623642D01*
X76557071Y-95737928D01*
X76557071Y-95852214D01*
X76614214Y-95966500D01*
X76671357Y-96023642D01*
X76785642Y-96080785D01*
X77185642Y-96080785D01*
X75928500Y-96709357D02*
X75699928Y-96709357D01*
X75585642Y-96652214D01*
X75528500Y-96595071D01*
X75414214Y-96423642D01*
X75357071Y-96195071D01*
X75357071Y-95737928D01*
X75414214Y-95623642D01*
X75471357Y-95566500D01*
X75585642Y-95509357D01*
X75814214Y-95509357D01*
X75928500Y-95566500D01*
X75985642Y-95623642D01*
X76042785Y-95737928D01*
X76042785Y-96023642D01*
X75985642Y-96137928D01*
X75928500Y-96195071D01*
X75814214Y-96252214D01*
X75585642Y-96252214D01*
X75471357Y-96195071D01*
X75414214Y-96137928D01*
X75357071Y-96023642D01*
X74842785Y-96709357D02*
X74842785Y-95509357D01*
X74442785Y-96366500D01*
X74042785Y-95509357D01*
X74042785Y-96709357D01*
X73528500Y-96366500D02*
X72957071Y-96366500D01*
X73642785Y-96709357D02*
X73242785Y-95509357D01*
X72842785Y-96709357D01*
X72614214Y-95509357D02*
X71928500Y-95509357D01*
X72271357Y-96709357D02*
X72271357Y-95509357D01*
X70271357Y-97166500D02*
X70328500Y-97109357D01*
X70442785Y-96937928D01*
X70499928Y-96823642D01*
X70557071Y-96652214D01*
X70614214Y-96366500D01*
X70614214Y-96137928D01*
X70557071Y-95852214D01*
X70499928Y-95680785D01*
X70442785Y-95566500D01*
X70328500Y-95395071D01*
X70271357Y-95337928D01*
X69814214Y-96709357D02*
X69814214Y-95909357D01*
X69814214Y-96023642D02*
X69757071Y-95966500D01*
X69642785Y-95909357D01*
X69471357Y-95909357D01*
X69357071Y-95966500D01*
X69299928Y-96080785D01*
X69299928Y-96709357D01*
X69299928Y-96080785D02*
X69242785Y-95966500D01*
X69128500Y-95909357D01*
X68957071Y-95909357D01*
X68842785Y-95966500D01*
X68785642Y-96080785D01*
X68785642Y-96709357D01*
X68042785Y-96709357D02*
X68157071Y-96652214D01*
X68214214Y-96595071D01*
X68271357Y-96480785D01*
X68271357Y-96137928D01*
X68214214Y-96023642D01*
X68157071Y-95966500D01*
X68042785Y-95909357D01*
X67871357Y-95909357D01*
X67757071Y-95966500D01*
X67699928Y-96023642D01*
X67642785Y-96137928D01*
X67642785Y-96480785D01*
X67699928Y-96595071D01*
X67757071Y-96652214D01*
X67871357Y-96709357D01*
X68042785Y-96709357D01*
X66614214Y-96709357D02*
X66614214Y-95509357D01*
X66614214Y-96652214D02*
X66728500Y-96709357D01*
X66957071Y-96709357D01*
X67071357Y-96652214D01*
X67128500Y-96595071D01*
X67185642Y-96480785D01*
X67185642Y-96137928D01*
X67128500Y-96023642D01*
X67071357Y-95966500D01*
X66957071Y-95909357D01*
X66728500Y-95909357D01*
X66614214Y-95966500D01*
X66099928Y-96652214D02*
X65985642Y-96709357D01*
X65757071Y-96709357D01*
X65642785Y-96652214D01*
X65585642Y-96537928D01*
X65585642Y-96480785D01*
X65642785Y-96366500D01*
X65757071Y-96309357D01*
X65928500Y-96309357D01*
X66042785Y-96252214D01*
X66099928Y-96137928D01*
X66099928Y-96080785D01*
X66042785Y-95966500D01*
X65928500Y-95909357D01*
X65757071Y-95909357D01*
X65642785Y-95966500D01*
X64157071Y-96709357D02*
X64157071Y-95509357D01*
X63757071Y-96366500D01*
X63357071Y-95509357D01*
X63357071Y-96709357D01*
X62214214Y-95509357D02*
X62785642Y-95509357D01*
X62842785Y-96080785D01*
X62785642Y-96023642D01*
X62671357Y-95966500D01*
X62385642Y-95966500D01*
X62271357Y-96023642D01*
X62214214Y-96080785D01*
X62157071Y-96195071D01*
X62157071Y-96480785D01*
X62214214Y-96595071D01*
X62271357Y-96652214D01*
X62385642Y-96709357D01*
X62671357Y-96709357D01*
X62785642Y-96652214D01*
X62842785Y-96595071D01*
X61642785Y-96080785D02*
X61242785Y-96080785D01*
X61071357Y-96709357D02*
X61642785Y-96709357D01*
X61642785Y-95509357D01*
X61071357Y-95509357D01*
X60728499Y-95509357D02*
X60328499Y-96709357D01*
X59928499Y-95509357D01*
X59699928Y-95509357D02*
X59014214Y-95509357D01*
X59357071Y-96709357D02*
X59357071Y-95509357D01*
X58728499Y-97166500D02*
X58671357Y-97109357D01*
X58557071Y-96937928D01*
X58499928Y-96823642D01*
X58442785Y-96652214D01*
X58385642Y-96366500D01*
X58385642Y-96137928D01*
X58442785Y-95852214D01*
X58499928Y-95680785D01*
X58557071Y-95566500D01*
X58671357Y-95395071D01*
X58728499Y-95337928D01*
X56899928Y-96252214D02*
X55985642Y-96252214D01*
X54499928Y-96709357D02*
X54499928Y-95509357D01*
X54499928Y-95966500D02*
X54385642Y-95909357D01*
X54157071Y-95909357D01*
X54042785Y-95966500D01*
X53985642Y-96023642D01*
X53928499Y-96137928D01*
X53928499Y-96480785D01*
X53985642Y-96595071D01*
X54042785Y-96652214D01*
X54157071Y-96709357D01*
X54385642Y-96709357D01*
X54499928Y-96652214D01*
X52899928Y-96709357D02*
X52899928Y-96080785D01*
X52957071Y-95966500D01*
X53071357Y-95909357D01*
X53299928Y-95909357D01*
X53414214Y-95966500D01*
X52899928Y-96652214D02*
X53014214Y-96709357D01*
X53299928Y-96709357D01*
X53414214Y-96652214D01*
X53471357Y-96537928D01*
X53471357Y-96423642D01*
X53414214Y-96309357D01*
X53299928Y-96252214D01*
X53014214Y-96252214D01*
X52899928Y-96195071D01*
X52385642Y-96652214D02*
X52271357Y-96709357D01*
X52042785Y-96709357D01*
X51928499Y-96652214D01*
X51871357Y-96537928D01*
X51871357Y-96480785D01*
X51928499Y-96366500D01*
X52042785Y-96309357D01*
X52214214Y-96309357D01*
X52328499Y-96252214D01*
X52385642Y-96137928D01*
X52385642Y-96080785D01*
X52328499Y-95966500D01*
X52214214Y-95909357D01*
X52042785Y-95909357D01*
X51928499Y-95966500D01*
X50899928Y-96652214D02*
X51014214Y-96709357D01*
X51242785Y-96709357D01*
X51357071Y-96652214D01*
X51414214Y-96537928D01*
X51414214Y-96080785D01*
X51357071Y-95966500D01*
X51242785Y-95909357D01*
X51014214Y-95909357D01*
X50899928Y-95966500D01*
X50842785Y-96080785D01*
X50842785Y-96195071D01*
X51414214Y-96309357D01*
X49814214Y-96709357D02*
X49814214Y-95509357D01*
X49814214Y-96652214D02*
X49928499Y-96709357D01*
X50157071Y-96709357D01*
X50271357Y-96652214D01*
X50328499Y-96595071D01*
X50385642Y-96480785D01*
X50385642Y-96137928D01*
X50328499Y-96023642D01*
X50271357Y-95966500D01*
X50157071Y-95909357D01*
X49928499Y-95909357D01*
X49814214Y-95966500D01*
X48157071Y-96709357D02*
X48271357Y-96652214D01*
X48328499Y-96595071D01*
X48385642Y-96480785D01*
X48385642Y-96137928D01*
X48328499Y-96023642D01*
X48271357Y-95966500D01*
X48157071Y-95909357D01*
X47985642Y-95909357D01*
X47871357Y-95966500D01*
X47814214Y-96023642D01*
X47757071Y-96137928D01*
X47757071Y-96480785D01*
X47814214Y-96595071D01*
X47871357Y-96652214D01*
X47985642Y-96709357D01*
X48157071Y-96709357D01*
X47242785Y-95909357D02*
X47242785Y-96709357D01*
X47242785Y-96023642D02*
X47185642Y-95966500D01*
X47071357Y-95909357D01*
X46899928Y-95909357D01*
X46785642Y-95966500D01*
X46728499Y-96080785D01*
X46728499Y-96709357D01*
X45357071Y-95909357D02*
X45128499Y-96709357D01*
X44899928Y-96137928D01*
X44671357Y-96709357D01*
X44442785Y-95909357D01*
X43814214Y-96709357D02*
X43928499Y-96652214D01*
X43985642Y-96595071D01*
X44042785Y-96480785D01*
X44042785Y-96137928D01*
X43985642Y-96023642D01*
X43928499Y-95966500D01*
X43814214Y-95909357D01*
X43642785Y-95909357D01*
X43528499Y-95966500D01*
X43471357Y-96023642D01*
X43414214Y-96137928D01*
X43414214Y-96480785D01*
X43471357Y-96595071D01*
X43528499Y-96652214D01*
X43642785Y-96709357D01*
X43814214Y-96709357D01*
X42899928Y-96709357D02*
X42899928Y-95909357D01*
X42899928Y-96137928D02*
X42842785Y-96023642D01*
X42785642Y-95966500D01*
X42671357Y-95909357D01*
X42557071Y-95909357D01*
X42157071Y-96709357D02*
X42157071Y-95509357D01*
X42042785Y-96252214D02*
X41699928Y-96709357D01*
X41699928Y-95909357D02*
X42157071Y-96366500D01*
X40271357Y-96709357D02*
X40271357Y-95509357D01*
X40271357Y-95966500D02*
X40157071Y-95909357D01*
X39928499Y-95909357D01*
X39814214Y-95966500D01*
X39757071Y-96023642D01*
X39699928Y-96137928D01*
X39699928Y-96480785D01*
X39757071Y-96595071D01*
X39814214Y-96652214D01*
X39928499Y-96709357D01*
X40157071Y-96709357D01*
X40271357Y-96652214D01*
X39299928Y-95909357D02*
X39014214Y-96709357D01*
X38728499Y-95909357D02*
X39014214Y-96709357D01*
X39128499Y-96995071D01*
X39185642Y-97052214D01*
X39299928Y-97109357D01*
X37471357Y-95509357D02*
X37185642Y-96709357D01*
X36957071Y-95852214D01*
X36728499Y-96709357D01*
X36442785Y-95509357D01*
X36042785Y-96366500D02*
X35471357Y-96366500D01*
X36157071Y-96709357D02*
X35757071Y-95509357D01*
X35357071Y-96709357D01*
X35014214Y-95623642D02*
X34957071Y-95566500D01*
X34842785Y-95509357D01*
X34557071Y-95509357D01*
X34442785Y-95566500D01*
X34385642Y-95623642D01*
X34328499Y-95737928D01*
X34328499Y-95852214D01*
X34385642Y-96023642D01*
X35071357Y-96709357D01*
X34328499Y-96709357D01*
X33814214Y-96080785D02*
X33414214Y-96080785D01*
X33242785Y-96709357D02*
X33814214Y-96709357D01*
X33814214Y-95509357D01*
X33242785Y-95509357D01*
X32728499Y-95509357D02*
X32728499Y-96480785D01*
X32671357Y-96595071D01*
X32614214Y-96652214D01*
X32499928Y-96709357D01*
X32271357Y-96709357D01*
X32157071Y-96652214D01*
X32099928Y-96595071D01*
X32042785Y-96480785D01*
X32042785Y-95509357D01*
X31128499Y-95509357D02*
X31128499Y-96366500D01*
X31185642Y-96537928D01*
X31299928Y-96652214D01*
X31471357Y-96709357D01*
X31585642Y-96709357D01*
X30557071Y-96252214D02*
X29642785Y-96252214D01*
X30099928Y-96709357D02*
X30099928Y-95795071D01*
X29071357Y-96709357D02*
X29071357Y-95509357D01*
X28385642Y-96709357D01*
X28385642Y-95509357D01*
X27871357Y-95623642D02*
X27814214Y-95566500D01*
X27699928Y-95509357D01*
X27414214Y-95509357D01*
X27299928Y-95566500D01*
X27242785Y-95623642D01*
X27185642Y-95737928D01*
X27185642Y-95852214D01*
X27242785Y-96023642D01*
X27928499Y-96709357D01*
X27185642Y-96709357D01*
X26728499Y-96366500D02*
X26157071Y-96366500D01*
X26842785Y-96709357D02*
X26442785Y-95509357D01*
X26042785Y-96709357D01*
X25642785Y-96709357D02*
X25642785Y-95509357D01*
X25357071Y-95509357D01*
X25185642Y-95566500D01*
X25071357Y-95680785D01*
X25014214Y-95795071D01*
X24957071Y-96023642D01*
X24957071Y-96195071D01*
X25014214Y-96423642D01*
X25071357Y-96537928D01*
X25185642Y-96652214D01*
X25357071Y-96709357D01*
X25642785Y-96709357D01*
X23757071Y-96709357D02*
X24157071Y-96137928D01*
X24442785Y-96709357D02*
X24442785Y-95509357D01*
X23985642Y-95509357D01*
X23871357Y-95566500D01*
X23814214Y-95623642D01*
X23757071Y-95737928D01*
X23757071Y-95909357D01*
X23814214Y-96023642D01*
X23871357Y-96080785D01*
X23985642Y-96137928D01*
X24442785Y-96137928D01*
D11*
X7910000Y-39170000D02*
X6580000Y-39170000D01*
X7910000Y-40500000D02*
X7910000Y-39170000D01*
X7910000Y-41770000D02*
X5250000Y-41770000D01*
X5250000Y-41770000D02*
X5250000Y-54530000D01*
X7910000Y-41770000D02*
X7910000Y-54530000D01*
X7910000Y-54530000D02*
X5250000Y-54530000D01*
X143868000Y-49351629D02*
X143868000Y-49238000D01*
X145194371Y-50678000D02*
G75*
G03*
X145194371Y-50678000I-1326371J0D01*
G01*
D10*
X93350000Y-74025000D02*
X93350000Y-68050000D01*
X87825000Y-72450000D02*
X87825000Y-68050000D01*
D11*
X2415000Y-66655000D02*
X2415000Y-65725000D01*
X2415000Y-63495000D02*
X2415000Y-64425000D01*
X2415000Y-63495000D02*
X4575000Y-63495000D01*
X2415000Y-66655000D02*
X3875000Y-66655000D01*
X4830000Y-57810000D02*
X3900000Y-57810000D01*
X1670000Y-57810000D02*
X2600000Y-57810000D01*
X1670000Y-57810000D02*
X1670000Y-55650000D01*
X4830000Y-57810000D02*
X4830000Y-56350000D01*
X138390000Y-56941422D02*
X138390000Y-57458578D01*
X139810000Y-56941422D02*
X139810000Y-57458578D01*
D12*
G36*
X90416686Y-91326931D02*
G01*
X90332865Y-91771555D01*
X90023580Y-91899053D01*
X89714294Y-92026551D01*
X89343254Y-91774246D01*
X89239343Y-91703996D01*
X89145413Y-91641272D01*
X89065848Y-91588938D01*
X89005030Y-91549857D01*
X88967343Y-91526893D01*
X88957079Y-91521942D01*
X88938590Y-91534676D01*
X88899080Y-91569882D01*
X88842978Y-91623062D01*
X88774713Y-91689718D01*
X88698714Y-91765354D01*
X88619408Y-91845472D01*
X88541225Y-91925574D01*
X88468593Y-92001164D01*
X88405941Y-92067745D01*
X88357697Y-92120818D01*
X88328290Y-92155887D01*
X88321259Y-92167623D01*
X88331377Y-92189260D01*
X88359741Y-92236662D01*
X88403371Y-92305193D01*
X88459282Y-92390215D01*
X88524494Y-92487093D01*
X88562281Y-92542350D01*
X88631157Y-92643248D01*
X88692360Y-92734299D01*
X88742922Y-92810970D01*
X88779872Y-92868728D01*
X88800242Y-92903043D01*
X88803303Y-92910254D01*
X88796364Y-92930748D01*
X88777449Y-92978513D01*
X88749413Y-93046832D01*
X88715109Y-93128989D01*
X88677391Y-93218270D01*
X88639113Y-93307958D01*
X88603130Y-93391338D01*
X88572294Y-93461694D01*
X88549461Y-93512310D01*
X88537483Y-93536471D01*
X88536776Y-93537422D01*
X88517969Y-93542036D01*
X88467882Y-93552328D01*
X88391707Y-93567287D01*
X88294635Y-93585901D01*
X88181857Y-93607159D01*
X88116058Y-93619418D01*
X87995550Y-93642362D01*
X87886703Y-93664195D01*
X87795024Y-93683722D01*
X87726019Y-93699748D01*
X87685196Y-93711079D01*
X87676989Y-93714674D01*
X87668952Y-93739006D01*
X87662467Y-93793959D01*
X87657530Y-93873108D01*
X87654136Y-93970026D01*
X87652282Y-94078287D01*
X87651962Y-94191465D01*
X87653173Y-94303135D01*
X87655910Y-94406868D01*
X87660169Y-94496241D01*
X87665945Y-94564826D01*
X87673233Y-94606197D01*
X87677605Y-94614810D01*
X87703736Y-94625133D01*
X87759107Y-94639892D01*
X87836393Y-94657352D01*
X87928270Y-94675780D01*
X87960342Y-94681741D01*
X88114976Y-94710066D01*
X88237125Y-94732876D01*
X88330827Y-94751080D01*
X88400116Y-94765583D01*
X88449029Y-94777292D01*
X88481603Y-94787115D01*
X88501872Y-94795956D01*
X88513874Y-94804724D01*
X88515553Y-94806457D01*
X88532316Y-94834371D01*
X88557886Y-94888695D01*
X88589712Y-94962777D01*
X88625240Y-95049965D01*
X88661917Y-95143608D01*
X88697189Y-95237052D01*
X88728504Y-95323647D01*
X88753307Y-95396740D01*
X88769046Y-95449678D01*
X88773168Y-95475811D01*
X88772824Y-95476726D01*
X88758859Y-95498086D01*
X88727178Y-95545084D01*
X88681109Y-95612827D01*
X88623982Y-95696423D01*
X88559127Y-95790982D01*
X88540657Y-95817854D01*
X88474801Y-95915275D01*
X88416850Y-96004163D01*
X88369962Y-96079412D01*
X88337293Y-96135920D01*
X88322000Y-96168581D01*
X88321259Y-96172593D01*
X88334108Y-96193684D01*
X88369612Y-96235464D01*
X88423207Y-96293445D01*
X88490329Y-96363135D01*
X88566413Y-96440045D01*
X88646896Y-96519683D01*
X88727213Y-96597561D01*
X88802801Y-96669186D01*
X88869095Y-96730070D01*
X88921531Y-96775721D01*
X88955545Y-96801650D01*
X88964955Y-96805883D01*
X88986857Y-96795912D01*
X89031700Y-96769020D01*
X89092179Y-96729736D01*
X89138711Y-96698117D01*
X89223025Y-96640098D01*
X89322874Y-96571784D01*
X89423027Y-96503579D01*
X89476873Y-96467075D01*
X89659129Y-96343800D01*
X89812119Y-96426520D01*
X89881818Y-96462759D01*
X89941086Y-96490926D01*
X89981189Y-96506991D01*
X89991397Y-96509226D01*
X90003671Y-96492722D01*
X90027887Y-96446082D01*
X90062237Y-96373609D01*
X90104912Y-96279606D01*
X90154106Y-96168374D01*
X90208010Y-96044215D01*
X90264816Y-95911432D01*
X90322718Y-95774327D01*
X90379907Y-95637202D01*
X90434576Y-95504358D01*
X90484916Y-95380098D01*
X90529120Y-95268725D01*
X90565381Y-95174539D01*
X90591891Y-95101844D01*
X90606842Y-95054941D01*
X90609246Y-95038833D01*
X90590189Y-95018286D01*
X90548464Y-94984933D01*
X90492794Y-94945702D01*
X90488122Y-94942599D01*
X90344236Y-94827423D01*
X90228217Y-94693053D01*
X90141070Y-94543784D01*
X90083801Y-94383913D01*
X90057414Y-94217737D01*
X90062915Y-94049552D01*
X90101310Y-93883655D01*
X90173605Y-93724342D01*
X90194874Y-93689487D01*
X90305504Y-93548737D01*
X90436198Y-93435714D01*
X90582436Y-93351003D01*
X90739692Y-93295194D01*
X90903443Y-93268874D01*
X91069167Y-93272630D01*
X91232338Y-93307050D01*
X91388435Y-93372723D01*
X91532933Y-93470235D01*
X91577631Y-93509813D01*
X91691388Y-93633703D01*
X91774282Y-93764124D01*
X91831144Y-93910315D01*
X91862813Y-94055088D01*
X91870631Y-94217860D01*
X91844562Y-94381440D01*
X91787255Y-94540298D01*
X91701356Y-94688906D01*
X91589514Y-94821735D01*
X91454377Y-94933256D01*
X91436617Y-94945011D01*
X91380350Y-94983508D01*
X91337577Y-95016863D01*
X91317128Y-95038160D01*
X91316831Y-95038833D01*
X91321221Y-95061871D01*
X91338624Y-95114157D01*
X91367232Y-95191390D01*
X91405235Y-95289268D01*
X91450826Y-95403491D01*
X91502197Y-95529758D01*
X91557538Y-95663767D01*
X91615042Y-95801218D01*
X91672899Y-95937808D01*
X91729302Y-96069237D01*
X91782442Y-96191205D01*
X91830510Y-96299409D01*
X91871699Y-96389549D01*
X91904199Y-96457323D01*
X91926203Y-96498430D01*
X91935064Y-96509226D01*
X91962140Y-96500819D01*
X92012803Y-96478272D01*
X92078317Y-96445613D01*
X92114341Y-96426520D01*
X92267332Y-96343800D01*
X92449588Y-96467075D01*
X92542625Y-96530228D01*
X92644485Y-96599727D01*
X92739938Y-96665165D01*
X92787750Y-96698117D01*
X92854995Y-96743273D01*
X92911936Y-96779057D01*
X92951146Y-96800938D01*
X92963881Y-96805563D01*
X92982417Y-96793085D01*
X93023441Y-96758252D01*
X93082975Y-96704678D01*
X93157042Y-96635983D01*
X93241665Y-96555781D01*
X93295185Y-96504286D01*
X93388819Y-96412286D01*
X93469741Y-96329999D01*
X93534677Y-96260945D01*
X93580358Y-96208644D01*
X93603511Y-96176616D01*
X93605732Y-96170116D01*
X93595424Y-96145394D01*
X93566939Y-96095405D01*
X93523437Y-96025212D01*
X93468077Y-95939875D01*
X93404020Y-95844456D01*
X93385803Y-95817854D01*
X93319427Y-95721167D01*
X93259878Y-95634117D01*
X93210484Y-95561595D01*
X93174575Y-95508493D01*
X93155481Y-95479703D01*
X93153636Y-95476726D01*
X93156395Y-95453782D01*
X93171038Y-95403336D01*
X93195013Y-95332041D01*
X93225766Y-95246547D01*
X93260744Y-95153507D01*
X93297393Y-95059574D01*
X93333161Y-94971399D01*
X93365494Y-94895634D01*
X93391838Y-94838931D01*
X93409642Y-94807943D01*
X93410907Y-94806457D01*
X93421794Y-94797601D01*
X93440182Y-94788843D01*
X93470106Y-94779277D01*
X93515603Y-94767996D01*
X93580709Y-94754093D01*
X93669461Y-94736663D01*
X93785893Y-94714798D01*
X93934042Y-94687591D01*
X93966118Y-94681741D01*
X94061186Y-94663374D01*
X94144065Y-94645405D01*
X94207430Y-94629569D01*
X94243958Y-94617600D01*
X94248856Y-94614810D01*
X94256927Y-94590072D01*
X94263487Y-94534790D01*
X94268533Y-94455389D01*
X94272059Y-94358296D01*
X94274061Y-94249938D01*
X94274536Y-94136740D01*
X94273477Y-94025128D01*
X94270882Y-93921529D01*
X94266746Y-93832368D01*
X94261063Y-93764072D01*
X94253831Y-93723066D01*
X94249471Y-93714674D01*
X94225198Y-93706208D01*
X94169926Y-93692435D01*
X94089162Y-93674550D01*
X93988412Y-93653748D01*
X93873183Y-93631223D01*
X93810402Y-93619418D01*
X93691287Y-93597151D01*
X93585065Y-93576979D01*
X93496927Y-93559915D01*
X93432066Y-93546969D01*
X93395674Y-93539155D01*
X93389684Y-93537422D01*
X93379561Y-93517890D01*
X93358162Y-93470843D01*
X93328339Y-93403003D01*
X93292945Y-93321091D01*
X93254832Y-93231828D01*
X93216853Y-93141935D01*
X93181860Y-93058135D01*
X93152706Y-92987147D01*
X93132243Y-92935694D01*
X93123323Y-92910497D01*
X93123157Y-92909396D01*
X93133269Y-92889519D01*
X93161617Y-92843777D01*
X93205223Y-92776717D01*
X93261106Y-92692884D01*
X93326287Y-92596826D01*
X93364179Y-92541650D01*
X93433225Y-92440481D01*
X93494550Y-92348630D01*
X93545163Y-92270744D01*
X93582071Y-92211469D01*
X93602282Y-92175451D01*
X93605201Y-92167377D01*
X93592653Y-92148584D01*
X93557963Y-92108457D01*
X93505563Y-92051493D01*
X93439884Y-91982185D01*
X93365356Y-91905031D01*
X93286413Y-91824525D01*
X93207483Y-91745163D01*
X93133000Y-91671440D01*
X93067394Y-91607852D01*
X93015096Y-91558894D01*
X92980539Y-91529061D01*
X92968978Y-91521942D01*
X92950154Y-91531953D01*
X92905131Y-91560078D01*
X92838287Y-91603454D01*
X92753999Y-91659218D01*
X92656644Y-91724506D01*
X92583207Y-91774246D01*
X92212167Y-92026551D01*
X91593595Y-91771555D01*
X91509775Y-91326931D01*
X91425954Y-90882307D01*
X90500506Y-90882307D01*
X90416686Y-91326931D01*
G37*
X90416686Y-91326931D02*
X90332865Y-91771555D01*
X90023580Y-91899053D01*
X89714294Y-92026551D01*
X89343254Y-91774246D01*
X89239343Y-91703996D01*
X89145413Y-91641272D01*
X89065848Y-91588938D01*
X89005030Y-91549857D01*
X88967343Y-91526893D01*
X88957079Y-91521942D01*
X88938590Y-91534676D01*
X88899080Y-91569882D01*
X88842978Y-91623062D01*
X88774713Y-91689718D01*
X88698714Y-91765354D01*
X88619408Y-91845472D01*
X88541225Y-91925574D01*
X88468593Y-92001164D01*
X88405941Y-92067745D01*
X88357697Y-92120818D01*
X88328290Y-92155887D01*
X88321259Y-92167623D01*
X88331377Y-92189260D01*
X88359741Y-92236662D01*
X88403371Y-92305193D01*
X88459282Y-92390215D01*
X88524494Y-92487093D01*
X88562281Y-92542350D01*
X88631157Y-92643248D01*
X88692360Y-92734299D01*
X88742922Y-92810970D01*
X88779872Y-92868728D01*
X88800242Y-92903043D01*
X88803303Y-92910254D01*
X88796364Y-92930748D01*
X88777449Y-92978513D01*
X88749413Y-93046832D01*
X88715109Y-93128989D01*
X88677391Y-93218270D01*
X88639113Y-93307958D01*
X88603130Y-93391338D01*
X88572294Y-93461694D01*
X88549461Y-93512310D01*
X88537483Y-93536471D01*
X88536776Y-93537422D01*
X88517969Y-93542036D01*
X88467882Y-93552328D01*
X88391707Y-93567287D01*
X88294635Y-93585901D01*
X88181857Y-93607159D01*
X88116058Y-93619418D01*
X87995550Y-93642362D01*
X87886703Y-93664195D01*
X87795024Y-93683722D01*
X87726019Y-93699748D01*
X87685196Y-93711079D01*
X87676989Y-93714674D01*
X87668952Y-93739006D01*
X87662467Y-93793959D01*
X87657530Y-93873108D01*
X87654136Y-93970026D01*
X87652282Y-94078287D01*
X87651962Y-94191465D01*
X87653173Y-94303135D01*
X87655910Y-94406868D01*
X87660169Y-94496241D01*
X87665945Y-94564826D01*
X87673233Y-94606197D01*
X87677605Y-94614810D01*
X87703736Y-94625133D01*
X87759107Y-94639892D01*
X87836393Y-94657352D01*
X87928270Y-94675780D01*
X87960342Y-94681741D01*
X88114976Y-94710066D01*
X88237125Y-94732876D01*
X88330827Y-94751080D01*
X88400116Y-94765583D01*
X88449029Y-94777292D01*
X88481603Y-94787115D01*
X88501872Y-94795956D01*
X88513874Y-94804724D01*
X88515553Y-94806457D01*
X88532316Y-94834371D01*
X88557886Y-94888695D01*
X88589712Y-94962777D01*
X88625240Y-95049965D01*
X88661917Y-95143608D01*
X88697189Y-95237052D01*
X88728504Y-95323647D01*
X88753307Y-95396740D01*
X88769046Y-95449678D01*
X88773168Y-95475811D01*
X88772824Y-95476726D01*
X88758859Y-95498086D01*
X88727178Y-95545084D01*
X88681109Y-95612827D01*
X88623982Y-95696423D01*
X88559127Y-95790982D01*
X88540657Y-95817854D01*
X88474801Y-95915275D01*
X88416850Y-96004163D01*
X88369962Y-96079412D01*
X88337293Y-96135920D01*
X88322000Y-96168581D01*
X88321259Y-96172593D01*
X88334108Y-96193684D01*
X88369612Y-96235464D01*
X88423207Y-96293445D01*
X88490329Y-96363135D01*
X88566413Y-96440045D01*
X88646896Y-96519683D01*
X88727213Y-96597561D01*
X88802801Y-96669186D01*
X88869095Y-96730070D01*
X88921531Y-96775721D01*
X88955545Y-96801650D01*
X88964955Y-96805883D01*
X88986857Y-96795912D01*
X89031700Y-96769020D01*
X89092179Y-96729736D01*
X89138711Y-96698117D01*
X89223025Y-96640098D01*
X89322874Y-96571784D01*
X89423027Y-96503579D01*
X89476873Y-96467075D01*
X89659129Y-96343800D01*
X89812119Y-96426520D01*
X89881818Y-96462759D01*
X89941086Y-96490926D01*
X89981189Y-96506991D01*
X89991397Y-96509226D01*
X90003671Y-96492722D01*
X90027887Y-96446082D01*
X90062237Y-96373609D01*
X90104912Y-96279606D01*
X90154106Y-96168374D01*
X90208010Y-96044215D01*
X90264816Y-95911432D01*
X90322718Y-95774327D01*
X90379907Y-95637202D01*
X90434576Y-95504358D01*
X90484916Y-95380098D01*
X90529120Y-95268725D01*
X90565381Y-95174539D01*
X90591891Y-95101844D01*
X90606842Y-95054941D01*
X90609246Y-95038833D01*
X90590189Y-95018286D01*
X90548464Y-94984933D01*
X90492794Y-94945702D01*
X90488122Y-94942599D01*
X90344236Y-94827423D01*
X90228217Y-94693053D01*
X90141070Y-94543784D01*
X90083801Y-94383913D01*
X90057414Y-94217737D01*
X90062915Y-94049552D01*
X90101310Y-93883655D01*
X90173605Y-93724342D01*
X90194874Y-93689487D01*
X90305504Y-93548737D01*
X90436198Y-93435714D01*
X90582436Y-93351003D01*
X90739692Y-93295194D01*
X90903443Y-93268874D01*
X91069167Y-93272630D01*
X91232338Y-93307050D01*
X91388435Y-93372723D01*
X91532933Y-93470235D01*
X91577631Y-93509813D01*
X91691388Y-93633703D01*
X91774282Y-93764124D01*
X91831144Y-93910315D01*
X91862813Y-94055088D01*
X91870631Y-94217860D01*
X91844562Y-94381440D01*
X91787255Y-94540298D01*
X91701356Y-94688906D01*
X91589514Y-94821735D01*
X91454377Y-94933256D01*
X91436617Y-94945011D01*
X91380350Y-94983508D01*
X91337577Y-95016863D01*
X91317128Y-95038160D01*
X91316831Y-95038833D01*
X91321221Y-95061871D01*
X91338624Y-95114157D01*
X91367232Y-95191390D01*
X91405235Y-95289268D01*
X91450826Y-95403491D01*
X91502197Y-95529758D01*
X91557538Y-95663767D01*
X91615042Y-95801218D01*
X91672899Y-95937808D01*
X91729302Y-96069237D01*
X91782442Y-96191205D01*
X91830510Y-96299409D01*
X91871699Y-96389549D01*
X91904199Y-96457323D01*
X91926203Y-96498430D01*
X91935064Y-96509226D01*
X91962140Y-96500819D01*
X92012803Y-96478272D01*
X92078317Y-96445613D01*
X92114341Y-96426520D01*
X92267332Y-96343800D01*
X92449588Y-96467075D01*
X92542625Y-96530228D01*
X92644485Y-96599727D01*
X92739938Y-96665165D01*
X92787750Y-96698117D01*
X92854995Y-96743273D01*
X92911936Y-96779057D01*
X92951146Y-96800938D01*
X92963881Y-96805563D01*
X92982417Y-96793085D01*
X93023441Y-96758252D01*
X93082975Y-96704678D01*
X93157042Y-96635983D01*
X93241665Y-96555781D01*
X93295185Y-96504286D01*
X93388819Y-96412286D01*
X93469741Y-96329999D01*
X93534677Y-96260945D01*
X93580358Y-96208644D01*
X93603511Y-96176616D01*
X93605732Y-96170116D01*
X93595424Y-96145394D01*
X93566939Y-96095405D01*
X93523437Y-96025212D01*
X93468077Y-95939875D01*
X93404020Y-95844456D01*
X93385803Y-95817854D01*
X93319427Y-95721167D01*
X93259878Y-95634117D01*
X93210484Y-95561595D01*
X93174575Y-95508493D01*
X93155481Y-95479703D01*
X93153636Y-95476726D01*
X93156395Y-95453782D01*
X93171038Y-95403336D01*
X93195013Y-95332041D01*
X93225766Y-95246547D01*
X93260744Y-95153507D01*
X93297393Y-95059574D01*
X93333161Y-94971399D01*
X93365494Y-94895634D01*
X93391838Y-94838931D01*
X93409642Y-94807943D01*
X93410907Y-94806457D01*
X93421794Y-94797601D01*
X93440182Y-94788843D01*
X93470106Y-94779277D01*
X93515603Y-94767996D01*
X93580709Y-94754093D01*
X93669461Y-94736663D01*
X93785893Y-94714798D01*
X93934042Y-94687591D01*
X93966118Y-94681741D01*
X94061186Y-94663374D01*
X94144065Y-94645405D01*
X94207430Y-94629569D01*
X94243958Y-94617600D01*
X94248856Y-94614810D01*
X94256927Y-94590072D01*
X94263487Y-94534790D01*
X94268533Y-94455389D01*
X94272059Y-94358296D01*
X94274061Y-94249938D01*
X94274536Y-94136740D01*
X94273477Y-94025128D01*
X94270882Y-93921529D01*
X94266746Y-93832368D01*
X94261063Y-93764072D01*
X94253831Y-93723066D01*
X94249471Y-93714674D01*
X94225198Y-93706208D01*
X94169926Y-93692435D01*
X94089162Y-93674550D01*
X93988412Y-93653748D01*
X93873183Y-93631223D01*
X93810402Y-93619418D01*
X93691287Y-93597151D01*
X93585065Y-93576979D01*
X93496927Y-93559915D01*
X93432066Y-93546969D01*
X93395674Y-93539155D01*
X93389684Y-93537422D01*
X93379561Y-93517890D01*
X93358162Y-93470843D01*
X93328339Y-93403003D01*
X93292945Y-93321091D01*
X93254832Y-93231828D01*
X93216853Y-93141935D01*
X93181860Y-93058135D01*
X93152706Y-92987147D01*
X93132243Y-92935694D01*
X93123323Y-92910497D01*
X93123157Y-92909396D01*
X93133269Y-92889519D01*
X93161617Y-92843777D01*
X93205223Y-92776717D01*
X93261106Y-92692884D01*
X93326287Y-92596826D01*
X93364179Y-92541650D01*
X93433225Y-92440481D01*
X93494550Y-92348630D01*
X93545163Y-92270744D01*
X93582071Y-92211469D01*
X93602282Y-92175451D01*
X93605201Y-92167377D01*
X93592653Y-92148584D01*
X93557963Y-92108457D01*
X93505563Y-92051493D01*
X93439884Y-91982185D01*
X93365356Y-91905031D01*
X93286413Y-91824525D01*
X93207483Y-91745163D01*
X93133000Y-91671440D01*
X93067394Y-91607852D01*
X93015096Y-91558894D01*
X92980539Y-91529061D01*
X92968978Y-91521942D01*
X92950154Y-91531953D01*
X92905131Y-91560078D01*
X92838287Y-91603454D01*
X92753999Y-91659218D01*
X92656644Y-91724506D01*
X92583207Y-91774246D01*
X92212167Y-92026551D01*
X91593595Y-91771555D01*
X91509775Y-91326931D01*
X91425954Y-90882307D01*
X90500506Y-90882307D01*
X90416686Y-91326931D01*
D13*
X120000000Y-27425000D02*
X117400000Y-27425000D01*
X120000000Y-30625000D02*
X120000000Y-27425000D01*
X117400000Y-30625000D02*
X120000000Y-30625000D01*
X117400000Y-27425000D02*
X117400000Y-30625000D01*
X120200000Y-27125000D02*
G75*
G03*
X120200000Y-27125000I-300000J0D01*
G01*
D11*
X131600000Y-51790000D02*
X133100000Y-51790000D01*
X131600000Y-51790000D02*
X130100000Y-51790000D01*
X131600000Y-55010000D02*
X133100000Y-55010000D01*
X131600000Y-55010000D02*
X128675000Y-55010000D01*
X128000000Y-22940000D02*
X129800000Y-22940000D01*
X129800000Y-26160000D02*
X127350000Y-26160000D01*
X128510000Y-19008578D02*
X128510000Y-18491422D01*
X127090000Y-19008578D02*
X127090000Y-18491422D01*
X130810000Y-19008578D02*
X130810000Y-18491422D01*
X129390000Y-19008578D02*
X129390000Y-18491422D01*
X129132983Y-12990000D02*
X128767017Y-12990000D01*
X129132983Y-16410000D02*
X128767017Y-16410000D01*
X115790000Y-24241422D02*
X115790000Y-24758578D01*
X117210000Y-24241422D02*
X117210000Y-24758578D01*
X120290000Y-24241422D02*
X120290000Y-24758578D01*
X121710000Y-24241422D02*
X121710000Y-24758578D01*
X122490000Y-24241422D02*
X122490000Y-24758578D01*
X123910000Y-24241422D02*
X123910000Y-24758578D01*
X129390000Y-28441422D02*
X129390000Y-28958578D01*
X130810000Y-28441422D02*
X130810000Y-28958578D01*
X132990000Y-56941422D02*
X132990000Y-57458578D01*
X134410000Y-56941422D02*
X134410000Y-57458578D01*
X128641422Y-22110000D02*
X129158578Y-22110000D01*
X128641422Y-20690000D02*
X129158578Y-20690000D01*
X119510000Y-24758578D02*
X119510000Y-24241422D01*
X118090000Y-24758578D02*
X118090000Y-24241422D01*
X127190000Y-28441422D02*
X127190000Y-28958578D01*
X128610000Y-28441422D02*
X128610000Y-28958578D01*
X130790000Y-56941422D02*
X130790000Y-57458578D01*
X132210000Y-56941422D02*
X132210000Y-57458578D01*
X74490000Y-24841422D02*
X74490000Y-25358578D01*
X75910000Y-24841422D02*
X75910000Y-25358578D01*
X97370000Y-89480000D02*
X100030000Y-89480000D01*
X97370000Y-89480000D02*
X97370000Y-41160000D01*
X97370000Y-41160000D02*
X100030000Y-41160000D01*
X100030000Y-89480000D02*
X100030000Y-41160000D01*
X100030000Y-92080000D02*
X100030000Y-90750000D01*
X98700000Y-92080000D02*
X100030000Y-92080000D01*
X71890000Y-23396078D02*
X71890000Y-22878922D01*
X73310000Y-23396078D02*
X73310000Y-22878922D01*
X65190000Y-22647936D02*
X65190000Y-26752064D01*
X68610000Y-22647936D02*
X68610000Y-26752064D01*
X64610000Y-26752064D02*
X64610000Y-22647936D01*
X61190000Y-26752064D02*
X61190000Y-22647936D01*
X68610000Y-12952064D02*
X68610000Y-8847936D01*
X65190000Y-12952064D02*
X65190000Y-8847936D01*
X61190000Y-8847936D02*
X61190000Y-12952064D01*
X64610000Y-8847936D02*
X64610000Y-12952064D01*
X136610000Y-57458578D02*
X136610000Y-56941422D01*
X135190000Y-57458578D02*
X135190000Y-56941422D01*
D14*
G36*
X117451340Y-16548020D02*
G01*
X123948660Y-16548020D01*
X123948660Y-5051980D01*
X117451340Y-5051980D01*
X117451340Y-16548020D01*
G37*
X117451340Y-16548020D02*
X123948660Y-16548020D01*
X123948660Y-5051980D01*
X117451340Y-5051980D01*
X117451340Y-16548020D01*
X114700520Y-7800260D02*
X114700520Y-4800520D01*
X126699480Y-7800260D02*
X126699480Y-4800520D01*
X126699480Y-13799740D02*
X126699480Y-16799480D01*
X114700520Y-13799740D02*
X114700520Y-16799480D01*
X126699480Y-16799480D02*
X114700520Y-16799480D01*
X114700520Y-4800520D02*
X126699480Y-4800520D01*
D11*
X81690000Y-39926922D02*
X81690000Y-40444078D01*
X83110000Y-39926922D02*
X83110000Y-40444078D01*
X83110000Y-51767922D02*
X83110000Y-52285078D01*
X81690000Y-51767922D02*
X81690000Y-52285078D01*
X83110000Y-63451922D02*
X83110000Y-63969078D01*
X81690000Y-63451922D02*
X81690000Y-63969078D01*
X83110000Y-75389922D02*
X83110000Y-75907078D01*
X81690000Y-75389922D02*
X81690000Y-75907078D01*
X81690000Y-87249422D02*
X81690000Y-87766578D01*
X83110000Y-87249422D02*
X83110000Y-87766578D01*
X65794000Y-33470936D02*
X65794000Y-34675064D01*
X63974000Y-33470936D02*
X63974000Y-34675064D01*
X63974000Y-44070936D02*
X63974000Y-45275064D01*
X65794000Y-44070936D02*
X65794000Y-45275064D01*
X63874000Y-54670936D02*
X63874000Y-55875064D01*
X65694000Y-54670936D02*
X65694000Y-55875064D01*
X63874000Y-65270936D02*
X63874000Y-66475064D01*
X65694000Y-65270936D02*
X65694000Y-66475064D01*
X65694000Y-75870936D02*
X65694000Y-77075064D01*
X63874000Y-75870936D02*
X63874000Y-77075064D01*
X65694000Y-86470936D02*
X65694000Y-87675064D01*
X63874000Y-86470936D02*
X63874000Y-87675064D01*
X61086064Y-32063000D02*
X59881936Y-32063000D01*
X61086064Y-33883000D02*
X59881936Y-33883000D01*
X61086064Y-44483000D02*
X59881936Y-44483000D01*
X61086064Y-42663000D02*
X59881936Y-42663000D01*
X60986064Y-55083000D02*
X59781936Y-55083000D01*
X60986064Y-53263000D02*
X59781936Y-53263000D01*
X60986064Y-65683000D02*
X59781936Y-65683000D01*
X60986064Y-63863000D02*
X59781936Y-63863000D01*
X60986064Y-74463000D02*
X59781936Y-74463000D01*
X60986064Y-76283000D02*
X59781936Y-76283000D01*
X61086064Y-85063000D02*
X59881936Y-85063000D01*
X61086064Y-86883000D02*
X59881936Y-86883000D01*
X70810000Y-23396078D02*
X70810000Y-22878922D01*
X69390000Y-23396078D02*
X69390000Y-22878922D01*
X54594000Y-34675064D02*
X54594000Y-33470936D01*
X52774000Y-34675064D02*
X52774000Y-33470936D01*
X52774000Y-45275064D02*
X52774000Y-44070936D01*
X54594000Y-45275064D02*
X54594000Y-44070936D01*
X52874000Y-55875064D02*
X52874000Y-54670936D01*
X54694000Y-55875064D02*
X54694000Y-54670936D01*
X54694000Y-66475064D02*
X54694000Y-65270936D01*
X52874000Y-66475064D02*
X52874000Y-65270936D01*
X54694000Y-76975064D02*
X54694000Y-75770936D01*
X52874000Y-76975064D02*
X52874000Y-75770936D01*
X54694000Y-87675064D02*
X54694000Y-86470936D01*
X52874000Y-87675064D02*
X52874000Y-86470936D01*
X45286064Y-33883000D02*
X44081936Y-33883000D01*
X45286064Y-32063000D02*
X44081936Y-32063000D01*
X45286064Y-44483000D02*
X44081936Y-44483000D01*
X45286064Y-42663000D02*
X44081936Y-42663000D01*
X45186064Y-53263000D02*
X43981936Y-53263000D01*
X45186064Y-55083000D02*
X43981936Y-55083000D01*
X45286064Y-65683000D02*
X44081936Y-65683000D01*
X45286064Y-63863000D02*
X44081936Y-63863000D01*
X45186064Y-74463000D02*
X43981936Y-74463000D01*
X45186064Y-76283000D02*
X43981936Y-76283000D01*
X45186064Y-86883000D02*
X43981936Y-86883000D01*
X45186064Y-85063000D02*
X43981936Y-85063000D01*
X38794000Y-34675064D02*
X38794000Y-33470936D01*
X36974000Y-34675064D02*
X36974000Y-33470936D01*
X38794000Y-45275064D02*
X38794000Y-44070936D01*
X36974000Y-45275064D02*
X36974000Y-44070936D01*
X36974000Y-55875064D02*
X36974000Y-54670936D01*
X38794000Y-55875064D02*
X38794000Y-54670936D01*
X38794000Y-66475064D02*
X38794000Y-65270936D01*
X36974000Y-66475064D02*
X36974000Y-65270936D01*
X36974000Y-77075064D02*
X36974000Y-75870936D01*
X38794000Y-77075064D02*
X38794000Y-75870936D01*
X36974000Y-87675064D02*
X36974000Y-86470936D01*
X38794000Y-87675064D02*
X38794000Y-86470936D01*
X70810000Y-12141422D02*
X70810000Y-12658578D01*
X69390000Y-12141422D02*
X69390000Y-12658578D01*
X18594000Y-34856078D02*
X18594000Y-34338922D01*
X17174000Y-34856078D02*
X17174000Y-34338922D01*
X17174000Y-46540078D02*
X17174000Y-46022922D01*
X18594000Y-46540078D02*
X18594000Y-46022922D01*
X17428000Y-58224078D02*
X17428000Y-57706922D01*
X18848000Y-58224078D02*
X18848000Y-57706922D01*
X17428000Y-70162078D02*
X17428000Y-69644922D01*
X18848000Y-70162078D02*
X18848000Y-69644922D01*
X18848000Y-81846078D02*
X18848000Y-81328922D01*
X17428000Y-81846078D02*
X17428000Y-81328922D01*
X85142000Y-34856078D02*
X85142000Y-34338922D01*
X83722000Y-34856078D02*
X83722000Y-34338922D01*
X18594000Y-40180922D02*
X18594000Y-40698078D01*
X17174000Y-40180922D02*
X17174000Y-40698078D01*
X83722000Y-46697078D02*
X83722000Y-46179922D01*
X85142000Y-46697078D02*
X85142000Y-46179922D01*
X18594000Y-51864922D02*
X18594000Y-52382078D01*
X17174000Y-51864922D02*
X17174000Y-52382078D01*
X74490000Y-21141422D02*
X74490000Y-21658578D01*
X75910000Y-21141422D02*
X75910000Y-21658578D01*
X85142000Y-58381078D02*
X85142000Y-57863922D01*
X83722000Y-58381078D02*
X83722000Y-57863922D01*
X18848000Y-63451922D02*
X18848000Y-63969078D01*
X17428000Y-63451922D02*
X17428000Y-63969078D01*
X83468000Y-70162078D02*
X83468000Y-69644922D01*
X84888000Y-70162078D02*
X84888000Y-69644922D01*
X17428000Y-75389922D02*
X17428000Y-75907078D01*
X18848000Y-75389922D02*
X18848000Y-75907078D01*
X84888000Y-81846078D02*
X84888000Y-81328922D01*
X83468000Y-81846078D02*
X83468000Y-81328922D01*
X18848000Y-86995422D02*
X18848000Y-87512578D01*
X17428000Y-86995422D02*
X17428000Y-87512578D01*
X94136000Y-72241422D02*
X94136000Y-72758578D01*
X95556000Y-72241422D02*
X95556000Y-72758578D01*
X111870878Y-57331600D02*
X111353722Y-57331600D01*
X111870878Y-55911600D02*
X111353722Y-55911600D01*
X142010000Y-57458578D02*
X142010000Y-56941422D01*
X140590000Y-57458578D02*
X140590000Y-56941422D01*
X109698122Y-72777200D02*
X110215278Y-72777200D01*
X109698122Y-74197200D02*
X110215278Y-74197200D01*
X108678578Y-77590500D02*
X108161422Y-77590500D01*
X108678578Y-79010500D02*
X108161422Y-79010500D01*
X147510000Y-41678922D02*
X147510000Y-42196078D01*
X146090000Y-41678922D02*
X146090000Y-42196078D01*
X126157322Y-84662000D02*
X126674478Y-84662000D01*
X126157322Y-83242000D02*
X126674478Y-83242000D01*
X135510000Y-18796078D02*
X135510000Y-18278922D01*
X134090000Y-18796078D02*
X134090000Y-18278922D01*
X136290000Y-18808578D02*
X136290000Y-18291422D01*
X137710000Y-18808578D02*
X137710000Y-18291422D01*
X139910000Y-18796078D02*
X139910000Y-18278922D01*
X138490000Y-18796078D02*
X138490000Y-18278922D01*
X122019422Y-83216600D02*
X122536578Y-83216600D01*
X122019422Y-84636600D02*
X122536578Y-84636600D01*
X118080122Y-84662000D02*
X118597278Y-84662000D01*
X118080122Y-83242000D02*
X118597278Y-83242000D01*
X68150000Y-18600000D02*
X68150000Y-20600000D01*
X68150000Y-20600000D02*
X64250000Y-20600000D01*
X68150000Y-18600000D02*
X64250000Y-18600000D01*
X68150000Y-15100000D02*
X64250000Y-15100000D01*
X68150000Y-17100000D02*
X64250000Y-17100000D01*
X68150000Y-15100000D02*
X68150000Y-17100000D01*
X144900000Y-56900000D02*
X142900000Y-56900000D01*
X142900000Y-56900000D02*
X142900000Y-53000000D01*
X144900000Y-56900000D02*
X144900000Y-53000000D01*
X94641422Y-46890000D02*
X95158578Y-46890000D01*
X94641422Y-48310000D02*
X95158578Y-48310000D01*
X111845478Y-62030600D02*
X111328322Y-62030600D01*
X111845478Y-60610600D02*
X111328322Y-60610600D01*
X123743000Y-79386252D02*
X123743000Y-76613748D01*
X127163000Y-79386252D02*
X127163000Y-76613748D01*
X120940000Y-79386252D02*
X120940000Y-76613748D01*
X117520000Y-79386252D02*
X117520000Y-76613748D01*
X150070000Y-47609000D02*
X148560000Y-47609000D01*
X150070000Y-51310000D02*
X148560000Y-51310000D01*
X148560000Y-54580000D02*
X148560000Y-44340000D01*
X150070000Y-44340000D02*
X145429000Y-44340000D01*
X150070000Y-54580000D02*
X145429000Y-54580000D01*
X145429000Y-54580000D02*
X145429000Y-44340000D01*
X150070000Y-54580000D02*
X150070000Y-44340000D01*
X83458578Y-20310000D02*
X82941422Y-20310000D01*
X83458578Y-18890000D02*
X82941422Y-18890000D01*
X78458578Y-22240000D02*
X77941422Y-22240000D01*
X78458578Y-23660000D02*
X77941422Y-23660000D01*
X78458578Y-26110000D02*
X77941422Y-26110000D01*
X78458578Y-24690000D02*
X77941422Y-24690000D01*
X71058578Y-18890000D02*
X70541422Y-18890000D01*
X71058578Y-20310000D02*
X70541422Y-20310000D01*
X70996078Y-16810000D02*
X70478922Y-16810000D01*
X70996078Y-15390000D02*
X70478922Y-15390000D01*
X73210000Y-12141422D02*
X73210000Y-12658578D01*
X71790000Y-12141422D02*
X71790000Y-12658578D01*
X77758578Y-11460000D02*
X77241422Y-11460000D01*
X77758578Y-10040000D02*
X77241422Y-10040000D01*
X77758578Y-12290000D02*
X77241422Y-12290000D01*
X77758578Y-13710000D02*
X77241422Y-13710000D01*
X82941422Y-16810000D02*
X83458578Y-16810000D01*
X82941422Y-15390000D02*
X83458578Y-15390000D01*
X132090000Y-28441422D02*
X132090000Y-28958578D01*
X133510000Y-28441422D02*
X133510000Y-28958578D01*
X95415000Y-89540000D02*
G75*
G03*
X95415000Y-89540000I-950000J0D01*
G01*
X76390000Y-18000000D02*
X76390000Y-15075000D01*
X76390000Y-18000000D02*
X76390000Y-19500000D01*
X79610000Y-18000000D02*
X79610000Y-16500000D01*
X79610000Y-18000000D02*
X79610000Y-19500000D01*
X94635000Y-83510000D02*
X94635000Y-85200000D01*
X94910000Y-83510000D02*
X94635000Y-83510000D01*
X94910000Y-80750000D02*
X94910000Y-83510000D01*
X94910000Y-77990000D02*
X94635000Y-77990000D01*
X94910000Y-80750000D02*
X94910000Y-77990000D01*
X87490000Y-83510000D02*
X87765000Y-83510000D01*
X87490000Y-80750000D02*
X87490000Y-83510000D01*
X87490000Y-77990000D02*
X87765000Y-77990000D01*
X87490000Y-80750000D02*
X87490000Y-77990000D01*
X142741422Y-26298000D02*
X143258578Y-26298000D01*
X142741422Y-27718000D02*
X143258578Y-27718000D01*
X143266078Y-25250000D02*
X142748922Y-25250000D01*
X143266078Y-23830000D02*
X142748922Y-23830000D01*
X150070000Y-25209000D02*
X148560000Y-25209000D01*
X150070000Y-28910000D02*
X148560000Y-28910000D01*
X148560000Y-32180000D02*
X148560000Y-21940000D01*
X150070000Y-21940000D02*
X145429000Y-21940000D01*
X150070000Y-32180000D02*
X145429000Y-32180000D01*
X145429000Y-32180000D02*
X145429000Y-21940000D01*
X150070000Y-32180000D02*
X150070000Y-21940000D01*
X98700000Y-8130000D02*
X97370000Y-8130000D01*
X97370000Y-8130000D02*
X97370000Y-9460000D01*
X97370000Y-10730000D02*
X97370000Y-15870000D01*
X100030000Y-15870000D02*
X97370000Y-15870000D01*
X100030000Y-10730000D02*
X100030000Y-15870000D01*
X100030000Y-10730000D02*
X97370000Y-10730000D01*
X2978922Y-61365000D02*
X3496078Y-61365000D01*
X2978922Y-62785000D02*
X3496078Y-62785000D01*
X7535000Y-73233578D02*
X7535000Y-72716422D01*
X6115000Y-73233578D02*
X6115000Y-72716422D01*
X8225000Y-70675000D02*
X8225000Y-74575000D01*
X10225000Y-70675000D02*
X10225000Y-74575000D01*
X8225000Y-70675000D02*
X10225000Y-70675000D01*
X83722000Y-40444078D02*
X83722000Y-39926922D01*
X85142000Y-40444078D02*
X85142000Y-39926922D01*
X19460000Y-34856078D02*
X19460000Y-34338922D01*
X20880000Y-34856078D02*
X20880000Y-34338922D01*
X85142000Y-52285078D02*
X85142000Y-51767922D01*
X83722000Y-52285078D02*
X83722000Y-51767922D01*
X21134000Y-46540078D02*
X21134000Y-46022922D01*
X19714000Y-46540078D02*
X19714000Y-46022922D01*
X83722000Y-63969078D02*
X83722000Y-63451922D01*
X85142000Y-63969078D02*
X85142000Y-63451922D01*
X19714000Y-58224078D02*
X19714000Y-57706922D01*
X21134000Y-58224078D02*
X21134000Y-57706922D01*
X85142000Y-75907078D02*
X85142000Y-75389922D01*
X83722000Y-75907078D02*
X83722000Y-75389922D01*
X19714000Y-70162078D02*
X19714000Y-69644922D01*
X21134000Y-70162078D02*
X21134000Y-69644922D01*
X83722000Y-87766578D02*
X83722000Y-87249422D01*
X85142000Y-87766578D02*
X85142000Y-87249422D01*
X21134000Y-81846078D02*
X21134000Y-81328922D01*
X19714000Y-81846078D02*
X19714000Y-81328922D01*
X111582322Y-72241400D02*
X112099478Y-72241400D01*
X111582322Y-70821400D02*
X112099478Y-70821400D01*
X5415000Y-65333578D02*
X5415000Y-64816422D01*
X6835000Y-65333578D02*
X6835000Y-64816422D01*
X3483578Y-59215000D02*
X2966422Y-59215000D01*
X3483578Y-60635000D02*
X2966422Y-60635000D01*
D10*
X7389523Y-37622380D02*
X7389523Y-38336666D01*
X7437142Y-38479523D01*
X7532380Y-38574761D01*
X7675238Y-38622380D01*
X7770476Y-38622380D01*
X6389523Y-38622380D02*
X6960952Y-38622380D01*
X6675238Y-38622380D02*
X6675238Y-37622380D01*
X6770476Y-37765238D01*
X6865714Y-37860476D01*
X6960952Y-37908095D01*
X5770476Y-37622380D02*
X5675238Y-37622380D01*
X5580000Y-37670000D01*
X5532380Y-37717619D01*
X5484761Y-37812857D01*
X5437142Y-38003333D01*
X5437142Y-38241428D01*
X5484761Y-38431904D01*
X5532380Y-38527142D01*
X5580000Y-38574761D01*
X5675238Y-38622380D01*
X5770476Y-38622380D01*
X5865714Y-38574761D01*
X5913333Y-38527142D01*
X5960952Y-38431904D01*
X6008571Y-38241428D01*
X6008571Y-38003333D01*
X5960952Y-37812857D01*
X5913333Y-37717619D01*
X5865714Y-37670000D01*
X5770476Y-37622380D01*
X141994009Y-48669904D02*
X140994009Y-48669904D01*
X140994009Y-48908000D01*
X141041629Y-49050857D01*
X141136867Y-49146095D01*
X141232105Y-49193714D01*
X141422581Y-49241333D01*
X141565438Y-49241333D01*
X141755914Y-49193714D01*
X141851152Y-49146095D01*
X141946390Y-49050857D01*
X141994009Y-48908000D01*
X141994009Y-48669904D01*
X140994009Y-50146095D02*
X140994009Y-49669904D01*
X141470200Y-49622285D01*
X141422581Y-49669904D01*
X141374962Y-49765142D01*
X141374962Y-50003238D01*
X141422581Y-50098476D01*
X141470200Y-50146095D01*
X141565438Y-50193714D01*
X141803533Y-50193714D01*
X141898771Y-50146095D01*
X141946390Y-50098476D01*
X141994009Y-50003238D01*
X141994009Y-49765142D01*
X141946390Y-49669904D01*
X141898771Y-49622285D01*
X144320380Y-46076095D02*
X143320380Y-46076095D01*
X144320380Y-46647523D02*
X143748952Y-46218952D01*
X143320380Y-46647523D02*
X143891809Y-46076095D01*
X86452380Y-70998095D02*
X87261904Y-70998095D01*
X87357142Y-71045714D01*
X87404761Y-71093333D01*
X87452380Y-71188571D01*
X87452380Y-71379047D01*
X87404761Y-71474285D01*
X87357142Y-71521904D01*
X87261904Y-71569523D01*
X86452380Y-71569523D01*
X86785714Y-72474285D02*
X87452380Y-72474285D01*
X86404761Y-72236190D02*
X87119047Y-71998095D01*
X87119047Y-72617142D01*
X3722619Y-67729761D02*
X3675000Y-67634523D01*
X3579761Y-67539285D01*
X3436904Y-67396428D01*
X3389285Y-67301190D01*
X3389285Y-67205952D01*
X3627380Y-67253571D02*
X3579761Y-67158333D01*
X3484523Y-67063095D01*
X3294047Y-67015476D01*
X2960714Y-67015476D01*
X2770238Y-67063095D01*
X2675000Y-67158333D01*
X2627380Y-67253571D01*
X2627380Y-67444047D01*
X2675000Y-67539285D01*
X2770238Y-67634523D01*
X2960714Y-67682142D01*
X3294047Y-67682142D01*
X3484523Y-67634523D01*
X3579761Y-67539285D01*
X3627380Y-67444047D01*
X3627380Y-67253571D01*
X2627380Y-68015476D02*
X2627380Y-68634523D01*
X3008333Y-68301190D01*
X3008333Y-68444047D01*
X3055952Y-68539285D01*
X3103571Y-68586904D01*
X3198809Y-68634523D01*
X3436904Y-68634523D01*
X3532142Y-68586904D01*
X3579761Y-68539285D01*
X3627380Y-68444047D01*
X3627380Y-68158333D01*
X3579761Y-68063095D01*
X3532142Y-68015476D01*
X3295238Y-55197619D02*
X3390476Y-55150000D01*
X3485714Y-55054761D01*
X3628571Y-54911904D01*
X3723809Y-54864285D01*
X3819047Y-54864285D01*
X3771428Y-55102380D02*
X3866666Y-55054761D01*
X3961904Y-54959523D01*
X4009523Y-54769047D01*
X4009523Y-54435714D01*
X3961904Y-54245238D01*
X3866666Y-54150000D01*
X3771428Y-54102380D01*
X3580952Y-54102380D01*
X3485714Y-54150000D01*
X3390476Y-54245238D01*
X3342857Y-54435714D01*
X3342857Y-54769047D01*
X3390476Y-54959523D01*
X3485714Y-55054761D01*
X3580952Y-55102380D01*
X3771428Y-55102380D01*
X2485714Y-54435714D02*
X2485714Y-55102380D01*
X2723809Y-54054761D02*
X2961904Y-54769047D01*
X2342857Y-54769047D01*
X139552380Y-53357142D02*
X139076190Y-53023809D01*
X139552380Y-52785714D02*
X138552380Y-52785714D01*
X138552380Y-53166666D01*
X138600000Y-53261904D01*
X138647619Y-53309523D01*
X138742857Y-53357142D01*
X138885714Y-53357142D01*
X138980952Y-53309523D01*
X139028571Y-53261904D01*
X139076190Y-53166666D01*
X139076190Y-52785714D01*
X138552380Y-53690476D02*
X138552380Y-54309523D01*
X138933333Y-53976190D01*
X138933333Y-54119047D01*
X138980952Y-54214285D01*
X139028571Y-54261904D01*
X139123809Y-54309523D01*
X139361904Y-54309523D01*
X139457142Y-54261904D01*
X139504761Y-54214285D01*
X139552380Y-54119047D01*
X139552380Y-53833333D01*
X139504761Y-53738095D01*
X139457142Y-53690476D01*
X139552380Y-54785714D02*
X139552380Y-54976190D01*
X139504761Y-55071428D01*
X139457142Y-55119047D01*
X139314285Y-55214285D01*
X139123809Y-55261904D01*
X138742857Y-55261904D01*
X138647619Y-55214285D01*
X138600000Y-55166666D01*
X138552380Y-55071428D01*
X138552380Y-54880952D01*
X138600000Y-54785714D01*
X138647619Y-54738095D01*
X138742857Y-54690476D01*
X138980952Y-54690476D01*
X139076190Y-54738095D01*
X139123809Y-54785714D01*
X139171428Y-54880952D01*
X139171428Y-55071428D01*
X139123809Y-55166666D01*
X139076190Y-55214285D01*
X138980952Y-55261904D01*
D13*
X119309523Y-30786904D02*
X119309523Y-31434523D01*
X119271428Y-31510714D01*
X119233333Y-31548809D01*
X119157142Y-31586904D01*
X119004761Y-31586904D01*
X118928571Y-31548809D01*
X118890476Y-31510714D01*
X118852380Y-31434523D01*
X118852380Y-30786904D01*
X118509523Y-30863095D02*
X118471428Y-30825000D01*
X118395238Y-30786904D01*
X118204761Y-30786904D01*
X118128571Y-30825000D01*
X118090476Y-30863095D01*
X118052380Y-30939285D01*
X118052380Y-31015476D01*
X118090476Y-31129761D01*
X118547619Y-31586904D01*
X118052380Y-31586904D01*
D10*
X132361904Y-50352380D02*
X132361904Y-51161904D01*
X132314285Y-51257142D01*
X132266666Y-51304761D01*
X132171428Y-51352380D01*
X131980952Y-51352380D01*
X131885714Y-51304761D01*
X131838095Y-51257142D01*
X131790476Y-51161904D01*
X131790476Y-50352380D01*
X130885714Y-50352380D02*
X131076190Y-50352380D01*
X131171428Y-50400000D01*
X131219047Y-50447619D01*
X131314285Y-50590476D01*
X131361904Y-50780952D01*
X131361904Y-51161904D01*
X131314285Y-51257142D01*
X131266666Y-51304761D01*
X131171428Y-51352380D01*
X130980952Y-51352380D01*
X130885714Y-51304761D01*
X130838095Y-51257142D01*
X130790476Y-51161904D01*
X130790476Y-50923809D01*
X130838095Y-50828571D01*
X130885714Y-50780952D01*
X130980952Y-50733333D01*
X131171428Y-50733333D01*
X131266666Y-50780952D01*
X131314285Y-50828571D01*
X131361904Y-50923809D01*
X126561904Y-24052380D02*
X126561904Y-24861904D01*
X126514285Y-24957142D01*
X126466666Y-25004761D01*
X126371428Y-25052380D01*
X126180952Y-25052380D01*
X126085714Y-25004761D01*
X126038095Y-24957142D01*
X125990476Y-24861904D01*
X125990476Y-24052380D01*
X125609523Y-24052380D02*
X124942857Y-24052380D01*
X125371428Y-25052380D01*
X126452380Y-19057142D02*
X125976190Y-18723809D01*
X126452380Y-18485714D02*
X125452380Y-18485714D01*
X125452380Y-18866666D01*
X125500000Y-18961904D01*
X125547619Y-19009523D01*
X125642857Y-19057142D01*
X125785714Y-19057142D01*
X125880952Y-19009523D01*
X125928571Y-18961904D01*
X125976190Y-18866666D01*
X125976190Y-18485714D01*
X126452380Y-20009523D02*
X126452380Y-19438095D01*
X126452380Y-19723809D02*
X125452380Y-19723809D01*
X125595238Y-19628571D01*
X125690476Y-19533333D01*
X125738095Y-19438095D01*
X125785714Y-20866666D02*
X126452380Y-20866666D01*
X125404761Y-20628571D02*
X126119047Y-20390476D01*
X126119047Y-21009523D01*
X132452380Y-18157142D02*
X131976190Y-17823809D01*
X132452380Y-17585714D02*
X131452380Y-17585714D01*
X131452380Y-17966666D01*
X131500000Y-18061904D01*
X131547619Y-18109523D01*
X131642857Y-18157142D01*
X131785714Y-18157142D01*
X131880952Y-18109523D01*
X131928571Y-18061904D01*
X131976190Y-17966666D01*
X131976190Y-17585714D01*
X131452380Y-18490476D02*
X131452380Y-19109523D01*
X131833333Y-18776190D01*
X131833333Y-18919047D01*
X131880952Y-19014285D01*
X131928571Y-19061904D01*
X132023809Y-19109523D01*
X132261904Y-19109523D01*
X132357142Y-19061904D01*
X132404761Y-19014285D01*
X132452380Y-18919047D01*
X132452380Y-18633333D01*
X132404761Y-18538095D01*
X132357142Y-18490476D01*
X131452380Y-20014285D02*
X131452380Y-19538095D01*
X131928571Y-19490476D01*
X131880952Y-19538095D01*
X131833333Y-19633333D01*
X131833333Y-19871428D01*
X131880952Y-19966666D01*
X131928571Y-20014285D01*
X132023809Y-20061904D01*
X132261904Y-20061904D01*
X132357142Y-20014285D01*
X132404761Y-19966666D01*
X132452380Y-19871428D01*
X132452380Y-19633333D01*
X132404761Y-19538095D01*
X132357142Y-19490476D01*
X129592857Y-12452380D02*
X129926190Y-11976190D01*
X130164285Y-12452380D02*
X130164285Y-11452380D01*
X129783333Y-11452380D01*
X129688095Y-11500000D01*
X129640476Y-11547619D01*
X129592857Y-11642857D01*
X129592857Y-11785714D01*
X129640476Y-11880952D01*
X129688095Y-11928571D01*
X129783333Y-11976190D01*
X130164285Y-11976190D01*
X129259523Y-11452380D02*
X128640476Y-11452380D01*
X128973809Y-11833333D01*
X128830952Y-11833333D01*
X128735714Y-11880952D01*
X128688095Y-11928571D01*
X128640476Y-12023809D01*
X128640476Y-12261904D01*
X128688095Y-12357142D01*
X128735714Y-12404761D01*
X128830952Y-12452380D01*
X129116666Y-12452380D01*
X129211904Y-12404761D01*
X129259523Y-12357142D01*
X127783333Y-11785714D02*
X127783333Y-12452380D01*
X128021428Y-11404761D02*
X128259523Y-12119047D01*
X127640476Y-12119047D01*
X116857142Y-20557142D02*
X116904761Y-20509523D01*
X116952380Y-20366666D01*
X116952380Y-20271428D01*
X116904761Y-20128571D01*
X116809523Y-20033333D01*
X116714285Y-19985714D01*
X116523809Y-19938095D01*
X116380952Y-19938095D01*
X116190476Y-19985714D01*
X116095238Y-20033333D01*
X116000000Y-20128571D01*
X115952380Y-20271428D01*
X115952380Y-20366666D01*
X116000000Y-20509523D01*
X116047619Y-20557142D01*
X115952380Y-20890476D02*
X115952380Y-21557142D01*
X116952380Y-21128571D01*
X116380952Y-22080952D02*
X116333333Y-21985714D01*
X116285714Y-21938095D01*
X116190476Y-21890476D01*
X116142857Y-21890476D01*
X116047619Y-21938095D01*
X116000000Y-21985714D01*
X115952380Y-22080952D01*
X115952380Y-22271428D01*
X116000000Y-22366666D01*
X116047619Y-22414285D01*
X116142857Y-22461904D01*
X116190476Y-22461904D01*
X116285714Y-22414285D01*
X116333333Y-22366666D01*
X116380952Y-22271428D01*
X116380952Y-22080952D01*
X116428571Y-21985714D01*
X116476190Y-21938095D01*
X116571428Y-21890476D01*
X116761904Y-21890476D01*
X116857142Y-21938095D01*
X116904761Y-21985714D01*
X116952380Y-22080952D01*
X116952380Y-22271428D01*
X116904761Y-22366666D01*
X116857142Y-22414285D01*
X116761904Y-22461904D01*
X116571428Y-22461904D01*
X116476190Y-22414285D01*
X116428571Y-22366666D01*
X116380952Y-22271428D01*
X121357142Y-20457142D02*
X121404761Y-20409523D01*
X121452380Y-20266666D01*
X121452380Y-20171428D01*
X121404761Y-20028571D01*
X121309523Y-19933333D01*
X121214285Y-19885714D01*
X121023809Y-19838095D01*
X120880952Y-19838095D01*
X120690476Y-19885714D01*
X120595238Y-19933333D01*
X120500000Y-20028571D01*
X120452380Y-20171428D01*
X120452380Y-20266666D01*
X120500000Y-20409523D01*
X120547619Y-20457142D01*
X120452380Y-20790476D02*
X120452380Y-21457142D01*
X121452380Y-21028571D01*
X121452380Y-21885714D02*
X121452380Y-22076190D01*
X121404761Y-22171428D01*
X121357142Y-22219047D01*
X121214285Y-22314285D01*
X121023809Y-22361904D01*
X120642857Y-22361904D01*
X120547619Y-22314285D01*
X120500000Y-22266666D01*
X120452380Y-22171428D01*
X120452380Y-21980952D01*
X120500000Y-21885714D01*
X120547619Y-21838095D01*
X120642857Y-21790476D01*
X120880952Y-21790476D01*
X120976190Y-21838095D01*
X121023809Y-21885714D01*
X121071428Y-21980952D01*
X121071428Y-22171428D01*
X121023809Y-22266666D01*
X120976190Y-22314285D01*
X120880952Y-22361904D01*
X123557142Y-20457142D02*
X123604761Y-20409523D01*
X123652380Y-20266666D01*
X123652380Y-20171428D01*
X123604761Y-20028571D01*
X123509523Y-19933333D01*
X123414285Y-19885714D01*
X123223809Y-19838095D01*
X123080952Y-19838095D01*
X122890476Y-19885714D01*
X122795238Y-19933333D01*
X122700000Y-20028571D01*
X122652380Y-20171428D01*
X122652380Y-20266666D01*
X122700000Y-20409523D01*
X122747619Y-20457142D01*
X123080952Y-21028571D02*
X123033333Y-20933333D01*
X122985714Y-20885714D01*
X122890476Y-20838095D01*
X122842857Y-20838095D01*
X122747619Y-20885714D01*
X122700000Y-20933333D01*
X122652380Y-21028571D01*
X122652380Y-21219047D01*
X122700000Y-21314285D01*
X122747619Y-21361904D01*
X122842857Y-21409523D01*
X122890476Y-21409523D01*
X122985714Y-21361904D01*
X123033333Y-21314285D01*
X123080952Y-21219047D01*
X123080952Y-21028571D01*
X123128571Y-20933333D01*
X123176190Y-20885714D01*
X123271428Y-20838095D01*
X123461904Y-20838095D01*
X123557142Y-20885714D01*
X123604761Y-20933333D01*
X123652380Y-21028571D01*
X123652380Y-21219047D01*
X123604761Y-21314285D01*
X123557142Y-21361904D01*
X123461904Y-21409523D01*
X123271428Y-21409523D01*
X123176190Y-21361904D01*
X123128571Y-21314285D01*
X123080952Y-21219047D01*
X122652380Y-22028571D02*
X122652380Y-22123809D01*
X122700000Y-22219047D01*
X122747619Y-22266666D01*
X122842857Y-22314285D01*
X123033333Y-22361904D01*
X123271428Y-22361904D01*
X123461904Y-22314285D01*
X123557142Y-22266666D01*
X123604761Y-22219047D01*
X123652380Y-22123809D01*
X123652380Y-22028571D01*
X123604761Y-21933333D01*
X123557142Y-21885714D01*
X123461904Y-21838095D01*
X123271428Y-21790476D01*
X123033333Y-21790476D01*
X122842857Y-21838095D01*
X122747619Y-21885714D01*
X122700000Y-21933333D01*
X122652380Y-22028571D01*
X130457142Y-31357142D02*
X130504761Y-31309523D01*
X130552380Y-31166666D01*
X130552380Y-31071428D01*
X130504761Y-30928571D01*
X130409523Y-30833333D01*
X130314285Y-30785714D01*
X130123809Y-30738095D01*
X129980952Y-30738095D01*
X129790476Y-30785714D01*
X129695238Y-30833333D01*
X129600000Y-30928571D01*
X129552380Y-31071428D01*
X129552380Y-31166666D01*
X129600000Y-31309523D01*
X129647619Y-31357142D01*
X129980952Y-31928571D02*
X129933333Y-31833333D01*
X129885714Y-31785714D01*
X129790476Y-31738095D01*
X129742857Y-31738095D01*
X129647619Y-31785714D01*
X129600000Y-31833333D01*
X129552380Y-31928571D01*
X129552380Y-32119047D01*
X129600000Y-32214285D01*
X129647619Y-32261904D01*
X129742857Y-32309523D01*
X129790476Y-32309523D01*
X129885714Y-32261904D01*
X129933333Y-32214285D01*
X129980952Y-32119047D01*
X129980952Y-31928571D01*
X130028571Y-31833333D01*
X130076190Y-31785714D01*
X130171428Y-31738095D01*
X130361904Y-31738095D01*
X130457142Y-31785714D01*
X130504761Y-31833333D01*
X130552380Y-31928571D01*
X130552380Y-32119047D01*
X130504761Y-32214285D01*
X130457142Y-32261904D01*
X130361904Y-32309523D01*
X130171428Y-32309523D01*
X130076190Y-32261904D01*
X130028571Y-32214285D01*
X129980952Y-32119047D01*
X130552380Y-33261904D02*
X130552380Y-32690476D01*
X130552380Y-32976190D02*
X129552380Y-32976190D01*
X129695238Y-32880952D01*
X129790476Y-32785714D01*
X129838095Y-32690476D01*
X134157142Y-59857142D02*
X134204761Y-59809523D01*
X134252380Y-59666666D01*
X134252380Y-59571428D01*
X134204761Y-59428571D01*
X134109523Y-59333333D01*
X134014285Y-59285714D01*
X133823809Y-59238095D01*
X133680952Y-59238095D01*
X133490476Y-59285714D01*
X133395238Y-59333333D01*
X133300000Y-59428571D01*
X133252380Y-59571428D01*
X133252380Y-59666666D01*
X133300000Y-59809523D01*
X133347619Y-59857142D01*
X133680952Y-60428571D02*
X133633333Y-60333333D01*
X133585714Y-60285714D01*
X133490476Y-60238095D01*
X133442857Y-60238095D01*
X133347619Y-60285714D01*
X133300000Y-60333333D01*
X133252380Y-60428571D01*
X133252380Y-60619047D01*
X133300000Y-60714285D01*
X133347619Y-60761904D01*
X133442857Y-60809523D01*
X133490476Y-60809523D01*
X133585714Y-60761904D01*
X133633333Y-60714285D01*
X133680952Y-60619047D01*
X133680952Y-60428571D01*
X133728571Y-60333333D01*
X133776190Y-60285714D01*
X133871428Y-60238095D01*
X134061904Y-60238095D01*
X134157142Y-60285714D01*
X134204761Y-60333333D01*
X134252380Y-60428571D01*
X134252380Y-60619047D01*
X134204761Y-60714285D01*
X134157142Y-60761904D01*
X134061904Y-60809523D01*
X133871428Y-60809523D01*
X133776190Y-60761904D01*
X133728571Y-60714285D01*
X133680952Y-60619047D01*
X133347619Y-61190476D02*
X133300000Y-61238095D01*
X133252380Y-61333333D01*
X133252380Y-61571428D01*
X133300000Y-61666666D01*
X133347619Y-61714285D01*
X133442857Y-61761904D01*
X133538095Y-61761904D01*
X133680952Y-61714285D01*
X134252380Y-61142857D01*
X134252380Y-61761904D01*
X132842857Y-21757142D02*
X132890476Y-21804761D01*
X133033333Y-21852380D01*
X133128571Y-21852380D01*
X133271428Y-21804761D01*
X133366666Y-21709523D01*
X133414285Y-21614285D01*
X133461904Y-21423809D01*
X133461904Y-21280952D01*
X133414285Y-21090476D01*
X133366666Y-20995238D01*
X133271428Y-20900000D01*
X133128571Y-20852380D01*
X133033333Y-20852380D01*
X132890476Y-20900000D01*
X132842857Y-20947619D01*
X132271428Y-21280952D02*
X132366666Y-21233333D01*
X132414285Y-21185714D01*
X132461904Y-21090476D01*
X132461904Y-21042857D01*
X132414285Y-20947619D01*
X132366666Y-20900000D01*
X132271428Y-20852380D01*
X132080952Y-20852380D01*
X131985714Y-20900000D01*
X131938095Y-20947619D01*
X131890476Y-21042857D01*
X131890476Y-21090476D01*
X131938095Y-21185714D01*
X131985714Y-21233333D01*
X132080952Y-21280952D01*
X132271428Y-21280952D01*
X132366666Y-21328571D01*
X132414285Y-21376190D01*
X132461904Y-21471428D01*
X132461904Y-21661904D01*
X132414285Y-21757142D01*
X132366666Y-21804761D01*
X132271428Y-21852380D01*
X132080952Y-21852380D01*
X131985714Y-21804761D01*
X131938095Y-21757142D01*
X131890476Y-21661904D01*
X131890476Y-21471428D01*
X131938095Y-21376190D01*
X131985714Y-21328571D01*
X132080952Y-21280952D01*
X131557142Y-20852380D02*
X130938095Y-20852380D01*
X131271428Y-21233333D01*
X131128571Y-21233333D01*
X131033333Y-21280952D01*
X130985714Y-21328571D01*
X130938095Y-21423809D01*
X130938095Y-21661904D01*
X130985714Y-21757142D01*
X131033333Y-21804761D01*
X131128571Y-21852380D01*
X131414285Y-21852380D01*
X131509523Y-21804761D01*
X131557142Y-21757142D01*
X118728571Y-20366666D02*
X118728571Y-20033333D01*
X119252380Y-20033333D02*
X118252380Y-20033333D01*
X118252380Y-20509523D01*
X118728571Y-21223809D02*
X118776190Y-21366666D01*
X118823809Y-21414285D01*
X118919047Y-21461904D01*
X119061904Y-21461904D01*
X119157142Y-21414285D01*
X119204761Y-21366666D01*
X119252380Y-21271428D01*
X119252380Y-20890476D01*
X118252380Y-20890476D01*
X118252380Y-21223809D01*
X118300000Y-21319047D01*
X118347619Y-21366666D01*
X118442857Y-21414285D01*
X118538095Y-21414285D01*
X118633333Y-21366666D01*
X118680952Y-21319047D01*
X118728571Y-21223809D01*
X118728571Y-20890476D01*
X118585714Y-22319047D02*
X119252380Y-22319047D01*
X118204761Y-22080952D02*
X118919047Y-21842857D01*
X118919047Y-22461904D01*
X127828571Y-31166666D02*
X127828571Y-30833333D01*
X128352380Y-30833333D02*
X127352380Y-30833333D01*
X127352380Y-31309523D01*
X127828571Y-32023809D02*
X127876190Y-32166666D01*
X127923809Y-32214285D01*
X128019047Y-32261904D01*
X128161904Y-32261904D01*
X128257142Y-32214285D01*
X128304761Y-32166666D01*
X128352380Y-32071428D01*
X128352380Y-31690476D01*
X127352380Y-31690476D01*
X127352380Y-32023809D01*
X127400000Y-32119047D01*
X127447619Y-32166666D01*
X127542857Y-32214285D01*
X127638095Y-32214285D01*
X127733333Y-32166666D01*
X127780952Y-32119047D01*
X127828571Y-32023809D01*
X127828571Y-31690476D01*
X127352380Y-33119047D02*
X127352380Y-32928571D01*
X127400000Y-32833333D01*
X127447619Y-32785714D01*
X127590476Y-32690476D01*
X127780952Y-32642857D01*
X128161904Y-32642857D01*
X128257142Y-32690476D01*
X128304761Y-32738095D01*
X128352380Y-32833333D01*
X128352380Y-33023809D01*
X128304761Y-33119047D01*
X128257142Y-33166666D01*
X128161904Y-33214285D01*
X127923809Y-33214285D01*
X127828571Y-33166666D01*
X127780952Y-33119047D01*
X127733333Y-33023809D01*
X127733333Y-32833333D01*
X127780952Y-32738095D01*
X127828571Y-32690476D01*
X127923809Y-32642857D01*
X131428571Y-59566666D02*
X131428571Y-59233333D01*
X131952380Y-59233333D02*
X130952380Y-59233333D01*
X130952380Y-59709523D01*
X131428571Y-60423809D02*
X131476190Y-60566666D01*
X131523809Y-60614285D01*
X131619047Y-60661904D01*
X131761904Y-60661904D01*
X131857142Y-60614285D01*
X131904761Y-60566666D01*
X131952380Y-60471428D01*
X131952380Y-60090476D01*
X130952380Y-60090476D01*
X130952380Y-60423809D01*
X131000000Y-60519047D01*
X131047619Y-60566666D01*
X131142857Y-60614285D01*
X131238095Y-60614285D01*
X131333333Y-60566666D01*
X131380952Y-60519047D01*
X131428571Y-60423809D01*
X131428571Y-60090476D01*
X130952380Y-60995238D02*
X130952380Y-61661904D01*
X131952380Y-61233333D01*
X75128571Y-27366666D02*
X75128571Y-27033333D01*
X75652380Y-27033333D02*
X74652380Y-27033333D01*
X74652380Y-27509523D01*
X75128571Y-28223809D02*
X75176190Y-28366666D01*
X75223809Y-28414285D01*
X75319047Y-28461904D01*
X75461904Y-28461904D01*
X75557142Y-28414285D01*
X75604761Y-28366666D01*
X75652380Y-28271428D01*
X75652380Y-27890476D01*
X74652380Y-27890476D01*
X74652380Y-28223809D01*
X74700000Y-28319047D01*
X74747619Y-28366666D01*
X74842857Y-28414285D01*
X74938095Y-28414285D01*
X75033333Y-28366666D01*
X75080952Y-28319047D01*
X75128571Y-28223809D01*
X75128571Y-27890476D01*
X75080952Y-29033333D02*
X75033333Y-28938095D01*
X74985714Y-28890476D01*
X74890476Y-28842857D01*
X74842857Y-28842857D01*
X74747619Y-28890476D01*
X74700000Y-28938095D01*
X74652380Y-29033333D01*
X74652380Y-29223809D01*
X74700000Y-29319047D01*
X74747619Y-29366666D01*
X74842857Y-29414285D01*
X74890476Y-29414285D01*
X74985714Y-29366666D01*
X75033333Y-29319047D01*
X75080952Y-29223809D01*
X75080952Y-29033333D01*
X75128571Y-28938095D01*
X75176190Y-28890476D01*
X75271428Y-28842857D01*
X75461904Y-28842857D01*
X75557142Y-28890476D01*
X75604761Y-28938095D01*
X75652380Y-29033333D01*
X75652380Y-29223809D01*
X75604761Y-29319047D01*
X75557142Y-29366666D01*
X75461904Y-29414285D01*
X75271428Y-29414285D01*
X75176190Y-29366666D01*
X75128571Y-29319047D01*
X75080952Y-29223809D01*
X99033333Y-92532380D02*
X99033333Y-93246666D01*
X99080952Y-93389523D01*
X99176190Y-93484761D01*
X99319047Y-93532380D01*
X99414285Y-93532380D01*
X98604761Y-92627619D02*
X98557142Y-92580000D01*
X98461904Y-92532380D01*
X98223809Y-92532380D01*
X98128571Y-92580000D01*
X98080952Y-92627619D01*
X98033333Y-92722857D01*
X98033333Y-92818095D01*
X98080952Y-92960952D01*
X98652380Y-93532380D01*
X98033333Y-93532380D01*
X73052380Y-25633333D02*
X72576190Y-25300000D01*
X73052380Y-25061904D02*
X72052380Y-25061904D01*
X72052380Y-25442857D01*
X72100000Y-25538095D01*
X72147619Y-25585714D01*
X72242857Y-25633333D01*
X72385714Y-25633333D01*
X72480952Y-25585714D01*
X72528571Y-25538095D01*
X72576190Y-25442857D01*
X72576190Y-25061904D01*
X72385714Y-26490476D02*
X73052380Y-26490476D01*
X72004761Y-26252380D02*
X72719047Y-26014285D01*
X72719047Y-26633333D01*
X66966666Y-29852380D02*
X67300000Y-29376190D01*
X67538095Y-29852380D02*
X67538095Y-28852380D01*
X67157142Y-28852380D01*
X67061904Y-28900000D01*
X67014285Y-28947619D01*
X66966666Y-29042857D01*
X66966666Y-29185714D01*
X67014285Y-29280952D01*
X67061904Y-29328571D01*
X67157142Y-29376190D01*
X67538095Y-29376190D01*
X66633333Y-28852380D02*
X65966666Y-28852380D01*
X66395238Y-29852380D01*
X63066666Y-29852380D02*
X63400000Y-29376190D01*
X63638095Y-29852380D02*
X63638095Y-28852380D01*
X63257142Y-28852380D01*
X63161904Y-28900000D01*
X63114285Y-28947619D01*
X63066666Y-29042857D01*
X63066666Y-29185714D01*
X63114285Y-29280952D01*
X63161904Y-29328571D01*
X63257142Y-29376190D01*
X63638095Y-29376190D01*
X62209523Y-28852380D02*
X62400000Y-28852380D01*
X62495238Y-28900000D01*
X62542857Y-28947619D01*
X62638095Y-29090476D01*
X62685714Y-29280952D01*
X62685714Y-29661904D01*
X62638095Y-29757142D01*
X62590476Y-29804761D01*
X62495238Y-29852380D01*
X62304761Y-29852380D01*
X62209523Y-29804761D01*
X62161904Y-29757142D01*
X62114285Y-29661904D01*
X62114285Y-29423809D01*
X62161904Y-29328571D01*
X62209523Y-29280952D01*
X62304761Y-29233333D01*
X62495238Y-29233333D01*
X62590476Y-29280952D01*
X62638095Y-29328571D01*
X62685714Y-29423809D01*
X66966666Y-6852380D02*
X67300000Y-6376190D01*
X67538095Y-6852380D02*
X67538095Y-5852380D01*
X67157142Y-5852380D01*
X67061904Y-5900000D01*
X67014285Y-5947619D01*
X66966666Y-6042857D01*
X66966666Y-6185714D01*
X67014285Y-6280952D01*
X67061904Y-6328571D01*
X67157142Y-6376190D01*
X67538095Y-6376190D01*
X66490476Y-6852380D02*
X66300000Y-6852380D01*
X66204761Y-6804761D01*
X66157142Y-6757142D01*
X66061904Y-6614285D01*
X66014285Y-6423809D01*
X66014285Y-6042857D01*
X66061904Y-5947619D01*
X66109523Y-5900000D01*
X66204761Y-5852380D01*
X66395238Y-5852380D01*
X66490476Y-5900000D01*
X66538095Y-5947619D01*
X66585714Y-6042857D01*
X66585714Y-6280952D01*
X66538095Y-6376190D01*
X66490476Y-6423809D01*
X66395238Y-6471428D01*
X66204761Y-6471428D01*
X66109523Y-6423809D01*
X66061904Y-6376190D01*
X66014285Y-6280952D01*
X63066666Y-6852380D02*
X63400000Y-6376190D01*
X63638095Y-6852380D02*
X63638095Y-5852380D01*
X63257142Y-5852380D01*
X63161904Y-5900000D01*
X63114285Y-5947619D01*
X63066666Y-6042857D01*
X63066666Y-6185714D01*
X63114285Y-6280952D01*
X63161904Y-6328571D01*
X63257142Y-6376190D01*
X63638095Y-6376190D01*
X62495238Y-6280952D02*
X62590476Y-6233333D01*
X62638095Y-6185714D01*
X62685714Y-6090476D01*
X62685714Y-6042857D01*
X62638095Y-5947619D01*
X62590476Y-5900000D01*
X62495238Y-5852380D01*
X62304761Y-5852380D01*
X62209523Y-5900000D01*
X62161904Y-5947619D01*
X62114285Y-6042857D01*
X62114285Y-6090476D01*
X62161904Y-6185714D01*
X62209523Y-6233333D01*
X62304761Y-6280952D01*
X62495238Y-6280952D01*
X62590476Y-6328571D01*
X62638095Y-6376190D01*
X62685714Y-6471428D01*
X62685714Y-6661904D01*
X62638095Y-6757142D01*
X62590476Y-6804761D01*
X62495238Y-6852380D01*
X62304761Y-6852380D01*
X62209523Y-6804761D01*
X62161904Y-6757142D01*
X62114285Y-6661904D01*
X62114285Y-6471428D01*
X62161904Y-6376190D01*
X62209523Y-6328571D01*
X62304761Y-6280952D01*
X136352380Y-59757142D02*
X135876190Y-59423809D01*
X136352380Y-59185714D02*
X135352380Y-59185714D01*
X135352380Y-59566666D01*
X135400000Y-59661904D01*
X135447619Y-59709523D01*
X135542857Y-59757142D01*
X135685714Y-59757142D01*
X135780952Y-59709523D01*
X135828571Y-59661904D01*
X135876190Y-59566666D01*
X135876190Y-59185714D01*
X135447619Y-60138095D02*
X135400000Y-60185714D01*
X135352380Y-60280952D01*
X135352380Y-60519047D01*
X135400000Y-60614285D01*
X135447619Y-60661904D01*
X135542857Y-60709523D01*
X135638095Y-60709523D01*
X135780952Y-60661904D01*
X136352380Y-60090476D01*
X136352380Y-60709523D01*
X136352380Y-61185714D02*
X136352380Y-61376190D01*
X136304761Y-61471428D01*
X136257142Y-61519047D01*
X136114285Y-61614285D01*
X135923809Y-61661904D01*
X135542857Y-61661904D01*
X135447619Y-61614285D01*
X135400000Y-61566666D01*
X135352380Y-61471428D01*
X135352380Y-61280952D01*
X135400000Y-61185714D01*
X135447619Y-61138095D01*
X135542857Y-61090476D01*
X135780952Y-61090476D01*
X135876190Y-61138095D01*
X135923809Y-61185714D01*
X135971428Y-61280952D01*
X135971428Y-61471428D01*
X135923809Y-61566666D01*
X135876190Y-61614285D01*
X135780952Y-61661904D01*
D15*
X121716428Y-4574523D02*
X122321190Y-4574523D01*
X122321190Y-3304523D01*
X120627857Y-4574523D02*
X121353571Y-4574523D01*
X120990714Y-4574523D02*
X120990714Y-3304523D01*
X121111666Y-3485952D01*
X121232619Y-3606904D01*
X121353571Y-3667380D01*
X119539285Y-3727857D02*
X119539285Y-4574523D01*
X119841666Y-3244047D02*
X120144047Y-4151190D01*
X119357857Y-4151190D01*
D10*
X80566666Y-39342642D02*
X80614285Y-39390261D01*
X80757142Y-39437880D01*
X80852380Y-39437880D01*
X80995238Y-39390261D01*
X81090476Y-39295023D01*
X81138095Y-39199785D01*
X81185714Y-39009309D01*
X81185714Y-38866452D01*
X81138095Y-38675976D01*
X81090476Y-38580738D01*
X80995238Y-38485500D01*
X80852380Y-38437880D01*
X80757142Y-38437880D01*
X80614285Y-38485500D01*
X80566666Y-38533119D01*
X79614285Y-39437880D02*
X80185714Y-39437880D01*
X79900000Y-39437880D02*
X79900000Y-38437880D01*
X79995238Y-38580738D01*
X80090476Y-38675976D01*
X80185714Y-38723595D01*
X80598166Y-51479642D02*
X80645785Y-51527261D01*
X80788642Y-51574880D01*
X80883880Y-51574880D01*
X81026738Y-51527261D01*
X81121976Y-51432023D01*
X81169595Y-51336785D01*
X81217214Y-51146309D01*
X81217214Y-51003452D01*
X81169595Y-50812976D01*
X81121976Y-50717738D01*
X81026738Y-50622500D01*
X80883880Y-50574880D01*
X80788642Y-50574880D01*
X80645785Y-50622500D01*
X80598166Y-50670119D01*
X80217214Y-50670119D02*
X80169595Y-50622500D01*
X80074357Y-50574880D01*
X79836261Y-50574880D01*
X79741023Y-50622500D01*
X79693404Y-50670119D01*
X79645785Y-50765357D01*
X79645785Y-50860595D01*
X79693404Y-51003452D01*
X80264833Y-51574880D01*
X79645785Y-51574880D01*
X80725166Y-63671642D02*
X80772785Y-63719261D01*
X80915642Y-63766880D01*
X81010880Y-63766880D01*
X81153738Y-63719261D01*
X81248976Y-63624023D01*
X81296595Y-63528785D01*
X81344214Y-63338309D01*
X81344214Y-63195452D01*
X81296595Y-63004976D01*
X81248976Y-62909738D01*
X81153738Y-62814500D01*
X81010880Y-62766880D01*
X80915642Y-62766880D01*
X80772785Y-62814500D01*
X80725166Y-62862119D01*
X80391833Y-62766880D02*
X79772785Y-62766880D01*
X80106119Y-63147833D01*
X79963261Y-63147833D01*
X79868023Y-63195452D01*
X79820404Y-63243071D01*
X79772785Y-63338309D01*
X79772785Y-63576404D01*
X79820404Y-63671642D01*
X79868023Y-63719261D01*
X79963261Y-63766880D01*
X80248976Y-63766880D01*
X80344214Y-63719261D01*
X80391833Y-63671642D01*
X80661666Y-75228642D02*
X80709285Y-75276261D01*
X80852142Y-75323880D01*
X80947380Y-75323880D01*
X81090238Y-75276261D01*
X81185476Y-75181023D01*
X81233095Y-75085785D01*
X81280714Y-74895309D01*
X81280714Y-74752452D01*
X81233095Y-74561976D01*
X81185476Y-74466738D01*
X81090238Y-74371500D01*
X80947380Y-74323880D01*
X80852142Y-74323880D01*
X80709285Y-74371500D01*
X80661666Y-74419119D01*
X79804523Y-74657214D02*
X79804523Y-75323880D01*
X80042619Y-74276261D02*
X80280714Y-74990547D01*
X79661666Y-74990547D01*
X82439666Y-90468642D02*
X82487285Y-90516261D01*
X82630142Y-90563880D01*
X82725380Y-90563880D01*
X82868238Y-90516261D01*
X82963476Y-90421023D01*
X83011095Y-90325785D01*
X83058714Y-90135309D01*
X83058714Y-89992452D01*
X83011095Y-89801976D01*
X82963476Y-89706738D01*
X82868238Y-89611500D01*
X82725380Y-89563880D01*
X82630142Y-89563880D01*
X82487285Y-89611500D01*
X82439666Y-89659119D01*
X81534904Y-89563880D02*
X82011095Y-89563880D01*
X82058714Y-90040071D01*
X82011095Y-89992452D01*
X81915857Y-89944833D01*
X81677761Y-89944833D01*
X81582523Y-89992452D01*
X81534904Y-90040071D01*
X81487285Y-90135309D01*
X81487285Y-90373404D01*
X81534904Y-90468642D01*
X81582523Y-90516261D01*
X81677761Y-90563880D01*
X81915857Y-90563880D01*
X82011095Y-90516261D01*
X82058714Y-90468642D01*
X67041142Y-33906333D02*
X67088761Y-33858714D01*
X67136380Y-33715857D01*
X67136380Y-33620619D01*
X67088761Y-33477761D01*
X66993523Y-33382523D01*
X66898285Y-33334904D01*
X66707809Y-33287285D01*
X66564952Y-33287285D01*
X66374476Y-33334904D01*
X66279238Y-33382523D01*
X66184000Y-33477761D01*
X66136380Y-33620619D01*
X66136380Y-33715857D01*
X66184000Y-33858714D01*
X66231619Y-33906333D01*
X66136380Y-34763476D02*
X66136380Y-34573000D01*
X66184000Y-34477761D01*
X66231619Y-34430142D01*
X66374476Y-34334904D01*
X66564952Y-34287285D01*
X66945904Y-34287285D01*
X67041142Y-34334904D01*
X67088761Y-34382523D01*
X67136380Y-34477761D01*
X67136380Y-34668238D01*
X67088761Y-34763476D01*
X67041142Y-34811095D01*
X66945904Y-34858714D01*
X66707809Y-34858714D01*
X66612571Y-34811095D01*
X66564952Y-34763476D01*
X66517333Y-34668238D01*
X66517333Y-34477761D01*
X66564952Y-34382523D01*
X66612571Y-34334904D01*
X66707809Y-34287285D01*
X67141142Y-44506333D02*
X67188761Y-44458714D01*
X67236380Y-44315857D01*
X67236380Y-44220619D01*
X67188761Y-44077761D01*
X67093523Y-43982523D01*
X66998285Y-43934904D01*
X66807809Y-43887285D01*
X66664952Y-43887285D01*
X66474476Y-43934904D01*
X66379238Y-43982523D01*
X66284000Y-44077761D01*
X66236380Y-44220619D01*
X66236380Y-44315857D01*
X66284000Y-44458714D01*
X66331619Y-44506333D01*
X66236380Y-44839666D02*
X66236380Y-45506333D01*
X67236380Y-45077761D01*
X67141142Y-55206333D02*
X67188761Y-55158714D01*
X67236380Y-55015857D01*
X67236380Y-54920619D01*
X67188761Y-54777761D01*
X67093523Y-54682523D01*
X66998285Y-54634904D01*
X66807809Y-54587285D01*
X66664952Y-54587285D01*
X66474476Y-54634904D01*
X66379238Y-54682523D01*
X66284000Y-54777761D01*
X66236380Y-54920619D01*
X66236380Y-55015857D01*
X66284000Y-55158714D01*
X66331619Y-55206333D01*
X66664952Y-55777761D02*
X66617333Y-55682523D01*
X66569714Y-55634904D01*
X66474476Y-55587285D01*
X66426857Y-55587285D01*
X66331619Y-55634904D01*
X66284000Y-55682523D01*
X66236380Y-55777761D01*
X66236380Y-55968238D01*
X66284000Y-56063476D01*
X66331619Y-56111095D01*
X66426857Y-56158714D01*
X66474476Y-56158714D01*
X66569714Y-56111095D01*
X66617333Y-56063476D01*
X66664952Y-55968238D01*
X66664952Y-55777761D01*
X66712571Y-55682523D01*
X66760190Y-55634904D01*
X66855428Y-55587285D01*
X67045904Y-55587285D01*
X67141142Y-55634904D01*
X67188761Y-55682523D01*
X67236380Y-55777761D01*
X67236380Y-55968238D01*
X67188761Y-56063476D01*
X67141142Y-56111095D01*
X67045904Y-56158714D01*
X66855428Y-56158714D01*
X66760190Y-56111095D01*
X66712571Y-56063476D01*
X66664952Y-55968238D01*
X67141142Y-65706333D02*
X67188761Y-65658714D01*
X67236380Y-65515857D01*
X67236380Y-65420619D01*
X67188761Y-65277761D01*
X67093523Y-65182523D01*
X66998285Y-65134904D01*
X66807809Y-65087285D01*
X66664952Y-65087285D01*
X66474476Y-65134904D01*
X66379238Y-65182523D01*
X66284000Y-65277761D01*
X66236380Y-65420619D01*
X66236380Y-65515857D01*
X66284000Y-65658714D01*
X66331619Y-65706333D01*
X67236380Y-66182523D02*
X67236380Y-66373000D01*
X67188761Y-66468238D01*
X67141142Y-66515857D01*
X66998285Y-66611095D01*
X66807809Y-66658714D01*
X66426857Y-66658714D01*
X66331619Y-66611095D01*
X66284000Y-66563476D01*
X66236380Y-66468238D01*
X66236380Y-66277761D01*
X66284000Y-66182523D01*
X66331619Y-66134904D01*
X66426857Y-66087285D01*
X66664952Y-66087285D01*
X66760190Y-66134904D01*
X66807809Y-66182523D01*
X66855428Y-66277761D01*
X66855428Y-66468238D01*
X66807809Y-66563476D01*
X66760190Y-66611095D01*
X66664952Y-66658714D01*
X67241142Y-75830142D02*
X67288761Y-75782523D01*
X67336380Y-75639666D01*
X67336380Y-75544428D01*
X67288761Y-75401571D01*
X67193523Y-75306333D01*
X67098285Y-75258714D01*
X66907809Y-75211095D01*
X66764952Y-75211095D01*
X66574476Y-75258714D01*
X66479238Y-75306333D01*
X66384000Y-75401571D01*
X66336380Y-75544428D01*
X66336380Y-75639666D01*
X66384000Y-75782523D01*
X66431619Y-75830142D01*
X67336380Y-76782523D02*
X67336380Y-76211095D01*
X67336380Y-76496809D02*
X66336380Y-76496809D01*
X66479238Y-76401571D01*
X66574476Y-76306333D01*
X66622095Y-76211095D01*
X66336380Y-77401571D02*
X66336380Y-77496809D01*
X66384000Y-77592047D01*
X66431619Y-77639666D01*
X66526857Y-77687285D01*
X66717333Y-77734904D01*
X66955428Y-77734904D01*
X67145904Y-77687285D01*
X67241142Y-77639666D01*
X67288761Y-77592047D01*
X67336380Y-77496809D01*
X67336380Y-77401571D01*
X67288761Y-77306333D01*
X67241142Y-77258714D01*
X67145904Y-77211095D01*
X66955428Y-77163476D01*
X66717333Y-77163476D01*
X66526857Y-77211095D01*
X66431619Y-77258714D01*
X66384000Y-77306333D01*
X66336380Y-77401571D01*
X67041142Y-86430142D02*
X67088761Y-86382523D01*
X67136380Y-86239666D01*
X67136380Y-86144428D01*
X67088761Y-86001571D01*
X66993523Y-85906333D01*
X66898285Y-85858714D01*
X66707809Y-85811095D01*
X66564952Y-85811095D01*
X66374476Y-85858714D01*
X66279238Y-85906333D01*
X66184000Y-86001571D01*
X66136380Y-86144428D01*
X66136380Y-86239666D01*
X66184000Y-86382523D01*
X66231619Y-86430142D01*
X67136380Y-87382523D02*
X67136380Y-86811095D01*
X67136380Y-87096809D02*
X66136380Y-87096809D01*
X66279238Y-87001571D01*
X66374476Y-86906333D01*
X66422095Y-86811095D01*
X67136380Y-88334904D02*
X67136380Y-87763476D01*
X67136380Y-88049190D02*
X66136380Y-88049190D01*
X66279238Y-87953952D01*
X66374476Y-87858714D01*
X66422095Y-87763476D01*
X61126857Y-31510142D02*
X61174476Y-31557761D01*
X61317333Y-31605380D01*
X61412571Y-31605380D01*
X61555428Y-31557761D01*
X61650666Y-31462523D01*
X61698285Y-31367285D01*
X61745904Y-31176809D01*
X61745904Y-31033952D01*
X61698285Y-30843476D01*
X61650666Y-30748238D01*
X61555428Y-30653000D01*
X61412571Y-30605380D01*
X61317333Y-30605380D01*
X61174476Y-30653000D01*
X61126857Y-30700619D01*
X60174476Y-31605380D02*
X60745904Y-31605380D01*
X60460190Y-31605380D02*
X60460190Y-30605380D01*
X60555428Y-30748238D01*
X60650666Y-30843476D01*
X60745904Y-30891095D01*
X59793523Y-30700619D02*
X59745904Y-30653000D01*
X59650666Y-30605380D01*
X59412571Y-30605380D01*
X59317333Y-30653000D01*
X59269714Y-30700619D01*
X59222095Y-30795857D01*
X59222095Y-30891095D01*
X59269714Y-31033952D01*
X59841142Y-31605380D01*
X59222095Y-31605380D01*
X61126857Y-42110142D02*
X61174476Y-42157761D01*
X61317333Y-42205380D01*
X61412571Y-42205380D01*
X61555428Y-42157761D01*
X61650666Y-42062523D01*
X61698285Y-41967285D01*
X61745904Y-41776809D01*
X61745904Y-41633952D01*
X61698285Y-41443476D01*
X61650666Y-41348238D01*
X61555428Y-41253000D01*
X61412571Y-41205380D01*
X61317333Y-41205380D01*
X61174476Y-41253000D01*
X61126857Y-41300619D01*
X60174476Y-42205380D02*
X60745904Y-42205380D01*
X60460190Y-42205380D02*
X60460190Y-41205380D01*
X60555428Y-41348238D01*
X60650666Y-41443476D01*
X60745904Y-41491095D01*
X59841142Y-41205380D02*
X59222095Y-41205380D01*
X59555428Y-41586333D01*
X59412571Y-41586333D01*
X59317333Y-41633952D01*
X59269714Y-41681571D01*
X59222095Y-41776809D01*
X59222095Y-42014904D01*
X59269714Y-42110142D01*
X59317333Y-42157761D01*
X59412571Y-42205380D01*
X59698285Y-42205380D01*
X59793523Y-42157761D01*
X59841142Y-42110142D01*
X61026857Y-52710142D02*
X61074476Y-52757761D01*
X61217333Y-52805380D01*
X61312571Y-52805380D01*
X61455428Y-52757761D01*
X61550666Y-52662523D01*
X61598285Y-52567285D01*
X61645904Y-52376809D01*
X61645904Y-52233952D01*
X61598285Y-52043476D01*
X61550666Y-51948238D01*
X61455428Y-51853000D01*
X61312571Y-51805380D01*
X61217333Y-51805380D01*
X61074476Y-51853000D01*
X61026857Y-51900619D01*
X60074476Y-52805380D02*
X60645904Y-52805380D01*
X60360190Y-52805380D02*
X60360190Y-51805380D01*
X60455428Y-51948238D01*
X60550666Y-52043476D01*
X60645904Y-52091095D01*
X59217333Y-52138714D02*
X59217333Y-52805380D01*
X59455428Y-51757761D02*
X59693523Y-52472047D01*
X59074476Y-52472047D01*
X61026857Y-63310142D02*
X61074476Y-63357761D01*
X61217333Y-63405380D01*
X61312571Y-63405380D01*
X61455428Y-63357761D01*
X61550666Y-63262523D01*
X61598285Y-63167285D01*
X61645904Y-62976809D01*
X61645904Y-62833952D01*
X61598285Y-62643476D01*
X61550666Y-62548238D01*
X61455428Y-62453000D01*
X61312571Y-62405380D01*
X61217333Y-62405380D01*
X61074476Y-62453000D01*
X61026857Y-62500619D01*
X60074476Y-63405380D02*
X60645904Y-63405380D01*
X60360190Y-63405380D02*
X60360190Y-62405380D01*
X60455428Y-62548238D01*
X60550666Y-62643476D01*
X60645904Y-62691095D01*
X59169714Y-62405380D02*
X59645904Y-62405380D01*
X59693523Y-62881571D01*
X59645904Y-62833952D01*
X59550666Y-62786333D01*
X59312571Y-62786333D01*
X59217333Y-62833952D01*
X59169714Y-62881571D01*
X59122095Y-62976809D01*
X59122095Y-63214904D01*
X59169714Y-63310142D01*
X59217333Y-63357761D01*
X59312571Y-63405380D01*
X59550666Y-63405380D01*
X59645904Y-63357761D01*
X59693523Y-63310142D01*
X61026857Y-73910142D02*
X61074476Y-73957761D01*
X61217333Y-74005380D01*
X61312571Y-74005380D01*
X61455428Y-73957761D01*
X61550666Y-73862523D01*
X61598285Y-73767285D01*
X61645904Y-73576809D01*
X61645904Y-73433952D01*
X61598285Y-73243476D01*
X61550666Y-73148238D01*
X61455428Y-73053000D01*
X61312571Y-73005380D01*
X61217333Y-73005380D01*
X61074476Y-73053000D01*
X61026857Y-73100619D01*
X60074476Y-74005380D02*
X60645904Y-74005380D01*
X60360190Y-74005380D02*
X60360190Y-73005380D01*
X60455428Y-73148238D01*
X60550666Y-73243476D01*
X60645904Y-73291095D01*
X59217333Y-73005380D02*
X59407809Y-73005380D01*
X59503047Y-73053000D01*
X59550666Y-73100619D01*
X59645904Y-73243476D01*
X59693523Y-73433952D01*
X59693523Y-73814904D01*
X59645904Y-73910142D01*
X59598285Y-73957761D01*
X59503047Y-74005380D01*
X59312571Y-74005380D01*
X59217333Y-73957761D01*
X59169714Y-73910142D01*
X59122095Y-73814904D01*
X59122095Y-73576809D01*
X59169714Y-73481571D01*
X59217333Y-73433952D01*
X59312571Y-73386333D01*
X59503047Y-73386333D01*
X59598285Y-73433952D01*
X59645904Y-73481571D01*
X59693523Y-73576809D01*
X61126857Y-84510142D02*
X61174476Y-84557761D01*
X61317333Y-84605380D01*
X61412571Y-84605380D01*
X61555428Y-84557761D01*
X61650666Y-84462523D01*
X61698285Y-84367285D01*
X61745904Y-84176809D01*
X61745904Y-84033952D01*
X61698285Y-83843476D01*
X61650666Y-83748238D01*
X61555428Y-83653000D01*
X61412571Y-83605380D01*
X61317333Y-83605380D01*
X61174476Y-83653000D01*
X61126857Y-83700619D01*
X60174476Y-84605380D02*
X60745904Y-84605380D01*
X60460190Y-84605380D02*
X60460190Y-83605380D01*
X60555428Y-83748238D01*
X60650666Y-83843476D01*
X60745904Y-83891095D01*
X59841142Y-83605380D02*
X59174476Y-83605380D01*
X59603047Y-84605380D01*
X70457142Y-25657142D02*
X70504761Y-25609523D01*
X70552380Y-25466666D01*
X70552380Y-25371428D01*
X70504761Y-25228571D01*
X70409523Y-25133333D01*
X70314285Y-25085714D01*
X70123809Y-25038095D01*
X69980952Y-25038095D01*
X69790476Y-25085714D01*
X69695238Y-25133333D01*
X69600000Y-25228571D01*
X69552380Y-25371428D01*
X69552380Y-25466666D01*
X69600000Y-25609523D01*
X69647619Y-25657142D01*
X70552380Y-26609523D02*
X70552380Y-26038095D01*
X70552380Y-26323809D02*
X69552380Y-26323809D01*
X69695238Y-26228571D01*
X69790476Y-26133333D01*
X69838095Y-26038095D01*
X69980952Y-27180952D02*
X69933333Y-27085714D01*
X69885714Y-27038095D01*
X69790476Y-26990476D01*
X69742857Y-26990476D01*
X69647619Y-27038095D01*
X69600000Y-27085714D01*
X69552380Y-27180952D01*
X69552380Y-27371428D01*
X69600000Y-27466666D01*
X69647619Y-27514285D01*
X69742857Y-27561904D01*
X69790476Y-27561904D01*
X69885714Y-27514285D01*
X69933333Y-27466666D01*
X69980952Y-27371428D01*
X69980952Y-27180952D01*
X70028571Y-27085714D01*
X70076190Y-27038095D01*
X70171428Y-26990476D01*
X70361904Y-26990476D01*
X70457142Y-27038095D01*
X70504761Y-27085714D01*
X70552380Y-27180952D01*
X70552380Y-27371428D01*
X70504761Y-27466666D01*
X70457142Y-27514285D01*
X70361904Y-27561904D01*
X70171428Y-27561904D01*
X70076190Y-27514285D01*
X70028571Y-27466666D01*
X69980952Y-27371428D01*
X55941142Y-33430142D02*
X55988761Y-33382523D01*
X56036380Y-33239666D01*
X56036380Y-33144428D01*
X55988761Y-33001571D01*
X55893523Y-32906333D01*
X55798285Y-32858714D01*
X55607809Y-32811095D01*
X55464952Y-32811095D01*
X55274476Y-32858714D01*
X55179238Y-32906333D01*
X55084000Y-33001571D01*
X55036380Y-33144428D01*
X55036380Y-33239666D01*
X55084000Y-33382523D01*
X55131619Y-33430142D01*
X56036380Y-34382523D02*
X56036380Y-33811095D01*
X56036380Y-34096809D02*
X55036380Y-34096809D01*
X55179238Y-34001571D01*
X55274476Y-33906333D01*
X55322095Y-33811095D01*
X56036380Y-34858714D02*
X56036380Y-35049190D01*
X55988761Y-35144428D01*
X55941142Y-35192047D01*
X55798285Y-35287285D01*
X55607809Y-35334904D01*
X55226857Y-35334904D01*
X55131619Y-35287285D01*
X55084000Y-35239666D01*
X55036380Y-35144428D01*
X55036380Y-34953952D01*
X55084000Y-34858714D01*
X55131619Y-34811095D01*
X55226857Y-34763476D01*
X55464952Y-34763476D01*
X55560190Y-34811095D01*
X55607809Y-34858714D01*
X55655428Y-34953952D01*
X55655428Y-35144428D01*
X55607809Y-35239666D01*
X55560190Y-35287285D01*
X55464952Y-35334904D01*
X55861142Y-44030142D02*
X55908761Y-43982523D01*
X55956380Y-43839666D01*
X55956380Y-43744428D01*
X55908761Y-43601571D01*
X55813523Y-43506333D01*
X55718285Y-43458714D01*
X55527809Y-43411095D01*
X55384952Y-43411095D01*
X55194476Y-43458714D01*
X55099238Y-43506333D01*
X55004000Y-43601571D01*
X54956380Y-43744428D01*
X54956380Y-43839666D01*
X55004000Y-43982523D01*
X55051619Y-44030142D01*
X55051619Y-44411095D02*
X55004000Y-44458714D01*
X54956380Y-44553952D01*
X54956380Y-44792047D01*
X55004000Y-44887285D01*
X55051619Y-44934904D01*
X55146857Y-44982523D01*
X55242095Y-44982523D01*
X55384952Y-44934904D01*
X55956380Y-44363476D01*
X55956380Y-44982523D01*
X54956380Y-45601571D02*
X54956380Y-45696809D01*
X55004000Y-45792047D01*
X55051619Y-45839666D01*
X55146857Y-45887285D01*
X55337333Y-45934904D01*
X55575428Y-45934904D01*
X55765904Y-45887285D01*
X55861142Y-45839666D01*
X55908761Y-45792047D01*
X55956380Y-45696809D01*
X55956380Y-45601571D01*
X55908761Y-45506333D01*
X55861142Y-45458714D01*
X55765904Y-45411095D01*
X55575428Y-45363476D01*
X55337333Y-45363476D01*
X55146857Y-45411095D01*
X55051619Y-45458714D01*
X55004000Y-45506333D01*
X54956380Y-45601571D01*
X55961142Y-54630142D02*
X56008761Y-54582523D01*
X56056380Y-54439666D01*
X56056380Y-54344428D01*
X56008761Y-54201571D01*
X55913523Y-54106333D01*
X55818285Y-54058714D01*
X55627809Y-54011095D01*
X55484952Y-54011095D01*
X55294476Y-54058714D01*
X55199238Y-54106333D01*
X55104000Y-54201571D01*
X55056380Y-54344428D01*
X55056380Y-54439666D01*
X55104000Y-54582523D01*
X55151619Y-54630142D01*
X55151619Y-55011095D02*
X55104000Y-55058714D01*
X55056380Y-55153952D01*
X55056380Y-55392047D01*
X55104000Y-55487285D01*
X55151619Y-55534904D01*
X55246857Y-55582523D01*
X55342095Y-55582523D01*
X55484952Y-55534904D01*
X56056380Y-54963476D01*
X56056380Y-55582523D01*
X56056380Y-56534904D02*
X56056380Y-55963476D01*
X56056380Y-56249190D02*
X55056380Y-56249190D01*
X55199238Y-56153952D01*
X55294476Y-56058714D01*
X55342095Y-55963476D01*
X55961142Y-65230142D02*
X56008761Y-65182523D01*
X56056380Y-65039666D01*
X56056380Y-64944428D01*
X56008761Y-64801571D01*
X55913523Y-64706333D01*
X55818285Y-64658714D01*
X55627809Y-64611095D01*
X55484952Y-64611095D01*
X55294476Y-64658714D01*
X55199238Y-64706333D01*
X55104000Y-64801571D01*
X55056380Y-64944428D01*
X55056380Y-65039666D01*
X55104000Y-65182523D01*
X55151619Y-65230142D01*
X55151619Y-65611095D02*
X55104000Y-65658714D01*
X55056380Y-65753952D01*
X55056380Y-65992047D01*
X55104000Y-66087285D01*
X55151619Y-66134904D01*
X55246857Y-66182523D01*
X55342095Y-66182523D01*
X55484952Y-66134904D01*
X56056380Y-65563476D01*
X56056380Y-66182523D01*
X55151619Y-66563476D02*
X55104000Y-66611095D01*
X55056380Y-66706333D01*
X55056380Y-66944428D01*
X55104000Y-67039666D01*
X55151619Y-67087285D01*
X55246857Y-67134904D01*
X55342095Y-67134904D01*
X55484952Y-67087285D01*
X56056380Y-66515857D01*
X56056380Y-67134904D01*
X55961142Y-75730142D02*
X56008761Y-75682523D01*
X56056380Y-75539666D01*
X56056380Y-75444428D01*
X56008761Y-75301571D01*
X55913523Y-75206333D01*
X55818285Y-75158714D01*
X55627809Y-75111095D01*
X55484952Y-75111095D01*
X55294476Y-75158714D01*
X55199238Y-75206333D01*
X55104000Y-75301571D01*
X55056380Y-75444428D01*
X55056380Y-75539666D01*
X55104000Y-75682523D01*
X55151619Y-75730142D01*
X55151619Y-76111095D02*
X55104000Y-76158714D01*
X55056380Y-76253952D01*
X55056380Y-76492047D01*
X55104000Y-76587285D01*
X55151619Y-76634904D01*
X55246857Y-76682523D01*
X55342095Y-76682523D01*
X55484952Y-76634904D01*
X56056380Y-76063476D01*
X56056380Y-76682523D01*
X55056380Y-77015857D02*
X55056380Y-77634904D01*
X55437333Y-77301571D01*
X55437333Y-77444428D01*
X55484952Y-77539666D01*
X55532571Y-77587285D01*
X55627809Y-77634904D01*
X55865904Y-77634904D01*
X55961142Y-77587285D01*
X56008761Y-77539666D01*
X56056380Y-77444428D01*
X56056380Y-77158714D01*
X56008761Y-77063476D01*
X55961142Y-77015857D01*
X55961142Y-86430142D02*
X56008761Y-86382523D01*
X56056380Y-86239666D01*
X56056380Y-86144428D01*
X56008761Y-86001571D01*
X55913523Y-85906333D01*
X55818285Y-85858714D01*
X55627809Y-85811095D01*
X55484952Y-85811095D01*
X55294476Y-85858714D01*
X55199238Y-85906333D01*
X55104000Y-86001571D01*
X55056380Y-86144428D01*
X55056380Y-86239666D01*
X55104000Y-86382523D01*
X55151619Y-86430142D01*
X55151619Y-86811095D02*
X55104000Y-86858714D01*
X55056380Y-86953952D01*
X55056380Y-87192047D01*
X55104000Y-87287285D01*
X55151619Y-87334904D01*
X55246857Y-87382523D01*
X55342095Y-87382523D01*
X55484952Y-87334904D01*
X56056380Y-86763476D01*
X56056380Y-87382523D01*
X55389714Y-88239666D02*
X56056380Y-88239666D01*
X55008761Y-88001571D02*
X55723047Y-87763476D01*
X55723047Y-88382523D01*
X45326857Y-31510142D02*
X45374476Y-31557761D01*
X45517333Y-31605380D01*
X45612571Y-31605380D01*
X45755428Y-31557761D01*
X45850666Y-31462523D01*
X45898285Y-31367285D01*
X45945904Y-31176809D01*
X45945904Y-31033952D01*
X45898285Y-30843476D01*
X45850666Y-30748238D01*
X45755428Y-30653000D01*
X45612571Y-30605380D01*
X45517333Y-30605380D01*
X45374476Y-30653000D01*
X45326857Y-30700619D01*
X44945904Y-30700619D02*
X44898285Y-30653000D01*
X44803047Y-30605380D01*
X44564952Y-30605380D01*
X44469714Y-30653000D01*
X44422095Y-30700619D01*
X44374476Y-30795857D01*
X44374476Y-30891095D01*
X44422095Y-31033952D01*
X44993523Y-31605380D01*
X44374476Y-31605380D01*
X43469714Y-30605380D02*
X43945904Y-30605380D01*
X43993523Y-31081571D01*
X43945904Y-31033952D01*
X43850666Y-30986333D01*
X43612571Y-30986333D01*
X43517333Y-31033952D01*
X43469714Y-31081571D01*
X43422095Y-31176809D01*
X43422095Y-31414904D01*
X43469714Y-31510142D01*
X43517333Y-31557761D01*
X43612571Y-31605380D01*
X43850666Y-31605380D01*
X43945904Y-31557761D01*
X43993523Y-31510142D01*
X45326857Y-42110142D02*
X45374476Y-42157761D01*
X45517333Y-42205380D01*
X45612571Y-42205380D01*
X45755428Y-42157761D01*
X45850666Y-42062523D01*
X45898285Y-41967285D01*
X45945904Y-41776809D01*
X45945904Y-41633952D01*
X45898285Y-41443476D01*
X45850666Y-41348238D01*
X45755428Y-41253000D01*
X45612571Y-41205380D01*
X45517333Y-41205380D01*
X45374476Y-41253000D01*
X45326857Y-41300619D01*
X44945904Y-41300619D02*
X44898285Y-41253000D01*
X44803047Y-41205380D01*
X44564952Y-41205380D01*
X44469714Y-41253000D01*
X44422095Y-41300619D01*
X44374476Y-41395857D01*
X44374476Y-41491095D01*
X44422095Y-41633952D01*
X44993523Y-42205380D01*
X44374476Y-42205380D01*
X43517333Y-41205380D02*
X43707809Y-41205380D01*
X43803047Y-41253000D01*
X43850666Y-41300619D01*
X43945904Y-41443476D01*
X43993523Y-41633952D01*
X43993523Y-42014904D01*
X43945904Y-42110142D01*
X43898285Y-42157761D01*
X43803047Y-42205380D01*
X43612571Y-42205380D01*
X43517333Y-42157761D01*
X43469714Y-42110142D01*
X43422095Y-42014904D01*
X43422095Y-41776809D01*
X43469714Y-41681571D01*
X43517333Y-41633952D01*
X43612571Y-41586333D01*
X43803047Y-41586333D01*
X43898285Y-41633952D01*
X43945904Y-41681571D01*
X43993523Y-41776809D01*
X45226857Y-52710142D02*
X45274476Y-52757761D01*
X45417333Y-52805380D01*
X45512571Y-52805380D01*
X45655428Y-52757761D01*
X45750666Y-52662523D01*
X45798285Y-52567285D01*
X45845904Y-52376809D01*
X45845904Y-52233952D01*
X45798285Y-52043476D01*
X45750666Y-51948238D01*
X45655428Y-51853000D01*
X45512571Y-51805380D01*
X45417333Y-51805380D01*
X45274476Y-51853000D01*
X45226857Y-51900619D01*
X44845904Y-51900619D02*
X44798285Y-51853000D01*
X44703047Y-51805380D01*
X44464952Y-51805380D01*
X44369714Y-51853000D01*
X44322095Y-51900619D01*
X44274476Y-51995857D01*
X44274476Y-52091095D01*
X44322095Y-52233952D01*
X44893523Y-52805380D01*
X44274476Y-52805380D01*
X43941142Y-51805380D02*
X43274476Y-51805380D01*
X43703047Y-52805380D01*
X45326857Y-63310142D02*
X45374476Y-63357761D01*
X45517333Y-63405380D01*
X45612571Y-63405380D01*
X45755428Y-63357761D01*
X45850666Y-63262523D01*
X45898285Y-63167285D01*
X45945904Y-62976809D01*
X45945904Y-62833952D01*
X45898285Y-62643476D01*
X45850666Y-62548238D01*
X45755428Y-62453000D01*
X45612571Y-62405380D01*
X45517333Y-62405380D01*
X45374476Y-62453000D01*
X45326857Y-62500619D01*
X44945904Y-62500619D02*
X44898285Y-62453000D01*
X44803047Y-62405380D01*
X44564952Y-62405380D01*
X44469714Y-62453000D01*
X44422095Y-62500619D01*
X44374476Y-62595857D01*
X44374476Y-62691095D01*
X44422095Y-62833952D01*
X44993523Y-63405380D01*
X44374476Y-63405380D01*
X43803047Y-62833952D02*
X43898285Y-62786333D01*
X43945904Y-62738714D01*
X43993523Y-62643476D01*
X43993523Y-62595857D01*
X43945904Y-62500619D01*
X43898285Y-62453000D01*
X43803047Y-62405380D01*
X43612571Y-62405380D01*
X43517333Y-62453000D01*
X43469714Y-62500619D01*
X43422095Y-62595857D01*
X43422095Y-62643476D01*
X43469714Y-62738714D01*
X43517333Y-62786333D01*
X43612571Y-62833952D01*
X43803047Y-62833952D01*
X43898285Y-62881571D01*
X43945904Y-62929190D01*
X43993523Y-63024428D01*
X43993523Y-63214904D01*
X43945904Y-63310142D01*
X43898285Y-63357761D01*
X43803047Y-63405380D01*
X43612571Y-63405380D01*
X43517333Y-63357761D01*
X43469714Y-63310142D01*
X43422095Y-63214904D01*
X43422095Y-63024428D01*
X43469714Y-62929190D01*
X43517333Y-62881571D01*
X43612571Y-62833952D01*
X45226857Y-73910142D02*
X45274476Y-73957761D01*
X45417333Y-74005380D01*
X45512571Y-74005380D01*
X45655428Y-73957761D01*
X45750666Y-73862523D01*
X45798285Y-73767285D01*
X45845904Y-73576809D01*
X45845904Y-73433952D01*
X45798285Y-73243476D01*
X45750666Y-73148238D01*
X45655428Y-73053000D01*
X45512571Y-73005380D01*
X45417333Y-73005380D01*
X45274476Y-73053000D01*
X45226857Y-73100619D01*
X44845904Y-73100619D02*
X44798285Y-73053000D01*
X44703047Y-73005380D01*
X44464952Y-73005380D01*
X44369714Y-73053000D01*
X44322095Y-73100619D01*
X44274476Y-73195857D01*
X44274476Y-73291095D01*
X44322095Y-73433952D01*
X44893523Y-74005380D01*
X44274476Y-74005380D01*
X43798285Y-74005380D02*
X43607809Y-74005380D01*
X43512571Y-73957761D01*
X43464952Y-73910142D01*
X43369714Y-73767285D01*
X43322095Y-73576809D01*
X43322095Y-73195857D01*
X43369714Y-73100619D01*
X43417333Y-73053000D01*
X43512571Y-73005380D01*
X43703047Y-73005380D01*
X43798285Y-73053000D01*
X43845904Y-73100619D01*
X43893523Y-73195857D01*
X43893523Y-73433952D01*
X43845904Y-73529190D01*
X43798285Y-73576809D01*
X43703047Y-73624428D01*
X43512571Y-73624428D01*
X43417333Y-73576809D01*
X43369714Y-73529190D01*
X43322095Y-73433952D01*
X45226857Y-84510142D02*
X45274476Y-84557761D01*
X45417333Y-84605380D01*
X45512571Y-84605380D01*
X45655428Y-84557761D01*
X45750666Y-84462523D01*
X45798285Y-84367285D01*
X45845904Y-84176809D01*
X45845904Y-84033952D01*
X45798285Y-83843476D01*
X45750666Y-83748238D01*
X45655428Y-83653000D01*
X45512571Y-83605380D01*
X45417333Y-83605380D01*
X45274476Y-83653000D01*
X45226857Y-83700619D01*
X44893523Y-83605380D02*
X44274476Y-83605380D01*
X44607809Y-83986333D01*
X44464952Y-83986333D01*
X44369714Y-84033952D01*
X44322095Y-84081571D01*
X44274476Y-84176809D01*
X44274476Y-84414904D01*
X44322095Y-84510142D01*
X44369714Y-84557761D01*
X44464952Y-84605380D01*
X44750666Y-84605380D01*
X44845904Y-84557761D01*
X44893523Y-84510142D01*
X43655428Y-83605380D02*
X43560190Y-83605380D01*
X43464952Y-83653000D01*
X43417333Y-83700619D01*
X43369714Y-83795857D01*
X43322095Y-83986333D01*
X43322095Y-84224428D01*
X43369714Y-84414904D01*
X43417333Y-84510142D01*
X43464952Y-84557761D01*
X43560190Y-84605380D01*
X43655428Y-84605380D01*
X43750666Y-84557761D01*
X43798285Y-84510142D01*
X43845904Y-84414904D01*
X43893523Y-84224428D01*
X43893523Y-83986333D01*
X43845904Y-83795857D01*
X43798285Y-83700619D01*
X43750666Y-83653000D01*
X43655428Y-83605380D01*
X40141142Y-33430142D02*
X40188761Y-33382523D01*
X40236380Y-33239666D01*
X40236380Y-33144428D01*
X40188761Y-33001571D01*
X40093523Y-32906333D01*
X39998285Y-32858714D01*
X39807809Y-32811095D01*
X39664952Y-32811095D01*
X39474476Y-32858714D01*
X39379238Y-32906333D01*
X39284000Y-33001571D01*
X39236380Y-33144428D01*
X39236380Y-33239666D01*
X39284000Y-33382523D01*
X39331619Y-33430142D01*
X39236380Y-33763476D02*
X39236380Y-34382523D01*
X39617333Y-34049190D01*
X39617333Y-34192047D01*
X39664952Y-34287285D01*
X39712571Y-34334904D01*
X39807809Y-34382523D01*
X40045904Y-34382523D01*
X40141142Y-34334904D01*
X40188761Y-34287285D01*
X40236380Y-34192047D01*
X40236380Y-33906333D01*
X40188761Y-33811095D01*
X40141142Y-33763476D01*
X40236380Y-35334904D02*
X40236380Y-34763476D01*
X40236380Y-35049190D02*
X39236380Y-35049190D01*
X39379238Y-34953952D01*
X39474476Y-34858714D01*
X39522095Y-34763476D01*
X40061142Y-44030142D02*
X40108761Y-43982523D01*
X40156380Y-43839666D01*
X40156380Y-43744428D01*
X40108761Y-43601571D01*
X40013523Y-43506333D01*
X39918285Y-43458714D01*
X39727809Y-43411095D01*
X39584952Y-43411095D01*
X39394476Y-43458714D01*
X39299238Y-43506333D01*
X39204000Y-43601571D01*
X39156380Y-43744428D01*
X39156380Y-43839666D01*
X39204000Y-43982523D01*
X39251619Y-44030142D01*
X39156380Y-44363476D02*
X39156380Y-44982523D01*
X39537333Y-44649190D01*
X39537333Y-44792047D01*
X39584952Y-44887285D01*
X39632571Y-44934904D01*
X39727809Y-44982523D01*
X39965904Y-44982523D01*
X40061142Y-44934904D01*
X40108761Y-44887285D01*
X40156380Y-44792047D01*
X40156380Y-44506333D01*
X40108761Y-44411095D01*
X40061142Y-44363476D01*
X39251619Y-45363476D02*
X39204000Y-45411095D01*
X39156380Y-45506333D01*
X39156380Y-45744428D01*
X39204000Y-45839666D01*
X39251619Y-45887285D01*
X39346857Y-45934904D01*
X39442095Y-45934904D01*
X39584952Y-45887285D01*
X40156380Y-45315857D01*
X40156380Y-45934904D01*
X40061142Y-54630142D02*
X40108761Y-54582523D01*
X40156380Y-54439666D01*
X40156380Y-54344428D01*
X40108761Y-54201571D01*
X40013523Y-54106333D01*
X39918285Y-54058714D01*
X39727809Y-54011095D01*
X39584952Y-54011095D01*
X39394476Y-54058714D01*
X39299238Y-54106333D01*
X39204000Y-54201571D01*
X39156380Y-54344428D01*
X39156380Y-54439666D01*
X39204000Y-54582523D01*
X39251619Y-54630142D01*
X39156380Y-54963476D02*
X39156380Y-55582523D01*
X39537333Y-55249190D01*
X39537333Y-55392047D01*
X39584952Y-55487285D01*
X39632571Y-55534904D01*
X39727809Y-55582523D01*
X39965904Y-55582523D01*
X40061142Y-55534904D01*
X40108761Y-55487285D01*
X40156380Y-55392047D01*
X40156380Y-55106333D01*
X40108761Y-55011095D01*
X40061142Y-54963476D01*
X39156380Y-55915857D02*
X39156380Y-56534904D01*
X39537333Y-56201571D01*
X39537333Y-56344428D01*
X39584952Y-56439666D01*
X39632571Y-56487285D01*
X39727809Y-56534904D01*
X39965904Y-56534904D01*
X40061142Y-56487285D01*
X40108761Y-56439666D01*
X40156380Y-56344428D01*
X40156380Y-56058714D01*
X40108761Y-55963476D01*
X40061142Y-55915857D01*
X40061142Y-65230142D02*
X40108761Y-65182523D01*
X40156380Y-65039666D01*
X40156380Y-64944428D01*
X40108761Y-64801571D01*
X40013523Y-64706333D01*
X39918285Y-64658714D01*
X39727809Y-64611095D01*
X39584952Y-64611095D01*
X39394476Y-64658714D01*
X39299238Y-64706333D01*
X39204000Y-64801571D01*
X39156380Y-64944428D01*
X39156380Y-65039666D01*
X39204000Y-65182523D01*
X39251619Y-65230142D01*
X39156380Y-65563476D02*
X39156380Y-66182523D01*
X39537333Y-65849190D01*
X39537333Y-65992047D01*
X39584952Y-66087285D01*
X39632571Y-66134904D01*
X39727809Y-66182523D01*
X39965904Y-66182523D01*
X40061142Y-66134904D01*
X40108761Y-66087285D01*
X40156380Y-65992047D01*
X40156380Y-65706333D01*
X40108761Y-65611095D01*
X40061142Y-65563476D01*
X39489714Y-67039666D02*
X40156380Y-67039666D01*
X39108761Y-66801571D02*
X39823047Y-66563476D01*
X39823047Y-67182523D01*
X40061142Y-75830142D02*
X40108761Y-75782523D01*
X40156380Y-75639666D01*
X40156380Y-75544428D01*
X40108761Y-75401571D01*
X40013523Y-75306333D01*
X39918285Y-75258714D01*
X39727809Y-75211095D01*
X39584952Y-75211095D01*
X39394476Y-75258714D01*
X39299238Y-75306333D01*
X39204000Y-75401571D01*
X39156380Y-75544428D01*
X39156380Y-75639666D01*
X39204000Y-75782523D01*
X39251619Y-75830142D01*
X39156380Y-76163476D02*
X39156380Y-76782523D01*
X39537333Y-76449190D01*
X39537333Y-76592047D01*
X39584952Y-76687285D01*
X39632571Y-76734904D01*
X39727809Y-76782523D01*
X39965904Y-76782523D01*
X40061142Y-76734904D01*
X40108761Y-76687285D01*
X40156380Y-76592047D01*
X40156380Y-76306333D01*
X40108761Y-76211095D01*
X40061142Y-76163476D01*
X39156380Y-77687285D02*
X39156380Y-77211095D01*
X39632571Y-77163476D01*
X39584952Y-77211095D01*
X39537333Y-77306333D01*
X39537333Y-77544428D01*
X39584952Y-77639666D01*
X39632571Y-77687285D01*
X39727809Y-77734904D01*
X39965904Y-77734904D01*
X40061142Y-77687285D01*
X40108761Y-77639666D01*
X40156380Y-77544428D01*
X40156380Y-77306333D01*
X40108761Y-77211095D01*
X40061142Y-77163476D01*
X40061142Y-86430142D02*
X40108761Y-86382523D01*
X40156380Y-86239666D01*
X40156380Y-86144428D01*
X40108761Y-86001571D01*
X40013523Y-85906333D01*
X39918285Y-85858714D01*
X39727809Y-85811095D01*
X39584952Y-85811095D01*
X39394476Y-85858714D01*
X39299238Y-85906333D01*
X39204000Y-86001571D01*
X39156380Y-86144428D01*
X39156380Y-86239666D01*
X39204000Y-86382523D01*
X39251619Y-86430142D01*
X39156380Y-86763476D02*
X39156380Y-87382523D01*
X39537333Y-87049190D01*
X39537333Y-87192047D01*
X39584952Y-87287285D01*
X39632571Y-87334904D01*
X39727809Y-87382523D01*
X39965904Y-87382523D01*
X40061142Y-87334904D01*
X40108761Y-87287285D01*
X40156380Y-87192047D01*
X40156380Y-86906333D01*
X40108761Y-86811095D01*
X40061142Y-86763476D01*
X39156380Y-88239666D02*
X39156380Y-88049190D01*
X39204000Y-87953952D01*
X39251619Y-87906333D01*
X39394476Y-87811095D01*
X39584952Y-87763476D01*
X39965904Y-87763476D01*
X40061142Y-87811095D01*
X40108761Y-87858714D01*
X40156380Y-87953952D01*
X40156380Y-88144428D01*
X40108761Y-88239666D01*
X40061142Y-88287285D01*
X39965904Y-88334904D01*
X39727809Y-88334904D01*
X39632571Y-88287285D01*
X39584952Y-88239666D01*
X39537333Y-88144428D01*
X39537333Y-87953952D01*
X39584952Y-87858714D01*
X39632571Y-87811095D01*
X39727809Y-87763476D01*
X70457142Y-8457142D02*
X70504761Y-8409523D01*
X70552380Y-8266666D01*
X70552380Y-8171428D01*
X70504761Y-8028571D01*
X70409523Y-7933333D01*
X70314285Y-7885714D01*
X70123809Y-7838095D01*
X69980952Y-7838095D01*
X69790476Y-7885714D01*
X69695238Y-7933333D01*
X69600000Y-8028571D01*
X69552380Y-8171428D01*
X69552380Y-8266666D01*
X69600000Y-8409523D01*
X69647619Y-8457142D01*
X69552380Y-8790476D02*
X69552380Y-9409523D01*
X69933333Y-9076190D01*
X69933333Y-9219047D01*
X69980952Y-9314285D01*
X70028571Y-9361904D01*
X70123809Y-9409523D01*
X70361904Y-9409523D01*
X70457142Y-9361904D01*
X70504761Y-9314285D01*
X70552380Y-9219047D01*
X70552380Y-8933333D01*
X70504761Y-8838095D01*
X70457142Y-8790476D01*
X69552380Y-9742857D02*
X69552380Y-10409523D01*
X70552380Y-9980952D01*
X18368142Y-30858142D02*
X18415761Y-30810523D01*
X18463380Y-30667666D01*
X18463380Y-30572428D01*
X18415761Y-30429571D01*
X18320523Y-30334333D01*
X18225285Y-30286714D01*
X18034809Y-30239095D01*
X17891952Y-30239095D01*
X17701476Y-30286714D01*
X17606238Y-30334333D01*
X17511000Y-30429571D01*
X17463380Y-30572428D01*
X17463380Y-30667666D01*
X17511000Y-30810523D01*
X17558619Y-30858142D01*
X17463380Y-31191476D02*
X17463380Y-31810523D01*
X17844333Y-31477190D01*
X17844333Y-31620047D01*
X17891952Y-31715285D01*
X17939571Y-31762904D01*
X18034809Y-31810523D01*
X18272904Y-31810523D01*
X18368142Y-31762904D01*
X18415761Y-31715285D01*
X18463380Y-31620047D01*
X18463380Y-31334333D01*
X18415761Y-31239095D01*
X18368142Y-31191476D01*
X17891952Y-32381952D02*
X17844333Y-32286714D01*
X17796714Y-32239095D01*
X17701476Y-32191476D01*
X17653857Y-32191476D01*
X17558619Y-32239095D01*
X17511000Y-32286714D01*
X17463380Y-32381952D01*
X17463380Y-32572428D01*
X17511000Y-32667666D01*
X17558619Y-32715285D01*
X17653857Y-32762904D01*
X17701476Y-32762904D01*
X17796714Y-32715285D01*
X17844333Y-32667666D01*
X17891952Y-32572428D01*
X17891952Y-32381952D01*
X17939571Y-32286714D01*
X17987190Y-32239095D01*
X18082428Y-32191476D01*
X18272904Y-32191476D01*
X18368142Y-32239095D01*
X18415761Y-32286714D01*
X18463380Y-32381952D01*
X18463380Y-32572428D01*
X18415761Y-32667666D01*
X18368142Y-32715285D01*
X18272904Y-32762904D01*
X18082428Y-32762904D01*
X17987190Y-32715285D01*
X17939571Y-32667666D01*
X17891952Y-32572428D01*
X18145857Y-44177142D02*
X18193476Y-44224761D01*
X18336333Y-44272380D01*
X18431571Y-44272380D01*
X18574428Y-44224761D01*
X18669666Y-44129523D01*
X18717285Y-44034285D01*
X18764904Y-43843809D01*
X18764904Y-43700952D01*
X18717285Y-43510476D01*
X18669666Y-43415238D01*
X18574428Y-43320000D01*
X18431571Y-43272380D01*
X18336333Y-43272380D01*
X18193476Y-43320000D01*
X18145857Y-43367619D01*
X17812523Y-43272380D02*
X17193476Y-43272380D01*
X17526809Y-43653333D01*
X17383952Y-43653333D01*
X17288714Y-43700952D01*
X17241095Y-43748571D01*
X17193476Y-43843809D01*
X17193476Y-44081904D01*
X17241095Y-44177142D01*
X17288714Y-44224761D01*
X17383952Y-44272380D01*
X17669666Y-44272380D01*
X17764904Y-44224761D01*
X17812523Y-44177142D01*
X16717285Y-44272380D02*
X16526809Y-44272380D01*
X16431571Y-44224761D01*
X16383952Y-44177142D01*
X16288714Y-44034285D01*
X16241095Y-43843809D01*
X16241095Y-43462857D01*
X16288714Y-43367619D01*
X16336333Y-43320000D01*
X16431571Y-43272380D01*
X16622047Y-43272380D01*
X16717285Y-43320000D01*
X16764904Y-43367619D01*
X16812523Y-43462857D01*
X16812523Y-43700952D01*
X16764904Y-43796190D01*
X16717285Y-43843809D01*
X16622047Y-43891428D01*
X16431571Y-43891428D01*
X16336333Y-43843809D01*
X16288714Y-43796190D01*
X16241095Y-43700952D01*
X18653857Y-55988142D02*
X18701476Y-56035761D01*
X18844333Y-56083380D01*
X18939571Y-56083380D01*
X19082428Y-56035761D01*
X19177666Y-55940523D01*
X19225285Y-55845285D01*
X19272904Y-55654809D01*
X19272904Y-55511952D01*
X19225285Y-55321476D01*
X19177666Y-55226238D01*
X19082428Y-55131000D01*
X18939571Y-55083380D01*
X18844333Y-55083380D01*
X18701476Y-55131000D01*
X18653857Y-55178619D01*
X17796714Y-55416714D02*
X17796714Y-56083380D01*
X18034809Y-55035761D02*
X18272904Y-55750047D01*
X17653857Y-55750047D01*
X17082428Y-55083380D02*
X16987190Y-55083380D01*
X16891952Y-55131000D01*
X16844333Y-55178619D01*
X16796714Y-55273857D01*
X16749095Y-55464333D01*
X16749095Y-55702428D01*
X16796714Y-55892904D01*
X16844333Y-55988142D01*
X16891952Y-56035761D01*
X16987190Y-56083380D01*
X17082428Y-56083380D01*
X17177666Y-56035761D01*
X17225285Y-55988142D01*
X17272904Y-55892904D01*
X17320523Y-55702428D01*
X17320523Y-55464333D01*
X17272904Y-55273857D01*
X17225285Y-55178619D01*
X17177666Y-55131000D01*
X17082428Y-55083380D01*
X18526857Y-67799142D02*
X18574476Y-67846761D01*
X18717333Y-67894380D01*
X18812571Y-67894380D01*
X18955428Y-67846761D01*
X19050666Y-67751523D01*
X19098285Y-67656285D01*
X19145904Y-67465809D01*
X19145904Y-67322952D01*
X19098285Y-67132476D01*
X19050666Y-67037238D01*
X18955428Y-66942000D01*
X18812571Y-66894380D01*
X18717333Y-66894380D01*
X18574476Y-66942000D01*
X18526857Y-66989619D01*
X17669714Y-67227714D02*
X17669714Y-67894380D01*
X17907809Y-66846761D02*
X18145904Y-67561047D01*
X17526857Y-67561047D01*
X16622095Y-67894380D02*
X17193523Y-67894380D01*
X16907809Y-67894380D02*
X16907809Y-66894380D01*
X17003047Y-67037238D01*
X17098285Y-67132476D01*
X17193523Y-67180095D01*
X18399857Y-79483142D02*
X18447476Y-79530761D01*
X18590333Y-79578380D01*
X18685571Y-79578380D01*
X18828428Y-79530761D01*
X18923666Y-79435523D01*
X18971285Y-79340285D01*
X19018904Y-79149809D01*
X19018904Y-79006952D01*
X18971285Y-78816476D01*
X18923666Y-78721238D01*
X18828428Y-78626000D01*
X18685571Y-78578380D01*
X18590333Y-78578380D01*
X18447476Y-78626000D01*
X18399857Y-78673619D01*
X17542714Y-78911714D02*
X17542714Y-79578380D01*
X17780809Y-78530761D02*
X18018904Y-79245047D01*
X17399857Y-79245047D01*
X17066523Y-78673619D02*
X17018904Y-78626000D01*
X16923666Y-78578380D01*
X16685571Y-78578380D01*
X16590333Y-78626000D01*
X16542714Y-78673619D01*
X16495095Y-78768857D01*
X16495095Y-78864095D01*
X16542714Y-79006952D01*
X17114142Y-79578380D01*
X16495095Y-79578380D01*
X82661857Y-34017142D02*
X82709476Y-34064761D01*
X82852333Y-34112380D01*
X82947571Y-34112380D01*
X83090428Y-34064761D01*
X83185666Y-33969523D01*
X83233285Y-33874285D01*
X83280904Y-33683809D01*
X83280904Y-33540952D01*
X83233285Y-33350476D01*
X83185666Y-33255238D01*
X83090428Y-33160000D01*
X82947571Y-33112380D01*
X82852333Y-33112380D01*
X82709476Y-33160000D01*
X82661857Y-33207619D01*
X81804714Y-33445714D02*
X81804714Y-34112380D01*
X82042809Y-33064761D02*
X82280904Y-33779047D01*
X81661857Y-33779047D01*
X81376142Y-33112380D02*
X80757095Y-33112380D01*
X81090428Y-33493333D01*
X80947571Y-33493333D01*
X80852333Y-33540952D01*
X80804714Y-33588571D01*
X80757095Y-33683809D01*
X80757095Y-33921904D01*
X80804714Y-34017142D01*
X80852333Y-34064761D01*
X80947571Y-34112380D01*
X81233285Y-34112380D01*
X81328523Y-34064761D01*
X81376142Y-34017142D01*
X21126857Y-39634142D02*
X21174476Y-39681761D01*
X21317333Y-39729380D01*
X21412571Y-39729380D01*
X21555428Y-39681761D01*
X21650666Y-39586523D01*
X21698285Y-39491285D01*
X21745904Y-39300809D01*
X21745904Y-39157952D01*
X21698285Y-38967476D01*
X21650666Y-38872238D01*
X21555428Y-38777000D01*
X21412571Y-38729380D01*
X21317333Y-38729380D01*
X21174476Y-38777000D01*
X21126857Y-38824619D01*
X20269714Y-39062714D02*
X20269714Y-39729380D01*
X20507809Y-38681761D02*
X20745904Y-39396047D01*
X20126857Y-39396047D01*
X19317333Y-39062714D02*
X19317333Y-39729380D01*
X19555428Y-38681761D02*
X19793523Y-39396047D01*
X19174476Y-39396047D01*
X82598357Y-46399642D02*
X82645976Y-46447261D01*
X82788833Y-46494880D01*
X82884071Y-46494880D01*
X83026928Y-46447261D01*
X83122166Y-46352023D01*
X83169785Y-46256785D01*
X83217404Y-46066309D01*
X83217404Y-45923452D01*
X83169785Y-45732976D01*
X83122166Y-45637738D01*
X83026928Y-45542500D01*
X82884071Y-45494880D01*
X82788833Y-45494880D01*
X82645976Y-45542500D01*
X82598357Y-45590119D01*
X81741214Y-45828214D02*
X81741214Y-46494880D01*
X81979309Y-45447261D02*
X82217404Y-46161547D01*
X81598357Y-46161547D01*
X80741214Y-45494880D02*
X81217404Y-45494880D01*
X81265023Y-45971071D01*
X81217404Y-45923452D01*
X81122166Y-45875833D01*
X80884071Y-45875833D01*
X80788833Y-45923452D01*
X80741214Y-45971071D01*
X80693595Y-46066309D01*
X80693595Y-46304404D01*
X80741214Y-46399642D01*
X80788833Y-46447261D01*
X80884071Y-46494880D01*
X81122166Y-46494880D01*
X81217404Y-46447261D01*
X81265023Y-46399642D01*
X21026857Y-51280642D02*
X21074476Y-51328261D01*
X21217333Y-51375880D01*
X21312571Y-51375880D01*
X21455428Y-51328261D01*
X21550666Y-51233023D01*
X21598285Y-51137785D01*
X21645904Y-50947309D01*
X21645904Y-50804452D01*
X21598285Y-50613976D01*
X21550666Y-50518738D01*
X21455428Y-50423500D01*
X21312571Y-50375880D01*
X21217333Y-50375880D01*
X21074476Y-50423500D01*
X21026857Y-50471119D01*
X20169714Y-50709214D02*
X20169714Y-51375880D01*
X20407809Y-50328261D02*
X20645904Y-51042547D01*
X20026857Y-51042547D01*
X19217333Y-50375880D02*
X19407809Y-50375880D01*
X19503047Y-50423500D01*
X19550666Y-50471119D01*
X19645904Y-50613976D01*
X19693523Y-50804452D01*
X19693523Y-51185404D01*
X19645904Y-51280642D01*
X19598285Y-51328261D01*
X19503047Y-51375880D01*
X19312571Y-51375880D01*
X19217333Y-51328261D01*
X19169714Y-51280642D01*
X19122095Y-51185404D01*
X19122095Y-50947309D01*
X19169714Y-50852071D01*
X19217333Y-50804452D01*
X19312571Y-50756833D01*
X19503047Y-50756833D01*
X19598285Y-50804452D01*
X19645904Y-50852071D01*
X19693523Y-50947309D01*
X75557142Y-17657142D02*
X75604761Y-17609523D01*
X75652380Y-17466666D01*
X75652380Y-17371428D01*
X75604761Y-17228571D01*
X75509523Y-17133333D01*
X75414285Y-17085714D01*
X75223809Y-17038095D01*
X75080952Y-17038095D01*
X74890476Y-17085714D01*
X74795238Y-17133333D01*
X74700000Y-17228571D01*
X74652380Y-17371428D01*
X74652380Y-17466666D01*
X74700000Y-17609523D01*
X74747619Y-17657142D01*
X74985714Y-18514285D02*
X75652380Y-18514285D01*
X74604761Y-18276190D02*
X75319047Y-18038095D01*
X75319047Y-18657142D01*
X74652380Y-18942857D02*
X74652380Y-19609523D01*
X75652380Y-19180952D01*
X82788857Y-58274142D02*
X82836476Y-58321761D01*
X82979333Y-58369380D01*
X83074571Y-58369380D01*
X83217428Y-58321761D01*
X83312666Y-58226523D01*
X83360285Y-58131285D01*
X83407904Y-57940809D01*
X83407904Y-57797952D01*
X83360285Y-57607476D01*
X83312666Y-57512238D01*
X83217428Y-57417000D01*
X83074571Y-57369380D01*
X82979333Y-57369380D01*
X82836476Y-57417000D01*
X82788857Y-57464619D01*
X81931714Y-57702714D02*
X81931714Y-58369380D01*
X82169809Y-57321761D02*
X82407904Y-58036047D01*
X81788857Y-58036047D01*
X81265047Y-57797952D02*
X81360285Y-57750333D01*
X81407904Y-57702714D01*
X81455523Y-57607476D01*
X81455523Y-57559857D01*
X81407904Y-57464619D01*
X81360285Y-57417000D01*
X81265047Y-57369380D01*
X81074571Y-57369380D01*
X80979333Y-57417000D01*
X80931714Y-57464619D01*
X80884095Y-57559857D01*
X80884095Y-57607476D01*
X80931714Y-57702714D01*
X80979333Y-57750333D01*
X81074571Y-57797952D01*
X81265047Y-57797952D01*
X81360285Y-57845571D01*
X81407904Y-57893190D01*
X81455523Y-57988428D01*
X81455523Y-58178904D01*
X81407904Y-58274142D01*
X81360285Y-58321761D01*
X81265047Y-58369380D01*
X81074571Y-58369380D01*
X80979333Y-58321761D01*
X80931714Y-58274142D01*
X80884095Y-58178904D01*
X80884095Y-57988428D01*
X80931714Y-57893190D01*
X80979333Y-57845571D01*
X81074571Y-57797952D01*
X21280857Y-62867642D02*
X21328476Y-62915261D01*
X21471333Y-62962880D01*
X21566571Y-62962880D01*
X21709428Y-62915261D01*
X21804666Y-62820023D01*
X21852285Y-62724785D01*
X21899904Y-62534309D01*
X21899904Y-62391452D01*
X21852285Y-62200976D01*
X21804666Y-62105738D01*
X21709428Y-62010500D01*
X21566571Y-61962880D01*
X21471333Y-61962880D01*
X21328476Y-62010500D01*
X21280857Y-62058119D01*
X20423714Y-62296214D02*
X20423714Y-62962880D01*
X20661809Y-61915261D02*
X20899904Y-62629547D01*
X20280857Y-62629547D01*
X19852285Y-62962880D02*
X19661809Y-62962880D01*
X19566571Y-62915261D01*
X19518952Y-62867642D01*
X19423714Y-62724785D01*
X19376095Y-62534309D01*
X19376095Y-62153357D01*
X19423714Y-62058119D01*
X19471333Y-62010500D01*
X19566571Y-61962880D01*
X19757047Y-61962880D01*
X19852285Y-62010500D01*
X19899904Y-62058119D01*
X19947523Y-62153357D01*
X19947523Y-62391452D01*
X19899904Y-62486690D01*
X19852285Y-62534309D01*
X19757047Y-62581928D01*
X19566571Y-62581928D01*
X19471333Y-62534309D01*
X19423714Y-62486690D01*
X19376095Y-62391452D01*
X82534857Y-70212142D02*
X82582476Y-70259761D01*
X82725333Y-70307380D01*
X82820571Y-70307380D01*
X82963428Y-70259761D01*
X83058666Y-70164523D01*
X83106285Y-70069285D01*
X83153904Y-69878809D01*
X83153904Y-69735952D01*
X83106285Y-69545476D01*
X83058666Y-69450238D01*
X82963428Y-69355000D01*
X82820571Y-69307380D01*
X82725333Y-69307380D01*
X82582476Y-69355000D01*
X82534857Y-69402619D01*
X81630095Y-69307380D02*
X82106285Y-69307380D01*
X82153904Y-69783571D01*
X82106285Y-69735952D01*
X82011047Y-69688333D01*
X81772952Y-69688333D01*
X81677714Y-69735952D01*
X81630095Y-69783571D01*
X81582476Y-69878809D01*
X81582476Y-70116904D01*
X81630095Y-70212142D01*
X81677714Y-70259761D01*
X81772952Y-70307380D01*
X82011047Y-70307380D01*
X82106285Y-70259761D01*
X82153904Y-70212142D01*
X80963428Y-69307380D02*
X80868190Y-69307380D01*
X80772952Y-69355000D01*
X80725333Y-69402619D01*
X80677714Y-69497857D01*
X80630095Y-69688333D01*
X80630095Y-69926428D01*
X80677714Y-70116904D01*
X80725333Y-70212142D01*
X80772952Y-70259761D01*
X80868190Y-70307380D01*
X80963428Y-70307380D01*
X81058666Y-70259761D01*
X81106285Y-70212142D01*
X81153904Y-70116904D01*
X81201523Y-69926428D01*
X81201523Y-69688333D01*
X81153904Y-69497857D01*
X81106285Y-69402619D01*
X81058666Y-69355000D01*
X80963428Y-69307380D01*
X21380857Y-74843142D02*
X21428476Y-74890761D01*
X21571333Y-74938380D01*
X21666571Y-74938380D01*
X21809428Y-74890761D01*
X21904666Y-74795523D01*
X21952285Y-74700285D01*
X21999904Y-74509809D01*
X21999904Y-74366952D01*
X21952285Y-74176476D01*
X21904666Y-74081238D01*
X21809428Y-73986000D01*
X21666571Y-73938380D01*
X21571333Y-73938380D01*
X21428476Y-73986000D01*
X21380857Y-74033619D01*
X20476095Y-73938380D02*
X20952285Y-73938380D01*
X20999904Y-74414571D01*
X20952285Y-74366952D01*
X20857047Y-74319333D01*
X20618952Y-74319333D01*
X20523714Y-74366952D01*
X20476095Y-74414571D01*
X20428476Y-74509809D01*
X20428476Y-74747904D01*
X20476095Y-74843142D01*
X20523714Y-74890761D01*
X20618952Y-74938380D01*
X20857047Y-74938380D01*
X20952285Y-74890761D01*
X20999904Y-74843142D01*
X19476095Y-74938380D02*
X20047523Y-74938380D01*
X19761809Y-74938380D02*
X19761809Y-73938380D01*
X19857047Y-74081238D01*
X19952285Y-74176476D01*
X20047523Y-74224095D01*
X82471357Y-81070642D02*
X82518976Y-81118261D01*
X82661833Y-81165880D01*
X82757071Y-81165880D01*
X82899928Y-81118261D01*
X82995166Y-81023023D01*
X83042785Y-80927785D01*
X83090404Y-80737309D01*
X83090404Y-80594452D01*
X83042785Y-80403976D01*
X82995166Y-80308738D01*
X82899928Y-80213500D01*
X82757071Y-80165880D01*
X82661833Y-80165880D01*
X82518976Y-80213500D01*
X82471357Y-80261119D01*
X81566595Y-80165880D02*
X82042785Y-80165880D01*
X82090404Y-80642071D01*
X82042785Y-80594452D01*
X81947547Y-80546833D01*
X81709452Y-80546833D01*
X81614214Y-80594452D01*
X81566595Y-80642071D01*
X81518976Y-80737309D01*
X81518976Y-80975404D01*
X81566595Y-81070642D01*
X81614214Y-81118261D01*
X81709452Y-81165880D01*
X81947547Y-81165880D01*
X82042785Y-81118261D01*
X82090404Y-81070642D01*
X81138023Y-80261119D02*
X81090404Y-80213500D01*
X80995166Y-80165880D01*
X80757071Y-80165880D01*
X80661833Y-80213500D01*
X80614214Y-80261119D01*
X80566595Y-80356357D01*
X80566595Y-80451595D01*
X80614214Y-80594452D01*
X81185642Y-81165880D01*
X80566595Y-81165880D01*
X21280857Y-86348642D02*
X21328476Y-86396261D01*
X21471333Y-86443880D01*
X21566571Y-86443880D01*
X21709428Y-86396261D01*
X21804666Y-86301023D01*
X21852285Y-86205785D01*
X21899904Y-86015309D01*
X21899904Y-85872452D01*
X21852285Y-85681976D01*
X21804666Y-85586738D01*
X21709428Y-85491500D01*
X21566571Y-85443880D01*
X21471333Y-85443880D01*
X21328476Y-85491500D01*
X21280857Y-85539119D01*
X20376095Y-85443880D02*
X20852285Y-85443880D01*
X20899904Y-85920071D01*
X20852285Y-85872452D01*
X20757047Y-85824833D01*
X20518952Y-85824833D01*
X20423714Y-85872452D01*
X20376095Y-85920071D01*
X20328476Y-86015309D01*
X20328476Y-86253404D01*
X20376095Y-86348642D01*
X20423714Y-86396261D01*
X20518952Y-86443880D01*
X20757047Y-86443880D01*
X20852285Y-86396261D01*
X20899904Y-86348642D01*
X19995142Y-85443880D02*
X19376095Y-85443880D01*
X19709428Y-85824833D01*
X19566571Y-85824833D01*
X19471333Y-85872452D01*
X19423714Y-85920071D01*
X19376095Y-86015309D01*
X19376095Y-86253404D01*
X19423714Y-86348642D01*
X19471333Y-86396261D01*
X19566571Y-86443880D01*
X19852285Y-86443880D01*
X19947523Y-86396261D01*
X19995142Y-86348642D01*
X96903142Y-71857142D02*
X96950761Y-71809523D01*
X96998380Y-71666666D01*
X96998380Y-71571428D01*
X96950761Y-71428571D01*
X96855523Y-71333333D01*
X96760285Y-71285714D01*
X96569809Y-71238095D01*
X96426952Y-71238095D01*
X96236476Y-71285714D01*
X96141238Y-71333333D01*
X96046000Y-71428571D01*
X95998380Y-71571428D01*
X95998380Y-71666666D01*
X96046000Y-71809523D01*
X96093619Y-71857142D01*
X95998380Y-72761904D02*
X95998380Y-72285714D01*
X96474571Y-72238095D01*
X96426952Y-72285714D01*
X96379333Y-72380952D01*
X96379333Y-72619047D01*
X96426952Y-72714285D01*
X96474571Y-72761904D01*
X96569809Y-72809523D01*
X96807904Y-72809523D01*
X96903142Y-72761904D01*
X96950761Y-72714285D01*
X96998380Y-72619047D01*
X96998380Y-72380952D01*
X96950761Y-72285714D01*
X96903142Y-72238095D01*
X96331714Y-73666666D02*
X96998380Y-73666666D01*
X95950761Y-73428571D02*
X96665047Y-73190476D01*
X96665047Y-73809523D01*
X115300857Y-56877142D02*
X115348476Y-56924761D01*
X115491333Y-56972380D01*
X115586571Y-56972380D01*
X115729428Y-56924761D01*
X115824666Y-56829523D01*
X115872285Y-56734285D01*
X115919904Y-56543809D01*
X115919904Y-56400952D01*
X115872285Y-56210476D01*
X115824666Y-56115238D01*
X115729428Y-56020000D01*
X115586571Y-55972380D01*
X115491333Y-55972380D01*
X115348476Y-56020000D01*
X115300857Y-56067619D01*
X114396095Y-55972380D02*
X114872285Y-55972380D01*
X114919904Y-56448571D01*
X114872285Y-56400952D01*
X114777047Y-56353333D01*
X114538952Y-56353333D01*
X114443714Y-56400952D01*
X114396095Y-56448571D01*
X114348476Y-56543809D01*
X114348476Y-56781904D01*
X114396095Y-56877142D01*
X114443714Y-56924761D01*
X114538952Y-56972380D01*
X114777047Y-56972380D01*
X114872285Y-56924761D01*
X114919904Y-56877142D01*
X113777047Y-56400952D02*
X113872285Y-56353333D01*
X113919904Y-56305714D01*
X113967523Y-56210476D01*
X113967523Y-56162857D01*
X113919904Y-56067619D01*
X113872285Y-56020000D01*
X113777047Y-55972380D01*
X113586571Y-55972380D01*
X113491333Y-56020000D01*
X113443714Y-56067619D01*
X113396095Y-56162857D01*
X113396095Y-56210476D01*
X113443714Y-56305714D01*
X113491333Y-56353333D01*
X113586571Y-56400952D01*
X113777047Y-56400952D01*
X113872285Y-56448571D01*
X113919904Y-56496190D01*
X113967523Y-56591428D01*
X113967523Y-56781904D01*
X113919904Y-56877142D01*
X113872285Y-56924761D01*
X113777047Y-56972380D01*
X113586571Y-56972380D01*
X113491333Y-56924761D01*
X113443714Y-56877142D01*
X113396095Y-56781904D01*
X113396095Y-56591428D01*
X113443714Y-56496190D01*
X113491333Y-56448571D01*
X113586571Y-56400952D01*
X141757142Y-53357142D02*
X141804761Y-53309523D01*
X141852380Y-53166666D01*
X141852380Y-53071428D01*
X141804761Y-52928571D01*
X141709523Y-52833333D01*
X141614285Y-52785714D01*
X141423809Y-52738095D01*
X141280952Y-52738095D01*
X141090476Y-52785714D01*
X140995238Y-52833333D01*
X140900000Y-52928571D01*
X140852380Y-53071428D01*
X140852380Y-53166666D01*
X140900000Y-53309523D01*
X140947619Y-53357142D01*
X140852380Y-54214285D02*
X140852380Y-54023809D01*
X140900000Y-53928571D01*
X140947619Y-53880952D01*
X141090476Y-53785714D01*
X141280952Y-53738095D01*
X141661904Y-53738095D01*
X141757142Y-53785714D01*
X141804761Y-53833333D01*
X141852380Y-53928571D01*
X141852380Y-54119047D01*
X141804761Y-54214285D01*
X141757142Y-54261904D01*
X141661904Y-54309523D01*
X141423809Y-54309523D01*
X141328571Y-54261904D01*
X141280952Y-54214285D01*
X141233333Y-54119047D01*
X141233333Y-53928571D01*
X141280952Y-53833333D01*
X141328571Y-53785714D01*
X141423809Y-53738095D01*
X140852380Y-54642857D02*
X140852380Y-55261904D01*
X141233333Y-54928571D01*
X141233333Y-55071428D01*
X141280952Y-55166666D01*
X141328571Y-55214285D01*
X141423809Y-55261904D01*
X141661904Y-55261904D01*
X141757142Y-55214285D01*
X141804761Y-55166666D01*
X141852380Y-55071428D01*
X141852380Y-54785714D01*
X141804761Y-54690476D01*
X141757142Y-54642857D01*
X107426857Y-73895142D02*
X107474476Y-73942761D01*
X107617333Y-73990380D01*
X107712571Y-73990380D01*
X107855428Y-73942761D01*
X107950666Y-73847523D01*
X107998285Y-73752285D01*
X108045904Y-73561809D01*
X108045904Y-73418952D01*
X107998285Y-73228476D01*
X107950666Y-73133238D01*
X107855428Y-73038000D01*
X107712571Y-72990380D01*
X107617333Y-72990380D01*
X107474476Y-73038000D01*
X107426857Y-73085619D01*
X106569714Y-72990380D02*
X106760190Y-72990380D01*
X106855428Y-73038000D01*
X106903047Y-73085619D01*
X106998285Y-73228476D01*
X107045904Y-73418952D01*
X107045904Y-73799904D01*
X106998285Y-73895142D01*
X106950666Y-73942761D01*
X106855428Y-73990380D01*
X106664952Y-73990380D01*
X106569714Y-73942761D01*
X106522095Y-73895142D01*
X106474476Y-73799904D01*
X106474476Y-73561809D01*
X106522095Y-73466571D01*
X106569714Y-73418952D01*
X106664952Y-73371333D01*
X106855428Y-73371333D01*
X106950666Y-73418952D01*
X106998285Y-73466571D01*
X107045904Y-73561809D01*
X105617333Y-73323714D02*
X105617333Y-73990380D01*
X105855428Y-72942761D02*
X106093523Y-73657047D01*
X105474476Y-73657047D01*
X105902857Y-78721142D02*
X105950476Y-78768761D01*
X106093333Y-78816380D01*
X106188571Y-78816380D01*
X106331428Y-78768761D01*
X106426666Y-78673523D01*
X106474285Y-78578285D01*
X106521904Y-78387809D01*
X106521904Y-78244952D01*
X106474285Y-78054476D01*
X106426666Y-77959238D01*
X106331428Y-77864000D01*
X106188571Y-77816380D01*
X106093333Y-77816380D01*
X105950476Y-77864000D01*
X105902857Y-77911619D01*
X105045714Y-77816380D02*
X105236190Y-77816380D01*
X105331428Y-77864000D01*
X105379047Y-77911619D01*
X105474285Y-78054476D01*
X105521904Y-78244952D01*
X105521904Y-78625904D01*
X105474285Y-78721142D01*
X105426666Y-78768761D01*
X105331428Y-78816380D01*
X105140952Y-78816380D01*
X105045714Y-78768761D01*
X104998095Y-78721142D01*
X104950476Y-78625904D01*
X104950476Y-78387809D01*
X104998095Y-78292571D01*
X105045714Y-78244952D01*
X105140952Y-78197333D01*
X105331428Y-78197333D01*
X105426666Y-78244952D01*
X105474285Y-78292571D01*
X105521904Y-78387809D01*
X104045714Y-77816380D02*
X104521904Y-77816380D01*
X104569523Y-78292571D01*
X104521904Y-78244952D01*
X104426666Y-78197333D01*
X104188571Y-78197333D01*
X104093333Y-78244952D01*
X104045714Y-78292571D01*
X103998095Y-78387809D01*
X103998095Y-78625904D01*
X104045714Y-78721142D01*
X104093333Y-78768761D01*
X104188571Y-78816380D01*
X104426666Y-78816380D01*
X104521904Y-78768761D01*
X104569523Y-78721142D01*
X145507142Y-41294642D02*
X145554761Y-41247023D01*
X145602380Y-41104166D01*
X145602380Y-41008928D01*
X145554761Y-40866071D01*
X145459523Y-40770833D01*
X145364285Y-40723214D01*
X145173809Y-40675595D01*
X145030952Y-40675595D01*
X144840476Y-40723214D01*
X144745238Y-40770833D01*
X144650000Y-40866071D01*
X144602380Y-41008928D01*
X144602380Y-41104166D01*
X144650000Y-41247023D01*
X144697619Y-41294642D01*
X144602380Y-42151785D02*
X144602380Y-41961309D01*
X144650000Y-41866071D01*
X144697619Y-41818452D01*
X144840476Y-41723214D01*
X145030952Y-41675595D01*
X145411904Y-41675595D01*
X145507142Y-41723214D01*
X145554761Y-41770833D01*
X145602380Y-41866071D01*
X145602380Y-42056547D01*
X145554761Y-42151785D01*
X145507142Y-42199404D01*
X145411904Y-42247023D01*
X145173809Y-42247023D01*
X145078571Y-42199404D01*
X145030952Y-42151785D01*
X144983333Y-42056547D01*
X144983333Y-41866071D01*
X145030952Y-41770833D01*
X145078571Y-41723214D01*
X145173809Y-41675595D01*
X144602380Y-43104166D02*
X144602380Y-42913690D01*
X144650000Y-42818452D01*
X144697619Y-42770833D01*
X144840476Y-42675595D01*
X145030952Y-42627976D01*
X145411904Y-42627976D01*
X145507142Y-42675595D01*
X145554761Y-42723214D01*
X145602380Y-42818452D01*
X145602380Y-43008928D01*
X145554761Y-43104166D01*
X145507142Y-43151785D01*
X145411904Y-43199404D01*
X145173809Y-43199404D01*
X145078571Y-43151785D01*
X145030952Y-43104166D01*
X144983333Y-43008928D01*
X144983333Y-42818452D01*
X145030952Y-42723214D01*
X145078571Y-42675595D01*
X145173809Y-42627976D01*
X126996257Y-86109142D02*
X127043876Y-86156761D01*
X127186733Y-86204380D01*
X127281971Y-86204380D01*
X127424828Y-86156761D01*
X127520066Y-86061523D01*
X127567685Y-85966285D01*
X127615304Y-85775809D01*
X127615304Y-85632952D01*
X127567685Y-85442476D01*
X127520066Y-85347238D01*
X127424828Y-85252000D01*
X127281971Y-85204380D01*
X127186733Y-85204380D01*
X127043876Y-85252000D01*
X126996257Y-85299619D01*
X126139114Y-85204380D02*
X126329590Y-85204380D01*
X126424828Y-85252000D01*
X126472447Y-85299619D01*
X126567685Y-85442476D01*
X126615304Y-85632952D01*
X126615304Y-86013904D01*
X126567685Y-86109142D01*
X126520066Y-86156761D01*
X126424828Y-86204380D01*
X126234352Y-86204380D01*
X126139114Y-86156761D01*
X126091495Y-86109142D01*
X126043876Y-86013904D01*
X126043876Y-85775809D01*
X126091495Y-85680571D01*
X126139114Y-85632952D01*
X126234352Y-85585333D01*
X126424828Y-85585333D01*
X126520066Y-85632952D01*
X126567685Y-85680571D01*
X126615304Y-85775809D01*
X125567685Y-86204380D02*
X125377209Y-86204380D01*
X125281971Y-86156761D01*
X125234352Y-86109142D01*
X125139114Y-85966285D01*
X125091495Y-85775809D01*
X125091495Y-85394857D01*
X125139114Y-85299619D01*
X125186733Y-85252000D01*
X125281971Y-85204380D01*
X125472447Y-85204380D01*
X125567685Y-85252000D01*
X125615304Y-85299619D01*
X125662923Y-85394857D01*
X125662923Y-85632952D01*
X125615304Y-85728190D01*
X125567685Y-85775809D01*
X125472447Y-85823428D01*
X125281971Y-85823428D01*
X125186733Y-85775809D01*
X125139114Y-85728190D01*
X125091495Y-85632952D01*
X135157142Y-21157142D02*
X135204761Y-21109523D01*
X135252380Y-20966666D01*
X135252380Y-20871428D01*
X135204761Y-20728571D01*
X135109523Y-20633333D01*
X135014285Y-20585714D01*
X134823809Y-20538095D01*
X134680952Y-20538095D01*
X134490476Y-20585714D01*
X134395238Y-20633333D01*
X134300000Y-20728571D01*
X134252380Y-20871428D01*
X134252380Y-20966666D01*
X134300000Y-21109523D01*
X134347619Y-21157142D01*
X134252380Y-21490476D02*
X134252380Y-22157142D01*
X135252380Y-21728571D01*
X134252380Y-22728571D02*
X134252380Y-22823809D01*
X134300000Y-22919047D01*
X134347619Y-22966666D01*
X134442857Y-23014285D01*
X134633333Y-23061904D01*
X134871428Y-23061904D01*
X135061904Y-23014285D01*
X135157142Y-22966666D01*
X135204761Y-22919047D01*
X135252380Y-22823809D01*
X135252380Y-22728571D01*
X135204761Y-22633333D01*
X135157142Y-22585714D01*
X135061904Y-22538095D01*
X134871428Y-22490476D01*
X134633333Y-22490476D01*
X134442857Y-22538095D01*
X134347619Y-22585714D01*
X134300000Y-22633333D01*
X134252380Y-22728571D01*
X137357142Y-21157142D02*
X137404761Y-21109523D01*
X137452380Y-20966666D01*
X137452380Y-20871428D01*
X137404761Y-20728571D01*
X137309523Y-20633333D01*
X137214285Y-20585714D01*
X137023809Y-20538095D01*
X136880952Y-20538095D01*
X136690476Y-20585714D01*
X136595238Y-20633333D01*
X136500000Y-20728571D01*
X136452380Y-20871428D01*
X136452380Y-20966666D01*
X136500000Y-21109523D01*
X136547619Y-21157142D01*
X136452380Y-21490476D02*
X136452380Y-22157142D01*
X137452380Y-21728571D01*
X137452380Y-23061904D02*
X137452380Y-22490476D01*
X137452380Y-22776190D02*
X136452380Y-22776190D01*
X136595238Y-22680952D01*
X136690476Y-22585714D01*
X136738095Y-22490476D01*
X139557142Y-21157142D02*
X139604761Y-21109523D01*
X139652380Y-20966666D01*
X139652380Y-20871428D01*
X139604761Y-20728571D01*
X139509523Y-20633333D01*
X139414285Y-20585714D01*
X139223809Y-20538095D01*
X139080952Y-20538095D01*
X138890476Y-20585714D01*
X138795238Y-20633333D01*
X138700000Y-20728571D01*
X138652380Y-20871428D01*
X138652380Y-20966666D01*
X138700000Y-21109523D01*
X138747619Y-21157142D01*
X138652380Y-21490476D02*
X138652380Y-22157142D01*
X139652380Y-21728571D01*
X138747619Y-22490476D02*
X138700000Y-22538095D01*
X138652380Y-22633333D01*
X138652380Y-22871428D01*
X138700000Y-22966666D01*
X138747619Y-23014285D01*
X138842857Y-23061904D01*
X138938095Y-23061904D01*
X139080952Y-23014285D01*
X139652380Y-22442857D01*
X139652380Y-23061904D01*
X122920857Y-86083742D02*
X122968476Y-86131361D01*
X123111333Y-86178980D01*
X123206571Y-86178980D01*
X123349428Y-86131361D01*
X123444666Y-86036123D01*
X123492285Y-85940885D01*
X123539904Y-85750409D01*
X123539904Y-85607552D01*
X123492285Y-85417076D01*
X123444666Y-85321838D01*
X123349428Y-85226600D01*
X123206571Y-85178980D01*
X123111333Y-85178980D01*
X122968476Y-85226600D01*
X122920857Y-85274219D01*
X122587523Y-85178980D02*
X121920857Y-85178980D01*
X122349428Y-86178980D01*
X121111333Y-85512314D02*
X121111333Y-86178980D01*
X121349428Y-85131361D02*
X121587523Y-85845647D01*
X120968476Y-85845647D01*
X118981557Y-86109142D02*
X119029176Y-86156761D01*
X119172033Y-86204380D01*
X119267271Y-86204380D01*
X119410128Y-86156761D01*
X119505366Y-86061523D01*
X119552985Y-85966285D01*
X119600604Y-85775809D01*
X119600604Y-85632952D01*
X119552985Y-85442476D01*
X119505366Y-85347238D01*
X119410128Y-85252000D01*
X119267271Y-85204380D01*
X119172033Y-85204380D01*
X119029176Y-85252000D01*
X118981557Y-85299619D01*
X118648223Y-85204380D02*
X117981557Y-85204380D01*
X118410128Y-86204380D01*
X117695842Y-85204380D02*
X117029176Y-85204380D01*
X117457747Y-86204380D01*
X63238095Y-20052380D02*
X63238095Y-19052380D01*
X63000000Y-19052380D01*
X62857142Y-19100000D01*
X62761904Y-19195238D01*
X62714285Y-19290476D01*
X62666666Y-19480952D01*
X62666666Y-19623809D01*
X62714285Y-19814285D01*
X62761904Y-19909523D01*
X62857142Y-20004761D01*
X63000000Y-20052380D01*
X63238095Y-20052380D01*
X61714285Y-20052380D02*
X62285714Y-20052380D01*
X62000000Y-20052380D02*
X62000000Y-19052380D01*
X62095238Y-19195238D01*
X62190476Y-19290476D01*
X62285714Y-19338095D01*
X63238095Y-16552380D02*
X63238095Y-15552380D01*
X63000000Y-15552380D01*
X62857142Y-15600000D01*
X62761904Y-15695238D01*
X62714285Y-15790476D01*
X62666666Y-15980952D01*
X62666666Y-16123809D01*
X62714285Y-16314285D01*
X62761904Y-16409523D01*
X62857142Y-16504761D01*
X63000000Y-16552380D01*
X63238095Y-16552380D01*
X62285714Y-15647619D02*
X62238095Y-15600000D01*
X62142857Y-15552380D01*
X61904761Y-15552380D01*
X61809523Y-15600000D01*
X61761904Y-15647619D01*
X61714285Y-15742857D01*
X61714285Y-15838095D01*
X61761904Y-15980952D01*
X62333333Y-16552380D01*
X61714285Y-16552380D01*
X144352380Y-57261904D02*
X143352380Y-57261904D01*
X143352380Y-57500000D01*
X143400000Y-57642857D01*
X143495238Y-57738095D01*
X143590476Y-57785714D01*
X143780952Y-57833333D01*
X143923809Y-57833333D01*
X144114285Y-57785714D01*
X144209523Y-57738095D01*
X144304761Y-57642857D01*
X144352380Y-57500000D01*
X144352380Y-57261904D01*
X143685714Y-58690476D02*
X144352380Y-58690476D01*
X143304761Y-58452380D02*
X144019047Y-58214285D01*
X144019047Y-58833333D01*
X92298071Y-46796666D02*
X92298071Y-46463333D01*
X92821880Y-46463333D02*
X91821880Y-46463333D01*
X91821880Y-46939523D01*
X92298071Y-47653809D02*
X92345690Y-47796666D01*
X92393309Y-47844285D01*
X92488547Y-47891904D01*
X92631404Y-47891904D01*
X92726642Y-47844285D01*
X92774261Y-47796666D01*
X92821880Y-47701428D01*
X92821880Y-47320476D01*
X91821880Y-47320476D01*
X91821880Y-47653809D01*
X91869500Y-47749047D01*
X91917119Y-47796666D01*
X92012357Y-47844285D01*
X92107595Y-47844285D01*
X92202833Y-47796666D01*
X92250452Y-47749047D01*
X92298071Y-47653809D01*
X92298071Y-47320476D01*
X92821880Y-48844285D02*
X92821880Y-48272857D01*
X92821880Y-48558571D02*
X91821880Y-48558571D01*
X91964738Y-48463333D01*
X92059976Y-48368095D01*
X92107595Y-48272857D01*
X109270233Y-61199171D02*
X109603566Y-61199171D01*
X109603566Y-61722980D02*
X109603566Y-60722980D01*
X109127376Y-60722980D01*
X108413090Y-61199171D02*
X108270233Y-61246790D01*
X108222614Y-61294409D01*
X108174995Y-61389647D01*
X108174995Y-61532504D01*
X108222614Y-61627742D01*
X108270233Y-61675361D01*
X108365471Y-61722980D01*
X108746423Y-61722980D01*
X108746423Y-60722980D01*
X108413090Y-60722980D01*
X108317852Y-60770600D01*
X108270233Y-60818219D01*
X108222614Y-60913457D01*
X108222614Y-61008695D01*
X108270233Y-61103933D01*
X108317852Y-61151552D01*
X108413090Y-61199171D01*
X108746423Y-61199171D01*
X107794042Y-60818219D02*
X107746423Y-60770600D01*
X107651185Y-60722980D01*
X107413090Y-60722980D01*
X107317852Y-60770600D01*
X107270233Y-60818219D01*
X107222614Y-60913457D01*
X107222614Y-61008695D01*
X107270233Y-61151552D01*
X107841661Y-61722980D01*
X107222614Y-61722980D01*
X127746857Y-82118380D02*
X128223047Y-82118380D01*
X128223047Y-81118380D01*
X126889714Y-82118380D02*
X127461142Y-82118380D01*
X127175428Y-82118380D02*
X127175428Y-81118380D01*
X127270666Y-81261238D01*
X127365904Y-81356476D01*
X127461142Y-81404095D01*
X125984952Y-81118380D02*
X126461142Y-81118380D01*
X126508761Y-81594571D01*
X126461142Y-81546952D01*
X126365904Y-81499333D01*
X126127809Y-81499333D01*
X126032571Y-81546952D01*
X125984952Y-81594571D01*
X125937333Y-81689809D01*
X125937333Y-81927904D01*
X125984952Y-82023142D01*
X126032571Y-82070761D01*
X126127809Y-82118380D01*
X126365904Y-82118380D01*
X126461142Y-82070761D01*
X126508761Y-82023142D01*
X121650857Y-82118380D02*
X122127047Y-82118380D01*
X122127047Y-81118380D01*
X120793714Y-82118380D02*
X121365142Y-82118380D01*
X121079428Y-82118380D02*
X121079428Y-81118380D01*
X121174666Y-81261238D01*
X121269904Y-81356476D01*
X121365142Y-81404095D01*
X119936571Y-81118380D02*
X120127047Y-81118380D01*
X120222285Y-81166000D01*
X120269904Y-81213619D01*
X120365142Y-81356476D01*
X120412761Y-81546952D01*
X120412761Y-81927904D01*
X120365142Y-82023142D01*
X120317523Y-82070761D01*
X120222285Y-82118380D01*
X120031809Y-82118380D01*
X119936571Y-82070761D01*
X119888952Y-82023142D01*
X119841333Y-81927904D01*
X119841333Y-81689809D01*
X119888952Y-81594571D01*
X119936571Y-81546952D01*
X120031809Y-81499333D01*
X120222285Y-81499333D01*
X120317523Y-81546952D01*
X120365142Y-81594571D01*
X120412761Y-81689809D01*
X143895238Y-55847619D02*
X143990476Y-55800000D01*
X144085714Y-55704761D01*
X144228571Y-55561904D01*
X144323809Y-55514285D01*
X144419047Y-55514285D01*
X144371428Y-55752380D02*
X144466666Y-55704761D01*
X144561904Y-55609523D01*
X144609523Y-55419047D01*
X144609523Y-55085714D01*
X144561904Y-54895238D01*
X144466666Y-54800000D01*
X144371428Y-54752380D01*
X144180952Y-54752380D01*
X144085714Y-54800000D01*
X143990476Y-54895238D01*
X143942857Y-55085714D01*
X143942857Y-55419047D01*
X143990476Y-55609523D01*
X144085714Y-55704761D01*
X144180952Y-55752380D01*
X144371428Y-55752380D01*
X142990476Y-55752380D02*
X143561904Y-55752380D01*
X143276190Y-55752380D02*
X143276190Y-54752380D01*
X143371428Y-54895238D01*
X143466666Y-54990476D01*
X143561904Y-55038095D01*
X86166666Y-20152380D02*
X86500000Y-19676190D01*
X86738095Y-20152380D02*
X86738095Y-19152380D01*
X86357142Y-19152380D01*
X86261904Y-19200000D01*
X86214285Y-19247619D01*
X86166666Y-19342857D01*
X86166666Y-19485714D01*
X86214285Y-19580952D01*
X86261904Y-19628571D01*
X86357142Y-19676190D01*
X86738095Y-19676190D01*
X85214285Y-20152380D02*
X85785714Y-20152380D01*
X85500000Y-20152380D02*
X85500000Y-19152380D01*
X85595238Y-19295238D01*
X85690476Y-19390476D01*
X85785714Y-19438095D01*
X81266666Y-23402380D02*
X81600000Y-22926190D01*
X81838095Y-23402380D02*
X81838095Y-22402380D01*
X81457142Y-22402380D01*
X81361904Y-22450000D01*
X81314285Y-22497619D01*
X81266666Y-22592857D01*
X81266666Y-22735714D01*
X81314285Y-22830952D01*
X81361904Y-22878571D01*
X81457142Y-22926190D01*
X81838095Y-22926190D01*
X80885714Y-22497619D02*
X80838095Y-22450000D01*
X80742857Y-22402380D01*
X80504761Y-22402380D01*
X80409523Y-22450000D01*
X80361904Y-22497619D01*
X80314285Y-22592857D01*
X80314285Y-22688095D01*
X80361904Y-22830952D01*
X80933333Y-23402380D01*
X80314285Y-23402380D01*
X81166666Y-25902380D02*
X81500000Y-25426190D01*
X81738095Y-25902380D02*
X81738095Y-24902380D01*
X81357142Y-24902380D01*
X81261904Y-24950000D01*
X81214285Y-24997619D01*
X81166666Y-25092857D01*
X81166666Y-25235714D01*
X81214285Y-25330952D01*
X81261904Y-25378571D01*
X81357142Y-25426190D01*
X81738095Y-25426190D01*
X80833333Y-24902380D02*
X80214285Y-24902380D01*
X80547619Y-25283333D01*
X80404761Y-25283333D01*
X80309523Y-25330952D01*
X80261904Y-25378571D01*
X80214285Y-25473809D01*
X80214285Y-25711904D01*
X80261904Y-25807142D01*
X80309523Y-25854761D01*
X80404761Y-25902380D01*
X80690476Y-25902380D01*
X80785714Y-25854761D01*
X80833333Y-25807142D01*
X73666666Y-20052380D02*
X74000000Y-19576190D01*
X74238095Y-20052380D02*
X74238095Y-19052380D01*
X73857142Y-19052380D01*
X73761904Y-19100000D01*
X73714285Y-19147619D01*
X73666666Y-19242857D01*
X73666666Y-19385714D01*
X73714285Y-19480952D01*
X73761904Y-19528571D01*
X73857142Y-19576190D01*
X74238095Y-19576190D01*
X72761904Y-19052380D02*
X73238095Y-19052380D01*
X73285714Y-19528571D01*
X73238095Y-19480952D01*
X73142857Y-19433333D01*
X72904761Y-19433333D01*
X72809523Y-19480952D01*
X72761904Y-19528571D01*
X72714285Y-19623809D01*
X72714285Y-19861904D01*
X72761904Y-19957142D01*
X72809523Y-20004761D01*
X72904761Y-20052380D01*
X73142857Y-20052380D01*
X73238095Y-20004761D01*
X73285714Y-19957142D01*
X74542857Y-16552380D02*
X74876190Y-16076190D01*
X75114285Y-16552380D02*
X75114285Y-15552380D01*
X74733333Y-15552380D01*
X74638095Y-15600000D01*
X74590476Y-15647619D01*
X74542857Y-15742857D01*
X74542857Y-15885714D01*
X74590476Y-15980952D01*
X74638095Y-16028571D01*
X74733333Y-16076190D01*
X75114285Y-16076190D01*
X73590476Y-16552380D02*
X74161904Y-16552380D01*
X73876190Y-16552380D02*
X73876190Y-15552380D01*
X73971428Y-15695238D01*
X74066666Y-15790476D01*
X74161904Y-15838095D01*
X72971428Y-15552380D02*
X72876190Y-15552380D01*
X72780952Y-15600000D01*
X72733333Y-15647619D01*
X72685714Y-15742857D01*
X72638095Y-15933333D01*
X72638095Y-16171428D01*
X72685714Y-16361904D01*
X72733333Y-16457142D01*
X72780952Y-16504761D01*
X72876190Y-16552380D01*
X72971428Y-16552380D01*
X73066666Y-16504761D01*
X73114285Y-16457142D01*
X73161904Y-16361904D01*
X73209523Y-16171428D01*
X73209523Y-15933333D01*
X73161904Y-15742857D01*
X73114285Y-15647619D01*
X73066666Y-15600000D01*
X72971428Y-15552380D01*
X72952380Y-8594642D02*
X72476190Y-8261309D01*
X72952380Y-8023214D02*
X71952380Y-8023214D01*
X71952380Y-8404166D01*
X72000000Y-8499404D01*
X72047619Y-8547023D01*
X72142857Y-8594642D01*
X72285714Y-8594642D01*
X72380952Y-8547023D01*
X72428571Y-8499404D01*
X72476190Y-8404166D01*
X72476190Y-8023214D01*
X72952380Y-9547023D02*
X72952380Y-8975595D01*
X72952380Y-9261309D02*
X71952380Y-9261309D01*
X72095238Y-9166071D01*
X72190476Y-9070833D01*
X72238095Y-8975595D01*
X72952380Y-10499404D02*
X72952380Y-9927976D01*
X72952380Y-10213690D02*
X71952380Y-10213690D01*
X72095238Y-10118452D01*
X72190476Y-10023214D01*
X72238095Y-9927976D01*
X81642857Y-11202380D02*
X81976190Y-10726190D01*
X82214285Y-11202380D02*
X82214285Y-10202380D01*
X81833333Y-10202380D01*
X81738095Y-10250000D01*
X81690476Y-10297619D01*
X81642857Y-10392857D01*
X81642857Y-10535714D01*
X81690476Y-10630952D01*
X81738095Y-10678571D01*
X81833333Y-10726190D01*
X82214285Y-10726190D01*
X80690476Y-11202380D02*
X81261904Y-11202380D01*
X80976190Y-11202380D02*
X80976190Y-10202380D01*
X81071428Y-10345238D01*
X81166666Y-10440476D01*
X81261904Y-10488095D01*
X80309523Y-10297619D02*
X80261904Y-10250000D01*
X80166666Y-10202380D01*
X79928571Y-10202380D01*
X79833333Y-10250000D01*
X79785714Y-10297619D01*
X79738095Y-10392857D01*
X79738095Y-10488095D01*
X79785714Y-10630952D01*
X80357142Y-11202380D01*
X79738095Y-11202380D01*
X81592857Y-13552380D02*
X81926190Y-13076190D01*
X82164285Y-13552380D02*
X82164285Y-12552380D01*
X81783333Y-12552380D01*
X81688095Y-12600000D01*
X81640476Y-12647619D01*
X81592857Y-12742857D01*
X81592857Y-12885714D01*
X81640476Y-12980952D01*
X81688095Y-13028571D01*
X81783333Y-13076190D01*
X82164285Y-13076190D01*
X80640476Y-13552380D02*
X81211904Y-13552380D01*
X80926190Y-13552380D02*
X80926190Y-12552380D01*
X81021428Y-12695238D01*
X81116666Y-12790476D01*
X81211904Y-12838095D01*
X80307142Y-12552380D02*
X79688095Y-12552380D01*
X80021428Y-12933333D01*
X79878571Y-12933333D01*
X79783333Y-12980952D01*
X79735714Y-13028571D01*
X79688095Y-13123809D01*
X79688095Y-13361904D01*
X79735714Y-13457142D01*
X79783333Y-13504761D01*
X79878571Y-13552380D01*
X80164285Y-13552380D01*
X80259523Y-13504761D01*
X80307142Y-13457142D01*
X87042857Y-16552380D02*
X87376190Y-16076190D01*
X87614285Y-16552380D02*
X87614285Y-15552380D01*
X87233333Y-15552380D01*
X87138095Y-15600000D01*
X87090476Y-15647619D01*
X87042857Y-15742857D01*
X87042857Y-15885714D01*
X87090476Y-15980952D01*
X87138095Y-16028571D01*
X87233333Y-16076190D01*
X87614285Y-16076190D01*
X86090476Y-16552380D02*
X86661904Y-16552380D01*
X86376190Y-16552380D02*
X86376190Y-15552380D01*
X86471428Y-15695238D01*
X86566666Y-15790476D01*
X86661904Y-15838095D01*
X85185714Y-15552380D02*
X85661904Y-15552380D01*
X85709523Y-16028571D01*
X85661904Y-15980952D01*
X85566666Y-15933333D01*
X85328571Y-15933333D01*
X85233333Y-15980952D01*
X85185714Y-16028571D01*
X85138095Y-16123809D01*
X85138095Y-16361904D01*
X85185714Y-16457142D01*
X85233333Y-16504761D01*
X85328571Y-16552380D01*
X85566666Y-16552380D01*
X85661904Y-16504761D01*
X85709523Y-16457142D01*
X133252380Y-31357142D02*
X132776190Y-31023809D01*
X133252380Y-30785714D02*
X132252380Y-30785714D01*
X132252380Y-31166666D01*
X132300000Y-31261904D01*
X132347619Y-31309523D01*
X132442857Y-31357142D01*
X132585714Y-31357142D01*
X132680952Y-31309523D01*
X132728571Y-31261904D01*
X132776190Y-31166666D01*
X132776190Y-30785714D01*
X132252380Y-31690476D02*
X132252380Y-32309523D01*
X132633333Y-31976190D01*
X132633333Y-32119047D01*
X132680952Y-32214285D01*
X132728571Y-32261904D01*
X132823809Y-32309523D01*
X133061904Y-32309523D01*
X133157142Y-32261904D01*
X133204761Y-32214285D01*
X133252380Y-32119047D01*
X133252380Y-31833333D01*
X133204761Y-31738095D01*
X133157142Y-31690476D01*
X132347619Y-32690476D02*
X132300000Y-32738095D01*
X132252380Y-32833333D01*
X132252380Y-33071428D01*
X132300000Y-33166666D01*
X132347619Y-33214285D01*
X132442857Y-33261904D01*
X132538095Y-33261904D01*
X132680952Y-33214285D01*
X133252380Y-32642857D01*
X133252380Y-33261904D01*
X93026904Y-88992380D02*
X92455476Y-88992380D01*
X92741190Y-89992380D02*
X92741190Y-88992380D01*
X92122142Y-89992380D02*
X92122142Y-88992380D01*
X91741190Y-88992380D01*
X91645952Y-89040000D01*
X91598333Y-89087619D01*
X91550714Y-89182857D01*
X91550714Y-89325714D01*
X91598333Y-89420952D01*
X91645952Y-89468571D01*
X91741190Y-89516190D01*
X92122142Y-89516190D01*
X90645952Y-88992380D02*
X91122142Y-88992380D01*
X91169761Y-89468571D01*
X91122142Y-89420952D01*
X91026904Y-89373333D01*
X90788809Y-89373333D01*
X90693571Y-89420952D01*
X90645952Y-89468571D01*
X90598333Y-89563809D01*
X90598333Y-89801904D01*
X90645952Y-89897142D01*
X90693571Y-89944761D01*
X90788809Y-89992380D01*
X91026904Y-89992380D01*
X91122142Y-89944761D01*
X91169761Y-89897142D01*
X80052380Y-18738095D02*
X80861904Y-18738095D01*
X80957142Y-18785714D01*
X81004761Y-18833333D01*
X81052380Y-18928571D01*
X81052380Y-19119047D01*
X81004761Y-19214285D01*
X80957142Y-19261904D01*
X80861904Y-19309523D01*
X80052380Y-19309523D01*
X81052380Y-20309523D02*
X81052380Y-19738095D01*
X81052380Y-20023809D02*
X80052380Y-20023809D01*
X80195238Y-19928571D01*
X80290476Y-19833333D01*
X80338095Y-19738095D01*
X95202380Y-79988095D02*
X96011904Y-79988095D01*
X96107142Y-80035714D01*
X96154761Y-80083333D01*
X96202380Y-80178571D01*
X96202380Y-80369047D01*
X96154761Y-80464285D01*
X96107142Y-80511904D01*
X96011904Y-80559523D01*
X95202380Y-80559523D01*
X95202380Y-80940476D02*
X95202380Y-81559523D01*
X95583333Y-81226190D01*
X95583333Y-81369047D01*
X95630952Y-81464285D01*
X95678571Y-81511904D01*
X95773809Y-81559523D01*
X96011904Y-81559523D01*
X96107142Y-81511904D01*
X96154761Y-81464285D01*
X96202380Y-81369047D01*
X96202380Y-81083333D01*
X96154761Y-80988095D01*
X96107142Y-80940476D01*
X140315357Y-27357142D02*
X140362976Y-27404761D01*
X140505833Y-27452380D01*
X140601071Y-27452380D01*
X140743928Y-27404761D01*
X140839166Y-27309523D01*
X140886785Y-27214285D01*
X140934404Y-27023809D01*
X140934404Y-26880952D01*
X140886785Y-26690476D01*
X140839166Y-26595238D01*
X140743928Y-26500000D01*
X140601071Y-26452380D01*
X140505833Y-26452380D01*
X140362976Y-26500000D01*
X140315357Y-26547619D01*
X139458214Y-26452380D02*
X139648690Y-26452380D01*
X139743928Y-26500000D01*
X139791547Y-26547619D01*
X139886785Y-26690476D01*
X139934404Y-26880952D01*
X139934404Y-27261904D01*
X139886785Y-27357142D01*
X139839166Y-27404761D01*
X139743928Y-27452380D01*
X139553452Y-27452380D01*
X139458214Y-27404761D01*
X139410595Y-27357142D01*
X139362976Y-27261904D01*
X139362976Y-27023809D01*
X139410595Y-26928571D01*
X139458214Y-26880952D01*
X139553452Y-26833333D01*
X139743928Y-26833333D01*
X139839166Y-26880952D01*
X139886785Y-26928571D01*
X139934404Y-27023809D01*
X138410595Y-27452380D02*
X138982023Y-27452380D01*
X138696309Y-27452380D02*
X138696309Y-26452380D01*
X138791547Y-26595238D01*
X138886785Y-26690476D01*
X138982023Y-26738095D01*
X140350357Y-24992380D02*
X140683690Y-24516190D01*
X140921785Y-24992380D02*
X140921785Y-23992380D01*
X140540833Y-23992380D01*
X140445595Y-24040000D01*
X140397976Y-24087619D01*
X140350357Y-24182857D01*
X140350357Y-24325714D01*
X140397976Y-24420952D01*
X140445595Y-24468571D01*
X140540833Y-24516190D01*
X140921785Y-24516190D01*
X140017023Y-23992380D02*
X139397976Y-23992380D01*
X139731309Y-24373333D01*
X139588452Y-24373333D01*
X139493214Y-24420952D01*
X139445595Y-24468571D01*
X139397976Y-24563809D01*
X139397976Y-24801904D01*
X139445595Y-24897142D01*
X139493214Y-24944761D01*
X139588452Y-24992380D01*
X139874166Y-24992380D01*
X139969404Y-24944761D01*
X140017023Y-24897142D01*
X139064642Y-23992380D02*
X138445595Y-23992380D01*
X138778928Y-24373333D01*
X138636071Y-24373333D01*
X138540833Y-24420952D01*
X138493214Y-24468571D01*
X138445595Y-24563809D01*
X138445595Y-24801904D01*
X138493214Y-24897142D01*
X138540833Y-24944761D01*
X138636071Y-24992380D01*
X138921785Y-24992380D01*
X139017023Y-24944761D01*
X139064642Y-24897142D01*
X147961904Y-32552380D02*
X147961904Y-33361904D01*
X147914285Y-33457142D01*
X147866666Y-33504761D01*
X147771428Y-33552380D01*
X147580952Y-33552380D01*
X147485714Y-33504761D01*
X147438095Y-33457142D01*
X147390476Y-33361904D01*
X147390476Y-32552380D01*
X146438095Y-32552380D02*
X146914285Y-32552380D01*
X146961904Y-33028571D01*
X146914285Y-32980952D01*
X146819047Y-32933333D01*
X146580952Y-32933333D01*
X146485714Y-32980952D01*
X146438095Y-33028571D01*
X146390476Y-33123809D01*
X146390476Y-33361904D01*
X146438095Y-33457142D01*
X146485714Y-33504761D01*
X146580952Y-33552380D01*
X146819047Y-33552380D01*
X146914285Y-33504761D01*
X146961904Y-33457142D01*
X99033333Y-6142380D02*
X99033333Y-6856666D01*
X99080952Y-6999523D01*
X99176190Y-7094761D01*
X99319047Y-7142380D01*
X99414285Y-7142380D01*
X98509523Y-7142380D02*
X98319047Y-7142380D01*
X98223809Y-7094761D01*
X98176190Y-7047142D01*
X98080952Y-6904285D01*
X98033333Y-6713809D01*
X98033333Y-6332857D01*
X98080952Y-6237619D01*
X98128571Y-6190000D01*
X98223809Y-6142380D01*
X98414285Y-6142380D01*
X98509523Y-6190000D01*
X98557142Y-6237619D01*
X98604761Y-6332857D01*
X98604761Y-6570952D01*
X98557142Y-6666190D01*
X98509523Y-6713809D01*
X98414285Y-6761428D01*
X98223809Y-6761428D01*
X98128571Y-6713809D01*
X98080952Y-6666190D01*
X98033333Y-6570952D01*
X7242857Y-62457142D02*
X7290476Y-62504761D01*
X7433333Y-62552380D01*
X7528571Y-62552380D01*
X7671428Y-62504761D01*
X7766666Y-62409523D01*
X7814285Y-62314285D01*
X7861904Y-62123809D01*
X7861904Y-61980952D01*
X7814285Y-61790476D01*
X7766666Y-61695238D01*
X7671428Y-61600000D01*
X7528571Y-61552380D01*
X7433333Y-61552380D01*
X7290476Y-61600000D01*
X7242857Y-61647619D01*
X6671428Y-61980952D02*
X6766666Y-61933333D01*
X6814285Y-61885714D01*
X6861904Y-61790476D01*
X6861904Y-61742857D01*
X6814285Y-61647619D01*
X6766666Y-61600000D01*
X6671428Y-61552380D01*
X6480952Y-61552380D01*
X6385714Y-61600000D01*
X6338095Y-61647619D01*
X6290476Y-61742857D01*
X6290476Y-61790476D01*
X6338095Y-61885714D01*
X6385714Y-61933333D01*
X6480952Y-61980952D01*
X6671428Y-61980952D01*
X6766666Y-62028571D01*
X6814285Y-62076190D01*
X6861904Y-62171428D01*
X6861904Y-62361904D01*
X6814285Y-62457142D01*
X6766666Y-62504761D01*
X6671428Y-62552380D01*
X6480952Y-62552380D01*
X6385714Y-62504761D01*
X6338095Y-62457142D01*
X6290476Y-62361904D01*
X6290476Y-62171428D01*
X6338095Y-62076190D01*
X6385714Y-62028571D01*
X6480952Y-61980952D01*
X5433333Y-61885714D02*
X5433333Y-62552380D01*
X5671428Y-61504761D02*
X5909523Y-62219047D01*
X5290476Y-62219047D01*
X7182142Y-75532142D02*
X7229761Y-75484523D01*
X7277380Y-75341666D01*
X7277380Y-75246428D01*
X7229761Y-75103571D01*
X7134523Y-75008333D01*
X7039285Y-74960714D01*
X6848809Y-74913095D01*
X6705952Y-74913095D01*
X6515476Y-74960714D01*
X6420238Y-75008333D01*
X6325000Y-75103571D01*
X6277380Y-75246428D01*
X6277380Y-75341666D01*
X6325000Y-75484523D01*
X6372619Y-75532142D01*
X6705952Y-76103571D02*
X6658333Y-76008333D01*
X6610714Y-75960714D01*
X6515476Y-75913095D01*
X6467857Y-75913095D01*
X6372619Y-75960714D01*
X6325000Y-76008333D01*
X6277380Y-76103571D01*
X6277380Y-76294047D01*
X6325000Y-76389285D01*
X6372619Y-76436904D01*
X6467857Y-76484523D01*
X6515476Y-76484523D01*
X6610714Y-76436904D01*
X6658333Y-76389285D01*
X6705952Y-76294047D01*
X6705952Y-76103571D01*
X6753571Y-76008333D01*
X6801190Y-75960714D01*
X6896428Y-75913095D01*
X7086904Y-75913095D01*
X7182142Y-75960714D01*
X7229761Y-76008333D01*
X7277380Y-76103571D01*
X7277380Y-76294047D01*
X7229761Y-76389285D01*
X7182142Y-76436904D01*
X7086904Y-76484523D01*
X6896428Y-76484523D01*
X6801190Y-76436904D01*
X6753571Y-76389285D01*
X6705952Y-76294047D01*
X6277380Y-77389285D02*
X6277380Y-76913095D01*
X6753571Y-76865476D01*
X6705952Y-76913095D01*
X6658333Y-77008333D01*
X6658333Y-77246428D01*
X6705952Y-77341666D01*
X6753571Y-77389285D01*
X6848809Y-77436904D01*
X7086904Y-77436904D01*
X7182142Y-77389285D01*
X7229761Y-77341666D01*
X7277380Y-77246428D01*
X7277380Y-77008333D01*
X7229761Y-76913095D01*
X7182142Y-76865476D01*
X9677380Y-75786904D02*
X8677380Y-75786904D01*
X8677380Y-76025000D01*
X8725000Y-76167857D01*
X8820238Y-76263095D01*
X8915476Y-76310714D01*
X9105952Y-76358333D01*
X9248809Y-76358333D01*
X9439285Y-76310714D01*
X9534523Y-76263095D01*
X9629761Y-76167857D01*
X9677380Y-76025000D01*
X9677380Y-75786904D01*
X8677380Y-77215476D02*
X8677380Y-77025000D01*
X8725000Y-76929761D01*
X8772619Y-76882142D01*
X8915476Y-76786904D01*
X9105952Y-76739285D01*
X9486904Y-76739285D01*
X9582142Y-76786904D01*
X9629761Y-76834523D01*
X9677380Y-76929761D01*
X9677380Y-77120238D01*
X9629761Y-77215476D01*
X9582142Y-77263095D01*
X9486904Y-77310714D01*
X9248809Y-77310714D01*
X9153571Y-77263095D01*
X9105952Y-77215476D01*
X9058333Y-77120238D01*
X9058333Y-76929761D01*
X9105952Y-76834523D01*
X9153571Y-76786904D01*
X9248809Y-76739285D01*
X85138333Y-42542071D02*
X85471666Y-42542071D01*
X85471666Y-43065880D02*
X85471666Y-42065880D01*
X84995476Y-42065880D01*
X84281190Y-42542071D02*
X84138333Y-42589690D01*
X84090714Y-42637309D01*
X84043095Y-42732547D01*
X84043095Y-42875404D01*
X84090714Y-42970642D01*
X84138333Y-43018261D01*
X84233571Y-43065880D01*
X84614523Y-43065880D01*
X84614523Y-42065880D01*
X84281190Y-42065880D01*
X84185952Y-42113500D01*
X84138333Y-42161119D01*
X84090714Y-42256357D01*
X84090714Y-42351595D01*
X84138333Y-42446833D01*
X84185952Y-42494452D01*
X84281190Y-42542071D01*
X84614523Y-42542071D01*
X83566904Y-43065880D02*
X83376428Y-43065880D01*
X83281190Y-43018261D01*
X83233571Y-42970642D01*
X83138333Y-42827785D01*
X83090714Y-42637309D01*
X83090714Y-42256357D01*
X83138333Y-42161119D01*
X83185952Y-42113500D01*
X83281190Y-42065880D01*
X83471666Y-42065880D01*
X83566904Y-42113500D01*
X83614523Y-42161119D01*
X83662142Y-42256357D01*
X83662142Y-42494452D01*
X83614523Y-42589690D01*
X83566904Y-42637309D01*
X83471666Y-42684928D01*
X83281190Y-42684928D01*
X83185952Y-42637309D01*
X83138333Y-42589690D01*
X83090714Y-42494452D01*
X20606571Y-29810476D02*
X20606571Y-29477142D01*
X21130380Y-29477142D02*
X20130380Y-29477142D01*
X20130380Y-29953333D01*
X20606571Y-30667619D02*
X20654190Y-30810476D01*
X20701809Y-30858095D01*
X20797047Y-30905714D01*
X20939904Y-30905714D01*
X21035142Y-30858095D01*
X21082761Y-30810476D01*
X21130380Y-30715238D01*
X21130380Y-30334285D01*
X20130380Y-30334285D01*
X20130380Y-30667619D01*
X20178000Y-30762857D01*
X20225619Y-30810476D01*
X20320857Y-30858095D01*
X20416095Y-30858095D01*
X20511333Y-30810476D01*
X20558952Y-30762857D01*
X20606571Y-30667619D01*
X20606571Y-30334285D01*
X21130380Y-31858095D02*
X21130380Y-31286666D01*
X21130380Y-31572380D02*
X20130380Y-31572380D01*
X20273238Y-31477142D01*
X20368476Y-31381904D01*
X20416095Y-31286666D01*
X20130380Y-32477142D02*
X20130380Y-32572380D01*
X20178000Y-32667619D01*
X20225619Y-32715238D01*
X20320857Y-32762857D01*
X20511333Y-32810476D01*
X20749428Y-32810476D01*
X20939904Y-32762857D01*
X21035142Y-32715238D01*
X21082761Y-32667619D01*
X21130380Y-32572380D01*
X21130380Y-32477142D01*
X21082761Y-32381904D01*
X21035142Y-32334285D01*
X20939904Y-32286666D01*
X20749428Y-32239047D01*
X20511333Y-32239047D01*
X20320857Y-32286666D01*
X20225619Y-32334285D01*
X20178000Y-32381904D01*
X20130380Y-32477142D01*
X85614523Y-54543571D02*
X85947857Y-54543571D01*
X85947857Y-55067380D02*
X85947857Y-54067380D01*
X85471666Y-54067380D01*
X84757380Y-54543571D02*
X84614523Y-54591190D01*
X84566904Y-54638809D01*
X84519285Y-54734047D01*
X84519285Y-54876904D01*
X84566904Y-54972142D01*
X84614523Y-55019761D01*
X84709761Y-55067380D01*
X85090714Y-55067380D01*
X85090714Y-54067380D01*
X84757380Y-54067380D01*
X84662142Y-54115000D01*
X84614523Y-54162619D01*
X84566904Y-54257857D01*
X84566904Y-54353095D01*
X84614523Y-54448333D01*
X84662142Y-54495952D01*
X84757380Y-54543571D01*
X85090714Y-54543571D01*
X83566904Y-55067380D02*
X84138333Y-55067380D01*
X83852619Y-55067380D02*
X83852619Y-54067380D01*
X83947857Y-54210238D01*
X84043095Y-54305476D01*
X84138333Y-54353095D01*
X82614523Y-55067380D02*
X83185952Y-55067380D01*
X82900238Y-55067380D02*
X82900238Y-54067380D01*
X82995476Y-54210238D01*
X83090714Y-54305476D01*
X83185952Y-54353095D01*
X22241523Y-43748571D02*
X22574857Y-43748571D01*
X22574857Y-44272380D02*
X22574857Y-43272380D01*
X22098666Y-43272380D01*
X21384380Y-43748571D02*
X21241523Y-43796190D01*
X21193904Y-43843809D01*
X21146285Y-43939047D01*
X21146285Y-44081904D01*
X21193904Y-44177142D01*
X21241523Y-44224761D01*
X21336761Y-44272380D01*
X21717714Y-44272380D01*
X21717714Y-43272380D01*
X21384380Y-43272380D01*
X21289142Y-43320000D01*
X21241523Y-43367619D01*
X21193904Y-43462857D01*
X21193904Y-43558095D01*
X21241523Y-43653333D01*
X21289142Y-43700952D01*
X21384380Y-43748571D01*
X21717714Y-43748571D01*
X20193904Y-44272380D02*
X20765333Y-44272380D01*
X20479619Y-44272380D02*
X20479619Y-43272380D01*
X20574857Y-43415238D01*
X20670095Y-43510476D01*
X20765333Y-43558095D01*
X19812952Y-43367619D02*
X19765333Y-43320000D01*
X19670095Y-43272380D01*
X19432000Y-43272380D01*
X19336761Y-43320000D01*
X19289142Y-43367619D01*
X19241523Y-43462857D01*
X19241523Y-43558095D01*
X19289142Y-43700952D01*
X19860571Y-44272380D01*
X19241523Y-44272380D01*
X85551023Y-66164071D02*
X85884357Y-66164071D01*
X85884357Y-66687880D02*
X85884357Y-65687880D01*
X85408166Y-65687880D01*
X84693880Y-66164071D02*
X84551023Y-66211690D01*
X84503404Y-66259309D01*
X84455785Y-66354547D01*
X84455785Y-66497404D01*
X84503404Y-66592642D01*
X84551023Y-66640261D01*
X84646261Y-66687880D01*
X85027214Y-66687880D01*
X85027214Y-65687880D01*
X84693880Y-65687880D01*
X84598642Y-65735500D01*
X84551023Y-65783119D01*
X84503404Y-65878357D01*
X84503404Y-65973595D01*
X84551023Y-66068833D01*
X84598642Y-66116452D01*
X84693880Y-66164071D01*
X85027214Y-66164071D01*
X83503404Y-66687880D02*
X84074833Y-66687880D01*
X83789119Y-66687880D02*
X83789119Y-65687880D01*
X83884357Y-65830738D01*
X83979595Y-65925976D01*
X84074833Y-65973595D01*
X83170071Y-65687880D02*
X82551023Y-65687880D01*
X82884357Y-66068833D01*
X82741500Y-66068833D01*
X82646261Y-66116452D01*
X82598642Y-66164071D01*
X82551023Y-66259309D01*
X82551023Y-66497404D01*
X82598642Y-66592642D01*
X82646261Y-66640261D01*
X82741500Y-66687880D01*
X83027214Y-66687880D01*
X83122452Y-66640261D01*
X83170071Y-66592642D01*
X22749523Y-55432571D02*
X23082857Y-55432571D01*
X23082857Y-55956380D02*
X23082857Y-54956380D01*
X22606666Y-54956380D01*
X21892380Y-55432571D02*
X21749523Y-55480190D01*
X21701904Y-55527809D01*
X21654285Y-55623047D01*
X21654285Y-55765904D01*
X21701904Y-55861142D01*
X21749523Y-55908761D01*
X21844761Y-55956380D01*
X22225714Y-55956380D01*
X22225714Y-54956380D01*
X21892380Y-54956380D01*
X21797142Y-55004000D01*
X21749523Y-55051619D01*
X21701904Y-55146857D01*
X21701904Y-55242095D01*
X21749523Y-55337333D01*
X21797142Y-55384952D01*
X21892380Y-55432571D01*
X22225714Y-55432571D01*
X20701904Y-55956380D02*
X21273333Y-55956380D01*
X20987619Y-55956380D02*
X20987619Y-54956380D01*
X21082857Y-55099238D01*
X21178095Y-55194476D01*
X21273333Y-55242095D01*
X19844761Y-55289714D02*
X19844761Y-55956380D01*
X20082857Y-54908761D02*
X20320952Y-55623047D01*
X19701904Y-55623047D01*
X85741523Y-78038571D02*
X86074857Y-78038571D01*
X86074857Y-78562380D02*
X86074857Y-77562380D01*
X85598666Y-77562380D01*
X84884380Y-78038571D02*
X84741523Y-78086190D01*
X84693904Y-78133809D01*
X84646285Y-78229047D01*
X84646285Y-78371904D01*
X84693904Y-78467142D01*
X84741523Y-78514761D01*
X84836761Y-78562380D01*
X85217714Y-78562380D01*
X85217714Y-77562380D01*
X84884380Y-77562380D01*
X84789142Y-77610000D01*
X84741523Y-77657619D01*
X84693904Y-77752857D01*
X84693904Y-77848095D01*
X84741523Y-77943333D01*
X84789142Y-77990952D01*
X84884380Y-78038571D01*
X85217714Y-78038571D01*
X83693904Y-78562380D02*
X84265333Y-78562380D01*
X83979619Y-78562380D02*
X83979619Y-77562380D01*
X84074857Y-77705238D01*
X84170095Y-77800476D01*
X84265333Y-77848095D01*
X82789142Y-77562380D02*
X83265333Y-77562380D01*
X83312952Y-78038571D01*
X83265333Y-77990952D01*
X83170095Y-77943333D01*
X82932000Y-77943333D01*
X82836761Y-77990952D01*
X82789142Y-78038571D01*
X82741523Y-78133809D01*
X82741523Y-78371904D01*
X82789142Y-78467142D01*
X82836761Y-78514761D01*
X82932000Y-78562380D01*
X83170095Y-78562380D01*
X83265333Y-78514761D01*
X83312952Y-78467142D01*
X22495523Y-67370571D02*
X22828857Y-67370571D01*
X22828857Y-67894380D02*
X22828857Y-66894380D01*
X22352666Y-66894380D01*
X21638380Y-67370571D02*
X21495523Y-67418190D01*
X21447904Y-67465809D01*
X21400285Y-67561047D01*
X21400285Y-67703904D01*
X21447904Y-67799142D01*
X21495523Y-67846761D01*
X21590761Y-67894380D01*
X21971714Y-67894380D01*
X21971714Y-66894380D01*
X21638380Y-66894380D01*
X21543142Y-66942000D01*
X21495523Y-66989619D01*
X21447904Y-67084857D01*
X21447904Y-67180095D01*
X21495523Y-67275333D01*
X21543142Y-67322952D01*
X21638380Y-67370571D01*
X21971714Y-67370571D01*
X20447904Y-67894380D02*
X21019333Y-67894380D01*
X20733619Y-67894380D02*
X20733619Y-66894380D01*
X20828857Y-67037238D01*
X20924095Y-67132476D01*
X21019333Y-67180095D01*
X19590761Y-66894380D02*
X19781238Y-66894380D01*
X19876476Y-66942000D01*
X19924095Y-66989619D01*
X20019333Y-67132476D01*
X20066952Y-67322952D01*
X20066952Y-67703904D01*
X20019333Y-67799142D01*
X19971714Y-67846761D01*
X19876476Y-67894380D01*
X19686000Y-67894380D01*
X19590761Y-67846761D01*
X19543142Y-67799142D01*
X19495523Y-67703904D01*
X19495523Y-67465809D01*
X19543142Y-67370571D01*
X19590761Y-67322952D01*
X19686000Y-67275333D01*
X19876476Y-67275333D01*
X19971714Y-67322952D01*
X20019333Y-67370571D01*
X20066952Y-67465809D01*
X87075023Y-90040071D02*
X87408357Y-90040071D01*
X87408357Y-90563880D02*
X87408357Y-89563880D01*
X86932166Y-89563880D01*
X86217880Y-90040071D02*
X86075023Y-90087690D01*
X86027404Y-90135309D01*
X85979785Y-90230547D01*
X85979785Y-90373404D01*
X86027404Y-90468642D01*
X86075023Y-90516261D01*
X86170261Y-90563880D01*
X86551214Y-90563880D01*
X86551214Y-89563880D01*
X86217880Y-89563880D01*
X86122642Y-89611500D01*
X86075023Y-89659119D01*
X86027404Y-89754357D01*
X86027404Y-89849595D01*
X86075023Y-89944833D01*
X86122642Y-89992452D01*
X86217880Y-90040071D01*
X86551214Y-90040071D01*
X85027404Y-90563880D02*
X85598833Y-90563880D01*
X85313119Y-90563880D02*
X85313119Y-89563880D01*
X85408357Y-89706738D01*
X85503595Y-89801976D01*
X85598833Y-89849595D01*
X84694071Y-89563880D02*
X84027404Y-89563880D01*
X84455976Y-90563880D01*
X22622523Y-79054571D02*
X22955857Y-79054571D01*
X22955857Y-79578380D02*
X22955857Y-78578380D01*
X22479666Y-78578380D01*
X21765380Y-79054571D02*
X21622523Y-79102190D01*
X21574904Y-79149809D01*
X21527285Y-79245047D01*
X21527285Y-79387904D01*
X21574904Y-79483142D01*
X21622523Y-79530761D01*
X21717761Y-79578380D01*
X22098714Y-79578380D01*
X22098714Y-78578380D01*
X21765380Y-78578380D01*
X21670142Y-78626000D01*
X21622523Y-78673619D01*
X21574904Y-78768857D01*
X21574904Y-78864095D01*
X21622523Y-78959333D01*
X21670142Y-79006952D01*
X21765380Y-79054571D01*
X22098714Y-79054571D01*
X20574904Y-79578380D02*
X21146333Y-79578380D01*
X20860619Y-79578380D02*
X20860619Y-78578380D01*
X20955857Y-78721238D01*
X21051095Y-78816476D01*
X21146333Y-78864095D01*
X20003476Y-79006952D02*
X20098714Y-78959333D01*
X20146333Y-78911714D01*
X20193952Y-78816476D01*
X20193952Y-78768857D01*
X20146333Y-78673619D01*
X20098714Y-78626000D01*
X20003476Y-78578380D01*
X19813000Y-78578380D01*
X19717761Y-78626000D01*
X19670142Y-78673619D01*
X19622523Y-78768857D01*
X19622523Y-78816476D01*
X19670142Y-78911714D01*
X19717761Y-78959333D01*
X19813000Y-79006952D01*
X20003476Y-79006952D01*
X20098714Y-79054571D01*
X20146333Y-79102190D01*
X20193952Y-79197428D01*
X20193952Y-79387904D01*
X20146333Y-79483142D01*
X20098714Y-79530761D01*
X20003476Y-79578380D01*
X19813000Y-79578380D01*
X19717761Y-79530761D01*
X19670142Y-79483142D01*
X19622523Y-79387904D01*
X19622523Y-79197428D01*
X19670142Y-79102190D01*
X19717761Y-79054571D01*
X19813000Y-79006952D01*
X109617523Y-71434571D02*
X109950857Y-71434571D01*
X109950857Y-71958380D02*
X109950857Y-70958380D01*
X109474666Y-70958380D01*
X108760380Y-71434571D02*
X108617523Y-71482190D01*
X108569904Y-71529809D01*
X108522285Y-71625047D01*
X108522285Y-71767904D01*
X108569904Y-71863142D01*
X108617523Y-71910761D01*
X108712761Y-71958380D01*
X109093714Y-71958380D01*
X109093714Y-70958380D01*
X108760380Y-70958380D01*
X108665142Y-71006000D01*
X108617523Y-71053619D01*
X108569904Y-71148857D01*
X108569904Y-71244095D01*
X108617523Y-71339333D01*
X108665142Y-71386952D01*
X108760380Y-71434571D01*
X109093714Y-71434571D01*
X107569904Y-71958380D02*
X108141333Y-71958380D01*
X107855619Y-71958380D02*
X107855619Y-70958380D01*
X107950857Y-71101238D01*
X108046095Y-71196476D01*
X108141333Y-71244095D01*
X107093714Y-71958380D02*
X106903238Y-71958380D01*
X106808000Y-71910761D01*
X106760380Y-71863142D01*
X106665142Y-71720285D01*
X106617523Y-71529809D01*
X106617523Y-71148857D01*
X106665142Y-71053619D01*
X106712761Y-71006000D01*
X106808000Y-70958380D01*
X106998476Y-70958380D01*
X107093714Y-71006000D01*
X107141333Y-71053619D01*
X107188952Y-71148857D01*
X107188952Y-71386952D01*
X107141333Y-71482190D01*
X107093714Y-71529809D01*
X106998476Y-71577428D01*
X106808000Y-71577428D01*
X106712761Y-71529809D01*
X106665142Y-71482190D01*
X106617523Y-71386952D01*
X8227380Y-64432142D02*
X7751190Y-64098809D01*
X8227380Y-63860714D02*
X7227380Y-63860714D01*
X7227380Y-64241666D01*
X7275000Y-64336904D01*
X7322619Y-64384523D01*
X7417857Y-64432142D01*
X7560714Y-64432142D01*
X7655952Y-64384523D01*
X7703571Y-64336904D01*
X7751190Y-64241666D01*
X7751190Y-63860714D01*
X8227380Y-65384523D02*
X8227380Y-64813095D01*
X8227380Y-65098809D02*
X7227380Y-65098809D01*
X7370238Y-65003571D01*
X7465476Y-64908333D01*
X7513095Y-64813095D01*
X7227380Y-66241666D02*
X7227380Y-66051190D01*
X7275000Y-65955952D01*
X7322619Y-65908333D01*
X7465476Y-65813095D01*
X7655952Y-65765476D01*
X8036904Y-65765476D01*
X8132142Y-65813095D01*
X8179761Y-65860714D01*
X8227380Y-65955952D01*
X8227380Y-66146428D01*
X8179761Y-66241666D01*
X8132142Y-66289285D01*
X8036904Y-66336904D01*
X7798809Y-66336904D01*
X7703571Y-66289285D01*
X7655952Y-66241666D01*
X7608333Y-66146428D01*
X7608333Y-65955952D01*
X7655952Y-65860714D01*
X7703571Y-65813095D01*
X7798809Y-65765476D01*
X7242857Y-60402380D02*
X7576190Y-59926190D01*
X7814285Y-60402380D02*
X7814285Y-59402380D01*
X7433333Y-59402380D01*
X7338095Y-59450000D01*
X7290476Y-59497619D01*
X7242857Y-59592857D01*
X7242857Y-59735714D01*
X7290476Y-59830952D01*
X7338095Y-59878571D01*
X7433333Y-59926190D01*
X7814285Y-59926190D01*
X6290476Y-60402380D02*
X6861904Y-60402380D01*
X6576190Y-60402380D02*
X6576190Y-59402380D01*
X6671428Y-59545238D01*
X6766666Y-59640476D01*
X6861904Y-59688095D01*
X5957142Y-59402380D02*
X5290476Y-59402380D01*
X5719047Y-60402380D01*
M02*
