G04 #@! TF.GenerationSoftware,KiCad,Pcbnew,(5.1.5)-3*
G04 #@! TF.CreationDate,2020-02-21T20:44:02+01:00*
G04 #@! TF.ProjectId,HL2_MRF101,484c325f-4d52-4463-9130-312e6b696361,2.0-build8*
G04 #@! TF.SameCoordinates,PX42c1d80PY2625a00*
G04 #@! TF.FileFunction,Paste,Top*
G04 #@! TF.FilePolarity,Positive*
%FSLAX46Y46*%
G04 Gerber Fmt 4.6, Leading zero omitted, Abs format (unit mm)*
G04 Created by KiCad (PCBNEW (5.1.5)-3) date 2020-02-21 20:44:02*
%MOMM*%
%LPD*%
G04 APERTURE LIST*
%ADD10R,2.200000X1.050000*%
%ADD11R,1.050000X1.000000*%
%ADD12R,5.999480X3.997960*%
%ADD13C,0.100000*%
G04 APERTURE END LIST*
D10*
X89725000Y-79575000D03*
D11*
X91250000Y-78100000D03*
D10*
X89725000Y-76625000D03*
X93925000Y-69375000D03*
D11*
X95450000Y-67900000D03*
D10*
X93925000Y-66425000D03*
D12*
X138698720Y-40599700D03*
X128701280Y-40599700D03*
X128701280Y-20000300D03*
X138698720Y-20000300D03*
D13*
G36*
X140780142Y-65451174D02*
G01*
X140803803Y-65454684D01*
X140827007Y-65460496D01*
X140849529Y-65468554D01*
X140871153Y-65478782D01*
X140891670Y-65491079D01*
X140910883Y-65505329D01*
X140928607Y-65521393D01*
X140944671Y-65539117D01*
X140958921Y-65558330D01*
X140971218Y-65578847D01*
X140981446Y-65600471D01*
X140989504Y-65622993D01*
X140995316Y-65646197D01*
X140998826Y-65669858D01*
X141000000Y-65693750D01*
X141000000Y-66181250D01*
X140998826Y-66205142D01*
X140995316Y-66228803D01*
X140989504Y-66252007D01*
X140981446Y-66274529D01*
X140971218Y-66296153D01*
X140958921Y-66316670D01*
X140944671Y-66335883D01*
X140928607Y-66353607D01*
X140910883Y-66369671D01*
X140891670Y-66383921D01*
X140871153Y-66396218D01*
X140849529Y-66406446D01*
X140827007Y-66414504D01*
X140803803Y-66420316D01*
X140780142Y-66423826D01*
X140756250Y-66425000D01*
X139843750Y-66425000D01*
X139819858Y-66423826D01*
X139796197Y-66420316D01*
X139772993Y-66414504D01*
X139750471Y-66406446D01*
X139728847Y-66396218D01*
X139708330Y-66383921D01*
X139689117Y-66369671D01*
X139671393Y-66353607D01*
X139655329Y-66335883D01*
X139641079Y-66316670D01*
X139628782Y-66296153D01*
X139618554Y-66274529D01*
X139610496Y-66252007D01*
X139604684Y-66228803D01*
X139601174Y-66205142D01*
X139600000Y-66181250D01*
X139600000Y-65693750D01*
X139601174Y-65669858D01*
X139604684Y-65646197D01*
X139610496Y-65622993D01*
X139618554Y-65600471D01*
X139628782Y-65578847D01*
X139641079Y-65558330D01*
X139655329Y-65539117D01*
X139671393Y-65521393D01*
X139689117Y-65505329D01*
X139708330Y-65491079D01*
X139728847Y-65478782D01*
X139750471Y-65468554D01*
X139772993Y-65460496D01*
X139796197Y-65454684D01*
X139819858Y-65451174D01*
X139843750Y-65450000D01*
X140756250Y-65450000D01*
X140780142Y-65451174D01*
G37*
G36*
X140780142Y-63576174D02*
G01*
X140803803Y-63579684D01*
X140827007Y-63585496D01*
X140849529Y-63593554D01*
X140871153Y-63603782D01*
X140891670Y-63616079D01*
X140910883Y-63630329D01*
X140928607Y-63646393D01*
X140944671Y-63664117D01*
X140958921Y-63683330D01*
X140971218Y-63703847D01*
X140981446Y-63725471D01*
X140989504Y-63747993D01*
X140995316Y-63771197D01*
X140998826Y-63794858D01*
X141000000Y-63818750D01*
X141000000Y-64306250D01*
X140998826Y-64330142D01*
X140995316Y-64353803D01*
X140989504Y-64377007D01*
X140981446Y-64399529D01*
X140971218Y-64421153D01*
X140958921Y-64441670D01*
X140944671Y-64460883D01*
X140928607Y-64478607D01*
X140910883Y-64494671D01*
X140891670Y-64508921D01*
X140871153Y-64521218D01*
X140849529Y-64531446D01*
X140827007Y-64539504D01*
X140803803Y-64545316D01*
X140780142Y-64548826D01*
X140756250Y-64550000D01*
X139843750Y-64550000D01*
X139819858Y-64548826D01*
X139796197Y-64545316D01*
X139772993Y-64539504D01*
X139750471Y-64531446D01*
X139728847Y-64521218D01*
X139708330Y-64508921D01*
X139689117Y-64494671D01*
X139671393Y-64478607D01*
X139655329Y-64460883D01*
X139641079Y-64441670D01*
X139628782Y-64421153D01*
X139618554Y-64399529D01*
X139610496Y-64377007D01*
X139604684Y-64353803D01*
X139601174Y-64330142D01*
X139600000Y-64306250D01*
X139600000Y-63818750D01*
X139601174Y-63794858D01*
X139604684Y-63771197D01*
X139610496Y-63747993D01*
X139618554Y-63725471D01*
X139628782Y-63703847D01*
X139641079Y-63683330D01*
X139655329Y-63664117D01*
X139671393Y-63646393D01*
X139689117Y-63630329D01*
X139708330Y-63616079D01*
X139728847Y-63603782D01*
X139750471Y-63593554D01*
X139772993Y-63585496D01*
X139796197Y-63579684D01*
X139819858Y-63576174D01*
X139843750Y-63575000D01*
X140756250Y-63575000D01*
X140780142Y-63576174D01*
G37*
G36*
X132605142Y-61301174D02*
G01*
X132628803Y-61304684D01*
X132652007Y-61310496D01*
X132674529Y-61318554D01*
X132696153Y-61328782D01*
X132716670Y-61341079D01*
X132735883Y-61355329D01*
X132753607Y-61371393D01*
X132769671Y-61389117D01*
X132783921Y-61408330D01*
X132796218Y-61428847D01*
X132806446Y-61450471D01*
X132814504Y-61472993D01*
X132820316Y-61496197D01*
X132823826Y-61519858D01*
X132825000Y-61543750D01*
X132825000Y-62456250D01*
X132823826Y-62480142D01*
X132820316Y-62503803D01*
X132814504Y-62527007D01*
X132806446Y-62549529D01*
X132796218Y-62571153D01*
X132783921Y-62591670D01*
X132769671Y-62610883D01*
X132753607Y-62628607D01*
X132735883Y-62644671D01*
X132716670Y-62658921D01*
X132696153Y-62671218D01*
X132674529Y-62681446D01*
X132652007Y-62689504D01*
X132628803Y-62695316D01*
X132605142Y-62698826D01*
X132581250Y-62700000D01*
X132093750Y-62700000D01*
X132069858Y-62698826D01*
X132046197Y-62695316D01*
X132022993Y-62689504D01*
X132000471Y-62681446D01*
X131978847Y-62671218D01*
X131958330Y-62658921D01*
X131939117Y-62644671D01*
X131921393Y-62628607D01*
X131905329Y-62610883D01*
X131891079Y-62591670D01*
X131878782Y-62571153D01*
X131868554Y-62549529D01*
X131860496Y-62527007D01*
X131854684Y-62503803D01*
X131851174Y-62480142D01*
X131850000Y-62456250D01*
X131850000Y-61543750D01*
X131851174Y-61519858D01*
X131854684Y-61496197D01*
X131860496Y-61472993D01*
X131868554Y-61450471D01*
X131878782Y-61428847D01*
X131891079Y-61408330D01*
X131905329Y-61389117D01*
X131921393Y-61371393D01*
X131939117Y-61355329D01*
X131958330Y-61341079D01*
X131978847Y-61328782D01*
X132000471Y-61318554D01*
X132022993Y-61310496D01*
X132046197Y-61304684D01*
X132069858Y-61301174D01*
X132093750Y-61300000D01*
X132581250Y-61300000D01*
X132605142Y-61301174D01*
G37*
G36*
X130730142Y-61301174D02*
G01*
X130753803Y-61304684D01*
X130777007Y-61310496D01*
X130799529Y-61318554D01*
X130821153Y-61328782D01*
X130841670Y-61341079D01*
X130860883Y-61355329D01*
X130878607Y-61371393D01*
X130894671Y-61389117D01*
X130908921Y-61408330D01*
X130921218Y-61428847D01*
X130931446Y-61450471D01*
X130939504Y-61472993D01*
X130945316Y-61496197D01*
X130948826Y-61519858D01*
X130950000Y-61543750D01*
X130950000Y-62456250D01*
X130948826Y-62480142D01*
X130945316Y-62503803D01*
X130939504Y-62527007D01*
X130931446Y-62549529D01*
X130921218Y-62571153D01*
X130908921Y-62591670D01*
X130894671Y-62610883D01*
X130878607Y-62628607D01*
X130860883Y-62644671D01*
X130841670Y-62658921D01*
X130821153Y-62671218D01*
X130799529Y-62681446D01*
X130777007Y-62689504D01*
X130753803Y-62695316D01*
X130730142Y-62698826D01*
X130706250Y-62700000D01*
X130218750Y-62700000D01*
X130194858Y-62698826D01*
X130171197Y-62695316D01*
X130147993Y-62689504D01*
X130125471Y-62681446D01*
X130103847Y-62671218D01*
X130083330Y-62658921D01*
X130064117Y-62644671D01*
X130046393Y-62628607D01*
X130030329Y-62610883D01*
X130016079Y-62591670D01*
X130003782Y-62571153D01*
X129993554Y-62549529D01*
X129985496Y-62527007D01*
X129979684Y-62503803D01*
X129976174Y-62480142D01*
X129975000Y-62456250D01*
X129975000Y-61543750D01*
X129976174Y-61519858D01*
X129979684Y-61496197D01*
X129985496Y-61472993D01*
X129993554Y-61450471D01*
X130003782Y-61428847D01*
X130016079Y-61408330D01*
X130030329Y-61389117D01*
X130046393Y-61371393D01*
X130064117Y-61355329D01*
X130083330Y-61341079D01*
X130103847Y-61328782D01*
X130125471Y-61318554D01*
X130147993Y-61310496D01*
X130171197Y-61304684D01*
X130194858Y-61301174D01*
X130218750Y-61300000D01*
X130706250Y-61300000D01*
X130730142Y-61301174D01*
G37*
G36*
X146505142Y-43701174D02*
G01*
X146528803Y-43704684D01*
X146552007Y-43710496D01*
X146574529Y-43718554D01*
X146596153Y-43728782D01*
X146616670Y-43741079D01*
X146635883Y-43755329D01*
X146653607Y-43771393D01*
X146669671Y-43789117D01*
X146683921Y-43808330D01*
X146696218Y-43828847D01*
X146706446Y-43850471D01*
X146714504Y-43872993D01*
X146720316Y-43896197D01*
X146723826Y-43919858D01*
X146725000Y-43943750D01*
X146725000Y-44856250D01*
X146723826Y-44880142D01*
X146720316Y-44903803D01*
X146714504Y-44927007D01*
X146706446Y-44949529D01*
X146696218Y-44971153D01*
X146683921Y-44991670D01*
X146669671Y-45010883D01*
X146653607Y-45028607D01*
X146635883Y-45044671D01*
X146616670Y-45058921D01*
X146596153Y-45071218D01*
X146574529Y-45081446D01*
X146552007Y-45089504D01*
X146528803Y-45095316D01*
X146505142Y-45098826D01*
X146481250Y-45100000D01*
X145993750Y-45100000D01*
X145969858Y-45098826D01*
X145946197Y-45095316D01*
X145922993Y-45089504D01*
X145900471Y-45081446D01*
X145878847Y-45071218D01*
X145858330Y-45058921D01*
X145839117Y-45044671D01*
X145821393Y-45028607D01*
X145805329Y-45010883D01*
X145791079Y-44991670D01*
X145778782Y-44971153D01*
X145768554Y-44949529D01*
X145760496Y-44927007D01*
X145754684Y-44903803D01*
X145751174Y-44880142D01*
X145750000Y-44856250D01*
X145750000Y-43943750D01*
X145751174Y-43919858D01*
X145754684Y-43896197D01*
X145760496Y-43872993D01*
X145768554Y-43850471D01*
X145778782Y-43828847D01*
X145791079Y-43808330D01*
X145805329Y-43789117D01*
X145821393Y-43771393D01*
X145839117Y-43755329D01*
X145858330Y-43741079D01*
X145878847Y-43728782D01*
X145900471Y-43718554D01*
X145922993Y-43710496D01*
X145946197Y-43704684D01*
X145969858Y-43701174D01*
X145993750Y-43700000D01*
X146481250Y-43700000D01*
X146505142Y-43701174D01*
G37*
G36*
X144630142Y-43701174D02*
G01*
X144653803Y-43704684D01*
X144677007Y-43710496D01*
X144699529Y-43718554D01*
X144721153Y-43728782D01*
X144741670Y-43741079D01*
X144760883Y-43755329D01*
X144778607Y-43771393D01*
X144794671Y-43789117D01*
X144808921Y-43808330D01*
X144821218Y-43828847D01*
X144831446Y-43850471D01*
X144839504Y-43872993D01*
X144845316Y-43896197D01*
X144848826Y-43919858D01*
X144850000Y-43943750D01*
X144850000Y-44856250D01*
X144848826Y-44880142D01*
X144845316Y-44903803D01*
X144839504Y-44927007D01*
X144831446Y-44949529D01*
X144821218Y-44971153D01*
X144808921Y-44991670D01*
X144794671Y-45010883D01*
X144778607Y-45028607D01*
X144760883Y-45044671D01*
X144741670Y-45058921D01*
X144721153Y-45071218D01*
X144699529Y-45081446D01*
X144677007Y-45089504D01*
X144653803Y-45095316D01*
X144630142Y-45098826D01*
X144606250Y-45100000D01*
X144118750Y-45100000D01*
X144094858Y-45098826D01*
X144071197Y-45095316D01*
X144047993Y-45089504D01*
X144025471Y-45081446D01*
X144003847Y-45071218D01*
X143983330Y-45058921D01*
X143964117Y-45044671D01*
X143946393Y-45028607D01*
X143930329Y-45010883D01*
X143916079Y-44991670D01*
X143903782Y-44971153D01*
X143893554Y-44949529D01*
X143885496Y-44927007D01*
X143879684Y-44903803D01*
X143876174Y-44880142D01*
X143875000Y-44856250D01*
X143875000Y-43943750D01*
X143876174Y-43919858D01*
X143879684Y-43896197D01*
X143885496Y-43872993D01*
X143893554Y-43850471D01*
X143903782Y-43828847D01*
X143916079Y-43808330D01*
X143930329Y-43789117D01*
X143946393Y-43771393D01*
X143964117Y-43755329D01*
X143983330Y-43741079D01*
X144003847Y-43728782D01*
X144025471Y-43718554D01*
X144047993Y-43710496D01*
X144071197Y-43704684D01*
X144094858Y-43701174D01*
X144118750Y-43700000D01*
X144606250Y-43700000D01*
X144630142Y-43701174D01*
G37*
G36*
X141867642Y-83401174D02*
G01*
X141891303Y-83404684D01*
X141914507Y-83410496D01*
X141937029Y-83418554D01*
X141958653Y-83428782D01*
X141979170Y-83441079D01*
X141998383Y-83455329D01*
X142016107Y-83471393D01*
X142032171Y-83489117D01*
X142046421Y-83508330D01*
X142058718Y-83528847D01*
X142068946Y-83550471D01*
X142077004Y-83572993D01*
X142082816Y-83596197D01*
X142086326Y-83619858D01*
X142087500Y-83643750D01*
X142087500Y-84556250D01*
X142086326Y-84580142D01*
X142082816Y-84603803D01*
X142077004Y-84627007D01*
X142068946Y-84649529D01*
X142058718Y-84671153D01*
X142046421Y-84691670D01*
X142032171Y-84710883D01*
X142016107Y-84728607D01*
X141998383Y-84744671D01*
X141979170Y-84758921D01*
X141958653Y-84771218D01*
X141937029Y-84781446D01*
X141914507Y-84789504D01*
X141891303Y-84795316D01*
X141867642Y-84798826D01*
X141843750Y-84800000D01*
X141356250Y-84800000D01*
X141332358Y-84798826D01*
X141308697Y-84795316D01*
X141285493Y-84789504D01*
X141262971Y-84781446D01*
X141241347Y-84771218D01*
X141220830Y-84758921D01*
X141201617Y-84744671D01*
X141183893Y-84728607D01*
X141167829Y-84710883D01*
X141153579Y-84691670D01*
X141141282Y-84671153D01*
X141131054Y-84649529D01*
X141122996Y-84627007D01*
X141117184Y-84603803D01*
X141113674Y-84580142D01*
X141112500Y-84556250D01*
X141112500Y-83643750D01*
X141113674Y-83619858D01*
X141117184Y-83596197D01*
X141122996Y-83572993D01*
X141131054Y-83550471D01*
X141141282Y-83528847D01*
X141153579Y-83508330D01*
X141167829Y-83489117D01*
X141183893Y-83471393D01*
X141201617Y-83455329D01*
X141220830Y-83441079D01*
X141241347Y-83428782D01*
X141262971Y-83418554D01*
X141285493Y-83410496D01*
X141308697Y-83404684D01*
X141332358Y-83401174D01*
X141356250Y-83400000D01*
X141843750Y-83400000D01*
X141867642Y-83401174D01*
G37*
G36*
X139992642Y-83401174D02*
G01*
X140016303Y-83404684D01*
X140039507Y-83410496D01*
X140062029Y-83418554D01*
X140083653Y-83428782D01*
X140104170Y-83441079D01*
X140123383Y-83455329D01*
X140141107Y-83471393D01*
X140157171Y-83489117D01*
X140171421Y-83508330D01*
X140183718Y-83528847D01*
X140193946Y-83550471D01*
X140202004Y-83572993D01*
X140207816Y-83596197D01*
X140211326Y-83619858D01*
X140212500Y-83643750D01*
X140212500Y-84556250D01*
X140211326Y-84580142D01*
X140207816Y-84603803D01*
X140202004Y-84627007D01*
X140193946Y-84649529D01*
X140183718Y-84671153D01*
X140171421Y-84691670D01*
X140157171Y-84710883D01*
X140141107Y-84728607D01*
X140123383Y-84744671D01*
X140104170Y-84758921D01*
X140083653Y-84771218D01*
X140062029Y-84781446D01*
X140039507Y-84789504D01*
X140016303Y-84795316D01*
X139992642Y-84798826D01*
X139968750Y-84800000D01*
X139481250Y-84800000D01*
X139457358Y-84798826D01*
X139433697Y-84795316D01*
X139410493Y-84789504D01*
X139387971Y-84781446D01*
X139366347Y-84771218D01*
X139345830Y-84758921D01*
X139326617Y-84744671D01*
X139308893Y-84728607D01*
X139292829Y-84710883D01*
X139278579Y-84691670D01*
X139266282Y-84671153D01*
X139256054Y-84649529D01*
X139247996Y-84627007D01*
X139242184Y-84603803D01*
X139238674Y-84580142D01*
X139237500Y-84556250D01*
X139237500Y-83643750D01*
X139238674Y-83619858D01*
X139242184Y-83596197D01*
X139247996Y-83572993D01*
X139256054Y-83550471D01*
X139266282Y-83528847D01*
X139278579Y-83508330D01*
X139292829Y-83489117D01*
X139308893Y-83471393D01*
X139326617Y-83455329D01*
X139345830Y-83441079D01*
X139366347Y-83428782D01*
X139387971Y-83418554D01*
X139410493Y-83410496D01*
X139433697Y-83404684D01*
X139457358Y-83401174D01*
X139481250Y-83400000D01*
X139968750Y-83400000D01*
X139992642Y-83401174D01*
G37*
G36*
X135930142Y-83401174D02*
G01*
X135953803Y-83404684D01*
X135977007Y-83410496D01*
X135999529Y-83418554D01*
X136021153Y-83428782D01*
X136041670Y-83441079D01*
X136060883Y-83455329D01*
X136078607Y-83471393D01*
X136094671Y-83489117D01*
X136108921Y-83508330D01*
X136121218Y-83528847D01*
X136131446Y-83550471D01*
X136139504Y-83572993D01*
X136145316Y-83596197D01*
X136148826Y-83619858D01*
X136150000Y-83643750D01*
X136150000Y-84556250D01*
X136148826Y-84580142D01*
X136145316Y-84603803D01*
X136139504Y-84627007D01*
X136131446Y-84649529D01*
X136121218Y-84671153D01*
X136108921Y-84691670D01*
X136094671Y-84710883D01*
X136078607Y-84728607D01*
X136060883Y-84744671D01*
X136041670Y-84758921D01*
X136021153Y-84771218D01*
X135999529Y-84781446D01*
X135977007Y-84789504D01*
X135953803Y-84795316D01*
X135930142Y-84798826D01*
X135906250Y-84800000D01*
X135418750Y-84800000D01*
X135394858Y-84798826D01*
X135371197Y-84795316D01*
X135347993Y-84789504D01*
X135325471Y-84781446D01*
X135303847Y-84771218D01*
X135283330Y-84758921D01*
X135264117Y-84744671D01*
X135246393Y-84728607D01*
X135230329Y-84710883D01*
X135216079Y-84691670D01*
X135203782Y-84671153D01*
X135193554Y-84649529D01*
X135185496Y-84627007D01*
X135179684Y-84603803D01*
X135176174Y-84580142D01*
X135175000Y-84556250D01*
X135175000Y-83643750D01*
X135176174Y-83619858D01*
X135179684Y-83596197D01*
X135185496Y-83572993D01*
X135193554Y-83550471D01*
X135203782Y-83528847D01*
X135216079Y-83508330D01*
X135230329Y-83489117D01*
X135246393Y-83471393D01*
X135264117Y-83455329D01*
X135283330Y-83441079D01*
X135303847Y-83428782D01*
X135325471Y-83418554D01*
X135347993Y-83410496D01*
X135371197Y-83404684D01*
X135394858Y-83401174D01*
X135418750Y-83400000D01*
X135906250Y-83400000D01*
X135930142Y-83401174D01*
G37*
G36*
X137805142Y-83401174D02*
G01*
X137828803Y-83404684D01*
X137852007Y-83410496D01*
X137874529Y-83418554D01*
X137896153Y-83428782D01*
X137916670Y-83441079D01*
X137935883Y-83455329D01*
X137953607Y-83471393D01*
X137969671Y-83489117D01*
X137983921Y-83508330D01*
X137996218Y-83528847D01*
X138006446Y-83550471D01*
X138014504Y-83572993D01*
X138020316Y-83596197D01*
X138023826Y-83619858D01*
X138025000Y-83643750D01*
X138025000Y-84556250D01*
X138023826Y-84580142D01*
X138020316Y-84603803D01*
X138014504Y-84627007D01*
X138006446Y-84649529D01*
X137996218Y-84671153D01*
X137983921Y-84691670D01*
X137969671Y-84710883D01*
X137953607Y-84728607D01*
X137935883Y-84744671D01*
X137916670Y-84758921D01*
X137896153Y-84771218D01*
X137874529Y-84781446D01*
X137852007Y-84789504D01*
X137828803Y-84795316D01*
X137805142Y-84798826D01*
X137781250Y-84800000D01*
X137293750Y-84800000D01*
X137269858Y-84798826D01*
X137246197Y-84795316D01*
X137222993Y-84789504D01*
X137200471Y-84781446D01*
X137178847Y-84771218D01*
X137158330Y-84758921D01*
X137139117Y-84744671D01*
X137121393Y-84728607D01*
X137105329Y-84710883D01*
X137091079Y-84691670D01*
X137078782Y-84671153D01*
X137068554Y-84649529D01*
X137060496Y-84627007D01*
X137054684Y-84603803D01*
X137051174Y-84580142D01*
X137050000Y-84556250D01*
X137050000Y-83643750D01*
X137051174Y-83619858D01*
X137054684Y-83596197D01*
X137060496Y-83572993D01*
X137068554Y-83550471D01*
X137078782Y-83528847D01*
X137091079Y-83508330D01*
X137105329Y-83489117D01*
X137121393Y-83471393D01*
X137139117Y-83455329D01*
X137158330Y-83441079D01*
X137178847Y-83428782D01*
X137200471Y-83418554D01*
X137222993Y-83410496D01*
X137246197Y-83404684D01*
X137269858Y-83401174D01*
X137293750Y-83400000D01*
X137781250Y-83400000D01*
X137805142Y-83401174D01*
G37*
G36*
X123767642Y-38801174D02*
G01*
X123791303Y-38804684D01*
X123814507Y-38810496D01*
X123837029Y-38818554D01*
X123858653Y-38828782D01*
X123879170Y-38841079D01*
X123898383Y-38855329D01*
X123916107Y-38871393D01*
X123932171Y-38889117D01*
X123946421Y-38908330D01*
X123958718Y-38928847D01*
X123968946Y-38950471D01*
X123977004Y-38972993D01*
X123982816Y-38996197D01*
X123986326Y-39019858D01*
X123987500Y-39043750D01*
X123987500Y-39956250D01*
X123986326Y-39980142D01*
X123982816Y-40003803D01*
X123977004Y-40027007D01*
X123968946Y-40049529D01*
X123958718Y-40071153D01*
X123946421Y-40091670D01*
X123932171Y-40110883D01*
X123916107Y-40128607D01*
X123898383Y-40144671D01*
X123879170Y-40158921D01*
X123858653Y-40171218D01*
X123837029Y-40181446D01*
X123814507Y-40189504D01*
X123791303Y-40195316D01*
X123767642Y-40198826D01*
X123743750Y-40200000D01*
X123256250Y-40200000D01*
X123232358Y-40198826D01*
X123208697Y-40195316D01*
X123185493Y-40189504D01*
X123162971Y-40181446D01*
X123141347Y-40171218D01*
X123120830Y-40158921D01*
X123101617Y-40144671D01*
X123083893Y-40128607D01*
X123067829Y-40110883D01*
X123053579Y-40091670D01*
X123041282Y-40071153D01*
X123031054Y-40049529D01*
X123022996Y-40027007D01*
X123017184Y-40003803D01*
X123013674Y-39980142D01*
X123012500Y-39956250D01*
X123012500Y-39043750D01*
X123013674Y-39019858D01*
X123017184Y-38996197D01*
X123022996Y-38972993D01*
X123031054Y-38950471D01*
X123041282Y-38928847D01*
X123053579Y-38908330D01*
X123067829Y-38889117D01*
X123083893Y-38871393D01*
X123101617Y-38855329D01*
X123120830Y-38841079D01*
X123141347Y-38828782D01*
X123162971Y-38818554D01*
X123185493Y-38810496D01*
X123208697Y-38804684D01*
X123232358Y-38801174D01*
X123256250Y-38800000D01*
X123743750Y-38800000D01*
X123767642Y-38801174D01*
G37*
G36*
X121892642Y-38801174D02*
G01*
X121916303Y-38804684D01*
X121939507Y-38810496D01*
X121962029Y-38818554D01*
X121983653Y-38828782D01*
X122004170Y-38841079D01*
X122023383Y-38855329D01*
X122041107Y-38871393D01*
X122057171Y-38889117D01*
X122071421Y-38908330D01*
X122083718Y-38928847D01*
X122093946Y-38950471D01*
X122102004Y-38972993D01*
X122107816Y-38996197D01*
X122111326Y-39019858D01*
X122112500Y-39043750D01*
X122112500Y-39956250D01*
X122111326Y-39980142D01*
X122107816Y-40003803D01*
X122102004Y-40027007D01*
X122093946Y-40049529D01*
X122083718Y-40071153D01*
X122071421Y-40091670D01*
X122057171Y-40110883D01*
X122041107Y-40128607D01*
X122023383Y-40144671D01*
X122004170Y-40158921D01*
X121983653Y-40171218D01*
X121962029Y-40181446D01*
X121939507Y-40189504D01*
X121916303Y-40195316D01*
X121892642Y-40198826D01*
X121868750Y-40200000D01*
X121381250Y-40200000D01*
X121357358Y-40198826D01*
X121333697Y-40195316D01*
X121310493Y-40189504D01*
X121287971Y-40181446D01*
X121266347Y-40171218D01*
X121245830Y-40158921D01*
X121226617Y-40144671D01*
X121208893Y-40128607D01*
X121192829Y-40110883D01*
X121178579Y-40091670D01*
X121166282Y-40071153D01*
X121156054Y-40049529D01*
X121147996Y-40027007D01*
X121142184Y-40003803D01*
X121138674Y-39980142D01*
X121137500Y-39956250D01*
X121137500Y-39043750D01*
X121138674Y-39019858D01*
X121142184Y-38996197D01*
X121147996Y-38972993D01*
X121156054Y-38950471D01*
X121166282Y-38928847D01*
X121178579Y-38908330D01*
X121192829Y-38889117D01*
X121208893Y-38871393D01*
X121226617Y-38855329D01*
X121245830Y-38841079D01*
X121266347Y-38828782D01*
X121287971Y-38818554D01*
X121310493Y-38810496D01*
X121333697Y-38804684D01*
X121357358Y-38801174D01*
X121381250Y-38800000D01*
X121868750Y-38800000D01*
X121892642Y-38801174D01*
G37*
G36*
X121880142Y-40901174D02*
G01*
X121903803Y-40904684D01*
X121927007Y-40910496D01*
X121949529Y-40918554D01*
X121971153Y-40928782D01*
X121991670Y-40941079D01*
X122010883Y-40955329D01*
X122028607Y-40971393D01*
X122044671Y-40989117D01*
X122058921Y-41008330D01*
X122071218Y-41028847D01*
X122081446Y-41050471D01*
X122089504Y-41072993D01*
X122095316Y-41096197D01*
X122098826Y-41119858D01*
X122100000Y-41143750D01*
X122100000Y-42056250D01*
X122098826Y-42080142D01*
X122095316Y-42103803D01*
X122089504Y-42127007D01*
X122081446Y-42149529D01*
X122071218Y-42171153D01*
X122058921Y-42191670D01*
X122044671Y-42210883D01*
X122028607Y-42228607D01*
X122010883Y-42244671D01*
X121991670Y-42258921D01*
X121971153Y-42271218D01*
X121949529Y-42281446D01*
X121927007Y-42289504D01*
X121903803Y-42295316D01*
X121880142Y-42298826D01*
X121856250Y-42300000D01*
X121368750Y-42300000D01*
X121344858Y-42298826D01*
X121321197Y-42295316D01*
X121297993Y-42289504D01*
X121275471Y-42281446D01*
X121253847Y-42271218D01*
X121233330Y-42258921D01*
X121214117Y-42244671D01*
X121196393Y-42228607D01*
X121180329Y-42210883D01*
X121166079Y-42191670D01*
X121153782Y-42171153D01*
X121143554Y-42149529D01*
X121135496Y-42127007D01*
X121129684Y-42103803D01*
X121126174Y-42080142D01*
X121125000Y-42056250D01*
X121125000Y-41143750D01*
X121126174Y-41119858D01*
X121129684Y-41096197D01*
X121135496Y-41072993D01*
X121143554Y-41050471D01*
X121153782Y-41028847D01*
X121166079Y-41008330D01*
X121180329Y-40989117D01*
X121196393Y-40971393D01*
X121214117Y-40955329D01*
X121233330Y-40941079D01*
X121253847Y-40928782D01*
X121275471Y-40918554D01*
X121297993Y-40910496D01*
X121321197Y-40904684D01*
X121344858Y-40901174D01*
X121368750Y-40900000D01*
X121856250Y-40900000D01*
X121880142Y-40901174D01*
G37*
G36*
X123755142Y-40901174D02*
G01*
X123778803Y-40904684D01*
X123802007Y-40910496D01*
X123824529Y-40918554D01*
X123846153Y-40928782D01*
X123866670Y-40941079D01*
X123885883Y-40955329D01*
X123903607Y-40971393D01*
X123919671Y-40989117D01*
X123933921Y-41008330D01*
X123946218Y-41028847D01*
X123956446Y-41050471D01*
X123964504Y-41072993D01*
X123970316Y-41096197D01*
X123973826Y-41119858D01*
X123975000Y-41143750D01*
X123975000Y-42056250D01*
X123973826Y-42080142D01*
X123970316Y-42103803D01*
X123964504Y-42127007D01*
X123956446Y-42149529D01*
X123946218Y-42171153D01*
X123933921Y-42191670D01*
X123919671Y-42210883D01*
X123903607Y-42228607D01*
X123885883Y-42244671D01*
X123866670Y-42258921D01*
X123846153Y-42271218D01*
X123824529Y-42281446D01*
X123802007Y-42289504D01*
X123778803Y-42295316D01*
X123755142Y-42298826D01*
X123731250Y-42300000D01*
X123243750Y-42300000D01*
X123219858Y-42298826D01*
X123196197Y-42295316D01*
X123172993Y-42289504D01*
X123150471Y-42281446D01*
X123128847Y-42271218D01*
X123108330Y-42258921D01*
X123089117Y-42244671D01*
X123071393Y-42228607D01*
X123055329Y-42210883D01*
X123041079Y-42191670D01*
X123028782Y-42171153D01*
X123018554Y-42149529D01*
X123010496Y-42127007D01*
X123004684Y-42103803D01*
X123001174Y-42080142D01*
X123000000Y-42056250D01*
X123000000Y-41143750D01*
X123001174Y-41119858D01*
X123004684Y-41096197D01*
X123010496Y-41072993D01*
X123018554Y-41050471D01*
X123028782Y-41028847D01*
X123041079Y-41008330D01*
X123055329Y-40989117D01*
X123071393Y-40971393D01*
X123089117Y-40955329D01*
X123108330Y-40941079D01*
X123128847Y-40928782D01*
X123150471Y-40918554D01*
X123172993Y-40910496D01*
X123196197Y-40904684D01*
X123219858Y-40901174D01*
X123243750Y-40900000D01*
X123731250Y-40900000D01*
X123755142Y-40901174D01*
G37*
G36*
X133805142Y-83401174D02*
G01*
X133828803Y-83404684D01*
X133852007Y-83410496D01*
X133874529Y-83418554D01*
X133896153Y-83428782D01*
X133916670Y-83441079D01*
X133935883Y-83455329D01*
X133953607Y-83471393D01*
X133969671Y-83489117D01*
X133983921Y-83508330D01*
X133996218Y-83528847D01*
X134006446Y-83550471D01*
X134014504Y-83572993D01*
X134020316Y-83596197D01*
X134023826Y-83619858D01*
X134025000Y-83643750D01*
X134025000Y-84556250D01*
X134023826Y-84580142D01*
X134020316Y-84603803D01*
X134014504Y-84627007D01*
X134006446Y-84649529D01*
X133996218Y-84671153D01*
X133983921Y-84691670D01*
X133969671Y-84710883D01*
X133953607Y-84728607D01*
X133935883Y-84744671D01*
X133916670Y-84758921D01*
X133896153Y-84771218D01*
X133874529Y-84781446D01*
X133852007Y-84789504D01*
X133828803Y-84795316D01*
X133805142Y-84798826D01*
X133781250Y-84800000D01*
X133293750Y-84800000D01*
X133269858Y-84798826D01*
X133246197Y-84795316D01*
X133222993Y-84789504D01*
X133200471Y-84781446D01*
X133178847Y-84771218D01*
X133158330Y-84758921D01*
X133139117Y-84744671D01*
X133121393Y-84728607D01*
X133105329Y-84710883D01*
X133091079Y-84691670D01*
X133078782Y-84671153D01*
X133068554Y-84649529D01*
X133060496Y-84627007D01*
X133054684Y-84603803D01*
X133051174Y-84580142D01*
X133050000Y-84556250D01*
X133050000Y-83643750D01*
X133051174Y-83619858D01*
X133054684Y-83596197D01*
X133060496Y-83572993D01*
X133068554Y-83550471D01*
X133078782Y-83528847D01*
X133091079Y-83508330D01*
X133105329Y-83489117D01*
X133121393Y-83471393D01*
X133139117Y-83455329D01*
X133158330Y-83441079D01*
X133178847Y-83428782D01*
X133200471Y-83418554D01*
X133222993Y-83410496D01*
X133246197Y-83404684D01*
X133269858Y-83401174D01*
X133293750Y-83400000D01*
X133781250Y-83400000D01*
X133805142Y-83401174D01*
G37*
G36*
X131930142Y-83401174D02*
G01*
X131953803Y-83404684D01*
X131977007Y-83410496D01*
X131999529Y-83418554D01*
X132021153Y-83428782D01*
X132041670Y-83441079D01*
X132060883Y-83455329D01*
X132078607Y-83471393D01*
X132094671Y-83489117D01*
X132108921Y-83508330D01*
X132121218Y-83528847D01*
X132131446Y-83550471D01*
X132139504Y-83572993D01*
X132145316Y-83596197D01*
X132148826Y-83619858D01*
X132150000Y-83643750D01*
X132150000Y-84556250D01*
X132148826Y-84580142D01*
X132145316Y-84603803D01*
X132139504Y-84627007D01*
X132131446Y-84649529D01*
X132121218Y-84671153D01*
X132108921Y-84691670D01*
X132094671Y-84710883D01*
X132078607Y-84728607D01*
X132060883Y-84744671D01*
X132041670Y-84758921D01*
X132021153Y-84771218D01*
X131999529Y-84781446D01*
X131977007Y-84789504D01*
X131953803Y-84795316D01*
X131930142Y-84798826D01*
X131906250Y-84800000D01*
X131418750Y-84800000D01*
X131394858Y-84798826D01*
X131371197Y-84795316D01*
X131347993Y-84789504D01*
X131325471Y-84781446D01*
X131303847Y-84771218D01*
X131283330Y-84758921D01*
X131264117Y-84744671D01*
X131246393Y-84728607D01*
X131230329Y-84710883D01*
X131216079Y-84691670D01*
X131203782Y-84671153D01*
X131193554Y-84649529D01*
X131185496Y-84627007D01*
X131179684Y-84603803D01*
X131176174Y-84580142D01*
X131175000Y-84556250D01*
X131175000Y-83643750D01*
X131176174Y-83619858D01*
X131179684Y-83596197D01*
X131185496Y-83572993D01*
X131193554Y-83550471D01*
X131203782Y-83528847D01*
X131216079Y-83508330D01*
X131230329Y-83489117D01*
X131246393Y-83471393D01*
X131264117Y-83455329D01*
X131283330Y-83441079D01*
X131303847Y-83428782D01*
X131325471Y-83418554D01*
X131347993Y-83410496D01*
X131371197Y-83404684D01*
X131394858Y-83401174D01*
X131418750Y-83400000D01*
X131906250Y-83400000D01*
X131930142Y-83401174D01*
G37*
G36*
X147005142Y-55501174D02*
G01*
X147028803Y-55504684D01*
X147052007Y-55510496D01*
X147074529Y-55518554D01*
X147096153Y-55528782D01*
X147116670Y-55541079D01*
X147135883Y-55555329D01*
X147153607Y-55571393D01*
X147169671Y-55589117D01*
X147183921Y-55608330D01*
X147196218Y-55628847D01*
X147206446Y-55650471D01*
X147214504Y-55672993D01*
X147220316Y-55696197D01*
X147223826Y-55719858D01*
X147225000Y-55743750D01*
X147225000Y-56656250D01*
X147223826Y-56680142D01*
X147220316Y-56703803D01*
X147214504Y-56727007D01*
X147206446Y-56749529D01*
X147196218Y-56771153D01*
X147183921Y-56791670D01*
X147169671Y-56810883D01*
X147153607Y-56828607D01*
X147135883Y-56844671D01*
X147116670Y-56858921D01*
X147096153Y-56871218D01*
X147074529Y-56881446D01*
X147052007Y-56889504D01*
X147028803Y-56895316D01*
X147005142Y-56898826D01*
X146981250Y-56900000D01*
X146493750Y-56900000D01*
X146469858Y-56898826D01*
X146446197Y-56895316D01*
X146422993Y-56889504D01*
X146400471Y-56881446D01*
X146378847Y-56871218D01*
X146358330Y-56858921D01*
X146339117Y-56844671D01*
X146321393Y-56828607D01*
X146305329Y-56810883D01*
X146291079Y-56791670D01*
X146278782Y-56771153D01*
X146268554Y-56749529D01*
X146260496Y-56727007D01*
X146254684Y-56703803D01*
X146251174Y-56680142D01*
X146250000Y-56656250D01*
X146250000Y-55743750D01*
X146251174Y-55719858D01*
X146254684Y-55696197D01*
X146260496Y-55672993D01*
X146268554Y-55650471D01*
X146278782Y-55628847D01*
X146291079Y-55608330D01*
X146305329Y-55589117D01*
X146321393Y-55571393D01*
X146339117Y-55555329D01*
X146358330Y-55541079D01*
X146378847Y-55528782D01*
X146400471Y-55518554D01*
X146422993Y-55510496D01*
X146446197Y-55504684D01*
X146469858Y-55501174D01*
X146493750Y-55500000D01*
X146981250Y-55500000D01*
X147005142Y-55501174D01*
G37*
G36*
X145130142Y-55501174D02*
G01*
X145153803Y-55504684D01*
X145177007Y-55510496D01*
X145199529Y-55518554D01*
X145221153Y-55528782D01*
X145241670Y-55541079D01*
X145260883Y-55555329D01*
X145278607Y-55571393D01*
X145294671Y-55589117D01*
X145308921Y-55608330D01*
X145321218Y-55628847D01*
X145331446Y-55650471D01*
X145339504Y-55672993D01*
X145345316Y-55696197D01*
X145348826Y-55719858D01*
X145350000Y-55743750D01*
X145350000Y-56656250D01*
X145348826Y-56680142D01*
X145345316Y-56703803D01*
X145339504Y-56727007D01*
X145331446Y-56749529D01*
X145321218Y-56771153D01*
X145308921Y-56791670D01*
X145294671Y-56810883D01*
X145278607Y-56828607D01*
X145260883Y-56844671D01*
X145241670Y-56858921D01*
X145221153Y-56871218D01*
X145199529Y-56881446D01*
X145177007Y-56889504D01*
X145153803Y-56895316D01*
X145130142Y-56898826D01*
X145106250Y-56900000D01*
X144618750Y-56900000D01*
X144594858Y-56898826D01*
X144571197Y-56895316D01*
X144547993Y-56889504D01*
X144525471Y-56881446D01*
X144503847Y-56871218D01*
X144483330Y-56858921D01*
X144464117Y-56844671D01*
X144446393Y-56828607D01*
X144430329Y-56810883D01*
X144416079Y-56791670D01*
X144403782Y-56771153D01*
X144393554Y-56749529D01*
X144385496Y-56727007D01*
X144379684Y-56703803D01*
X144376174Y-56680142D01*
X144375000Y-56656250D01*
X144375000Y-55743750D01*
X144376174Y-55719858D01*
X144379684Y-55696197D01*
X144385496Y-55672993D01*
X144393554Y-55650471D01*
X144403782Y-55628847D01*
X144416079Y-55608330D01*
X144430329Y-55589117D01*
X144446393Y-55571393D01*
X144464117Y-55555329D01*
X144483330Y-55541079D01*
X144503847Y-55528782D01*
X144525471Y-55518554D01*
X144547993Y-55510496D01*
X144571197Y-55504684D01*
X144594858Y-55501174D01*
X144618750Y-55500000D01*
X145106250Y-55500000D01*
X145130142Y-55501174D01*
G37*
G36*
X138299505Y-86101204D02*
G01*
X138323773Y-86104804D01*
X138347572Y-86110765D01*
X138370671Y-86119030D01*
X138392850Y-86129520D01*
X138413893Y-86142132D01*
X138433599Y-86156747D01*
X138451777Y-86173223D01*
X138468253Y-86191401D01*
X138482868Y-86211107D01*
X138495480Y-86232150D01*
X138505970Y-86254329D01*
X138514235Y-86277428D01*
X138520196Y-86301227D01*
X138523796Y-86325495D01*
X138525000Y-86349999D01*
X138525000Y-89250001D01*
X138523796Y-89274505D01*
X138520196Y-89298773D01*
X138514235Y-89322572D01*
X138505970Y-89345671D01*
X138495480Y-89367850D01*
X138482868Y-89388893D01*
X138468253Y-89408599D01*
X138451777Y-89426777D01*
X138433599Y-89443253D01*
X138413893Y-89457868D01*
X138392850Y-89470480D01*
X138370671Y-89480970D01*
X138347572Y-89489235D01*
X138323773Y-89495196D01*
X138299505Y-89498796D01*
X138275001Y-89500000D01*
X137649999Y-89500000D01*
X137625495Y-89498796D01*
X137601227Y-89495196D01*
X137577428Y-89489235D01*
X137554329Y-89480970D01*
X137532150Y-89470480D01*
X137511107Y-89457868D01*
X137491401Y-89443253D01*
X137473223Y-89426777D01*
X137456747Y-89408599D01*
X137442132Y-89388893D01*
X137429520Y-89367850D01*
X137419030Y-89345671D01*
X137410765Y-89322572D01*
X137404804Y-89298773D01*
X137401204Y-89274505D01*
X137400000Y-89250001D01*
X137400000Y-86349999D01*
X137401204Y-86325495D01*
X137404804Y-86301227D01*
X137410765Y-86277428D01*
X137419030Y-86254329D01*
X137429520Y-86232150D01*
X137442132Y-86211107D01*
X137456747Y-86191401D01*
X137473223Y-86173223D01*
X137491401Y-86156747D01*
X137511107Y-86142132D01*
X137532150Y-86129520D01*
X137554329Y-86119030D01*
X137577428Y-86110765D01*
X137601227Y-86104804D01*
X137625495Y-86101204D01*
X137649999Y-86100000D01*
X138275001Y-86100000D01*
X138299505Y-86101204D01*
G37*
G36*
X142574505Y-86101204D02*
G01*
X142598773Y-86104804D01*
X142622572Y-86110765D01*
X142645671Y-86119030D01*
X142667850Y-86129520D01*
X142688893Y-86142132D01*
X142708599Y-86156747D01*
X142726777Y-86173223D01*
X142743253Y-86191401D01*
X142757868Y-86211107D01*
X142770480Y-86232150D01*
X142780970Y-86254329D01*
X142789235Y-86277428D01*
X142795196Y-86301227D01*
X142798796Y-86325495D01*
X142800000Y-86349999D01*
X142800000Y-89250001D01*
X142798796Y-89274505D01*
X142795196Y-89298773D01*
X142789235Y-89322572D01*
X142780970Y-89345671D01*
X142770480Y-89367850D01*
X142757868Y-89388893D01*
X142743253Y-89408599D01*
X142726777Y-89426777D01*
X142708599Y-89443253D01*
X142688893Y-89457868D01*
X142667850Y-89470480D01*
X142645671Y-89480970D01*
X142622572Y-89489235D01*
X142598773Y-89495196D01*
X142574505Y-89498796D01*
X142550001Y-89500000D01*
X141924999Y-89500000D01*
X141900495Y-89498796D01*
X141876227Y-89495196D01*
X141852428Y-89489235D01*
X141829329Y-89480970D01*
X141807150Y-89470480D01*
X141786107Y-89457868D01*
X141766401Y-89443253D01*
X141748223Y-89426777D01*
X141731747Y-89408599D01*
X141717132Y-89388893D01*
X141704520Y-89367850D01*
X141694030Y-89345671D01*
X141685765Y-89322572D01*
X141679804Y-89298773D01*
X141676204Y-89274505D01*
X141675000Y-89250001D01*
X141675000Y-86349999D01*
X141676204Y-86325495D01*
X141679804Y-86301227D01*
X141685765Y-86277428D01*
X141694030Y-86254329D01*
X141704520Y-86232150D01*
X141717132Y-86211107D01*
X141731747Y-86191401D01*
X141748223Y-86173223D01*
X141766401Y-86156747D01*
X141786107Y-86142132D01*
X141807150Y-86129520D01*
X141829329Y-86119030D01*
X141852428Y-86110765D01*
X141876227Y-86104804D01*
X141900495Y-86101204D01*
X141924999Y-86100000D01*
X142550001Y-86100000D01*
X142574505Y-86101204D01*
G37*
G36*
X131299505Y-86101204D02*
G01*
X131323773Y-86104804D01*
X131347572Y-86110765D01*
X131370671Y-86119030D01*
X131392850Y-86129520D01*
X131413893Y-86142132D01*
X131433599Y-86156747D01*
X131451777Y-86173223D01*
X131468253Y-86191401D01*
X131482868Y-86211107D01*
X131495480Y-86232150D01*
X131505970Y-86254329D01*
X131514235Y-86277428D01*
X131520196Y-86301227D01*
X131523796Y-86325495D01*
X131525000Y-86349999D01*
X131525000Y-89250001D01*
X131523796Y-89274505D01*
X131520196Y-89298773D01*
X131514235Y-89322572D01*
X131505970Y-89345671D01*
X131495480Y-89367850D01*
X131482868Y-89388893D01*
X131468253Y-89408599D01*
X131451777Y-89426777D01*
X131433599Y-89443253D01*
X131413893Y-89457868D01*
X131392850Y-89470480D01*
X131370671Y-89480970D01*
X131347572Y-89489235D01*
X131323773Y-89495196D01*
X131299505Y-89498796D01*
X131275001Y-89500000D01*
X130649999Y-89500000D01*
X130625495Y-89498796D01*
X130601227Y-89495196D01*
X130577428Y-89489235D01*
X130554329Y-89480970D01*
X130532150Y-89470480D01*
X130511107Y-89457868D01*
X130491401Y-89443253D01*
X130473223Y-89426777D01*
X130456747Y-89408599D01*
X130442132Y-89388893D01*
X130429520Y-89367850D01*
X130419030Y-89345671D01*
X130410765Y-89322572D01*
X130404804Y-89298773D01*
X130401204Y-89274505D01*
X130400000Y-89250001D01*
X130400000Y-86349999D01*
X130401204Y-86325495D01*
X130404804Y-86301227D01*
X130410765Y-86277428D01*
X130419030Y-86254329D01*
X130429520Y-86232150D01*
X130442132Y-86211107D01*
X130456747Y-86191401D01*
X130473223Y-86173223D01*
X130491401Y-86156747D01*
X130511107Y-86142132D01*
X130532150Y-86129520D01*
X130554329Y-86119030D01*
X130577428Y-86110765D01*
X130601227Y-86104804D01*
X130625495Y-86101204D01*
X130649999Y-86100000D01*
X131275001Y-86100000D01*
X131299505Y-86101204D01*
G37*
G36*
X135574505Y-86101204D02*
G01*
X135598773Y-86104804D01*
X135622572Y-86110765D01*
X135645671Y-86119030D01*
X135667850Y-86129520D01*
X135688893Y-86142132D01*
X135708599Y-86156747D01*
X135726777Y-86173223D01*
X135743253Y-86191401D01*
X135757868Y-86211107D01*
X135770480Y-86232150D01*
X135780970Y-86254329D01*
X135789235Y-86277428D01*
X135795196Y-86301227D01*
X135798796Y-86325495D01*
X135800000Y-86349999D01*
X135800000Y-89250001D01*
X135798796Y-89274505D01*
X135795196Y-89298773D01*
X135789235Y-89322572D01*
X135780970Y-89345671D01*
X135770480Y-89367850D01*
X135757868Y-89388893D01*
X135743253Y-89408599D01*
X135726777Y-89426777D01*
X135708599Y-89443253D01*
X135688893Y-89457868D01*
X135667850Y-89470480D01*
X135645671Y-89480970D01*
X135622572Y-89489235D01*
X135598773Y-89495196D01*
X135574505Y-89498796D01*
X135550001Y-89500000D01*
X134924999Y-89500000D01*
X134900495Y-89498796D01*
X134876227Y-89495196D01*
X134852428Y-89489235D01*
X134829329Y-89480970D01*
X134807150Y-89470480D01*
X134786107Y-89457868D01*
X134766401Y-89443253D01*
X134748223Y-89426777D01*
X134731747Y-89408599D01*
X134717132Y-89388893D01*
X134704520Y-89367850D01*
X134694030Y-89345671D01*
X134685765Y-89322572D01*
X134679804Y-89298773D01*
X134676204Y-89274505D01*
X134675000Y-89250001D01*
X134675000Y-86349999D01*
X134676204Y-86325495D01*
X134679804Y-86301227D01*
X134685765Y-86277428D01*
X134694030Y-86254329D01*
X134704520Y-86232150D01*
X134717132Y-86211107D01*
X134731747Y-86191401D01*
X134748223Y-86173223D01*
X134766401Y-86156747D01*
X134786107Y-86142132D01*
X134807150Y-86129520D01*
X134829329Y-86119030D01*
X134852428Y-86110765D01*
X134876227Y-86104804D01*
X134900495Y-86101204D01*
X134924999Y-86100000D01*
X135550001Y-86100000D01*
X135574505Y-86101204D01*
G37*
G36*
X120649505Y-67826204D02*
G01*
X120673773Y-67829804D01*
X120697572Y-67835765D01*
X120720671Y-67844030D01*
X120742850Y-67854520D01*
X120763893Y-67867132D01*
X120783599Y-67881747D01*
X120801777Y-67898223D01*
X120818253Y-67916401D01*
X120832868Y-67936107D01*
X120845480Y-67957150D01*
X120855970Y-67979329D01*
X120864235Y-68002428D01*
X120870196Y-68026227D01*
X120873796Y-68050495D01*
X120875000Y-68074999D01*
X120875000Y-70925001D01*
X120873796Y-70949505D01*
X120870196Y-70973773D01*
X120864235Y-70997572D01*
X120855970Y-71020671D01*
X120845480Y-71042850D01*
X120832868Y-71063893D01*
X120818253Y-71083599D01*
X120801777Y-71101777D01*
X120783599Y-71118253D01*
X120763893Y-71132868D01*
X120742850Y-71145480D01*
X120720671Y-71155970D01*
X120697572Y-71164235D01*
X120673773Y-71170196D01*
X120649505Y-71173796D01*
X120625001Y-71175000D01*
X119774999Y-71175000D01*
X119750495Y-71173796D01*
X119726227Y-71170196D01*
X119702428Y-71164235D01*
X119679329Y-71155970D01*
X119657150Y-71145480D01*
X119636107Y-71132868D01*
X119616401Y-71118253D01*
X119598223Y-71101777D01*
X119581747Y-71083599D01*
X119567132Y-71063893D01*
X119554520Y-71042850D01*
X119544030Y-71020671D01*
X119535765Y-70997572D01*
X119529804Y-70973773D01*
X119526204Y-70949505D01*
X119525000Y-70925001D01*
X119525000Y-68074999D01*
X119526204Y-68050495D01*
X119529804Y-68026227D01*
X119535765Y-68002428D01*
X119544030Y-67979329D01*
X119554520Y-67957150D01*
X119567132Y-67936107D01*
X119581747Y-67916401D01*
X119598223Y-67898223D01*
X119616401Y-67881747D01*
X119636107Y-67867132D01*
X119657150Y-67854520D01*
X119679329Y-67844030D01*
X119702428Y-67835765D01*
X119726227Y-67829804D01*
X119750495Y-67826204D01*
X119774999Y-67825000D01*
X120625001Y-67825000D01*
X120649505Y-67826204D01*
G37*
G36*
X126449505Y-67826204D02*
G01*
X126473773Y-67829804D01*
X126497572Y-67835765D01*
X126520671Y-67844030D01*
X126542850Y-67854520D01*
X126563893Y-67867132D01*
X126583599Y-67881747D01*
X126601777Y-67898223D01*
X126618253Y-67916401D01*
X126632868Y-67936107D01*
X126645480Y-67957150D01*
X126655970Y-67979329D01*
X126664235Y-68002428D01*
X126670196Y-68026227D01*
X126673796Y-68050495D01*
X126675000Y-68074999D01*
X126675000Y-70925001D01*
X126673796Y-70949505D01*
X126670196Y-70973773D01*
X126664235Y-70997572D01*
X126655970Y-71020671D01*
X126645480Y-71042850D01*
X126632868Y-71063893D01*
X126618253Y-71083599D01*
X126601777Y-71101777D01*
X126583599Y-71118253D01*
X126563893Y-71132868D01*
X126542850Y-71145480D01*
X126520671Y-71155970D01*
X126497572Y-71164235D01*
X126473773Y-71170196D01*
X126449505Y-71173796D01*
X126425001Y-71175000D01*
X125574999Y-71175000D01*
X125550495Y-71173796D01*
X125526227Y-71170196D01*
X125502428Y-71164235D01*
X125479329Y-71155970D01*
X125457150Y-71145480D01*
X125436107Y-71132868D01*
X125416401Y-71118253D01*
X125398223Y-71101777D01*
X125381747Y-71083599D01*
X125367132Y-71063893D01*
X125354520Y-71042850D01*
X125344030Y-71020671D01*
X125335765Y-70997572D01*
X125329804Y-70973773D01*
X125326204Y-70949505D01*
X125325000Y-70925001D01*
X125325000Y-68074999D01*
X125326204Y-68050495D01*
X125329804Y-68026227D01*
X125335765Y-68002428D01*
X125344030Y-67979329D01*
X125354520Y-67957150D01*
X125367132Y-67936107D01*
X125381747Y-67916401D01*
X125398223Y-67898223D01*
X125416401Y-67881747D01*
X125436107Y-67867132D01*
X125457150Y-67854520D01*
X125479329Y-67844030D01*
X125502428Y-67835765D01*
X125526227Y-67829804D01*
X125550495Y-67826204D01*
X125574999Y-67825000D01*
X126425001Y-67825000D01*
X126449505Y-67826204D01*
G37*
G36*
X126449505Y-72026204D02*
G01*
X126473773Y-72029804D01*
X126497572Y-72035765D01*
X126520671Y-72044030D01*
X126542850Y-72054520D01*
X126563893Y-72067132D01*
X126583599Y-72081747D01*
X126601777Y-72098223D01*
X126618253Y-72116401D01*
X126632868Y-72136107D01*
X126645480Y-72157150D01*
X126655970Y-72179329D01*
X126664235Y-72202428D01*
X126670196Y-72226227D01*
X126673796Y-72250495D01*
X126675000Y-72274999D01*
X126675000Y-75125001D01*
X126673796Y-75149505D01*
X126670196Y-75173773D01*
X126664235Y-75197572D01*
X126655970Y-75220671D01*
X126645480Y-75242850D01*
X126632868Y-75263893D01*
X126618253Y-75283599D01*
X126601777Y-75301777D01*
X126583599Y-75318253D01*
X126563893Y-75332868D01*
X126542850Y-75345480D01*
X126520671Y-75355970D01*
X126497572Y-75364235D01*
X126473773Y-75370196D01*
X126449505Y-75373796D01*
X126425001Y-75375000D01*
X125574999Y-75375000D01*
X125550495Y-75373796D01*
X125526227Y-75370196D01*
X125502428Y-75364235D01*
X125479329Y-75355970D01*
X125457150Y-75345480D01*
X125436107Y-75332868D01*
X125416401Y-75318253D01*
X125398223Y-75301777D01*
X125381747Y-75283599D01*
X125367132Y-75263893D01*
X125354520Y-75242850D01*
X125344030Y-75220671D01*
X125335765Y-75197572D01*
X125329804Y-75173773D01*
X125326204Y-75149505D01*
X125325000Y-75125001D01*
X125325000Y-72274999D01*
X125326204Y-72250495D01*
X125329804Y-72226227D01*
X125335765Y-72202428D01*
X125344030Y-72179329D01*
X125354520Y-72157150D01*
X125367132Y-72136107D01*
X125381747Y-72116401D01*
X125398223Y-72098223D01*
X125416401Y-72081747D01*
X125436107Y-72067132D01*
X125457150Y-72054520D01*
X125479329Y-72044030D01*
X125502428Y-72035765D01*
X125526227Y-72029804D01*
X125550495Y-72026204D01*
X125574999Y-72025000D01*
X126425001Y-72025000D01*
X126449505Y-72026204D01*
G37*
G36*
X120649505Y-72026204D02*
G01*
X120673773Y-72029804D01*
X120697572Y-72035765D01*
X120720671Y-72044030D01*
X120742850Y-72054520D01*
X120763893Y-72067132D01*
X120783599Y-72081747D01*
X120801777Y-72098223D01*
X120818253Y-72116401D01*
X120832868Y-72136107D01*
X120845480Y-72157150D01*
X120855970Y-72179329D01*
X120864235Y-72202428D01*
X120870196Y-72226227D01*
X120873796Y-72250495D01*
X120875000Y-72274999D01*
X120875000Y-75125001D01*
X120873796Y-75149505D01*
X120870196Y-75173773D01*
X120864235Y-75197572D01*
X120855970Y-75220671D01*
X120845480Y-75242850D01*
X120832868Y-75263893D01*
X120818253Y-75283599D01*
X120801777Y-75301777D01*
X120783599Y-75318253D01*
X120763893Y-75332868D01*
X120742850Y-75345480D01*
X120720671Y-75355970D01*
X120697572Y-75364235D01*
X120673773Y-75370196D01*
X120649505Y-75373796D01*
X120625001Y-75375000D01*
X119774999Y-75375000D01*
X119750495Y-75373796D01*
X119726227Y-75370196D01*
X119702428Y-75364235D01*
X119679329Y-75355970D01*
X119657150Y-75345480D01*
X119636107Y-75332868D01*
X119616401Y-75318253D01*
X119598223Y-75301777D01*
X119581747Y-75283599D01*
X119567132Y-75263893D01*
X119554520Y-75242850D01*
X119544030Y-75220671D01*
X119535765Y-75197572D01*
X119529804Y-75173773D01*
X119526204Y-75149505D01*
X119525000Y-75125001D01*
X119525000Y-72274999D01*
X119526204Y-72250495D01*
X119529804Y-72226227D01*
X119535765Y-72202428D01*
X119544030Y-72179329D01*
X119554520Y-72157150D01*
X119567132Y-72136107D01*
X119581747Y-72116401D01*
X119598223Y-72098223D01*
X119616401Y-72081747D01*
X119636107Y-72067132D01*
X119657150Y-72054520D01*
X119679329Y-72044030D01*
X119702428Y-72035765D01*
X119726227Y-72029804D01*
X119750495Y-72026204D01*
X119774999Y-72025000D01*
X120625001Y-72025000D01*
X120649505Y-72026204D01*
G37*
G36*
X128749505Y-67826204D02*
G01*
X128773773Y-67829804D01*
X128797572Y-67835765D01*
X128820671Y-67844030D01*
X128842850Y-67854520D01*
X128863893Y-67867132D01*
X128883599Y-67881747D01*
X128901777Y-67898223D01*
X128918253Y-67916401D01*
X128932868Y-67936107D01*
X128945480Y-67957150D01*
X128955970Y-67979329D01*
X128964235Y-68002428D01*
X128970196Y-68026227D01*
X128973796Y-68050495D01*
X128975000Y-68074999D01*
X128975000Y-70925001D01*
X128973796Y-70949505D01*
X128970196Y-70973773D01*
X128964235Y-70997572D01*
X128955970Y-71020671D01*
X128945480Y-71042850D01*
X128932868Y-71063893D01*
X128918253Y-71083599D01*
X128901777Y-71101777D01*
X128883599Y-71118253D01*
X128863893Y-71132868D01*
X128842850Y-71145480D01*
X128820671Y-71155970D01*
X128797572Y-71164235D01*
X128773773Y-71170196D01*
X128749505Y-71173796D01*
X128725001Y-71175000D01*
X127874999Y-71175000D01*
X127850495Y-71173796D01*
X127826227Y-71170196D01*
X127802428Y-71164235D01*
X127779329Y-71155970D01*
X127757150Y-71145480D01*
X127736107Y-71132868D01*
X127716401Y-71118253D01*
X127698223Y-71101777D01*
X127681747Y-71083599D01*
X127667132Y-71063893D01*
X127654520Y-71042850D01*
X127644030Y-71020671D01*
X127635765Y-70997572D01*
X127629804Y-70973773D01*
X127626204Y-70949505D01*
X127625000Y-70925001D01*
X127625000Y-68074999D01*
X127626204Y-68050495D01*
X127629804Y-68026227D01*
X127635765Y-68002428D01*
X127644030Y-67979329D01*
X127654520Y-67957150D01*
X127667132Y-67936107D01*
X127681747Y-67916401D01*
X127698223Y-67898223D01*
X127716401Y-67881747D01*
X127736107Y-67867132D01*
X127757150Y-67854520D01*
X127779329Y-67844030D01*
X127802428Y-67835765D01*
X127826227Y-67829804D01*
X127850495Y-67826204D01*
X127874999Y-67825000D01*
X128725001Y-67825000D01*
X128749505Y-67826204D01*
G37*
G36*
X134549505Y-67826204D02*
G01*
X134573773Y-67829804D01*
X134597572Y-67835765D01*
X134620671Y-67844030D01*
X134642850Y-67854520D01*
X134663893Y-67867132D01*
X134683599Y-67881747D01*
X134701777Y-67898223D01*
X134718253Y-67916401D01*
X134732868Y-67936107D01*
X134745480Y-67957150D01*
X134755970Y-67979329D01*
X134764235Y-68002428D01*
X134770196Y-68026227D01*
X134773796Y-68050495D01*
X134775000Y-68074999D01*
X134775000Y-70925001D01*
X134773796Y-70949505D01*
X134770196Y-70973773D01*
X134764235Y-70997572D01*
X134755970Y-71020671D01*
X134745480Y-71042850D01*
X134732868Y-71063893D01*
X134718253Y-71083599D01*
X134701777Y-71101777D01*
X134683599Y-71118253D01*
X134663893Y-71132868D01*
X134642850Y-71145480D01*
X134620671Y-71155970D01*
X134597572Y-71164235D01*
X134573773Y-71170196D01*
X134549505Y-71173796D01*
X134525001Y-71175000D01*
X133674999Y-71175000D01*
X133650495Y-71173796D01*
X133626227Y-71170196D01*
X133602428Y-71164235D01*
X133579329Y-71155970D01*
X133557150Y-71145480D01*
X133536107Y-71132868D01*
X133516401Y-71118253D01*
X133498223Y-71101777D01*
X133481747Y-71083599D01*
X133467132Y-71063893D01*
X133454520Y-71042850D01*
X133444030Y-71020671D01*
X133435765Y-70997572D01*
X133429804Y-70973773D01*
X133426204Y-70949505D01*
X133425000Y-70925001D01*
X133425000Y-68074999D01*
X133426204Y-68050495D01*
X133429804Y-68026227D01*
X133435765Y-68002428D01*
X133444030Y-67979329D01*
X133454520Y-67957150D01*
X133467132Y-67936107D01*
X133481747Y-67916401D01*
X133498223Y-67898223D01*
X133516401Y-67881747D01*
X133536107Y-67867132D01*
X133557150Y-67854520D01*
X133579329Y-67844030D01*
X133602428Y-67835765D01*
X133626227Y-67829804D01*
X133650495Y-67826204D01*
X133674999Y-67825000D01*
X134525001Y-67825000D01*
X134549505Y-67826204D01*
G37*
G36*
X134549505Y-72026204D02*
G01*
X134573773Y-72029804D01*
X134597572Y-72035765D01*
X134620671Y-72044030D01*
X134642850Y-72054520D01*
X134663893Y-72067132D01*
X134683599Y-72081747D01*
X134701777Y-72098223D01*
X134718253Y-72116401D01*
X134732868Y-72136107D01*
X134745480Y-72157150D01*
X134755970Y-72179329D01*
X134764235Y-72202428D01*
X134770196Y-72226227D01*
X134773796Y-72250495D01*
X134775000Y-72274999D01*
X134775000Y-75125001D01*
X134773796Y-75149505D01*
X134770196Y-75173773D01*
X134764235Y-75197572D01*
X134755970Y-75220671D01*
X134745480Y-75242850D01*
X134732868Y-75263893D01*
X134718253Y-75283599D01*
X134701777Y-75301777D01*
X134683599Y-75318253D01*
X134663893Y-75332868D01*
X134642850Y-75345480D01*
X134620671Y-75355970D01*
X134597572Y-75364235D01*
X134573773Y-75370196D01*
X134549505Y-75373796D01*
X134525001Y-75375000D01*
X133674999Y-75375000D01*
X133650495Y-75373796D01*
X133626227Y-75370196D01*
X133602428Y-75364235D01*
X133579329Y-75355970D01*
X133557150Y-75345480D01*
X133536107Y-75332868D01*
X133516401Y-75318253D01*
X133498223Y-75301777D01*
X133481747Y-75283599D01*
X133467132Y-75263893D01*
X133454520Y-75242850D01*
X133444030Y-75220671D01*
X133435765Y-75197572D01*
X133429804Y-75173773D01*
X133426204Y-75149505D01*
X133425000Y-75125001D01*
X133425000Y-72274999D01*
X133426204Y-72250495D01*
X133429804Y-72226227D01*
X133435765Y-72202428D01*
X133444030Y-72179329D01*
X133454520Y-72157150D01*
X133467132Y-72136107D01*
X133481747Y-72116401D01*
X133498223Y-72098223D01*
X133516401Y-72081747D01*
X133536107Y-72067132D01*
X133557150Y-72054520D01*
X133579329Y-72044030D01*
X133602428Y-72035765D01*
X133626227Y-72029804D01*
X133650495Y-72026204D01*
X133674999Y-72025000D01*
X134525001Y-72025000D01*
X134549505Y-72026204D01*
G37*
G36*
X128749505Y-72026204D02*
G01*
X128773773Y-72029804D01*
X128797572Y-72035765D01*
X128820671Y-72044030D01*
X128842850Y-72054520D01*
X128863893Y-72067132D01*
X128883599Y-72081747D01*
X128901777Y-72098223D01*
X128918253Y-72116401D01*
X128932868Y-72136107D01*
X128945480Y-72157150D01*
X128955970Y-72179329D01*
X128964235Y-72202428D01*
X128970196Y-72226227D01*
X128973796Y-72250495D01*
X128975000Y-72274999D01*
X128975000Y-75125001D01*
X128973796Y-75149505D01*
X128970196Y-75173773D01*
X128964235Y-75197572D01*
X128955970Y-75220671D01*
X128945480Y-75242850D01*
X128932868Y-75263893D01*
X128918253Y-75283599D01*
X128901777Y-75301777D01*
X128883599Y-75318253D01*
X128863893Y-75332868D01*
X128842850Y-75345480D01*
X128820671Y-75355970D01*
X128797572Y-75364235D01*
X128773773Y-75370196D01*
X128749505Y-75373796D01*
X128725001Y-75375000D01*
X127874999Y-75375000D01*
X127850495Y-75373796D01*
X127826227Y-75370196D01*
X127802428Y-75364235D01*
X127779329Y-75355970D01*
X127757150Y-75345480D01*
X127736107Y-75332868D01*
X127716401Y-75318253D01*
X127698223Y-75301777D01*
X127681747Y-75283599D01*
X127667132Y-75263893D01*
X127654520Y-75242850D01*
X127644030Y-75220671D01*
X127635765Y-75197572D01*
X127629804Y-75173773D01*
X127626204Y-75149505D01*
X127625000Y-75125001D01*
X127625000Y-72274999D01*
X127626204Y-72250495D01*
X127629804Y-72226227D01*
X127635765Y-72202428D01*
X127644030Y-72179329D01*
X127654520Y-72157150D01*
X127667132Y-72136107D01*
X127681747Y-72116401D01*
X127698223Y-72098223D01*
X127716401Y-72081747D01*
X127736107Y-72067132D01*
X127757150Y-72054520D01*
X127779329Y-72044030D01*
X127802428Y-72035765D01*
X127826227Y-72029804D01*
X127850495Y-72026204D01*
X127874999Y-72025000D01*
X128725001Y-72025000D01*
X128749505Y-72026204D01*
G37*
G36*
X136849505Y-67826204D02*
G01*
X136873773Y-67829804D01*
X136897572Y-67835765D01*
X136920671Y-67844030D01*
X136942850Y-67854520D01*
X136963893Y-67867132D01*
X136983599Y-67881747D01*
X137001777Y-67898223D01*
X137018253Y-67916401D01*
X137032868Y-67936107D01*
X137045480Y-67957150D01*
X137055970Y-67979329D01*
X137064235Y-68002428D01*
X137070196Y-68026227D01*
X137073796Y-68050495D01*
X137075000Y-68074999D01*
X137075000Y-70925001D01*
X137073796Y-70949505D01*
X137070196Y-70973773D01*
X137064235Y-70997572D01*
X137055970Y-71020671D01*
X137045480Y-71042850D01*
X137032868Y-71063893D01*
X137018253Y-71083599D01*
X137001777Y-71101777D01*
X136983599Y-71118253D01*
X136963893Y-71132868D01*
X136942850Y-71145480D01*
X136920671Y-71155970D01*
X136897572Y-71164235D01*
X136873773Y-71170196D01*
X136849505Y-71173796D01*
X136825001Y-71175000D01*
X135974999Y-71175000D01*
X135950495Y-71173796D01*
X135926227Y-71170196D01*
X135902428Y-71164235D01*
X135879329Y-71155970D01*
X135857150Y-71145480D01*
X135836107Y-71132868D01*
X135816401Y-71118253D01*
X135798223Y-71101777D01*
X135781747Y-71083599D01*
X135767132Y-71063893D01*
X135754520Y-71042850D01*
X135744030Y-71020671D01*
X135735765Y-70997572D01*
X135729804Y-70973773D01*
X135726204Y-70949505D01*
X135725000Y-70925001D01*
X135725000Y-68074999D01*
X135726204Y-68050495D01*
X135729804Y-68026227D01*
X135735765Y-68002428D01*
X135744030Y-67979329D01*
X135754520Y-67957150D01*
X135767132Y-67936107D01*
X135781747Y-67916401D01*
X135798223Y-67898223D01*
X135816401Y-67881747D01*
X135836107Y-67867132D01*
X135857150Y-67854520D01*
X135879329Y-67844030D01*
X135902428Y-67835765D01*
X135926227Y-67829804D01*
X135950495Y-67826204D01*
X135974999Y-67825000D01*
X136825001Y-67825000D01*
X136849505Y-67826204D01*
G37*
G36*
X142649505Y-67826204D02*
G01*
X142673773Y-67829804D01*
X142697572Y-67835765D01*
X142720671Y-67844030D01*
X142742850Y-67854520D01*
X142763893Y-67867132D01*
X142783599Y-67881747D01*
X142801777Y-67898223D01*
X142818253Y-67916401D01*
X142832868Y-67936107D01*
X142845480Y-67957150D01*
X142855970Y-67979329D01*
X142864235Y-68002428D01*
X142870196Y-68026227D01*
X142873796Y-68050495D01*
X142875000Y-68074999D01*
X142875000Y-70925001D01*
X142873796Y-70949505D01*
X142870196Y-70973773D01*
X142864235Y-70997572D01*
X142855970Y-71020671D01*
X142845480Y-71042850D01*
X142832868Y-71063893D01*
X142818253Y-71083599D01*
X142801777Y-71101777D01*
X142783599Y-71118253D01*
X142763893Y-71132868D01*
X142742850Y-71145480D01*
X142720671Y-71155970D01*
X142697572Y-71164235D01*
X142673773Y-71170196D01*
X142649505Y-71173796D01*
X142625001Y-71175000D01*
X141774999Y-71175000D01*
X141750495Y-71173796D01*
X141726227Y-71170196D01*
X141702428Y-71164235D01*
X141679329Y-71155970D01*
X141657150Y-71145480D01*
X141636107Y-71132868D01*
X141616401Y-71118253D01*
X141598223Y-71101777D01*
X141581747Y-71083599D01*
X141567132Y-71063893D01*
X141554520Y-71042850D01*
X141544030Y-71020671D01*
X141535765Y-70997572D01*
X141529804Y-70973773D01*
X141526204Y-70949505D01*
X141525000Y-70925001D01*
X141525000Y-68074999D01*
X141526204Y-68050495D01*
X141529804Y-68026227D01*
X141535765Y-68002428D01*
X141544030Y-67979329D01*
X141554520Y-67957150D01*
X141567132Y-67936107D01*
X141581747Y-67916401D01*
X141598223Y-67898223D01*
X141616401Y-67881747D01*
X141636107Y-67867132D01*
X141657150Y-67854520D01*
X141679329Y-67844030D01*
X141702428Y-67835765D01*
X141726227Y-67829804D01*
X141750495Y-67826204D01*
X141774999Y-67825000D01*
X142625001Y-67825000D01*
X142649505Y-67826204D01*
G37*
G36*
X136849505Y-72026204D02*
G01*
X136873773Y-72029804D01*
X136897572Y-72035765D01*
X136920671Y-72044030D01*
X136942850Y-72054520D01*
X136963893Y-72067132D01*
X136983599Y-72081747D01*
X137001777Y-72098223D01*
X137018253Y-72116401D01*
X137032868Y-72136107D01*
X137045480Y-72157150D01*
X137055970Y-72179329D01*
X137064235Y-72202428D01*
X137070196Y-72226227D01*
X137073796Y-72250495D01*
X137075000Y-72274999D01*
X137075000Y-75125001D01*
X137073796Y-75149505D01*
X137070196Y-75173773D01*
X137064235Y-75197572D01*
X137055970Y-75220671D01*
X137045480Y-75242850D01*
X137032868Y-75263893D01*
X137018253Y-75283599D01*
X137001777Y-75301777D01*
X136983599Y-75318253D01*
X136963893Y-75332868D01*
X136942850Y-75345480D01*
X136920671Y-75355970D01*
X136897572Y-75364235D01*
X136873773Y-75370196D01*
X136849505Y-75373796D01*
X136825001Y-75375000D01*
X135974999Y-75375000D01*
X135950495Y-75373796D01*
X135926227Y-75370196D01*
X135902428Y-75364235D01*
X135879329Y-75355970D01*
X135857150Y-75345480D01*
X135836107Y-75332868D01*
X135816401Y-75318253D01*
X135798223Y-75301777D01*
X135781747Y-75283599D01*
X135767132Y-75263893D01*
X135754520Y-75242850D01*
X135744030Y-75220671D01*
X135735765Y-75197572D01*
X135729804Y-75173773D01*
X135726204Y-75149505D01*
X135725000Y-75125001D01*
X135725000Y-72274999D01*
X135726204Y-72250495D01*
X135729804Y-72226227D01*
X135735765Y-72202428D01*
X135744030Y-72179329D01*
X135754520Y-72157150D01*
X135767132Y-72136107D01*
X135781747Y-72116401D01*
X135798223Y-72098223D01*
X135816401Y-72081747D01*
X135836107Y-72067132D01*
X135857150Y-72054520D01*
X135879329Y-72044030D01*
X135902428Y-72035765D01*
X135926227Y-72029804D01*
X135950495Y-72026204D01*
X135974999Y-72025000D01*
X136825001Y-72025000D01*
X136849505Y-72026204D01*
G37*
G36*
X142649505Y-72026204D02*
G01*
X142673773Y-72029804D01*
X142697572Y-72035765D01*
X142720671Y-72044030D01*
X142742850Y-72054520D01*
X142763893Y-72067132D01*
X142783599Y-72081747D01*
X142801777Y-72098223D01*
X142818253Y-72116401D01*
X142832868Y-72136107D01*
X142845480Y-72157150D01*
X142855970Y-72179329D01*
X142864235Y-72202428D01*
X142870196Y-72226227D01*
X142873796Y-72250495D01*
X142875000Y-72274999D01*
X142875000Y-75125001D01*
X142873796Y-75149505D01*
X142870196Y-75173773D01*
X142864235Y-75197572D01*
X142855970Y-75220671D01*
X142845480Y-75242850D01*
X142832868Y-75263893D01*
X142818253Y-75283599D01*
X142801777Y-75301777D01*
X142783599Y-75318253D01*
X142763893Y-75332868D01*
X142742850Y-75345480D01*
X142720671Y-75355970D01*
X142697572Y-75364235D01*
X142673773Y-75370196D01*
X142649505Y-75373796D01*
X142625001Y-75375000D01*
X141774999Y-75375000D01*
X141750495Y-75373796D01*
X141726227Y-75370196D01*
X141702428Y-75364235D01*
X141679329Y-75355970D01*
X141657150Y-75345480D01*
X141636107Y-75332868D01*
X141616401Y-75318253D01*
X141598223Y-75301777D01*
X141581747Y-75283599D01*
X141567132Y-75263893D01*
X141554520Y-75242850D01*
X141544030Y-75220671D01*
X141535765Y-75197572D01*
X141529804Y-75173773D01*
X141526204Y-75149505D01*
X141525000Y-75125001D01*
X141525000Y-72274999D01*
X141526204Y-72250495D01*
X141529804Y-72226227D01*
X141535765Y-72202428D01*
X141544030Y-72179329D01*
X141554520Y-72157150D01*
X141567132Y-72136107D01*
X141581747Y-72116401D01*
X141598223Y-72098223D01*
X141616401Y-72081747D01*
X141636107Y-72067132D01*
X141657150Y-72054520D01*
X141679329Y-72044030D01*
X141702428Y-72035765D01*
X141726227Y-72029804D01*
X141750495Y-72026204D01*
X141774999Y-72025000D01*
X142625001Y-72025000D01*
X142649505Y-72026204D01*
G37*
G36*
X141749505Y-61326204D02*
G01*
X141773773Y-61329804D01*
X141797572Y-61335765D01*
X141820671Y-61344030D01*
X141842850Y-61354520D01*
X141863893Y-61367132D01*
X141883599Y-61381747D01*
X141901777Y-61398223D01*
X141918253Y-61416401D01*
X141932868Y-61436107D01*
X141945480Y-61457150D01*
X141955970Y-61479329D01*
X141964235Y-61502428D01*
X141970196Y-61526227D01*
X141973796Y-61550495D01*
X141975000Y-61574999D01*
X141975000Y-62425001D01*
X141973796Y-62449505D01*
X141970196Y-62473773D01*
X141964235Y-62497572D01*
X141955970Y-62520671D01*
X141945480Y-62542850D01*
X141932868Y-62563893D01*
X141918253Y-62583599D01*
X141901777Y-62601777D01*
X141883599Y-62618253D01*
X141863893Y-62632868D01*
X141842850Y-62645480D01*
X141820671Y-62655970D01*
X141797572Y-62664235D01*
X141773773Y-62670196D01*
X141749505Y-62673796D01*
X141725001Y-62675000D01*
X138874999Y-62675000D01*
X138850495Y-62673796D01*
X138826227Y-62670196D01*
X138802428Y-62664235D01*
X138779329Y-62655970D01*
X138757150Y-62645480D01*
X138736107Y-62632868D01*
X138716401Y-62618253D01*
X138698223Y-62601777D01*
X138681747Y-62583599D01*
X138667132Y-62563893D01*
X138654520Y-62542850D01*
X138644030Y-62520671D01*
X138635765Y-62497572D01*
X138629804Y-62473773D01*
X138626204Y-62449505D01*
X138625000Y-62425001D01*
X138625000Y-61574999D01*
X138626204Y-61550495D01*
X138629804Y-61526227D01*
X138635765Y-61502428D01*
X138644030Y-61479329D01*
X138654520Y-61457150D01*
X138667132Y-61436107D01*
X138681747Y-61416401D01*
X138698223Y-61398223D01*
X138716401Y-61381747D01*
X138736107Y-61367132D01*
X138757150Y-61354520D01*
X138779329Y-61344030D01*
X138802428Y-61335765D01*
X138826227Y-61329804D01*
X138850495Y-61326204D01*
X138874999Y-61325000D01*
X141725001Y-61325000D01*
X141749505Y-61326204D01*
G37*
G36*
X141749505Y-55526204D02*
G01*
X141773773Y-55529804D01*
X141797572Y-55535765D01*
X141820671Y-55544030D01*
X141842850Y-55554520D01*
X141863893Y-55567132D01*
X141883599Y-55581747D01*
X141901777Y-55598223D01*
X141918253Y-55616401D01*
X141932868Y-55636107D01*
X141945480Y-55657150D01*
X141955970Y-55679329D01*
X141964235Y-55702428D01*
X141970196Y-55726227D01*
X141973796Y-55750495D01*
X141975000Y-55774999D01*
X141975000Y-56625001D01*
X141973796Y-56649505D01*
X141970196Y-56673773D01*
X141964235Y-56697572D01*
X141955970Y-56720671D01*
X141945480Y-56742850D01*
X141932868Y-56763893D01*
X141918253Y-56783599D01*
X141901777Y-56801777D01*
X141883599Y-56818253D01*
X141863893Y-56832868D01*
X141842850Y-56845480D01*
X141820671Y-56855970D01*
X141797572Y-56864235D01*
X141773773Y-56870196D01*
X141749505Y-56873796D01*
X141725001Y-56875000D01*
X138874999Y-56875000D01*
X138850495Y-56873796D01*
X138826227Y-56870196D01*
X138802428Y-56864235D01*
X138779329Y-56855970D01*
X138757150Y-56845480D01*
X138736107Y-56832868D01*
X138716401Y-56818253D01*
X138698223Y-56801777D01*
X138681747Y-56783599D01*
X138667132Y-56763893D01*
X138654520Y-56742850D01*
X138644030Y-56720671D01*
X138635765Y-56697572D01*
X138629804Y-56673773D01*
X138626204Y-56649505D01*
X138625000Y-56625001D01*
X138625000Y-55774999D01*
X138626204Y-55750495D01*
X138629804Y-55726227D01*
X138635765Y-55702428D01*
X138644030Y-55679329D01*
X138654520Y-55657150D01*
X138667132Y-55636107D01*
X138681747Y-55616401D01*
X138698223Y-55598223D01*
X138716401Y-55581747D01*
X138736107Y-55567132D01*
X138757150Y-55554520D01*
X138779329Y-55544030D01*
X138802428Y-55535765D01*
X138826227Y-55529804D01*
X138850495Y-55526204D01*
X138874999Y-55525000D01*
X141725001Y-55525000D01*
X141749505Y-55526204D01*
G37*
G36*
X128949505Y-52326204D02*
G01*
X128973773Y-52329804D01*
X128997572Y-52335765D01*
X129020671Y-52344030D01*
X129042850Y-52354520D01*
X129063893Y-52367132D01*
X129083599Y-52381747D01*
X129101777Y-52398223D01*
X129118253Y-52416401D01*
X129132868Y-52436107D01*
X129145480Y-52457150D01*
X129155970Y-52479329D01*
X129164235Y-52502428D01*
X129170196Y-52526227D01*
X129173796Y-52550495D01*
X129175000Y-52574999D01*
X129175000Y-53425001D01*
X129173796Y-53449505D01*
X129170196Y-53473773D01*
X129164235Y-53497572D01*
X129155970Y-53520671D01*
X129145480Y-53542850D01*
X129132868Y-53563893D01*
X129118253Y-53583599D01*
X129101777Y-53601777D01*
X129083599Y-53618253D01*
X129063893Y-53632868D01*
X129042850Y-53645480D01*
X129020671Y-53655970D01*
X128997572Y-53664235D01*
X128973773Y-53670196D01*
X128949505Y-53673796D01*
X128925001Y-53675000D01*
X126074999Y-53675000D01*
X126050495Y-53673796D01*
X126026227Y-53670196D01*
X126002428Y-53664235D01*
X125979329Y-53655970D01*
X125957150Y-53645480D01*
X125936107Y-53632868D01*
X125916401Y-53618253D01*
X125898223Y-53601777D01*
X125881747Y-53583599D01*
X125867132Y-53563893D01*
X125854520Y-53542850D01*
X125844030Y-53520671D01*
X125835765Y-53497572D01*
X125829804Y-53473773D01*
X125826204Y-53449505D01*
X125825000Y-53425001D01*
X125825000Y-52574999D01*
X125826204Y-52550495D01*
X125829804Y-52526227D01*
X125835765Y-52502428D01*
X125844030Y-52479329D01*
X125854520Y-52457150D01*
X125867132Y-52436107D01*
X125881747Y-52416401D01*
X125898223Y-52398223D01*
X125916401Y-52381747D01*
X125936107Y-52367132D01*
X125957150Y-52354520D01*
X125979329Y-52344030D01*
X126002428Y-52335765D01*
X126026227Y-52329804D01*
X126050495Y-52326204D01*
X126074999Y-52325000D01*
X128925001Y-52325000D01*
X128949505Y-52326204D01*
G37*
G36*
X128949505Y-46526204D02*
G01*
X128973773Y-46529804D01*
X128997572Y-46535765D01*
X129020671Y-46544030D01*
X129042850Y-46554520D01*
X129063893Y-46567132D01*
X129083599Y-46581747D01*
X129101777Y-46598223D01*
X129118253Y-46616401D01*
X129132868Y-46636107D01*
X129145480Y-46657150D01*
X129155970Y-46679329D01*
X129164235Y-46702428D01*
X129170196Y-46726227D01*
X129173796Y-46750495D01*
X129175000Y-46774999D01*
X129175000Y-47625001D01*
X129173796Y-47649505D01*
X129170196Y-47673773D01*
X129164235Y-47697572D01*
X129155970Y-47720671D01*
X129145480Y-47742850D01*
X129132868Y-47763893D01*
X129118253Y-47783599D01*
X129101777Y-47801777D01*
X129083599Y-47818253D01*
X129063893Y-47832868D01*
X129042850Y-47845480D01*
X129020671Y-47855970D01*
X128997572Y-47864235D01*
X128973773Y-47870196D01*
X128949505Y-47873796D01*
X128925001Y-47875000D01*
X126074999Y-47875000D01*
X126050495Y-47873796D01*
X126026227Y-47870196D01*
X126002428Y-47864235D01*
X125979329Y-47855970D01*
X125957150Y-47845480D01*
X125936107Y-47832868D01*
X125916401Y-47818253D01*
X125898223Y-47801777D01*
X125881747Y-47783599D01*
X125867132Y-47763893D01*
X125854520Y-47742850D01*
X125844030Y-47720671D01*
X125835765Y-47697572D01*
X125829804Y-47673773D01*
X125826204Y-47649505D01*
X125825000Y-47625001D01*
X125825000Y-46774999D01*
X125826204Y-46750495D01*
X125829804Y-46726227D01*
X125835765Y-46702428D01*
X125844030Y-46679329D01*
X125854520Y-46657150D01*
X125867132Y-46636107D01*
X125881747Y-46616401D01*
X125898223Y-46598223D01*
X125916401Y-46581747D01*
X125936107Y-46567132D01*
X125957150Y-46554520D01*
X125979329Y-46544030D01*
X126002428Y-46535765D01*
X126026227Y-46529804D01*
X126050495Y-46526204D01*
X126074999Y-46525000D01*
X128925001Y-46525000D01*
X128949505Y-46526204D01*
G37*
G36*
X137049505Y-55526204D02*
G01*
X137073773Y-55529804D01*
X137097572Y-55535765D01*
X137120671Y-55544030D01*
X137142850Y-55554520D01*
X137163893Y-55567132D01*
X137183599Y-55581747D01*
X137201777Y-55598223D01*
X137218253Y-55616401D01*
X137232868Y-55636107D01*
X137245480Y-55657150D01*
X137255970Y-55679329D01*
X137264235Y-55702428D01*
X137270196Y-55726227D01*
X137273796Y-55750495D01*
X137275000Y-55774999D01*
X137275000Y-56625001D01*
X137273796Y-56649505D01*
X137270196Y-56673773D01*
X137264235Y-56697572D01*
X137255970Y-56720671D01*
X137245480Y-56742850D01*
X137232868Y-56763893D01*
X137218253Y-56783599D01*
X137201777Y-56801777D01*
X137183599Y-56818253D01*
X137163893Y-56832868D01*
X137142850Y-56845480D01*
X137120671Y-56855970D01*
X137097572Y-56864235D01*
X137073773Y-56870196D01*
X137049505Y-56873796D01*
X137025001Y-56875000D01*
X134174999Y-56875000D01*
X134150495Y-56873796D01*
X134126227Y-56870196D01*
X134102428Y-56864235D01*
X134079329Y-56855970D01*
X134057150Y-56845480D01*
X134036107Y-56832868D01*
X134016401Y-56818253D01*
X133998223Y-56801777D01*
X133981747Y-56783599D01*
X133967132Y-56763893D01*
X133954520Y-56742850D01*
X133944030Y-56720671D01*
X133935765Y-56697572D01*
X133929804Y-56673773D01*
X133926204Y-56649505D01*
X133925000Y-56625001D01*
X133925000Y-55774999D01*
X133926204Y-55750495D01*
X133929804Y-55726227D01*
X133935765Y-55702428D01*
X133944030Y-55679329D01*
X133954520Y-55657150D01*
X133967132Y-55636107D01*
X133981747Y-55616401D01*
X133998223Y-55598223D01*
X134016401Y-55581747D01*
X134036107Y-55567132D01*
X134057150Y-55554520D01*
X134079329Y-55544030D01*
X134102428Y-55535765D01*
X134126227Y-55529804D01*
X134150495Y-55526204D01*
X134174999Y-55525000D01*
X137025001Y-55525000D01*
X137049505Y-55526204D01*
G37*
G36*
X137049505Y-61326204D02*
G01*
X137073773Y-61329804D01*
X137097572Y-61335765D01*
X137120671Y-61344030D01*
X137142850Y-61354520D01*
X137163893Y-61367132D01*
X137183599Y-61381747D01*
X137201777Y-61398223D01*
X137218253Y-61416401D01*
X137232868Y-61436107D01*
X137245480Y-61457150D01*
X137255970Y-61479329D01*
X137264235Y-61502428D01*
X137270196Y-61526227D01*
X137273796Y-61550495D01*
X137275000Y-61574999D01*
X137275000Y-62425001D01*
X137273796Y-62449505D01*
X137270196Y-62473773D01*
X137264235Y-62497572D01*
X137255970Y-62520671D01*
X137245480Y-62542850D01*
X137232868Y-62563893D01*
X137218253Y-62583599D01*
X137201777Y-62601777D01*
X137183599Y-62618253D01*
X137163893Y-62632868D01*
X137142850Y-62645480D01*
X137120671Y-62655970D01*
X137097572Y-62664235D01*
X137073773Y-62670196D01*
X137049505Y-62673796D01*
X137025001Y-62675000D01*
X134174999Y-62675000D01*
X134150495Y-62673796D01*
X134126227Y-62670196D01*
X134102428Y-62664235D01*
X134079329Y-62655970D01*
X134057150Y-62645480D01*
X134036107Y-62632868D01*
X134016401Y-62618253D01*
X133998223Y-62601777D01*
X133981747Y-62583599D01*
X133967132Y-62563893D01*
X133954520Y-62542850D01*
X133944030Y-62520671D01*
X133935765Y-62497572D01*
X133929804Y-62473773D01*
X133926204Y-62449505D01*
X133925000Y-62425001D01*
X133925000Y-61574999D01*
X133926204Y-61550495D01*
X133929804Y-61526227D01*
X133935765Y-61502428D01*
X133944030Y-61479329D01*
X133954520Y-61457150D01*
X133967132Y-61436107D01*
X133981747Y-61416401D01*
X133998223Y-61398223D01*
X134016401Y-61381747D01*
X134036107Y-61367132D01*
X134057150Y-61354520D01*
X134079329Y-61344030D01*
X134102428Y-61335765D01*
X134126227Y-61329804D01*
X134150495Y-61326204D01*
X134174999Y-61325000D01*
X137025001Y-61325000D01*
X137049505Y-61326204D01*
G37*
G36*
X133249505Y-52326204D02*
G01*
X133273773Y-52329804D01*
X133297572Y-52335765D01*
X133320671Y-52344030D01*
X133342850Y-52354520D01*
X133363893Y-52367132D01*
X133383599Y-52381747D01*
X133401777Y-52398223D01*
X133418253Y-52416401D01*
X133432868Y-52436107D01*
X133445480Y-52457150D01*
X133455970Y-52479329D01*
X133464235Y-52502428D01*
X133470196Y-52526227D01*
X133473796Y-52550495D01*
X133475000Y-52574999D01*
X133475000Y-53425001D01*
X133473796Y-53449505D01*
X133470196Y-53473773D01*
X133464235Y-53497572D01*
X133455970Y-53520671D01*
X133445480Y-53542850D01*
X133432868Y-53563893D01*
X133418253Y-53583599D01*
X133401777Y-53601777D01*
X133383599Y-53618253D01*
X133363893Y-53632868D01*
X133342850Y-53645480D01*
X133320671Y-53655970D01*
X133297572Y-53664235D01*
X133273773Y-53670196D01*
X133249505Y-53673796D01*
X133225001Y-53675000D01*
X130374999Y-53675000D01*
X130350495Y-53673796D01*
X130326227Y-53670196D01*
X130302428Y-53664235D01*
X130279329Y-53655970D01*
X130257150Y-53645480D01*
X130236107Y-53632868D01*
X130216401Y-53618253D01*
X130198223Y-53601777D01*
X130181747Y-53583599D01*
X130167132Y-53563893D01*
X130154520Y-53542850D01*
X130144030Y-53520671D01*
X130135765Y-53497572D01*
X130129804Y-53473773D01*
X130126204Y-53449505D01*
X130125000Y-53425001D01*
X130125000Y-52574999D01*
X130126204Y-52550495D01*
X130129804Y-52526227D01*
X130135765Y-52502428D01*
X130144030Y-52479329D01*
X130154520Y-52457150D01*
X130167132Y-52436107D01*
X130181747Y-52416401D01*
X130198223Y-52398223D01*
X130216401Y-52381747D01*
X130236107Y-52367132D01*
X130257150Y-52354520D01*
X130279329Y-52344030D01*
X130302428Y-52335765D01*
X130326227Y-52329804D01*
X130350495Y-52326204D01*
X130374999Y-52325000D01*
X133225001Y-52325000D01*
X133249505Y-52326204D01*
G37*
G36*
X133249505Y-46526204D02*
G01*
X133273773Y-46529804D01*
X133297572Y-46535765D01*
X133320671Y-46544030D01*
X133342850Y-46554520D01*
X133363893Y-46567132D01*
X133383599Y-46581747D01*
X133401777Y-46598223D01*
X133418253Y-46616401D01*
X133432868Y-46636107D01*
X133445480Y-46657150D01*
X133455970Y-46679329D01*
X133464235Y-46702428D01*
X133470196Y-46726227D01*
X133473796Y-46750495D01*
X133475000Y-46774999D01*
X133475000Y-47625001D01*
X133473796Y-47649505D01*
X133470196Y-47673773D01*
X133464235Y-47697572D01*
X133455970Y-47720671D01*
X133445480Y-47742850D01*
X133432868Y-47763893D01*
X133418253Y-47783599D01*
X133401777Y-47801777D01*
X133383599Y-47818253D01*
X133363893Y-47832868D01*
X133342850Y-47845480D01*
X133320671Y-47855970D01*
X133297572Y-47864235D01*
X133273773Y-47870196D01*
X133249505Y-47873796D01*
X133225001Y-47875000D01*
X130374999Y-47875000D01*
X130350495Y-47873796D01*
X130326227Y-47870196D01*
X130302428Y-47864235D01*
X130279329Y-47855970D01*
X130257150Y-47845480D01*
X130236107Y-47832868D01*
X130216401Y-47818253D01*
X130198223Y-47801777D01*
X130181747Y-47783599D01*
X130167132Y-47763893D01*
X130154520Y-47742850D01*
X130144030Y-47720671D01*
X130135765Y-47697572D01*
X130129804Y-47673773D01*
X130126204Y-47649505D01*
X130125000Y-47625001D01*
X130125000Y-46774999D01*
X130126204Y-46750495D01*
X130129804Y-46726227D01*
X130135765Y-46702428D01*
X130144030Y-46679329D01*
X130154520Y-46657150D01*
X130167132Y-46636107D01*
X130181747Y-46616401D01*
X130198223Y-46598223D01*
X130216401Y-46581747D01*
X130236107Y-46567132D01*
X130257150Y-46554520D01*
X130279329Y-46544030D01*
X130302428Y-46535765D01*
X130326227Y-46529804D01*
X130350495Y-46526204D01*
X130374999Y-46525000D01*
X133225001Y-46525000D01*
X133249505Y-46526204D01*
G37*
G36*
X137449505Y-52326204D02*
G01*
X137473773Y-52329804D01*
X137497572Y-52335765D01*
X137520671Y-52344030D01*
X137542850Y-52354520D01*
X137563893Y-52367132D01*
X137583599Y-52381747D01*
X137601777Y-52398223D01*
X137618253Y-52416401D01*
X137632868Y-52436107D01*
X137645480Y-52457150D01*
X137655970Y-52479329D01*
X137664235Y-52502428D01*
X137670196Y-52526227D01*
X137673796Y-52550495D01*
X137675000Y-52574999D01*
X137675000Y-53425001D01*
X137673796Y-53449505D01*
X137670196Y-53473773D01*
X137664235Y-53497572D01*
X137655970Y-53520671D01*
X137645480Y-53542850D01*
X137632868Y-53563893D01*
X137618253Y-53583599D01*
X137601777Y-53601777D01*
X137583599Y-53618253D01*
X137563893Y-53632868D01*
X137542850Y-53645480D01*
X137520671Y-53655970D01*
X137497572Y-53664235D01*
X137473773Y-53670196D01*
X137449505Y-53673796D01*
X137425001Y-53675000D01*
X134574999Y-53675000D01*
X134550495Y-53673796D01*
X134526227Y-53670196D01*
X134502428Y-53664235D01*
X134479329Y-53655970D01*
X134457150Y-53645480D01*
X134436107Y-53632868D01*
X134416401Y-53618253D01*
X134398223Y-53601777D01*
X134381747Y-53583599D01*
X134367132Y-53563893D01*
X134354520Y-53542850D01*
X134344030Y-53520671D01*
X134335765Y-53497572D01*
X134329804Y-53473773D01*
X134326204Y-53449505D01*
X134325000Y-53425001D01*
X134325000Y-52574999D01*
X134326204Y-52550495D01*
X134329804Y-52526227D01*
X134335765Y-52502428D01*
X134344030Y-52479329D01*
X134354520Y-52457150D01*
X134367132Y-52436107D01*
X134381747Y-52416401D01*
X134398223Y-52398223D01*
X134416401Y-52381747D01*
X134436107Y-52367132D01*
X134457150Y-52354520D01*
X134479329Y-52344030D01*
X134502428Y-52335765D01*
X134526227Y-52329804D01*
X134550495Y-52326204D01*
X134574999Y-52325000D01*
X137425001Y-52325000D01*
X137449505Y-52326204D01*
G37*
G36*
X137449505Y-46526204D02*
G01*
X137473773Y-46529804D01*
X137497572Y-46535765D01*
X137520671Y-46544030D01*
X137542850Y-46554520D01*
X137563893Y-46567132D01*
X137583599Y-46581747D01*
X137601777Y-46598223D01*
X137618253Y-46616401D01*
X137632868Y-46636107D01*
X137645480Y-46657150D01*
X137655970Y-46679329D01*
X137664235Y-46702428D01*
X137670196Y-46726227D01*
X137673796Y-46750495D01*
X137675000Y-46774999D01*
X137675000Y-47625001D01*
X137673796Y-47649505D01*
X137670196Y-47673773D01*
X137664235Y-47697572D01*
X137655970Y-47720671D01*
X137645480Y-47742850D01*
X137632868Y-47763893D01*
X137618253Y-47783599D01*
X137601777Y-47801777D01*
X137583599Y-47818253D01*
X137563893Y-47832868D01*
X137542850Y-47845480D01*
X137520671Y-47855970D01*
X137497572Y-47864235D01*
X137473773Y-47870196D01*
X137449505Y-47873796D01*
X137425001Y-47875000D01*
X134574999Y-47875000D01*
X134550495Y-47873796D01*
X134526227Y-47870196D01*
X134502428Y-47864235D01*
X134479329Y-47855970D01*
X134457150Y-47845480D01*
X134436107Y-47832868D01*
X134416401Y-47818253D01*
X134398223Y-47801777D01*
X134381747Y-47783599D01*
X134367132Y-47763893D01*
X134354520Y-47742850D01*
X134344030Y-47720671D01*
X134335765Y-47697572D01*
X134329804Y-47673773D01*
X134326204Y-47649505D01*
X134325000Y-47625001D01*
X134325000Y-46774999D01*
X134326204Y-46750495D01*
X134329804Y-46726227D01*
X134335765Y-46702428D01*
X134344030Y-46679329D01*
X134354520Y-46657150D01*
X134367132Y-46636107D01*
X134381747Y-46616401D01*
X134398223Y-46598223D01*
X134416401Y-46581747D01*
X134436107Y-46567132D01*
X134457150Y-46554520D01*
X134479329Y-46544030D01*
X134502428Y-46535765D01*
X134526227Y-46529804D01*
X134550495Y-46526204D01*
X134574999Y-46525000D01*
X137425001Y-46525000D01*
X137449505Y-46526204D01*
G37*
G36*
X141749505Y-46526204D02*
G01*
X141773773Y-46529804D01*
X141797572Y-46535765D01*
X141820671Y-46544030D01*
X141842850Y-46554520D01*
X141863893Y-46567132D01*
X141883599Y-46581747D01*
X141901777Y-46598223D01*
X141918253Y-46616401D01*
X141932868Y-46636107D01*
X141945480Y-46657150D01*
X141955970Y-46679329D01*
X141964235Y-46702428D01*
X141970196Y-46726227D01*
X141973796Y-46750495D01*
X141975000Y-46774999D01*
X141975000Y-47625001D01*
X141973796Y-47649505D01*
X141970196Y-47673773D01*
X141964235Y-47697572D01*
X141955970Y-47720671D01*
X141945480Y-47742850D01*
X141932868Y-47763893D01*
X141918253Y-47783599D01*
X141901777Y-47801777D01*
X141883599Y-47818253D01*
X141863893Y-47832868D01*
X141842850Y-47845480D01*
X141820671Y-47855970D01*
X141797572Y-47864235D01*
X141773773Y-47870196D01*
X141749505Y-47873796D01*
X141725001Y-47875000D01*
X138874999Y-47875000D01*
X138850495Y-47873796D01*
X138826227Y-47870196D01*
X138802428Y-47864235D01*
X138779329Y-47855970D01*
X138757150Y-47845480D01*
X138736107Y-47832868D01*
X138716401Y-47818253D01*
X138698223Y-47801777D01*
X138681747Y-47783599D01*
X138667132Y-47763893D01*
X138654520Y-47742850D01*
X138644030Y-47720671D01*
X138635765Y-47697572D01*
X138629804Y-47673773D01*
X138626204Y-47649505D01*
X138625000Y-47625001D01*
X138625000Y-46774999D01*
X138626204Y-46750495D01*
X138629804Y-46726227D01*
X138635765Y-46702428D01*
X138644030Y-46679329D01*
X138654520Y-46657150D01*
X138667132Y-46636107D01*
X138681747Y-46616401D01*
X138698223Y-46598223D01*
X138716401Y-46581747D01*
X138736107Y-46567132D01*
X138757150Y-46554520D01*
X138779329Y-46544030D01*
X138802428Y-46535765D01*
X138826227Y-46529804D01*
X138850495Y-46526204D01*
X138874999Y-46525000D01*
X141725001Y-46525000D01*
X141749505Y-46526204D01*
G37*
G36*
X141749505Y-52326204D02*
G01*
X141773773Y-52329804D01*
X141797572Y-52335765D01*
X141820671Y-52344030D01*
X141842850Y-52354520D01*
X141863893Y-52367132D01*
X141883599Y-52381747D01*
X141901777Y-52398223D01*
X141918253Y-52416401D01*
X141932868Y-52436107D01*
X141945480Y-52457150D01*
X141955970Y-52479329D01*
X141964235Y-52502428D01*
X141970196Y-52526227D01*
X141973796Y-52550495D01*
X141975000Y-52574999D01*
X141975000Y-53425001D01*
X141973796Y-53449505D01*
X141970196Y-53473773D01*
X141964235Y-53497572D01*
X141955970Y-53520671D01*
X141945480Y-53542850D01*
X141932868Y-53563893D01*
X141918253Y-53583599D01*
X141901777Y-53601777D01*
X141883599Y-53618253D01*
X141863893Y-53632868D01*
X141842850Y-53645480D01*
X141820671Y-53655970D01*
X141797572Y-53664235D01*
X141773773Y-53670196D01*
X141749505Y-53673796D01*
X141725001Y-53675000D01*
X138874999Y-53675000D01*
X138850495Y-53673796D01*
X138826227Y-53670196D01*
X138802428Y-53664235D01*
X138779329Y-53655970D01*
X138757150Y-53645480D01*
X138736107Y-53632868D01*
X138716401Y-53618253D01*
X138698223Y-53601777D01*
X138681747Y-53583599D01*
X138667132Y-53563893D01*
X138654520Y-53542850D01*
X138644030Y-53520671D01*
X138635765Y-53497572D01*
X138629804Y-53473773D01*
X138626204Y-53449505D01*
X138625000Y-53425001D01*
X138625000Y-52574999D01*
X138626204Y-52550495D01*
X138629804Y-52526227D01*
X138635765Y-52502428D01*
X138644030Y-52479329D01*
X138654520Y-52457150D01*
X138667132Y-52436107D01*
X138681747Y-52416401D01*
X138698223Y-52398223D01*
X138716401Y-52381747D01*
X138736107Y-52367132D01*
X138757150Y-52354520D01*
X138779329Y-52344030D01*
X138802428Y-52335765D01*
X138826227Y-52329804D01*
X138850495Y-52326204D01*
X138874999Y-52325000D01*
X141725001Y-52325000D01*
X141749505Y-52326204D01*
G37*
G36*
X93830142Y-77401174D02*
G01*
X93853803Y-77404684D01*
X93877007Y-77410496D01*
X93899529Y-77418554D01*
X93921153Y-77428782D01*
X93941670Y-77441079D01*
X93960883Y-77455329D01*
X93978607Y-77471393D01*
X93994671Y-77489117D01*
X94008921Y-77508330D01*
X94021218Y-77528847D01*
X94031446Y-77550471D01*
X94039504Y-77572993D01*
X94045316Y-77596197D01*
X94048826Y-77619858D01*
X94050000Y-77643750D01*
X94050000Y-78556250D01*
X94048826Y-78580142D01*
X94045316Y-78603803D01*
X94039504Y-78627007D01*
X94031446Y-78649529D01*
X94021218Y-78671153D01*
X94008921Y-78691670D01*
X93994671Y-78710883D01*
X93978607Y-78728607D01*
X93960883Y-78744671D01*
X93941670Y-78758921D01*
X93921153Y-78771218D01*
X93899529Y-78781446D01*
X93877007Y-78789504D01*
X93853803Y-78795316D01*
X93830142Y-78798826D01*
X93806250Y-78800000D01*
X93318750Y-78800000D01*
X93294858Y-78798826D01*
X93271197Y-78795316D01*
X93247993Y-78789504D01*
X93225471Y-78781446D01*
X93203847Y-78771218D01*
X93183330Y-78758921D01*
X93164117Y-78744671D01*
X93146393Y-78728607D01*
X93130329Y-78710883D01*
X93116079Y-78691670D01*
X93103782Y-78671153D01*
X93093554Y-78649529D01*
X93085496Y-78627007D01*
X93079684Y-78603803D01*
X93076174Y-78580142D01*
X93075000Y-78556250D01*
X93075000Y-77643750D01*
X93076174Y-77619858D01*
X93079684Y-77596197D01*
X93085496Y-77572993D01*
X93093554Y-77550471D01*
X93103782Y-77528847D01*
X93116079Y-77508330D01*
X93130329Y-77489117D01*
X93146393Y-77471393D01*
X93164117Y-77455329D01*
X93183330Y-77441079D01*
X93203847Y-77428782D01*
X93225471Y-77418554D01*
X93247993Y-77410496D01*
X93271197Y-77404684D01*
X93294858Y-77401174D01*
X93318750Y-77400000D01*
X93806250Y-77400000D01*
X93830142Y-77401174D01*
G37*
G36*
X95705142Y-77401174D02*
G01*
X95728803Y-77404684D01*
X95752007Y-77410496D01*
X95774529Y-77418554D01*
X95796153Y-77428782D01*
X95816670Y-77441079D01*
X95835883Y-77455329D01*
X95853607Y-77471393D01*
X95869671Y-77489117D01*
X95883921Y-77508330D01*
X95896218Y-77528847D01*
X95906446Y-77550471D01*
X95914504Y-77572993D01*
X95920316Y-77596197D01*
X95923826Y-77619858D01*
X95925000Y-77643750D01*
X95925000Y-78556250D01*
X95923826Y-78580142D01*
X95920316Y-78603803D01*
X95914504Y-78627007D01*
X95906446Y-78649529D01*
X95896218Y-78671153D01*
X95883921Y-78691670D01*
X95869671Y-78710883D01*
X95853607Y-78728607D01*
X95835883Y-78744671D01*
X95816670Y-78758921D01*
X95796153Y-78771218D01*
X95774529Y-78781446D01*
X95752007Y-78789504D01*
X95728803Y-78795316D01*
X95705142Y-78798826D01*
X95681250Y-78800000D01*
X95193750Y-78800000D01*
X95169858Y-78798826D01*
X95146197Y-78795316D01*
X95122993Y-78789504D01*
X95100471Y-78781446D01*
X95078847Y-78771218D01*
X95058330Y-78758921D01*
X95039117Y-78744671D01*
X95021393Y-78728607D01*
X95005329Y-78710883D01*
X94991079Y-78691670D01*
X94978782Y-78671153D01*
X94968554Y-78649529D01*
X94960496Y-78627007D01*
X94954684Y-78603803D01*
X94951174Y-78580142D01*
X94950000Y-78556250D01*
X94950000Y-77643750D01*
X94951174Y-77619858D01*
X94954684Y-77596197D01*
X94960496Y-77572993D01*
X94968554Y-77550471D01*
X94978782Y-77528847D01*
X94991079Y-77508330D01*
X95005329Y-77489117D01*
X95021393Y-77471393D01*
X95039117Y-77455329D01*
X95058330Y-77441079D01*
X95078847Y-77428782D01*
X95100471Y-77418554D01*
X95122993Y-77410496D01*
X95146197Y-77404684D01*
X95169858Y-77401174D01*
X95193750Y-77400000D01*
X95681250Y-77400000D01*
X95705142Y-77401174D01*
G37*
G36*
X95980142Y-81551174D02*
G01*
X96003803Y-81554684D01*
X96027007Y-81560496D01*
X96049529Y-81568554D01*
X96071153Y-81578782D01*
X96091670Y-81591079D01*
X96110883Y-81605329D01*
X96128607Y-81621393D01*
X96144671Y-81639117D01*
X96158921Y-81658330D01*
X96171218Y-81678847D01*
X96181446Y-81700471D01*
X96189504Y-81722993D01*
X96195316Y-81746197D01*
X96198826Y-81769858D01*
X96200000Y-81793750D01*
X96200000Y-82281250D01*
X96198826Y-82305142D01*
X96195316Y-82328803D01*
X96189504Y-82352007D01*
X96181446Y-82374529D01*
X96171218Y-82396153D01*
X96158921Y-82416670D01*
X96144671Y-82435883D01*
X96128607Y-82453607D01*
X96110883Y-82469671D01*
X96091670Y-82483921D01*
X96071153Y-82496218D01*
X96049529Y-82506446D01*
X96027007Y-82514504D01*
X96003803Y-82520316D01*
X95980142Y-82523826D01*
X95956250Y-82525000D01*
X95043750Y-82525000D01*
X95019858Y-82523826D01*
X94996197Y-82520316D01*
X94972993Y-82514504D01*
X94950471Y-82506446D01*
X94928847Y-82496218D01*
X94908330Y-82483921D01*
X94889117Y-82469671D01*
X94871393Y-82453607D01*
X94855329Y-82435883D01*
X94841079Y-82416670D01*
X94828782Y-82396153D01*
X94818554Y-82374529D01*
X94810496Y-82352007D01*
X94804684Y-82328803D01*
X94801174Y-82305142D01*
X94800000Y-82281250D01*
X94800000Y-81793750D01*
X94801174Y-81769858D01*
X94804684Y-81746197D01*
X94810496Y-81722993D01*
X94818554Y-81700471D01*
X94828782Y-81678847D01*
X94841079Y-81658330D01*
X94855329Y-81639117D01*
X94871393Y-81621393D01*
X94889117Y-81605329D01*
X94908330Y-81591079D01*
X94928847Y-81578782D01*
X94950471Y-81568554D01*
X94972993Y-81560496D01*
X94996197Y-81554684D01*
X95019858Y-81551174D01*
X95043750Y-81550000D01*
X95956250Y-81550000D01*
X95980142Y-81551174D01*
G37*
G36*
X95980142Y-79676174D02*
G01*
X96003803Y-79679684D01*
X96027007Y-79685496D01*
X96049529Y-79693554D01*
X96071153Y-79703782D01*
X96091670Y-79716079D01*
X96110883Y-79730329D01*
X96128607Y-79746393D01*
X96144671Y-79764117D01*
X96158921Y-79783330D01*
X96171218Y-79803847D01*
X96181446Y-79825471D01*
X96189504Y-79847993D01*
X96195316Y-79871197D01*
X96198826Y-79894858D01*
X96200000Y-79918750D01*
X96200000Y-80406250D01*
X96198826Y-80430142D01*
X96195316Y-80453803D01*
X96189504Y-80477007D01*
X96181446Y-80499529D01*
X96171218Y-80521153D01*
X96158921Y-80541670D01*
X96144671Y-80560883D01*
X96128607Y-80578607D01*
X96110883Y-80594671D01*
X96091670Y-80608921D01*
X96071153Y-80621218D01*
X96049529Y-80631446D01*
X96027007Y-80639504D01*
X96003803Y-80645316D01*
X95980142Y-80648826D01*
X95956250Y-80650000D01*
X95043750Y-80650000D01*
X95019858Y-80648826D01*
X94996197Y-80645316D01*
X94972993Y-80639504D01*
X94950471Y-80631446D01*
X94928847Y-80621218D01*
X94908330Y-80608921D01*
X94889117Y-80594671D01*
X94871393Y-80578607D01*
X94855329Y-80560883D01*
X94841079Y-80541670D01*
X94828782Y-80521153D01*
X94818554Y-80499529D01*
X94810496Y-80477007D01*
X94804684Y-80453803D01*
X94801174Y-80430142D01*
X94800000Y-80406250D01*
X94800000Y-79918750D01*
X94801174Y-79894858D01*
X94804684Y-79871197D01*
X94810496Y-79847993D01*
X94818554Y-79825471D01*
X94828782Y-79803847D01*
X94841079Y-79783330D01*
X94855329Y-79764117D01*
X94871393Y-79746393D01*
X94889117Y-79730329D01*
X94908330Y-79716079D01*
X94928847Y-79703782D01*
X94950471Y-79693554D01*
X94972993Y-79685496D01*
X94996197Y-79679684D01*
X95019858Y-79676174D01*
X95043750Y-79675000D01*
X95956250Y-79675000D01*
X95980142Y-79676174D01*
G37*
G36*
X93880142Y-79676174D02*
G01*
X93903803Y-79679684D01*
X93927007Y-79685496D01*
X93949529Y-79693554D01*
X93971153Y-79703782D01*
X93991670Y-79716079D01*
X94010883Y-79730329D01*
X94028607Y-79746393D01*
X94044671Y-79764117D01*
X94058921Y-79783330D01*
X94071218Y-79803847D01*
X94081446Y-79825471D01*
X94089504Y-79847993D01*
X94095316Y-79871197D01*
X94098826Y-79894858D01*
X94100000Y-79918750D01*
X94100000Y-80406250D01*
X94098826Y-80430142D01*
X94095316Y-80453803D01*
X94089504Y-80477007D01*
X94081446Y-80499529D01*
X94071218Y-80521153D01*
X94058921Y-80541670D01*
X94044671Y-80560883D01*
X94028607Y-80578607D01*
X94010883Y-80594671D01*
X93991670Y-80608921D01*
X93971153Y-80621218D01*
X93949529Y-80631446D01*
X93927007Y-80639504D01*
X93903803Y-80645316D01*
X93880142Y-80648826D01*
X93856250Y-80650000D01*
X92943750Y-80650000D01*
X92919858Y-80648826D01*
X92896197Y-80645316D01*
X92872993Y-80639504D01*
X92850471Y-80631446D01*
X92828847Y-80621218D01*
X92808330Y-80608921D01*
X92789117Y-80594671D01*
X92771393Y-80578607D01*
X92755329Y-80560883D01*
X92741079Y-80541670D01*
X92728782Y-80521153D01*
X92718554Y-80499529D01*
X92710496Y-80477007D01*
X92704684Y-80453803D01*
X92701174Y-80430142D01*
X92700000Y-80406250D01*
X92700000Y-79918750D01*
X92701174Y-79894858D01*
X92704684Y-79871197D01*
X92710496Y-79847993D01*
X92718554Y-79825471D01*
X92728782Y-79803847D01*
X92741079Y-79783330D01*
X92755329Y-79764117D01*
X92771393Y-79746393D01*
X92789117Y-79730329D01*
X92808330Y-79716079D01*
X92828847Y-79703782D01*
X92850471Y-79693554D01*
X92872993Y-79685496D01*
X92896197Y-79679684D01*
X92919858Y-79676174D01*
X92943750Y-79675000D01*
X93856250Y-79675000D01*
X93880142Y-79676174D01*
G37*
G36*
X93880142Y-81551174D02*
G01*
X93903803Y-81554684D01*
X93927007Y-81560496D01*
X93949529Y-81568554D01*
X93971153Y-81578782D01*
X93991670Y-81591079D01*
X94010883Y-81605329D01*
X94028607Y-81621393D01*
X94044671Y-81639117D01*
X94058921Y-81658330D01*
X94071218Y-81678847D01*
X94081446Y-81700471D01*
X94089504Y-81722993D01*
X94095316Y-81746197D01*
X94098826Y-81769858D01*
X94100000Y-81793750D01*
X94100000Y-82281250D01*
X94098826Y-82305142D01*
X94095316Y-82328803D01*
X94089504Y-82352007D01*
X94081446Y-82374529D01*
X94071218Y-82396153D01*
X94058921Y-82416670D01*
X94044671Y-82435883D01*
X94028607Y-82453607D01*
X94010883Y-82469671D01*
X93991670Y-82483921D01*
X93971153Y-82496218D01*
X93949529Y-82506446D01*
X93927007Y-82514504D01*
X93903803Y-82520316D01*
X93880142Y-82523826D01*
X93856250Y-82525000D01*
X92943750Y-82525000D01*
X92919858Y-82523826D01*
X92896197Y-82520316D01*
X92872993Y-82514504D01*
X92850471Y-82506446D01*
X92828847Y-82496218D01*
X92808330Y-82483921D01*
X92789117Y-82469671D01*
X92771393Y-82453607D01*
X92755329Y-82435883D01*
X92741079Y-82416670D01*
X92728782Y-82396153D01*
X92718554Y-82374529D01*
X92710496Y-82352007D01*
X92704684Y-82328803D01*
X92701174Y-82305142D01*
X92700000Y-82281250D01*
X92700000Y-81793750D01*
X92701174Y-81769858D01*
X92704684Y-81746197D01*
X92710496Y-81722993D01*
X92718554Y-81700471D01*
X92728782Y-81678847D01*
X92741079Y-81658330D01*
X92755329Y-81639117D01*
X92771393Y-81621393D01*
X92789117Y-81605329D01*
X92808330Y-81591079D01*
X92828847Y-81578782D01*
X92850471Y-81568554D01*
X92872993Y-81560496D01*
X92896197Y-81554684D01*
X92919858Y-81551174D01*
X92943750Y-81550000D01*
X93856250Y-81550000D01*
X93880142Y-81551174D01*
G37*
M02*
