G04 #@! TF.GenerationSoftware,KiCad,Pcbnew,(5.1.5)-3*
G04 #@! TF.CreationDate,2020-02-20T16:57:50+01:00*
G04 #@! TF.ProjectId,HL2_MRF101,484c325f-4d52-4463-9130-312e6b696361,2.0-build8*
G04 #@! TF.SameCoordinates,PX42c1d80PY2625a00*
G04 #@! TF.FileFunction,Soldermask,Top*
G04 #@! TF.FilePolarity,Negative*
%FSLAX46Y46*%
G04 Gerber Fmt 4.6, Leading zero omitted, Abs format (unit mm)*
G04 Created by KiCad (PCBNEW (5.1.5)-3) date 2020-02-20 16:57:50*
%MOMM*%
%LPD*%
G04 APERTURE LIST*
%ADD10C,2.450000*%
%ADD11O,1.900000X1.900000*%
%ADD12R,1.900000X1.900000*%
%ADD13R,2.400000X1.250000*%
%ADD14R,1.250000X1.200000*%
%ADD15C,5.500000*%
%ADD16C,1.700000*%
%ADD17R,2.800000X2.800000*%
%ADD18C,2.800000*%
%ADD19C,2.600000*%
%ADD20R,2.600000X2.600000*%
%ADD21C,0.100000*%
%ADD22R,6.199480X4.197960*%
%ADD23O,2.700000X1.800000*%
%ADD24O,7.200000X3.700000*%
%ADD25C,2.050000*%
%ADD26R,2.200000X2.200000*%
%ADD27C,2.200000*%
%ADD28R,1.400000X1.100000*%
%ADD29R,1.800000X1.800000*%
%ADD30O,1.800000X1.800000*%
%ADD31C,2.680000*%
%ADD32C,3.700000*%
%ADD33C,4.400000*%
%ADD34R,2.200000X2.105000*%
%ADD35O,2.200000X2.105000*%
%ADD36O,2.200000X1.900000*%
%ADD37C,1.500000*%
%ADD38C,1.000000*%
%ADD39C,0.800000*%
%ADD40C,1.800000*%
%ADD41C,0.254000*%
G04 APERTURE END LIST*
D10*
X62840000Y-56100000D03*
X57760000Y-51060000D03*
D11*
X6580000Y-53200000D03*
X6580000Y-50660000D03*
X6580000Y-48120000D03*
X6580000Y-45580000D03*
X6580000Y-43040000D03*
D12*
X6580000Y-40500000D03*
D13*
X89725000Y-79575000D03*
D14*
X91250000Y-78100000D03*
D13*
X89725000Y-76625000D03*
X93925000Y-69375000D03*
D14*
X95450000Y-67900000D03*
D13*
X93925000Y-66425000D03*
D15*
X20000000Y-3000000D03*
X97000000Y-3000000D03*
X136000000Y-3000000D03*
X135000000Y-97000000D03*
X98000000Y-97000000D03*
X20000000Y-97000000D03*
D11*
X98700000Y-42490000D03*
X98700000Y-45030000D03*
X98700000Y-47570000D03*
X98700000Y-50110000D03*
X98700000Y-52650000D03*
X98700000Y-55190000D03*
X98700000Y-57730000D03*
X98700000Y-60270000D03*
X98700000Y-62810000D03*
X98700000Y-65350000D03*
X98700000Y-67890000D03*
X98700000Y-70430000D03*
X98700000Y-72970000D03*
X98700000Y-75510000D03*
X98700000Y-78050000D03*
X98700000Y-80590000D03*
X98700000Y-83130000D03*
X98700000Y-85670000D03*
X98700000Y-88210000D03*
D12*
X98700000Y-90750000D03*
D16*
X95000000Y-57700000D03*
D17*
X105500000Y-21600000D03*
D18*
X105500000Y-26600000D03*
D19*
X92600000Y-13500000D03*
D20*
X92600000Y-10000000D03*
D21*
G36*
X140735043Y-16651414D02*
G01*
X140763558Y-16655644D01*
X140791521Y-16662649D01*
X140818663Y-16672360D01*
X140844723Y-16684686D01*
X140869449Y-16699506D01*
X140892603Y-16716678D01*
X140913963Y-16736037D01*
X140933322Y-16757397D01*
X140950494Y-16780551D01*
X140965314Y-16805277D01*
X140977640Y-16831337D01*
X140987351Y-16858479D01*
X140994356Y-16886442D01*
X140998586Y-16914957D01*
X141000000Y-16943750D01*
X141000000Y-17531250D01*
X140998586Y-17560043D01*
X140994356Y-17588558D01*
X140987351Y-17616521D01*
X140977640Y-17643663D01*
X140965314Y-17669723D01*
X140950494Y-17694449D01*
X140933322Y-17717603D01*
X140913963Y-17738963D01*
X140892603Y-17758322D01*
X140869449Y-17775494D01*
X140844723Y-17790314D01*
X140818663Y-17802640D01*
X140791521Y-17812351D01*
X140763558Y-17819356D01*
X140735043Y-17823586D01*
X140706250Y-17825000D01*
X139693750Y-17825000D01*
X139664957Y-17823586D01*
X139636442Y-17819356D01*
X139608479Y-17812351D01*
X139581337Y-17802640D01*
X139555277Y-17790314D01*
X139530551Y-17775494D01*
X139507397Y-17758322D01*
X139486037Y-17738963D01*
X139466678Y-17717603D01*
X139449506Y-17694449D01*
X139434686Y-17669723D01*
X139422360Y-17643663D01*
X139412649Y-17616521D01*
X139405644Y-17588558D01*
X139401414Y-17560043D01*
X139400000Y-17531250D01*
X139400000Y-16943750D01*
X139401414Y-16914957D01*
X139405644Y-16886442D01*
X139412649Y-16858479D01*
X139422360Y-16831337D01*
X139434686Y-16805277D01*
X139449506Y-16780551D01*
X139466678Y-16757397D01*
X139486037Y-16736037D01*
X139507397Y-16716678D01*
X139530551Y-16699506D01*
X139555277Y-16684686D01*
X139581337Y-16672360D01*
X139608479Y-16662649D01*
X139636442Y-16655644D01*
X139664957Y-16651414D01*
X139693750Y-16650000D01*
X140706250Y-16650000D01*
X140735043Y-16651414D01*
G37*
G36*
X140735043Y-14776414D02*
G01*
X140763558Y-14780644D01*
X140791521Y-14787649D01*
X140818663Y-14797360D01*
X140844723Y-14809686D01*
X140869449Y-14824506D01*
X140892603Y-14841678D01*
X140913963Y-14861037D01*
X140933322Y-14882397D01*
X140950494Y-14905551D01*
X140965314Y-14930277D01*
X140977640Y-14956337D01*
X140987351Y-14983479D01*
X140994356Y-15011442D01*
X140998586Y-15039957D01*
X141000000Y-15068750D01*
X141000000Y-15656250D01*
X140998586Y-15685043D01*
X140994356Y-15713558D01*
X140987351Y-15741521D01*
X140977640Y-15768663D01*
X140965314Y-15794723D01*
X140950494Y-15819449D01*
X140933322Y-15842603D01*
X140913963Y-15863963D01*
X140892603Y-15883322D01*
X140869449Y-15900494D01*
X140844723Y-15915314D01*
X140818663Y-15927640D01*
X140791521Y-15937351D01*
X140763558Y-15944356D01*
X140735043Y-15948586D01*
X140706250Y-15950000D01*
X139693750Y-15950000D01*
X139664957Y-15948586D01*
X139636442Y-15944356D01*
X139608479Y-15937351D01*
X139581337Y-15927640D01*
X139555277Y-15915314D01*
X139530551Y-15900494D01*
X139507397Y-15883322D01*
X139486037Y-15863963D01*
X139466678Y-15842603D01*
X139449506Y-15819449D01*
X139434686Y-15794723D01*
X139422360Y-15768663D01*
X139412649Y-15741521D01*
X139405644Y-15713558D01*
X139401414Y-15685043D01*
X139400000Y-15656250D01*
X139400000Y-15068750D01*
X139401414Y-15039957D01*
X139405644Y-15011442D01*
X139412649Y-14983479D01*
X139422360Y-14956337D01*
X139434686Y-14930277D01*
X139449506Y-14905551D01*
X139466678Y-14882397D01*
X139486037Y-14861037D01*
X139507397Y-14841678D01*
X139530551Y-14824506D01*
X139555277Y-14809686D01*
X139581337Y-14797360D01*
X139608479Y-14787649D01*
X139636442Y-14780644D01*
X139664957Y-14776414D01*
X139693750Y-14775000D01*
X140706250Y-14775000D01*
X140735043Y-14776414D01*
G37*
D22*
X126198720Y-40899700D03*
X116201280Y-40899700D03*
X116201280Y-20300300D03*
X126198720Y-20300300D03*
D19*
X51000000Y-24000000D03*
X51000000Y-16900000D03*
X58600000Y-10000000D03*
X52400000Y-13800000D03*
X31000000Y-24000000D03*
X31000000Y-16900000D03*
X38600000Y-10000000D03*
X32400000Y-13800000D03*
D23*
X12900000Y-17340000D03*
X12900000Y-14800000D03*
D24*
X7820000Y-9720000D03*
X7820000Y-19880000D03*
D25*
X82380000Y-40940000D03*
X77300000Y-40940000D03*
X74760000Y-40940000D03*
X72220000Y-40940000D03*
X72220000Y-35860000D03*
X74760000Y-35860000D03*
X77300000Y-35860000D03*
X82380000Y-35860000D03*
X82380000Y-50940000D03*
X77300000Y-50940000D03*
X74760000Y-50940000D03*
X72220000Y-50940000D03*
X72220000Y-45860000D03*
X74760000Y-45860000D03*
X77300000Y-45860000D03*
X82380000Y-45860000D03*
X82380000Y-60940000D03*
X77300000Y-60940000D03*
X74760000Y-60940000D03*
X72220000Y-60940000D03*
X72220000Y-55860000D03*
X74760000Y-55860000D03*
X77300000Y-55860000D03*
X82380000Y-55860000D03*
X82480000Y-70840000D03*
X77400000Y-70840000D03*
X74860000Y-70840000D03*
X72320000Y-70840000D03*
X72320000Y-65760000D03*
X74860000Y-65760000D03*
X77400000Y-65760000D03*
X82480000Y-65760000D03*
X82480000Y-80940000D03*
X77400000Y-80940000D03*
X74860000Y-80940000D03*
X72320000Y-80940000D03*
X72320000Y-75860000D03*
X74860000Y-75860000D03*
X77400000Y-75860000D03*
X82480000Y-75860000D03*
X23320000Y-35860000D03*
X28400000Y-35860000D03*
X30940000Y-35860000D03*
X33480000Y-35860000D03*
X33480000Y-40940000D03*
X30940000Y-40940000D03*
X28400000Y-40940000D03*
X23320000Y-40940000D03*
X23420000Y-45860000D03*
X28500000Y-45860000D03*
X31040000Y-45860000D03*
X33580000Y-45860000D03*
X33580000Y-50940000D03*
X31040000Y-50940000D03*
X28500000Y-50940000D03*
X23420000Y-50940000D03*
X23320000Y-55860000D03*
X28400000Y-55860000D03*
X30940000Y-55860000D03*
X33480000Y-55860000D03*
X33480000Y-60940000D03*
X30940000Y-60940000D03*
X28400000Y-60940000D03*
X23320000Y-60940000D03*
X23220000Y-65860000D03*
X28300000Y-65860000D03*
X30840000Y-65860000D03*
X33380000Y-65860000D03*
X33380000Y-70940000D03*
X30840000Y-70940000D03*
X28300000Y-70940000D03*
X23220000Y-70940000D03*
X23220000Y-75860000D03*
X28300000Y-75860000D03*
X30840000Y-75860000D03*
X33380000Y-75860000D03*
X33380000Y-80940000D03*
X30840000Y-80940000D03*
X28300000Y-80940000D03*
X23220000Y-80940000D03*
X112640000Y-80620000D03*
X112640000Y-85700000D03*
X112640000Y-88240000D03*
X112640000Y-90780000D03*
X107560000Y-90780000D03*
X107560000Y-88240000D03*
X107560000Y-85700000D03*
X107560000Y-80620000D03*
X107560000Y-73920000D03*
X107560000Y-68840000D03*
X107560000Y-66300000D03*
X107560000Y-63760000D03*
X112640000Y-63760000D03*
X112640000Y-66300000D03*
X112640000Y-68840000D03*
X112640000Y-73920000D03*
X125540000Y-80620000D03*
X125540000Y-85700000D03*
X125540000Y-88240000D03*
X125540000Y-90780000D03*
X120460000Y-90780000D03*
X120460000Y-88240000D03*
X120460000Y-85700000D03*
X120460000Y-80620000D03*
D10*
X57760000Y-31060000D03*
X62840000Y-36100000D03*
X62840000Y-46100000D03*
X57760000Y-41060000D03*
X57760000Y-61060000D03*
X62840000Y-66100000D03*
X57760000Y-71060000D03*
X62840000Y-76100000D03*
X57760000Y-81060000D03*
X62840000Y-86100000D03*
X42860000Y-31060000D03*
X47940000Y-36100000D03*
X47940000Y-46100000D03*
X42860000Y-41060000D03*
X42860000Y-51060000D03*
X47940000Y-56100000D03*
X42860000Y-61060000D03*
X47940000Y-66100000D03*
X42860000Y-71060000D03*
X47940000Y-76100000D03*
X42860000Y-81060000D03*
X47940000Y-86100000D03*
D21*
G36*
X134635043Y-64551414D02*
G01*
X134663558Y-64555644D01*
X134691521Y-64562649D01*
X134718663Y-64572360D01*
X134744723Y-64584686D01*
X134769449Y-64599506D01*
X134792603Y-64616678D01*
X134813963Y-64636037D01*
X134833322Y-64657397D01*
X134850494Y-64680551D01*
X134865314Y-64705277D01*
X134877640Y-64731337D01*
X134887351Y-64758479D01*
X134894356Y-64786442D01*
X134898586Y-64814957D01*
X134900000Y-64843750D01*
X134900000Y-65431250D01*
X134898586Y-65460043D01*
X134894356Y-65488558D01*
X134887351Y-65516521D01*
X134877640Y-65543663D01*
X134865314Y-65569723D01*
X134850494Y-65594449D01*
X134833322Y-65617603D01*
X134813963Y-65638963D01*
X134792603Y-65658322D01*
X134769449Y-65675494D01*
X134744723Y-65690314D01*
X134718663Y-65702640D01*
X134691521Y-65712351D01*
X134663558Y-65719356D01*
X134635043Y-65723586D01*
X134606250Y-65725000D01*
X133593750Y-65725000D01*
X133564957Y-65723586D01*
X133536442Y-65719356D01*
X133508479Y-65712351D01*
X133481337Y-65702640D01*
X133455277Y-65690314D01*
X133430551Y-65675494D01*
X133407397Y-65658322D01*
X133386037Y-65638963D01*
X133366678Y-65617603D01*
X133349506Y-65594449D01*
X133334686Y-65569723D01*
X133322360Y-65543663D01*
X133312649Y-65516521D01*
X133305644Y-65488558D01*
X133301414Y-65460043D01*
X133300000Y-65431250D01*
X133300000Y-64843750D01*
X133301414Y-64814957D01*
X133305644Y-64786442D01*
X133312649Y-64758479D01*
X133322360Y-64731337D01*
X133334686Y-64705277D01*
X133349506Y-64680551D01*
X133366678Y-64657397D01*
X133386037Y-64636037D01*
X133407397Y-64616678D01*
X133430551Y-64599506D01*
X133455277Y-64584686D01*
X133481337Y-64572360D01*
X133508479Y-64562649D01*
X133536442Y-64555644D01*
X133564957Y-64551414D01*
X133593750Y-64550000D01*
X134606250Y-64550000D01*
X134635043Y-64551414D01*
G37*
G36*
X134635043Y-62676414D02*
G01*
X134663558Y-62680644D01*
X134691521Y-62687649D01*
X134718663Y-62697360D01*
X134744723Y-62709686D01*
X134769449Y-62724506D01*
X134792603Y-62741678D01*
X134813963Y-62761037D01*
X134833322Y-62782397D01*
X134850494Y-62805551D01*
X134865314Y-62830277D01*
X134877640Y-62856337D01*
X134887351Y-62883479D01*
X134894356Y-62911442D01*
X134898586Y-62939957D01*
X134900000Y-62968750D01*
X134900000Y-63556250D01*
X134898586Y-63585043D01*
X134894356Y-63613558D01*
X134887351Y-63641521D01*
X134877640Y-63668663D01*
X134865314Y-63694723D01*
X134850494Y-63719449D01*
X134833322Y-63742603D01*
X134813963Y-63763963D01*
X134792603Y-63783322D01*
X134769449Y-63800494D01*
X134744723Y-63815314D01*
X134718663Y-63827640D01*
X134691521Y-63837351D01*
X134663558Y-63844356D01*
X134635043Y-63848586D01*
X134606250Y-63850000D01*
X133593750Y-63850000D01*
X133564957Y-63848586D01*
X133536442Y-63844356D01*
X133508479Y-63837351D01*
X133481337Y-63827640D01*
X133455277Y-63815314D01*
X133430551Y-63800494D01*
X133407397Y-63783322D01*
X133386037Y-63763963D01*
X133366678Y-63742603D01*
X133349506Y-63719449D01*
X133334686Y-63694723D01*
X133322360Y-63668663D01*
X133312649Y-63641521D01*
X133305644Y-63613558D01*
X133301414Y-63585043D01*
X133300000Y-63556250D01*
X133300000Y-62968750D01*
X133301414Y-62939957D01*
X133305644Y-62911442D01*
X133312649Y-62883479D01*
X133322360Y-62856337D01*
X133334686Y-62830277D01*
X133349506Y-62805551D01*
X133366678Y-62782397D01*
X133386037Y-62761037D01*
X133407397Y-62741678D01*
X133430551Y-62724506D01*
X133455277Y-62709686D01*
X133481337Y-62697360D01*
X133508479Y-62687649D01*
X133536442Y-62680644D01*
X133564957Y-62676414D01*
X133593750Y-62675000D01*
X134606250Y-62675000D01*
X134635043Y-62676414D01*
G37*
G36*
X129935043Y-62676414D02*
G01*
X129963558Y-62680644D01*
X129991521Y-62687649D01*
X130018663Y-62697360D01*
X130044723Y-62709686D01*
X130069449Y-62724506D01*
X130092603Y-62741678D01*
X130113963Y-62761037D01*
X130133322Y-62782397D01*
X130150494Y-62805551D01*
X130165314Y-62830277D01*
X130177640Y-62856337D01*
X130187351Y-62883479D01*
X130194356Y-62911442D01*
X130198586Y-62939957D01*
X130200000Y-62968750D01*
X130200000Y-63556250D01*
X130198586Y-63585043D01*
X130194356Y-63613558D01*
X130187351Y-63641521D01*
X130177640Y-63668663D01*
X130165314Y-63694723D01*
X130150494Y-63719449D01*
X130133322Y-63742603D01*
X130113963Y-63763963D01*
X130092603Y-63783322D01*
X130069449Y-63800494D01*
X130044723Y-63815314D01*
X130018663Y-63827640D01*
X129991521Y-63837351D01*
X129963558Y-63844356D01*
X129935043Y-63848586D01*
X129906250Y-63850000D01*
X128893750Y-63850000D01*
X128864957Y-63848586D01*
X128836442Y-63844356D01*
X128808479Y-63837351D01*
X128781337Y-63827640D01*
X128755277Y-63815314D01*
X128730551Y-63800494D01*
X128707397Y-63783322D01*
X128686037Y-63763963D01*
X128666678Y-63742603D01*
X128649506Y-63719449D01*
X128634686Y-63694723D01*
X128622360Y-63668663D01*
X128612649Y-63641521D01*
X128605644Y-63613558D01*
X128601414Y-63585043D01*
X128600000Y-63556250D01*
X128600000Y-62968750D01*
X128601414Y-62939957D01*
X128605644Y-62911442D01*
X128612649Y-62883479D01*
X128622360Y-62856337D01*
X128634686Y-62830277D01*
X128649506Y-62805551D01*
X128666678Y-62782397D01*
X128686037Y-62761037D01*
X128707397Y-62741678D01*
X128730551Y-62724506D01*
X128755277Y-62709686D01*
X128781337Y-62697360D01*
X128808479Y-62687649D01*
X128836442Y-62680644D01*
X128864957Y-62676414D01*
X128893750Y-62675000D01*
X129906250Y-62675000D01*
X129935043Y-62676414D01*
G37*
G36*
X129935043Y-64551414D02*
G01*
X129963558Y-64555644D01*
X129991521Y-64562649D01*
X130018663Y-64572360D01*
X130044723Y-64584686D01*
X130069449Y-64599506D01*
X130092603Y-64616678D01*
X130113963Y-64636037D01*
X130133322Y-64657397D01*
X130150494Y-64680551D01*
X130165314Y-64705277D01*
X130177640Y-64731337D01*
X130187351Y-64758479D01*
X130194356Y-64786442D01*
X130198586Y-64814957D01*
X130200000Y-64843750D01*
X130200000Y-65431250D01*
X130198586Y-65460043D01*
X130194356Y-65488558D01*
X130187351Y-65516521D01*
X130177640Y-65543663D01*
X130165314Y-65569723D01*
X130150494Y-65594449D01*
X130133322Y-65617603D01*
X130113963Y-65638963D01*
X130092603Y-65658322D01*
X130069449Y-65675494D01*
X130044723Y-65690314D01*
X130018663Y-65702640D01*
X129991521Y-65712351D01*
X129963558Y-65719356D01*
X129935043Y-65723586D01*
X129906250Y-65725000D01*
X128893750Y-65725000D01*
X128864957Y-65723586D01*
X128836442Y-65719356D01*
X128808479Y-65712351D01*
X128781337Y-65702640D01*
X128755277Y-65690314D01*
X128730551Y-65675494D01*
X128707397Y-65658322D01*
X128686037Y-65638963D01*
X128666678Y-65617603D01*
X128649506Y-65594449D01*
X128634686Y-65569723D01*
X128622360Y-65543663D01*
X128612649Y-65516521D01*
X128605644Y-65488558D01*
X128601414Y-65460043D01*
X128600000Y-65431250D01*
X128600000Y-64843750D01*
X128601414Y-64814957D01*
X128605644Y-64786442D01*
X128612649Y-64758479D01*
X128622360Y-64731337D01*
X128634686Y-64705277D01*
X128649506Y-64680551D01*
X128666678Y-64657397D01*
X128686037Y-64636037D01*
X128707397Y-64616678D01*
X128730551Y-64599506D01*
X128755277Y-64584686D01*
X128781337Y-64572360D01*
X128808479Y-64562649D01*
X128836442Y-64555644D01*
X128864957Y-64551414D01*
X128893750Y-64550000D01*
X129906250Y-64550000D01*
X129935043Y-64551414D01*
G37*
G36*
X144197543Y-36401414D02*
G01*
X144226058Y-36405644D01*
X144254021Y-36412649D01*
X144281163Y-36422360D01*
X144307223Y-36434686D01*
X144331949Y-36449506D01*
X144355103Y-36466678D01*
X144376463Y-36486037D01*
X144395822Y-36507397D01*
X144412994Y-36530551D01*
X144427814Y-36555277D01*
X144440140Y-36581337D01*
X144449851Y-36608479D01*
X144456856Y-36636442D01*
X144461086Y-36664957D01*
X144462500Y-36693750D01*
X144462500Y-37706250D01*
X144461086Y-37735043D01*
X144456856Y-37763558D01*
X144449851Y-37791521D01*
X144440140Y-37818663D01*
X144427814Y-37844723D01*
X144412994Y-37869449D01*
X144395822Y-37892603D01*
X144376463Y-37913963D01*
X144355103Y-37933322D01*
X144331949Y-37950494D01*
X144307223Y-37965314D01*
X144281163Y-37977640D01*
X144254021Y-37987351D01*
X144226058Y-37994356D01*
X144197543Y-37998586D01*
X144168750Y-38000000D01*
X143581250Y-38000000D01*
X143552457Y-37998586D01*
X143523942Y-37994356D01*
X143495979Y-37987351D01*
X143468837Y-37977640D01*
X143442777Y-37965314D01*
X143418051Y-37950494D01*
X143394897Y-37933322D01*
X143373537Y-37913963D01*
X143354178Y-37892603D01*
X143337006Y-37869449D01*
X143322186Y-37844723D01*
X143309860Y-37818663D01*
X143300149Y-37791521D01*
X143293144Y-37763558D01*
X143288914Y-37735043D01*
X143287500Y-37706250D01*
X143287500Y-36693750D01*
X143288914Y-36664957D01*
X143293144Y-36636442D01*
X143300149Y-36608479D01*
X143309860Y-36581337D01*
X143322186Y-36555277D01*
X143337006Y-36530551D01*
X143354178Y-36507397D01*
X143373537Y-36486037D01*
X143394897Y-36466678D01*
X143418051Y-36449506D01*
X143442777Y-36434686D01*
X143468837Y-36422360D01*
X143495979Y-36412649D01*
X143523942Y-36405644D01*
X143552457Y-36401414D01*
X143581250Y-36400000D01*
X144168750Y-36400000D01*
X144197543Y-36401414D01*
G37*
G36*
X142322543Y-36401414D02*
G01*
X142351058Y-36405644D01*
X142379021Y-36412649D01*
X142406163Y-36422360D01*
X142432223Y-36434686D01*
X142456949Y-36449506D01*
X142480103Y-36466678D01*
X142501463Y-36486037D01*
X142520822Y-36507397D01*
X142537994Y-36530551D01*
X142552814Y-36555277D01*
X142565140Y-36581337D01*
X142574851Y-36608479D01*
X142581856Y-36636442D01*
X142586086Y-36664957D01*
X142587500Y-36693750D01*
X142587500Y-37706250D01*
X142586086Y-37735043D01*
X142581856Y-37763558D01*
X142574851Y-37791521D01*
X142565140Y-37818663D01*
X142552814Y-37844723D01*
X142537994Y-37869449D01*
X142520822Y-37892603D01*
X142501463Y-37913963D01*
X142480103Y-37933322D01*
X142456949Y-37950494D01*
X142432223Y-37965314D01*
X142406163Y-37977640D01*
X142379021Y-37987351D01*
X142351058Y-37994356D01*
X142322543Y-37998586D01*
X142293750Y-38000000D01*
X141706250Y-38000000D01*
X141677457Y-37998586D01*
X141648942Y-37994356D01*
X141620979Y-37987351D01*
X141593837Y-37977640D01*
X141567777Y-37965314D01*
X141543051Y-37950494D01*
X141519897Y-37933322D01*
X141498537Y-37913963D01*
X141479178Y-37892603D01*
X141462006Y-37869449D01*
X141447186Y-37844723D01*
X141434860Y-37818663D01*
X141425149Y-37791521D01*
X141418144Y-37763558D01*
X141413914Y-37735043D01*
X141412500Y-37706250D01*
X141412500Y-36693750D01*
X141413914Y-36664957D01*
X141418144Y-36636442D01*
X141425149Y-36608479D01*
X141434860Y-36581337D01*
X141447186Y-36555277D01*
X141462006Y-36530551D01*
X141479178Y-36507397D01*
X141498537Y-36486037D01*
X141519897Y-36466678D01*
X141543051Y-36449506D01*
X141567777Y-36434686D01*
X141593837Y-36422360D01*
X141620979Y-36412649D01*
X141648942Y-36405644D01*
X141677457Y-36401414D01*
X141706250Y-36400000D01*
X142293750Y-36400000D01*
X142322543Y-36401414D01*
G37*
G36*
X143035043Y-16651414D02*
G01*
X143063558Y-16655644D01*
X143091521Y-16662649D01*
X143118663Y-16672360D01*
X143144723Y-16684686D01*
X143169449Y-16699506D01*
X143192603Y-16716678D01*
X143213963Y-16736037D01*
X143233322Y-16757397D01*
X143250494Y-16780551D01*
X143265314Y-16805277D01*
X143277640Y-16831337D01*
X143287351Y-16858479D01*
X143294356Y-16886442D01*
X143298586Y-16914957D01*
X143300000Y-16943750D01*
X143300000Y-17531250D01*
X143298586Y-17560043D01*
X143294356Y-17588558D01*
X143287351Y-17616521D01*
X143277640Y-17643663D01*
X143265314Y-17669723D01*
X143250494Y-17694449D01*
X143233322Y-17717603D01*
X143213963Y-17738963D01*
X143192603Y-17758322D01*
X143169449Y-17775494D01*
X143144723Y-17790314D01*
X143118663Y-17802640D01*
X143091521Y-17812351D01*
X143063558Y-17819356D01*
X143035043Y-17823586D01*
X143006250Y-17825000D01*
X141993750Y-17825000D01*
X141964957Y-17823586D01*
X141936442Y-17819356D01*
X141908479Y-17812351D01*
X141881337Y-17802640D01*
X141855277Y-17790314D01*
X141830551Y-17775494D01*
X141807397Y-17758322D01*
X141786037Y-17738963D01*
X141766678Y-17717603D01*
X141749506Y-17694449D01*
X141734686Y-17669723D01*
X141722360Y-17643663D01*
X141712649Y-17616521D01*
X141705644Y-17588558D01*
X141701414Y-17560043D01*
X141700000Y-17531250D01*
X141700000Y-16943750D01*
X141701414Y-16914957D01*
X141705644Y-16886442D01*
X141712649Y-16858479D01*
X141722360Y-16831337D01*
X141734686Y-16805277D01*
X141749506Y-16780551D01*
X141766678Y-16757397D01*
X141786037Y-16736037D01*
X141807397Y-16716678D01*
X141830551Y-16699506D01*
X141855277Y-16684686D01*
X141881337Y-16672360D01*
X141908479Y-16662649D01*
X141936442Y-16655644D01*
X141964957Y-16651414D01*
X141993750Y-16650000D01*
X143006250Y-16650000D01*
X143035043Y-16651414D01*
G37*
G36*
X143035043Y-14776414D02*
G01*
X143063558Y-14780644D01*
X143091521Y-14787649D01*
X143118663Y-14797360D01*
X143144723Y-14809686D01*
X143169449Y-14824506D01*
X143192603Y-14841678D01*
X143213963Y-14861037D01*
X143233322Y-14882397D01*
X143250494Y-14905551D01*
X143265314Y-14930277D01*
X143277640Y-14956337D01*
X143287351Y-14983479D01*
X143294356Y-15011442D01*
X143298586Y-15039957D01*
X143300000Y-15068750D01*
X143300000Y-15656250D01*
X143298586Y-15685043D01*
X143294356Y-15713558D01*
X143287351Y-15741521D01*
X143277640Y-15768663D01*
X143265314Y-15794723D01*
X143250494Y-15819449D01*
X143233322Y-15842603D01*
X143213963Y-15863963D01*
X143192603Y-15883322D01*
X143169449Y-15900494D01*
X143144723Y-15915314D01*
X143118663Y-15927640D01*
X143091521Y-15937351D01*
X143063558Y-15944356D01*
X143035043Y-15948586D01*
X143006250Y-15950000D01*
X141993750Y-15950000D01*
X141964957Y-15948586D01*
X141936442Y-15944356D01*
X141908479Y-15937351D01*
X141881337Y-15927640D01*
X141855277Y-15915314D01*
X141830551Y-15900494D01*
X141807397Y-15883322D01*
X141786037Y-15863963D01*
X141766678Y-15842603D01*
X141749506Y-15819449D01*
X141734686Y-15794723D01*
X141722360Y-15768663D01*
X141712649Y-15741521D01*
X141705644Y-15713558D01*
X141701414Y-15685043D01*
X141700000Y-15656250D01*
X141700000Y-15068750D01*
X141701414Y-15039957D01*
X141705644Y-15011442D01*
X141712649Y-14983479D01*
X141722360Y-14956337D01*
X141734686Y-14930277D01*
X141749506Y-14905551D01*
X141766678Y-14882397D01*
X141786037Y-14861037D01*
X141807397Y-14841678D01*
X141830551Y-14824506D01*
X141855277Y-14809686D01*
X141881337Y-14797360D01*
X141908479Y-14787649D01*
X141936442Y-14780644D01*
X141964957Y-14776414D01*
X141993750Y-14775000D01*
X143006250Y-14775000D01*
X143035043Y-14776414D01*
G37*
D26*
X124100000Y-14600000D03*
D27*
X124100000Y-9600000D03*
D21*
G36*
X141922543Y-83301414D02*
G01*
X141951058Y-83305644D01*
X141979021Y-83312649D01*
X142006163Y-83322360D01*
X142032223Y-83334686D01*
X142056949Y-83349506D01*
X142080103Y-83366678D01*
X142101463Y-83386037D01*
X142120822Y-83407397D01*
X142137994Y-83430551D01*
X142152814Y-83455277D01*
X142165140Y-83481337D01*
X142174851Y-83508479D01*
X142181856Y-83536442D01*
X142186086Y-83564957D01*
X142187500Y-83593750D01*
X142187500Y-84606250D01*
X142186086Y-84635043D01*
X142181856Y-84663558D01*
X142174851Y-84691521D01*
X142165140Y-84718663D01*
X142152814Y-84744723D01*
X142137994Y-84769449D01*
X142120822Y-84792603D01*
X142101463Y-84813963D01*
X142080103Y-84833322D01*
X142056949Y-84850494D01*
X142032223Y-84865314D01*
X142006163Y-84877640D01*
X141979021Y-84887351D01*
X141951058Y-84894356D01*
X141922543Y-84898586D01*
X141893750Y-84900000D01*
X141306250Y-84900000D01*
X141277457Y-84898586D01*
X141248942Y-84894356D01*
X141220979Y-84887351D01*
X141193837Y-84877640D01*
X141167777Y-84865314D01*
X141143051Y-84850494D01*
X141119897Y-84833322D01*
X141098537Y-84813963D01*
X141079178Y-84792603D01*
X141062006Y-84769449D01*
X141047186Y-84744723D01*
X141034860Y-84718663D01*
X141025149Y-84691521D01*
X141018144Y-84663558D01*
X141013914Y-84635043D01*
X141012500Y-84606250D01*
X141012500Y-83593750D01*
X141013914Y-83564957D01*
X141018144Y-83536442D01*
X141025149Y-83508479D01*
X141034860Y-83481337D01*
X141047186Y-83455277D01*
X141062006Y-83430551D01*
X141079178Y-83407397D01*
X141098537Y-83386037D01*
X141119897Y-83366678D01*
X141143051Y-83349506D01*
X141167777Y-83334686D01*
X141193837Y-83322360D01*
X141220979Y-83312649D01*
X141248942Y-83305644D01*
X141277457Y-83301414D01*
X141306250Y-83300000D01*
X141893750Y-83300000D01*
X141922543Y-83301414D01*
G37*
G36*
X140047543Y-83301414D02*
G01*
X140076058Y-83305644D01*
X140104021Y-83312649D01*
X140131163Y-83322360D01*
X140157223Y-83334686D01*
X140181949Y-83349506D01*
X140205103Y-83366678D01*
X140226463Y-83386037D01*
X140245822Y-83407397D01*
X140262994Y-83430551D01*
X140277814Y-83455277D01*
X140290140Y-83481337D01*
X140299851Y-83508479D01*
X140306856Y-83536442D01*
X140311086Y-83564957D01*
X140312500Y-83593750D01*
X140312500Y-84606250D01*
X140311086Y-84635043D01*
X140306856Y-84663558D01*
X140299851Y-84691521D01*
X140290140Y-84718663D01*
X140277814Y-84744723D01*
X140262994Y-84769449D01*
X140245822Y-84792603D01*
X140226463Y-84813963D01*
X140205103Y-84833322D01*
X140181949Y-84850494D01*
X140157223Y-84865314D01*
X140131163Y-84877640D01*
X140104021Y-84887351D01*
X140076058Y-84894356D01*
X140047543Y-84898586D01*
X140018750Y-84900000D01*
X139431250Y-84900000D01*
X139402457Y-84898586D01*
X139373942Y-84894356D01*
X139345979Y-84887351D01*
X139318837Y-84877640D01*
X139292777Y-84865314D01*
X139268051Y-84850494D01*
X139244897Y-84833322D01*
X139223537Y-84813963D01*
X139204178Y-84792603D01*
X139187006Y-84769449D01*
X139172186Y-84744723D01*
X139159860Y-84718663D01*
X139150149Y-84691521D01*
X139143144Y-84663558D01*
X139138914Y-84635043D01*
X139137500Y-84606250D01*
X139137500Y-83593750D01*
X139138914Y-83564957D01*
X139143144Y-83536442D01*
X139150149Y-83508479D01*
X139159860Y-83481337D01*
X139172186Y-83455277D01*
X139187006Y-83430551D01*
X139204178Y-83407397D01*
X139223537Y-83386037D01*
X139244897Y-83366678D01*
X139268051Y-83349506D01*
X139292777Y-83334686D01*
X139318837Y-83322360D01*
X139345979Y-83312649D01*
X139373942Y-83305644D01*
X139402457Y-83301414D01*
X139431250Y-83300000D01*
X140018750Y-83300000D01*
X140047543Y-83301414D01*
G37*
G36*
X131922543Y-12501414D02*
G01*
X131951058Y-12505644D01*
X131979021Y-12512649D01*
X132006163Y-12522360D01*
X132032223Y-12534686D01*
X132056949Y-12549506D01*
X132080103Y-12566678D01*
X132101463Y-12586037D01*
X132120822Y-12607397D01*
X132137994Y-12630551D01*
X132152814Y-12655277D01*
X132165140Y-12681337D01*
X132174851Y-12708479D01*
X132181856Y-12736442D01*
X132186086Y-12764957D01*
X132187500Y-12793750D01*
X132187500Y-13806250D01*
X132186086Y-13835043D01*
X132181856Y-13863558D01*
X132174851Y-13891521D01*
X132165140Y-13918663D01*
X132152814Y-13944723D01*
X132137994Y-13969449D01*
X132120822Y-13992603D01*
X132101463Y-14013963D01*
X132080103Y-14033322D01*
X132056949Y-14050494D01*
X132032223Y-14065314D01*
X132006163Y-14077640D01*
X131979021Y-14087351D01*
X131951058Y-14094356D01*
X131922543Y-14098586D01*
X131893750Y-14100000D01*
X131306250Y-14100000D01*
X131277457Y-14098586D01*
X131248942Y-14094356D01*
X131220979Y-14087351D01*
X131193837Y-14077640D01*
X131167777Y-14065314D01*
X131143051Y-14050494D01*
X131119897Y-14033322D01*
X131098537Y-14013963D01*
X131079178Y-13992603D01*
X131062006Y-13969449D01*
X131047186Y-13944723D01*
X131034860Y-13918663D01*
X131025149Y-13891521D01*
X131018144Y-13863558D01*
X131013914Y-13835043D01*
X131012500Y-13806250D01*
X131012500Y-12793750D01*
X131013914Y-12764957D01*
X131018144Y-12736442D01*
X131025149Y-12708479D01*
X131034860Y-12681337D01*
X131047186Y-12655277D01*
X131062006Y-12630551D01*
X131079178Y-12607397D01*
X131098537Y-12586037D01*
X131119897Y-12566678D01*
X131143051Y-12549506D01*
X131167777Y-12534686D01*
X131193837Y-12522360D01*
X131220979Y-12512649D01*
X131248942Y-12505644D01*
X131277457Y-12501414D01*
X131306250Y-12500000D01*
X131893750Y-12500000D01*
X131922543Y-12501414D01*
G37*
G36*
X133797543Y-12501414D02*
G01*
X133826058Y-12505644D01*
X133854021Y-12512649D01*
X133881163Y-12522360D01*
X133907223Y-12534686D01*
X133931949Y-12549506D01*
X133955103Y-12566678D01*
X133976463Y-12586037D01*
X133995822Y-12607397D01*
X134012994Y-12630551D01*
X134027814Y-12655277D01*
X134040140Y-12681337D01*
X134049851Y-12708479D01*
X134056856Y-12736442D01*
X134061086Y-12764957D01*
X134062500Y-12793750D01*
X134062500Y-13806250D01*
X134061086Y-13835043D01*
X134056856Y-13863558D01*
X134049851Y-13891521D01*
X134040140Y-13918663D01*
X134027814Y-13944723D01*
X134012994Y-13969449D01*
X133995822Y-13992603D01*
X133976463Y-14013963D01*
X133955103Y-14033322D01*
X133931949Y-14050494D01*
X133907223Y-14065314D01*
X133881163Y-14077640D01*
X133854021Y-14087351D01*
X133826058Y-14094356D01*
X133797543Y-14098586D01*
X133768750Y-14100000D01*
X133181250Y-14100000D01*
X133152457Y-14098586D01*
X133123942Y-14094356D01*
X133095979Y-14087351D01*
X133068837Y-14077640D01*
X133042777Y-14065314D01*
X133018051Y-14050494D01*
X132994897Y-14033322D01*
X132973537Y-14013963D01*
X132954178Y-13992603D01*
X132937006Y-13969449D01*
X132922186Y-13944723D01*
X132909860Y-13918663D01*
X132900149Y-13891521D01*
X132893144Y-13863558D01*
X132888914Y-13835043D01*
X132887500Y-13806250D01*
X132887500Y-12793750D01*
X132888914Y-12764957D01*
X132893144Y-12736442D01*
X132900149Y-12708479D01*
X132909860Y-12681337D01*
X132922186Y-12655277D01*
X132937006Y-12630551D01*
X132954178Y-12607397D01*
X132973537Y-12586037D01*
X132994897Y-12566678D01*
X133018051Y-12549506D01*
X133042777Y-12534686D01*
X133068837Y-12522360D01*
X133095979Y-12512649D01*
X133123942Y-12505644D01*
X133152457Y-12501414D01*
X133181250Y-12500000D01*
X133768750Y-12500000D01*
X133797543Y-12501414D01*
G37*
G36*
X133810043Y-14701414D02*
G01*
X133838558Y-14705644D01*
X133866521Y-14712649D01*
X133893663Y-14722360D01*
X133919723Y-14734686D01*
X133944449Y-14749506D01*
X133967603Y-14766678D01*
X133988963Y-14786037D01*
X134008322Y-14807397D01*
X134025494Y-14830551D01*
X134040314Y-14855277D01*
X134052640Y-14881337D01*
X134062351Y-14908479D01*
X134069356Y-14936442D01*
X134073586Y-14964957D01*
X134075000Y-14993750D01*
X134075000Y-16006250D01*
X134073586Y-16035043D01*
X134069356Y-16063558D01*
X134062351Y-16091521D01*
X134052640Y-16118663D01*
X134040314Y-16144723D01*
X134025494Y-16169449D01*
X134008322Y-16192603D01*
X133988963Y-16213963D01*
X133967603Y-16233322D01*
X133944449Y-16250494D01*
X133919723Y-16265314D01*
X133893663Y-16277640D01*
X133866521Y-16287351D01*
X133838558Y-16294356D01*
X133810043Y-16298586D01*
X133781250Y-16300000D01*
X133193750Y-16300000D01*
X133164957Y-16298586D01*
X133136442Y-16294356D01*
X133108479Y-16287351D01*
X133081337Y-16277640D01*
X133055277Y-16265314D01*
X133030551Y-16250494D01*
X133007397Y-16233322D01*
X132986037Y-16213963D01*
X132966678Y-16192603D01*
X132949506Y-16169449D01*
X132934686Y-16144723D01*
X132922360Y-16118663D01*
X132912649Y-16091521D01*
X132905644Y-16063558D01*
X132901414Y-16035043D01*
X132900000Y-16006250D01*
X132900000Y-14993750D01*
X132901414Y-14964957D01*
X132905644Y-14936442D01*
X132912649Y-14908479D01*
X132922360Y-14881337D01*
X132934686Y-14855277D01*
X132949506Y-14830551D01*
X132966678Y-14807397D01*
X132986037Y-14786037D01*
X133007397Y-14766678D01*
X133030551Y-14749506D01*
X133055277Y-14734686D01*
X133081337Y-14722360D01*
X133108479Y-14712649D01*
X133136442Y-14705644D01*
X133164957Y-14701414D01*
X133193750Y-14700000D01*
X133781250Y-14700000D01*
X133810043Y-14701414D01*
G37*
G36*
X131935043Y-14701414D02*
G01*
X131963558Y-14705644D01*
X131991521Y-14712649D01*
X132018663Y-14722360D01*
X132044723Y-14734686D01*
X132069449Y-14749506D01*
X132092603Y-14766678D01*
X132113963Y-14786037D01*
X132133322Y-14807397D01*
X132150494Y-14830551D01*
X132165314Y-14855277D01*
X132177640Y-14881337D01*
X132187351Y-14908479D01*
X132194356Y-14936442D01*
X132198586Y-14964957D01*
X132200000Y-14993750D01*
X132200000Y-16006250D01*
X132198586Y-16035043D01*
X132194356Y-16063558D01*
X132187351Y-16091521D01*
X132177640Y-16118663D01*
X132165314Y-16144723D01*
X132150494Y-16169449D01*
X132133322Y-16192603D01*
X132113963Y-16213963D01*
X132092603Y-16233322D01*
X132069449Y-16250494D01*
X132044723Y-16265314D01*
X132018663Y-16277640D01*
X131991521Y-16287351D01*
X131963558Y-16294356D01*
X131935043Y-16298586D01*
X131906250Y-16300000D01*
X131318750Y-16300000D01*
X131289957Y-16298586D01*
X131261442Y-16294356D01*
X131233479Y-16287351D01*
X131206337Y-16277640D01*
X131180277Y-16265314D01*
X131155551Y-16250494D01*
X131132397Y-16233322D01*
X131111037Y-16213963D01*
X131091678Y-16192603D01*
X131074506Y-16169449D01*
X131059686Y-16144723D01*
X131047360Y-16118663D01*
X131037649Y-16091521D01*
X131030644Y-16063558D01*
X131026414Y-16035043D01*
X131025000Y-16006250D01*
X131025000Y-14993750D01*
X131026414Y-14964957D01*
X131030644Y-14936442D01*
X131037649Y-14908479D01*
X131047360Y-14881337D01*
X131059686Y-14855277D01*
X131074506Y-14830551D01*
X131091678Y-14807397D01*
X131111037Y-14786037D01*
X131132397Y-14766678D01*
X131155551Y-14749506D01*
X131180277Y-14734686D01*
X131206337Y-14722360D01*
X131233479Y-14712649D01*
X131261442Y-14705644D01*
X131289957Y-14701414D01*
X131318750Y-14700000D01*
X131906250Y-14700000D01*
X131935043Y-14701414D01*
G37*
G36*
X131922543Y-16901414D02*
G01*
X131951058Y-16905644D01*
X131979021Y-16912649D01*
X132006163Y-16922360D01*
X132032223Y-16934686D01*
X132056949Y-16949506D01*
X132080103Y-16966678D01*
X132101463Y-16986037D01*
X132120822Y-17007397D01*
X132137994Y-17030551D01*
X132152814Y-17055277D01*
X132165140Y-17081337D01*
X132174851Y-17108479D01*
X132181856Y-17136442D01*
X132186086Y-17164957D01*
X132187500Y-17193750D01*
X132187500Y-18206250D01*
X132186086Y-18235043D01*
X132181856Y-18263558D01*
X132174851Y-18291521D01*
X132165140Y-18318663D01*
X132152814Y-18344723D01*
X132137994Y-18369449D01*
X132120822Y-18392603D01*
X132101463Y-18413963D01*
X132080103Y-18433322D01*
X132056949Y-18450494D01*
X132032223Y-18465314D01*
X132006163Y-18477640D01*
X131979021Y-18487351D01*
X131951058Y-18494356D01*
X131922543Y-18498586D01*
X131893750Y-18500000D01*
X131306250Y-18500000D01*
X131277457Y-18498586D01*
X131248942Y-18494356D01*
X131220979Y-18487351D01*
X131193837Y-18477640D01*
X131167777Y-18465314D01*
X131143051Y-18450494D01*
X131119897Y-18433322D01*
X131098537Y-18413963D01*
X131079178Y-18392603D01*
X131062006Y-18369449D01*
X131047186Y-18344723D01*
X131034860Y-18318663D01*
X131025149Y-18291521D01*
X131018144Y-18263558D01*
X131013914Y-18235043D01*
X131012500Y-18206250D01*
X131012500Y-17193750D01*
X131013914Y-17164957D01*
X131018144Y-17136442D01*
X131025149Y-17108479D01*
X131034860Y-17081337D01*
X131047186Y-17055277D01*
X131062006Y-17030551D01*
X131079178Y-17007397D01*
X131098537Y-16986037D01*
X131119897Y-16966678D01*
X131143051Y-16949506D01*
X131167777Y-16934686D01*
X131193837Y-16922360D01*
X131220979Y-16912649D01*
X131248942Y-16905644D01*
X131277457Y-16901414D01*
X131306250Y-16900000D01*
X131893750Y-16900000D01*
X131922543Y-16901414D01*
G37*
G36*
X133797543Y-16901414D02*
G01*
X133826058Y-16905644D01*
X133854021Y-16912649D01*
X133881163Y-16922360D01*
X133907223Y-16934686D01*
X133931949Y-16949506D01*
X133955103Y-16966678D01*
X133976463Y-16986037D01*
X133995822Y-17007397D01*
X134012994Y-17030551D01*
X134027814Y-17055277D01*
X134040140Y-17081337D01*
X134049851Y-17108479D01*
X134056856Y-17136442D01*
X134061086Y-17164957D01*
X134062500Y-17193750D01*
X134062500Y-18206250D01*
X134061086Y-18235043D01*
X134056856Y-18263558D01*
X134049851Y-18291521D01*
X134040140Y-18318663D01*
X134027814Y-18344723D01*
X134012994Y-18369449D01*
X133995822Y-18392603D01*
X133976463Y-18413963D01*
X133955103Y-18433322D01*
X133931949Y-18450494D01*
X133907223Y-18465314D01*
X133881163Y-18477640D01*
X133854021Y-18487351D01*
X133826058Y-18494356D01*
X133797543Y-18498586D01*
X133768750Y-18500000D01*
X133181250Y-18500000D01*
X133152457Y-18498586D01*
X133123942Y-18494356D01*
X133095979Y-18487351D01*
X133068837Y-18477640D01*
X133042777Y-18465314D01*
X133018051Y-18450494D01*
X132994897Y-18433322D01*
X132973537Y-18413963D01*
X132954178Y-18392603D01*
X132937006Y-18369449D01*
X132922186Y-18344723D01*
X132909860Y-18318663D01*
X132900149Y-18291521D01*
X132893144Y-18263558D01*
X132888914Y-18235043D01*
X132887500Y-18206250D01*
X132887500Y-17193750D01*
X132888914Y-17164957D01*
X132893144Y-17136442D01*
X132900149Y-17108479D01*
X132909860Y-17081337D01*
X132922186Y-17055277D01*
X132937006Y-17030551D01*
X132954178Y-17007397D01*
X132973537Y-16986037D01*
X132994897Y-16966678D01*
X133018051Y-16949506D01*
X133042777Y-16934686D01*
X133068837Y-16922360D01*
X133095979Y-16912649D01*
X133123942Y-16905644D01*
X133152457Y-16901414D01*
X133181250Y-16900000D01*
X133768750Y-16900000D01*
X133797543Y-16901414D01*
G37*
G36*
X135985043Y-83301414D02*
G01*
X136013558Y-83305644D01*
X136041521Y-83312649D01*
X136068663Y-83322360D01*
X136094723Y-83334686D01*
X136119449Y-83349506D01*
X136142603Y-83366678D01*
X136163963Y-83386037D01*
X136183322Y-83407397D01*
X136200494Y-83430551D01*
X136215314Y-83455277D01*
X136227640Y-83481337D01*
X136237351Y-83508479D01*
X136244356Y-83536442D01*
X136248586Y-83564957D01*
X136250000Y-83593750D01*
X136250000Y-84606250D01*
X136248586Y-84635043D01*
X136244356Y-84663558D01*
X136237351Y-84691521D01*
X136227640Y-84718663D01*
X136215314Y-84744723D01*
X136200494Y-84769449D01*
X136183322Y-84792603D01*
X136163963Y-84813963D01*
X136142603Y-84833322D01*
X136119449Y-84850494D01*
X136094723Y-84865314D01*
X136068663Y-84877640D01*
X136041521Y-84887351D01*
X136013558Y-84894356D01*
X135985043Y-84898586D01*
X135956250Y-84900000D01*
X135368750Y-84900000D01*
X135339957Y-84898586D01*
X135311442Y-84894356D01*
X135283479Y-84887351D01*
X135256337Y-84877640D01*
X135230277Y-84865314D01*
X135205551Y-84850494D01*
X135182397Y-84833322D01*
X135161037Y-84813963D01*
X135141678Y-84792603D01*
X135124506Y-84769449D01*
X135109686Y-84744723D01*
X135097360Y-84718663D01*
X135087649Y-84691521D01*
X135080644Y-84663558D01*
X135076414Y-84635043D01*
X135075000Y-84606250D01*
X135075000Y-83593750D01*
X135076414Y-83564957D01*
X135080644Y-83536442D01*
X135087649Y-83508479D01*
X135097360Y-83481337D01*
X135109686Y-83455277D01*
X135124506Y-83430551D01*
X135141678Y-83407397D01*
X135161037Y-83386037D01*
X135182397Y-83366678D01*
X135205551Y-83349506D01*
X135230277Y-83334686D01*
X135256337Y-83322360D01*
X135283479Y-83312649D01*
X135311442Y-83305644D01*
X135339957Y-83301414D01*
X135368750Y-83300000D01*
X135956250Y-83300000D01*
X135985043Y-83301414D01*
G37*
G36*
X137860043Y-83301414D02*
G01*
X137888558Y-83305644D01*
X137916521Y-83312649D01*
X137943663Y-83322360D01*
X137969723Y-83334686D01*
X137994449Y-83349506D01*
X138017603Y-83366678D01*
X138038963Y-83386037D01*
X138058322Y-83407397D01*
X138075494Y-83430551D01*
X138090314Y-83455277D01*
X138102640Y-83481337D01*
X138112351Y-83508479D01*
X138119356Y-83536442D01*
X138123586Y-83564957D01*
X138125000Y-83593750D01*
X138125000Y-84606250D01*
X138123586Y-84635043D01*
X138119356Y-84663558D01*
X138112351Y-84691521D01*
X138102640Y-84718663D01*
X138090314Y-84744723D01*
X138075494Y-84769449D01*
X138058322Y-84792603D01*
X138038963Y-84813963D01*
X138017603Y-84833322D01*
X137994449Y-84850494D01*
X137969723Y-84865314D01*
X137943663Y-84877640D01*
X137916521Y-84887351D01*
X137888558Y-84894356D01*
X137860043Y-84898586D01*
X137831250Y-84900000D01*
X137243750Y-84900000D01*
X137214957Y-84898586D01*
X137186442Y-84894356D01*
X137158479Y-84887351D01*
X137131337Y-84877640D01*
X137105277Y-84865314D01*
X137080551Y-84850494D01*
X137057397Y-84833322D01*
X137036037Y-84813963D01*
X137016678Y-84792603D01*
X136999506Y-84769449D01*
X136984686Y-84744723D01*
X136972360Y-84718663D01*
X136962649Y-84691521D01*
X136955644Y-84663558D01*
X136951414Y-84635043D01*
X136950000Y-84606250D01*
X136950000Y-83593750D01*
X136951414Y-83564957D01*
X136955644Y-83536442D01*
X136962649Y-83508479D01*
X136972360Y-83481337D01*
X136984686Y-83455277D01*
X136999506Y-83430551D01*
X137016678Y-83407397D01*
X137036037Y-83386037D01*
X137057397Y-83366678D01*
X137080551Y-83349506D01*
X137105277Y-83334686D01*
X137131337Y-83322360D01*
X137158479Y-83312649D01*
X137186442Y-83305644D01*
X137214957Y-83301414D01*
X137243750Y-83300000D01*
X137831250Y-83300000D01*
X137860043Y-83301414D01*
G37*
G36*
X115635043Y-44113914D02*
G01*
X115663558Y-44118144D01*
X115691521Y-44125149D01*
X115718663Y-44134860D01*
X115744723Y-44147186D01*
X115769449Y-44162006D01*
X115792603Y-44179178D01*
X115813963Y-44198537D01*
X115833322Y-44219897D01*
X115850494Y-44243051D01*
X115865314Y-44267777D01*
X115877640Y-44293837D01*
X115887351Y-44320979D01*
X115894356Y-44348942D01*
X115898586Y-44377457D01*
X115900000Y-44406250D01*
X115900000Y-44993750D01*
X115898586Y-45022543D01*
X115894356Y-45051058D01*
X115887351Y-45079021D01*
X115877640Y-45106163D01*
X115865314Y-45132223D01*
X115850494Y-45156949D01*
X115833322Y-45180103D01*
X115813963Y-45201463D01*
X115792603Y-45220822D01*
X115769449Y-45237994D01*
X115744723Y-45252814D01*
X115718663Y-45265140D01*
X115691521Y-45274851D01*
X115663558Y-45281856D01*
X115635043Y-45286086D01*
X115606250Y-45287500D01*
X114593750Y-45287500D01*
X114564957Y-45286086D01*
X114536442Y-45281856D01*
X114508479Y-45274851D01*
X114481337Y-45265140D01*
X114455277Y-45252814D01*
X114430551Y-45237994D01*
X114407397Y-45220822D01*
X114386037Y-45201463D01*
X114366678Y-45180103D01*
X114349506Y-45156949D01*
X114334686Y-45132223D01*
X114322360Y-45106163D01*
X114312649Y-45079021D01*
X114305644Y-45051058D01*
X114301414Y-45022543D01*
X114300000Y-44993750D01*
X114300000Y-44406250D01*
X114301414Y-44377457D01*
X114305644Y-44348942D01*
X114312649Y-44320979D01*
X114322360Y-44293837D01*
X114334686Y-44267777D01*
X114349506Y-44243051D01*
X114366678Y-44219897D01*
X114386037Y-44198537D01*
X114407397Y-44179178D01*
X114430551Y-44162006D01*
X114455277Y-44147186D01*
X114481337Y-44134860D01*
X114508479Y-44125149D01*
X114536442Y-44118144D01*
X114564957Y-44113914D01*
X114593750Y-44112500D01*
X115606250Y-44112500D01*
X115635043Y-44113914D01*
G37*
G36*
X115635043Y-45988914D02*
G01*
X115663558Y-45993144D01*
X115691521Y-46000149D01*
X115718663Y-46009860D01*
X115744723Y-46022186D01*
X115769449Y-46037006D01*
X115792603Y-46054178D01*
X115813963Y-46073537D01*
X115833322Y-46094897D01*
X115850494Y-46118051D01*
X115865314Y-46142777D01*
X115877640Y-46168837D01*
X115887351Y-46195979D01*
X115894356Y-46223942D01*
X115898586Y-46252457D01*
X115900000Y-46281250D01*
X115900000Y-46868750D01*
X115898586Y-46897543D01*
X115894356Y-46926058D01*
X115887351Y-46954021D01*
X115877640Y-46981163D01*
X115865314Y-47007223D01*
X115850494Y-47031949D01*
X115833322Y-47055103D01*
X115813963Y-47076463D01*
X115792603Y-47095822D01*
X115769449Y-47112994D01*
X115744723Y-47127814D01*
X115718663Y-47140140D01*
X115691521Y-47149851D01*
X115663558Y-47156856D01*
X115635043Y-47161086D01*
X115606250Y-47162500D01*
X114593750Y-47162500D01*
X114564957Y-47161086D01*
X114536442Y-47156856D01*
X114508479Y-47149851D01*
X114481337Y-47140140D01*
X114455277Y-47127814D01*
X114430551Y-47112994D01*
X114407397Y-47095822D01*
X114386037Y-47076463D01*
X114366678Y-47055103D01*
X114349506Y-47031949D01*
X114334686Y-47007223D01*
X114322360Y-46981163D01*
X114312649Y-46954021D01*
X114305644Y-46926058D01*
X114301414Y-46897543D01*
X114300000Y-46868750D01*
X114300000Y-46281250D01*
X114301414Y-46252457D01*
X114305644Y-46223942D01*
X114312649Y-46195979D01*
X114322360Y-46168837D01*
X114334686Y-46142777D01*
X114349506Y-46118051D01*
X114366678Y-46094897D01*
X114386037Y-46073537D01*
X114407397Y-46054178D01*
X114430551Y-46037006D01*
X114455277Y-46022186D01*
X114481337Y-46009860D01*
X114508479Y-46000149D01*
X114536442Y-45993144D01*
X114564957Y-45988914D01*
X114593750Y-45987500D01*
X115606250Y-45987500D01*
X115635043Y-45988914D01*
G37*
G36*
X117735043Y-46001414D02*
G01*
X117763558Y-46005644D01*
X117791521Y-46012649D01*
X117818663Y-46022360D01*
X117844723Y-46034686D01*
X117869449Y-46049506D01*
X117892603Y-46066678D01*
X117913963Y-46086037D01*
X117933322Y-46107397D01*
X117950494Y-46130551D01*
X117965314Y-46155277D01*
X117977640Y-46181337D01*
X117987351Y-46208479D01*
X117994356Y-46236442D01*
X117998586Y-46264957D01*
X118000000Y-46293750D01*
X118000000Y-46881250D01*
X117998586Y-46910043D01*
X117994356Y-46938558D01*
X117987351Y-46966521D01*
X117977640Y-46993663D01*
X117965314Y-47019723D01*
X117950494Y-47044449D01*
X117933322Y-47067603D01*
X117913963Y-47088963D01*
X117892603Y-47108322D01*
X117869449Y-47125494D01*
X117844723Y-47140314D01*
X117818663Y-47152640D01*
X117791521Y-47162351D01*
X117763558Y-47169356D01*
X117735043Y-47173586D01*
X117706250Y-47175000D01*
X116693750Y-47175000D01*
X116664957Y-47173586D01*
X116636442Y-47169356D01*
X116608479Y-47162351D01*
X116581337Y-47152640D01*
X116555277Y-47140314D01*
X116530551Y-47125494D01*
X116507397Y-47108322D01*
X116486037Y-47088963D01*
X116466678Y-47067603D01*
X116449506Y-47044449D01*
X116434686Y-47019723D01*
X116422360Y-46993663D01*
X116412649Y-46966521D01*
X116405644Y-46938558D01*
X116401414Y-46910043D01*
X116400000Y-46881250D01*
X116400000Y-46293750D01*
X116401414Y-46264957D01*
X116405644Y-46236442D01*
X116412649Y-46208479D01*
X116422360Y-46181337D01*
X116434686Y-46155277D01*
X116449506Y-46130551D01*
X116466678Y-46107397D01*
X116486037Y-46086037D01*
X116507397Y-46066678D01*
X116530551Y-46049506D01*
X116555277Y-46034686D01*
X116581337Y-46022360D01*
X116608479Y-46012649D01*
X116636442Y-46005644D01*
X116664957Y-46001414D01*
X116693750Y-46000000D01*
X117706250Y-46000000D01*
X117735043Y-46001414D01*
G37*
G36*
X117735043Y-44126414D02*
G01*
X117763558Y-44130644D01*
X117791521Y-44137649D01*
X117818663Y-44147360D01*
X117844723Y-44159686D01*
X117869449Y-44174506D01*
X117892603Y-44191678D01*
X117913963Y-44211037D01*
X117933322Y-44232397D01*
X117950494Y-44255551D01*
X117965314Y-44280277D01*
X117977640Y-44306337D01*
X117987351Y-44333479D01*
X117994356Y-44361442D01*
X117998586Y-44389957D01*
X118000000Y-44418750D01*
X118000000Y-45006250D01*
X117998586Y-45035043D01*
X117994356Y-45063558D01*
X117987351Y-45091521D01*
X117977640Y-45118663D01*
X117965314Y-45144723D01*
X117950494Y-45169449D01*
X117933322Y-45192603D01*
X117913963Y-45213963D01*
X117892603Y-45233322D01*
X117869449Y-45250494D01*
X117844723Y-45265314D01*
X117818663Y-45277640D01*
X117791521Y-45287351D01*
X117763558Y-45294356D01*
X117735043Y-45298586D01*
X117706250Y-45300000D01*
X116693750Y-45300000D01*
X116664957Y-45298586D01*
X116636442Y-45294356D01*
X116608479Y-45287351D01*
X116581337Y-45277640D01*
X116555277Y-45265314D01*
X116530551Y-45250494D01*
X116507397Y-45233322D01*
X116486037Y-45213963D01*
X116466678Y-45192603D01*
X116449506Y-45169449D01*
X116434686Y-45144723D01*
X116422360Y-45118663D01*
X116412649Y-45091521D01*
X116405644Y-45063558D01*
X116401414Y-45035043D01*
X116400000Y-45006250D01*
X116400000Y-44418750D01*
X116401414Y-44389957D01*
X116405644Y-44361442D01*
X116412649Y-44333479D01*
X116422360Y-44306337D01*
X116434686Y-44280277D01*
X116449506Y-44255551D01*
X116466678Y-44232397D01*
X116486037Y-44211037D01*
X116507397Y-44191678D01*
X116530551Y-44174506D01*
X116555277Y-44159686D01*
X116581337Y-44147360D01*
X116608479Y-44137649D01*
X116636442Y-44130644D01*
X116664957Y-44126414D01*
X116693750Y-44125000D01*
X117706250Y-44125000D01*
X117735043Y-44126414D01*
G37*
G36*
X133860043Y-83301414D02*
G01*
X133888558Y-83305644D01*
X133916521Y-83312649D01*
X133943663Y-83322360D01*
X133969723Y-83334686D01*
X133994449Y-83349506D01*
X134017603Y-83366678D01*
X134038963Y-83386037D01*
X134058322Y-83407397D01*
X134075494Y-83430551D01*
X134090314Y-83455277D01*
X134102640Y-83481337D01*
X134112351Y-83508479D01*
X134119356Y-83536442D01*
X134123586Y-83564957D01*
X134125000Y-83593750D01*
X134125000Y-84606250D01*
X134123586Y-84635043D01*
X134119356Y-84663558D01*
X134112351Y-84691521D01*
X134102640Y-84718663D01*
X134090314Y-84744723D01*
X134075494Y-84769449D01*
X134058322Y-84792603D01*
X134038963Y-84813963D01*
X134017603Y-84833322D01*
X133994449Y-84850494D01*
X133969723Y-84865314D01*
X133943663Y-84877640D01*
X133916521Y-84887351D01*
X133888558Y-84894356D01*
X133860043Y-84898586D01*
X133831250Y-84900000D01*
X133243750Y-84900000D01*
X133214957Y-84898586D01*
X133186442Y-84894356D01*
X133158479Y-84887351D01*
X133131337Y-84877640D01*
X133105277Y-84865314D01*
X133080551Y-84850494D01*
X133057397Y-84833322D01*
X133036037Y-84813963D01*
X133016678Y-84792603D01*
X132999506Y-84769449D01*
X132984686Y-84744723D01*
X132972360Y-84718663D01*
X132962649Y-84691521D01*
X132955644Y-84663558D01*
X132951414Y-84635043D01*
X132950000Y-84606250D01*
X132950000Y-83593750D01*
X132951414Y-83564957D01*
X132955644Y-83536442D01*
X132962649Y-83508479D01*
X132972360Y-83481337D01*
X132984686Y-83455277D01*
X132999506Y-83430551D01*
X133016678Y-83407397D01*
X133036037Y-83386037D01*
X133057397Y-83366678D01*
X133080551Y-83349506D01*
X133105277Y-83334686D01*
X133131337Y-83322360D01*
X133158479Y-83312649D01*
X133186442Y-83305644D01*
X133214957Y-83301414D01*
X133243750Y-83300000D01*
X133831250Y-83300000D01*
X133860043Y-83301414D01*
G37*
G36*
X131985043Y-83301414D02*
G01*
X132013558Y-83305644D01*
X132041521Y-83312649D01*
X132068663Y-83322360D01*
X132094723Y-83334686D01*
X132119449Y-83349506D01*
X132142603Y-83366678D01*
X132163963Y-83386037D01*
X132183322Y-83407397D01*
X132200494Y-83430551D01*
X132215314Y-83455277D01*
X132227640Y-83481337D01*
X132237351Y-83508479D01*
X132244356Y-83536442D01*
X132248586Y-83564957D01*
X132250000Y-83593750D01*
X132250000Y-84606250D01*
X132248586Y-84635043D01*
X132244356Y-84663558D01*
X132237351Y-84691521D01*
X132227640Y-84718663D01*
X132215314Y-84744723D01*
X132200494Y-84769449D01*
X132183322Y-84792603D01*
X132163963Y-84813963D01*
X132142603Y-84833322D01*
X132119449Y-84850494D01*
X132094723Y-84865314D01*
X132068663Y-84877640D01*
X132041521Y-84887351D01*
X132013558Y-84894356D01*
X131985043Y-84898586D01*
X131956250Y-84900000D01*
X131368750Y-84900000D01*
X131339957Y-84898586D01*
X131311442Y-84894356D01*
X131283479Y-84887351D01*
X131256337Y-84877640D01*
X131230277Y-84865314D01*
X131205551Y-84850494D01*
X131182397Y-84833322D01*
X131161037Y-84813963D01*
X131141678Y-84792603D01*
X131124506Y-84769449D01*
X131109686Y-84744723D01*
X131097360Y-84718663D01*
X131087649Y-84691521D01*
X131080644Y-84663558D01*
X131076414Y-84635043D01*
X131075000Y-84606250D01*
X131075000Y-83593750D01*
X131076414Y-83564957D01*
X131080644Y-83536442D01*
X131087649Y-83508479D01*
X131097360Y-83481337D01*
X131109686Y-83455277D01*
X131124506Y-83430551D01*
X131141678Y-83407397D01*
X131161037Y-83386037D01*
X131182397Y-83366678D01*
X131205551Y-83349506D01*
X131230277Y-83334686D01*
X131256337Y-83322360D01*
X131283479Y-83312649D01*
X131311442Y-83305644D01*
X131339957Y-83301414D01*
X131368750Y-83300000D01*
X131956250Y-83300000D01*
X131985043Y-83301414D01*
G37*
D28*
X146000000Y-23150000D03*
X146000000Y-19850000D03*
D29*
X143600000Y-42400000D03*
D30*
X143600000Y-34780000D03*
D19*
X2350000Y-83750000D03*
D31*
X2350000Y-92250000D03*
D32*
X10000000Y-88000000D03*
D33*
X5500000Y-88000000D03*
D21*
G36*
X139560043Y-54401414D02*
G01*
X139588558Y-54405644D01*
X139616521Y-54412649D01*
X139643663Y-54422360D01*
X139669723Y-54434686D01*
X139694449Y-54449506D01*
X139717603Y-54466678D01*
X139738963Y-54486037D01*
X139758322Y-54507397D01*
X139775494Y-54530551D01*
X139790314Y-54555277D01*
X139802640Y-54581337D01*
X139812351Y-54608479D01*
X139819356Y-54636442D01*
X139823586Y-54664957D01*
X139825000Y-54693750D01*
X139825000Y-55706250D01*
X139823586Y-55735043D01*
X139819356Y-55763558D01*
X139812351Y-55791521D01*
X139802640Y-55818663D01*
X139790314Y-55844723D01*
X139775494Y-55869449D01*
X139758322Y-55892603D01*
X139738963Y-55913963D01*
X139717603Y-55933322D01*
X139694449Y-55950494D01*
X139669723Y-55965314D01*
X139643663Y-55977640D01*
X139616521Y-55987351D01*
X139588558Y-55994356D01*
X139560043Y-55998586D01*
X139531250Y-56000000D01*
X138943750Y-56000000D01*
X138914957Y-55998586D01*
X138886442Y-55994356D01*
X138858479Y-55987351D01*
X138831337Y-55977640D01*
X138805277Y-55965314D01*
X138780551Y-55950494D01*
X138757397Y-55933322D01*
X138736037Y-55913963D01*
X138716678Y-55892603D01*
X138699506Y-55869449D01*
X138684686Y-55844723D01*
X138672360Y-55818663D01*
X138662649Y-55791521D01*
X138655644Y-55763558D01*
X138651414Y-55735043D01*
X138650000Y-55706250D01*
X138650000Y-54693750D01*
X138651414Y-54664957D01*
X138655644Y-54636442D01*
X138662649Y-54608479D01*
X138672360Y-54581337D01*
X138684686Y-54555277D01*
X138699506Y-54530551D01*
X138716678Y-54507397D01*
X138736037Y-54486037D01*
X138757397Y-54466678D01*
X138780551Y-54449506D01*
X138805277Y-54434686D01*
X138831337Y-54422360D01*
X138858479Y-54412649D01*
X138886442Y-54405644D01*
X138914957Y-54401414D01*
X138943750Y-54400000D01*
X139531250Y-54400000D01*
X139560043Y-54401414D01*
G37*
G36*
X137685043Y-54401414D02*
G01*
X137713558Y-54405644D01*
X137741521Y-54412649D01*
X137768663Y-54422360D01*
X137794723Y-54434686D01*
X137819449Y-54449506D01*
X137842603Y-54466678D01*
X137863963Y-54486037D01*
X137883322Y-54507397D01*
X137900494Y-54530551D01*
X137915314Y-54555277D01*
X137927640Y-54581337D01*
X137937351Y-54608479D01*
X137944356Y-54636442D01*
X137948586Y-54664957D01*
X137950000Y-54693750D01*
X137950000Y-55706250D01*
X137948586Y-55735043D01*
X137944356Y-55763558D01*
X137937351Y-55791521D01*
X137927640Y-55818663D01*
X137915314Y-55844723D01*
X137900494Y-55869449D01*
X137883322Y-55892603D01*
X137863963Y-55913963D01*
X137842603Y-55933322D01*
X137819449Y-55950494D01*
X137794723Y-55965314D01*
X137768663Y-55977640D01*
X137741521Y-55987351D01*
X137713558Y-55994356D01*
X137685043Y-55998586D01*
X137656250Y-56000000D01*
X137068750Y-56000000D01*
X137039957Y-55998586D01*
X137011442Y-55994356D01*
X136983479Y-55987351D01*
X136956337Y-55977640D01*
X136930277Y-55965314D01*
X136905551Y-55950494D01*
X136882397Y-55933322D01*
X136861037Y-55913963D01*
X136841678Y-55892603D01*
X136824506Y-55869449D01*
X136809686Y-55844723D01*
X136797360Y-55818663D01*
X136787649Y-55791521D01*
X136780644Y-55763558D01*
X136776414Y-55735043D01*
X136775000Y-55706250D01*
X136775000Y-54693750D01*
X136776414Y-54664957D01*
X136780644Y-54636442D01*
X136787649Y-54608479D01*
X136797360Y-54581337D01*
X136809686Y-54555277D01*
X136824506Y-54530551D01*
X136841678Y-54507397D01*
X136861037Y-54486037D01*
X136882397Y-54466678D01*
X136905551Y-54449506D01*
X136930277Y-54434686D01*
X136956337Y-54422360D01*
X136983479Y-54412649D01*
X137011442Y-54405644D01*
X137039957Y-54401414D01*
X137068750Y-54400000D01*
X137656250Y-54400000D01*
X137685043Y-54401414D01*
G37*
G36*
X138359417Y-86001418D02*
G01*
X138387999Y-86005658D01*
X138416029Y-86012679D01*
X138443235Y-86022413D01*
X138469356Y-86034768D01*
X138494140Y-86049623D01*
X138517349Y-86066836D01*
X138538759Y-86086241D01*
X138558164Y-86107651D01*
X138575377Y-86130860D01*
X138590232Y-86155644D01*
X138602587Y-86181765D01*
X138612321Y-86208971D01*
X138619342Y-86237001D01*
X138623582Y-86265583D01*
X138625000Y-86294444D01*
X138625000Y-89305556D01*
X138623582Y-89334417D01*
X138619342Y-89362999D01*
X138612321Y-89391029D01*
X138602587Y-89418235D01*
X138590232Y-89444356D01*
X138575377Y-89469140D01*
X138558164Y-89492349D01*
X138538759Y-89513759D01*
X138517349Y-89533164D01*
X138494140Y-89550377D01*
X138469356Y-89565232D01*
X138443235Y-89577587D01*
X138416029Y-89587321D01*
X138387999Y-89594342D01*
X138359417Y-89598582D01*
X138330556Y-89600000D01*
X137594444Y-89600000D01*
X137565583Y-89598582D01*
X137537001Y-89594342D01*
X137508971Y-89587321D01*
X137481765Y-89577587D01*
X137455644Y-89565232D01*
X137430860Y-89550377D01*
X137407651Y-89533164D01*
X137386241Y-89513759D01*
X137366836Y-89492349D01*
X137349623Y-89469140D01*
X137334768Y-89444356D01*
X137322413Y-89418235D01*
X137312679Y-89391029D01*
X137305658Y-89362999D01*
X137301418Y-89334417D01*
X137300000Y-89305556D01*
X137300000Y-86294444D01*
X137301418Y-86265583D01*
X137305658Y-86237001D01*
X137312679Y-86208971D01*
X137322413Y-86181765D01*
X137334768Y-86155644D01*
X137349623Y-86130860D01*
X137366836Y-86107651D01*
X137386241Y-86086241D01*
X137407651Y-86066836D01*
X137430860Y-86049623D01*
X137455644Y-86034768D01*
X137481765Y-86022413D01*
X137508971Y-86012679D01*
X137537001Y-86005658D01*
X137565583Y-86001418D01*
X137594444Y-86000000D01*
X138330556Y-86000000D01*
X138359417Y-86001418D01*
G37*
G36*
X142634417Y-86001418D02*
G01*
X142662999Y-86005658D01*
X142691029Y-86012679D01*
X142718235Y-86022413D01*
X142744356Y-86034768D01*
X142769140Y-86049623D01*
X142792349Y-86066836D01*
X142813759Y-86086241D01*
X142833164Y-86107651D01*
X142850377Y-86130860D01*
X142865232Y-86155644D01*
X142877587Y-86181765D01*
X142887321Y-86208971D01*
X142894342Y-86237001D01*
X142898582Y-86265583D01*
X142900000Y-86294444D01*
X142900000Y-89305556D01*
X142898582Y-89334417D01*
X142894342Y-89362999D01*
X142887321Y-89391029D01*
X142877587Y-89418235D01*
X142865232Y-89444356D01*
X142850377Y-89469140D01*
X142833164Y-89492349D01*
X142813759Y-89513759D01*
X142792349Y-89533164D01*
X142769140Y-89550377D01*
X142744356Y-89565232D01*
X142718235Y-89577587D01*
X142691029Y-89587321D01*
X142662999Y-89594342D01*
X142634417Y-89598582D01*
X142605556Y-89600000D01*
X141869444Y-89600000D01*
X141840583Y-89598582D01*
X141812001Y-89594342D01*
X141783971Y-89587321D01*
X141756765Y-89577587D01*
X141730644Y-89565232D01*
X141705860Y-89550377D01*
X141682651Y-89533164D01*
X141661241Y-89513759D01*
X141641836Y-89492349D01*
X141624623Y-89469140D01*
X141609768Y-89444356D01*
X141597413Y-89418235D01*
X141587679Y-89391029D01*
X141580658Y-89362999D01*
X141576418Y-89334417D01*
X141575000Y-89305556D01*
X141575000Y-86294444D01*
X141576418Y-86265583D01*
X141580658Y-86237001D01*
X141587679Y-86208971D01*
X141597413Y-86181765D01*
X141609768Y-86155644D01*
X141624623Y-86130860D01*
X141641836Y-86107651D01*
X141661241Y-86086241D01*
X141682651Y-86066836D01*
X141705860Y-86049623D01*
X141730644Y-86034768D01*
X141756765Y-86022413D01*
X141783971Y-86012679D01*
X141812001Y-86005658D01*
X141840583Y-86001418D01*
X141869444Y-86000000D01*
X142605556Y-86000000D01*
X142634417Y-86001418D01*
G37*
G36*
X131359417Y-86001418D02*
G01*
X131387999Y-86005658D01*
X131416029Y-86012679D01*
X131443235Y-86022413D01*
X131469356Y-86034768D01*
X131494140Y-86049623D01*
X131517349Y-86066836D01*
X131538759Y-86086241D01*
X131558164Y-86107651D01*
X131575377Y-86130860D01*
X131590232Y-86155644D01*
X131602587Y-86181765D01*
X131612321Y-86208971D01*
X131619342Y-86237001D01*
X131623582Y-86265583D01*
X131625000Y-86294444D01*
X131625000Y-89305556D01*
X131623582Y-89334417D01*
X131619342Y-89362999D01*
X131612321Y-89391029D01*
X131602587Y-89418235D01*
X131590232Y-89444356D01*
X131575377Y-89469140D01*
X131558164Y-89492349D01*
X131538759Y-89513759D01*
X131517349Y-89533164D01*
X131494140Y-89550377D01*
X131469356Y-89565232D01*
X131443235Y-89577587D01*
X131416029Y-89587321D01*
X131387999Y-89594342D01*
X131359417Y-89598582D01*
X131330556Y-89600000D01*
X130594444Y-89600000D01*
X130565583Y-89598582D01*
X130537001Y-89594342D01*
X130508971Y-89587321D01*
X130481765Y-89577587D01*
X130455644Y-89565232D01*
X130430860Y-89550377D01*
X130407651Y-89533164D01*
X130386241Y-89513759D01*
X130366836Y-89492349D01*
X130349623Y-89469140D01*
X130334768Y-89444356D01*
X130322413Y-89418235D01*
X130312679Y-89391029D01*
X130305658Y-89362999D01*
X130301418Y-89334417D01*
X130300000Y-89305556D01*
X130300000Y-86294444D01*
X130301418Y-86265583D01*
X130305658Y-86237001D01*
X130312679Y-86208971D01*
X130322413Y-86181765D01*
X130334768Y-86155644D01*
X130349623Y-86130860D01*
X130366836Y-86107651D01*
X130386241Y-86086241D01*
X130407651Y-86066836D01*
X130430860Y-86049623D01*
X130455644Y-86034768D01*
X130481765Y-86022413D01*
X130508971Y-86012679D01*
X130537001Y-86005658D01*
X130565583Y-86001418D01*
X130594444Y-86000000D01*
X131330556Y-86000000D01*
X131359417Y-86001418D01*
G37*
G36*
X135634417Y-86001418D02*
G01*
X135662999Y-86005658D01*
X135691029Y-86012679D01*
X135718235Y-86022413D01*
X135744356Y-86034768D01*
X135769140Y-86049623D01*
X135792349Y-86066836D01*
X135813759Y-86086241D01*
X135833164Y-86107651D01*
X135850377Y-86130860D01*
X135865232Y-86155644D01*
X135877587Y-86181765D01*
X135887321Y-86208971D01*
X135894342Y-86237001D01*
X135898582Y-86265583D01*
X135900000Y-86294444D01*
X135900000Y-89305556D01*
X135898582Y-89334417D01*
X135894342Y-89362999D01*
X135887321Y-89391029D01*
X135877587Y-89418235D01*
X135865232Y-89444356D01*
X135850377Y-89469140D01*
X135833164Y-89492349D01*
X135813759Y-89513759D01*
X135792349Y-89533164D01*
X135769140Y-89550377D01*
X135744356Y-89565232D01*
X135718235Y-89577587D01*
X135691029Y-89587321D01*
X135662999Y-89594342D01*
X135634417Y-89598582D01*
X135605556Y-89600000D01*
X134869444Y-89600000D01*
X134840583Y-89598582D01*
X134812001Y-89594342D01*
X134783971Y-89587321D01*
X134756765Y-89577587D01*
X134730644Y-89565232D01*
X134705860Y-89550377D01*
X134682651Y-89533164D01*
X134661241Y-89513759D01*
X134641836Y-89492349D01*
X134624623Y-89469140D01*
X134609768Y-89444356D01*
X134597413Y-89418235D01*
X134587679Y-89391029D01*
X134580658Y-89362999D01*
X134576418Y-89334417D01*
X134575000Y-89305556D01*
X134575000Y-86294444D01*
X134576418Y-86265583D01*
X134580658Y-86237001D01*
X134587679Y-86208971D01*
X134597413Y-86181765D01*
X134609768Y-86155644D01*
X134624623Y-86130860D01*
X134641836Y-86107651D01*
X134661241Y-86086241D01*
X134682651Y-86066836D01*
X134705860Y-86049623D01*
X134730644Y-86034768D01*
X134756765Y-86022413D01*
X134783971Y-86012679D01*
X134812001Y-86005658D01*
X134840583Y-86001418D01*
X134869444Y-86000000D01*
X135605556Y-86000000D01*
X135634417Y-86001418D01*
G37*
D34*
X146800000Y-41200000D03*
D35*
X146800000Y-38660000D03*
X146800000Y-36120000D03*
D21*
G36*
X120716098Y-67726382D02*
G01*
X120743962Y-67730515D01*
X120771286Y-67737360D01*
X120797808Y-67746849D01*
X120823272Y-67758893D01*
X120847433Y-67773374D01*
X120870058Y-67790154D01*
X120890929Y-67809071D01*
X120909846Y-67829942D01*
X120926626Y-67852567D01*
X120941107Y-67876728D01*
X120953151Y-67902192D01*
X120962640Y-67928714D01*
X120969485Y-67956038D01*
X120973618Y-67983902D01*
X120975000Y-68012036D01*
X120975000Y-70987964D01*
X120973618Y-71016098D01*
X120969485Y-71043962D01*
X120962640Y-71071286D01*
X120953151Y-71097808D01*
X120941107Y-71123272D01*
X120926626Y-71147433D01*
X120909846Y-71170058D01*
X120890929Y-71190929D01*
X120870058Y-71209846D01*
X120847433Y-71226626D01*
X120823272Y-71241107D01*
X120797808Y-71253151D01*
X120771286Y-71262640D01*
X120743962Y-71269485D01*
X120716098Y-71273618D01*
X120687964Y-71275000D01*
X119712036Y-71275000D01*
X119683902Y-71273618D01*
X119656038Y-71269485D01*
X119628714Y-71262640D01*
X119602192Y-71253151D01*
X119576728Y-71241107D01*
X119552567Y-71226626D01*
X119529942Y-71209846D01*
X119509071Y-71190929D01*
X119490154Y-71170058D01*
X119473374Y-71147433D01*
X119458893Y-71123272D01*
X119446849Y-71097808D01*
X119437360Y-71071286D01*
X119430515Y-71043962D01*
X119426382Y-71016098D01*
X119425000Y-70987964D01*
X119425000Y-68012036D01*
X119426382Y-67983902D01*
X119430515Y-67956038D01*
X119437360Y-67928714D01*
X119446849Y-67902192D01*
X119458893Y-67876728D01*
X119473374Y-67852567D01*
X119490154Y-67829942D01*
X119509071Y-67809071D01*
X119529942Y-67790154D01*
X119552567Y-67773374D01*
X119576728Y-67758893D01*
X119602192Y-67746849D01*
X119628714Y-67737360D01*
X119656038Y-67730515D01*
X119683902Y-67726382D01*
X119712036Y-67725000D01*
X120687964Y-67725000D01*
X120716098Y-67726382D01*
G37*
G36*
X126516098Y-67726382D02*
G01*
X126543962Y-67730515D01*
X126571286Y-67737360D01*
X126597808Y-67746849D01*
X126623272Y-67758893D01*
X126647433Y-67773374D01*
X126670058Y-67790154D01*
X126690929Y-67809071D01*
X126709846Y-67829942D01*
X126726626Y-67852567D01*
X126741107Y-67876728D01*
X126753151Y-67902192D01*
X126762640Y-67928714D01*
X126769485Y-67956038D01*
X126773618Y-67983902D01*
X126775000Y-68012036D01*
X126775000Y-70987964D01*
X126773618Y-71016098D01*
X126769485Y-71043962D01*
X126762640Y-71071286D01*
X126753151Y-71097808D01*
X126741107Y-71123272D01*
X126726626Y-71147433D01*
X126709846Y-71170058D01*
X126690929Y-71190929D01*
X126670058Y-71209846D01*
X126647433Y-71226626D01*
X126623272Y-71241107D01*
X126597808Y-71253151D01*
X126571286Y-71262640D01*
X126543962Y-71269485D01*
X126516098Y-71273618D01*
X126487964Y-71275000D01*
X125512036Y-71275000D01*
X125483902Y-71273618D01*
X125456038Y-71269485D01*
X125428714Y-71262640D01*
X125402192Y-71253151D01*
X125376728Y-71241107D01*
X125352567Y-71226626D01*
X125329942Y-71209846D01*
X125309071Y-71190929D01*
X125290154Y-71170058D01*
X125273374Y-71147433D01*
X125258893Y-71123272D01*
X125246849Y-71097808D01*
X125237360Y-71071286D01*
X125230515Y-71043962D01*
X125226382Y-71016098D01*
X125225000Y-70987964D01*
X125225000Y-68012036D01*
X125226382Y-67983902D01*
X125230515Y-67956038D01*
X125237360Y-67928714D01*
X125246849Y-67902192D01*
X125258893Y-67876728D01*
X125273374Y-67852567D01*
X125290154Y-67829942D01*
X125309071Y-67809071D01*
X125329942Y-67790154D01*
X125352567Y-67773374D01*
X125376728Y-67758893D01*
X125402192Y-67746849D01*
X125428714Y-67737360D01*
X125456038Y-67730515D01*
X125483902Y-67726382D01*
X125512036Y-67725000D01*
X126487964Y-67725000D01*
X126516098Y-67726382D01*
G37*
G36*
X126516098Y-71926382D02*
G01*
X126543962Y-71930515D01*
X126571286Y-71937360D01*
X126597808Y-71946849D01*
X126623272Y-71958893D01*
X126647433Y-71973374D01*
X126670058Y-71990154D01*
X126690929Y-72009071D01*
X126709846Y-72029942D01*
X126726626Y-72052567D01*
X126741107Y-72076728D01*
X126753151Y-72102192D01*
X126762640Y-72128714D01*
X126769485Y-72156038D01*
X126773618Y-72183902D01*
X126775000Y-72212036D01*
X126775000Y-75187964D01*
X126773618Y-75216098D01*
X126769485Y-75243962D01*
X126762640Y-75271286D01*
X126753151Y-75297808D01*
X126741107Y-75323272D01*
X126726626Y-75347433D01*
X126709846Y-75370058D01*
X126690929Y-75390929D01*
X126670058Y-75409846D01*
X126647433Y-75426626D01*
X126623272Y-75441107D01*
X126597808Y-75453151D01*
X126571286Y-75462640D01*
X126543962Y-75469485D01*
X126516098Y-75473618D01*
X126487964Y-75475000D01*
X125512036Y-75475000D01*
X125483902Y-75473618D01*
X125456038Y-75469485D01*
X125428714Y-75462640D01*
X125402192Y-75453151D01*
X125376728Y-75441107D01*
X125352567Y-75426626D01*
X125329942Y-75409846D01*
X125309071Y-75390929D01*
X125290154Y-75370058D01*
X125273374Y-75347433D01*
X125258893Y-75323272D01*
X125246849Y-75297808D01*
X125237360Y-75271286D01*
X125230515Y-75243962D01*
X125226382Y-75216098D01*
X125225000Y-75187964D01*
X125225000Y-72212036D01*
X125226382Y-72183902D01*
X125230515Y-72156038D01*
X125237360Y-72128714D01*
X125246849Y-72102192D01*
X125258893Y-72076728D01*
X125273374Y-72052567D01*
X125290154Y-72029942D01*
X125309071Y-72009071D01*
X125329942Y-71990154D01*
X125352567Y-71973374D01*
X125376728Y-71958893D01*
X125402192Y-71946849D01*
X125428714Y-71937360D01*
X125456038Y-71930515D01*
X125483902Y-71926382D01*
X125512036Y-71925000D01*
X126487964Y-71925000D01*
X126516098Y-71926382D01*
G37*
G36*
X120716098Y-71926382D02*
G01*
X120743962Y-71930515D01*
X120771286Y-71937360D01*
X120797808Y-71946849D01*
X120823272Y-71958893D01*
X120847433Y-71973374D01*
X120870058Y-71990154D01*
X120890929Y-72009071D01*
X120909846Y-72029942D01*
X120926626Y-72052567D01*
X120941107Y-72076728D01*
X120953151Y-72102192D01*
X120962640Y-72128714D01*
X120969485Y-72156038D01*
X120973618Y-72183902D01*
X120975000Y-72212036D01*
X120975000Y-75187964D01*
X120973618Y-75216098D01*
X120969485Y-75243962D01*
X120962640Y-75271286D01*
X120953151Y-75297808D01*
X120941107Y-75323272D01*
X120926626Y-75347433D01*
X120909846Y-75370058D01*
X120890929Y-75390929D01*
X120870058Y-75409846D01*
X120847433Y-75426626D01*
X120823272Y-75441107D01*
X120797808Y-75453151D01*
X120771286Y-75462640D01*
X120743962Y-75469485D01*
X120716098Y-75473618D01*
X120687964Y-75475000D01*
X119712036Y-75475000D01*
X119683902Y-75473618D01*
X119656038Y-75469485D01*
X119628714Y-75462640D01*
X119602192Y-75453151D01*
X119576728Y-75441107D01*
X119552567Y-75426626D01*
X119529942Y-75409846D01*
X119509071Y-75390929D01*
X119490154Y-75370058D01*
X119473374Y-75347433D01*
X119458893Y-75323272D01*
X119446849Y-75297808D01*
X119437360Y-75271286D01*
X119430515Y-75243962D01*
X119426382Y-75216098D01*
X119425000Y-75187964D01*
X119425000Y-72212036D01*
X119426382Y-72183902D01*
X119430515Y-72156038D01*
X119437360Y-72128714D01*
X119446849Y-72102192D01*
X119458893Y-72076728D01*
X119473374Y-72052567D01*
X119490154Y-72029942D01*
X119509071Y-72009071D01*
X119529942Y-71990154D01*
X119552567Y-71973374D01*
X119576728Y-71958893D01*
X119602192Y-71946849D01*
X119628714Y-71937360D01*
X119656038Y-71930515D01*
X119683902Y-71926382D01*
X119712036Y-71925000D01*
X120687964Y-71925000D01*
X120716098Y-71926382D01*
G37*
G36*
X128816098Y-67726382D02*
G01*
X128843962Y-67730515D01*
X128871286Y-67737360D01*
X128897808Y-67746849D01*
X128923272Y-67758893D01*
X128947433Y-67773374D01*
X128970058Y-67790154D01*
X128990929Y-67809071D01*
X129009846Y-67829942D01*
X129026626Y-67852567D01*
X129041107Y-67876728D01*
X129053151Y-67902192D01*
X129062640Y-67928714D01*
X129069485Y-67956038D01*
X129073618Y-67983902D01*
X129075000Y-68012036D01*
X129075000Y-70987964D01*
X129073618Y-71016098D01*
X129069485Y-71043962D01*
X129062640Y-71071286D01*
X129053151Y-71097808D01*
X129041107Y-71123272D01*
X129026626Y-71147433D01*
X129009846Y-71170058D01*
X128990929Y-71190929D01*
X128970058Y-71209846D01*
X128947433Y-71226626D01*
X128923272Y-71241107D01*
X128897808Y-71253151D01*
X128871286Y-71262640D01*
X128843962Y-71269485D01*
X128816098Y-71273618D01*
X128787964Y-71275000D01*
X127812036Y-71275000D01*
X127783902Y-71273618D01*
X127756038Y-71269485D01*
X127728714Y-71262640D01*
X127702192Y-71253151D01*
X127676728Y-71241107D01*
X127652567Y-71226626D01*
X127629942Y-71209846D01*
X127609071Y-71190929D01*
X127590154Y-71170058D01*
X127573374Y-71147433D01*
X127558893Y-71123272D01*
X127546849Y-71097808D01*
X127537360Y-71071286D01*
X127530515Y-71043962D01*
X127526382Y-71016098D01*
X127525000Y-70987964D01*
X127525000Y-68012036D01*
X127526382Y-67983902D01*
X127530515Y-67956038D01*
X127537360Y-67928714D01*
X127546849Y-67902192D01*
X127558893Y-67876728D01*
X127573374Y-67852567D01*
X127590154Y-67829942D01*
X127609071Y-67809071D01*
X127629942Y-67790154D01*
X127652567Y-67773374D01*
X127676728Y-67758893D01*
X127702192Y-67746849D01*
X127728714Y-67737360D01*
X127756038Y-67730515D01*
X127783902Y-67726382D01*
X127812036Y-67725000D01*
X128787964Y-67725000D01*
X128816098Y-67726382D01*
G37*
G36*
X134616098Y-67726382D02*
G01*
X134643962Y-67730515D01*
X134671286Y-67737360D01*
X134697808Y-67746849D01*
X134723272Y-67758893D01*
X134747433Y-67773374D01*
X134770058Y-67790154D01*
X134790929Y-67809071D01*
X134809846Y-67829942D01*
X134826626Y-67852567D01*
X134841107Y-67876728D01*
X134853151Y-67902192D01*
X134862640Y-67928714D01*
X134869485Y-67956038D01*
X134873618Y-67983902D01*
X134875000Y-68012036D01*
X134875000Y-70987964D01*
X134873618Y-71016098D01*
X134869485Y-71043962D01*
X134862640Y-71071286D01*
X134853151Y-71097808D01*
X134841107Y-71123272D01*
X134826626Y-71147433D01*
X134809846Y-71170058D01*
X134790929Y-71190929D01*
X134770058Y-71209846D01*
X134747433Y-71226626D01*
X134723272Y-71241107D01*
X134697808Y-71253151D01*
X134671286Y-71262640D01*
X134643962Y-71269485D01*
X134616098Y-71273618D01*
X134587964Y-71275000D01*
X133612036Y-71275000D01*
X133583902Y-71273618D01*
X133556038Y-71269485D01*
X133528714Y-71262640D01*
X133502192Y-71253151D01*
X133476728Y-71241107D01*
X133452567Y-71226626D01*
X133429942Y-71209846D01*
X133409071Y-71190929D01*
X133390154Y-71170058D01*
X133373374Y-71147433D01*
X133358893Y-71123272D01*
X133346849Y-71097808D01*
X133337360Y-71071286D01*
X133330515Y-71043962D01*
X133326382Y-71016098D01*
X133325000Y-70987964D01*
X133325000Y-68012036D01*
X133326382Y-67983902D01*
X133330515Y-67956038D01*
X133337360Y-67928714D01*
X133346849Y-67902192D01*
X133358893Y-67876728D01*
X133373374Y-67852567D01*
X133390154Y-67829942D01*
X133409071Y-67809071D01*
X133429942Y-67790154D01*
X133452567Y-67773374D01*
X133476728Y-67758893D01*
X133502192Y-67746849D01*
X133528714Y-67737360D01*
X133556038Y-67730515D01*
X133583902Y-67726382D01*
X133612036Y-67725000D01*
X134587964Y-67725000D01*
X134616098Y-67726382D01*
G37*
G36*
X134616098Y-71926382D02*
G01*
X134643962Y-71930515D01*
X134671286Y-71937360D01*
X134697808Y-71946849D01*
X134723272Y-71958893D01*
X134747433Y-71973374D01*
X134770058Y-71990154D01*
X134790929Y-72009071D01*
X134809846Y-72029942D01*
X134826626Y-72052567D01*
X134841107Y-72076728D01*
X134853151Y-72102192D01*
X134862640Y-72128714D01*
X134869485Y-72156038D01*
X134873618Y-72183902D01*
X134875000Y-72212036D01*
X134875000Y-75187964D01*
X134873618Y-75216098D01*
X134869485Y-75243962D01*
X134862640Y-75271286D01*
X134853151Y-75297808D01*
X134841107Y-75323272D01*
X134826626Y-75347433D01*
X134809846Y-75370058D01*
X134790929Y-75390929D01*
X134770058Y-75409846D01*
X134747433Y-75426626D01*
X134723272Y-75441107D01*
X134697808Y-75453151D01*
X134671286Y-75462640D01*
X134643962Y-75469485D01*
X134616098Y-75473618D01*
X134587964Y-75475000D01*
X133612036Y-75475000D01*
X133583902Y-75473618D01*
X133556038Y-75469485D01*
X133528714Y-75462640D01*
X133502192Y-75453151D01*
X133476728Y-75441107D01*
X133452567Y-75426626D01*
X133429942Y-75409846D01*
X133409071Y-75390929D01*
X133390154Y-75370058D01*
X133373374Y-75347433D01*
X133358893Y-75323272D01*
X133346849Y-75297808D01*
X133337360Y-75271286D01*
X133330515Y-75243962D01*
X133326382Y-75216098D01*
X133325000Y-75187964D01*
X133325000Y-72212036D01*
X133326382Y-72183902D01*
X133330515Y-72156038D01*
X133337360Y-72128714D01*
X133346849Y-72102192D01*
X133358893Y-72076728D01*
X133373374Y-72052567D01*
X133390154Y-72029942D01*
X133409071Y-72009071D01*
X133429942Y-71990154D01*
X133452567Y-71973374D01*
X133476728Y-71958893D01*
X133502192Y-71946849D01*
X133528714Y-71937360D01*
X133556038Y-71930515D01*
X133583902Y-71926382D01*
X133612036Y-71925000D01*
X134587964Y-71925000D01*
X134616098Y-71926382D01*
G37*
G36*
X128816098Y-71926382D02*
G01*
X128843962Y-71930515D01*
X128871286Y-71937360D01*
X128897808Y-71946849D01*
X128923272Y-71958893D01*
X128947433Y-71973374D01*
X128970058Y-71990154D01*
X128990929Y-72009071D01*
X129009846Y-72029942D01*
X129026626Y-72052567D01*
X129041107Y-72076728D01*
X129053151Y-72102192D01*
X129062640Y-72128714D01*
X129069485Y-72156038D01*
X129073618Y-72183902D01*
X129075000Y-72212036D01*
X129075000Y-75187964D01*
X129073618Y-75216098D01*
X129069485Y-75243962D01*
X129062640Y-75271286D01*
X129053151Y-75297808D01*
X129041107Y-75323272D01*
X129026626Y-75347433D01*
X129009846Y-75370058D01*
X128990929Y-75390929D01*
X128970058Y-75409846D01*
X128947433Y-75426626D01*
X128923272Y-75441107D01*
X128897808Y-75453151D01*
X128871286Y-75462640D01*
X128843962Y-75469485D01*
X128816098Y-75473618D01*
X128787964Y-75475000D01*
X127812036Y-75475000D01*
X127783902Y-75473618D01*
X127756038Y-75469485D01*
X127728714Y-75462640D01*
X127702192Y-75453151D01*
X127676728Y-75441107D01*
X127652567Y-75426626D01*
X127629942Y-75409846D01*
X127609071Y-75390929D01*
X127590154Y-75370058D01*
X127573374Y-75347433D01*
X127558893Y-75323272D01*
X127546849Y-75297808D01*
X127537360Y-75271286D01*
X127530515Y-75243962D01*
X127526382Y-75216098D01*
X127525000Y-75187964D01*
X127525000Y-72212036D01*
X127526382Y-72183902D01*
X127530515Y-72156038D01*
X127537360Y-72128714D01*
X127546849Y-72102192D01*
X127558893Y-72076728D01*
X127573374Y-72052567D01*
X127590154Y-72029942D01*
X127609071Y-72009071D01*
X127629942Y-71990154D01*
X127652567Y-71973374D01*
X127676728Y-71958893D01*
X127702192Y-71946849D01*
X127728714Y-71937360D01*
X127756038Y-71930515D01*
X127783902Y-71926382D01*
X127812036Y-71925000D01*
X128787964Y-71925000D01*
X128816098Y-71926382D01*
G37*
G36*
X136916098Y-67726382D02*
G01*
X136943962Y-67730515D01*
X136971286Y-67737360D01*
X136997808Y-67746849D01*
X137023272Y-67758893D01*
X137047433Y-67773374D01*
X137070058Y-67790154D01*
X137090929Y-67809071D01*
X137109846Y-67829942D01*
X137126626Y-67852567D01*
X137141107Y-67876728D01*
X137153151Y-67902192D01*
X137162640Y-67928714D01*
X137169485Y-67956038D01*
X137173618Y-67983902D01*
X137175000Y-68012036D01*
X137175000Y-70987964D01*
X137173618Y-71016098D01*
X137169485Y-71043962D01*
X137162640Y-71071286D01*
X137153151Y-71097808D01*
X137141107Y-71123272D01*
X137126626Y-71147433D01*
X137109846Y-71170058D01*
X137090929Y-71190929D01*
X137070058Y-71209846D01*
X137047433Y-71226626D01*
X137023272Y-71241107D01*
X136997808Y-71253151D01*
X136971286Y-71262640D01*
X136943962Y-71269485D01*
X136916098Y-71273618D01*
X136887964Y-71275000D01*
X135912036Y-71275000D01*
X135883902Y-71273618D01*
X135856038Y-71269485D01*
X135828714Y-71262640D01*
X135802192Y-71253151D01*
X135776728Y-71241107D01*
X135752567Y-71226626D01*
X135729942Y-71209846D01*
X135709071Y-71190929D01*
X135690154Y-71170058D01*
X135673374Y-71147433D01*
X135658893Y-71123272D01*
X135646849Y-71097808D01*
X135637360Y-71071286D01*
X135630515Y-71043962D01*
X135626382Y-71016098D01*
X135625000Y-70987964D01*
X135625000Y-68012036D01*
X135626382Y-67983902D01*
X135630515Y-67956038D01*
X135637360Y-67928714D01*
X135646849Y-67902192D01*
X135658893Y-67876728D01*
X135673374Y-67852567D01*
X135690154Y-67829942D01*
X135709071Y-67809071D01*
X135729942Y-67790154D01*
X135752567Y-67773374D01*
X135776728Y-67758893D01*
X135802192Y-67746849D01*
X135828714Y-67737360D01*
X135856038Y-67730515D01*
X135883902Y-67726382D01*
X135912036Y-67725000D01*
X136887964Y-67725000D01*
X136916098Y-67726382D01*
G37*
G36*
X142716098Y-67726382D02*
G01*
X142743962Y-67730515D01*
X142771286Y-67737360D01*
X142797808Y-67746849D01*
X142823272Y-67758893D01*
X142847433Y-67773374D01*
X142870058Y-67790154D01*
X142890929Y-67809071D01*
X142909846Y-67829942D01*
X142926626Y-67852567D01*
X142941107Y-67876728D01*
X142953151Y-67902192D01*
X142962640Y-67928714D01*
X142969485Y-67956038D01*
X142973618Y-67983902D01*
X142975000Y-68012036D01*
X142975000Y-70987964D01*
X142973618Y-71016098D01*
X142969485Y-71043962D01*
X142962640Y-71071286D01*
X142953151Y-71097808D01*
X142941107Y-71123272D01*
X142926626Y-71147433D01*
X142909846Y-71170058D01*
X142890929Y-71190929D01*
X142870058Y-71209846D01*
X142847433Y-71226626D01*
X142823272Y-71241107D01*
X142797808Y-71253151D01*
X142771286Y-71262640D01*
X142743962Y-71269485D01*
X142716098Y-71273618D01*
X142687964Y-71275000D01*
X141712036Y-71275000D01*
X141683902Y-71273618D01*
X141656038Y-71269485D01*
X141628714Y-71262640D01*
X141602192Y-71253151D01*
X141576728Y-71241107D01*
X141552567Y-71226626D01*
X141529942Y-71209846D01*
X141509071Y-71190929D01*
X141490154Y-71170058D01*
X141473374Y-71147433D01*
X141458893Y-71123272D01*
X141446849Y-71097808D01*
X141437360Y-71071286D01*
X141430515Y-71043962D01*
X141426382Y-71016098D01*
X141425000Y-70987964D01*
X141425000Y-68012036D01*
X141426382Y-67983902D01*
X141430515Y-67956038D01*
X141437360Y-67928714D01*
X141446849Y-67902192D01*
X141458893Y-67876728D01*
X141473374Y-67852567D01*
X141490154Y-67829942D01*
X141509071Y-67809071D01*
X141529942Y-67790154D01*
X141552567Y-67773374D01*
X141576728Y-67758893D01*
X141602192Y-67746849D01*
X141628714Y-67737360D01*
X141656038Y-67730515D01*
X141683902Y-67726382D01*
X141712036Y-67725000D01*
X142687964Y-67725000D01*
X142716098Y-67726382D01*
G37*
G36*
X136916098Y-71926382D02*
G01*
X136943962Y-71930515D01*
X136971286Y-71937360D01*
X136997808Y-71946849D01*
X137023272Y-71958893D01*
X137047433Y-71973374D01*
X137070058Y-71990154D01*
X137090929Y-72009071D01*
X137109846Y-72029942D01*
X137126626Y-72052567D01*
X137141107Y-72076728D01*
X137153151Y-72102192D01*
X137162640Y-72128714D01*
X137169485Y-72156038D01*
X137173618Y-72183902D01*
X137175000Y-72212036D01*
X137175000Y-75187964D01*
X137173618Y-75216098D01*
X137169485Y-75243962D01*
X137162640Y-75271286D01*
X137153151Y-75297808D01*
X137141107Y-75323272D01*
X137126626Y-75347433D01*
X137109846Y-75370058D01*
X137090929Y-75390929D01*
X137070058Y-75409846D01*
X137047433Y-75426626D01*
X137023272Y-75441107D01*
X136997808Y-75453151D01*
X136971286Y-75462640D01*
X136943962Y-75469485D01*
X136916098Y-75473618D01*
X136887964Y-75475000D01*
X135912036Y-75475000D01*
X135883902Y-75473618D01*
X135856038Y-75469485D01*
X135828714Y-75462640D01*
X135802192Y-75453151D01*
X135776728Y-75441107D01*
X135752567Y-75426626D01*
X135729942Y-75409846D01*
X135709071Y-75390929D01*
X135690154Y-75370058D01*
X135673374Y-75347433D01*
X135658893Y-75323272D01*
X135646849Y-75297808D01*
X135637360Y-75271286D01*
X135630515Y-75243962D01*
X135626382Y-75216098D01*
X135625000Y-75187964D01*
X135625000Y-72212036D01*
X135626382Y-72183902D01*
X135630515Y-72156038D01*
X135637360Y-72128714D01*
X135646849Y-72102192D01*
X135658893Y-72076728D01*
X135673374Y-72052567D01*
X135690154Y-72029942D01*
X135709071Y-72009071D01*
X135729942Y-71990154D01*
X135752567Y-71973374D01*
X135776728Y-71958893D01*
X135802192Y-71946849D01*
X135828714Y-71937360D01*
X135856038Y-71930515D01*
X135883902Y-71926382D01*
X135912036Y-71925000D01*
X136887964Y-71925000D01*
X136916098Y-71926382D01*
G37*
G36*
X142716098Y-71926382D02*
G01*
X142743962Y-71930515D01*
X142771286Y-71937360D01*
X142797808Y-71946849D01*
X142823272Y-71958893D01*
X142847433Y-71973374D01*
X142870058Y-71990154D01*
X142890929Y-72009071D01*
X142909846Y-72029942D01*
X142926626Y-72052567D01*
X142941107Y-72076728D01*
X142953151Y-72102192D01*
X142962640Y-72128714D01*
X142969485Y-72156038D01*
X142973618Y-72183902D01*
X142975000Y-72212036D01*
X142975000Y-75187964D01*
X142973618Y-75216098D01*
X142969485Y-75243962D01*
X142962640Y-75271286D01*
X142953151Y-75297808D01*
X142941107Y-75323272D01*
X142926626Y-75347433D01*
X142909846Y-75370058D01*
X142890929Y-75390929D01*
X142870058Y-75409846D01*
X142847433Y-75426626D01*
X142823272Y-75441107D01*
X142797808Y-75453151D01*
X142771286Y-75462640D01*
X142743962Y-75469485D01*
X142716098Y-75473618D01*
X142687964Y-75475000D01*
X141712036Y-75475000D01*
X141683902Y-75473618D01*
X141656038Y-75469485D01*
X141628714Y-75462640D01*
X141602192Y-75453151D01*
X141576728Y-75441107D01*
X141552567Y-75426626D01*
X141529942Y-75409846D01*
X141509071Y-75390929D01*
X141490154Y-75370058D01*
X141473374Y-75347433D01*
X141458893Y-75323272D01*
X141446849Y-75297808D01*
X141437360Y-75271286D01*
X141430515Y-75243962D01*
X141426382Y-75216098D01*
X141425000Y-75187964D01*
X141425000Y-72212036D01*
X141426382Y-72183902D01*
X141430515Y-72156038D01*
X141437360Y-72128714D01*
X141446849Y-72102192D01*
X141458893Y-72076728D01*
X141473374Y-72052567D01*
X141490154Y-72029942D01*
X141509071Y-72009071D01*
X141529942Y-71990154D01*
X141552567Y-71973374D01*
X141576728Y-71958893D01*
X141602192Y-71946849D01*
X141628714Y-71937360D01*
X141656038Y-71930515D01*
X141683902Y-71926382D01*
X141712036Y-71925000D01*
X142687964Y-71925000D01*
X142716098Y-71926382D01*
G37*
G36*
X135616098Y-60226382D02*
G01*
X135643962Y-60230515D01*
X135671286Y-60237360D01*
X135697808Y-60246849D01*
X135723272Y-60258893D01*
X135747433Y-60273374D01*
X135770058Y-60290154D01*
X135790929Y-60309071D01*
X135809846Y-60329942D01*
X135826626Y-60352567D01*
X135841107Y-60376728D01*
X135853151Y-60402192D01*
X135862640Y-60428714D01*
X135869485Y-60456038D01*
X135873618Y-60483902D01*
X135875000Y-60512036D01*
X135875000Y-61487964D01*
X135873618Y-61516098D01*
X135869485Y-61543962D01*
X135862640Y-61571286D01*
X135853151Y-61597808D01*
X135841107Y-61623272D01*
X135826626Y-61647433D01*
X135809846Y-61670058D01*
X135790929Y-61690929D01*
X135770058Y-61709846D01*
X135747433Y-61726626D01*
X135723272Y-61741107D01*
X135697808Y-61753151D01*
X135671286Y-61762640D01*
X135643962Y-61769485D01*
X135616098Y-61773618D01*
X135587964Y-61775000D01*
X132612036Y-61775000D01*
X132583902Y-61773618D01*
X132556038Y-61769485D01*
X132528714Y-61762640D01*
X132502192Y-61753151D01*
X132476728Y-61741107D01*
X132452567Y-61726626D01*
X132429942Y-61709846D01*
X132409071Y-61690929D01*
X132390154Y-61670058D01*
X132373374Y-61647433D01*
X132358893Y-61623272D01*
X132346849Y-61597808D01*
X132337360Y-61571286D01*
X132330515Y-61543962D01*
X132326382Y-61516098D01*
X132325000Y-61487964D01*
X132325000Y-60512036D01*
X132326382Y-60483902D01*
X132330515Y-60456038D01*
X132337360Y-60428714D01*
X132346849Y-60402192D01*
X132358893Y-60376728D01*
X132373374Y-60352567D01*
X132390154Y-60329942D01*
X132409071Y-60309071D01*
X132429942Y-60290154D01*
X132452567Y-60273374D01*
X132476728Y-60258893D01*
X132502192Y-60246849D01*
X132528714Y-60237360D01*
X132556038Y-60230515D01*
X132583902Y-60226382D01*
X132612036Y-60225000D01*
X135587964Y-60225000D01*
X135616098Y-60226382D01*
G37*
G36*
X135616098Y-54426382D02*
G01*
X135643962Y-54430515D01*
X135671286Y-54437360D01*
X135697808Y-54446849D01*
X135723272Y-54458893D01*
X135747433Y-54473374D01*
X135770058Y-54490154D01*
X135790929Y-54509071D01*
X135809846Y-54529942D01*
X135826626Y-54552567D01*
X135841107Y-54576728D01*
X135853151Y-54602192D01*
X135862640Y-54628714D01*
X135869485Y-54656038D01*
X135873618Y-54683902D01*
X135875000Y-54712036D01*
X135875000Y-55687964D01*
X135873618Y-55716098D01*
X135869485Y-55743962D01*
X135862640Y-55771286D01*
X135853151Y-55797808D01*
X135841107Y-55823272D01*
X135826626Y-55847433D01*
X135809846Y-55870058D01*
X135790929Y-55890929D01*
X135770058Y-55909846D01*
X135747433Y-55926626D01*
X135723272Y-55941107D01*
X135697808Y-55953151D01*
X135671286Y-55962640D01*
X135643962Y-55969485D01*
X135616098Y-55973618D01*
X135587964Y-55975000D01*
X132612036Y-55975000D01*
X132583902Y-55973618D01*
X132556038Y-55969485D01*
X132528714Y-55962640D01*
X132502192Y-55953151D01*
X132476728Y-55941107D01*
X132452567Y-55926626D01*
X132429942Y-55909846D01*
X132409071Y-55890929D01*
X132390154Y-55870058D01*
X132373374Y-55847433D01*
X132358893Y-55823272D01*
X132346849Y-55797808D01*
X132337360Y-55771286D01*
X132330515Y-55743962D01*
X132326382Y-55716098D01*
X132325000Y-55687964D01*
X132325000Y-54712036D01*
X132326382Y-54683902D01*
X132330515Y-54656038D01*
X132337360Y-54628714D01*
X132346849Y-54602192D01*
X132358893Y-54576728D01*
X132373374Y-54552567D01*
X132390154Y-54529942D01*
X132409071Y-54509071D01*
X132429942Y-54490154D01*
X132452567Y-54473374D01*
X132476728Y-54458893D01*
X132502192Y-54446849D01*
X132528714Y-54437360D01*
X132556038Y-54430515D01*
X132583902Y-54426382D01*
X132612036Y-54425000D01*
X135587964Y-54425000D01*
X135616098Y-54426382D01*
G37*
G36*
X129016098Y-52226382D02*
G01*
X129043962Y-52230515D01*
X129071286Y-52237360D01*
X129097808Y-52246849D01*
X129123272Y-52258893D01*
X129147433Y-52273374D01*
X129170058Y-52290154D01*
X129190929Y-52309071D01*
X129209846Y-52329942D01*
X129226626Y-52352567D01*
X129241107Y-52376728D01*
X129253151Y-52402192D01*
X129262640Y-52428714D01*
X129269485Y-52456038D01*
X129273618Y-52483902D01*
X129275000Y-52512036D01*
X129275000Y-53487964D01*
X129273618Y-53516098D01*
X129269485Y-53543962D01*
X129262640Y-53571286D01*
X129253151Y-53597808D01*
X129241107Y-53623272D01*
X129226626Y-53647433D01*
X129209846Y-53670058D01*
X129190929Y-53690929D01*
X129170058Y-53709846D01*
X129147433Y-53726626D01*
X129123272Y-53741107D01*
X129097808Y-53753151D01*
X129071286Y-53762640D01*
X129043962Y-53769485D01*
X129016098Y-53773618D01*
X128987964Y-53775000D01*
X126012036Y-53775000D01*
X125983902Y-53773618D01*
X125956038Y-53769485D01*
X125928714Y-53762640D01*
X125902192Y-53753151D01*
X125876728Y-53741107D01*
X125852567Y-53726626D01*
X125829942Y-53709846D01*
X125809071Y-53690929D01*
X125790154Y-53670058D01*
X125773374Y-53647433D01*
X125758893Y-53623272D01*
X125746849Y-53597808D01*
X125737360Y-53571286D01*
X125730515Y-53543962D01*
X125726382Y-53516098D01*
X125725000Y-53487964D01*
X125725000Y-52512036D01*
X125726382Y-52483902D01*
X125730515Y-52456038D01*
X125737360Y-52428714D01*
X125746849Y-52402192D01*
X125758893Y-52376728D01*
X125773374Y-52352567D01*
X125790154Y-52329942D01*
X125809071Y-52309071D01*
X125829942Y-52290154D01*
X125852567Y-52273374D01*
X125876728Y-52258893D01*
X125902192Y-52246849D01*
X125928714Y-52237360D01*
X125956038Y-52230515D01*
X125983902Y-52226382D01*
X126012036Y-52225000D01*
X128987964Y-52225000D01*
X129016098Y-52226382D01*
G37*
G36*
X129016098Y-46426382D02*
G01*
X129043962Y-46430515D01*
X129071286Y-46437360D01*
X129097808Y-46446849D01*
X129123272Y-46458893D01*
X129147433Y-46473374D01*
X129170058Y-46490154D01*
X129190929Y-46509071D01*
X129209846Y-46529942D01*
X129226626Y-46552567D01*
X129241107Y-46576728D01*
X129253151Y-46602192D01*
X129262640Y-46628714D01*
X129269485Y-46656038D01*
X129273618Y-46683902D01*
X129275000Y-46712036D01*
X129275000Y-47687964D01*
X129273618Y-47716098D01*
X129269485Y-47743962D01*
X129262640Y-47771286D01*
X129253151Y-47797808D01*
X129241107Y-47823272D01*
X129226626Y-47847433D01*
X129209846Y-47870058D01*
X129190929Y-47890929D01*
X129170058Y-47909846D01*
X129147433Y-47926626D01*
X129123272Y-47941107D01*
X129097808Y-47953151D01*
X129071286Y-47962640D01*
X129043962Y-47969485D01*
X129016098Y-47973618D01*
X128987964Y-47975000D01*
X126012036Y-47975000D01*
X125983902Y-47973618D01*
X125956038Y-47969485D01*
X125928714Y-47962640D01*
X125902192Y-47953151D01*
X125876728Y-47941107D01*
X125852567Y-47926626D01*
X125829942Y-47909846D01*
X125809071Y-47890929D01*
X125790154Y-47870058D01*
X125773374Y-47847433D01*
X125758893Y-47823272D01*
X125746849Y-47797808D01*
X125737360Y-47771286D01*
X125730515Y-47743962D01*
X125726382Y-47716098D01*
X125725000Y-47687964D01*
X125725000Y-46712036D01*
X125726382Y-46683902D01*
X125730515Y-46656038D01*
X125737360Y-46628714D01*
X125746849Y-46602192D01*
X125758893Y-46576728D01*
X125773374Y-46552567D01*
X125790154Y-46529942D01*
X125809071Y-46509071D01*
X125829942Y-46490154D01*
X125852567Y-46473374D01*
X125876728Y-46458893D01*
X125902192Y-46446849D01*
X125928714Y-46437360D01*
X125956038Y-46430515D01*
X125983902Y-46426382D01*
X126012036Y-46425000D01*
X128987964Y-46425000D01*
X129016098Y-46426382D01*
G37*
G36*
X130916098Y-54426382D02*
G01*
X130943962Y-54430515D01*
X130971286Y-54437360D01*
X130997808Y-54446849D01*
X131023272Y-54458893D01*
X131047433Y-54473374D01*
X131070058Y-54490154D01*
X131090929Y-54509071D01*
X131109846Y-54529942D01*
X131126626Y-54552567D01*
X131141107Y-54576728D01*
X131153151Y-54602192D01*
X131162640Y-54628714D01*
X131169485Y-54656038D01*
X131173618Y-54683902D01*
X131175000Y-54712036D01*
X131175000Y-55687964D01*
X131173618Y-55716098D01*
X131169485Y-55743962D01*
X131162640Y-55771286D01*
X131153151Y-55797808D01*
X131141107Y-55823272D01*
X131126626Y-55847433D01*
X131109846Y-55870058D01*
X131090929Y-55890929D01*
X131070058Y-55909846D01*
X131047433Y-55926626D01*
X131023272Y-55941107D01*
X130997808Y-55953151D01*
X130971286Y-55962640D01*
X130943962Y-55969485D01*
X130916098Y-55973618D01*
X130887964Y-55975000D01*
X127912036Y-55975000D01*
X127883902Y-55973618D01*
X127856038Y-55969485D01*
X127828714Y-55962640D01*
X127802192Y-55953151D01*
X127776728Y-55941107D01*
X127752567Y-55926626D01*
X127729942Y-55909846D01*
X127709071Y-55890929D01*
X127690154Y-55870058D01*
X127673374Y-55847433D01*
X127658893Y-55823272D01*
X127646849Y-55797808D01*
X127637360Y-55771286D01*
X127630515Y-55743962D01*
X127626382Y-55716098D01*
X127625000Y-55687964D01*
X127625000Y-54712036D01*
X127626382Y-54683902D01*
X127630515Y-54656038D01*
X127637360Y-54628714D01*
X127646849Y-54602192D01*
X127658893Y-54576728D01*
X127673374Y-54552567D01*
X127690154Y-54529942D01*
X127709071Y-54509071D01*
X127729942Y-54490154D01*
X127752567Y-54473374D01*
X127776728Y-54458893D01*
X127802192Y-54446849D01*
X127828714Y-54437360D01*
X127856038Y-54430515D01*
X127883902Y-54426382D01*
X127912036Y-54425000D01*
X130887964Y-54425000D01*
X130916098Y-54426382D01*
G37*
G36*
X130916098Y-60226382D02*
G01*
X130943962Y-60230515D01*
X130971286Y-60237360D01*
X130997808Y-60246849D01*
X131023272Y-60258893D01*
X131047433Y-60273374D01*
X131070058Y-60290154D01*
X131090929Y-60309071D01*
X131109846Y-60329942D01*
X131126626Y-60352567D01*
X131141107Y-60376728D01*
X131153151Y-60402192D01*
X131162640Y-60428714D01*
X131169485Y-60456038D01*
X131173618Y-60483902D01*
X131175000Y-60512036D01*
X131175000Y-61487964D01*
X131173618Y-61516098D01*
X131169485Y-61543962D01*
X131162640Y-61571286D01*
X131153151Y-61597808D01*
X131141107Y-61623272D01*
X131126626Y-61647433D01*
X131109846Y-61670058D01*
X131090929Y-61690929D01*
X131070058Y-61709846D01*
X131047433Y-61726626D01*
X131023272Y-61741107D01*
X130997808Y-61753151D01*
X130971286Y-61762640D01*
X130943962Y-61769485D01*
X130916098Y-61773618D01*
X130887964Y-61775000D01*
X127912036Y-61775000D01*
X127883902Y-61773618D01*
X127856038Y-61769485D01*
X127828714Y-61762640D01*
X127802192Y-61753151D01*
X127776728Y-61741107D01*
X127752567Y-61726626D01*
X127729942Y-61709846D01*
X127709071Y-61690929D01*
X127690154Y-61670058D01*
X127673374Y-61647433D01*
X127658893Y-61623272D01*
X127646849Y-61597808D01*
X127637360Y-61571286D01*
X127630515Y-61543962D01*
X127626382Y-61516098D01*
X127625000Y-61487964D01*
X127625000Y-60512036D01*
X127626382Y-60483902D01*
X127630515Y-60456038D01*
X127637360Y-60428714D01*
X127646849Y-60402192D01*
X127658893Y-60376728D01*
X127673374Y-60352567D01*
X127690154Y-60329942D01*
X127709071Y-60309071D01*
X127729942Y-60290154D01*
X127752567Y-60273374D01*
X127776728Y-60258893D01*
X127802192Y-60246849D01*
X127828714Y-60237360D01*
X127856038Y-60230515D01*
X127883902Y-60226382D01*
X127912036Y-60225000D01*
X130887964Y-60225000D01*
X130916098Y-60226382D01*
G37*
G36*
X133316098Y-52226382D02*
G01*
X133343962Y-52230515D01*
X133371286Y-52237360D01*
X133397808Y-52246849D01*
X133423272Y-52258893D01*
X133447433Y-52273374D01*
X133470058Y-52290154D01*
X133490929Y-52309071D01*
X133509846Y-52329942D01*
X133526626Y-52352567D01*
X133541107Y-52376728D01*
X133553151Y-52402192D01*
X133562640Y-52428714D01*
X133569485Y-52456038D01*
X133573618Y-52483902D01*
X133575000Y-52512036D01*
X133575000Y-53487964D01*
X133573618Y-53516098D01*
X133569485Y-53543962D01*
X133562640Y-53571286D01*
X133553151Y-53597808D01*
X133541107Y-53623272D01*
X133526626Y-53647433D01*
X133509846Y-53670058D01*
X133490929Y-53690929D01*
X133470058Y-53709846D01*
X133447433Y-53726626D01*
X133423272Y-53741107D01*
X133397808Y-53753151D01*
X133371286Y-53762640D01*
X133343962Y-53769485D01*
X133316098Y-53773618D01*
X133287964Y-53775000D01*
X130312036Y-53775000D01*
X130283902Y-53773618D01*
X130256038Y-53769485D01*
X130228714Y-53762640D01*
X130202192Y-53753151D01*
X130176728Y-53741107D01*
X130152567Y-53726626D01*
X130129942Y-53709846D01*
X130109071Y-53690929D01*
X130090154Y-53670058D01*
X130073374Y-53647433D01*
X130058893Y-53623272D01*
X130046849Y-53597808D01*
X130037360Y-53571286D01*
X130030515Y-53543962D01*
X130026382Y-53516098D01*
X130025000Y-53487964D01*
X130025000Y-52512036D01*
X130026382Y-52483902D01*
X130030515Y-52456038D01*
X130037360Y-52428714D01*
X130046849Y-52402192D01*
X130058893Y-52376728D01*
X130073374Y-52352567D01*
X130090154Y-52329942D01*
X130109071Y-52309071D01*
X130129942Y-52290154D01*
X130152567Y-52273374D01*
X130176728Y-52258893D01*
X130202192Y-52246849D01*
X130228714Y-52237360D01*
X130256038Y-52230515D01*
X130283902Y-52226382D01*
X130312036Y-52225000D01*
X133287964Y-52225000D01*
X133316098Y-52226382D01*
G37*
G36*
X133316098Y-46426382D02*
G01*
X133343962Y-46430515D01*
X133371286Y-46437360D01*
X133397808Y-46446849D01*
X133423272Y-46458893D01*
X133447433Y-46473374D01*
X133470058Y-46490154D01*
X133490929Y-46509071D01*
X133509846Y-46529942D01*
X133526626Y-46552567D01*
X133541107Y-46576728D01*
X133553151Y-46602192D01*
X133562640Y-46628714D01*
X133569485Y-46656038D01*
X133573618Y-46683902D01*
X133575000Y-46712036D01*
X133575000Y-47687964D01*
X133573618Y-47716098D01*
X133569485Y-47743962D01*
X133562640Y-47771286D01*
X133553151Y-47797808D01*
X133541107Y-47823272D01*
X133526626Y-47847433D01*
X133509846Y-47870058D01*
X133490929Y-47890929D01*
X133470058Y-47909846D01*
X133447433Y-47926626D01*
X133423272Y-47941107D01*
X133397808Y-47953151D01*
X133371286Y-47962640D01*
X133343962Y-47969485D01*
X133316098Y-47973618D01*
X133287964Y-47975000D01*
X130312036Y-47975000D01*
X130283902Y-47973618D01*
X130256038Y-47969485D01*
X130228714Y-47962640D01*
X130202192Y-47953151D01*
X130176728Y-47941107D01*
X130152567Y-47926626D01*
X130129942Y-47909846D01*
X130109071Y-47890929D01*
X130090154Y-47870058D01*
X130073374Y-47847433D01*
X130058893Y-47823272D01*
X130046849Y-47797808D01*
X130037360Y-47771286D01*
X130030515Y-47743962D01*
X130026382Y-47716098D01*
X130025000Y-47687964D01*
X130025000Y-46712036D01*
X130026382Y-46683902D01*
X130030515Y-46656038D01*
X130037360Y-46628714D01*
X130046849Y-46602192D01*
X130058893Y-46576728D01*
X130073374Y-46552567D01*
X130090154Y-46529942D01*
X130109071Y-46509071D01*
X130129942Y-46490154D01*
X130152567Y-46473374D01*
X130176728Y-46458893D01*
X130202192Y-46446849D01*
X130228714Y-46437360D01*
X130256038Y-46430515D01*
X130283902Y-46426382D01*
X130312036Y-46425000D01*
X133287964Y-46425000D01*
X133316098Y-46426382D01*
G37*
G36*
X137516098Y-52226382D02*
G01*
X137543962Y-52230515D01*
X137571286Y-52237360D01*
X137597808Y-52246849D01*
X137623272Y-52258893D01*
X137647433Y-52273374D01*
X137670058Y-52290154D01*
X137690929Y-52309071D01*
X137709846Y-52329942D01*
X137726626Y-52352567D01*
X137741107Y-52376728D01*
X137753151Y-52402192D01*
X137762640Y-52428714D01*
X137769485Y-52456038D01*
X137773618Y-52483902D01*
X137775000Y-52512036D01*
X137775000Y-53487964D01*
X137773618Y-53516098D01*
X137769485Y-53543962D01*
X137762640Y-53571286D01*
X137753151Y-53597808D01*
X137741107Y-53623272D01*
X137726626Y-53647433D01*
X137709846Y-53670058D01*
X137690929Y-53690929D01*
X137670058Y-53709846D01*
X137647433Y-53726626D01*
X137623272Y-53741107D01*
X137597808Y-53753151D01*
X137571286Y-53762640D01*
X137543962Y-53769485D01*
X137516098Y-53773618D01*
X137487964Y-53775000D01*
X134512036Y-53775000D01*
X134483902Y-53773618D01*
X134456038Y-53769485D01*
X134428714Y-53762640D01*
X134402192Y-53753151D01*
X134376728Y-53741107D01*
X134352567Y-53726626D01*
X134329942Y-53709846D01*
X134309071Y-53690929D01*
X134290154Y-53670058D01*
X134273374Y-53647433D01*
X134258893Y-53623272D01*
X134246849Y-53597808D01*
X134237360Y-53571286D01*
X134230515Y-53543962D01*
X134226382Y-53516098D01*
X134225000Y-53487964D01*
X134225000Y-52512036D01*
X134226382Y-52483902D01*
X134230515Y-52456038D01*
X134237360Y-52428714D01*
X134246849Y-52402192D01*
X134258893Y-52376728D01*
X134273374Y-52352567D01*
X134290154Y-52329942D01*
X134309071Y-52309071D01*
X134329942Y-52290154D01*
X134352567Y-52273374D01*
X134376728Y-52258893D01*
X134402192Y-52246849D01*
X134428714Y-52237360D01*
X134456038Y-52230515D01*
X134483902Y-52226382D01*
X134512036Y-52225000D01*
X137487964Y-52225000D01*
X137516098Y-52226382D01*
G37*
G36*
X137516098Y-46426382D02*
G01*
X137543962Y-46430515D01*
X137571286Y-46437360D01*
X137597808Y-46446849D01*
X137623272Y-46458893D01*
X137647433Y-46473374D01*
X137670058Y-46490154D01*
X137690929Y-46509071D01*
X137709846Y-46529942D01*
X137726626Y-46552567D01*
X137741107Y-46576728D01*
X137753151Y-46602192D01*
X137762640Y-46628714D01*
X137769485Y-46656038D01*
X137773618Y-46683902D01*
X137775000Y-46712036D01*
X137775000Y-47687964D01*
X137773618Y-47716098D01*
X137769485Y-47743962D01*
X137762640Y-47771286D01*
X137753151Y-47797808D01*
X137741107Y-47823272D01*
X137726626Y-47847433D01*
X137709846Y-47870058D01*
X137690929Y-47890929D01*
X137670058Y-47909846D01*
X137647433Y-47926626D01*
X137623272Y-47941107D01*
X137597808Y-47953151D01*
X137571286Y-47962640D01*
X137543962Y-47969485D01*
X137516098Y-47973618D01*
X137487964Y-47975000D01*
X134512036Y-47975000D01*
X134483902Y-47973618D01*
X134456038Y-47969485D01*
X134428714Y-47962640D01*
X134402192Y-47953151D01*
X134376728Y-47941107D01*
X134352567Y-47926626D01*
X134329942Y-47909846D01*
X134309071Y-47890929D01*
X134290154Y-47870058D01*
X134273374Y-47847433D01*
X134258893Y-47823272D01*
X134246849Y-47797808D01*
X134237360Y-47771286D01*
X134230515Y-47743962D01*
X134226382Y-47716098D01*
X134225000Y-47687964D01*
X134225000Y-46712036D01*
X134226382Y-46683902D01*
X134230515Y-46656038D01*
X134237360Y-46628714D01*
X134246849Y-46602192D01*
X134258893Y-46576728D01*
X134273374Y-46552567D01*
X134290154Y-46529942D01*
X134309071Y-46509071D01*
X134329942Y-46490154D01*
X134352567Y-46473374D01*
X134376728Y-46458893D01*
X134402192Y-46446849D01*
X134428714Y-46437360D01*
X134456038Y-46430515D01*
X134483902Y-46426382D01*
X134512036Y-46425000D01*
X137487964Y-46425000D01*
X137516098Y-46426382D01*
G37*
G36*
X140316098Y-35126382D02*
G01*
X140343962Y-35130515D01*
X140371286Y-35137360D01*
X140397808Y-35146849D01*
X140423272Y-35158893D01*
X140447433Y-35173374D01*
X140470058Y-35190154D01*
X140490929Y-35209071D01*
X140509846Y-35229942D01*
X140526626Y-35252567D01*
X140541107Y-35276728D01*
X140553151Y-35302192D01*
X140562640Y-35328714D01*
X140569485Y-35356038D01*
X140573618Y-35383902D01*
X140575000Y-35412036D01*
X140575000Y-36387964D01*
X140573618Y-36416098D01*
X140569485Y-36443962D01*
X140562640Y-36471286D01*
X140553151Y-36497808D01*
X140541107Y-36523272D01*
X140526626Y-36547433D01*
X140509846Y-36570058D01*
X140490929Y-36590929D01*
X140470058Y-36609846D01*
X140447433Y-36626626D01*
X140423272Y-36641107D01*
X140397808Y-36653151D01*
X140371286Y-36662640D01*
X140343962Y-36669485D01*
X140316098Y-36673618D01*
X140287964Y-36675000D01*
X137312036Y-36675000D01*
X137283902Y-36673618D01*
X137256038Y-36669485D01*
X137228714Y-36662640D01*
X137202192Y-36653151D01*
X137176728Y-36641107D01*
X137152567Y-36626626D01*
X137129942Y-36609846D01*
X137109071Y-36590929D01*
X137090154Y-36570058D01*
X137073374Y-36547433D01*
X137058893Y-36523272D01*
X137046849Y-36497808D01*
X137037360Y-36471286D01*
X137030515Y-36443962D01*
X137026382Y-36416098D01*
X137025000Y-36387964D01*
X137025000Y-35412036D01*
X137026382Y-35383902D01*
X137030515Y-35356038D01*
X137037360Y-35328714D01*
X137046849Y-35302192D01*
X137058893Y-35276728D01*
X137073374Y-35252567D01*
X137090154Y-35229942D01*
X137109071Y-35209071D01*
X137129942Y-35190154D01*
X137152567Y-35173374D01*
X137176728Y-35158893D01*
X137202192Y-35146849D01*
X137228714Y-35137360D01*
X137256038Y-35130515D01*
X137283902Y-35126382D01*
X137312036Y-35125000D01*
X140287964Y-35125000D01*
X140316098Y-35126382D01*
G37*
G36*
X140316098Y-40926382D02*
G01*
X140343962Y-40930515D01*
X140371286Y-40937360D01*
X140397808Y-40946849D01*
X140423272Y-40958893D01*
X140447433Y-40973374D01*
X140470058Y-40990154D01*
X140490929Y-41009071D01*
X140509846Y-41029942D01*
X140526626Y-41052567D01*
X140541107Y-41076728D01*
X140553151Y-41102192D01*
X140562640Y-41128714D01*
X140569485Y-41156038D01*
X140573618Y-41183902D01*
X140575000Y-41212036D01*
X140575000Y-42187964D01*
X140573618Y-42216098D01*
X140569485Y-42243962D01*
X140562640Y-42271286D01*
X140553151Y-42297808D01*
X140541107Y-42323272D01*
X140526626Y-42347433D01*
X140509846Y-42370058D01*
X140490929Y-42390929D01*
X140470058Y-42409846D01*
X140447433Y-42426626D01*
X140423272Y-42441107D01*
X140397808Y-42453151D01*
X140371286Y-42462640D01*
X140343962Y-42469485D01*
X140316098Y-42473618D01*
X140287964Y-42475000D01*
X137312036Y-42475000D01*
X137283902Y-42473618D01*
X137256038Y-42469485D01*
X137228714Y-42462640D01*
X137202192Y-42453151D01*
X137176728Y-42441107D01*
X137152567Y-42426626D01*
X137129942Y-42409846D01*
X137109071Y-42390929D01*
X137090154Y-42370058D01*
X137073374Y-42347433D01*
X137058893Y-42323272D01*
X137046849Y-42297808D01*
X137037360Y-42271286D01*
X137030515Y-42243962D01*
X137026382Y-42216098D01*
X137025000Y-42187964D01*
X137025000Y-41212036D01*
X137026382Y-41183902D01*
X137030515Y-41156038D01*
X137037360Y-41128714D01*
X137046849Y-41102192D01*
X137058893Y-41076728D01*
X137073374Y-41052567D01*
X137090154Y-41029942D01*
X137109071Y-41009071D01*
X137129942Y-40990154D01*
X137152567Y-40973374D01*
X137176728Y-40958893D01*
X137202192Y-40946849D01*
X137228714Y-40937360D01*
X137256038Y-40930515D01*
X137283902Y-40926382D01*
X137312036Y-40925000D01*
X140287964Y-40925000D01*
X140316098Y-40926382D01*
G37*
D16*
X84100000Y-23500000D03*
X84100000Y-12200000D03*
X95000000Y-60200000D03*
X17900000Y-38400000D03*
X17900000Y-48400000D03*
X17900000Y-58400000D03*
X17900000Y-68300000D03*
X17900000Y-78400000D03*
X129700000Y-78250000D03*
D36*
X145700000Y-63800000D03*
D21*
G36*
X146547975Y-60351345D02*
G01*
X146575099Y-60355369D01*
X146601697Y-60362031D01*
X146627514Y-60371269D01*
X146652302Y-60382993D01*
X146675821Y-60397089D01*
X146697845Y-60413424D01*
X146718162Y-60431838D01*
X146736576Y-60452155D01*
X146752911Y-60474179D01*
X146767007Y-60497698D01*
X146778731Y-60522486D01*
X146787969Y-60548303D01*
X146794631Y-60574901D01*
X146798655Y-60602025D01*
X146800000Y-60629412D01*
X146800000Y-61970588D01*
X146798655Y-61997975D01*
X146794631Y-62025099D01*
X146787969Y-62051697D01*
X146778731Y-62077514D01*
X146767007Y-62102302D01*
X146752911Y-62125821D01*
X146736576Y-62147845D01*
X146718162Y-62168162D01*
X146697845Y-62186576D01*
X146675821Y-62202911D01*
X146652302Y-62217007D01*
X146627514Y-62228731D01*
X146601697Y-62237969D01*
X146575099Y-62244631D01*
X146547975Y-62248655D01*
X146520588Y-62250000D01*
X144879412Y-62250000D01*
X144852025Y-62248655D01*
X144824901Y-62244631D01*
X144798303Y-62237969D01*
X144772486Y-62228731D01*
X144747698Y-62217007D01*
X144724179Y-62202911D01*
X144702155Y-62186576D01*
X144681838Y-62168162D01*
X144663424Y-62147845D01*
X144647089Y-62125821D01*
X144632993Y-62102302D01*
X144621269Y-62077514D01*
X144612031Y-62051697D01*
X144605369Y-62025099D01*
X144601345Y-61997975D01*
X144600000Y-61970588D01*
X144600000Y-60629412D01*
X144601345Y-60602025D01*
X144605369Y-60574901D01*
X144612031Y-60548303D01*
X144621269Y-60522486D01*
X144632993Y-60497698D01*
X144647089Y-60474179D01*
X144663424Y-60452155D01*
X144681838Y-60431838D01*
X144702155Y-60413424D01*
X144724179Y-60397089D01*
X144747698Y-60382993D01*
X144772486Y-60371269D01*
X144798303Y-60362031D01*
X144824901Y-60355369D01*
X144852025Y-60351345D01*
X144879412Y-60350000D01*
X146520588Y-60350000D01*
X146547975Y-60351345D01*
G37*
D34*
X146800000Y-52000000D03*
D35*
X146800000Y-49460000D03*
X146800000Y-46920000D03*
D12*
X98700000Y-9460000D03*
D11*
X98700000Y-12000000D03*
X98700000Y-14540000D03*
D21*
G36*
X93885043Y-77301414D02*
G01*
X93913558Y-77305644D01*
X93941521Y-77312649D01*
X93968663Y-77322360D01*
X93994723Y-77334686D01*
X94019449Y-77349506D01*
X94042603Y-77366678D01*
X94063963Y-77386037D01*
X94083322Y-77407397D01*
X94100494Y-77430551D01*
X94115314Y-77455277D01*
X94127640Y-77481337D01*
X94137351Y-77508479D01*
X94144356Y-77536442D01*
X94148586Y-77564957D01*
X94150000Y-77593750D01*
X94150000Y-78606250D01*
X94148586Y-78635043D01*
X94144356Y-78663558D01*
X94137351Y-78691521D01*
X94127640Y-78718663D01*
X94115314Y-78744723D01*
X94100494Y-78769449D01*
X94083322Y-78792603D01*
X94063963Y-78813963D01*
X94042603Y-78833322D01*
X94019449Y-78850494D01*
X93994723Y-78865314D01*
X93968663Y-78877640D01*
X93941521Y-78887351D01*
X93913558Y-78894356D01*
X93885043Y-78898586D01*
X93856250Y-78900000D01*
X93268750Y-78900000D01*
X93239957Y-78898586D01*
X93211442Y-78894356D01*
X93183479Y-78887351D01*
X93156337Y-78877640D01*
X93130277Y-78865314D01*
X93105551Y-78850494D01*
X93082397Y-78833322D01*
X93061037Y-78813963D01*
X93041678Y-78792603D01*
X93024506Y-78769449D01*
X93009686Y-78744723D01*
X92997360Y-78718663D01*
X92987649Y-78691521D01*
X92980644Y-78663558D01*
X92976414Y-78635043D01*
X92975000Y-78606250D01*
X92975000Y-77593750D01*
X92976414Y-77564957D01*
X92980644Y-77536442D01*
X92987649Y-77508479D01*
X92997360Y-77481337D01*
X93009686Y-77455277D01*
X93024506Y-77430551D01*
X93041678Y-77407397D01*
X93061037Y-77386037D01*
X93082397Y-77366678D01*
X93105551Y-77349506D01*
X93130277Y-77334686D01*
X93156337Y-77322360D01*
X93183479Y-77312649D01*
X93211442Y-77305644D01*
X93239957Y-77301414D01*
X93268750Y-77300000D01*
X93856250Y-77300000D01*
X93885043Y-77301414D01*
G37*
G36*
X95760043Y-77301414D02*
G01*
X95788558Y-77305644D01*
X95816521Y-77312649D01*
X95843663Y-77322360D01*
X95869723Y-77334686D01*
X95894449Y-77349506D01*
X95917603Y-77366678D01*
X95938963Y-77386037D01*
X95958322Y-77407397D01*
X95975494Y-77430551D01*
X95990314Y-77455277D01*
X96002640Y-77481337D01*
X96012351Y-77508479D01*
X96019356Y-77536442D01*
X96023586Y-77564957D01*
X96025000Y-77593750D01*
X96025000Y-78606250D01*
X96023586Y-78635043D01*
X96019356Y-78663558D01*
X96012351Y-78691521D01*
X96002640Y-78718663D01*
X95990314Y-78744723D01*
X95975494Y-78769449D01*
X95958322Y-78792603D01*
X95938963Y-78813963D01*
X95917603Y-78833322D01*
X95894449Y-78850494D01*
X95869723Y-78865314D01*
X95843663Y-78877640D01*
X95816521Y-78887351D01*
X95788558Y-78894356D01*
X95760043Y-78898586D01*
X95731250Y-78900000D01*
X95143750Y-78900000D01*
X95114957Y-78898586D01*
X95086442Y-78894356D01*
X95058479Y-78887351D01*
X95031337Y-78877640D01*
X95005277Y-78865314D01*
X94980551Y-78850494D01*
X94957397Y-78833322D01*
X94936037Y-78813963D01*
X94916678Y-78792603D01*
X94899506Y-78769449D01*
X94884686Y-78744723D01*
X94872360Y-78718663D01*
X94862649Y-78691521D01*
X94855644Y-78663558D01*
X94851414Y-78635043D01*
X94850000Y-78606250D01*
X94850000Y-77593750D01*
X94851414Y-77564957D01*
X94855644Y-77536442D01*
X94862649Y-77508479D01*
X94872360Y-77481337D01*
X94884686Y-77455277D01*
X94899506Y-77430551D01*
X94916678Y-77407397D01*
X94936037Y-77386037D01*
X94957397Y-77366678D01*
X94980551Y-77349506D01*
X95005277Y-77334686D01*
X95031337Y-77322360D01*
X95058479Y-77312649D01*
X95086442Y-77305644D01*
X95114957Y-77301414D01*
X95143750Y-77300000D01*
X95731250Y-77300000D01*
X95760043Y-77301414D01*
G37*
G36*
X96035043Y-81451414D02*
G01*
X96063558Y-81455644D01*
X96091521Y-81462649D01*
X96118663Y-81472360D01*
X96144723Y-81484686D01*
X96169449Y-81499506D01*
X96192603Y-81516678D01*
X96213963Y-81536037D01*
X96233322Y-81557397D01*
X96250494Y-81580551D01*
X96265314Y-81605277D01*
X96277640Y-81631337D01*
X96287351Y-81658479D01*
X96294356Y-81686442D01*
X96298586Y-81714957D01*
X96300000Y-81743750D01*
X96300000Y-82331250D01*
X96298586Y-82360043D01*
X96294356Y-82388558D01*
X96287351Y-82416521D01*
X96277640Y-82443663D01*
X96265314Y-82469723D01*
X96250494Y-82494449D01*
X96233322Y-82517603D01*
X96213963Y-82538963D01*
X96192603Y-82558322D01*
X96169449Y-82575494D01*
X96144723Y-82590314D01*
X96118663Y-82602640D01*
X96091521Y-82612351D01*
X96063558Y-82619356D01*
X96035043Y-82623586D01*
X96006250Y-82625000D01*
X94993750Y-82625000D01*
X94964957Y-82623586D01*
X94936442Y-82619356D01*
X94908479Y-82612351D01*
X94881337Y-82602640D01*
X94855277Y-82590314D01*
X94830551Y-82575494D01*
X94807397Y-82558322D01*
X94786037Y-82538963D01*
X94766678Y-82517603D01*
X94749506Y-82494449D01*
X94734686Y-82469723D01*
X94722360Y-82443663D01*
X94712649Y-82416521D01*
X94705644Y-82388558D01*
X94701414Y-82360043D01*
X94700000Y-82331250D01*
X94700000Y-81743750D01*
X94701414Y-81714957D01*
X94705644Y-81686442D01*
X94712649Y-81658479D01*
X94722360Y-81631337D01*
X94734686Y-81605277D01*
X94749506Y-81580551D01*
X94766678Y-81557397D01*
X94786037Y-81536037D01*
X94807397Y-81516678D01*
X94830551Y-81499506D01*
X94855277Y-81484686D01*
X94881337Y-81472360D01*
X94908479Y-81462649D01*
X94936442Y-81455644D01*
X94964957Y-81451414D01*
X94993750Y-81450000D01*
X96006250Y-81450000D01*
X96035043Y-81451414D01*
G37*
G36*
X96035043Y-79576414D02*
G01*
X96063558Y-79580644D01*
X96091521Y-79587649D01*
X96118663Y-79597360D01*
X96144723Y-79609686D01*
X96169449Y-79624506D01*
X96192603Y-79641678D01*
X96213963Y-79661037D01*
X96233322Y-79682397D01*
X96250494Y-79705551D01*
X96265314Y-79730277D01*
X96277640Y-79756337D01*
X96287351Y-79783479D01*
X96294356Y-79811442D01*
X96298586Y-79839957D01*
X96300000Y-79868750D01*
X96300000Y-80456250D01*
X96298586Y-80485043D01*
X96294356Y-80513558D01*
X96287351Y-80541521D01*
X96277640Y-80568663D01*
X96265314Y-80594723D01*
X96250494Y-80619449D01*
X96233322Y-80642603D01*
X96213963Y-80663963D01*
X96192603Y-80683322D01*
X96169449Y-80700494D01*
X96144723Y-80715314D01*
X96118663Y-80727640D01*
X96091521Y-80737351D01*
X96063558Y-80744356D01*
X96035043Y-80748586D01*
X96006250Y-80750000D01*
X94993750Y-80750000D01*
X94964957Y-80748586D01*
X94936442Y-80744356D01*
X94908479Y-80737351D01*
X94881337Y-80727640D01*
X94855277Y-80715314D01*
X94830551Y-80700494D01*
X94807397Y-80683322D01*
X94786037Y-80663963D01*
X94766678Y-80642603D01*
X94749506Y-80619449D01*
X94734686Y-80594723D01*
X94722360Y-80568663D01*
X94712649Y-80541521D01*
X94705644Y-80513558D01*
X94701414Y-80485043D01*
X94700000Y-80456250D01*
X94700000Y-79868750D01*
X94701414Y-79839957D01*
X94705644Y-79811442D01*
X94712649Y-79783479D01*
X94722360Y-79756337D01*
X94734686Y-79730277D01*
X94749506Y-79705551D01*
X94766678Y-79682397D01*
X94786037Y-79661037D01*
X94807397Y-79641678D01*
X94830551Y-79624506D01*
X94855277Y-79609686D01*
X94881337Y-79597360D01*
X94908479Y-79587649D01*
X94936442Y-79580644D01*
X94964957Y-79576414D01*
X94993750Y-79575000D01*
X96006250Y-79575000D01*
X96035043Y-79576414D01*
G37*
G36*
X93935043Y-79576414D02*
G01*
X93963558Y-79580644D01*
X93991521Y-79587649D01*
X94018663Y-79597360D01*
X94044723Y-79609686D01*
X94069449Y-79624506D01*
X94092603Y-79641678D01*
X94113963Y-79661037D01*
X94133322Y-79682397D01*
X94150494Y-79705551D01*
X94165314Y-79730277D01*
X94177640Y-79756337D01*
X94187351Y-79783479D01*
X94194356Y-79811442D01*
X94198586Y-79839957D01*
X94200000Y-79868750D01*
X94200000Y-80456250D01*
X94198586Y-80485043D01*
X94194356Y-80513558D01*
X94187351Y-80541521D01*
X94177640Y-80568663D01*
X94165314Y-80594723D01*
X94150494Y-80619449D01*
X94133322Y-80642603D01*
X94113963Y-80663963D01*
X94092603Y-80683322D01*
X94069449Y-80700494D01*
X94044723Y-80715314D01*
X94018663Y-80727640D01*
X93991521Y-80737351D01*
X93963558Y-80744356D01*
X93935043Y-80748586D01*
X93906250Y-80750000D01*
X92893750Y-80750000D01*
X92864957Y-80748586D01*
X92836442Y-80744356D01*
X92808479Y-80737351D01*
X92781337Y-80727640D01*
X92755277Y-80715314D01*
X92730551Y-80700494D01*
X92707397Y-80683322D01*
X92686037Y-80663963D01*
X92666678Y-80642603D01*
X92649506Y-80619449D01*
X92634686Y-80594723D01*
X92622360Y-80568663D01*
X92612649Y-80541521D01*
X92605644Y-80513558D01*
X92601414Y-80485043D01*
X92600000Y-80456250D01*
X92600000Y-79868750D01*
X92601414Y-79839957D01*
X92605644Y-79811442D01*
X92612649Y-79783479D01*
X92622360Y-79756337D01*
X92634686Y-79730277D01*
X92649506Y-79705551D01*
X92666678Y-79682397D01*
X92686037Y-79661037D01*
X92707397Y-79641678D01*
X92730551Y-79624506D01*
X92755277Y-79609686D01*
X92781337Y-79597360D01*
X92808479Y-79587649D01*
X92836442Y-79580644D01*
X92864957Y-79576414D01*
X92893750Y-79575000D01*
X93906250Y-79575000D01*
X93935043Y-79576414D01*
G37*
G36*
X93935043Y-81451414D02*
G01*
X93963558Y-81455644D01*
X93991521Y-81462649D01*
X94018663Y-81472360D01*
X94044723Y-81484686D01*
X94069449Y-81499506D01*
X94092603Y-81516678D01*
X94113963Y-81536037D01*
X94133322Y-81557397D01*
X94150494Y-81580551D01*
X94165314Y-81605277D01*
X94177640Y-81631337D01*
X94187351Y-81658479D01*
X94194356Y-81686442D01*
X94198586Y-81714957D01*
X94200000Y-81743750D01*
X94200000Y-82331250D01*
X94198586Y-82360043D01*
X94194356Y-82388558D01*
X94187351Y-82416521D01*
X94177640Y-82443663D01*
X94165314Y-82469723D01*
X94150494Y-82494449D01*
X94133322Y-82517603D01*
X94113963Y-82538963D01*
X94092603Y-82558322D01*
X94069449Y-82575494D01*
X94044723Y-82590314D01*
X94018663Y-82602640D01*
X93991521Y-82612351D01*
X93963558Y-82619356D01*
X93935043Y-82623586D01*
X93906250Y-82625000D01*
X92893750Y-82625000D01*
X92864957Y-82623586D01*
X92836442Y-82619356D01*
X92808479Y-82612351D01*
X92781337Y-82602640D01*
X92755277Y-82590314D01*
X92730551Y-82575494D01*
X92707397Y-82558322D01*
X92686037Y-82538963D01*
X92666678Y-82517603D01*
X92649506Y-82494449D01*
X92634686Y-82469723D01*
X92622360Y-82443663D01*
X92612649Y-82416521D01*
X92605644Y-82388558D01*
X92601414Y-82360043D01*
X92600000Y-82331250D01*
X92600000Y-81743750D01*
X92601414Y-81714957D01*
X92605644Y-81686442D01*
X92612649Y-81658479D01*
X92622360Y-81631337D01*
X92634686Y-81605277D01*
X92649506Y-81580551D01*
X92666678Y-81557397D01*
X92686037Y-81536037D01*
X92707397Y-81516678D01*
X92730551Y-81499506D01*
X92755277Y-81484686D01*
X92781337Y-81472360D01*
X92808479Y-81462649D01*
X92836442Y-81455644D01*
X92864957Y-81451414D01*
X92893750Y-81450000D01*
X93906250Y-81450000D01*
X93935043Y-81451414D01*
G37*
D37*
X92000000Y-57700000D03*
D38*
X86800000Y-68000000D03*
X90800000Y-86600000D03*
X75100000Y-27800000D03*
D37*
X137900000Y-8900000D03*
X131600000Y-25400000D03*
X85800000Y-6800000D03*
X57750000Y-27800000D03*
X21000000Y-27800000D03*
D38*
X17500000Y-99000000D03*
X37500000Y-99000000D03*
X47500000Y-99000000D03*
X52500000Y-99000000D03*
X55000000Y-99000000D03*
X57500000Y-99000000D03*
X60000000Y-99000000D03*
X62500000Y-99000000D03*
X65000000Y-99000000D03*
X67500000Y-99000000D03*
X2500000Y-99000000D03*
X5000000Y-99000000D03*
X7500000Y-99000000D03*
X10000000Y-99000000D03*
X15000000Y-99000000D03*
X40000000Y-99000000D03*
X42500000Y-99000000D03*
X45000000Y-99000000D03*
X50000000Y-99000000D03*
X12500000Y-99000000D03*
X32500000Y-99000000D03*
X75000000Y-99000000D03*
X22500000Y-99000000D03*
X25000000Y-99000000D03*
X87500000Y-99000000D03*
X72500000Y-99000000D03*
X70000000Y-99000000D03*
X82500000Y-99000000D03*
X92500000Y-99000000D03*
X35000000Y-99000000D03*
X27500000Y-99000000D03*
X77500000Y-99000000D03*
X85000000Y-99000000D03*
X80000000Y-99000000D03*
X30000000Y-99000000D03*
X90000000Y-99000000D03*
X101000000Y-1000000D03*
X103540000Y-1000000D03*
X106080000Y-1000000D03*
X108620000Y-1000000D03*
X111160000Y-1000000D03*
X113700000Y-1000000D03*
X116240000Y-1000000D03*
X118780000Y-1000000D03*
X121320000Y-1000000D03*
X123860000Y-1000000D03*
X126400000Y-1000000D03*
X128940000Y-1000000D03*
X131480000Y-1000000D03*
X144180000Y-1000000D03*
X146720000Y-1000000D03*
X101000000Y-99000000D03*
X103540000Y-99000000D03*
X106080000Y-99000000D03*
X108620000Y-99000000D03*
X111160000Y-99000000D03*
X113700000Y-99000000D03*
X116240000Y-99000000D03*
X118780000Y-99000000D03*
X121320000Y-99000000D03*
X123860000Y-99000000D03*
X126400000Y-99000000D03*
X128940000Y-99000000D03*
X131480000Y-99000000D03*
X139100000Y-99000000D03*
X141640000Y-99000000D03*
X144180000Y-99000000D03*
X146720000Y-99000000D03*
D37*
X135500000Y-13250000D03*
X135500000Y-15500000D03*
X135500000Y-17750000D03*
X142500000Y-13200000D03*
X132000000Y-65250000D03*
D38*
X72500000Y-1000000D03*
X80000000Y-1000000D03*
X85000000Y-1000000D03*
X77500000Y-1000000D03*
X30000000Y-1000000D03*
X22500000Y-1000000D03*
X82500000Y-1000000D03*
X90000000Y-1000000D03*
X32500000Y-1000000D03*
X70000000Y-1000000D03*
X92500000Y-1000000D03*
X65000000Y-1000000D03*
X35000000Y-1000000D03*
X27500000Y-1000000D03*
X87500000Y-1000000D03*
X75000000Y-1000000D03*
X25000000Y-1000000D03*
X67500000Y-1000000D03*
X37500000Y-1000000D03*
X62500000Y-1000000D03*
X50000000Y-1000000D03*
X17500000Y-1000000D03*
X7500000Y-1000000D03*
X60000000Y-1000000D03*
X57500000Y-1000000D03*
X55000000Y-1000000D03*
X12500000Y-1000000D03*
X52500000Y-1000000D03*
X15000000Y-1000000D03*
X47500000Y-1000000D03*
X45000000Y-1000000D03*
X42500000Y-1000000D03*
X40000000Y-1000000D03*
X2500000Y-1000000D03*
X5000000Y-1000000D03*
X10000000Y-1000000D03*
X80750000Y-18000000D03*
X94700000Y-53100000D03*
D37*
X118200000Y-69500000D03*
X118200000Y-73700000D03*
X144500000Y-69500000D03*
X144500000Y-73700000D03*
X131000000Y-91000000D03*
D38*
X74400000Y-14000000D03*
X73700000Y-20100000D03*
X61300000Y-18400000D03*
X70300000Y-17900000D03*
X71370000Y-25480000D03*
X80500000Y-10600000D03*
X80900000Y-25300000D03*
X88100000Y-24000000D03*
X91400000Y-46300000D03*
X105600000Y-76700000D03*
X138900000Y-63800000D03*
X111400000Y-57300000D03*
X146600000Y-28700000D03*
X141700000Y-32600000D03*
X141640000Y-1000000D03*
X139100000Y-1000000D03*
X71310000Y-9950000D03*
X146800000Y-88800000D03*
X147600000Y-62600000D03*
X146800000Y-91400000D03*
X135250000Y-22650000D03*
X109600000Y-51600000D03*
X109400000Y-37900000D03*
X118100000Y-91000000D03*
X114600000Y-77900000D03*
D37*
X142200000Y-91000000D03*
D38*
X74000000Y-89400000D03*
X117000000Y-36600000D03*
X128600000Y-27500000D03*
X128600000Y-24000000D03*
X115800000Y-28800000D03*
X83900000Y-42300000D03*
X83900000Y-52500000D03*
X83200000Y-72600000D03*
X83900000Y-62000000D03*
X37300000Y-81000000D03*
X73400000Y-83100000D03*
X36800000Y-43400000D03*
X36800000Y-53500000D03*
X36900000Y-63400000D03*
X37000000Y-73400000D03*
X39700000Y-47600000D03*
X39700000Y-37500000D03*
X39700000Y-57800000D03*
X39700000Y-67600000D03*
X39800000Y-77400000D03*
X39600000Y-87500000D03*
X54800000Y-87600000D03*
X54800000Y-77400000D03*
X54800000Y-67500000D03*
X54800000Y-57200000D03*
X54700000Y-47500000D03*
X54700000Y-37500000D03*
X65900000Y-31200000D03*
X65900000Y-41200000D03*
X65800000Y-51200000D03*
X65800000Y-61200000D03*
X65800000Y-71200000D03*
X65800000Y-81200000D03*
X88100000Y-74900000D03*
X89200000Y-65850000D03*
X92950000Y-71600000D03*
X88850000Y-82350000D03*
X12300000Y-38050000D03*
X12350000Y-55700000D03*
X1400000Y-55700000D03*
X1400000Y-38050000D03*
D37*
X140200000Y-13200000D03*
D39*
X131150000Y-41600000D03*
X129650000Y-35150000D03*
X27100000Y-48450000D03*
X27000000Y-38400000D03*
X27000000Y-58450000D03*
X27000000Y-68400000D03*
X27050000Y-78400000D03*
X78700000Y-78400000D03*
X78700000Y-68300000D03*
X78700000Y-58350000D03*
X78700000Y-48350000D03*
X78700000Y-38350000D03*
X110100000Y-73150000D03*
X110050000Y-81150000D03*
X124300000Y-81600000D03*
D38*
X17900000Y-38400000D03*
X17900000Y-48400000D03*
X17900000Y-58400000D03*
X17950000Y-68300000D03*
X17950000Y-78400000D03*
X126450000Y-63250000D03*
X129700000Y-78200000D03*
X93900000Y-63700000D03*
X117950000Y-71600000D03*
D37*
X146000000Y-26000000D03*
D38*
X95200000Y-63100000D03*
X117800000Y-52100000D03*
X117800000Y-48300000D03*
X96200000Y-62000000D03*
D40*
X126500000Y-77500000D03*
D38*
X84100000Y-21300000D03*
X84100000Y-14300000D03*
D37*
X129000000Y-13400000D03*
X126600000Y-13400000D03*
X126600000Y-15200000D03*
X129000000Y-15200000D03*
X126600000Y-17000000D03*
X129000000Y-17000000D03*
D38*
X88250000Y-61950000D03*
X94100000Y-74800000D03*
X115000000Y-33700000D03*
X135500000Y-44300000D03*
X135600000Y-34300000D03*
X128500000Y-34350000D03*
X140150000Y-22700000D03*
X142500000Y-21200000D03*
D41*
G36*
X149873000Y-176958D02*
G01*
X149873000Y-2422958D01*
X127000Y-2373042D01*
X127000Y-127042D01*
X149873000Y-176958D01*
G37*
X149873000Y-176958D02*
X149873000Y-2422958D01*
X127000Y-2373042D01*
X127000Y-127042D01*
X149873000Y-176958D01*
G36*
X149873000Y-99873000D02*
G01*
X127000Y-99873000D01*
X127000Y-97627000D01*
X149873000Y-97627000D01*
X149873000Y-99873000D01*
G37*
X149873000Y-99873000D02*
X127000Y-99873000D01*
X127000Y-97627000D01*
X149873000Y-97627000D01*
X149873000Y-99873000D01*
M02*
