G04 #@! TF.GenerationSoftware,KiCad,Pcbnew,5.1.6-c6e7f7d~86~ubuntu18.04.1*
G04 #@! TF.CreationDate,2020-06-11T10:01:39+01:00*
G04 #@! TF.ProjectId,HL2_MRF101,484c325f-4d52-4463-9130-312e6b696361,2.0-build8*
G04 #@! TF.SameCoordinates,PX42c1d80PY2625a00*
G04 #@! TF.FileFunction,Paste,Top*
G04 #@! TF.FilePolarity,Positive*
%FSLAX46Y46*%
G04 Gerber Fmt 4.6, Leading zero omitted, Abs format (unit mm)*
G04 Created by KiCad (PCBNEW 5.1.6-c6e7f7d~86~ubuntu18.04.1) date 2020-06-11 10:01:39*
%MOMM*%
%LPD*%
G01*
G04 APERTURE LIST*
%ADD10R,2.200000X1.050000*%
%ADD11R,1.050000X1.000000*%
%ADD12R,5.999480X3.997960*%
%ADD13R,0.900000X1.200000*%
%ADD14R,0.900000X0.800000*%
G04 APERTURE END LIST*
D10*
X93925000Y-69375000D03*
D11*
X95450000Y-67900000D03*
D10*
X93925000Y-66425000D03*
G36*
G01*
X100622250Y-56324000D02*
X101134750Y-56324000D01*
G75*
G02*
X101353500Y-56542750I0J-218750D01*
G01*
X101353500Y-56980250D01*
G75*
G02*
X101134750Y-57199000I-218750J0D01*
G01*
X100622250Y-57199000D01*
G75*
G02*
X100403500Y-56980250I0J218750D01*
G01*
X100403500Y-56542750D01*
G75*
G02*
X100622250Y-56324000I218750J0D01*
G01*
G37*
G36*
G01*
X100622250Y-54749000D02*
X101134750Y-54749000D01*
G75*
G02*
X101353500Y-54967750I0J-218750D01*
G01*
X101353500Y-55405250D01*
G75*
G02*
X101134750Y-55624000I-218750J0D01*
G01*
X100622250Y-55624000D01*
G75*
G02*
X100403500Y-55405250I0J218750D01*
G01*
X100403500Y-54967750D01*
G75*
G02*
X100622250Y-54749000I218750J0D01*
G01*
G37*
G36*
G01*
X101134750Y-59116500D02*
X100622250Y-59116500D01*
G75*
G02*
X100403500Y-58897750I0J218750D01*
G01*
X100403500Y-58460250D01*
G75*
G02*
X100622250Y-58241500I218750J0D01*
G01*
X101134750Y-58241500D01*
G75*
G02*
X101353500Y-58460250I0J-218750D01*
G01*
X101353500Y-58897750D01*
G75*
G02*
X101134750Y-59116500I-218750J0D01*
G01*
G37*
G36*
G01*
X101134750Y-60691500D02*
X100622250Y-60691500D01*
G75*
G02*
X100403500Y-60472750I0J218750D01*
G01*
X100403500Y-60035250D01*
G75*
G02*
X100622250Y-59816500I218750J0D01*
G01*
X101134750Y-59816500D01*
G75*
G02*
X101353500Y-60035250I0J-218750D01*
G01*
X101353500Y-60472750D01*
G75*
G02*
X101134750Y-60691500I-218750J0D01*
G01*
G37*
X126343000Y-70441000D03*
D11*
X124818000Y-68966000D03*
D10*
X126343000Y-67491000D03*
G36*
G01*
X90222250Y-67578500D02*
X89309750Y-67578500D01*
G75*
G02*
X89066000Y-67334750I0J243750D01*
G01*
X89066000Y-66847250D01*
G75*
G02*
X89309750Y-66603500I243750J0D01*
G01*
X90222250Y-66603500D01*
G75*
G02*
X90466000Y-66847250I0J-243750D01*
G01*
X90466000Y-67334750D01*
G75*
G02*
X90222250Y-67578500I-243750J0D01*
G01*
G37*
G36*
G01*
X90222250Y-69453500D02*
X89309750Y-69453500D01*
G75*
G02*
X89066000Y-69209750I0J243750D01*
G01*
X89066000Y-68722250D01*
G75*
G02*
X89309750Y-68478500I243750J0D01*
G01*
X90222250Y-68478500D01*
G75*
G02*
X90466000Y-68722250I0J-243750D01*
G01*
X90466000Y-69209750D01*
G75*
G02*
X90222250Y-69453500I-243750J0D01*
G01*
G37*
D12*
X138698720Y-40599700D03*
X128701280Y-40599700D03*
X128701280Y-20000300D03*
X138698720Y-20000300D03*
G36*
G01*
X89309750Y-65019500D02*
X90222250Y-65019500D01*
G75*
G02*
X90466000Y-65263250I0J-243750D01*
G01*
X90466000Y-65750750D01*
G75*
G02*
X90222250Y-65994500I-243750J0D01*
G01*
X89309750Y-65994500D01*
G75*
G02*
X89066000Y-65750750I0J243750D01*
G01*
X89066000Y-65263250D01*
G75*
G02*
X89309750Y-65019500I243750J0D01*
G01*
G37*
G36*
G01*
X89309750Y-63144500D02*
X90222250Y-63144500D01*
G75*
G02*
X90466000Y-63388250I0J-243750D01*
G01*
X90466000Y-63875750D01*
G75*
G02*
X90222250Y-64119500I-243750J0D01*
G01*
X89309750Y-64119500D01*
G75*
G02*
X89066000Y-63875750I0J243750D01*
G01*
X89066000Y-63388250D01*
G75*
G02*
X89309750Y-63144500I243750J0D01*
G01*
G37*
G36*
G01*
X139843750Y-65450000D02*
X140756250Y-65450000D01*
G75*
G02*
X141000000Y-65693750I0J-243750D01*
G01*
X141000000Y-66181250D01*
G75*
G02*
X140756250Y-66425000I-243750J0D01*
G01*
X139843750Y-66425000D01*
G75*
G02*
X139600000Y-66181250I0J243750D01*
G01*
X139600000Y-65693750D01*
G75*
G02*
X139843750Y-65450000I243750J0D01*
G01*
G37*
G36*
G01*
X139843750Y-63575000D02*
X140756250Y-63575000D01*
G75*
G02*
X141000000Y-63818750I0J-243750D01*
G01*
X141000000Y-64306250D01*
G75*
G02*
X140756250Y-64550000I-243750J0D01*
G01*
X139843750Y-64550000D01*
G75*
G02*
X139600000Y-64306250I0J243750D01*
G01*
X139600000Y-63818750D01*
G75*
G02*
X139843750Y-63575000I243750J0D01*
G01*
G37*
G36*
G01*
X104422750Y-60218900D02*
X105335250Y-60218900D01*
G75*
G02*
X105579000Y-60462650I0J-243750D01*
G01*
X105579000Y-60950150D01*
G75*
G02*
X105335250Y-61193900I-243750J0D01*
G01*
X104422750Y-61193900D01*
G75*
G02*
X104179000Y-60950150I0J243750D01*
G01*
X104179000Y-60462650D01*
G75*
G02*
X104422750Y-60218900I243750J0D01*
G01*
G37*
G36*
G01*
X104422750Y-58343900D02*
X105335250Y-58343900D01*
G75*
G02*
X105579000Y-58587650I0J-243750D01*
G01*
X105579000Y-59075150D01*
G75*
G02*
X105335250Y-59318900I-243750J0D01*
G01*
X104422750Y-59318900D01*
G75*
G02*
X104179000Y-59075150I0J243750D01*
G01*
X104179000Y-58587650D01*
G75*
G02*
X104422750Y-58343900I243750J0D01*
G01*
G37*
G36*
G01*
X132825000Y-61543750D02*
X132825000Y-62456250D01*
G75*
G02*
X132581250Y-62700000I-243750J0D01*
G01*
X132093750Y-62700000D01*
G75*
G02*
X131850000Y-62456250I0J243750D01*
G01*
X131850000Y-61543750D01*
G75*
G02*
X132093750Y-61300000I243750J0D01*
G01*
X132581250Y-61300000D01*
G75*
G02*
X132825000Y-61543750I0J-243750D01*
G01*
G37*
G36*
G01*
X130950000Y-61543750D02*
X130950000Y-62456250D01*
G75*
G02*
X130706250Y-62700000I-243750J0D01*
G01*
X130218750Y-62700000D01*
G75*
G02*
X129975000Y-62456250I0J243750D01*
G01*
X129975000Y-61543750D01*
G75*
G02*
X130218750Y-61300000I243750J0D01*
G01*
X130706250Y-61300000D01*
G75*
G02*
X130950000Y-61543750I0J-243750D01*
G01*
G37*
G36*
G01*
X126417250Y-63279000D02*
X125504750Y-63279000D01*
G75*
G02*
X125261000Y-63035250I0J243750D01*
G01*
X125261000Y-62547750D01*
G75*
G02*
X125504750Y-62304000I243750J0D01*
G01*
X126417250Y-62304000D01*
G75*
G02*
X126661000Y-62547750I0J-243750D01*
G01*
X126661000Y-63035250D01*
G75*
G02*
X126417250Y-63279000I-243750J0D01*
G01*
G37*
G36*
G01*
X126417250Y-61404000D02*
X125504750Y-61404000D01*
G75*
G02*
X125261000Y-61160250I0J243750D01*
G01*
X125261000Y-60672750D01*
G75*
G02*
X125504750Y-60429000I243750J0D01*
G01*
X126417250Y-60429000D01*
G75*
G02*
X126661000Y-60672750I0J-243750D01*
G01*
X126661000Y-61160250D01*
G75*
G02*
X126417250Y-61404000I-243750J0D01*
G01*
G37*
G36*
G01*
X146725000Y-43943750D02*
X146725000Y-44856250D01*
G75*
G02*
X146481250Y-45100000I-243750J0D01*
G01*
X145993750Y-45100000D01*
G75*
G02*
X145750000Y-44856250I0J243750D01*
G01*
X145750000Y-43943750D01*
G75*
G02*
X145993750Y-43700000I243750J0D01*
G01*
X146481250Y-43700000D01*
G75*
G02*
X146725000Y-43943750I0J-243750D01*
G01*
G37*
G36*
G01*
X144850000Y-43943750D02*
X144850000Y-44856250D01*
G75*
G02*
X144606250Y-45100000I-243750J0D01*
G01*
X144118750Y-45100000D01*
G75*
G02*
X143875000Y-44856250I0J243750D01*
G01*
X143875000Y-43943750D01*
G75*
G02*
X144118750Y-43700000I243750J0D01*
G01*
X144606250Y-43700000D01*
G75*
G02*
X144850000Y-43943750I0J-243750D01*
G01*
G37*
G36*
G01*
X103506450Y-50149500D02*
X102593950Y-50149500D01*
G75*
G02*
X102350200Y-49905750I0J243750D01*
G01*
X102350200Y-49418250D01*
G75*
G02*
X102593950Y-49174500I243750J0D01*
G01*
X103506450Y-49174500D01*
G75*
G02*
X103750200Y-49418250I0J-243750D01*
G01*
X103750200Y-49905750D01*
G75*
G02*
X103506450Y-50149500I-243750J0D01*
G01*
G37*
G36*
G01*
X103506450Y-52024500D02*
X102593950Y-52024500D01*
G75*
G02*
X102350200Y-51780750I0J243750D01*
G01*
X102350200Y-51293250D01*
G75*
G02*
X102593950Y-51049500I243750J0D01*
G01*
X103506450Y-51049500D01*
G75*
G02*
X103750200Y-51293250I0J-243750D01*
G01*
X103750200Y-51780750D01*
G75*
G02*
X103506450Y-52024500I-243750J0D01*
G01*
G37*
G36*
G01*
X118924250Y-54135000D02*
X118011750Y-54135000D01*
G75*
G02*
X117768000Y-53891250I0J243750D01*
G01*
X117768000Y-53403750D01*
G75*
G02*
X118011750Y-53160000I243750J0D01*
G01*
X118924250Y-53160000D01*
G75*
G02*
X119168000Y-53403750I0J-243750D01*
G01*
X119168000Y-53891250D01*
G75*
G02*
X118924250Y-54135000I-243750J0D01*
G01*
G37*
G36*
G01*
X118924250Y-52260000D02*
X118011750Y-52260000D01*
G75*
G02*
X117768000Y-52016250I0J243750D01*
G01*
X117768000Y-51528750D01*
G75*
G02*
X118011750Y-51285000I243750J0D01*
G01*
X118924250Y-51285000D01*
G75*
G02*
X119168000Y-51528750I0J-243750D01*
G01*
X119168000Y-52016250D01*
G75*
G02*
X118924250Y-52260000I-243750J0D01*
G01*
G37*
G36*
G01*
X123012500Y-39956250D02*
X123012500Y-39043750D01*
G75*
G02*
X123256250Y-38800000I243750J0D01*
G01*
X123743750Y-38800000D01*
G75*
G02*
X123987500Y-39043750I0J-243750D01*
G01*
X123987500Y-39956250D01*
G75*
G02*
X123743750Y-40200000I-243750J0D01*
G01*
X123256250Y-40200000D01*
G75*
G02*
X123012500Y-39956250I0J243750D01*
G01*
G37*
G36*
G01*
X121137500Y-39956250D02*
X121137500Y-39043750D01*
G75*
G02*
X121381250Y-38800000I243750J0D01*
G01*
X121868750Y-38800000D01*
G75*
G02*
X122112500Y-39043750I0J-243750D01*
G01*
X122112500Y-39956250D01*
G75*
G02*
X121868750Y-40200000I-243750J0D01*
G01*
X121381250Y-40200000D01*
G75*
G02*
X121137500Y-39956250I0J243750D01*
G01*
G37*
G36*
G01*
X121125000Y-42056250D02*
X121125000Y-41143750D01*
G75*
G02*
X121368750Y-40900000I243750J0D01*
G01*
X121856250Y-40900000D01*
G75*
G02*
X122100000Y-41143750I0J-243750D01*
G01*
X122100000Y-42056250D01*
G75*
G02*
X121856250Y-42300000I-243750J0D01*
G01*
X121368750Y-42300000D01*
G75*
G02*
X121125000Y-42056250I0J243750D01*
G01*
G37*
G36*
G01*
X123000000Y-42056250D02*
X123000000Y-41143750D01*
G75*
G02*
X123243750Y-40900000I243750J0D01*
G01*
X123731250Y-40900000D01*
G75*
G02*
X123975000Y-41143750I0J-243750D01*
G01*
X123975000Y-42056250D01*
G75*
G02*
X123731250Y-42300000I-243750J0D01*
G01*
X123243750Y-42300000D01*
G75*
G02*
X123000000Y-42056250I0J243750D01*
G01*
G37*
D13*
X123292000Y-58044000D03*
X119992000Y-58044000D03*
G36*
G01*
X103506450Y-53603900D02*
X102593950Y-53603900D01*
G75*
G02*
X102350200Y-53360150I0J243750D01*
G01*
X102350200Y-52872650D01*
G75*
G02*
X102593950Y-52628900I243750J0D01*
G01*
X103506450Y-52628900D01*
G75*
G02*
X103750200Y-52872650I0J-243750D01*
G01*
X103750200Y-53360150D01*
G75*
G02*
X103506450Y-53603900I-243750J0D01*
G01*
G37*
G36*
G01*
X103506450Y-55478900D02*
X102593950Y-55478900D01*
G75*
G02*
X102350200Y-55235150I0J243750D01*
G01*
X102350200Y-54747650D01*
G75*
G02*
X102593950Y-54503900I243750J0D01*
G01*
X103506450Y-54503900D01*
G75*
G02*
X103750200Y-54747650I0J-243750D01*
G01*
X103750200Y-55235150D01*
G75*
G02*
X103506450Y-55478900I-243750J0D01*
G01*
G37*
G36*
G01*
X146250000Y-56656250D02*
X146250000Y-55743750D01*
G75*
G02*
X146493750Y-55500000I243750J0D01*
G01*
X146981250Y-55500000D01*
G75*
G02*
X147225000Y-55743750I0J-243750D01*
G01*
X147225000Y-56656250D01*
G75*
G02*
X146981250Y-56900000I-243750J0D01*
G01*
X146493750Y-56900000D01*
G75*
G02*
X146250000Y-56656250I0J243750D01*
G01*
G37*
G36*
G01*
X144375000Y-56656250D02*
X144375000Y-55743750D01*
G75*
G02*
X144618750Y-55500000I243750J0D01*
G01*
X145106250Y-55500000D01*
G75*
G02*
X145350000Y-55743750I0J-243750D01*
G01*
X145350000Y-56656250D01*
G75*
G02*
X145106250Y-56900000I-243750J0D01*
G01*
X144618750Y-56900000D01*
G75*
G02*
X144375000Y-56656250I0J243750D01*
G01*
G37*
D14*
X121865000Y-62804000D03*
X121865000Y-60904000D03*
X119865000Y-61854000D03*
G36*
G01*
X141407401Y-93258200D02*
X138557399Y-93258200D01*
G75*
G02*
X138307400Y-93008201I0J249999D01*
G01*
X138307400Y-92158199D01*
G75*
G02*
X138557399Y-91908200I249999J0D01*
G01*
X141407401Y-91908200D01*
G75*
G02*
X141657400Y-92158199I0J-249999D01*
G01*
X141657400Y-93008201D01*
G75*
G02*
X141407401Y-93258200I-249999J0D01*
G01*
G37*
G36*
G01*
X141407401Y-87458200D02*
X138557399Y-87458200D01*
G75*
G02*
X138307400Y-87208201I0J249999D01*
G01*
X138307400Y-86358199D01*
G75*
G02*
X138557399Y-86108200I249999J0D01*
G01*
X141407401Y-86108200D01*
G75*
G02*
X141657400Y-86358199I0J-249999D01*
G01*
X141657400Y-87208201D01*
G75*
G02*
X141407401Y-87458200I-249999J0D01*
G01*
G37*
G36*
G01*
X145607401Y-87458200D02*
X142757399Y-87458200D01*
G75*
G02*
X142507400Y-87208201I0J249999D01*
G01*
X142507400Y-86358199D01*
G75*
G02*
X142757399Y-86108200I249999J0D01*
G01*
X145607401Y-86108200D01*
G75*
G02*
X145857400Y-86358199I0J-249999D01*
G01*
X145857400Y-87208201D01*
G75*
G02*
X145607401Y-87458200I-249999J0D01*
G01*
G37*
G36*
G01*
X145607401Y-93258200D02*
X142757399Y-93258200D01*
G75*
G02*
X142507400Y-93008201I0J249999D01*
G01*
X142507400Y-92158199D01*
G75*
G02*
X142757399Y-91908200I249999J0D01*
G01*
X145607401Y-91908200D01*
G75*
G02*
X145857400Y-92158199I0J-249999D01*
G01*
X145857400Y-93008201D01*
G75*
G02*
X145607401Y-93258200I-249999J0D01*
G01*
G37*
G36*
G01*
X141407401Y-85158200D02*
X138557399Y-85158200D01*
G75*
G02*
X138307400Y-84908201I0J249999D01*
G01*
X138307400Y-84058199D01*
G75*
G02*
X138557399Y-83808200I249999J0D01*
G01*
X141407401Y-83808200D01*
G75*
G02*
X141657400Y-84058199I0J-249999D01*
G01*
X141657400Y-84908201D01*
G75*
G02*
X141407401Y-85158200I-249999J0D01*
G01*
G37*
G36*
G01*
X141407401Y-79358200D02*
X138557399Y-79358200D01*
G75*
G02*
X138307400Y-79108201I0J249999D01*
G01*
X138307400Y-78258199D01*
G75*
G02*
X138557399Y-78008200I249999J0D01*
G01*
X141407401Y-78008200D01*
G75*
G02*
X141657400Y-78258199I0J-249999D01*
G01*
X141657400Y-79108201D01*
G75*
G02*
X141407401Y-79358200I-249999J0D01*
G01*
G37*
G36*
G01*
X142757399Y-78008200D02*
X145607401Y-78008200D01*
G75*
G02*
X145857400Y-78258199I0J-249999D01*
G01*
X145857400Y-79108201D01*
G75*
G02*
X145607401Y-79358200I-249999J0D01*
G01*
X142757399Y-79358200D01*
G75*
G02*
X142507400Y-79108201I0J249999D01*
G01*
X142507400Y-78258199D01*
G75*
G02*
X142757399Y-78008200I249999J0D01*
G01*
G37*
G36*
G01*
X142757399Y-83808200D02*
X145607401Y-83808200D01*
G75*
G02*
X145857400Y-84058199I0J-249999D01*
G01*
X145857400Y-84908201D01*
G75*
G02*
X145607401Y-85158200I-249999J0D01*
G01*
X142757399Y-85158200D01*
G75*
G02*
X142507400Y-84908201I0J249999D01*
G01*
X142507400Y-84058199D01*
G75*
G02*
X142757399Y-83808200I249999J0D01*
G01*
G37*
G36*
G01*
X138557399Y-75708200D02*
X141407401Y-75708200D01*
G75*
G02*
X141657400Y-75958199I0J-249999D01*
G01*
X141657400Y-76808201D01*
G75*
G02*
X141407401Y-77058200I-249999J0D01*
G01*
X138557399Y-77058200D01*
G75*
G02*
X138307400Y-76808201I0J249999D01*
G01*
X138307400Y-75958199D01*
G75*
G02*
X138557399Y-75708200I249999J0D01*
G01*
G37*
G36*
G01*
X138557399Y-69908200D02*
X141407401Y-69908200D01*
G75*
G02*
X141657400Y-70158199I0J-249999D01*
G01*
X141657400Y-71008201D01*
G75*
G02*
X141407401Y-71258200I-249999J0D01*
G01*
X138557399Y-71258200D01*
G75*
G02*
X138307400Y-71008201I0J249999D01*
G01*
X138307400Y-70158199D01*
G75*
G02*
X138557399Y-69908200I249999J0D01*
G01*
G37*
G36*
G01*
X142757399Y-75708200D02*
X145607401Y-75708200D01*
G75*
G02*
X145857400Y-75958199I0J-249999D01*
G01*
X145857400Y-76808201D01*
G75*
G02*
X145607401Y-77058200I-249999J0D01*
G01*
X142757399Y-77058200D01*
G75*
G02*
X142507400Y-76808201I0J249999D01*
G01*
X142507400Y-75958199D01*
G75*
G02*
X142757399Y-75708200I249999J0D01*
G01*
G37*
G36*
G01*
X142757399Y-69908200D02*
X145607401Y-69908200D01*
G75*
G02*
X145857400Y-70158199I0J-249999D01*
G01*
X145857400Y-71008201D01*
G75*
G02*
X145607401Y-71258200I-249999J0D01*
G01*
X142757399Y-71258200D01*
G75*
G02*
X142507400Y-71008201I0J249999D01*
G01*
X142507400Y-70158199D01*
G75*
G02*
X142757399Y-69908200I249999J0D01*
G01*
G37*
G36*
G01*
X138874999Y-61325000D02*
X141725001Y-61325000D01*
G75*
G02*
X141975000Y-61574999I0J-249999D01*
G01*
X141975000Y-62425001D01*
G75*
G02*
X141725001Y-62675000I-249999J0D01*
G01*
X138874999Y-62675000D01*
G75*
G02*
X138625000Y-62425001I0J249999D01*
G01*
X138625000Y-61574999D01*
G75*
G02*
X138874999Y-61325000I249999J0D01*
G01*
G37*
G36*
G01*
X138874999Y-55525000D02*
X141725001Y-55525000D01*
G75*
G02*
X141975000Y-55774999I0J-249999D01*
G01*
X141975000Y-56625001D01*
G75*
G02*
X141725001Y-56875000I-249999J0D01*
G01*
X138874999Y-56875000D01*
G75*
G02*
X138625000Y-56625001I0J249999D01*
G01*
X138625000Y-55774999D01*
G75*
G02*
X138874999Y-55525000I249999J0D01*
G01*
G37*
G36*
G01*
X128925001Y-53675000D02*
X126074999Y-53675000D01*
G75*
G02*
X125825000Y-53425001I0J249999D01*
G01*
X125825000Y-52574999D01*
G75*
G02*
X126074999Y-52325000I249999J0D01*
G01*
X128925001Y-52325000D01*
G75*
G02*
X129175000Y-52574999I0J-249999D01*
G01*
X129175000Y-53425001D01*
G75*
G02*
X128925001Y-53675000I-249999J0D01*
G01*
G37*
G36*
G01*
X128925001Y-47875000D02*
X126074999Y-47875000D01*
G75*
G02*
X125825000Y-47625001I0J249999D01*
G01*
X125825000Y-46774999D01*
G75*
G02*
X126074999Y-46525000I249999J0D01*
G01*
X128925001Y-46525000D01*
G75*
G02*
X129175000Y-46774999I0J-249999D01*
G01*
X129175000Y-47625001D01*
G75*
G02*
X128925001Y-47875000I-249999J0D01*
G01*
G37*
G36*
G01*
X134174999Y-55525000D02*
X137025001Y-55525000D01*
G75*
G02*
X137275000Y-55774999I0J-249999D01*
G01*
X137275000Y-56625001D01*
G75*
G02*
X137025001Y-56875000I-249999J0D01*
G01*
X134174999Y-56875000D01*
G75*
G02*
X133925000Y-56625001I0J249999D01*
G01*
X133925000Y-55774999D01*
G75*
G02*
X134174999Y-55525000I249999J0D01*
G01*
G37*
G36*
G01*
X134174999Y-61325000D02*
X137025001Y-61325000D01*
G75*
G02*
X137275000Y-61574999I0J-249999D01*
G01*
X137275000Y-62425001D01*
G75*
G02*
X137025001Y-62675000I-249999J0D01*
G01*
X134174999Y-62675000D01*
G75*
G02*
X133925000Y-62425001I0J249999D01*
G01*
X133925000Y-61574999D01*
G75*
G02*
X134174999Y-61325000I249999J0D01*
G01*
G37*
G36*
G01*
X130374999Y-52325000D02*
X133225001Y-52325000D01*
G75*
G02*
X133475000Y-52574999I0J-249999D01*
G01*
X133475000Y-53425001D01*
G75*
G02*
X133225001Y-53675000I-249999J0D01*
G01*
X130374999Y-53675000D01*
G75*
G02*
X130125000Y-53425001I0J249999D01*
G01*
X130125000Y-52574999D01*
G75*
G02*
X130374999Y-52325000I249999J0D01*
G01*
G37*
G36*
G01*
X130374999Y-46525000D02*
X133225001Y-46525000D01*
G75*
G02*
X133475000Y-46774999I0J-249999D01*
G01*
X133475000Y-47625001D01*
G75*
G02*
X133225001Y-47875000I-249999J0D01*
G01*
X130374999Y-47875000D01*
G75*
G02*
X130125000Y-47625001I0J249999D01*
G01*
X130125000Y-46774999D01*
G75*
G02*
X130374999Y-46525000I249999J0D01*
G01*
G37*
G36*
G01*
X137425001Y-53675000D02*
X134574999Y-53675000D01*
G75*
G02*
X134325000Y-53425001I0J249999D01*
G01*
X134325000Y-52574999D01*
G75*
G02*
X134574999Y-52325000I249999J0D01*
G01*
X137425001Y-52325000D01*
G75*
G02*
X137675000Y-52574999I0J-249999D01*
G01*
X137675000Y-53425001D01*
G75*
G02*
X137425001Y-53675000I-249999J0D01*
G01*
G37*
G36*
G01*
X137425001Y-47875000D02*
X134574999Y-47875000D01*
G75*
G02*
X134325000Y-47625001I0J249999D01*
G01*
X134325000Y-46774999D01*
G75*
G02*
X134574999Y-46525000I249999J0D01*
G01*
X137425001Y-46525000D01*
G75*
G02*
X137675000Y-46774999I0J-249999D01*
G01*
X137675000Y-47625001D01*
G75*
G02*
X137425001Y-47875000I-249999J0D01*
G01*
G37*
G36*
G01*
X141725001Y-47875000D02*
X138874999Y-47875000D01*
G75*
G02*
X138625000Y-47625001I0J249999D01*
G01*
X138625000Y-46774999D01*
G75*
G02*
X138874999Y-46525000I249999J0D01*
G01*
X141725001Y-46525000D01*
G75*
G02*
X141975000Y-46774999I0J-249999D01*
G01*
X141975000Y-47625001D01*
G75*
G02*
X141725001Y-47875000I-249999J0D01*
G01*
G37*
G36*
G01*
X141725001Y-53675000D02*
X138874999Y-53675000D01*
G75*
G02*
X138625000Y-53425001I0J249999D01*
G01*
X138625000Y-52574999D01*
G75*
G02*
X138874999Y-52325000I249999J0D01*
G01*
X141725001Y-52325000D01*
G75*
G02*
X141975000Y-52574999I0J-249999D01*
G01*
X141975000Y-53425001D01*
G75*
G02*
X141725001Y-53675000I-249999J0D01*
G01*
G37*
G36*
G01*
X124258250Y-63279000D02*
X123345750Y-63279000D01*
G75*
G02*
X123102000Y-63035250I0J243750D01*
G01*
X123102000Y-62547750D01*
G75*
G02*
X123345750Y-62304000I243750J0D01*
G01*
X124258250Y-62304000D01*
G75*
G02*
X124502000Y-62547750I0J-243750D01*
G01*
X124502000Y-63035250D01*
G75*
G02*
X124258250Y-63279000I-243750J0D01*
G01*
G37*
G36*
G01*
X124258250Y-61404000D02*
X123345750Y-61404000D01*
G75*
G02*
X123102000Y-61160250I0J243750D01*
G01*
X123102000Y-60672750D01*
G75*
G02*
X123345750Y-60429000I243750J0D01*
G01*
X124258250Y-60429000D01*
G75*
G02*
X124502000Y-60672750I0J-243750D01*
G01*
X124502000Y-61160250D01*
G75*
G02*
X124258250Y-61404000I-243750J0D01*
G01*
G37*
G36*
G01*
X116358850Y-71356200D02*
X115446350Y-71356200D01*
G75*
G02*
X115202600Y-71112450I0J243750D01*
G01*
X115202600Y-70624950D01*
G75*
G02*
X115446350Y-70381200I243750J0D01*
G01*
X116358850Y-70381200D01*
G75*
G02*
X116602600Y-70624950I0J-243750D01*
G01*
X116602600Y-71112450D01*
G75*
G02*
X116358850Y-71356200I-243750J0D01*
G01*
G37*
G36*
G01*
X116358850Y-69481200D02*
X115446350Y-69481200D01*
G75*
G02*
X115202600Y-69237450I0J243750D01*
G01*
X115202600Y-68749950D01*
G75*
G02*
X115446350Y-68506200I243750J0D01*
G01*
X116358850Y-68506200D01*
G75*
G02*
X116602600Y-68749950I0J-243750D01*
G01*
X116602600Y-69237450D01*
G75*
G02*
X116358850Y-69481200I-243750J0D01*
G01*
G37*
G36*
G01*
X122353250Y-69478900D02*
X121440750Y-69478900D01*
G75*
G02*
X121197000Y-69235150I0J243750D01*
G01*
X121197000Y-68747650D01*
G75*
G02*
X121440750Y-68503900I243750J0D01*
G01*
X122353250Y-68503900D01*
G75*
G02*
X122597000Y-68747650I0J-243750D01*
G01*
X122597000Y-69235150D01*
G75*
G02*
X122353250Y-69478900I-243750J0D01*
G01*
G37*
G36*
G01*
X122353250Y-71353900D02*
X121440750Y-71353900D01*
G75*
G02*
X121197000Y-71110150I0J243750D01*
G01*
X121197000Y-70622650D01*
G75*
G02*
X121440750Y-70378900I243750J0D01*
G01*
X122353250Y-70378900D01*
G75*
G02*
X122597000Y-70622650I0J-243750D01*
G01*
X122597000Y-71110150D01*
G75*
G02*
X122353250Y-71353900I-243750J0D01*
G01*
G37*
G36*
G01*
X120225500Y-68509750D02*
X120225500Y-69422250D01*
G75*
G02*
X119981750Y-69666000I-243750J0D01*
G01*
X119494250Y-69666000D01*
G75*
G02*
X119250500Y-69422250I0J243750D01*
G01*
X119250500Y-68509750D01*
G75*
G02*
X119494250Y-68266000I243750J0D01*
G01*
X119981750Y-68266000D01*
G75*
G02*
X120225500Y-68509750I0J-243750D01*
G01*
G37*
G36*
G01*
X118350500Y-68509750D02*
X118350500Y-69422250D01*
G75*
G02*
X118106750Y-69666000I-243750J0D01*
G01*
X117619250Y-69666000D01*
G75*
G02*
X117375500Y-69422250I0J243750D01*
G01*
X117375500Y-68509750D01*
G75*
G02*
X117619250Y-68266000I243750J0D01*
G01*
X118106750Y-68266000D01*
G75*
G02*
X118350500Y-68509750I0J-243750D01*
G01*
G37*
M02*
