M48
; DRILL file {KiCad (5.1.5)-3} date 02/20/20 16:57:53
; FORMAT={-:-/ absolute / inch / decimal}
; #@! TF.CreationDate,2020-02-20T16:57:53+01:00
; #@! TF.GenerationSoftware,Kicad,Pcbnew,(5.1.5)-3
; #@! TF.FileFunction,Plated,1,4,PTH
FMAT,2
INCH
T1C0.0118
T2C0.0197
T3C0.0315
T4C0.0350
T5C0.0394
T6C0.0433
T7C0.0472
T8C0.0512
T9C0.0791
T10C0.0906
T11C0.1181
T12C0.1299
%
G90
G05
T1
X1.063Y-1.5118
X1.063Y-2.3012
X1.063Y-2.6929
X1.065Y-3.0866
X1.0669Y-1.9075
X3.0984Y-1.5098
X3.0984Y-1.9035
X3.0984Y-2.2972
X3.0984Y-2.689
X3.0984Y-3.0866
X4.3327Y-3.1949
X4.3346Y-2.8799
X4.8937Y-3.2126
X5.1043Y-1.3839
X5.1634Y-1.6378
T2
X0.0551Y-1.498
X0.0551Y-2.1929
X0.0984Y-0.0394
X0.0984Y-3.8976
X0.1969Y-0.0394
X0.1969Y-3.8976
X0.2953Y-0.0394
X0.2953Y-3.8976
X0.3937Y-0.0394
X0.3937Y-3.8976
X0.4843Y-1.498
X0.4862Y-2.1929
X0.4921Y-0.0394
X0.4921Y-3.8976
X0.5906Y-0.0394
X0.5906Y-3.8976
X0.689Y-0.0394
X0.689Y-3.8976
X0.7047Y-1.5118
X0.7047Y-1.9055
X0.7047Y-2.2992
X0.7067Y-2.689
X0.7067Y-3.0866
X0.8858Y-0.0394
X0.8858Y-3.8976
X0.9843Y-0.0394
X0.9843Y-3.8976
X1.0827Y-0.0394
X1.0827Y-3.8976
X1.1811Y-0.0394
X1.1811Y-3.8976
X1.2795Y-0.0394
X1.2795Y-3.8976
X1.378Y-0.0394
X1.378Y-3.8976
X1.4488Y-1.7087
X1.4488Y-2.1063
X1.4528Y-2.4961
X1.4567Y-2.8898
X1.4685Y-3.189
X1.4764Y-0.0394
X1.4764Y-3.8976
X1.5591Y-3.4449
X1.563Y-1.4764
X1.563Y-1.874
X1.563Y-2.2756
X1.563Y-2.6614
X1.5669Y-3.0472
X1.5748Y-0.0394
X1.5748Y-3.8976
X1.6732Y-0.0394
X1.6732Y-3.8976
X1.7717Y-0.0394
X1.7717Y-3.8976
X1.8701Y-0.0394
X1.8701Y-3.8976
X1.9685Y-0.0394
X1.9685Y-3.8976
X2.0669Y-0.0394
X2.0669Y-3.8976
X2.1535Y-1.4764
X2.1535Y-1.8701
X2.1575Y-2.252
X2.1575Y-2.6575
X2.1575Y-3.0472
X2.1575Y-3.4488
X2.1654Y-0.0394
X2.1654Y-3.8976
X2.2638Y-0.0394
X2.2638Y-3.8976
X2.3622Y-0.0394
X2.3622Y-3.8976
X2.4134Y-0.7244
X2.4606Y-0.0394
X2.4606Y-3.8976
X2.5591Y-0.0394
X2.5591Y-3.8976
X2.5906Y-2.0157
X2.5906Y-2.4094
X2.5906Y-2.8031
X2.5906Y-3.1969
X2.5945Y-1.2283
X2.5945Y-1.622
X2.6575Y-0.0394
X2.6575Y-3.8976
X2.7559Y-0.0394
X2.7559Y-3.8976
X2.7677Y-0.7047
X2.8075Y-0.3917
X2.8098Y-1.0031
X2.8543Y-0.0394
X2.8543Y-3.8976
X2.8898Y-3.2717
X2.9016Y-0.7913
X2.9134Y-3.5197
X2.9291Y-0.5512
X2.9528Y-0.0394
X2.9528Y-3.8976
X2.9567Y-1.0945
X3.0512Y-0.0394
X3.0512Y-3.8976
X3.1496Y-0.0394
X3.1496Y-3.8976
X3.1693Y-0.4173
X3.1791Y-0.7087
X3.185Y-0.9961
X3.248Y-0.0394
X3.248Y-3.8976
X3.2756Y-2.8583
X3.3031Y-1.6654
X3.3031Y-2.0669
X3.3031Y-2.4409
X3.311Y-0.563
X3.311Y-0.8386
X3.3465Y-0.0394
X3.3465Y-3.8976
X3.4173Y-2.6772
X3.4449Y-0.0394
X3.4449Y-3.8976
X3.4685Y-0.9449
X3.4685Y-2.9488
X3.4744Y-2.439
X3.498Y-3.2421
X3.5118Y-2.5925
X3.5433Y-0.0394
X3.5433Y-3.8976
X3.5748Y-3.4094
X3.5984Y-1.8228
X3.6417Y-0.0394
X3.6417Y-3.8976
X3.6594Y-2.8189
X3.6969Y-2.5079
X3.7047Y-2.9449
X3.7283Y-2.0906
X3.748Y-2.4843
X3.7874Y-2.4409
X3.9764Y-0.0394
X3.9764Y-3.8976
X4.0764Y-0.0394
X4.0764Y-3.8976
X4.1575Y-3.0197
X4.1764Y-0.0394
X4.1764Y-3.8976
X4.2764Y-0.0394
X4.2764Y-3.8976
X4.3071Y-1.4921
X4.315Y-2.0315
X4.3764Y-0.0394
X4.3764Y-3.8976
X4.3858Y-2.2559
X4.4764Y-0.0394
X4.4764Y-3.8976
X4.5118Y-3.0669
X4.5276Y-1.3268
X4.5591Y-1.1339
X4.5764Y-0.0394
X4.5764Y-3.8976
X4.6063Y-1.4409
X4.6378Y-1.9016
X4.6378Y-2.0512
X4.6437Y-2.8189
X4.6496Y-3.5827
X4.6764Y-0.0394
X4.6764Y-3.8976
X4.7764Y-0.0394
X4.7764Y-3.8976
X4.8764Y-0.0394
X4.8764Y-3.8976
X4.9764Y-0.0394
X4.9764Y-3.8976
X4.9783Y-2.4902
X5.0591Y-1.3524
X5.063Y-0.9449
X5.063Y-1.0827
X5.0764Y-0.0394
X5.0764Y-3.8976
X5.1063Y-3.0787
X5.1764Y-0.0394
X5.1764Y-3.8976
X5.3248Y-0.8917
X5.3346Y-1.7441
X5.3386Y-1.3504
X5.4685Y-2.5118
X5.4764Y-0.0394
X5.4764Y-3.8976
X5.5177Y-0.8937
X5.5764Y-0.0394
X5.5764Y-3.8976
X5.5787Y-1.2835
X5.6102Y-0.8346
X5.6764Y-0.0394
X5.6764Y-3.8976
X5.7717Y-1.1299
X5.7764Y-0.0394
X5.7764Y-3.8976
X5.7795Y-3.4961
X5.7795Y-3.5984
X5.811Y-2.4646
T3
X2.8472Y-2.9866
X2.8472Y-3.1866
X2.9472Y-2.9866
X2.9472Y-3.1866
X3.0472Y-2.9866
X3.0472Y-3.1866
X3.2472Y-2.9866
X3.2472Y-3.1866
X0.9181Y-1.4118
X0.9181Y-1.6118
X1.1181Y-1.4118
X1.1181Y-1.6118
X1.2181Y-1.4118
X1.2181Y-1.6118
X1.3181Y-1.4118
X1.3181Y-1.6118
X0.9142Y-2.9866
X0.9142Y-3.1866
X1.1142Y-2.9866
X1.1142Y-3.1866
X1.2142Y-2.9866
X1.2142Y-3.1866
X1.3142Y-2.9866
X1.3142Y-3.1866
X2.8433Y-2.1992
X2.8433Y-2.3992
X2.9433Y-2.1992
X2.9433Y-2.3992
X3.0433Y-2.1992
X3.0433Y-2.3992
X3.2433Y-2.1992
X3.2433Y-2.3992
X4.2346Y-2.5102
X4.2346Y-2.6102
X4.2346Y-2.7102
X4.2346Y-2.9102
X4.4346Y-2.5102
X4.4346Y-2.6102
X4.4346Y-2.7102
X4.4346Y-2.9102
X4.7425Y-3.174
X4.7425Y-3.374
X4.7425Y-3.474
X4.7425Y-3.574
X4.9425Y-3.174
X4.9425Y-3.374
X4.9425Y-3.474
X4.9425Y-3.574
X2.8433Y-1.8055
X2.8433Y-2.0055
X2.9433Y-1.8055
X2.9433Y-2.0055
X3.0433Y-1.8055
X3.0433Y-2.0055
X3.2433Y-1.8055
X3.2433Y-2.0055
X0.9181Y-2.1992
X0.9181Y-2.3992
X1.1181Y-2.1992
X1.1181Y-2.3992
X1.2181Y-2.1992
X1.2181Y-2.3992
X1.3181Y-2.1992
X1.3181Y-2.3992
X5.6535Y-1.3693
X5.6535Y-1.6693
X2.8433Y-1.4118
X2.8433Y-1.6118
X2.9433Y-1.4118
X2.9433Y-1.6118
X3.0433Y-1.4118
X3.0433Y-1.6118
X3.2433Y-1.4118
X3.2433Y-1.6118
X2.8472Y-2.589
X2.8472Y-2.789
X2.9472Y-2.589
X2.9472Y-2.789
X3.0472Y-2.589
X3.0472Y-2.789
X3.2472Y-2.589
X3.2472Y-2.789
X0.922Y-1.8055
X0.922Y-2.0055
X1.122Y-1.8055
X1.122Y-2.0055
X1.222Y-1.8055
X1.222Y-2.0055
X1.322Y-1.8055
X1.322Y-2.0055
X4.2346Y-3.174
X4.2346Y-3.374
X4.2346Y-3.474
X4.2346Y-3.574
X4.4346Y-3.174
X4.4346Y-3.374
X4.4346Y-3.474
X4.4346Y-3.574
X0.9142Y-2.5929
X0.9142Y-2.7929
X1.1142Y-2.5929
X1.1142Y-2.7929
X1.2142Y-2.5929
X1.2142Y-2.7929
X1.3142Y-2.5929
X1.3142Y-2.7929
T4
X0.8268Y-1.0945
X2.2736Y-1.0945
X3.378Y-0.2677
X3.622Y-2.2717
X4.6535Y-2.7362
X4.6535Y-2.9016
X4.9843Y-0.5276
X4.9843Y-0.5984
X4.9843Y-0.6693
X5.0787Y-0.5276
X5.0787Y-0.5984
X5.0787Y-0.6693
X5.1575Y-3.5827
X5.1811Y-1.0
X5.1969Y-2.5689
X5.3346Y-0.5217
X5.3346Y-0.6102
X5.3346Y-0.6988
X5.4291Y-0.3504
X5.5197Y-0.5197
X5.5984Y-3.5827
X5.6102Y-0.5197
X5.689Y-2.7362
X5.689Y-2.9016
X5.748Y-1.0236
X0.5079Y-0.5827
X0.5079Y-0.6827
T5
X4.9803Y-3.0512
X2.274Y-1.2228
X2.474Y-1.4213
X2.274Y-1.6165
X2.474Y-1.815
X5.7362Y-2.4134
X5.7362Y-2.5118
X1.6874Y-1.6165
X1.8874Y-1.815
X3.8858Y-1.6728
X3.8858Y-1.7728
X3.8858Y-1.8728
X3.8858Y-1.9728
X3.8858Y-2.0728
X3.8858Y-2.1728
X3.8858Y-2.2728
X3.8858Y-2.3728
X3.8858Y-2.4728
X3.8858Y-2.5728
X3.8858Y-2.6728
X3.8858Y-2.7728
X3.8858Y-2.8728
X3.8858Y-2.9728
X3.8858Y-3.0728
X3.8858Y-3.1728
X3.8858Y-3.2728
X3.8858Y-3.3728
X3.8858Y-3.4728
X3.8858Y-3.5728
X0.2591Y-1.5945
X0.2591Y-1.6945
X0.2591Y-1.7945
X0.2591Y-1.8945
X0.2591Y-1.9945
X0.2591Y-2.0945
X3.8858Y-0.3724
X3.8858Y-0.4724
X3.8858Y-0.5724
X1.6874Y-3.1913
X1.8874Y-3.3898
X1.6874Y-2.7976
X1.8874Y-2.9961
X4.8858Y-0.378
X4.8858Y-0.5748
X1.6874Y-2.0102
X1.8874Y-2.2087
X2.274Y-2.7976
X2.474Y-2.9961
X2.274Y-2.4039
X2.474Y-2.6024
X1.6874Y-2.4039
X1.8874Y-2.6024
X2.274Y-2.0102
X2.474Y-2.2087
X2.274Y-3.1913
X2.474Y-3.3898
X1.6874Y-1.2228
X1.8874Y-1.4213
T6
X5.7795Y-1.422
X5.7795Y-1.522
X5.7795Y-1.622
X5.7795Y-1.8472
X5.7795Y-1.9472
X5.7795Y-2.0472
T7
X2.0079Y-0.6654
X2.0079Y-0.9449
X2.063Y-0.5433
X2.3071Y-0.3937
X3.6457Y-0.3937
X3.6457Y-0.5315
X1.2205Y-0.6654
X1.2205Y-0.9449
X1.2756Y-0.5433
X1.5197Y-0.3937
T8
X4.1535Y-0.8504
X4.1535Y-1.0472
T9
X0.3079Y-0.3827
X0.3079Y-0.7827
T10
X0.3937Y-3.4646
T11
X0.2165Y-3.4646
T12
X0.7874Y-3.8189
X3.8583Y-3.8189
X5.315Y-3.8189
X5.3543Y-0.1181
X3.8189Y-0.1181
X0.7874Y-0.1181
T0
M30
