G04 #@! TF.GenerationSoftware,KiCad,Pcbnew,(5.1.5)-3*
G04 #@! TF.CreationDate,2020-02-22T12:29:37+01:00*
G04 #@! TF.ProjectId,HL2_MRF101,484c325f-4d52-4463-9130-312e6b696361,2.0-build8*
G04 #@! TF.SameCoordinates,PX42c1d80PY2625a00*
G04 #@! TF.FileFunction,Legend,Bot*
G04 #@! TF.FilePolarity,Positive*
%FSLAX46Y46*%
G04 Gerber Fmt 4.6, Leading zero omitted, Abs format (unit mm)*
G04 Created by KiCad (PCBNEW (5.1.5)-3) date 2020-02-22 12:29:37*
%MOMM*%
%LPD*%
G04 APERTURE LIST*
%ADD10C,0.150000*%
%ADD11C,0.120000*%
%ADD12C,0.010000*%
%ADD13C,0.100000*%
%ADD14C,0.127000*%
%ADD15C,0.101600*%
G04 APERTURE END LIST*
D10*
X77616785Y-94767857D02*
X77616785Y-93567857D01*
X77216785Y-94425000D01*
X76816785Y-93567857D01*
X76816785Y-94767857D01*
X75559642Y-94767857D02*
X75959642Y-94196428D01*
X76245357Y-94767857D02*
X76245357Y-93567857D01*
X75788214Y-93567857D01*
X75673928Y-93625000D01*
X75616785Y-93682142D01*
X75559642Y-93796428D01*
X75559642Y-93967857D01*
X75616785Y-94082142D01*
X75673928Y-94139285D01*
X75788214Y-94196428D01*
X76245357Y-94196428D01*
X74645357Y-94139285D02*
X75045357Y-94139285D01*
X75045357Y-94767857D02*
X75045357Y-93567857D01*
X74473928Y-93567857D01*
X73388214Y-94767857D02*
X74073928Y-94767857D01*
X73731071Y-94767857D02*
X73731071Y-93567857D01*
X73845357Y-93739285D01*
X73959642Y-93853571D01*
X74073928Y-93910714D01*
X72645357Y-93567857D02*
X72531071Y-93567857D01*
X72416785Y-93625000D01*
X72359642Y-93682142D01*
X72302500Y-93796428D01*
X72245357Y-94025000D01*
X72245357Y-94310714D01*
X72302500Y-94539285D01*
X72359642Y-94653571D01*
X72416785Y-94710714D01*
X72531071Y-94767857D01*
X72645357Y-94767857D01*
X72759642Y-94710714D01*
X72816785Y-94653571D01*
X72873928Y-94539285D01*
X72931071Y-94310714D01*
X72931071Y-94025000D01*
X72873928Y-93796428D01*
X72816785Y-93682142D01*
X72759642Y-93625000D01*
X72645357Y-93567857D01*
X71102500Y-94767857D02*
X71788214Y-94767857D01*
X71445357Y-94767857D02*
X71445357Y-93567857D01*
X71559642Y-93739285D01*
X71673928Y-93853571D01*
X71788214Y-93910714D01*
X69045357Y-94767857D02*
X69731071Y-94767857D01*
X69388214Y-94767857D02*
X69388214Y-93567857D01*
X69502500Y-93739285D01*
X69616785Y-93853571D01*
X69731071Y-93910714D01*
X68302500Y-93567857D02*
X68188214Y-93567857D01*
X68073928Y-93625000D01*
X68016785Y-93682142D01*
X67959642Y-93796428D01*
X67902500Y-94025000D01*
X67902500Y-94310714D01*
X67959642Y-94539285D01*
X68016785Y-94653571D01*
X68073928Y-94710714D01*
X68188214Y-94767857D01*
X68302500Y-94767857D01*
X68416785Y-94710714D01*
X68473928Y-94653571D01*
X68531071Y-94539285D01*
X68588214Y-94310714D01*
X68588214Y-94025000D01*
X68531071Y-93796428D01*
X68473928Y-93682142D01*
X68416785Y-93625000D01*
X68302500Y-93567857D01*
X67159642Y-93567857D02*
X67045357Y-93567857D01*
X66931071Y-93625000D01*
X66873928Y-93682142D01*
X66816785Y-93796428D01*
X66759642Y-94025000D01*
X66759642Y-94310714D01*
X66816785Y-94539285D01*
X66873928Y-94653571D01*
X66931071Y-94710714D01*
X67045357Y-94767857D01*
X67159642Y-94767857D01*
X67273928Y-94710714D01*
X67331071Y-94653571D01*
X67388214Y-94539285D01*
X67445357Y-94310714D01*
X67445357Y-94025000D01*
X67388214Y-93796428D01*
X67331071Y-93682142D01*
X67273928Y-93625000D01*
X67159642Y-93567857D01*
X66359642Y-93567857D02*
X66073928Y-94767857D01*
X65845357Y-93910714D01*
X65616785Y-94767857D01*
X65331071Y-93567857D01*
X63959642Y-94767857D02*
X63959642Y-93567857D01*
X63502500Y-93567857D01*
X63388214Y-93625000D01*
X63331071Y-93682142D01*
X63273928Y-93796428D01*
X63273928Y-93967857D01*
X63331071Y-94082142D01*
X63388214Y-94139285D01*
X63502500Y-94196428D01*
X63959642Y-94196428D01*
X62816785Y-94425000D02*
X62245357Y-94425000D01*
X62931071Y-94767857D02*
X62531071Y-93567857D01*
X62131071Y-94767857D01*
X60988214Y-93967857D02*
X60531071Y-93967857D01*
X60816785Y-94767857D02*
X60816785Y-93739285D01*
X60759642Y-93625000D01*
X60645357Y-93567857D01*
X60531071Y-93567857D01*
X59959642Y-94767857D02*
X60073928Y-94710714D01*
X60131071Y-94653571D01*
X60188214Y-94539285D01*
X60188214Y-94196428D01*
X60131071Y-94082142D01*
X60073928Y-94025000D01*
X59959642Y-93967857D01*
X59788214Y-93967857D01*
X59673928Y-94025000D01*
X59616785Y-94082142D01*
X59559642Y-94196428D01*
X59559642Y-94539285D01*
X59616785Y-94653571D01*
X59673928Y-94710714D01*
X59788214Y-94767857D01*
X59959642Y-94767857D01*
X59045357Y-94767857D02*
X59045357Y-93967857D01*
X59045357Y-94196428D02*
X58988214Y-94082142D01*
X58931071Y-94025000D01*
X58816785Y-93967857D01*
X58702500Y-93967857D01*
X57388214Y-94767857D02*
X57388214Y-93567857D01*
X57388214Y-94139285D02*
X56702500Y-94139285D01*
X56702500Y-94767857D02*
X56702500Y-93567857D01*
X55673928Y-94710714D02*
X55788214Y-94767857D01*
X56016785Y-94767857D01*
X56131071Y-94710714D01*
X56188214Y-94596428D01*
X56188214Y-94139285D01*
X56131071Y-94025000D01*
X56016785Y-93967857D01*
X55788214Y-93967857D01*
X55673928Y-94025000D01*
X55616785Y-94139285D01*
X55616785Y-94253571D01*
X56188214Y-94367857D01*
X55102500Y-94767857D02*
X55102500Y-93967857D01*
X55102500Y-94196428D02*
X55045357Y-94082142D01*
X54988214Y-94025000D01*
X54873928Y-93967857D01*
X54759642Y-93967857D01*
X54359642Y-94767857D02*
X54359642Y-93967857D01*
X54359642Y-94082142D02*
X54302500Y-94025000D01*
X54188214Y-93967857D01*
X54016785Y-93967857D01*
X53902500Y-94025000D01*
X53845357Y-94139285D01*
X53845357Y-94767857D01*
X53845357Y-94139285D02*
X53788214Y-94025000D01*
X53673928Y-93967857D01*
X53502500Y-93967857D01*
X53388214Y-94025000D01*
X53331071Y-94139285D01*
X53331071Y-94767857D01*
X52302500Y-94710714D02*
X52416785Y-94767857D01*
X52645357Y-94767857D01*
X52759642Y-94710714D01*
X52816785Y-94596428D01*
X52816785Y-94139285D01*
X52759642Y-94025000D01*
X52645357Y-93967857D01*
X52416785Y-93967857D01*
X52302500Y-94025000D01*
X52245357Y-94139285D01*
X52245357Y-94253571D01*
X52816785Y-94367857D01*
X51788214Y-94710714D02*
X51673928Y-94767857D01*
X51445357Y-94767857D01*
X51331071Y-94710714D01*
X51273928Y-94596428D01*
X51273928Y-94539285D01*
X51331071Y-94425000D01*
X51445357Y-94367857D01*
X51616785Y-94367857D01*
X51731071Y-94310714D01*
X51788214Y-94196428D01*
X51788214Y-94139285D01*
X51731071Y-94025000D01*
X51616785Y-93967857D01*
X51445357Y-93967857D01*
X51331071Y-94025000D01*
X50759642Y-94310714D02*
X49845357Y-94310714D01*
X48702500Y-94767857D02*
X49273928Y-94767857D01*
X49273928Y-93567857D01*
X48302500Y-94767857D02*
X48302500Y-93967857D01*
X48302500Y-93567857D02*
X48359642Y-93625000D01*
X48302500Y-93682142D01*
X48245357Y-93625000D01*
X48302500Y-93567857D01*
X48302500Y-93682142D01*
X47902500Y-93967857D02*
X47445357Y-93967857D01*
X47731071Y-93567857D02*
X47731071Y-94596428D01*
X47673928Y-94710714D01*
X47559642Y-94767857D01*
X47445357Y-94767857D01*
X46588214Y-94710714D02*
X46702500Y-94767857D01*
X46931071Y-94767857D01*
X47045357Y-94710714D01*
X47102500Y-94596428D01*
X47102500Y-94139285D01*
X47045357Y-94025000D01*
X46931071Y-93967857D01*
X46702500Y-93967857D01*
X46588214Y-94025000D01*
X46531071Y-94139285D01*
X46531071Y-94253571D01*
X47102500Y-94367857D01*
X45159642Y-93682142D02*
X45102500Y-93625000D01*
X44988214Y-93567857D01*
X44702500Y-93567857D01*
X44588214Y-93625000D01*
X44531071Y-93682142D01*
X44473928Y-93796428D01*
X44473928Y-93910714D01*
X44531071Y-94082142D01*
X45216785Y-94767857D01*
X44473928Y-94767857D01*
X43045357Y-94767857D02*
X43045357Y-93967857D01*
X43045357Y-94196428D02*
X42988214Y-94082142D01*
X42931071Y-94025000D01*
X42816785Y-93967857D01*
X42702500Y-93967857D01*
X41845357Y-94710714D02*
X41959642Y-94767857D01*
X42188214Y-94767857D01*
X42302500Y-94710714D01*
X42359642Y-94596428D01*
X42359642Y-94139285D01*
X42302500Y-94025000D01*
X42188214Y-93967857D01*
X41959642Y-93967857D01*
X41845357Y-94025000D01*
X41788214Y-94139285D01*
X41788214Y-94253571D01*
X42359642Y-94367857D01*
X41388214Y-93967857D02*
X41102500Y-94767857D01*
X40816785Y-93967857D01*
X40359642Y-94767857D02*
X40359642Y-93967857D01*
X40359642Y-93567857D02*
X40416785Y-93625000D01*
X40359642Y-93682142D01*
X40302500Y-93625000D01*
X40359642Y-93567857D01*
X40359642Y-93682142D01*
X39845357Y-94710714D02*
X39731071Y-94767857D01*
X39502500Y-94767857D01*
X39388214Y-94710714D01*
X39331071Y-94596428D01*
X39331071Y-94539285D01*
X39388214Y-94425000D01*
X39502500Y-94367857D01*
X39673928Y-94367857D01*
X39788214Y-94310714D01*
X39845357Y-94196428D01*
X39845357Y-94139285D01*
X39788214Y-94025000D01*
X39673928Y-93967857D01*
X39502500Y-93967857D01*
X39388214Y-94025000D01*
X38816785Y-94767857D02*
X38816785Y-93967857D01*
X38816785Y-93567857D02*
X38873928Y-93625000D01*
X38816785Y-93682142D01*
X38759642Y-93625000D01*
X38816785Y-93567857D01*
X38816785Y-93682142D01*
X38073928Y-94767857D02*
X38188214Y-94710714D01*
X38245357Y-94653571D01*
X38302500Y-94539285D01*
X38302500Y-94196428D01*
X38245357Y-94082142D01*
X38188214Y-94025000D01*
X38073928Y-93967857D01*
X37902500Y-93967857D01*
X37788214Y-94025000D01*
X37731071Y-94082142D01*
X37673928Y-94196428D01*
X37673928Y-94539285D01*
X37731071Y-94653571D01*
X37788214Y-94710714D01*
X37902500Y-94767857D01*
X38073928Y-94767857D01*
X37159642Y-93967857D02*
X37159642Y-94767857D01*
X37159642Y-94082142D02*
X37102500Y-94025000D01*
X36988214Y-93967857D01*
X36816785Y-93967857D01*
X36702500Y-94025000D01*
X36645357Y-94139285D01*
X36645357Y-94767857D01*
X34931071Y-93567857D02*
X34816785Y-93567857D01*
X34702500Y-93625000D01*
X34645357Y-93682142D01*
X34588214Y-93796428D01*
X34531071Y-94025000D01*
X34531071Y-94310714D01*
X34588214Y-94539285D01*
X34645357Y-94653571D01*
X34702500Y-94710714D01*
X34816785Y-94767857D01*
X34931071Y-94767857D01*
X35045357Y-94710714D01*
X35102500Y-94653571D01*
X35159642Y-94539285D01*
X35216785Y-94310714D01*
X35216785Y-94025000D01*
X35159642Y-93796428D01*
X35102500Y-93682142D01*
X35045357Y-93625000D01*
X34931071Y-93567857D01*
X34016785Y-94653571D02*
X33959642Y-94710714D01*
X34016785Y-94767857D01*
X34073928Y-94710714D01*
X34016785Y-94653571D01*
X34016785Y-94767857D01*
X33502500Y-93682142D02*
X33445357Y-93625000D01*
X33331071Y-93567857D01*
X33045357Y-93567857D01*
X32931071Y-93625000D01*
X32873928Y-93682142D01*
X32816785Y-93796428D01*
X32816785Y-93910714D01*
X32873928Y-94082142D01*
X33559642Y-94767857D01*
X32816785Y-94767857D01*
X76645357Y-95803571D02*
X76759642Y-95746428D01*
X76988214Y-95746428D01*
X77102500Y-95803571D01*
X77216785Y-95917857D01*
X77273928Y-96032142D01*
X77273928Y-96260714D01*
X77216785Y-96375000D01*
X77102500Y-96489285D01*
X76988214Y-96546428D01*
X76759642Y-96546428D01*
X76645357Y-96489285D01*
X76873928Y-95346428D02*
X77159642Y-95403571D01*
X77445357Y-95575000D01*
X77616785Y-95860714D01*
X77673928Y-96146428D01*
X77616785Y-96432142D01*
X77445357Y-96717857D01*
X77159642Y-96889285D01*
X76873928Y-96946428D01*
X76588214Y-96889285D01*
X76302500Y-96717857D01*
X76131071Y-96432142D01*
X76073928Y-96146428D01*
X76131071Y-95860714D01*
X76302500Y-95575000D01*
X76588214Y-95403571D01*
X76873928Y-95346428D01*
X74702500Y-95632142D02*
X74645357Y-95575000D01*
X74531071Y-95517857D01*
X74245357Y-95517857D01*
X74131071Y-95575000D01*
X74073928Y-95632142D01*
X74016785Y-95746428D01*
X74016785Y-95860714D01*
X74073928Y-96032142D01*
X74759642Y-96717857D01*
X74016785Y-96717857D01*
X73273928Y-95517857D02*
X73159642Y-95517857D01*
X73045357Y-95575000D01*
X72988214Y-95632142D01*
X72931071Y-95746428D01*
X72873928Y-95975000D01*
X72873928Y-96260714D01*
X72931071Y-96489285D01*
X72988214Y-96603571D01*
X73045357Y-96660714D01*
X73159642Y-96717857D01*
X73273928Y-96717857D01*
X73388214Y-96660714D01*
X73445357Y-96603571D01*
X73502500Y-96489285D01*
X73559642Y-96260714D01*
X73559642Y-95975000D01*
X73502500Y-95746428D01*
X73445357Y-95632142D01*
X73388214Y-95575000D01*
X73273928Y-95517857D01*
X72416785Y-95632142D02*
X72359642Y-95575000D01*
X72245357Y-95517857D01*
X71959642Y-95517857D01*
X71845357Y-95575000D01*
X71788214Y-95632142D01*
X71731071Y-95746428D01*
X71731071Y-95860714D01*
X71788214Y-96032142D01*
X72473928Y-96717857D01*
X71731071Y-96717857D01*
X70988214Y-95517857D02*
X70873928Y-95517857D01*
X70759642Y-95575000D01*
X70702500Y-95632142D01*
X70645357Y-95746428D01*
X70588214Y-95975000D01*
X70588214Y-96260714D01*
X70645357Y-96489285D01*
X70702500Y-96603571D01*
X70759642Y-96660714D01*
X70873928Y-96717857D01*
X70988214Y-96717857D01*
X71102500Y-96660714D01*
X71159642Y-96603571D01*
X71216785Y-96489285D01*
X71273928Y-96260714D01*
X71273928Y-95975000D01*
X71216785Y-95746428D01*
X71159642Y-95632142D01*
X71102500Y-95575000D01*
X70988214Y-95517857D01*
X69159642Y-96717857D02*
X69159642Y-95517857D01*
X68873928Y-95517857D01*
X68702500Y-95575000D01*
X68588214Y-95689285D01*
X68531071Y-95803571D01*
X68473928Y-96032142D01*
X68473928Y-96203571D01*
X68531071Y-96432142D01*
X68588214Y-96546428D01*
X68702500Y-96660714D01*
X68873928Y-96717857D01*
X69159642Y-96717857D01*
X67559642Y-96089285D02*
X67388214Y-96146428D01*
X67331071Y-96203571D01*
X67273928Y-96317857D01*
X67273928Y-96489285D01*
X67331071Y-96603571D01*
X67388214Y-96660714D01*
X67502500Y-96717857D01*
X67959642Y-96717857D01*
X67959642Y-95517857D01*
X67559642Y-95517857D01*
X67445357Y-95575000D01*
X67388214Y-95632142D01*
X67331071Y-95746428D01*
X67331071Y-95860714D01*
X67388214Y-95975000D01*
X67445357Y-96032142D01*
X67559642Y-96089285D01*
X67959642Y-96089285D01*
X66702500Y-96717857D02*
X66473928Y-96717857D01*
X66359642Y-96660714D01*
X66302500Y-96603571D01*
X66188214Y-96432142D01*
X66131071Y-96203571D01*
X66131071Y-95746428D01*
X66188214Y-95632142D01*
X66245357Y-95575000D01*
X66359642Y-95517857D01*
X66588214Y-95517857D01*
X66702500Y-95575000D01*
X66759642Y-95632142D01*
X66816785Y-95746428D01*
X66816785Y-96032142D01*
X66759642Y-96146428D01*
X66702500Y-96203571D01*
X66588214Y-96260714D01*
X66359642Y-96260714D01*
X66245357Y-96203571D01*
X66188214Y-96146428D01*
X66131071Y-96032142D01*
X65616785Y-96717857D02*
X65616785Y-95517857D01*
X65216785Y-96375000D01*
X64816785Y-95517857D01*
X64816785Y-96717857D01*
X64302500Y-96375000D02*
X63731071Y-96375000D01*
X64416785Y-96717857D02*
X64016785Y-95517857D01*
X63616785Y-96717857D01*
X63388214Y-95517857D02*
X62702500Y-95517857D01*
X63045357Y-96717857D02*
X63045357Y-95517857D01*
X61388214Y-96260714D02*
X60473928Y-96260714D01*
X58988214Y-96717857D02*
X58988214Y-95517857D01*
X58988214Y-95975000D02*
X58873928Y-95917857D01*
X58645357Y-95917857D01*
X58531071Y-95975000D01*
X58473928Y-96032142D01*
X58416785Y-96146428D01*
X58416785Y-96489285D01*
X58473928Y-96603571D01*
X58531071Y-96660714D01*
X58645357Y-96717857D01*
X58873928Y-96717857D01*
X58988214Y-96660714D01*
X57388214Y-96717857D02*
X57388214Y-96089285D01*
X57445357Y-95975000D01*
X57559642Y-95917857D01*
X57788214Y-95917857D01*
X57902500Y-95975000D01*
X57388214Y-96660714D02*
X57502500Y-96717857D01*
X57788214Y-96717857D01*
X57902500Y-96660714D01*
X57959642Y-96546428D01*
X57959642Y-96432142D01*
X57902500Y-96317857D01*
X57788214Y-96260714D01*
X57502500Y-96260714D01*
X57388214Y-96203571D01*
X56873928Y-96660714D02*
X56759642Y-96717857D01*
X56531071Y-96717857D01*
X56416785Y-96660714D01*
X56359642Y-96546428D01*
X56359642Y-96489285D01*
X56416785Y-96375000D01*
X56531071Y-96317857D01*
X56702500Y-96317857D01*
X56816785Y-96260714D01*
X56873928Y-96146428D01*
X56873928Y-96089285D01*
X56816785Y-95975000D01*
X56702500Y-95917857D01*
X56531071Y-95917857D01*
X56416785Y-95975000D01*
X55388214Y-96660714D02*
X55502500Y-96717857D01*
X55731071Y-96717857D01*
X55845357Y-96660714D01*
X55902500Y-96546428D01*
X55902500Y-96089285D01*
X55845357Y-95975000D01*
X55731071Y-95917857D01*
X55502500Y-95917857D01*
X55388214Y-95975000D01*
X55331071Y-96089285D01*
X55331071Y-96203571D01*
X55902500Y-96317857D01*
X54302500Y-96717857D02*
X54302500Y-95517857D01*
X54302500Y-96660714D02*
X54416785Y-96717857D01*
X54645357Y-96717857D01*
X54759642Y-96660714D01*
X54816785Y-96603571D01*
X54873928Y-96489285D01*
X54873928Y-96146428D01*
X54816785Y-96032142D01*
X54759642Y-95975000D01*
X54645357Y-95917857D01*
X54416785Y-95917857D01*
X54302500Y-95975000D01*
X52645357Y-96717857D02*
X52759642Y-96660714D01*
X52816785Y-96603571D01*
X52873928Y-96489285D01*
X52873928Y-96146428D01*
X52816785Y-96032142D01*
X52759642Y-95975000D01*
X52645357Y-95917857D01*
X52473928Y-95917857D01*
X52359642Y-95975000D01*
X52302500Y-96032142D01*
X52245357Y-96146428D01*
X52245357Y-96489285D01*
X52302500Y-96603571D01*
X52359642Y-96660714D01*
X52473928Y-96717857D01*
X52645357Y-96717857D01*
X51731071Y-95917857D02*
X51731071Y-96717857D01*
X51731071Y-96032142D02*
X51673928Y-95975000D01*
X51559642Y-95917857D01*
X51388214Y-95917857D01*
X51273928Y-95975000D01*
X51216785Y-96089285D01*
X51216785Y-96717857D01*
X49845357Y-95917857D02*
X49616785Y-96717857D01*
X49388214Y-96146428D01*
X49159642Y-96717857D01*
X48931071Y-95917857D01*
X48302500Y-96717857D02*
X48416785Y-96660714D01*
X48473928Y-96603571D01*
X48531071Y-96489285D01*
X48531071Y-96146428D01*
X48473928Y-96032142D01*
X48416785Y-95975000D01*
X48302500Y-95917857D01*
X48131071Y-95917857D01*
X48016785Y-95975000D01*
X47959642Y-96032142D01*
X47902500Y-96146428D01*
X47902500Y-96489285D01*
X47959642Y-96603571D01*
X48016785Y-96660714D01*
X48131071Y-96717857D01*
X48302500Y-96717857D01*
X47388214Y-96717857D02*
X47388214Y-95917857D01*
X47388214Y-96146428D02*
X47331071Y-96032142D01*
X47273928Y-95975000D01*
X47159642Y-95917857D01*
X47045357Y-95917857D01*
X46645357Y-96717857D02*
X46645357Y-95517857D01*
X46531071Y-96260714D02*
X46188214Y-96717857D01*
X46188214Y-95917857D02*
X46645357Y-96375000D01*
X44759642Y-96717857D02*
X44759642Y-95517857D01*
X44759642Y-95975000D02*
X44645357Y-95917857D01*
X44416785Y-95917857D01*
X44302500Y-95975000D01*
X44245357Y-96032142D01*
X44188214Y-96146428D01*
X44188214Y-96489285D01*
X44245357Y-96603571D01*
X44302500Y-96660714D01*
X44416785Y-96717857D01*
X44645357Y-96717857D01*
X44759642Y-96660714D01*
X43788214Y-95917857D02*
X43502500Y-96717857D01*
X43216785Y-95917857D02*
X43502500Y-96717857D01*
X43616785Y-97003571D01*
X43673928Y-97060714D01*
X43788214Y-97117857D01*
X41959642Y-95517857D02*
X41673928Y-96717857D01*
X41445357Y-95860714D01*
X41216785Y-96717857D01*
X40931071Y-95517857D01*
X40531071Y-96375000D02*
X39959642Y-96375000D01*
X40645357Y-96717857D02*
X40245357Y-95517857D01*
X39845357Y-96717857D01*
X39502500Y-95632142D02*
X39445357Y-95575000D01*
X39331071Y-95517857D01*
X39045357Y-95517857D01*
X38931071Y-95575000D01*
X38873928Y-95632142D01*
X38816785Y-95746428D01*
X38816785Y-95860714D01*
X38873928Y-96032142D01*
X39559642Y-96717857D01*
X38816785Y-96717857D01*
X38302500Y-96089285D02*
X37902500Y-96089285D01*
X37731071Y-96717857D02*
X38302500Y-96717857D01*
X38302500Y-95517857D01*
X37731071Y-95517857D01*
X37216785Y-95517857D02*
X37216785Y-96489285D01*
X37159642Y-96603571D01*
X37102500Y-96660714D01*
X36988214Y-96717857D01*
X36759642Y-96717857D01*
X36645357Y-96660714D01*
X36588214Y-96603571D01*
X36531071Y-96489285D01*
X36531071Y-95517857D01*
X35616785Y-95517857D02*
X35616785Y-96375000D01*
X35673928Y-96546428D01*
X35788214Y-96660714D01*
X35959642Y-96717857D01*
X36073928Y-96717857D01*
X33616785Y-96717857D02*
X33616785Y-96089285D01*
X33673928Y-95975000D01*
X33788214Y-95917857D01*
X34016785Y-95917857D01*
X34131071Y-95975000D01*
X33616785Y-96660714D02*
X33731071Y-96717857D01*
X34016785Y-96717857D01*
X34131071Y-96660714D01*
X34188214Y-96546428D01*
X34188214Y-96432142D01*
X34131071Y-96317857D01*
X34016785Y-96260714D01*
X33731071Y-96260714D01*
X33616785Y-96203571D01*
X33045357Y-95917857D02*
X33045357Y-96717857D01*
X33045357Y-96032142D02*
X32988214Y-95975000D01*
X32873928Y-95917857D01*
X32702500Y-95917857D01*
X32588214Y-95975000D01*
X32531071Y-96089285D01*
X32531071Y-96717857D01*
X31445357Y-96717857D02*
X31445357Y-95517857D01*
X31445357Y-96660714D02*
X31559642Y-96717857D01*
X31788214Y-96717857D01*
X31902500Y-96660714D01*
X31959642Y-96603571D01*
X32016785Y-96489285D01*
X32016785Y-96146428D01*
X31959642Y-96032142D01*
X31902500Y-95975000D01*
X31788214Y-95917857D01*
X31559642Y-95917857D01*
X31445357Y-95975000D01*
X29959642Y-96717857D02*
X29959642Y-95517857D01*
X29273928Y-96717857D01*
X29273928Y-95517857D01*
X28759642Y-95632142D02*
X28702500Y-95575000D01*
X28588214Y-95517857D01*
X28302500Y-95517857D01*
X28188214Y-95575000D01*
X28131071Y-95632142D01*
X28073928Y-95746428D01*
X28073928Y-95860714D01*
X28131071Y-96032142D01*
X28816785Y-96717857D01*
X28073928Y-96717857D01*
X27616785Y-96375000D02*
X27045357Y-96375000D01*
X27731071Y-96717857D02*
X27331071Y-95517857D01*
X26931071Y-96717857D01*
X26531071Y-96717857D02*
X26531071Y-95517857D01*
X26245357Y-95517857D01*
X26073928Y-95575000D01*
X25959642Y-95689285D01*
X25902500Y-95803571D01*
X25845357Y-96032142D01*
X25845357Y-96203571D01*
X25902500Y-96432142D01*
X25959642Y-96546428D01*
X26073928Y-96660714D01*
X26245357Y-96717857D01*
X26531071Y-96717857D01*
X24645357Y-96717857D02*
X25045357Y-96146428D01*
X25331071Y-96717857D02*
X25331071Y-95517857D01*
X24873928Y-95517857D01*
X24759642Y-95575000D01*
X24702500Y-95632142D01*
X24645357Y-95746428D01*
X24645357Y-95917857D01*
X24702500Y-96032142D01*
X24759642Y-96089285D01*
X24873928Y-96146428D01*
X25331071Y-96146428D01*
D11*
X2415000Y-66655000D02*
X3875000Y-66655000D01*
X2415000Y-63495000D02*
X4575000Y-63495000D01*
X2415000Y-63495000D02*
X2415000Y-64425000D01*
X2415000Y-66655000D02*
X2415000Y-65725000D01*
X4830000Y-57810000D02*
X4830000Y-56350000D01*
X1670000Y-57810000D02*
X1670000Y-55650000D01*
X1670000Y-57810000D02*
X2600000Y-57810000D01*
X4830000Y-57810000D02*
X3900000Y-57810000D01*
X143900000Y-49413629D02*
X143900000Y-49300000D01*
X145226371Y-50740000D02*
G75*
G03X145226371Y-50740000I-1326371J0D01*
G01*
X139810000Y-56941422D02*
X139810000Y-57458578D01*
X138390000Y-56941422D02*
X138390000Y-57458578D01*
X6580000Y-39170000D02*
X5250000Y-39170000D01*
X5250000Y-39170000D02*
X5250000Y-40500000D01*
X5250000Y-41770000D02*
X5250000Y-54530000D01*
X7910000Y-54530000D02*
X5250000Y-54530000D01*
X7910000Y-41770000D02*
X7910000Y-54530000D01*
X7910000Y-41770000D02*
X5250000Y-41770000D01*
D12*
G36*
X83144186Y-91468931D02*
G01*
X83060365Y-91913555D01*
X82751080Y-92041053D01*
X82441794Y-92168551D01*
X82070754Y-91916246D01*
X81966843Y-91845996D01*
X81872913Y-91783272D01*
X81793348Y-91730938D01*
X81732530Y-91691857D01*
X81694843Y-91668893D01*
X81684579Y-91663942D01*
X81666090Y-91676676D01*
X81626580Y-91711882D01*
X81570478Y-91765062D01*
X81502213Y-91831718D01*
X81426214Y-91907354D01*
X81346908Y-91987472D01*
X81268725Y-92067574D01*
X81196093Y-92143164D01*
X81133441Y-92209745D01*
X81085197Y-92262818D01*
X81055790Y-92297887D01*
X81048759Y-92309623D01*
X81058877Y-92331260D01*
X81087241Y-92378662D01*
X81130871Y-92447193D01*
X81186782Y-92532215D01*
X81251994Y-92629093D01*
X81289781Y-92684350D01*
X81358657Y-92785248D01*
X81419860Y-92876299D01*
X81470422Y-92952970D01*
X81507372Y-93010728D01*
X81527742Y-93045043D01*
X81530803Y-93052254D01*
X81523864Y-93072748D01*
X81504949Y-93120513D01*
X81476913Y-93188832D01*
X81442609Y-93270989D01*
X81404891Y-93360270D01*
X81366613Y-93449958D01*
X81330630Y-93533338D01*
X81299794Y-93603694D01*
X81276961Y-93654310D01*
X81264983Y-93678471D01*
X81264276Y-93679422D01*
X81245469Y-93684036D01*
X81195382Y-93694328D01*
X81119207Y-93709287D01*
X81022135Y-93727901D01*
X80909357Y-93749159D01*
X80843558Y-93761418D01*
X80723050Y-93784362D01*
X80614203Y-93806195D01*
X80522524Y-93825722D01*
X80453519Y-93841748D01*
X80412696Y-93853079D01*
X80404489Y-93856674D01*
X80396452Y-93881006D01*
X80389967Y-93935959D01*
X80385030Y-94015108D01*
X80381636Y-94112026D01*
X80379782Y-94220287D01*
X80379462Y-94333465D01*
X80380673Y-94445135D01*
X80383410Y-94548868D01*
X80387669Y-94638241D01*
X80393445Y-94706826D01*
X80400733Y-94748197D01*
X80405105Y-94756810D01*
X80431236Y-94767133D01*
X80486607Y-94781892D01*
X80563893Y-94799352D01*
X80655770Y-94817780D01*
X80687842Y-94823741D01*
X80842476Y-94852066D01*
X80964625Y-94874876D01*
X81058327Y-94893080D01*
X81127616Y-94907583D01*
X81176529Y-94919292D01*
X81209103Y-94929115D01*
X81229372Y-94937956D01*
X81241374Y-94946724D01*
X81243053Y-94948457D01*
X81259816Y-94976371D01*
X81285386Y-95030695D01*
X81317212Y-95104777D01*
X81352740Y-95191965D01*
X81389417Y-95285608D01*
X81424689Y-95379052D01*
X81456004Y-95465647D01*
X81480807Y-95538740D01*
X81496546Y-95591678D01*
X81500668Y-95617811D01*
X81500324Y-95618726D01*
X81486359Y-95640086D01*
X81454678Y-95687084D01*
X81408609Y-95754827D01*
X81351482Y-95838423D01*
X81286627Y-95932982D01*
X81268157Y-95959854D01*
X81202301Y-96057275D01*
X81144350Y-96146163D01*
X81097462Y-96221412D01*
X81064793Y-96277920D01*
X81049500Y-96310581D01*
X81048759Y-96314593D01*
X81061608Y-96335684D01*
X81097112Y-96377464D01*
X81150707Y-96435445D01*
X81217829Y-96505135D01*
X81293913Y-96582045D01*
X81374396Y-96661683D01*
X81454713Y-96739561D01*
X81530301Y-96811186D01*
X81596595Y-96872070D01*
X81649031Y-96917721D01*
X81683045Y-96943650D01*
X81692455Y-96947883D01*
X81714357Y-96937912D01*
X81759200Y-96911020D01*
X81819679Y-96871736D01*
X81866211Y-96840117D01*
X81950525Y-96782098D01*
X82050374Y-96713784D01*
X82150527Y-96645579D01*
X82204373Y-96609075D01*
X82386629Y-96485800D01*
X82539619Y-96568520D01*
X82609318Y-96604759D01*
X82668586Y-96632926D01*
X82708689Y-96648991D01*
X82718897Y-96651226D01*
X82731171Y-96634722D01*
X82755387Y-96588082D01*
X82789737Y-96515609D01*
X82832412Y-96421606D01*
X82881606Y-96310374D01*
X82935510Y-96186215D01*
X82992316Y-96053432D01*
X83050218Y-95916327D01*
X83107407Y-95779202D01*
X83162076Y-95646358D01*
X83212416Y-95522098D01*
X83256620Y-95410725D01*
X83292881Y-95316539D01*
X83319391Y-95243844D01*
X83334342Y-95196941D01*
X83336746Y-95180833D01*
X83317689Y-95160286D01*
X83275964Y-95126933D01*
X83220294Y-95087702D01*
X83215622Y-95084599D01*
X83071736Y-94969423D01*
X82955717Y-94835053D01*
X82868570Y-94685784D01*
X82811301Y-94525913D01*
X82784914Y-94359737D01*
X82790415Y-94191552D01*
X82828810Y-94025655D01*
X82901105Y-93866342D01*
X82922374Y-93831487D01*
X83033004Y-93690737D01*
X83163698Y-93577714D01*
X83309936Y-93493003D01*
X83467192Y-93437194D01*
X83630943Y-93410874D01*
X83796667Y-93414630D01*
X83959838Y-93449050D01*
X84115935Y-93514723D01*
X84260433Y-93612235D01*
X84305131Y-93651813D01*
X84418888Y-93775703D01*
X84501782Y-93906124D01*
X84558644Y-94052315D01*
X84590313Y-94197088D01*
X84598131Y-94359860D01*
X84572062Y-94523440D01*
X84514755Y-94682298D01*
X84428856Y-94830906D01*
X84317014Y-94963735D01*
X84181877Y-95075256D01*
X84164117Y-95087011D01*
X84107850Y-95125508D01*
X84065077Y-95158863D01*
X84044628Y-95180160D01*
X84044331Y-95180833D01*
X84048721Y-95203871D01*
X84066124Y-95256157D01*
X84094732Y-95333390D01*
X84132735Y-95431268D01*
X84178326Y-95545491D01*
X84229697Y-95671758D01*
X84285038Y-95805767D01*
X84342542Y-95943218D01*
X84400399Y-96079808D01*
X84456802Y-96211237D01*
X84509942Y-96333205D01*
X84558010Y-96441409D01*
X84599199Y-96531549D01*
X84631699Y-96599323D01*
X84653703Y-96640430D01*
X84662564Y-96651226D01*
X84689640Y-96642819D01*
X84740303Y-96620272D01*
X84805817Y-96587613D01*
X84841841Y-96568520D01*
X84994832Y-96485800D01*
X85177088Y-96609075D01*
X85270125Y-96672228D01*
X85371985Y-96741727D01*
X85467438Y-96807165D01*
X85515250Y-96840117D01*
X85582495Y-96885273D01*
X85639436Y-96921057D01*
X85678646Y-96942938D01*
X85691381Y-96947563D01*
X85709917Y-96935085D01*
X85750941Y-96900252D01*
X85810475Y-96846678D01*
X85884542Y-96777983D01*
X85969165Y-96697781D01*
X86022685Y-96646286D01*
X86116319Y-96554286D01*
X86197241Y-96471999D01*
X86262177Y-96402945D01*
X86307858Y-96350644D01*
X86331011Y-96318616D01*
X86333232Y-96312116D01*
X86322924Y-96287394D01*
X86294439Y-96237405D01*
X86250937Y-96167212D01*
X86195577Y-96081875D01*
X86131520Y-95986456D01*
X86113303Y-95959854D01*
X86046927Y-95863167D01*
X85987378Y-95776117D01*
X85937984Y-95703595D01*
X85902075Y-95650493D01*
X85882981Y-95621703D01*
X85881136Y-95618726D01*
X85883895Y-95595782D01*
X85898538Y-95545336D01*
X85922513Y-95474041D01*
X85953266Y-95388547D01*
X85988244Y-95295507D01*
X86024893Y-95201574D01*
X86060661Y-95113399D01*
X86092994Y-95037634D01*
X86119338Y-94980931D01*
X86137142Y-94949943D01*
X86138407Y-94948457D01*
X86149294Y-94939601D01*
X86167682Y-94930843D01*
X86197606Y-94921277D01*
X86243103Y-94909996D01*
X86308209Y-94896093D01*
X86396961Y-94878663D01*
X86513393Y-94856798D01*
X86661542Y-94829591D01*
X86693618Y-94823741D01*
X86788686Y-94805374D01*
X86871565Y-94787405D01*
X86934930Y-94771569D01*
X86971458Y-94759600D01*
X86976356Y-94756810D01*
X86984427Y-94732072D01*
X86990987Y-94676790D01*
X86996033Y-94597389D01*
X86999559Y-94500296D01*
X87001561Y-94391938D01*
X87002036Y-94278740D01*
X87000977Y-94167128D01*
X86998382Y-94063529D01*
X86994246Y-93974368D01*
X86988563Y-93906072D01*
X86981331Y-93865066D01*
X86976971Y-93856674D01*
X86952698Y-93848208D01*
X86897426Y-93834435D01*
X86816662Y-93816550D01*
X86715912Y-93795748D01*
X86600683Y-93773223D01*
X86537902Y-93761418D01*
X86418787Y-93739151D01*
X86312565Y-93718979D01*
X86224427Y-93701915D01*
X86159566Y-93688969D01*
X86123174Y-93681155D01*
X86117184Y-93679422D01*
X86107061Y-93659890D01*
X86085662Y-93612843D01*
X86055839Y-93545003D01*
X86020445Y-93463091D01*
X85982332Y-93373828D01*
X85944353Y-93283935D01*
X85909360Y-93200135D01*
X85880206Y-93129147D01*
X85859743Y-93077694D01*
X85850823Y-93052497D01*
X85850657Y-93051396D01*
X85860769Y-93031519D01*
X85889117Y-92985777D01*
X85932723Y-92918717D01*
X85988606Y-92834884D01*
X86053787Y-92738826D01*
X86091679Y-92683650D01*
X86160725Y-92582481D01*
X86222050Y-92490630D01*
X86272663Y-92412744D01*
X86309571Y-92353469D01*
X86329782Y-92317451D01*
X86332701Y-92309377D01*
X86320153Y-92290584D01*
X86285463Y-92250457D01*
X86233063Y-92193493D01*
X86167384Y-92124185D01*
X86092856Y-92047031D01*
X86013913Y-91966525D01*
X85934983Y-91887163D01*
X85860500Y-91813440D01*
X85794894Y-91749852D01*
X85742596Y-91700894D01*
X85708039Y-91671061D01*
X85696478Y-91663942D01*
X85677654Y-91673953D01*
X85632631Y-91702078D01*
X85565787Y-91745454D01*
X85481499Y-91801218D01*
X85384144Y-91866506D01*
X85310707Y-91916246D01*
X84939667Y-92168551D01*
X84321095Y-91913555D01*
X84237275Y-91468931D01*
X84153454Y-91024307D01*
X83228006Y-91024307D01*
X83144186Y-91468931D01*
G37*
X83144186Y-91468931D02*
X83060365Y-91913555D01*
X82751080Y-92041053D01*
X82441794Y-92168551D01*
X82070754Y-91916246D01*
X81966843Y-91845996D01*
X81872913Y-91783272D01*
X81793348Y-91730938D01*
X81732530Y-91691857D01*
X81694843Y-91668893D01*
X81684579Y-91663942D01*
X81666090Y-91676676D01*
X81626580Y-91711882D01*
X81570478Y-91765062D01*
X81502213Y-91831718D01*
X81426214Y-91907354D01*
X81346908Y-91987472D01*
X81268725Y-92067574D01*
X81196093Y-92143164D01*
X81133441Y-92209745D01*
X81085197Y-92262818D01*
X81055790Y-92297887D01*
X81048759Y-92309623D01*
X81058877Y-92331260D01*
X81087241Y-92378662D01*
X81130871Y-92447193D01*
X81186782Y-92532215D01*
X81251994Y-92629093D01*
X81289781Y-92684350D01*
X81358657Y-92785248D01*
X81419860Y-92876299D01*
X81470422Y-92952970D01*
X81507372Y-93010728D01*
X81527742Y-93045043D01*
X81530803Y-93052254D01*
X81523864Y-93072748D01*
X81504949Y-93120513D01*
X81476913Y-93188832D01*
X81442609Y-93270989D01*
X81404891Y-93360270D01*
X81366613Y-93449958D01*
X81330630Y-93533338D01*
X81299794Y-93603694D01*
X81276961Y-93654310D01*
X81264983Y-93678471D01*
X81264276Y-93679422D01*
X81245469Y-93684036D01*
X81195382Y-93694328D01*
X81119207Y-93709287D01*
X81022135Y-93727901D01*
X80909357Y-93749159D01*
X80843558Y-93761418D01*
X80723050Y-93784362D01*
X80614203Y-93806195D01*
X80522524Y-93825722D01*
X80453519Y-93841748D01*
X80412696Y-93853079D01*
X80404489Y-93856674D01*
X80396452Y-93881006D01*
X80389967Y-93935959D01*
X80385030Y-94015108D01*
X80381636Y-94112026D01*
X80379782Y-94220287D01*
X80379462Y-94333465D01*
X80380673Y-94445135D01*
X80383410Y-94548868D01*
X80387669Y-94638241D01*
X80393445Y-94706826D01*
X80400733Y-94748197D01*
X80405105Y-94756810D01*
X80431236Y-94767133D01*
X80486607Y-94781892D01*
X80563893Y-94799352D01*
X80655770Y-94817780D01*
X80687842Y-94823741D01*
X80842476Y-94852066D01*
X80964625Y-94874876D01*
X81058327Y-94893080D01*
X81127616Y-94907583D01*
X81176529Y-94919292D01*
X81209103Y-94929115D01*
X81229372Y-94937956D01*
X81241374Y-94946724D01*
X81243053Y-94948457D01*
X81259816Y-94976371D01*
X81285386Y-95030695D01*
X81317212Y-95104777D01*
X81352740Y-95191965D01*
X81389417Y-95285608D01*
X81424689Y-95379052D01*
X81456004Y-95465647D01*
X81480807Y-95538740D01*
X81496546Y-95591678D01*
X81500668Y-95617811D01*
X81500324Y-95618726D01*
X81486359Y-95640086D01*
X81454678Y-95687084D01*
X81408609Y-95754827D01*
X81351482Y-95838423D01*
X81286627Y-95932982D01*
X81268157Y-95959854D01*
X81202301Y-96057275D01*
X81144350Y-96146163D01*
X81097462Y-96221412D01*
X81064793Y-96277920D01*
X81049500Y-96310581D01*
X81048759Y-96314593D01*
X81061608Y-96335684D01*
X81097112Y-96377464D01*
X81150707Y-96435445D01*
X81217829Y-96505135D01*
X81293913Y-96582045D01*
X81374396Y-96661683D01*
X81454713Y-96739561D01*
X81530301Y-96811186D01*
X81596595Y-96872070D01*
X81649031Y-96917721D01*
X81683045Y-96943650D01*
X81692455Y-96947883D01*
X81714357Y-96937912D01*
X81759200Y-96911020D01*
X81819679Y-96871736D01*
X81866211Y-96840117D01*
X81950525Y-96782098D01*
X82050374Y-96713784D01*
X82150527Y-96645579D01*
X82204373Y-96609075D01*
X82386629Y-96485800D01*
X82539619Y-96568520D01*
X82609318Y-96604759D01*
X82668586Y-96632926D01*
X82708689Y-96648991D01*
X82718897Y-96651226D01*
X82731171Y-96634722D01*
X82755387Y-96588082D01*
X82789737Y-96515609D01*
X82832412Y-96421606D01*
X82881606Y-96310374D01*
X82935510Y-96186215D01*
X82992316Y-96053432D01*
X83050218Y-95916327D01*
X83107407Y-95779202D01*
X83162076Y-95646358D01*
X83212416Y-95522098D01*
X83256620Y-95410725D01*
X83292881Y-95316539D01*
X83319391Y-95243844D01*
X83334342Y-95196941D01*
X83336746Y-95180833D01*
X83317689Y-95160286D01*
X83275964Y-95126933D01*
X83220294Y-95087702D01*
X83215622Y-95084599D01*
X83071736Y-94969423D01*
X82955717Y-94835053D01*
X82868570Y-94685784D01*
X82811301Y-94525913D01*
X82784914Y-94359737D01*
X82790415Y-94191552D01*
X82828810Y-94025655D01*
X82901105Y-93866342D01*
X82922374Y-93831487D01*
X83033004Y-93690737D01*
X83163698Y-93577714D01*
X83309936Y-93493003D01*
X83467192Y-93437194D01*
X83630943Y-93410874D01*
X83796667Y-93414630D01*
X83959838Y-93449050D01*
X84115935Y-93514723D01*
X84260433Y-93612235D01*
X84305131Y-93651813D01*
X84418888Y-93775703D01*
X84501782Y-93906124D01*
X84558644Y-94052315D01*
X84590313Y-94197088D01*
X84598131Y-94359860D01*
X84572062Y-94523440D01*
X84514755Y-94682298D01*
X84428856Y-94830906D01*
X84317014Y-94963735D01*
X84181877Y-95075256D01*
X84164117Y-95087011D01*
X84107850Y-95125508D01*
X84065077Y-95158863D01*
X84044628Y-95180160D01*
X84044331Y-95180833D01*
X84048721Y-95203871D01*
X84066124Y-95256157D01*
X84094732Y-95333390D01*
X84132735Y-95431268D01*
X84178326Y-95545491D01*
X84229697Y-95671758D01*
X84285038Y-95805767D01*
X84342542Y-95943218D01*
X84400399Y-96079808D01*
X84456802Y-96211237D01*
X84509942Y-96333205D01*
X84558010Y-96441409D01*
X84599199Y-96531549D01*
X84631699Y-96599323D01*
X84653703Y-96640430D01*
X84662564Y-96651226D01*
X84689640Y-96642819D01*
X84740303Y-96620272D01*
X84805817Y-96587613D01*
X84841841Y-96568520D01*
X84994832Y-96485800D01*
X85177088Y-96609075D01*
X85270125Y-96672228D01*
X85371985Y-96741727D01*
X85467438Y-96807165D01*
X85515250Y-96840117D01*
X85582495Y-96885273D01*
X85639436Y-96921057D01*
X85678646Y-96942938D01*
X85691381Y-96947563D01*
X85709917Y-96935085D01*
X85750941Y-96900252D01*
X85810475Y-96846678D01*
X85884542Y-96777983D01*
X85969165Y-96697781D01*
X86022685Y-96646286D01*
X86116319Y-96554286D01*
X86197241Y-96471999D01*
X86262177Y-96402945D01*
X86307858Y-96350644D01*
X86331011Y-96318616D01*
X86333232Y-96312116D01*
X86322924Y-96287394D01*
X86294439Y-96237405D01*
X86250937Y-96167212D01*
X86195577Y-96081875D01*
X86131520Y-95986456D01*
X86113303Y-95959854D01*
X86046927Y-95863167D01*
X85987378Y-95776117D01*
X85937984Y-95703595D01*
X85902075Y-95650493D01*
X85882981Y-95621703D01*
X85881136Y-95618726D01*
X85883895Y-95595782D01*
X85898538Y-95545336D01*
X85922513Y-95474041D01*
X85953266Y-95388547D01*
X85988244Y-95295507D01*
X86024893Y-95201574D01*
X86060661Y-95113399D01*
X86092994Y-95037634D01*
X86119338Y-94980931D01*
X86137142Y-94949943D01*
X86138407Y-94948457D01*
X86149294Y-94939601D01*
X86167682Y-94930843D01*
X86197606Y-94921277D01*
X86243103Y-94909996D01*
X86308209Y-94896093D01*
X86396961Y-94878663D01*
X86513393Y-94856798D01*
X86661542Y-94829591D01*
X86693618Y-94823741D01*
X86788686Y-94805374D01*
X86871565Y-94787405D01*
X86934930Y-94771569D01*
X86971458Y-94759600D01*
X86976356Y-94756810D01*
X86984427Y-94732072D01*
X86990987Y-94676790D01*
X86996033Y-94597389D01*
X86999559Y-94500296D01*
X87001561Y-94391938D01*
X87002036Y-94278740D01*
X87000977Y-94167128D01*
X86998382Y-94063529D01*
X86994246Y-93974368D01*
X86988563Y-93906072D01*
X86981331Y-93865066D01*
X86976971Y-93856674D01*
X86952698Y-93848208D01*
X86897426Y-93834435D01*
X86816662Y-93816550D01*
X86715912Y-93795748D01*
X86600683Y-93773223D01*
X86537902Y-93761418D01*
X86418787Y-93739151D01*
X86312565Y-93718979D01*
X86224427Y-93701915D01*
X86159566Y-93688969D01*
X86123174Y-93681155D01*
X86117184Y-93679422D01*
X86107061Y-93659890D01*
X86085662Y-93612843D01*
X86055839Y-93545003D01*
X86020445Y-93463091D01*
X85982332Y-93373828D01*
X85944353Y-93283935D01*
X85909360Y-93200135D01*
X85880206Y-93129147D01*
X85859743Y-93077694D01*
X85850823Y-93052497D01*
X85850657Y-93051396D01*
X85860769Y-93031519D01*
X85889117Y-92985777D01*
X85932723Y-92918717D01*
X85988606Y-92834884D01*
X86053787Y-92738826D01*
X86091679Y-92683650D01*
X86160725Y-92582481D01*
X86222050Y-92490630D01*
X86272663Y-92412744D01*
X86309571Y-92353469D01*
X86329782Y-92317451D01*
X86332701Y-92309377D01*
X86320153Y-92290584D01*
X86285463Y-92250457D01*
X86233063Y-92193493D01*
X86167384Y-92124185D01*
X86092856Y-92047031D01*
X86013913Y-91966525D01*
X85934983Y-91887163D01*
X85860500Y-91813440D01*
X85794894Y-91749852D01*
X85742596Y-91700894D01*
X85708039Y-91671061D01*
X85696478Y-91663942D01*
X85677654Y-91673953D01*
X85632631Y-91702078D01*
X85565787Y-91745454D01*
X85481499Y-91801218D01*
X85384144Y-91866506D01*
X85310707Y-91916246D01*
X84939667Y-92168551D01*
X84321095Y-91913555D01*
X84237275Y-91468931D01*
X84153454Y-91024307D01*
X83228006Y-91024307D01*
X83144186Y-91468931D01*
D13*
X120200000Y-27125000D02*
G75*
G03X120200000Y-27125000I-300000J0D01*
G01*
X117400000Y-27425000D02*
X117400000Y-30625000D01*
X117400000Y-30625000D02*
X120000000Y-30625000D01*
X120000000Y-30625000D02*
X120000000Y-27425000D01*
X120000000Y-27425000D02*
X117400000Y-27425000D01*
D11*
X131600000Y-55010000D02*
X128675000Y-55010000D01*
X131600000Y-55010000D02*
X133100000Y-55010000D01*
X131600000Y-51790000D02*
X130100000Y-51790000D01*
X131600000Y-51790000D02*
X133100000Y-51790000D01*
X129800000Y-26160000D02*
X127350000Y-26160000D01*
X128000000Y-22940000D02*
X129800000Y-22940000D01*
X127090000Y-19008578D02*
X127090000Y-18491422D01*
X128510000Y-19008578D02*
X128510000Y-18491422D01*
X129390000Y-19008578D02*
X129390000Y-18491422D01*
X130810000Y-19008578D02*
X130810000Y-18491422D01*
X129132983Y-16410000D02*
X128767017Y-16410000D01*
X129132983Y-12990000D02*
X128767017Y-12990000D01*
X117210000Y-24241422D02*
X117210000Y-24758578D01*
X115790000Y-24241422D02*
X115790000Y-24758578D01*
X121710000Y-24241422D02*
X121710000Y-24758578D01*
X120290000Y-24241422D02*
X120290000Y-24758578D01*
X123910000Y-24241422D02*
X123910000Y-24758578D01*
X122490000Y-24241422D02*
X122490000Y-24758578D01*
X130810000Y-28441422D02*
X130810000Y-28958578D01*
X129390000Y-28441422D02*
X129390000Y-28958578D01*
X134410000Y-56941422D02*
X134410000Y-57458578D01*
X132990000Y-56941422D02*
X132990000Y-57458578D01*
X128641422Y-20690000D02*
X129158578Y-20690000D01*
X128641422Y-22110000D02*
X129158578Y-22110000D01*
X118090000Y-24758578D02*
X118090000Y-24241422D01*
X119510000Y-24758578D02*
X119510000Y-24241422D01*
X89458578Y-61010000D02*
X88941422Y-61010000D01*
X89458578Y-59590000D02*
X88941422Y-59590000D01*
X128610000Y-28441422D02*
X128610000Y-28958578D01*
X127190000Y-28441422D02*
X127190000Y-28958578D01*
X132210000Y-56941422D02*
X132210000Y-57458578D01*
X130790000Y-56941422D02*
X130790000Y-57458578D01*
X75910000Y-24841422D02*
X75910000Y-25358578D01*
X74490000Y-24841422D02*
X74490000Y-25358578D01*
X98700000Y-92080000D02*
X100030000Y-92080000D01*
X100030000Y-92080000D02*
X100030000Y-90750000D01*
X100030000Y-89480000D02*
X100030000Y-41160000D01*
X97370000Y-41160000D02*
X100030000Y-41160000D01*
X97370000Y-89480000D02*
X97370000Y-41160000D01*
X97370000Y-89480000D02*
X100030000Y-89480000D01*
X73310000Y-23396078D02*
X73310000Y-22878922D01*
X71890000Y-23396078D02*
X71890000Y-22878922D01*
X68610000Y-22647936D02*
X68610000Y-26752064D01*
X65190000Y-22647936D02*
X65190000Y-26752064D01*
X61190000Y-26752064D02*
X61190000Y-22647936D01*
X64610000Y-26752064D02*
X64610000Y-22647936D01*
X65190000Y-12952064D02*
X65190000Y-8847936D01*
X68610000Y-12952064D02*
X68610000Y-8847936D01*
X64610000Y-8847936D02*
X64610000Y-12952064D01*
X61190000Y-8847936D02*
X61190000Y-12952064D01*
X135190000Y-57458578D02*
X135190000Y-56941422D01*
X136610000Y-57458578D02*
X136610000Y-56941422D01*
D14*
X114700520Y-4800520D02*
X126699480Y-4800520D01*
X126699480Y-16799480D02*
X114700520Y-16799480D01*
X114700520Y-13799740D02*
X114700520Y-16799480D01*
X126699480Y-13799740D02*
X126699480Y-16799480D01*
X126699480Y-7800260D02*
X126699480Y-4800520D01*
X114700520Y-7800260D02*
X114700520Y-4800520D01*
G36*
X117451340Y-16548020D02*
G01*
X123948660Y-16548020D01*
X123948660Y-5051980D01*
X117451340Y-5051980D01*
X117451340Y-16548020D01*
G37*
X117451340Y-16548020D02*
X123948660Y-16548020D01*
X123948660Y-5051980D01*
X117451340Y-5051980D01*
X117451340Y-16548020D01*
D11*
X80710000Y-40641422D02*
X80710000Y-41158578D01*
X79290000Y-40641422D02*
X79290000Y-41158578D01*
X79290000Y-51203922D02*
X79290000Y-51721078D01*
X80710000Y-51203922D02*
X80710000Y-51721078D01*
X79290000Y-61803922D02*
X79290000Y-62321078D01*
X80710000Y-61803922D02*
X80710000Y-62321078D01*
X79290000Y-72241422D02*
X79290000Y-72758578D01*
X80710000Y-72241422D02*
X80710000Y-72758578D01*
X80710000Y-82903922D02*
X80710000Y-83421078D01*
X79290000Y-82903922D02*
X79290000Y-83421078D01*
X64990000Y-33597936D02*
X64990000Y-34802064D01*
X66810000Y-33597936D02*
X66810000Y-34802064D01*
X66810000Y-44197936D02*
X66810000Y-45402064D01*
X64990000Y-44197936D02*
X64990000Y-45402064D01*
X66710000Y-54797936D02*
X66710000Y-56002064D01*
X64890000Y-54797936D02*
X64890000Y-56002064D01*
X66710000Y-65397936D02*
X66710000Y-66602064D01*
X64890000Y-65397936D02*
X64890000Y-66602064D01*
X64890000Y-75997936D02*
X64890000Y-77202064D01*
X66710000Y-75997936D02*
X66710000Y-77202064D01*
X64890000Y-86597936D02*
X64890000Y-87802064D01*
X66710000Y-86597936D02*
X66710000Y-87802064D01*
X62102064Y-34010000D02*
X60897936Y-34010000D01*
X62102064Y-32190000D02*
X60897936Y-32190000D01*
X62102064Y-42790000D02*
X60897936Y-42790000D01*
X62102064Y-44610000D02*
X60897936Y-44610000D01*
X62002064Y-53390000D02*
X60797936Y-53390000D01*
X62002064Y-55210000D02*
X60797936Y-55210000D01*
X62002064Y-63990000D02*
X60797936Y-63990000D01*
X62002064Y-65810000D02*
X60797936Y-65810000D01*
X62002064Y-76410000D02*
X60797936Y-76410000D01*
X62002064Y-74590000D02*
X60797936Y-74590000D01*
X62102064Y-87010000D02*
X60897936Y-87010000D01*
X62102064Y-85190000D02*
X60897936Y-85190000D01*
X69390000Y-23396078D02*
X69390000Y-22878922D01*
X70810000Y-23396078D02*
X70810000Y-22878922D01*
X53790000Y-34802064D02*
X53790000Y-33597936D01*
X55610000Y-34802064D02*
X55610000Y-33597936D01*
X55610000Y-45402064D02*
X55610000Y-44197936D01*
X53790000Y-45402064D02*
X53790000Y-44197936D01*
X55710000Y-56002064D02*
X55710000Y-54797936D01*
X53890000Y-56002064D02*
X53890000Y-54797936D01*
X53890000Y-66602064D02*
X53890000Y-65397936D01*
X55710000Y-66602064D02*
X55710000Y-65397936D01*
X53890000Y-77102064D02*
X53890000Y-75897936D01*
X55710000Y-77102064D02*
X55710000Y-75897936D01*
X53890000Y-87802064D02*
X53890000Y-86597936D01*
X55710000Y-87802064D02*
X55710000Y-86597936D01*
X46302064Y-32190000D02*
X45097936Y-32190000D01*
X46302064Y-34010000D02*
X45097936Y-34010000D01*
X46302064Y-42790000D02*
X45097936Y-42790000D01*
X46302064Y-44610000D02*
X45097936Y-44610000D01*
X46202064Y-55210000D02*
X44997936Y-55210000D01*
X46202064Y-53390000D02*
X44997936Y-53390000D01*
X46302064Y-63990000D02*
X45097936Y-63990000D01*
X46302064Y-65810000D02*
X45097936Y-65810000D01*
X46202064Y-76410000D02*
X44997936Y-76410000D01*
X46202064Y-74590000D02*
X44997936Y-74590000D01*
X46202064Y-85190000D02*
X44997936Y-85190000D01*
X46202064Y-87010000D02*
X44997936Y-87010000D01*
X37990000Y-34802064D02*
X37990000Y-33597936D01*
X39810000Y-34802064D02*
X39810000Y-33597936D01*
X37990000Y-45402064D02*
X37990000Y-44197936D01*
X39810000Y-45402064D02*
X39810000Y-44197936D01*
X39810000Y-56002064D02*
X39810000Y-54797936D01*
X37990000Y-56002064D02*
X37990000Y-54797936D01*
X37990000Y-66602064D02*
X37990000Y-65397936D01*
X39810000Y-66602064D02*
X39810000Y-65397936D01*
X39810000Y-77202064D02*
X39810000Y-75997936D01*
X37990000Y-77202064D02*
X37990000Y-75997936D01*
X39810000Y-87802064D02*
X39810000Y-86597936D01*
X37990000Y-87802064D02*
X37990000Y-86597936D01*
X69390000Y-12141422D02*
X69390000Y-12658578D01*
X70810000Y-12141422D02*
X70810000Y-12658578D01*
X24090000Y-37396078D02*
X24090000Y-36878922D01*
X25510000Y-37396078D02*
X25510000Y-36878922D01*
X25610000Y-48058578D02*
X25610000Y-47541422D01*
X24190000Y-48058578D02*
X24190000Y-47541422D01*
X25510000Y-58658578D02*
X25510000Y-58141422D01*
X24090000Y-58658578D02*
X24090000Y-58141422D01*
X25510000Y-69196078D02*
X25510000Y-68678922D01*
X24090000Y-69196078D02*
X24090000Y-68678922D01*
X23990000Y-79796078D02*
X23990000Y-79278922D01*
X25410000Y-79796078D02*
X25410000Y-79278922D01*
X79290000Y-37358578D02*
X79290000Y-36841422D01*
X80710000Y-37358578D02*
X80710000Y-36841422D01*
X24090000Y-40603922D02*
X24090000Y-41121078D01*
X25510000Y-40603922D02*
X25510000Y-41121078D01*
X80710000Y-47958578D02*
X80710000Y-47441422D01*
X79290000Y-47958578D02*
X79290000Y-47441422D01*
X24190000Y-51241422D02*
X24190000Y-51758578D01*
X25610000Y-51241422D02*
X25610000Y-51758578D01*
X75910000Y-21141422D02*
X75910000Y-21658578D01*
X74490000Y-21141422D02*
X74490000Y-21658578D01*
X79290000Y-58596078D02*
X79290000Y-58078922D01*
X80710000Y-58596078D02*
X80710000Y-58078922D01*
X24090000Y-61841422D02*
X24090000Y-62358578D01*
X25510000Y-61841422D02*
X25510000Y-62358578D01*
X80710000Y-68996078D02*
X80710000Y-68478922D01*
X79290000Y-68996078D02*
X79290000Y-68478922D01*
X25510000Y-72403922D02*
X25510000Y-72921078D01*
X24090000Y-72403922D02*
X24090000Y-72921078D01*
X79290000Y-79696078D02*
X79290000Y-79178922D01*
X80710000Y-79696078D02*
X80710000Y-79178922D01*
X23990000Y-83003922D02*
X23990000Y-83521078D01*
X25410000Y-83003922D02*
X25410000Y-83521078D01*
X95310000Y-72241422D02*
X95310000Y-72758578D01*
X93890000Y-72241422D02*
X93890000Y-72758578D01*
X89458578Y-65210000D02*
X88941422Y-65210000D01*
X89458578Y-63790000D02*
X88941422Y-63790000D01*
X107903922Y-82190000D02*
X108421078Y-82190000D01*
X107903922Y-83610000D02*
X108421078Y-83610000D01*
X112196078Y-82190000D02*
X111678922Y-82190000D01*
X112196078Y-83610000D02*
X111678922Y-83610000D01*
X107741422Y-57010000D02*
X108258578Y-57010000D01*
X107741422Y-55590000D02*
X108258578Y-55590000D01*
X140590000Y-57458578D02*
X140590000Y-56941422D01*
X142010000Y-57458578D02*
X142010000Y-56941422D01*
X124541422Y-83710000D02*
X125058578Y-83710000D01*
X124541422Y-82290000D02*
X125058578Y-82290000D01*
X121358578Y-83710000D02*
X120841422Y-83710000D01*
X121358578Y-82290000D02*
X120841422Y-82290000D01*
X146090000Y-41678922D02*
X146090000Y-42196078D01*
X147510000Y-41678922D02*
X147510000Y-42196078D01*
X107941422Y-70890000D02*
X108458578Y-70890000D01*
X107941422Y-72310000D02*
X108458578Y-72310000D01*
X134090000Y-18796078D02*
X134090000Y-18278922D01*
X135510000Y-18796078D02*
X135510000Y-18278922D01*
X137710000Y-18808578D02*
X137710000Y-18291422D01*
X136290000Y-18808578D02*
X136290000Y-18291422D01*
X138490000Y-18796078D02*
X138490000Y-18278922D01*
X139910000Y-18796078D02*
X139910000Y-18278922D01*
X112258578Y-70890000D02*
X111741422Y-70890000D01*
X112258578Y-72310000D02*
X111741422Y-72310000D01*
X68150000Y-18600000D02*
X64250000Y-18600000D01*
X68150000Y-20600000D02*
X64250000Y-20600000D01*
X68150000Y-18600000D02*
X68150000Y-20600000D01*
X68150000Y-15100000D02*
X68150000Y-17100000D01*
X68150000Y-17100000D02*
X64250000Y-17100000D01*
X68150000Y-15100000D02*
X64250000Y-15100000D01*
X91350000Y-61300000D02*
X91350000Y-59300000D01*
X91350000Y-59300000D02*
X95250000Y-59300000D01*
X91350000Y-61300000D02*
X95250000Y-61300000D01*
X144900000Y-56900000D02*
X144900000Y-53000000D01*
X142900000Y-56900000D02*
X142900000Y-53000000D01*
X144900000Y-56900000D02*
X142900000Y-56900000D01*
X94641422Y-48310000D02*
X95158578Y-48310000D01*
X94641422Y-46890000D02*
X95158578Y-46890000D01*
X112158578Y-77590000D02*
X111641422Y-77590000D01*
X112158578Y-79010000D02*
X111641422Y-79010000D01*
X112158578Y-76910000D02*
X111641422Y-76910000D01*
X112158578Y-75490000D02*
X111641422Y-75490000D01*
X150070000Y-54580000D02*
X150070000Y-44340000D01*
X145429000Y-54580000D02*
X145429000Y-44340000D01*
X150070000Y-54580000D02*
X145429000Y-54580000D01*
X150070000Y-44340000D02*
X145429000Y-44340000D01*
X148560000Y-54580000D02*
X148560000Y-44340000D01*
X150070000Y-51310000D02*
X148560000Y-51310000D01*
X150070000Y-47609000D02*
X148560000Y-47609000D01*
X102320000Y-55640000D02*
X103250000Y-55640000D01*
X105480000Y-55640000D02*
X104550000Y-55640000D01*
X105480000Y-55640000D02*
X105480000Y-57800000D01*
X102320000Y-55640000D02*
X102320000Y-57100000D01*
X83458578Y-18890000D02*
X82941422Y-18890000D01*
X83458578Y-20310000D02*
X82941422Y-20310000D01*
X78458578Y-23660000D02*
X77941422Y-23660000D01*
X78458578Y-22240000D02*
X77941422Y-22240000D01*
X78458578Y-24690000D02*
X77941422Y-24690000D01*
X78458578Y-26110000D02*
X77941422Y-26110000D01*
X71058578Y-20310000D02*
X70541422Y-20310000D01*
X71058578Y-18890000D02*
X70541422Y-18890000D01*
X70996078Y-15390000D02*
X70478922Y-15390000D01*
X70996078Y-16810000D02*
X70478922Y-16810000D01*
X71790000Y-12141422D02*
X71790000Y-12658578D01*
X73210000Y-12141422D02*
X73210000Y-12658578D01*
X77758578Y-10040000D02*
X77241422Y-10040000D01*
X77758578Y-11460000D02*
X77241422Y-11460000D01*
X77758578Y-13710000D02*
X77241422Y-13710000D01*
X77758578Y-12290000D02*
X77241422Y-12290000D01*
X82941422Y-15390000D02*
X83458578Y-15390000D01*
X82941422Y-16810000D02*
X83458578Y-16810000D01*
X107741422Y-59210000D02*
X108258578Y-59210000D01*
X107741422Y-57790000D02*
X108258578Y-57790000D01*
X133510000Y-28441422D02*
X133510000Y-28958578D01*
X132090000Y-28441422D02*
X132090000Y-28958578D01*
X84050000Y-88700000D02*
G75*
G03X84050000Y-88700000I-950000J0D01*
G01*
X79610000Y-18000000D02*
X79610000Y-19500000D01*
X79610000Y-18000000D02*
X79610000Y-16500000D01*
X76390000Y-18000000D02*
X76390000Y-19500000D01*
X76390000Y-18000000D02*
X76390000Y-15075000D01*
X87490000Y-80750000D02*
X87490000Y-77990000D01*
X87490000Y-77990000D02*
X87765000Y-77990000D01*
X87490000Y-80750000D02*
X87490000Y-83510000D01*
X87490000Y-83510000D02*
X87765000Y-83510000D01*
X94910000Y-80750000D02*
X94910000Y-77990000D01*
X94910000Y-77990000D02*
X94635000Y-77990000D01*
X94910000Y-80750000D02*
X94910000Y-83510000D01*
X94910000Y-83510000D02*
X94635000Y-83510000D01*
X94635000Y-83510000D02*
X94635000Y-85200000D01*
D10*
X87825000Y-72450000D02*
X87825000Y-68050000D01*
X93350000Y-74025000D02*
X93350000Y-68050000D01*
D11*
X142741422Y-27718000D02*
X143258578Y-27718000D01*
X142741422Y-26298000D02*
X143258578Y-26298000D01*
X143266078Y-23830000D02*
X142748922Y-23830000D01*
X143266078Y-25250000D02*
X142748922Y-25250000D01*
X150070000Y-32180000D02*
X150070000Y-21940000D01*
X145429000Y-32180000D02*
X145429000Y-21940000D01*
X150070000Y-32180000D02*
X145429000Y-32180000D01*
X150070000Y-21940000D02*
X145429000Y-21940000D01*
X148560000Y-32180000D02*
X148560000Y-21940000D01*
X150070000Y-28910000D02*
X148560000Y-28910000D01*
X150070000Y-25209000D02*
X148560000Y-25209000D01*
X100030000Y-10730000D02*
X97370000Y-10730000D01*
X100030000Y-10730000D02*
X100030000Y-15870000D01*
X100030000Y-15870000D02*
X97370000Y-15870000D01*
X97370000Y-10730000D02*
X97370000Y-15870000D01*
X97370000Y-8130000D02*
X97370000Y-9460000D01*
X98700000Y-8130000D02*
X97370000Y-8130000D01*
X2978922Y-62785000D02*
X3496078Y-62785000D01*
X2978922Y-61365000D02*
X3496078Y-61365000D01*
X6115000Y-73233578D02*
X6115000Y-72716422D01*
X7535000Y-73233578D02*
X7535000Y-72716422D01*
X8225000Y-70675000D02*
X10225000Y-70675000D01*
X10225000Y-70675000D02*
X10225000Y-74575000D01*
X8225000Y-70675000D02*
X8225000Y-74575000D01*
X83041422Y-39610000D02*
X83558578Y-39610000D01*
X83041422Y-38190000D02*
X83558578Y-38190000D01*
X21141422Y-39710000D02*
X21658578Y-39710000D01*
X21141422Y-38290000D02*
X21658578Y-38290000D01*
X83041422Y-48890000D02*
X83558578Y-48890000D01*
X83041422Y-50310000D02*
X83558578Y-50310000D01*
X21303922Y-48890000D02*
X21821078Y-48890000D01*
X21303922Y-50310000D02*
X21821078Y-50310000D01*
X83041422Y-61010000D02*
X83558578Y-61010000D01*
X83041422Y-59590000D02*
X83558578Y-59590000D01*
X21203922Y-60910000D02*
X21721078Y-60910000D01*
X21203922Y-59490000D02*
X21721078Y-59490000D01*
X83041422Y-69790000D02*
X83558578Y-69790000D01*
X83041422Y-71210000D02*
X83558578Y-71210000D01*
X21103922Y-71410000D02*
X21621078Y-71410000D01*
X21103922Y-69990000D02*
X21621078Y-69990000D01*
X83141422Y-82010000D02*
X83658578Y-82010000D01*
X83141422Y-80590000D02*
X83658578Y-80590000D01*
X21041422Y-80690000D02*
X21558578Y-80690000D01*
X21041422Y-82110000D02*
X21558578Y-82110000D01*
X128491422Y-79940000D02*
X129008578Y-79940000D01*
X128491422Y-81360000D02*
X129008578Y-81360000D01*
X6835000Y-65333578D02*
X6835000Y-64816422D01*
X5415000Y-65333578D02*
X5415000Y-64816422D01*
X3483578Y-60635000D02*
X2966422Y-60635000D01*
X3483578Y-59215000D02*
X2966422Y-59215000D01*
X87150000Y-88700000D02*
G75*
G03X87150000Y-88700000I-950000J0D01*
G01*
D10*
X3722619Y-67729761D02*
X3675000Y-67634523D01*
X3579761Y-67539285D01*
X3436904Y-67396428D01*
X3389285Y-67301190D01*
X3389285Y-67205952D01*
X3627380Y-67253571D02*
X3579761Y-67158333D01*
X3484523Y-67063095D01*
X3294047Y-67015476D01*
X2960714Y-67015476D01*
X2770238Y-67063095D01*
X2675000Y-67158333D01*
X2627380Y-67253571D01*
X2627380Y-67444047D01*
X2675000Y-67539285D01*
X2770238Y-67634523D01*
X2960714Y-67682142D01*
X3294047Y-67682142D01*
X3484523Y-67634523D01*
X3579761Y-67539285D01*
X3627380Y-67444047D01*
X3627380Y-67253571D01*
X2627380Y-68015476D02*
X2627380Y-68634523D01*
X3008333Y-68301190D01*
X3008333Y-68444047D01*
X3055952Y-68539285D01*
X3103571Y-68586904D01*
X3198809Y-68634523D01*
X3436904Y-68634523D01*
X3532142Y-68586904D01*
X3579761Y-68539285D01*
X3627380Y-68444047D01*
X3627380Y-68158333D01*
X3579761Y-68063095D01*
X3532142Y-68015476D01*
X3295238Y-55197619D02*
X3390476Y-55150000D01*
X3485714Y-55054761D01*
X3628571Y-54911904D01*
X3723809Y-54864285D01*
X3819047Y-54864285D01*
X3771428Y-55102380D02*
X3866666Y-55054761D01*
X3961904Y-54959523D01*
X4009523Y-54769047D01*
X4009523Y-54435714D01*
X3961904Y-54245238D01*
X3866666Y-54150000D01*
X3771428Y-54102380D01*
X3580952Y-54102380D01*
X3485714Y-54150000D01*
X3390476Y-54245238D01*
X3342857Y-54435714D01*
X3342857Y-54769047D01*
X3390476Y-54959523D01*
X3485714Y-55054761D01*
X3580952Y-55102380D01*
X3771428Y-55102380D01*
X2485714Y-54435714D02*
X2485714Y-55102380D01*
X2723809Y-54054761D02*
X2961904Y-54769047D01*
X2342857Y-54769047D01*
X142252380Y-50161904D02*
X141252380Y-50161904D01*
X141252380Y-50400000D01*
X141300000Y-50542857D01*
X141395238Y-50638095D01*
X141490476Y-50685714D01*
X141680952Y-50733333D01*
X141823809Y-50733333D01*
X142014285Y-50685714D01*
X142109523Y-50638095D01*
X142204761Y-50542857D01*
X142252380Y-50400000D01*
X142252380Y-50161904D01*
X141252380Y-51638095D02*
X141252380Y-51161904D01*
X141728571Y-51114285D01*
X141680952Y-51161904D01*
X141633333Y-51257142D01*
X141633333Y-51495238D01*
X141680952Y-51590476D01*
X141728571Y-51638095D01*
X141823809Y-51685714D01*
X142061904Y-51685714D01*
X142157142Y-51638095D01*
X142204761Y-51590476D01*
X142252380Y-51495238D01*
X142252380Y-51257142D01*
X142204761Y-51161904D01*
X142157142Y-51114285D01*
X142252380Y-47938095D02*
X141252380Y-47938095D01*
X142252380Y-48509523D02*
X141680952Y-48080952D01*
X141252380Y-48509523D02*
X141823809Y-47938095D01*
X139552380Y-53357142D02*
X139076190Y-53023809D01*
X139552380Y-52785714D02*
X138552380Y-52785714D01*
X138552380Y-53166666D01*
X138600000Y-53261904D01*
X138647619Y-53309523D01*
X138742857Y-53357142D01*
X138885714Y-53357142D01*
X138980952Y-53309523D01*
X139028571Y-53261904D01*
X139076190Y-53166666D01*
X139076190Y-52785714D01*
X138552380Y-53690476D02*
X138552380Y-54309523D01*
X138933333Y-53976190D01*
X138933333Y-54119047D01*
X138980952Y-54214285D01*
X139028571Y-54261904D01*
X139123809Y-54309523D01*
X139361904Y-54309523D01*
X139457142Y-54261904D01*
X139504761Y-54214285D01*
X139552380Y-54119047D01*
X139552380Y-53833333D01*
X139504761Y-53738095D01*
X139457142Y-53690476D01*
X139552380Y-54785714D02*
X139552380Y-54976190D01*
X139504761Y-55071428D01*
X139457142Y-55119047D01*
X139314285Y-55214285D01*
X139123809Y-55261904D01*
X138742857Y-55261904D01*
X138647619Y-55214285D01*
X138600000Y-55166666D01*
X138552380Y-55071428D01*
X138552380Y-54880952D01*
X138600000Y-54785714D01*
X138647619Y-54738095D01*
X138742857Y-54690476D01*
X138980952Y-54690476D01*
X139076190Y-54738095D01*
X139123809Y-54785714D01*
X139171428Y-54880952D01*
X139171428Y-55071428D01*
X139123809Y-55166666D01*
X139076190Y-55214285D01*
X138980952Y-55261904D01*
X7389523Y-37622380D02*
X7389523Y-38336666D01*
X7437142Y-38479523D01*
X7532380Y-38574761D01*
X7675238Y-38622380D01*
X7770476Y-38622380D01*
X6389523Y-38622380D02*
X6960952Y-38622380D01*
X6675238Y-38622380D02*
X6675238Y-37622380D01*
X6770476Y-37765238D01*
X6865714Y-37860476D01*
X6960952Y-37908095D01*
X5770476Y-37622380D02*
X5675238Y-37622380D01*
X5580000Y-37670000D01*
X5532380Y-37717619D01*
X5484761Y-37812857D01*
X5437142Y-38003333D01*
X5437142Y-38241428D01*
X5484761Y-38431904D01*
X5532380Y-38527142D01*
X5580000Y-38574761D01*
X5675238Y-38622380D01*
X5770476Y-38622380D01*
X5865714Y-38574761D01*
X5913333Y-38527142D01*
X5960952Y-38431904D01*
X6008571Y-38241428D01*
X6008571Y-38003333D01*
X5960952Y-37812857D01*
X5913333Y-37717619D01*
X5865714Y-37670000D01*
X5770476Y-37622380D01*
D13*
X119309523Y-30786904D02*
X119309523Y-31434523D01*
X119271428Y-31510714D01*
X119233333Y-31548809D01*
X119157142Y-31586904D01*
X119004761Y-31586904D01*
X118928571Y-31548809D01*
X118890476Y-31510714D01*
X118852380Y-31434523D01*
X118852380Y-30786904D01*
X118509523Y-30863095D02*
X118471428Y-30825000D01*
X118395238Y-30786904D01*
X118204761Y-30786904D01*
X118128571Y-30825000D01*
X118090476Y-30863095D01*
X118052380Y-30939285D01*
X118052380Y-31015476D01*
X118090476Y-31129761D01*
X118547619Y-31586904D01*
X118052380Y-31586904D01*
D10*
X132361904Y-50352380D02*
X132361904Y-51161904D01*
X132314285Y-51257142D01*
X132266666Y-51304761D01*
X132171428Y-51352380D01*
X131980952Y-51352380D01*
X131885714Y-51304761D01*
X131838095Y-51257142D01*
X131790476Y-51161904D01*
X131790476Y-50352380D01*
X130885714Y-50352380D02*
X131076190Y-50352380D01*
X131171428Y-50400000D01*
X131219047Y-50447619D01*
X131314285Y-50590476D01*
X131361904Y-50780952D01*
X131361904Y-51161904D01*
X131314285Y-51257142D01*
X131266666Y-51304761D01*
X131171428Y-51352380D01*
X130980952Y-51352380D01*
X130885714Y-51304761D01*
X130838095Y-51257142D01*
X130790476Y-51161904D01*
X130790476Y-50923809D01*
X130838095Y-50828571D01*
X130885714Y-50780952D01*
X130980952Y-50733333D01*
X131171428Y-50733333D01*
X131266666Y-50780952D01*
X131314285Y-50828571D01*
X131361904Y-50923809D01*
X126561904Y-24052380D02*
X126561904Y-24861904D01*
X126514285Y-24957142D01*
X126466666Y-25004761D01*
X126371428Y-25052380D01*
X126180952Y-25052380D01*
X126085714Y-25004761D01*
X126038095Y-24957142D01*
X125990476Y-24861904D01*
X125990476Y-24052380D01*
X125609523Y-24052380D02*
X124942857Y-24052380D01*
X125371428Y-25052380D01*
X126452380Y-19057142D02*
X125976190Y-18723809D01*
X126452380Y-18485714D02*
X125452380Y-18485714D01*
X125452380Y-18866666D01*
X125500000Y-18961904D01*
X125547619Y-19009523D01*
X125642857Y-19057142D01*
X125785714Y-19057142D01*
X125880952Y-19009523D01*
X125928571Y-18961904D01*
X125976190Y-18866666D01*
X125976190Y-18485714D01*
X126452380Y-20009523D02*
X126452380Y-19438095D01*
X126452380Y-19723809D02*
X125452380Y-19723809D01*
X125595238Y-19628571D01*
X125690476Y-19533333D01*
X125738095Y-19438095D01*
X125785714Y-20866666D02*
X126452380Y-20866666D01*
X125404761Y-20628571D02*
X126119047Y-20390476D01*
X126119047Y-21009523D01*
X132452380Y-18157142D02*
X131976190Y-17823809D01*
X132452380Y-17585714D02*
X131452380Y-17585714D01*
X131452380Y-17966666D01*
X131500000Y-18061904D01*
X131547619Y-18109523D01*
X131642857Y-18157142D01*
X131785714Y-18157142D01*
X131880952Y-18109523D01*
X131928571Y-18061904D01*
X131976190Y-17966666D01*
X131976190Y-17585714D01*
X131452380Y-18490476D02*
X131452380Y-19109523D01*
X131833333Y-18776190D01*
X131833333Y-18919047D01*
X131880952Y-19014285D01*
X131928571Y-19061904D01*
X132023809Y-19109523D01*
X132261904Y-19109523D01*
X132357142Y-19061904D01*
X132404761Y-19014285D01*
X132452380Y-18919047D01*
X132452380Y-18633333D01*
X132404761Y-18538095D01*
X132357142Y-18490476D01*
X131452380Y-20014285D02*
X131452380Y-19538095D01*
X131928571Y-19490476D01*
X131880952Y-19538095D01*
X131833333Y-19633333D01*
X131833333Y-19871428D01*
X131880952Y-19966666D01*
X131928571Y-20014285D01*
X132023809Y-20061904D01*
X132261904Y-20061904D01*
X132357142Y-20014285D01*
X132404761Y-19966666D01*
X132452380Y-19871428D01*
X132452380Y-19633333D01*
X132404761Y-19538095D01*
X132357142Y-19490476D01*
X129592857Y-12452380D02*
X129926190Y-11976190D01*
X130164285Y-12452380D02*
X130164285Y-11452380D01*
X129783333Y-11452380D01*
X129688095Y-11500000D01*
X129640476Y-11547619D01*
X129592857Y-11642857D01*
X129592857Y-11785714D01*
X129640476Y-11880952D01*
X129688095Y-11928571D01*
X129783333Y-11976190D01*
X130164285Y-11976190D01*
X129259523Y-11452380D02*
X128640476Y-11452380D01*
X128973809Y-11833333D01*
X128830952Y-11833333D01*
X128735714Y-11880952D01*
X128688095Y-11928571D01*
X128640476Y-12023809D01*
X128640476Y-12261904D01*
X128688095Y-12357142D01*
X128735714Y-12404761D01*
X128830952Y-12452380D01*
X129116666Y-12452380D01*
X129211904Y-12404761D01*
X129259523Y-12357142D01*
X127783333Y-11785714D02*
X127783333Y-12452380D01*
X128021428Y-11404761D02*
X128259523Y-12119047D01*
X127640476Y-12119047D01*
X116857142Y-20557142D02*
X116904761Y-20509523D01*
X116952380Y-20366666D01*
X116952380Y-20271428D01*
X116904761Y-20128571D01*
X116809523Y-20033333D01*
X116714285Y-19985714D01*
X116523809Y-19938095D01*
X116380952Y-19938095D01*
X116190476Y-19985714D01*
X116095238Y-20033333D01*
X116000000Y-20128571D01*
X115952380Y-20271428D01*
X115952380Y-20366666D01*
X116000000Y-20509523D01*
X116047619Y-20557142D01*
X115952380Y-20890476D02*
X115952380Y-21557142D01*
X116952380Y-21128571D01*
X116380952Y-22080952D02*
X116333333Y-21985714D01*
X116285714Y-21938095D01*
X116190476Y-21890476D01*
X116142857Y-21890476D01*
X116047619Y-21938095D01*
X116000000Y-21985714D01*
X115952380Y-22080952D01*
X115952380Y-22271428D01*
X116000000Y-22366666D01*
X116047619Y-22414285D01*
X116142857Y-22461904D01*
X116190476Y-22461904D01*
X116285714Y-22414285D01*
X116333333Y-22366666D01*
X116380952Y-22271428D01*
X116380952Y-22080952D01*
X116428571Y-21985714D01*
X116476190Y-21938095D01*
X116571428Y-21890476D01*
X116761904Y-21890476D01*
X116857142Y-21938095D01*
X116904761Y-21985714D01*
X116952380Y-22080952D01*
X116952380Y-22271428D01*
X116904761Y-22366666D01*
X116857142Y-22414285D01*
X116761904Y-22461904D01*
X116571428Y-22461904D01*
X116476190Y-22414285D01*
X116428571Y-22366666D01*
X116380952Y-22271428D01*
X121357142Y-20457142D02*
X121404761Y-20409523D01*
X121452380Y-20266666D01*
X121452380Y-20171428D01*
X121404761Y-20028571D01*
X121309523Y-19933333D01*
X121214285Y-19885714D01*
X121023809Y-19838095D01*
X120880952Y-19838095D01*
X120690476Y-19885714D01*
X120595238Y-19933333D01*
X120500000Y-20028571D01*
X120452380Y-20171428D01*
X120452380Y-20266666D01*
X120500000Y-20409523D01*
X120547619Y-20457142D01*
X120452380Y-20790476D02*
X120452380Y-21457142D01*
X121452380Y-21028571D01*
X121452380Y-21885714D02*
X121452380Y-22076190D01*
X121404761Y-22171428D01*
X121357142Y-22219047D01*
X121214285Y-22314285D01*
X121023809Y-22361904D01*
X120642857Y-22361904D01*
X120547619Y-22314285D01*
X120500000Y-22266666D01*
X120452380Y-22171428D01*
X120452380Y-21980952D01*
X120500000Y-21885714D01*
X120547619Y-21838095D01*
X120642857Y-21790476D01*
X120880952Y-21790476D01*
X120976190Y-21838095D01*
X121023809Y-21885714D01*
X121071428Y-21980952D01*
X121071428Y-22171428D01*
X121023809Y-22266666D01*
X120976190Y-22314285D01*
X120880952Y-22361904D01*
X123557142Y-20457142D02*
X123604761Y-20409523D01*
X123652380Y-20266666D01*
X123652380Y-20171428D01*
X123604761Y-20028571D01*
X123509523Y-19933333D01*
X123414285Y-19885714D01*
X123223809Y-19838095D01*
X123080952Y-19838095D01*
X122890476Y-19885714D01*
X122795238Y-19933333D01*
X122700000Y-20028571D01*
X122652380Y-20171428D01*
X122652380Y-20266666D01*
X122700000Y-20409523D01*
X122747619Y-20457142D01*
X123080952Y-21028571D02*
X123033333Y-20933333D01*
X122985714Y-20885714D01*
X122890476Y-20838095D01*
X122842857Y-20838095D01*
X122747619Y-20885714D01*
X122700000Y-20933333D01*
X122652380Y-21028571D01*
X122652380Y-21219047D01*
X122700000Y-21314285D01*
X122747619Y-21361904D01*
X122842857Y-21409523D01*
X122890476Y-21409523D01*
X122985714Y-21361904D01*
X123033333Y-21314285D01*
X123080952Y-21219047D01*
X123080952Y-21028571D01*
X123128571Y-20933333D01*
X123176190Y-20885714D01*
X123271428Y-20838095D01*
X123461904Y-20838095D01*
X123557142Y-20885714D01*
X123604761Y-20933333D01*
X123652380Y-21028571D01*
X123652380Y-21219047D01*
X123604761Y-21314285D01*
X123557142Y-21361904D01*
X123461904Y-21409523D01*
X123271428Y-21409523D01*
X123176190Y-21361904D01*
X123128571Y-21314285D01*
X123080952Y-21219047D01*
X122652380Y-22028571D02*
X122652380Y-22123809D01*
X122700000Y-22219047D01*
X122747619Y-22266666D01*
X122842857Y-22314285D01*
X123033333Y-22361904D01*
X123271428Y-22361904D01*
X123461904Y-22314285D01*
X123557142Y-22266666D01*
X123604761Y-22219047D01*
X123652380Y-22123809D01*
X123652380Y-22028571D01*
X123604761Y-21933333D01*
X123557142Y-21885714D01*
X123461904Y-21838095D01*
X123271428Y-21790476D01*
X123033333Y-21790476D01*
X122842857Y-21838095D01*
X122747619Y-21885714D01*
X122700000Y-21933333D01*
X122652380Y-22028571D01*
X130457142Y-31357142D02*
X130504761Y-31309523D01*
X130552380Y-31166666D01*
X130552380Y-31071428D01*
X130504761Y-30928571D01*
X130409523Y-30833333D01*
X130314285Y-30785714D01*
X130123809Y-30738095D01*
X129980952Y-30738095D01*
X129790476Y-30785714D01*
X129695238Y-30833333D01*
X129600000Y-30928571D01*
X129552380Y-31071428D01*
X129552380Y-31166666D01*
X129600000Y-31309523D01*
X129647619Y-31357142D01*
X129980952Y-31928571D02*
X129933333Y-31833333D01*
X129885714Y-31785714D01*
X129790476Y-31738095D01*
X129742857Y-31738095D01*
X129647619Y-31785714D01*
X129600000Y-31833333D01*
X129552380Y-31928571D01*
X129552380Y-32119047D01*
X129600000Y-32214285D01*
X129647619Y-32261904D01*
X129742857Y-32309523D01*
X129790476Y-32309523D01*
X129885714Y-32261904D01*
X129933333Y-32214285D01*
X129980952Y-32119047D01*
X129980952Y-31928571D01*
X130028571Y-31833333D01*
X130076190Y-31785714D01*
X130171428Y-31738095D01*
X130361904Y-31738095D01*
X130457142Y-31785714D01*
X130504761Y-31833333D01*
X130552380Y-31928571D01*
X130552380Y-32119047D01*
X130504761Y-32214285D01*
X130457142Y-32261904D01*
X130361904Y-32309523D01*
X130171428Y-32309523D01*
X130076190Y-32261904D01*
X130028571Y-32214285D01*
X129980952Y-32119047D01*
X130552380Y-33261904D02*
X130552380Y-32690476D01*
X130552380Y-32976190D02*
X129552380Y-32976190D01*
X129695238Y-32880952D01*
X129790476Y-32785714D01*
X129838095Y-32690476D01*
X134157142Y-59857142D02*
X134204761Y-59809523D01*
X134252380Y-59666666D01*
X134252380Y-59571428D01*
X134204761Y-59428571D01*
X134109523Y-59333333D01*
X134014285Y-59285714D01*
X133823809Y-59238095D01*
X133680952Y-59238095D01*
X133490476Y-59285714D01*
X133395238Y-59333333D01*
X133300000Y-59428571D01*
X133252380Y-59571428D01*
X133252380Y-59666666D01*
X133300000Y-59809523D01*
X133347619Y-59857142D01*
X133680952Y-60428571D02*
X133633333Y-60333333D01*
X133585714Y-60285714D01*
X133490476Y-60238095D01*
X133442857Y-60238095D01*
X133347619Y-60285714D01*
X133300000Y-60333333D01*
X133252380Y-60428571D01*
X133252380Y-60619047D01*
X133300000Y-60714285D01*
X133347619Y-60761904D01*
X133442857Y-60809523D01*
X133490476Y-60809523D01*
X133585714Y-60761904D01*
X133633333Y-60714285D01*
X133680952Y-60619047D01*
X133680952Y-60428571D01*
X133728571Y-60333333D01*
X133776190Y-60285714D01*
X133871428Y-60238095D01*
X134061904Y-60238095D01*
X134157142Y-60285714D01*
X134204761Y-60333333D01*
X134252380Y-60428571D01*
X134252380Y-60619047D01*
X134204761Y-60714285D01*
X134157142Y-60761904D01*
X134061904Y-60809523D01*
X133871428Y-60809523D01*
X133776190Y-60761904D01*
X133728571Y-60714285D01*
X133680952Y-60619047D01*
X133347619Y-61190476D02*
X133300000Y-61238095D01*
X133252380Y-61333333D01*
X133252380Y-61571428D01*
X133300000Y-61666666D01*
X133347619Y-61714285D01*
X133442857Y-61761904D01*
X133538095Y-61761904D01*
X133680952Y-61714285D01*
X134252380Y-61142857D01*
X134252380Y-61761904D01*
X132842857Y-21757142D02*
X132890476Y-21804761D01*
X133033333Y-21852380D01*
X133128571Y-21852380D01*
X133271428Y-21804761D01*
X133366666Y-21709523D01*
X133414285Y-21614285D01*
X133461904Y-21423809D01*
X133461904Y-21280952D01*
X133414285Y-21090476D01*
X133366666Y-20995238D01*
X133271428Y-20900000D01*
X133128571Y-20852380D01*
X133033333Y-20852380D01*
X132890476Y-20900000D01*
X132842857Y-20947619D01*
X132271428Y-21280952D02*
X132366666Y-21233333D01*
X132414285Y-21185714D01*
X132461904Y-21090476D01*
X132461904Y-21042857D01*
X132414285Y-20947619D01*
X132366666Y-20900000D01*
X132271428Y-20852380D01*
X132080952Y-20852380D01*
X131985714Y-20900000D01*
X131938095Y-20947619D01*
X131890476Y-21042857D01*
X131890476Y-21090476D01*
X131938095Y-21185714D01*
X131985714Y-21233333D01*
X132080952Y-21280952D01*
X132271428Y-21280952D01*
X132366666Y-21328571D01*
X132414285Y-21376190D01*
X132461904Y-21471428D01*
X132461904Y-21661904D01*
X132414285Y-21757142D01*
X132366666Y-21804761D01*
X132271428Y-21852380D01*
X132080952Y-21852380D01*
X131985714Y-21804761D01*
X131938095Y-21757142D01*
X131890476Y-21661904D01*
X131890476Y-21471428D01*
X131938095Y-21376190D01*
X131985714Y-21328571D01*
X132080952Y-21280952D01*
X131557142Y-20852380D02*
X130938095Y-20852380D01*
X131271428Y-21233333D01*
X131128571Y-21233333D01*
X131033333Y-21280952D01*
X130985714Y-21328571D01*
X130938095Y-21423809D01*
X130938095Y-21661904D01*
X130985714Y-21757142D01*
X131033333Y-21804761D01*
X131128571Y-21852380D01*
X131414285Y-21852380D01*
X131509523Y-21804761D01*
X131557142Y-21757142D01*
X118728571Y-20366666D02*
X118728571Y-20033333D01*
X119252380Y-20033333D02*
X118252380Y-20033333D01*
X118252380Y-20509523D01*
X118728571Y-21223809D02*
X118776190Y-21366666D01*
X118823809Y-21414285D01*
X118919047Y-21461904D01*
X119061904Y-21461904D01*
X119157142Y-21414285D01*
X119204761Y-21366666D01*
X119252380Y-21271428D01*
X119252380Y-20890476D01*
X118252380Y-20890476D01*
X118252380Y-21223809D01*
X118300000Y-21319047D01*
X118347619Y-21366666D01*
X118442857Y-21414285D01*
X118538095Y-21414285D01*
X118633333Y-21366666D01*
X118680952Y-21319047D01*
X118728571Y-21223809D01*
X118728571Y-20890476D01*
X118585714Y-22319047D02*
X119252380Y-22319047D01*
X118204761Y-22080952D02*
X118919047Y-21842857D01*
X118919047Y-22461904D01*
X90033333Y-58128571D02*
X90366666Y-58128571D01*
X90366666Y-58652380D02*
X90366666Y-57652380D01*
X89890476Y-57652380D01*
X89176190Y-58128571D02*
X89033333Y-58176190D01*
X88985714Y-58223809D01*
X88938095Y-58319047D01*
X88938095Y-58461904D01*
X88985714Y-58557142D01*
X89033333Y-58604761D01*
X89128571Y-58652380D01*
X89509523Y-58652380D01*
X89509523Y-57652380D01*
X89176190Y-57652380D01*
X89080952Y-57700000D01*
X89033333Y-57747619D01*
X88985714Y-57842857D01*
X88985714Y-57938095D01*
X89033333Y-58033333D01*
X89080952Y-58080952D01*
X89176190Y-58128571D01*
X89509523Y-58128571D01*
X88033333Y-57652380D02*
X88509523Y-57652380D01*
X88557142Y-58128571D01*
X88509523Y-58080952D01*
X88414285Y-58033333D01*
X88176190Y-58033333D01*
X88080952Y-58080952D01*
X88033333Y-58128571D01*
X87985714Y-58223809D01*
X87985714Y-58461904D01*
X88033333Y-58557142D01*
X88080952Y-58604761D01*
X88176190Y-58652380D01*
X88414285Y-58652380D01*
X88509523Y-58604761D01*
X88557142Y-58557142D01*
X127828571Y-31166666D02*
X127828571Y-30833333D01*
X128352380Y-30833333D02*
X127352380Y-30833333D01*
X127352380Y-31309523D01*
X127828571Y-32023809D02*
X127876190Y-32166666D01*
X127923809Y-32214285D01*
X128019047Y-32261904D01*
X128161904Y-32261904D01*
X128257142Y-32214285D01*
X128304761Y-32166666D01*
X128352380Y-32071428D01*
X128352380Y-31690476D01*
X127352380Y-31690476D01*
X127352380Y-32023809D01*
X127400000Y-32119047D01*
X127447619Y-32166666D01*
X127542857Y-32214285D01*
X127638095Y-32214285D01*
X127733333Y-32166666D01*
X127780952Y-32119047D01*
X127828571Y-32023809D01*
X127828571Y-31690476D01*
X127352380Y-33119047D02*
X127352380Y-32928571D01*
X127400000Y-32833333D01*
X127447619Y-32785714D01*
X127590476Y-32690476D01*
X127780952Y-32642857D01*
X128161904Y-32642857D01*
X128257142Y-32690476D01*
X128304761Y-32738095D01*
X128352380Y-32833333D01*
X128352380Y-33023809D01*
X128304761Y-33119047D01*
X128257142Y-33166666D01*
X128161904Y-33214285D01*
X127923809Y-33214285D01*
X127828571Y-33166666D01*
X127780952Y-33119047D01*
X127733333Y-33023809D01*
X127733333Y-32833333D01*
X127780952Y-32738095D01*
X127828571Y-32690476D01*
X127923809Y-32642857D01*
X131428571Y-59566666D02*
X131428571Y-59233333D01*
X131952380Y-59233333D02*
X130952380Y-59233333D01*
X130952380Y-59709523D01*
X131428571Y-60423809D02*
X131476190Y-60566666D01*
X131523809Y-60614285D01*
X131619047Y-60661904D01*
X131761904Y-60661904D01*
X131857142Y-60614285D01*
X131904761Y-60566666D01*
X131952380Y-60471428D01*
X131952380Y-60090476D01*
X130952380Y-60090476D01*
X130952380Y-60423809D01*
X131000000Y-60519047D01*
X131047619Y-60566666D01*
X131142857Y-60614285D01*
X131238095Y-60614285D01*
X131333333Y-60566666D01*
X131380952Y-60519047D01*
X131428571Y-60423809D01*
X131428571Y-60090476D01*
X130952380Y-60995238D02*
X130952380Y-61661904D01*
X131952380Y-61233333D01*
X75128571Y-27366666D02*
X75128571Y-27033333D01*
X75652380Y-27033333D02*
X74652380Y-27033333D01*
X74652380Y-27509523D01*
X75128571Y-28223809D02*
X75176190Y-28366666D01*
X75223809Y-28414285D01*
X75319047Y-28461904D01*
X75461904Y-28461904D01*
X75557142Y-28414285D01*
X75604761Y-28366666D01*
X75652380Y-28271428D01*
X75652380Y-27890476D01*
X74652380Y-27890476D01*
X74652380Y-28223809D01*
X74700000Y-28319047D01*
X74747619Y-28366666D01*
X74842857Y-28414285D01*
X74938095Y-28414285D01*
X75033333Y-28366666D01*
X75080952Y-28319047D01*
X75128571Y-28223809D01*
X75128571Y-27890476D01*
X75080952Y-29033333D02*
X75033333Y-28938095D01*
X74985714Y-28890476D01*
X74890476Y-28842857D01*
X74842857Y-28842857D01*
X74747619Y-28890476D01*
X74700000Y-28938095D01*
X74652380Y-29033333D01*
X74652380Y-29223809D01*
X74700000Y-29319047D01*
X74747619Y-29366666D01*
X74842857Y-29414285D01*
X74890476Y-29414285D01*
X74985714Y-29366666D01*
X75033333Y-29319047D01*
X75080952Y-29223809D01*
X75080952Y-29033333D01*
X75128571Y-28938095D01*
X75176190Y-28890476D01*
X75271428Y-28842857D01*
X75461904Y-28842857D01*
X75557142Y-28890476D01*
X75604761Y-28938095D01*
X75652380Y-29033333D01*
X75652380Y-29223809D01*
X75604761Y-29319047D01*
X75557142Y-29366666D01*
X75461904Y-29414285D01*
X75271428Y-29414285D01*
X75176190Y-29366666D01*
X75128571Y-29319047D01*
X75080952Y-29223809D01*
X99033333Y-92532380D02*
X99033333Y-93246666D01*
X99080952Y-93389523D01*
X99176190Y-93484761D01*
X99319047Y-93532380D01*
X99414285Y-93532380D01*
X98604761Y-92627619D02*
X98557142Y-92580000D01*
X98461904Y-92532380D01*
X98223809Y-92532380D01*
X98128571Y-92580000D01*
X98080952Y-92627619D01*
X98033333Y-92722857D01*
X98033333Y-92818095D01*
X98080952Y-92960952D01*
X98652380Y-93532380D01*
X98033333Y-93532380D01*
X73052380Y-25633333D02*
X72576190Y-25300000D01*
X73052380Y-25061904D02*
X72052380Y-25061904D01*
X72052380Y-25442857D01*
X72100000Y-25538095D01*
X72147619Y-25585714D01*
X72242857Y-25633333D01*
X72385714Y-25633333D01*
X72480952Y-25585714D01*
X72528571Y-25538095D01*
X72576190Y-25442857D01*
X72576190Y-25061904D01*
X72385714Y-26490476D02*
X73052380Y-26490476D01*
X72004761Y-26252380D02*
X72719047Y-26014285D01*
X72719047Y-26633333D01*
X66966666Y-29852380D02*
X67300000Y-29376190D01*
X67538095Y-29852380D02*
X67538095Y-28852380D01*
X67157142Y-28852380D01*
X67061904Y-28900000D01*
X67014285Y-28947619D01*
X66966666Y-29042857D01*
X66966666Y-29185714D01*
X67014285Y-29280952D01*
X67061904Y-29328571D01*
X67157142Y-29376190D01*
X67538095Y-29376190D01*
X66633333Y-28852380D02*
X65966666Y-28852380D01*
X66395238Y-29852380D01*
X63066666Y-29852380D02*
X63400000Y-29376190D01*
X63638095Y-29852380D02*
X63638095Y-28852380D01*
X63257142Y-28852380D01*
X63161904Y-28900000D01*
X63114285Y-28947619D01*
X63066666Y-29042857D01*
X63066666Y-29185714D01*
X63114285Y-29280952D01*
X63161904Y-29328571D01*
X63257142Y-29376190D01*
X63638095Y-29376190D01*
X62209523Y-28852380D02*
X62400000Y-28852380D01*
X62495238Y-28900000D01*
X62542857Y-28947619D01*
X62638095Y-29090476D01*
X62685714Y-29280952D01*
X62685714Y-29661904D01*
X62638095Y-29757142D01*
X62590476Y-29804761D01*
X62495238Y-29852380D01*
X62304761Y-29852380D01*
X62209523Y-29804761D01*
X62161904Y-29757142D01*
X62114285Y-29661904D01*
X62114285Y-29423809D01*
X62161904Y-29328571D01*
X62209523Y-29280952D01*
X62304761Y-29233333D01*
X62495238Y-29233333D01*
X62590476Y-29280952D01*
X62638095Y-29328571D01*
X62685714Y-29423809D01*
X66966666Y-6852380D02*
X67300000Y-6376190D01*
X67538095Y-6852380D02*
X67538095Y-5852380D01*
X67157142Y-5852380D01*
X67061904Y-5900000D01*
X67014285Y-5947619D01*
X66966666Y-6042857D01*
X66966666Y-6185714D01*
X67014285Y-6280952D01*
X67061904Y-6328571D01*
X67157142Y-6376190D01*
X67538095Y-6376190D01*
X66490476Y-6852380D02*
X66300000Y-6852380D01*
X66204761Y-6804761D01*
X66157142Y-6757142D01*
X66061904Y-6614285D01*
X66014285Y-6423809D01*
X66014285Y-6042857D01*
X66061904Y-5947619D01*
X66109523Y-5900000D01*
X66204761Y-5852380D01*
X66395238Y-5852380D01*
X66490476Y-5900000D01*
X66538095Y-5947619D01*
X66585714Y-6042857D01*
X66585714Y-6280952D01*
X66538095Y-6376190D01*
X66490476Y-6423809D01*
X66395238Y-6471428D01*
X66204761Y-6471428D01*
X66109523Y-6423809D01*
X66061904Y-6376190D01*
X66014285Y-6280952D01*
X63066666Y-6852380D02*
X63400000Y-6376190D01*
X63638095Y-6852380D02*
X63638095Y-5852380D01*
X63257142Y-5852380D01*
X63161904Y-5900000D01*
X63114285Y-5947619D01*
X63066666Y-6042857D01*
X63066666Y-6185714D01*
X63114285Y-6280952D01*
X63161904Y-6328571D01*
X63257142Y-6376190D01*
X63638095Y-6376190D01*
X62495238Y-6280952D02*
X62590476Y-6233333D01*
X62638095Y-6185714D01*
X62685714Y-6090476D01*
X62685714Y-6042857D01*
X62638095Y-5947619D01*
X62590476Y-5900000D01*
X62495238Y-5852380D01*
X62304761Y-5852380D01*
X62209523Y-5900000D01*
X62161904Y-5947619D01*
X62114285Y-6042857D01*
X62114285Y-6090476D01*
X62161904Y-6185714D01*
X62209523Y-6233333D01*
X62304761Y-6280952D01*
X62495238Y-6280952D01*
X62590476Y-6328571D01*
X62638095Y-6376190D01*
X62685714Y-6471428D01*
X62685714Y-6661904D01*
X62638095Y-6757142D01*
X62590476Y-6804761D01*
X62495238Y-6852380D01*
X62304761Y-6852380D01*
X62209523Y-6804761D01*
X62161904Y-6757142D01*
X62114285Y-6661904D01*
X62114285Y-6471428D01*
X62161904Y-6376190D01*
X62209523Y-6328571D01*
X62304761Y-6280952D01*
X136352380Y-59757142D02*
X135876190Y-59423809D01*
X136352380Y-59185714D02*
X135352380Y-59185714D01*
X135352380Y-59566666D01*
X135400000Y-59661904D01*
X135447619Y-59709523D01*
X135542857Y-59757142D01*
X135685714Y-59757142D01*
X135780952Y-59709523D01*
X135828571Y-59661904D01*
X135876190Y-59566666D01*
X135876190Y-59185714D01*
X135447619Y-60138095D02*
X135400000Y-60185714D01*
X135352380Y-60280952D01*
X135352380Y-60519047D01*
X135400000Y-60614285D01*
X135447619Y-60661904D01*
X135542857Y-60709523D01*
X135638095Y-60709523D01*
X135780952Y-60661904D01*
X136352380Y-60090476D01*
X136352380Y-60709523D01*
X136352380Y-61185714D02*
X136352380Y-61376190D01*
X136304761Y-61471428D01*
X136257142Y-61519047D01*
X136114285Y-61614285D01*
X135923809Y-61661904D01*
X135542857Y-61661904D01*
X135447619Y-61614285D01*
X135400000Y-61566666D01*
X135352380Y-61471428D01*
X135352380Y-61280952D01*
X135400000Y-61185714D01*
X135447619Y-61138095D01*
X135542857Y-61090476D01*
X135780952Y-61090476D01*
X135876190Y-61138095D01*
X135923809Y-61185714D01*
X135971428Y-61280952D01*
X135971428Y-61471428D01*
X135923809Y-61566666D01*
X135876190Y-61614285D01*
X135780952Y-61661904D01*
D15*
X121716428Y-4574523D02*
X122321190Y-4574523D01*
X122321190Y-3304523D01*
X120627857Y-4574523D02*
X121353571Y-4574523D01*
X120990714Y-4574523D02*
X120990714Y-3304523D01*
X121111666Y-3485952D01*
X121232619Y-3606904D01*
X121353571Y-3667380D01*
X119539285Y-3727857D02*
X119539285Y-4574523D01*
X119841666Y-3244047D02*
X120144047Y-4151190D01*
X119357857Y-4151190D01*
D10*
X78166666Y-40057142D02*
X78214285Y-40104761D01*
X78357142Y-40152380D01*
X78452380Y-40152380D01*
X78595238Y-40104761D01*
X78690476Y-40009523D01*
X78738095Y-39914285D01*
X78785714Y-39723809D01*
X78785714Y-39580952D01*
X78738095Y-39390476D01*
X78690476Y-39295238D01*
X78595238Y-39200000D01*
X78452380Y-39152380D01*
X78357142Y-39152380D01*
X78214285Y-39200000D01*
X78166666Y-39247619D01*
X77214285Y-40152380D02*
X77785714Y-40152380D01*
X77500000Y-40152380D02*
X77500000Y-39152380D01*
X77595238Y-39295238D01*
X77690476Y-39390476D01*
X77785714Y-39438095D01*
X78066666Y-50657142D02*
X78114285Y-50704761D01*
X78257142Y-50752380D01*
X78352380Y-50752380D01*
X78495238Y-50704761D01*
X78590476Y-50609523D01*
X78638095Y-50514285D01*
X78685714Y-50323809D01*
X78685714Y-50180952D01*
X78638095Y-49990476D01*
X78590476Y-49895238D01*
X78495238Y-49800000D01*
X78352380Y-49752380D01*
X78257142Y-49752380D01*
X78114285Y-49800000D01*
X78066666Y-49847619D01*
X77685714Y-49847619D02*
X77638095Y-49800000D01*
X77542857Y-49752380D01*
X77304761Y-49752380D01*
X77209523Y-49800000D01*
X77161904Y-49847619D01*
X77114285Y-49942857D01*
X77114285Y-50038095D01*
X77161904Y-50180952D01*
X77733333Y-50752380D01*
X77114285Y-50752380D01*
X77966666Y-61257142D02*
X78014285Y-61304761D01*
X78157142Y-61352380D01*
X78252380Y-61352380D01*
X78395238Y-61304761D01*
X78490476Y-61209523D01*
X78538095Y-61114285D01*
X78585714Y-60923809D01*
X78585714Y-60780952D01*
X78538095Y-60590476D01*
X78490476Y-60495238D01*
X78395238Y-60400000D01*
X78252380Y-60352380D01*
X78157142Y-60352380D01*
X78014285Y-60400000D01*
X77966666Y-60447619D01*
X77633333Y-60352380D02*
X77014285Y-60352380D01*
X77347619Y-60733333D01*
X77204761Y-60733333D01*
X77109523Y-60780952D01*
X77061904Y-60828571D01*
X77014285Y-60923809D01*
X77014285Y-61161904D01*
X77061904Y-61257142D01*
X77109523Y-61304761D01*
X77204761Y-61352380D01*
X77490476Y-61352380D01*
X77585714Y-61304761D01*
X77633333Y-61257142D01*
X77966666Y-71657142D02*
X78014285Y-71704761D01*
X78157142Y-71752380D01*
X78252380Y-71752380D01*
X78395238Y-71704761D01*
X78490476Y-71609523D01*
X78538095Y-71514285D01*
X78585714Y-71323809D01*
X78585714Y-71180952D01*
X78538095Y-70990476D01*
X78490476Y-70895238D01*
X78395238Y-70800000D01*
X78252380Y-70752380D01*
X78157142Y-70752380D01*
X78014285Y-70800000D01*
X77966666Y-70847619D01*
X77109523Y-71085714D02*
X77109523Y-71752380D01*
X77347619Y-70704761D02*
X77585714Y-71419047D01*
X76966666Y-71419047D01*
X78066666Y-82357142D02*
X78114285Y-82404761D01*
X78257142Y-82452380D01*
X78352380Y-82452380D01*
X78495238Y-82404761D01*
X78590476Y-82309523D01*
X78638095Y-82214285D01*
X78685714Y-82023809D01*
X78685714Y-81880952D01*
X78638095Y-81690476D01*
X78590476Y-81595238D01*
X78495238Y-81500000D01*
X78352380Y-81452380D01*
X78257142Y-81452380D01*
X78114285Y-81500000D01*
X78066666Y-81547619D01*
X77161904Y-81452380D02*
X77638095Y-81452380D01*
X77685714Y-81928571D01*
X77638095Y-81880952D01*
X77542857Y-81833333D01*
X77304761Y-81833333D01*
X77209523Y-81880952D01*
X77161904Y-81928571D01*
X77114285Y-82023809D01*
X77114285Y-82261904D01*
X77161904Y-82357142D01*
X77209523Y-82404761D01*
X77304761Y-82452380D01*
X77542857Y-82452380D01*
X77638095Y-82404761D01*
X77685714Y-82357142D01*
X68057142Y-34033333D02*
X68104761Y-33985714D01*
X68152380Y-33842857D01*
X68152380Y-33747619D01*
X68104761Y-33604761D01*
X68009523Y-33509523D01*
X67914285Y-33461904D01*
X67723809Y-33414285D01*
X67580952Y-33414285D01*
X67390476Y-33461904D01*
X67295238Y-33509523D01*
X67200000Y-33604761D01*
X67152380Y-33747619D01*
X67152380Y-33842857D01*
X67200000Y-33985714D01*
X67247619Y-34033333D01*
X67152380Y-34890476D02*
X67152380Y-34700000D01*
X67200000Y-34604761D01*
X67247619Y-34557142D01*
X67390476Y-34461904D01*
X67580952Y-34414285D01*
X67961904Y-34414285D01*
X68057142Y-34461904D01*
X68104761Y-34509523D01*
X68152380Y-34604761D01*
X68152380Y-34795238D01*
X68104761Y-34890476D01*
X68057142Y-34938095D01*
X67961904Y-34985714D01*
X67723809Y-34985714D01*
X67628571Y-34938095D01*
X67580952Y-34890476D01*
X67533333Y-34795238D01*
X67533333Y-34604761D01*
X67580952Y-34509523D01*
X67628571Y-34461904D01*
X67723809Y-34414285D01*
X68157142Y-44633333D02*
X68204761Y-44585714D01*
X68252380Y-44442857D01*
X68252380Y-44347619D01*
X68204761Y-44204761D01*
X68109523Y-44109523D01*
X68014285Y-44061904D01*
X67823809Y-44014285D01*
X67680952Y-44014285D01*
X67490476Y-44061904D01*
X67395238Y-44109523D01*
X67300000Y-44204761D01*
X67252380Y-44347619D01*
X67252380Y-44442857D01*
X67300000Y-44585714D01*
X67347619Y-44633333D01*
X67252380Y-44966666D02*
X67252380Y-45633333D01*
X68252380Y-45204761D01*
X68157142Y-55333333D02*
X68204761Y-55285714D01*
X68252380Y-55142857D01*
X68252380Y-55047619D01*
X68204761Y-54904761D01*
X68109523Y-54809523D01*
X68014285Y-54761904D01*
X67823809Y-54714285D01*
X67680952Y-54714285D01*
X67490476Y-54761904D01*
X67395238Y-54809523D01*
X67300000Y-54904761D01*
X67252380Y-55047619D01*
X67252380Y-55142857D01*
X67300000Y-55285714D01*
X67347619Y-55333333D01*
X67680952Y-55904761D02*
X67633333Y-55809523D01*
X67585714Y-55761904D01*
X67490476Y-55714285D01*
X67442857Y-55714285D01*
X67347619Y-55761904D01*
X67300000Y-55809523D01*
X67252380Y-55904761D01*
X67252380Y-56095238D01*
X67300000Y-56190476D01*
X67347619Y-56238095D01*
X67442857Y-56285714D01*
X67490476Y-56285714D01*
X67585714Y-56238095D01*
X67633333Y-56190476D01*
X67680952Y-56095238D01*
X67680952Y-55904761D01*
X67728571Y-55809523D01*
X67776190Y-55761904D01*
X67871428Y-55714285D01*
X68061904Y-55714285D01*
X68157142Y-55761904D01*
X68204761Y-55809523D01*
X68252380Y-55904761D01*
X68252380Y-56095238D01*
X68204761Y-56190476D01*
X68157142Y-56238095D01*
X68061904Y-56285714D01*
X67871428Y-56285714D01*
X67776190Y-56238095D01*
X67728571Y-56190476D01*
X67680952Y-56095238D01*
X68157142Y-65833333D02*
X68204761Y-65785714D01*
X68252380Y-65642857D01*
X68252380Y-65547619D01*
X68204761Y-65404761D01*
X68109523Y-65309523D01*
X68014285Y-65261904D01*
X67823809Y-65214285D01*
X67680952Y-65214285D01*
X67490476Y-65261904D01*
X67395238Y-65309523D01*
X67300000Y-65404761D01*
X67252380Y-65547619D01*
X67252380Y-65642857D01*
X67300000Y-65785714D01*
X67347619Y-65833333D01*
X68252380Y-66309523D02*
X68252380Y-66500000D01*
X68204761Y-66595238D01*
X68157142Y-66642857D01*
X68014285Y-66738095D01*
X67823809Y-66785714D01*
X67442857Y-66785714D01*
X67347619Y-66738095D01*
X67300000Y-66690476D01*
X67252380Y-66595238D01*
X67252380Y-66404761D01*
X67300000Y-66309523D01*
X67347619Y-66261904D01*
X67442857Y-66214285D01*
X67680952Y-66214285D01*
X67776190Y-66261904D01*
X67823809Y-66309523D01*
X67871428Y-66404761D01*
X67871428Y-66595238D01*
X67823809Y-66690476D01*
X67776190Y-66738095D01*
X67680952Y-66785714D01*
X68257142Y-75957142D02*
X68304761Y-75909523D01*
X68352380Y-75766666D01*
X68352380Y-75671428D01*
X68304761Y-75528571D01*
X68209523Y-75433333D01*
X68114285Y-75385714D01*
X67923809Y-75338095D01*
X67780952Y-75338095D01*
X67590476Y-75385714D01*
X67495238Y-75433333D01*
X67400000Y-75528571D01*
X67352380Y-75671428D01*
X67352380Y-75766666D01*
X67400000Y-75909523D01*
X67447619Y-75957142D01*
X68352380Y-76909523D02*
X68352380Y-76338095D01*
X68352380Y-76623809D02*
X67352380Y-76623809D01*
X67495238Y-76528571D01*
X67590476Y-76433333D01*
X67638095Y-76338095D01*
X67352380Y-77528571D02*
X67352380Y-77623809D01*
X67400000Y-77719047D01*
X67447619Y-77766666D01*
X67542857Y-77814285D01*
X67733333Y-77861904D01*
X67971428Y-77861904D01*
X68161904Y-77814285D01*
X68257142Y-77766666D01*
X68304761Y-77719047D01*
X68352380Y-77623809D01*
X68352380Y-77528571D01*
X68304761Y-77433333D01*
X68257142Y-77385714D01*
X68161904Y-77338095D01*
X67971428Y-77290476D01*
X67733333Y-77290476D01*
X67542857Y-77338095D01*
X67447619Y-77385714D01*
X67400000Y-77433333D01*
X67352380Y-77528571D01*
X68057142Y-86557142D02*
X68104761Y-86509523D01*
X68152380Y-86366666D01*
X68152380Y-86271428D01*
X68104761Y-86128571D01*
X68009523Y-86033333D01*
X67914285Y-85985714D01*
X67723809Y-85938095D01*
X67580952Y-85938095D01*
X67390476Y-85985714D01*
X67295238Y-86033333D01*
X67200000Y-86128571D01*
X67152380Y-86271428D01*
X67152380Y-86366666D01*
X67200000Y-86509523D01*
X67247619Y-86557142D01*
X68152380Y-87509523D02*
X68152380Y-86938095D01*
X68152380Y-87223809D02*
X67152380Y-87223809D01*
X67295238Y-87128571D01*
X67390476Y-87033333D01*
X67438095Y-86938095D01*
X68152380Y-88461904D02*
X68152380Y-87890476D01*
X68152380Y-88176190D02*
X67152380Y-88176190D01*
X67295238Y-88080952D01*
X67390476Y-87985714D01*
X67438095Y-87890476D01*
X62142857Y-31637142D02*
X62190476Y-31684761D01*
X62333333Y-31732380D01*
X62428571Y-31732380D01*
X62571428Y-31684761D01*
X62666666Y-31589523D01*
X62714285Y-31494285D01*
X62761904Y-31303809D01*
X62761904Y-31160952D01*
X62714285Y-30970476D01*
X62666666Y-30875238D01*
X62571428Y-30780000D01*
X62428571Y-30732380D01*
X62333333Y-30732380D01*
X62190476Y-30780000D01*
X62142857Y-30827619D01*
X61190476Y-31732380D02*
X61761904Y-31732380D01*
X61476190Y-31732380D02*
X61476190Y-30732380D01*
X61571428Y-30875238D01*
X61666666Y-30970476D01*
X61761904Y-31018095D01*
X60809523Y-30827619D02*
X60761904Y-30780000D01*
X60666666Y-30732380D01*
X60428571Y-30732380D01*
X60333333Y-30780000D01*
X60285714Y-30827619D01*
X60238095Y-30922857D01*
X60238095Y-31018095D01*
X60285714Y-31160952D01*
X60857142Y-31732380D01*
X60238095Y-31732380D01*
X62142857Y-42237142D02*
X62190476Y-42284761D01*
X62333333Y-42332380D01*
X62428571Y-42332380D01*
X62571428Y-42284761D01*
X62666666Y-42189523D01*
X62714285Y-42094285D01*
X62761904Y-41903809D01*
X62761904Y-41760952D01*
X62714285Y-41570476D01*
X62666666Y-41475238D01*
X62571428Y-41380000D01*
X62428571Y-41332380D01*
X62333333Y-41332380D01*
X62190476Y-41380000D01*
X62142857Y-41427619D01*
X61190476Y-42332380D02*
X61761904Y-42332380D01*
X61476190Y-42332380D02*
X61476190Y-41332380D01*
X61571428Y-41475238D01*
X61666666Y-41570476D01*
X61761904Y-41618095D01*
X60857142Y-41332380D02*
X60238095Y-41332380D01*
X60571428Y-41713333D01*
X60428571Y-41713333D01*
X60333333Y-41760952D01*
X60285714Y-41808571D01*
X60238095Y-41903809D01*
X60238095Y-42141904D01*
X60285714Y-42237142D01*
X60333333Y-42284761D01*
X60428571Y-42332380D01*
X60714285Y-42332380D01*
X60809523Y-42284761D01*
X60857142Y-42237142D01*
X62042857Y-52837142D02*
X62090476Y-52884761D01*
X62233333Y-52932380D01*
X62328571Y-52932380D01*
X62471428Y-52884761D01*
X62566666Y-52789523D01*
X62614285Y-52694285D01*
X62661904Y-52503809D01*
X62661904Y-52360952D01*
X62614285Y-52170476D01*
X62566666Y-52075238D01*
X62471428Y-51980000D01*
X62328571Y-51932380D01*
X62233333Y-51932380D01*
X62090476Y-51980000D01*
X62042857Y-52027619D01*
X61090476Y-52932380D02*
X61661904Y-52932380D01*
X61376190Y-52932380D02*
X61376190Y-51932380D01*
X61471428Y-52075238D01*
X61566666Y-52170476D01*
X61661904Y-52218095D01*
X60233333Y-52265714D02*
X60233333Y-52932380D01*
X60471428Y-51884761D02*
X60709523Y-52599047D01*
X60090476Y-52599047D01*
X62042857Y-63437142D02*
X62090476Y-63484761D01*
X62233333Y-63532380D01*
X62328571Y-63532380D01*
X62471428Y-63484761D01*
X62566666Y-63389523D01*
X62614285Y-63294285D01*
X62661904Y-63103809D01*
X62661904Y-62960952D01*
X62614285Y-62770476D01*
X62566666Y-62675238D01*
X62471428Y-62580000D01*
X62328571Y-62532380D01*
X62233333Y-62532380D01*
X62090476Y-62580000D01*
X62042857Y-62627619D01*
X61090476Y-63532380D02*
X61661904Y-63532380D01*
X61376190Y-63532380D02*
X61376190Y-62532380D01*
X61471428Y-62675238D01*
X61566666Y-62770476D01*
X61661904Y-62818095D01*
X60185714Y-62532380D02*
X60661904Y-62532380D01*
X60709523Y-63008571D01*
X60661904Y-62960952D01*
X60566666Y-62913333D01*
X60328571Y-62913333D01*
X60233333Y-62960952D01*
X60185714Y-63008571D01*
X60138095Y-63103809D01*
X60138095Y-63341904D01*
X60185714Y-63437142D01*
X60233333Y-63484761D01*
X60328571Y-63532380D01*
X60566666Y-63532380D01*
X60661904Y-63484761D01*
X60709523Y-63437142D01*
X62042857Y-74037142D02*
X62090476Y-74084761D01*
X62233333Y-74132380D01*
X62328571Y-74132380D01*
X62471428Y-74084761D01*
X62566666Y-73989523D01*
X62614285Y-73894285D01*
X62661904Y-73703809D01*
X62661904Y-73560952D01*
X62614285Y-73370476D01*
X62566666Y-73275238D01*
X62471428Y-73180000D01*
X62328571Y-73132380D01*
X62233333Y-73132380D01*
X62090476Y-73180000D01*
X62042857Y-73227619D01*
X61090476Y-74132380D02*
X61661904Y-74132380D01*
X61376190Y-74132380D02*
X61376190Y-73132380D01*
X61471428Y-73275238D01*
X61566666Y-73370476D01*
X61661904Y-73418095D01*
X60233333Y-73132380D02*
X60423809Y-73132380D01*
X60519047Y-73180000D01*
X60566666Y-73227619D01*
X60661904Y-73370476D01*
X60709523Y-73560952D01*
X60709523Y-73941904D01*
X60661904Y-74037142D01*
X60614285Y-74084761D01*
X60519047Y-74132380D01*
X60328571Y-74132380D01*
X60233333Y-74084761D01*
X60185714Y-74037142D01*
X60138095Y-73941904D01*
X60138095Y-73703809D01*
X60185714Y-73608571D01*
X60233333Y-73560952D01*
X60328571Y-73513333D01*
X60519047Y-73513333D01*
X60614285Y-73560952D01*
X60661904Y-73608571D01*
X60709523Y-73703809D01*
X62142857Y-84637142D02*
X62190476Y-84684761D01*
X62333333Y-84732380D01*
X62428571Y-84732380D01*
X62571428Y-84684761D01*
X62666666Y-84589523D01*
X62714285Y-84494285D01*
X62761904Y-84303809D01*
X62761904Y-84160952D01*
X62714285Y-83970476D01*
X62666666Y-83875238D01*
X62571428Y-83780000D01*
X62428571Y-83732380D01*
X62333333Y-83732380D01*
X62190476Y-83780000D01*
X62142857Y-83827619D01*
X61190476Y-84732380D02*
X61761904Y-84732380D01*
X61476190Y-84732380D02*
X61476190Y-83732380D01*
X61571428Y-83875238D01*
X61666666Y-83970476D01*
X61761904Y-84018095D01*
X60857142Y-83732380D02*
X60190476Y-83732380D01*
X60619047Y-84732380D01*
X70457142Y-25657142D02*
X70504761Y-25609523D01*
X70552380Y-25466666D01*
X70552380Y-25371428D01*
X70504761Y-25228571D01*
X70409523Y-25133333D01*
X70314285Y-25085714D01*
X70123809Y-25038095D01*
X69980952Y-25038095D01*
X69790476Y-25085714D01*
X69695238Y-25133333D01*
X69600000Y-25228571D01*
X69552380Y-25371428D01*
X69552380Y-25466666D01*
X69600000Y-25609523D01*
X69647619Y-25657142D01*
X70552380Y-26609523D02*
X70552380Y-26038095D01*
X70552380Y-26323809D02*
X69552380Y-26323809D01*
X69695238Y-26228571D01*
X69790476Y-26133333D01*
X69838095Y-26038095D01*
X69980952Y-27180952D02*
X69933333Y-27085714D01*
X69885714Y-27038095D01*
X69790476Y-26990476D01*
X69742857Y-26990476D01*
X69647619Y-27038095D01*
X69600000Y-27085714D01*
X69552380Y-27180952D01*
X69552380Y-27371428D01*
X69600000Y-27466666D01*
X69647619Y-27514285D01*
X69742857Y-27561904D01*
X69790476Y-27561904D01*
X69885714Y-27514285D01*
X69933333Y-27466666D01*
X69980952Y-27371428D01*
X69980952Y-27180952D01*
X70028571Y-27085714D01*
X70076190Y-27038095D01*
X70171428Y-26990476D01*
X70361904Y-26990476D01*
X70457142Y-27038095D01*
X70504761Y-27085714D01*
X70552380Y-27180952D01*
X70552380Y-27371428D01*
X70504761Y-27466666D01*
X70457142Y-27514285D01*
X70361904Y-27561904D01*
X70171428Y-27561904D01*
X70076190Y-27514285D01*
X70028571Y-27466666D01*
X69980952Y-27371428D01*
X56957142Y-33557142D02*
X57004761Y-33509523D01*
X57052380Y-33366666D01*
X57052380Y-33271428D01*
X57004761Y-33128571D01*
X56909523Y-33033333D01*
X56814285Y-32985714D01*
X56623809Y-32938095D01*
X56480952Y-32938095D01*
X56290476Y-32985714D01*
X56195238Y-33033333D01*
X56100000Y-33128571D01*
X56052380Y-33271428D01*
X56052380Y-33366666D01*
X56100000Y-33509523D01*
X56147619Y-33557142D01*
X57052380Y-34509523D02*
X57052380Y-33938095D01*
X57052380Y-34223809D02*
X56052380Y-34223809D01*
X56195238Y-34128571D01*
X56290476Y-34033333D01*
X56338095Y-33938095D01*
X57052380Y-34985714D02*
X57052380Y-35176190D01*
X57004761Y-35271428D01*
X56957142Y-35319047D01*
X56814285Y-35414285D01*
X56623809Y-35461904D01*
X56242857Y-35461904D01*
X56147619Y-35414285D01*
X56100000Y-35366666D01*
X56052380Y-35271428D01*
X56052380Y-35080952D01*
X56100000Y-34985714D01*
X56147619Y-34938095D01*
X56242857Y-34890476D01*
X56480952Y-34890476D01*
X56576190Y-34938095D01*
X56623809Y-34985714D01*
X56671428Y-35080952D01*
X56671428Y-35271428D01*
X56623809Y-35366666D01*
X56576190Y-35414285D01*
X56480952Y-35461904D01*
X56877142Y-44157142D02*
X56924761Y-44109523D01*
X56972380Y-43966666D01*
X56972380Y-43871428D01*
X56924761Y-43728571D01*
X56829523Y-43633333D01*
X56734285Y-43585714D01*
X56543809Y-43538095D01*
X56400952Y-43538095D01*
X56210476Y-43585714D01*
X56115238Y-43633333D01*
X56020000Y-43728571D01*
X55972380Y-43871428D01*
X55972380Y-43966666D01*
X56020000Y-44109523D01*
X56067619Y-44157142D01*
X56067619Y-44538095D02*
X56020000Y-44585714D01*
X55972380Y-44680952D01*
X55972380Y-44919047D01*
X56020000Y-45014285D01*
X56067619Y-45061904D01*
X56162857Y-45109523D01*
X56258095Y-45109523D01*
X56400952Y-45061904D01*
X56972380Y-44490476D01*
X56972380Y-45109523D01*
X55972380Y-45728571D02*
X55972380Y-45823809D01*
X56020000Y-45919047D01*
X56067619Y-45966666D01*
X56162857Y-46014285D01*
X56353333Y-46061904D01*
X56591428Y-46061904D01*
X56781904Y-46014285D01*
X56877142Y-45966666D01*
X56924761Y-45919047D01*
X56972380Y-45823809D01*
X56972380Y-45728571D01*
X56924761Y-45633333D01*
X56877142Y-45585714D01*
X56781904Y-45538095D01*
X56591428Y-45490476D01*
X56353333Y-45490476D01*
X56162857Y-45538095D01*
X56067619Y-45585714D01*
X56020000Y-45633333D01*
X55972380Y-45728571D01*
X56977142Y-54757142D02*
X57024761Y-54709523D01*
X57072380Y-54566666D01*
X57072380Y-54471428D01*
X57024761Y-54328571D01*
X56929523Y-54233333D01*
X56834285Y-54185714D01*
X56643809Y-54138095D01*
X56500952Y-54138095D01*
X56310476Y-54185714D01*
X56215238Y-54233333D01*
X56120000Y-54328571D01*
X56072380Y-54471428D01*
X56072380Y-54566666D01*
X56120000Y-54709523D01*
X56167619Y-54757142D01*
X56167619Y-55138095D02*
X56120000Y-55185714D01*
X56072380Y-55280952D01*
X56072380Y-55519047D01*
X56120000Y-55614285D01*
X56167619Y-55661904D01*
X56262857Y-55709523D01*
X56358095Y-55709523D01*
X56500952Y-55661904D01*
X57072380Y-55090476D01*
X57072380Y-55709523D01*
X57072380Y-56661904D02*
X57072380Y-56090476D01*
X57072380Y-56376190D02*
X56072380Y-56376190D01*
X56215238Y-56280952D01*
X56310476Y-56185714D01*
X56358095Y-56090476D01*
X56977142Y-65357142D02*
X57024761Y-65309523D01*
X57072380Y-65166666D01*
X57072380Y-65071428D01*
X57024761Y-64928571D01*
X56929523Y-64833333D01*
X56834285Y-64785714D01*
X56643809Y-64738095D01*
X56500952Y-64738095D01*
X56310476Y-64785714D01*
X56215238Y-64833333D01*
X56120000Y-64928571D01*
X56072380Y-65071428D01*
X56072380Y-65166666D01*
X56120000Y-65309523D01*
X56167619Y-65357142D01*
X56167619Y-65738095D02*
X56120000Y-65785714D01*
X56072380Y-65880952D01*
X56072380Y-66119047D01*
X56120000Y-66214285D01*
X56167619Y-66261904D01*
X56262857Y-66309523D01*
X56358095Y-66309523D01*
X56500952Y-66261904D01*
X57072380Y-65690476D01*
X57072380Y-66309523D01*
X56167619Y-66690476D02*
X56120000Y-66738095D01*
X56072380Y-66833333D01*
X56072380Y-67071428D01*
X56120000Y-67166666D01*
X56167619Y-67214285D01*
X56262857Y-67261904D01*
X56358095Y-67261904D01*
X56500952Y-67214285D01*
X57072380Y-66642857D01*
X57072380Y-67261904D01*
X56977142Y-75857142D02*
X57024761Y-75809523D01*
X57072380Y-75666666D01*
X57072380Y-75571428D01*
X57024761Y-75428571D01*
X56929523Y-75333333D01*
X56834285Y-75285714D01*
X56643809Y-75238095D01*
X56500952Y-75238095D01*
X56310476Y-75285714D01*
X56215238Y-75333333D01*
X56120000Y-75428571D01*
X56072380Y-75571428D01*
X56072380Y-75666666D01*
X56120000Y-75809523D01*
X56167619Y-75857142D01*
X56167619Y-76238095D02*
X56120000Y-76285714D01*
X56072380Y-76380952D01*
X56072380Y-76619047D01*
X56120000Y-76714285D01*
X56167619Y-76761904D01*
X56262857Y-76809523D01*
X56358095Y-76809523D01*
X56500952Y-76761904D01*
X57072380Y-76190476D01*
X57072380Y-76809523D01*
X56072380Y-77142857D02*
X56072380Y-77761904D01*
X56453333Y-77428571D01*
X56453333Y-77571428D01*
X56500952Y-77666666D01*
X56548571Y-77714285D01*
X56643809Y-77761904D01*
X56881904Y-77761904D01*
X56977142Y-77714285D01*
X57024761Y-77666666D01*
X57072380Y-77571428D01*
X57072380Y-77285714D01*
X57024761Y-77190476D01*
X56977142Y-77142857D01*
X56977142Y-86557142D02*
X57024761Y-86509523D01*
X57072380Y-86366666D01*
X57072380Y-86271428D01*
X57024761Y-86128571D01*
X56929523Y-86033333D01*
X56834285Y-85985714D01*
X56643809Y-85938095D01*
X56500952Y-85938095D01*
X56310476Y-85985714D01*
X56215238Y-86033333D01*
X56120000Y-86128571D01*
X56072380Y-86271428D01*
X56072380Y-86366666D01*
X56120000Y-86509523D01*
X56167619Y-86557142D01*
X56167619Y-86938095D02*
X56120000Y-86985714D01*
X56072380Y-87080952D01*
X56072380Y-87319047D01*
X56120000Y-87414285D01*
X56167619Y-87461904D01*
X56262857Y-87509523D01*
X56358095Y-87509523D01*
X56500952Y-87461904D01*
X57072380Y-86890476D01*
X57072380Y-87509523D01*
X56405714Y-88366666D02*
X57072380Y-88366666D01*
X56024761Y-88128571D02*
X56739047Y-87890476D01*
X56739047Y-88509523D01*
X46342857Y-31637142D02*
X46390476Y-31684761D01*
X46533333Y-31732380D01*
X46628571Y-31732380D01*
X46771428Y-31684761D01*
X46866666Y-31589523D01*
X46914285Y-31494285D01*
X46961904Y-31303809D01*
X46961904Y-31160952D01*
X46914285Y-30970476D01*
X46866666Y-30875238D01*
X46771428Y-30780000D01*
X46628571Y-30732380D01*
X46533333Y-30732380D01*
X46390476Y-30780000D01*
X46342857Y-30827619D01*
X45961904Y-30827619D02*
X45914285Y-30780000D01*
X45819047Y-30732380D01*
X45580952Y-30732380D01*
X45485714Y-30780000D01*
X45438095Y-30827619D01*
X45390476Y-30922857D01*
X45390476Y-31018095D01*
X45438095Y-31160952D01*
X46009523Y-31732380D01*
X45390476Y-31732380D01*
X44485714Y-30732380D02*
X44961904Y-30732380D01*
X45009523Y-31208571D01*
X44961904Y-31160952D01*
X44866666Y-31113333D01*
X44628571Y-31113333D01*
X44533333Y-31160952D01*
X44485714Y-31208571D01*
X44438095Y-31303809D01*
X44438095Y-31541904D01*
X44485714Y-31637142D01*
X44533333Y-31684761D01*
X44628571Y-31732380D01*
X44866666Y-31732380D01*
X44961904Y-31684761D01*
X45009523Y-31637142D01*
X46342857Y-42237142D02*
X46390476Y-42284761D01*
X46533333Y-42332380D01*
X46628571Y-42332380D01*
X46771428Y-42284761D01*
X46866666Y-42189523D01*
X46914285Y-42094285D01*
X46961904Y-41903809D01*
X46961904Y-41760952D01*
X46914285Y-41570476D01*
X46866666Y-41475238D01*
X46771428Y-41380000D01*
X46628571Y-41332380D01*
X46533333Y-41332380D01*
X46390476Y-41380000D01*
X46342857Y-41427619D01*
X45961904Y-41427619D02*
X45914285Y-41380000D01*
X45819047Y-41332380D01*
X45580952Y-41332380D01*
X45485714Y-41380000D01*
X45438095Y-41427619D01*
X45390476Y-41522857D01*
X45390476Y-41618095D01*
X45438095Y-41760952D01*
X46009523Y-42332380D01*
X45390476Y-42332380D01*
X44533333Y-41332380D02*
X44723809Y-41332380D01*
X44819047Y-41380000D01*
X44866666Y-41427619D01*
X44961904Y-41570476D01*
X45009523Y-41760952D01*
X45009523Y-42141904D01*
X44961904Y-42237142D01*
X44914285Y-42284761D01*
X44819047Y-42332380D01*
X44628571Y-42332380D01*
X44533333Y-42284761D01*
X44485714Y-42237142D01*
X44438095Y-42141904D01*
X44438095Y-41903809D01*
X44485714Y-41808571D01*
X44533333Y-41760952D01*
X44628571Y-41713333D01*
X44819047Y-41713333D01*
X44914285Y-41760952D01*
X44961904Y-41808571D01*
X45009523Y-41903809D01*
X46242857Y-52837142D02*
X46290476Y-52884761D01*
X46433333Y-52932380D01*
X46528571Y-52932380D01*
X46671428Y-52884761D01*
X46766666Y-52789523D01*
X46814285Y-52694285D01*
X46861904Y-52503809D01*
X46861904Y-52360952D01*
X46814285Y-52170476D01*
X46766666Y-52075238D01*
X46671428Y-51980000D01*
X46528571Y-51932380D01*
X46433333Y-51932380D01*
X46290476Y-51980000D01*
X46242857Y-52027619D01*
X45861904Y-52027619D02*
X45814285Y-51980000D01*
X45719047Y-51932380D01*
X45480952Y-51932380D01*
X45385714Y-51980000D01*
X45338095Y-52027619D01*
X45290476Y-52122857D01*
X45290476Y-52218095D01*
X45338095Y-52360952D01*
X45909523Y-52932380D01*
X45290476Y-52932380D01*
X44957142Y-51932380D02*
X44290476Y-51932380D01*
X44719047Y-52932380D01*
X46342857Y-63437142D02*
X46390476Y-63484761D01*
X46533333Y-63532380D01*
X46628571Y-63532380D01*
X46771428Y-63484761D01*
X46866666Y-63389523D01*
X46914285Y-63294285D01*
X46961904Y-63103809D01*
X46961904Y-62960952D01*
X46914285Y-62770476D01*
X46866666Y-62675238D01*
X46771428Y-62580000D01*
X46628571Y-62532380D01*
X46533333Y-62532380D01*
X46390476Y-62580000D01*
X46342857Y-62627619D01*
X45961904Y-62627619D02*
X45914285Y-62580000D01*
X45819047Y-62532380D01*
X45580952Y-62532380D01*
X45485714Y-62580000D01*
X45438095Y-62627619D01*
X45390476Y-62722857D01*
X45390476Y-62818095D01*
X45438095Y-62960952D01*
X46009523Y-63532380D01*
X45390476Y-63532380D01*
X44819047Y-62960952D02*
X44914285Y-62913333D01*
X44961904Y-62865714D01*
X45009523Y-62770476D01*
X45009523Y-62722857D01*
X44961904Y-62627619D01*
X44914285Y-62580000D01*
X44819047Y-62532380D01*
X44628571Y-62532380D01*
X44533333Y-62580000D01*
X44485714Y-62627619D01*
X44438095Y-62722857D01*
X44438095Y-62770476D01*
X44485714Y-62865714D01*
X44533333Y-62913333D01*
X44628571Y-62960952D01*
X44819047Y-62960952D01*
X44914285Y-63008571D01*
X44961904Y-63056190D01*
X45009523Y-63151428D01*
X45009523Y-63341904D01*
X44961904Y-63437142D01*
X44914285Y-63484761D01*
X44819047Y-63532380D01*
X44628571Y-63532380D01*
X44533333Y-63484761D01*
X44485714Y-63437142D01*
X44438095Y-63341904D01*
X44438095Y-63151428D01*
X44485714Y-63056190D01*
X44533333Y-63008571D01*
X44628571Y-62960952D01*
X46242857Y-74037142D02*
X46290476Y-74084761D01*
X46433333Y-74132380D01*
X46528571Y-74132380D01*
X46671428Y-74084761D01*
X46766666Y-73989523D01*
X46814285Y-73894285D01*
X46861904Y-73703809D01*
X46861904Y-73560952D01*
X46814285Y-73370476D01*
X46766666Y-73275238D01*
X46671428Y-73180000D01*
X46528571Y-73132380D01*
X46433333Y-73132380D01*
X46290476Y-73180000D01*
X46242857Y-73227619D01*
X45861904Y-73227619D02*
X45814285Y-73180000D01*
X45719047Y-73132380D01*
X45480952Y-73132380D01*
X45385714Y-73180000D01*
X45338095Y-73227619D01*
X45290476Y-73322857D01*
X45290476Y-73418095D01*
X45338095Y-73560952D01*
X45909523Y-74132380D01*
X45290476Y-74132380D01*
X44814285Y-74132380D02*
X44623809Y-74132380D01*
X44528571Y-74084761D01*
X44480952Y-74037142D01*
X44385714Y-73894285D01*
X44338095Y-73703809D01*
X44338095Y-73322857D01*
X44385714Y-73227619D01*
X44433333Y-73180000D01*
X44528571Y-73132380D01*
X44719047Y-73132380D01*
X44814285Y-73180000D01*
X44861904Y-73227619D01*
X44909523Y-73322857D01*
X44909523Y-73560952D01*
X44861904Y-73656190D01*
X44814285Y-73703809D01*
X44719047Y-73751428D01*
X44528571Y-73751428D01*
X44433333Y-73703809D01*
X44385714Y-73656190D01*
X44338095Y-73560952D01*
X46242857Y-84637142D02*
X46290476Y-84684761D01*
X46433333Y-84732380D01*
X46528571Y-84732380D01*
X46671428Y-84684761D01*
X46766666Y-84589523D01*
X46814285Y-84494285D01*
X46861904Y-84303809D01*
X46861904Y-84160952D01*
X46814285Y-83970476D01*
X46766666Y-83875238D01*
X46671428Y-83780000D01*
X46528571Y-83732380D01*
X46433333Y-83732380D01*
X46290476Y-83780000D01*
X46242857Y-83827619D01*
X45909523Y-83732380D02*
X45290476Y-83732380D01*
X45623809Y-84113333D01*
X45480952Y-84113333D01*
X45385714Y-84160952D01*
X45338095Y-84208571D01*
X45290476Y-84303809D01*
X45290476Y-84541904D01*
X45338095Y-84637142D01*
X45385714Y-84684761D01*
X45480952Y-84732380D01*
X45766666Y-84732380D01*
X45861904Y-84684761D01*
X45909523Y-84637142D01*
X44671428Y-83732380D02*
X44576190Y-83732380D01*
X44480952Y-83780000D01*
X44433333Y-83827619D01*
X44385714Y-83922857D01*
X44338095Y-84113333D01*
X44338095Y-84351428D01*
X44385714Y-84541904D01*
X44433333Y-84637142D01*
X44480952Y-84684761D01*
X44576190Y-84732380D01*
X44671428Y-84732380D01*
X44766666Y-84684761D01*
X44814285Y-84637142D01*
X44861904Y-84541904D01*
X44909523Y-84351428D01*
X44909523Y-84113333D01*
X44861904Y-83922857D01*
X44814285Y-83827619D01*
X44766666Y-83780000D01*
X44671428Y-83732380D01*
X41157142Y-33557142D02*
X41204761Y-33509523D01*
X41252380Y-33366666D01*
X41252380Y-33271428D01*
X41204761Y-33128571D01*
X41109523Y-33033333D01*
X41014285Y-32985714D01*
X40823809Y-32938095D01*
X40680952Y-32938095D01*
X40490476Y-32985714D01*
X40395238Y-33033333D01*
X40300000Y-33128571D01*
X40252380Y-33271428D01*
X40252380Y-33366666D01*
X40300000Y-33509523D01*
X40347619Y-33557142D01*
X40252380Y-33890476D02*
X40252380Y-34509523D01*
X40633333Y-34176190D01*
X40633333Y-34319047D01*
X40680952Y-34414285D01*
X40728571Y-34461904D01*
X40823809Y-34509523D01*
X41061904Y-34509523D01*
X41157142Y-34461904D01*
X41204761Y-34414285D01*
X41252380Y-34319047D01*
X41252380Y-34033333D01*
X41204761Y-33938095D01*
X41157142Y-33890476D01*
X41252380Y-35461904D02*
X41252380Y-34890476D01*
X41252380Y-35176190D02*
X40252380Y-35176190D01*
X40395238Y-35080952D01*
X40490476Y-34985714D01*
X40538095Y-34890476D01*
X41077142Y-44157142D02*
X41124761Y-44109523D01*
X41172380Y-43966666D01*
X41172380Y-43871428D01*
X41124761Y-43728571D01*
X41029523Y-43633333D01*
X40934285Y-43585714D01*
X40743809Y-43538095D01*
X40600952Y-43538095D01*
X40410476Y-43585714D01*
X40315238Y-43633333D01*
X40220000Y-43728571D01*
X40172380Y-43871428D01*
X40172380Y-43966666D01*
X40220000Y-44109523D01*
X40267619Y-44157142D01*
X40172380Y-44490476D02*
X40172380Y-45109523D01*
X40553333Y-44776190D01*
X40553333Y-44919047D01*
X40600952Y-45014285D01*
X40648571Y-45061904D01*
X40743809Y-45109523D01*
X40981904Y-45109523D01*
X41077142Y-45061904D01*
X41124761Y-45014285D01*
X41172380Y-44919047D01*
X41172380Y-44633333D01*
X41124761Y-44538095D01*
X41077142Y-44490476D01*
X40267619Y-45490476D02*
X40220000Y-45538095D01*
X40172380Y-45633333D01*
X40172380Y-45871428D01*
X40220000Y-45966666D01*
X40267619Y-46014285D01*
X40362857Y-46061904D01*
X40458095Y-46061904D01*
X40600952Y-46014285D01*
X41172380Y-45442857D01*
X41172380Y-46061904D01*
X41077142Y-54757142D02*
X41124761Y-54709523D01*
X41172380Y-54566666D01*
X41172380Y-54471428D01*
X41124761Y-54328571D01*
X41029523Y-54233333D01*
X40934285Y-54185714D01*
X40743809Y-54138095D01*
X40600952Y-54138095D01*
X40410476Y-54185714D01*
X40315238Y-54233333D01*
X40220000Y-54328571D01*
X40172380Y-54471428D01*
X40172380Y-54566666D01*
X40220000Y-54709523D01*
X40267619Y-54757142D01*
X40172380Y-55090476D02*
X40172380Y-55709523D01*
X40553333Y-55376190D01*
X40553333Y-55519047D01*
X40600952Y-55614285D01*
X40648571Y-55661904D01*
X40743809Y-55709523D01*
X40981904Y-55709523D01*
X41077142Y-55661904D01*
X41124761Y-55614285D01*
X41172380Y-55519047D01*
X41172380Y-55233333D01*
X41124761Y-55138095D01*
X41077142Y-55090476D01*
X40172380Y-56042857D02*
X40172380Y-56661904D01*
X40553333Y-56328571D01*
X40553333Y-56471428D01*
X40600952Y-56566666D01*
X40648571Y-56614285D01*
X40743809Y-56661904D01*
X40981904Y-56661904D01*
X41077142Y-56614285D01*
X41124761Y-56566666D01*
X41172380Y-56471428D01*
X41172380Y-56185714D01*
X41124761Y-56090476D01*
X41077142Y-56042857D01*
X41077142Y-65357142D02*
X41124761Y-65309523D01*
X41172380Y-65166666D01*
X41172380Y-65071428D01*
X41124761Y-64928571D01*
X41029523Y-64833333D01*
X40934285Y-64785714D01*
X40743809Y-64738095D01*
X40600952Y-64738095D01*
X40410476Y-64785714D01*
X40315238Y-64833333D01*
X40220000Y-64928571D01*
X40172380Y-65071428D01*
X40172380Y-65166666D01*
X40220000Y-65309523D01*
X40267619Y-65357142D01*
X40172380Y-65690476D02*
X40172380Y-66309523D01*
X40553333Y-65976190D01*
X40553333Y-66119047D01*
X40600952Y-66214285D01*
X40648571Y-66261904D01*
X40743809Y-66309523D01*
X40981904Y-66309523D01*
X41077142Y-66261904D01*
X41124761Y-66214285D01*
X41172380Y-66119047D01*
X41172380Y-65833333D01*
X41124761Y-65738095D01*
X41077142Y-65690476D01*
X40505714Y-67166666D02*
X41172380Y-67166666D01*
X40124761Y-66928571D02*
X40839047Y-66690476D01*
X40839047Y-67309523D01*
X41077142Y-75957142D02*
X41124761Y-75909523D01*
X41172380Y-75766666D01*
X41172380Y-75671428D01*
X41124761Y-75528571D01*
X41029523Y-75433333D01*
X40934285Y-75385714D01*
X40743809Y-75338095D01*
X40600952Y-75338095D01*
X40410476Y-75385714D01*
X40315238Y-75433333D01*
X40220000Y-75528571D01*
X40172380Y-75671428D01*
X40172380Y-75766666D01*
X40220000Y-75909523D01*
X40267619Y-75957142D01*
X40172380Y-76290476D02*
X40172380Y-76909523D01*
X40553333Y-76576190D01*
X40553333Y-76719047D01*
X40600952Y-76814285D01*
X40648571Y-76861904D01*
X40743809Y-76909523D01*
X40981904Y-76909523D01*
X41077142Y-76861904D01*
X41124761Y-76814285D01*
X41172380Y-76719047D01*
X41172380Y-76433333D01*
X41124761Y-76338095D01*
X41077142Y-76290476D01*
X40172380Y-77814285D02*
X40172380Y-77338095D01*
X40648571Y-77290476D01*
X40600952Y-77338095D01*
X40553333Y-77433333D01*
X40553333Y-77671428D01*
X40600952Y-77766666D01*
X40648571Y-77814285D01*
X40743809Y-77861904D01*
X40981904Y-77861904D01*
X41077142Y-77814285D01*
X41124761Y-77766666D01*
X41172380Y-77671428D01*
X41172380Y-77433333D01*
X41124761Y-77338095D01*
X41077142Y-77290476D01*
X41077142Y-86557142D02*
X41124761Y-86509523D01*
X41172380Y-86366666D01*
X41172380Y-86271428D01*
X41124761Y-86128571D01*
X41029523Y-86033333D01*
X40934285Y-85985714D01*
X40743809Y-85938095D01*
X40600952Y-85938095D01*
X40410476Y-85985714D01*
X40315238Y-86033333D01*
X40220000Y-86128571D01*
X40172380Y-86271428D01*
X40172380Y-86366666D01*
X40220000Y-86509523D01*
X40267619Y-86557142D01*
X40172380Y-86890476D02*
X40172380Y-87509523D01*
X40553333Y-87176190D01*
X40553333Y-87319047D01*
X40600952Y-87414285D01*
X40648571Y-87461904D01*
X40743809Y-87509523D01*
X40981904Y-87509523D01*
X41077142Y-87461904D01*
X41124761Y-87414285D01*
X41172380Y-87319047D01*
X41172380Y-87033333D01*
X41124761Y-86938095D01*
X41077142Y-86890476D01*
X40172380Y-88366666D02*
X40172380Y-88176190D01*
X40220000Y-88080952D01*
X40267619Y-88033333D01*
X40410476Y-87938095D01*
X40600952Y-87890476D01*
X40981904Y-87890476D01*
X41077142Y-87938095D01*
X41124761Y-87985714D01*
X41172380Y-88080952D01*
X41172380Y-88271428D01*
X41124761Y-88366666D01*
X41077142Y-88414285D01*
X40981904Y-88461904D01*
X40743809Y-88461904D01*
X40648571Y-88414285D01*
X40600952Y-88366666D01*
X40553333Y-88271428D01*
X40553333Y-88080952D01*
X40600952Y-87985714D01*
X40648571Y-87938095D01*
X40743809Y-87890476D01*
X70457142Y-8457142D02*
X70504761Y-8409523D01*
X70552380Y-8266666D01*
X70552380Y-8171428D01*
X70504761Y-8028571D01*
X70409523Y-7933333D01*
X70314285Y-7885714D01*
X70123809Y-7838095D01*
X69980952Y-7838095D01*
X69790476Y-7885714D01*
X69695238Y-7933333D01*
X69600000Y-8028571D01*
X69552380Y-8171428D01*
X69552380Y-8266666D01*
X69600000Y-8409523D01*
X69647619Y-8457142D01*
X69552380Y-8790476D02*
X69552380Y-9409523D01*
X69933333Y-9076190D01*
X69933333Y-9219047D01*
X69980952Y-9314285D01*
X70028571Y-9361904D01*
X70123809Y-9409523D01*
X70361904Y-9409523D01*
X70457142Y-9361904D01*
X70504761Y-9314285D01*
X70552380Y-9219047D01*
X70552380Y-8933333D01*
X70504761Y-8838095D01*
X70457142Y-8790476D01*
X69552380Y-9742857D02*
X69552380Y-10409523D01*
X70552380Y-9980952D01*
X28042857Y-38557142D02*
X28090476Y-38604761D01*
X28233333Y-38652380D01*
X28328571Y-38652380D01*
X28471428Y-38604761D01*
X28566666Y-38509523D01*
X28614285Y-38414285D01*
X28661904Y-38223809D01*
X28661904Y-38080952D01*
X28614285Y-37890476D01*
X28566666Y-37795238D01*
X28471428Y-37700000D01*
X28328571Y-37652380D01*
X28233333Y-37652380D01*
X28090476Y-37700000D01*
X28042857Y-37747619D01*
X27709523Y-37652380D02*
X27090476Y-37652380D01*
X27423809Y-38033333D01*
X27280952Y-38033333D01*
X27185714Y-38080952D01*
X27138095Y-38128571D01*
X27090476Y-38223809D01*
X27090476Y-38461904D01*
X27138095Y-38557142D01*
X27185714Y-38604761D01*
X27280952Y-38652380D01*
X27566666Y-38652380D01*
X27661904Y-38604761D01*
X27709523Y-38557142D01*
X26519047Y-38080952D02*
X26614285Y-38033333D01*
X26661904Y-37985714D01*
X26709523Y-37890476D01*
X26709523Y-37842857D01*
X26661904Y-37747619D01*
X26614285Y-37700000D01*
X26519047Y-37652380D01*
X26328571Y-37652380D01*
X26233333Y-37700000D01*
X26185714Y-37747619D01*
X26138095Y-37842857D01*
X26138095Y-37890476D01*
X26185714Y-37985714D01*
X26233333Y-38033333D01*
X26328571Y-38080952D01*
X26519047Y-38080952D01*
X26614285Y-38128571D01*
X26661904Y-38176190D01*
X26709523Y-38271428D01*
X26709523Y-38461904D01*
X26661904Y-38557142D01*
X26614285Y-38604761D01*
X26519047Y-38652380D01*
X26328571Y-38652380D01*
X26233333Y-38604761D01*
X26185714Y-38557142D01*
X26138095Y-38461904D01*
X26138095Y-38271428D01*
X26185714Y-38176190D01*
X26233333Y-38128571D01*
X26328571Y-38080952D01*
X28142857Y-49257142D02*
X28190476Y-49304761D01*
X28333333Y-49352380D01*
X28428571Y-49352380D01*
X28571428Y-49304761D01*
X28666666Y-49209523D01*
X28714285Y-49114285D01*
X28761904Y-48923809D01*
X28761904Y-48780952D01*
X28714285Y-48590476D01*
X28666666Y-48495238D01*
X28571428Y-48400000D01*
X28428571Y-48352380D01*
X28333333Y-48352380D01*
X28190476Y-48400000D01*
X28142857Y-48447619D01*
X27809523Y-48352380D02*
X27190476Y-48352380D01*
X27523809Y-48733333D01*
X27380952Y-48733333D01*
X27285714Y-48780952D01*
X27238095Y-48828571D01*
X27190476Y-48923809D01*
X27190476Y-49161904D01*
X27238095Y-49257142D01*
X27285714Y-49304761D01*
X27380952Y-49352380D01*
X27666666Y-49352380D01*
X27761904Y-49304761D01*
X27809523Y-49257142D01*
X26714285Y-49352380D02*
X26523809Y-49352380D01*
X26428571Y-49304761D01*
X26380952Y-49257142D01*
X26285714Y-49114285D01*
X26238095Y-48923809D01*
X26238095Y-48542857D01*
X26285714Y-48447619D01*
X26333333Y-48400000D01*
X26428571Y-48352380D01*
X26619047Y-48352380D01*
X26714285Y-48400000D01*
X26761904Y-48447619D01*
X26809523Y-48542857D01*
X26809523Y-48780952D01*
X26761904Y-48876190D01*
X26714285Y-48923809D01*
X26619047Y-48971428D01*
X26428571Y-48971428D01*
X26333333Y-48923809D01*
X26285714Y-48876190D01*
X26238095Y-48780952D01*
X27942857Y-59857142D02*
X27990476Y-59904761D01*
X28133333Y-59952380D01*
X28228571Y-59952380D01*
X28371428Y-59904761D01*
X28466666Y-59809523D01*
X28514285Y-59714285D01*
X28561904Y-59523809D01*
X28561904Y-59380952D01*
X28514285Y-59190476D01*
X28466666Y-59095238D01*
X28371428Y-59000000D01*
X28228571Y-58952380D01*
X28133333Y-58952380D01*
X27990476Y-59000000D01*
X27942857Y-59047619D01*
X27085714Y-59285714D02*
X27085714Y-59952380D01*
X27323809Y-58904761D02*
X27561904Y-59619047D01*
X26942857Y-59619047D01*
X26371428Y-58952380D02*
X26276190Y-58952380D01*
X26180952Y-59000000D01*
X26133333Y-59047619D01*
X26085714Y-59142857D01*
X26038095Y-59333333D01*
X26038095Y-59571428D01*
X26085714Y-59761904D01*
X26133333Y-59857142D01*
X26180952Y-59904761D01*
X26276190Y-59952380D01*
X26371428Y-59952380D01*
X26466666Y-59904761D01*
X26514285Y-59857142D01*
X26561904Y-59761904D01*
X26609523Y-59571428D01*
X26609523Y-59333333D01*
X26561904Y-59142857D01*
X26514285Y-59047619D01*
X26466666Y-59000000D01*
X26371428Y-58952380D01*
X28042857Y-70357142D02*
X28090476Y-70404761D01*
X28233333Y-70452380D01*
X28328571Y-70452380D01*
X28471428Y-70404761D01*
X28566666Y-70309523D01*
X28614285Y-70214285D01*
X28661904Y-70023809D01*
X28661904Y-69880952D01*
X28614285Y-69690476D01*
X28566666Y-69595238D01*
X28471428Y-69500000D01*
X28328571Y-69452380D01*
X28233333Y-69452380D01*
X28090476Y-69500000D01*
X28042857Y-69547619D01*
X27185714Y-69785714D02*
X27185714Y-70452380D01*
X27423809Y-69404761D02*
X27661904Y-70119047D01*
X27042857Y-70119047D01*
X26138095Y-70452380D02*
X26709523Y-70452380D01*
X26423809Y-70452380D02*
X26423809Y-69452380D01*
X26519047Y-69595238D01*
X26614285Y-69690476D01*
X26709523Y-69738095D01*
X27942857Y-80957142D02*
X27990476Y-81004761D01*
X28133333Y-81052380D01*
X28228571Y-81052380D01*
X28371428Y-81004761D01*
X28466666Y-80909523D01*
X28514285Y-80814285D01*
X28561904Y-80623809D01*
X28561904Y-80480952D01*
X28514285Y-80290476D01*
X28466666Y-80195238D01*
X28371428Y-80100000D01*
X28228571Y-80052380D01*
X28133333Y-80052380D01*
X27990476Y-80100000D01*
X27942857Y-80147619D01*
X27085714Y-80385714D02*
X27085714Y-81052380D01*
X27323809Y-80004761D02*
X27561904Y-80719047D01*
X26942857Y-80719047D01*
X26609523Y-80147619D02*
X26561904Y-80100000D01*
X26466666Y-80052380D01*
X26228571Y-80052380D01*
X26133333Y-80100000D01*
X26085714Y-80147619D01*
X26038095Y-80242857D01*
X26038095Y-80338095D01*
X26085714Y-80480952D01*
X26657142Y-81052380D01*
X26038095Y-81052380D01*
X78142857Y-38557142D02*
X78190476Y-38604761D01*
X78333333Y-38652380D01*
X78428571Y-38652380D01*
X78571428Y-38604761D01*
X78666666Y-38509523D01*
X78714285Y-38414285D01*
X78761904Y-38223809D01*
X78761904Y-38080952D01*
X78714285Y-37890476D01*
X78666666Y-37795238D01*
X78571428Y-37700000D01*
X78428571Y-37652380D01*
X78333333Y-37652380D01*
X78190476Y-37700000D01*
X78142857Y-37747619D01*
X77285714Y-37985714D02*
X77285714Y-38652380D01*
X77523809Y-37604761D02*
X77761904Y-38319047D01*
X77142857Y-38319047D01*
X76857142Y-37652380D02*
X76238095Y-37652380D01*
X76571428Y-38033333D01*
X76428571Y-38033333D01*
X76333333Y-38080952D01*
X76285714Y-38128571D01*
X76238095Y-38223809D01*
X76238095Y-38461904D01*
X76285714Y-38557142D01*
X76333333Y-38604761D01*
X76428571Y-38652380D01*
X76714285Y-38652380D01*
X76809523Y-38604761D01*
X76857142Y-38557142D01*
X28042857Y-40057142D02*
X28090476Y-40104761D01*
X28233333Y-40152380D01*
X28328571Y-40152380D01*
X28471428Y-40104761D01*
X28566666Y-40009523D01*
X28614285Y-39914285D01*
X28661904Y-39723809D01*
X28661904Y-39580952D01*
X28614285Y-39390476D01*
X28566666Y-39295238D01*
X28471428Y-39200000D01*
X28328571Y-39152380D01*
X28233333Y-39152380D01*
X28090476Y-39200000D01*
X28042857Y-39247619D01*
X27185714Y-39485714D02*
X27185714Y-40152380D01*
X27423809Y-39104761D02*
X27661904Y-39819047D01*
X27042857Y-39819047D01*
X26233333Y-39485714D02*
X26233333Y-40152380D01*
X26471428Y-39104761D02*
X26709523Y-39819047D01*
X26090476Y-39819047D01*
X78042857Y-49157142D02*
X78090476Y-49204761D01*
X78233333Y-49252380D01*
X78328571Y-49252380D01*
X78471428Y-49204761D01*
X78566666Y-49109523D01*
X78614285Y-49014285D01*
X78661904Y-48823809D01*
X78661904Y-48680952D01*
X78614285Y-48490476D01*
X78566666Y-48395238D01*
X78471428Y-48300000D01*
X78328571Y-48252380D01*
X78233333Y-48252380D01*
X78090476Y-48300000D01*
X78042857Y-48347619D01*
X77185714Y-48585714D02*
X77185714Y-49252380D01*
X77423809Y-48204761D02*
X77661904Y-48919047D01*
X77042857Y-48919047D01*
X76185714Y-48252380D02*
X76661904Y-48252380D01*
X76709523Y-48728571D01*
X76661904Y-48680952D01*
X76566666Y-48633333D01*
X76328571Y-48633333D01*
X76233333Y-48680952D01*
X76185714Y-48728571D01*
X76138095Y-48823809D01*
X76138095Y-49061904D01*
X76185714Y-49157142D01*
X76233333Y-49204761D01*
X76328571Y-49252380D01*
X76566666Y-49252380D01*
X76661904Y-49204761D01*
X76709523Y-49157142D01*
X28042857Y-50657142D02*
X28090476Y-50704761D01*
X28233333Y-50752380D01*
X28328571Y-50752380D01*
X28471428Y-50704761D01*
X28566666Y-50609523D01*
X28614285Y-50514285D01*
X28661904Y-50323809D01*
X28661904Y-50180952D01*
X28614285Y-49990476D01*
X28566666Y-49895238D01*
X28471428Y-49800000D01*
X28328571Y-49752380D01*
X28233333Y-49752380D01*
X28090476Y-49800000D01*
X28042857Y-49847619D01*
X27185714Y-50085714D02*
X27185714Y-50752380D01*
X27423809Y-49704761D02*
X27661904Y-50419047D01*
X27042857Y-50419047D01*
X26233333Y-49752380D02*
X26423809Y-49752380D01*
X26519047Y-49800000D01*
X26566666Y-49847619D01*
X26661904Y-49990476D01*
X26709523Y-50180952D01*
X26709523Y-50561904D01*
X26661904Y-50657142D01*
X26614285Y-50704761D01*
X26519047Y-50752380D01*
X26328571Y-50752380D01*
X26233333Y-50704761D01*
X26185714Y-50657142D01*
X26138095Y-50561904D01*
X26138095Y-50323809D01*
X26185714Y-50228571D01*
X26233333Y-50180952D01*
X26328571Y-50133333D01*
X26519047Y-50133333D01*
X26614285Y-50180952D01*
X26661904Y-50228571D01*
X26709523Y-50323809D01*
X75557142Y-17657142D02*
X75604761Y-17609523D01*
X75652380Y-17466666D01*
X75652380Y-17371428D01*
X75604761Y-17228571D01*
X75509523Y-17133333D01*
X75414285Y-17085714D01*
X75223809Y-17038095D01*
X75080952Y-17038095D01*
X74890476Y-17085714D01*
X74795238Y-17133333D01*
X74700000Y-17228571D01*
X74652380Y-17371428D01*
X74652380Y-17466666D01*
X74700000Y-17609523D01*
X74747619Y-17657142D01*
X74985714Y-18514285D02*
X75652380Y-18514285D01*
X74604761Y-18276190D02*
X75319047Y-18038095D01*
X75319047Y-18657142D01*
X74652380Y-18942857D02*
X74652380Y-19609523D01*
X75652380Y-19180952D01*
X77942857Y-59757142D02*
X77990476Y-59804761D01*
X78133333Y-59852380D01*
X78228571Y-59852380D01*
X78371428Y-59804761D01*
X78466666Y-59709523D01*
X78514285Y-59614285D01*
X78561904Y-59423809D01*
X78561904Y-59280952D01*
X78514285Y-59090476D01*
X78466666Y-58995238D01*
X78371428Y-58900000D01*
X78228571Y-58852380D01*
X78133333Y-58852380D01*
X77990476Y-58900000D01*
X77942857Y-58947619D01*
X77085714Y-59185714D02*
X77085714Y-59852380D01*
X77323809Y-58804761D02*
X77561904Y-59519047D01*
X76942857Y-59519047D01*
X76419047Y-59280952D02*
X76514285Y-59233333D01*
X76561904Y-59185714D01*
X76609523Y-59090476D01*
X76609523Y-59042857D01*
X76561904Y-58947619D01*
X76514285Y-58900000D01*
X76419047Y-58852380D01*
X76228571Y-58852380D01*
X76133333Y-58900000D01*
X76085714Y-58947619D01*
X76038095Y-59042857D01*
X76038095Y-59090476D01*
X76085714Y-59185714D01*
X76133333Y-59233333D01*
X76228571Y-59280952D01*
X76419047Y-59280952D01*
X76514285Y-59328571D01*
X76561904Y-59376190D01*
X76609523Y-59471428D01*
X76609523Y-59661904D01*
X76561904Y-59757142D01*
X76514285Y-59804761D01*
X76419047Y-59852380D01*
X76228571Y-59852380D01*
X76133333Y-59804761D01*
X76085714Y-59757142D01*
X76038095Y-59661904D01*
X76038095Y-59471428D01*
X76085714Y-59376190D01*
X76133333Y-59328571D01*
X76228571Y-59280952D01*
X27942857Y-61257142D02*
X27990476Y-61304761D01*
X28133333Y-61352380D01*
X28228571Y-61352380D01*
X28371428Y-61304761D01*
X28466666Y-61209523D01*
X28514285Y-61114285D01*
X28561904Y-60923809D01*
X28561904Y-60780952D01*
X28514285Y-60590476D01*
X28466666Y-60495238D01*
X28371428Y-60400000D01*
X28228571Y-60352380D01*
X28133333Y-60352380D01*
X27990476Y-60400000D01*
X27942857Y-60447619D01*
X27085714Y-60685714D02*
X27085714Y-61352380D01*
X27323809Y-60304761D02*
X27561904Y-61019047D01*
X26942857Y-61019047D01*
X26514285Y-61352380D02*
X26323809Y-61352380D01*
X26228571Y-61304761D01*
X26180952Y-61257142D01*
X26085714Y-61114285D01*
X26038095Y-60923809D01*
X26038095Y-60542857D01*
X26085714Y-60447619D01*
X26133333Y-60400000D01*
X26228571Y-60352380D01*
X26419047Y-60352380D01*
X26514285Y-60400000D01*
X26561904Y-60447619D01*
X26609523Y-60542857D01*
X26609523Y-60780952D01*
X26561904Y-60876190D01*
X26514285Y-60923809D01*
X26419047Y-60971428D01*
X26228571Y-60971428D01*
X26133333Y-60923809D01*
X26085714Y-60876190D01*
X26038095Y-60780952D01*
X78142857Y-70157142D02*
X78190476Y-70204761D01*
X78333333Y-70252380D01*
X78428571Y-70252380D01*
X78571428Y-70204761D01*
X78666666Y-70109523D01*
X78714285Y-70014285D01*
X78761904Y-69823809D01*
X78761904Y-69680952D01*
X78714285Y-69490476D01*
X78666666Y-69395238D01*
X78571428Y-69300000D01*
X78428571Y-69252380D01*
X78333333Y-69252380D01*
X78190476Y-69300000D01*
X78142857Y-69347619D01*
X77238095Y-69252380D02*
X77714285Y-69252380D01*
X77761904Y-69728571D01*
X77714285Y-69680952D01*
X77619047Y-69633333D01*
X77380952Y-69633333D01*
X77285714Y-69680952D01*
X77238095Y-69728571D01*
X77190476Y-69823809D01*
X77190476Y-70061904D01*
X77238095Y-70157142D01*
X77285714Y-70204761D01*
X77380952Y-70252380D01*
X77619047Y-70252380D01*
X77714285Y-70204761D01*
X77761904Y-70157142D01*
X76571428Y-69252380D02*
X76476190Y-69252380D01*
X76380952Y-69300000D01*
X76333333Y-69347619D01*
X76285714Y-69442857D01*
X76238095Y-69633333D01*
X76238095Y-69871428D01*
X76285714Y-70061904D01*
X76333333Y-70157142D01*
X76380952Y-70204761D01*
X76476190Y-70252380D01*
X76571428Y-70252380D01*
X76666666Y-70204761D01*
X76714285Y-70157142D01*
X76761904Y-70061904D01*
X76809523Y-69871428D01*
X76809523Y-69633333D01*
X76761904Y-69442857D01*
X76714285Y-69347619D01*
X76666666Y-69300000D01*
X76571428Y-69252380D01*
X28042857Y-71857142D02*
X28090476Y-71904761D01*
X28233333Y-71952380D01*
X28328571Y-71952380D01*
X28471428Y-71904761D01*
X28566666Y-71809523D01*
X28614285Y-71714285D01*
X28661904Y-71523809D01*
X28661904Y-71380952D01*
X28614285Y-71190476D01*
X28566666Y-71095238D01*
X28471428Y-71000000D01*
X28328571Y-70952380D01*
X28233333Y-70952380D01*
X28090476Y-71000000D01*
X28042857Y-71047619D01*
X27138095Y-70952380D02*
X27614285Y-70952380D01*
X27661904Y-71428571D01*
X27614285Y-71380952D01*
X27519047Y-71333333D01*
X27280952Y-71333333D01*
X27185714Y-71380952D01*
X27138095Y-71428571D01*
X27090476Y-71523809D01*
X27090476Y-71761904D01*
X27138095Y-71857142D01*
X27185714Y-71904761D01*
X27280952Y-71952380D01*
X27519047Y-71952380D01*
X27614285Y-71904761D01*
X27661904Y-71857142D01*
X26138095Y-71952380D02*
X26709523Y-71952380D01*
X26423809Y-71952380D02*
X26423809Y-70952380D01*
X26519047Y-71095238D01*
X26614285Y-71190476D01*
X26709523Y-71238095D01*
X78042857Y-80857142D02*
X78090476Y-80904761D01*
X78233333Y-80952380D01*
X78328571Y-80952380D01*
X78471428Y-80904761D01*
X78566666Y-80809523D01*
X78614285Y-80714285D01*
X78661904Y-80523809D01*
X78661904Y-80380952D01*
X78614285Y-80190476D01*
X78566666Y-80095238D01*
X78471428Y-80000000D01*
X78328571Y-79952380D01*
X78233333Y-79952380D01*
X78090476Y-80000000D01*
X78042857Y-80047619D01*
X77138095Y-79952380D02*
X77614285Y-79952380D01*
X77661904Y-80428571D01*
X77614285Y-80380952D01*
X77519047Y-80333333D01*
X77280952Y-80333333D01*
X77185714Y-80380952D01*
X77138095Y-80428571D01*
X77090476Y-80523809D01*
X77090476Y-80761904D01*
X77138095Y-80857142D01*
X77185714Y-80904761D01*
X77280952Y-80952380D01*
X77519047Y-80952380D01*
X77614285Y-80904761D01*
X77661904Y-80857142D01*
X76709523Y-80047619D02*
X76661904Y-80000000D01*
X76566666Y-79952380D01*
X76328571Y-79952380D01*
X76233333Y-80000000D01*
X76185714Y-80047619D01*
X76138095Y-80142857D01*
X76138095Y-80238095D01*
X76185714Y-80380952D01*
X76757142Y-80952380D01*
X76138095Y-80952380D01*
X27842857Y-82357142D02*
X27890476Y-82404761D01*
X28033333Y-82452380D01*
X28128571Y-82452380D01*
X28271428Y-82404761D01*
X28366666Y-82309523D01*
X28414285Y-82214285D01*
X28461904Y-82023809D01*
X28461904Y-81880952D01*
X28414285Y-81690476D01*
X28366666Y-81595238D01*
X28271428Y-81500000D01*
X28128571Y-81452380D01*
X28033333Y-81452380D01*
X27890476Y-81500000D01*
X27842857Y-81547619D01*
X26938095Y-81452380D02*
X27414285Y-81452380D01*
X27461904Y-81928571D01*
X27414285Y-81880952D01*
X27319047Y-81833333D01*
X27080952Y-81833333D01*
X26985714Y-81880952D01*
X26938095Y-81928571D01*
X26890476Y-82023809D01*
X26890476Y-82261904D01*
X26938095Y-82357142D01*
X26985714Y-82404761D01*
X27080952Y-82452380D01*
X27319047Y-82452380D01*
X27414285Y-82404761D01*
X27461904Y-82357142D01*
X26557142Y-81452380D02*
X25938095Y-81452380D01*
X26271428Y-81833333D01*
X26128571Y-81833333D01*
X26033333Y-81880952D01*
X25985714Y-81928571D01*
X25938095Y-82023809D01*
X25938095Y-82261904D01*
X25985714Y-82357142D01*
X26033333Y-82404761D01*
X26128571Y-82452380D01*
X26414285Y-82452380D01*
X26509523Y-82404761D01*
X26557142Y-82357142D01*
X96657142Y-71857142D02*
X96704761Y-71809523D01*
X96752380Y-71666666D01*
X96752380Y-71571428D01*
X96704761Y-71428571D01*
X96609523Y-71333333D01*
X96514285Y-71285714D01*
X96323809Y-71238095D01*
X96180952Y-71238095D01*
X95990476Y-71285714D01*
X95895238Y-71333333D01*
X95800000Y-71428571D01*
X95752380Y-71571428D01*
X95752380Y-71666666D01*
X95800000Y-71809523D01*
X95847619Y-71857142D01*
X95752380Y-72761904D02*
X95752380Y-72285714D01*
X96228571Y-72238095D01*
X96180952Y-72285714D01*
X96133333Y-72380952D01*
X96133333Y-72619047D01*
X96180952Y-72714285D01*
X96228571Y-72761904D01*
X96323809Y-72809523D01*
X96561904Y-72809523D01*
X96657142Y-72761904D01*
X96704761Y-72714285D01*
X96752380Y-72619047D01*
X96752380Y-72380952D01*
X96704761Y-72285714D01*
X96657142Y-72238095D01*
X96085714Y-73666666D02*
X96752380Y-73666666D01*
X95704761Y-73428571D02*
X96419047Y-73190476D01*
X96419047Y-73809523D01*
X89842857Y-63257142D02*
X89890476Y-63304761D01*
X90033333Y-63352380D01*
X90128571Y-63352380D01*
X90271428Y-63304761D01*
X90366666Y-63209523D01*
X90414285Y-63114285D01*
X90461904Y-62923809D01*
X90461904Y-62780952D01*
X90414285Y-62590476D01*
X90366666Y-62495238D01*
X90271428Y-62400000D01*
X90128571Y-62352380D01*
X90033333Y-62352380D01*
X89890476Y-62400000D01*
X89842857Y-62447619D01*
X88938095Y-62352380D02*
X89414285Y-62352380D01*
X89461904Y-62828571D01*
X89414285Y-62780952D01*
X89319047Y-62733333D01*
X89080952Y-62733333D01*
X88985714Y-62780952D01*
X88938095Y-62828571D01*
X88890476Y-62923809D01*
X88890476Y-63161904D01*
X88938095Y-63257142D01*
X88985714Y-63304761D01*
X89080952Y-63352380D01*
X89319047Y-63352380D01*
X89414285Y-63304761D01*
X89461904Y-63257142D01*
X87985714Y-62352380D02*
X88461904Y-62352380D01*
X88509523Y-62828571D01*
X88461904Y-62780952D01*
X88366666Y-62733333D01*
X88128571Y-62733333D01*
X88033333Y-62780952D01*
X87985714Y-62828571D01*
X87938095Y-62923809D01*
X87938095Y-63161904D01*
X87985714Y-63257142D01*
X88033333Y-63304761D01*
X88128571Y-63352380D01*
X88366666Y-63352380D01*
X88461904Y-63304761D01*
X88509523Y-63257142D01*
X109857142Y-84757142D02*
X109904761Y-84709523D01*
X109952380Y-84566666D01*
X109952380Y-84471428D01*
X109904761Y-84328571D01*
X109809523Y-84233333D01*
X109714285Y-84185714D01*
X109523809Y-84138095D01*
X109380952Y-84138095D01*
X109190476Y-84185714D01*
X109095238Y-84233333D01*
X109000000Y-84328571D01*
X108952380Y-84471428D01*
X108952380Y-84566666D01*
X109000000Y-84709523D01*
X109047619Y-84757142D01*
X108952380Y-85661904D02*
X108952380Y-85185714D01*
X109428571Y-85138095D01*
X109380952Y-85185714D01*
X109333333Y-85280952D01*
X109333333Y-85519047D01*
X109380952Y-85614285D01*
X109428571Y-85661904D01*
X109523809Y-85709523D01*
X109761904Y-85709523D01*
X109857142Y-85661904D01*
X109904761Y-85614285D01*
X109952380Y-85519047D01*
X109952380Y-85280952D01*
X109904761Y-85185714D01*
X109857142Y-85138095D01*
X108952380Y-86042857D02*
X108952380Y-86709523D01*
X109952380Y-86280952D01*
X111257142Y-84757142D02*
X111304761Y-84709523D01*
X111352380Y-84566666D01*
X111352380Y-84471428D01*
X111304761Y-84328571D01*
X111209523Y-84233333D01*
X111114285Y-84185714D01*
X110923809Y-84138095D01*
X110780952Y-84138095D01*
X110590476Y-84185714D01*
X110495238Y-84233333D01*
X110400000Y-84328571D01*
X110352380Y-84471428D01*
X110352380Y-84566666D01*
X110400000Y-84709523D01*
X110447619Y-84757142D01*
X110352380Y-85661904D02*
X110352380Y-85185714D01*
X110828571Y-85138095D01*
X110780952Y-85185714D01*
X110733333Y-85280952D01*
X110733333Y-85519047D01*
X110780952Y-85614285D01*
X110828571Y-85661904D01*
X110923809Y-85709523D01*
X111161904Y-85709523D01*
X111257142Y-85661904D01*
X111304761Y-85614285D01*
X111352380Y-85519047D01*
X111352380Y-85280952D01*
X111304761Y-85185714D01*
X111257142Y-85138095D01*
X110780952Y-86280952D02*
X110733333Y-86185714D01*
X110685714Y-86138095D01*
X110590476Y-86090476D01*
X110542857Y-86090476D01*
X110447619Y-86138095D01*
X110400000Y-86185714D01*
X110352380Y-86280952D01*
X110352380Y-86471428D01*
X110400000Y-86566666D01*
X110447619Y-86614285D01*
X110542857Y-86661904D01*
X110590476Y-86661904D01*
X110685714Y-86614285D01*
X110733333Y-86566666D01*
X110780952Y-86471428D01*
X110780952Y-86280952D01*
X110828571Y-86185714D01*
X110876190Y-86138095D01*
X110971428Y-86090476D01*
X111161904Y-86090476D01*
X111257142Y-86138095D01*
X111304761Y-86185714D01*
X111352380Y-86280952D01*
X111352380Y-86471428D01*
X111304761Y-86566666D01*
X111257142Y-86614285D01*
X111161904Y-86661904D01*
X110971428Y-86661904D01*
X110876190Y-86614285D01*
X110828571Y-86566666D01*
X110780952Y-86471428D01*
X111842857Y-56657142D02*
X111890476Y-56704761D01*
X112033333Y-56752380D01*
X112128571Y-56752380D01*
X112271428Y-56704761D01*
X112366666Y-56609523D01*
X112414285Y-56514285D01*
X112461904Y-56323809D01*
X112461904Y-56180952D01*
X112414285Y-55990476D01*
X112366666Y-55895238D01*
X112271428Y-55800000D01*
X112128571Y-55752380D01*
X112033333Y-55752380D01*
X111890476Y-55800000D01*
X111842857Y-55847619D01*
X110985714Y-55752380D02*
X111176190Y-55752380D01*
X111271428Y-55800000D01*
X111319047Y-55847619D01*
X111414285Y-55990476D01*
X111461904Y-56180952D01*
X111461904Y-56561904D01*
X111414285Y-56657142D01*
X111366666Y-56704761D01*
X111271428Y-56752380D01*
X111080952Y-56752380D01*
X110985714Y-56704761D01*
X110938095Y-56657142D01*
X110890476Y-56561904D01*
X110890476Y-56323809D01*
X110938095Y-56228571D01*
X110985714Y-56180952D01*
X111080952Y-56133333D01*
X111271428Y-56133333D01*
X111366666Y-56180952D01*
X111414285Y-56228571D01*
X111461904Y-56323809D01*
X110271428Y-55752380D02*
X110176190Y-55752380D01*
X110080952Y-55800000D01*
X110033333Y-55847619D01*
X109985714Y-55942857D01*
X109938095Y-56133333D01*
X109938095Y-56371428D01*
X109985714Y-56561904D01*
X110033333Y-56657142D01*
X110080952Y-56704761D01*
X110176190Y-56752380D01*
X110271428Y-56752380D01*
X110366666Y-56704761D01*
X110414285Y-56657142D01*
X110461904Y-56561904D01*
X110509523Y-56371428D01*
X110509523Y-56133333D01*
X110461904Y-55942857D01*
X110414285Y-55847619D01*
X110366666Y-55800000D01*
X110271428Y-55752380D01*
X141757142Y-53357142D02*
X141804761Y-53309523D01*
X141852380Y-53166666D01*
X141852380Y-53071428D01*
X141804761Y-52928571D01*
X141709523Y-52833333D01*
X141614285Y-52785714D01*
X141423809Y-52738095D01*
X141280952Y-52738095D01*
X141090476Y-52785714D01*
X140995238Y-52833333D01*
X140900000Y-52928571D01*
X140852380Y-53071428D01*
X140852380Y-53166666D01*
X140900000Y-53309523D01*
X140947619Y-53357142D01*
X140852380Y-54214285D02*
X140852380Y-54023809D01*
X140900000Y-53928571D01*
X140947619Y-53880952D01*
X141090476Y-53785714D01*
X141280952Y-53738095D01*
X141661904Y-53738095D01*
X141757142Y-53785714D01*
X141804761Y-53833333D01*
X141852380Y-53928571D01*
X141852380Y-54119047D01*
X141804761Y-54214285D01*
X141757142Y-54261904D01*
X141661904Y-54309523D01*
X141423809Y-54309523D01*
X141328571Y-54261904D01*
X141280952Y-54214285D01*
X141233333Y-54119047D01*
X141233333Y-53928571D01*
X141280952Y-53833333D01*
X141328571Y-53785714D01*
X141423809Y-53738095D01*
X140852380Y-54642857D02*
X140852380Y-55261904D01*
X141233333Y-54928571D01*
X141233333Y-55071428D01*
X141280952Y-55166666D01*
X141328571Y-55214285D01*
X141423809Y-55261904D01*
X141661904Y-55261904D01*
X141757142Y-55214285D01*
X141804761Y-55166666D01*
X141852380Y-55071428D01*
X141852380Y-54785714D01*
X141804761Y-54690476D01*
X141757142Y-54642857D01*
X124157142Y-84857142D02*
X124204761Y-84809523D01*
X124252380Y-84666666D01*
X124252380Y-84571428D01*
X124204761Y-84428571D01*
X124109523Y-84333333D01*
X124014285Y-84285714D01*
X123823809Y-84238095D01*
X123680952Y-84238095D01*
X123490476Y-84285714D01*
X123395238Y-84333333D01*
X123300000Y-84428571D01*
X123252380Y-84571428D01*
X123252380Y-84666666D01*
X123300000Y-84809523D01*
X123347619Y-84857142D01*
X123252380Y-85714285D02*
X123252380Y-85523809D01*
X123300000Y-85428571D01*
X123347619Y-85380952D01*
X123490476Y-85285714D01*
X123680952Y-85238095D01*
X124061904Y-85238095D01*
X124157142Y-85285714D01*
X124204761Y-85333333D01*
X124252380Y-85428571D01*
X124252380Y-85619047D01*
X124204761Y-85714285D01*
X124157142Y-85761904D01*
X124061904Y-85809523D01*
X123823809Y-85809523D01*
X123728571Y-85761904D01*
X123680952Y-85714285D01*
X123633333Y-85619047D01*
X123633333Y-85428571D01*
X123680952Y-85333333D01*
X123728571Y-85285714D01*
X123823809Y-85238095D01*
X123585714Y-86666666D02*
X124252380Y-86666666D01*
X123204761Y-86428571D02*
X123919047Y-86190476D01*
X123919047Y-86809523D01*
X122657142Y-84857142D02*
X122704761Y-84809523D01*
X122752380Y-84666666D01*
X122752380Y-84571428D01*
X122704761Y-84428571D01*
X122609523Y-84333333D01*
X122514285Y-84285714D01*
X122323809Y-84238095D01*
X122180952Y-84238095D01*
X121990476Y-84285714D01*
X121895238Y-84333333D01*
X121800000Y-84428571D01*
X121752380Y-84571428D01*
X121752380Y-84666666D01*
X121800000Y-84809523D01*
X121847619Y-84857142D01*
X121752380Y-85714285D02*
X121752380Y-85523809D01*
X121800000Y-85428571D01*
X121847619Y-85380952D01*
X121990476Y-85285714D01*
X122180952Y-85238095D01*
X122561904Y-85238095D01*
X122657142Y-85285714D01*
X122704761Y-85333333D01*
X122752380Y-85428571D01*
X122752380Y-85619047D01*
X122704761Y-85714285D01*
X122657142Y-85761904D01*
X122561904Y-85809523D01*
X122323809Y-85809523D01*
X122228571Y-85761904D01*
X122180952Y-85714285D01*
X122133333Y-85619047D01*
X122133333Y-85428571D01*
X122180952Y-85333333D01*
X122228571Y-85285714D01*
X122323809Y-85238095D01*
X121752380Y-86714285D02*
X121752380Y-86238095D01*
X122228571Y-86190476D01*
X122180952Y-86238095D01*
X122133333Y-86333333D01*
X122133333Y-86571428D01*
X122180952Y-86666666D01*
X122228571Y-86714285D01*
X122323809Y-86761904D01*
X122561904Y-86761904D01*
X122657142Y-86714285D01*
X122704761Y-86666666D01*
X122752380Y-86571428D01*
X122752380Y-86333333D01*
X122704761Y-86238095D01*
X122657142Y-86190476D01*
X145507142Y-41294642D02*
X145554761Y-41247023D01*
X145602380Y-41104166D01*
X145602380Y-41008928D01*
X145554761Y-40866071D01*
X145459523Y-40770833D01*
X145364285Y-40723214D01*
X145173809Y-40675595D01*
X145030952Y-40675595D01*
X144840476Y-40723214D01*
X144745238Y-40770833D01*
X144650000Y-40866071D01*
X144602380Y-41008928D01*
X144602380Y-41104166D01*
X144650000Y-41247023D01*
X144697619Y-41294642D01*
X144602380Y-42151785D02*
X144602380Y-41961309D01*
X144650000Y-41866071D01*
X144697619Y-41818452D01*
X144840476Y-41723214D01*
X145030952Y-41675595D01*
X145411904Y-41675595D01*
X145507142Y-41723214D01*
X145554761Y-41770833D01*
X145602380Y-41866071D01*
X145602380Y-42056547D01*
X145554761Y-42151785D01*
X145507142Y-42199404D01*
X145411904Y-42247023D01*
X145173809Y-42247023D01*
X145078571Y-42199404D01*
X145030952Y-42151785D01*
X144983333Y-42056547D01*
X144983333Y-41866071D01*
X145030952Y-41770833D01*
X145078571Y-41723214D01*
X145173809Y-41675595D01*
X144602380Y-43104166D02*
X144602380Y-42913690D01*
X144650000Y-42818452D01*
X144697619Y-42770833D01*
X144840476Y-42675595D01*
X145030952Y-42627976D01*
X145411904Y-42627976D01*
X145507142Y-42675595D01*
X145554761Y-42723214D01*
X145602380Y-42818452D01*
X145602380Y-43008928D01*
X145554761Y-43104166D01*
X145507142Y-43151785D01*
X145411904Y-43199404D01*
X145173809Y-43199404D01*
X145078571Y-43151785D01*
X145030952Y-43104166D01*
X144983333Y-43008928D01*
X144983333Y-42818452D01*
X145030952Y-42723214D01*
X145078571Y-42675595D01*
X145173809Y-42627976D01*
X109757142Y-68457142D02*
X109804761Y-68409523D01*
X109852380Y-68266666D01*
X109852380Y-68171428D01*
X109804761Y-68028571D01*
X109709523Y-67933333D01*
X109614285Y-67885714D01*
X109423809Y-67838095D01*
X109280952Y-67838095D01*
X109090476Y-67885714D01*
X108995238Y-67933333D01*
X108900000Y-68028571D01*
X108852380Y-68171428D01*
X108852380Y-68266666D01*
X108900000Y-68409523D01*
X108947619Y-68457142D01*
X108852380Y-69314285D02*
X108852380Y-69123809D01*
X108900000Y-69028571D01*
X108947619Y-68980952D01*
X109090476Y-68885714D01*
X109280952Y-68838095D01*
X109661904Y-68838095D01*
X109757142Y-68885714D01*
X109804761Y-68933333D01*
X109852380Y-69028571D01*
X109852380Y-69219047D01*
X109804761Y-69314285D01*
X109757142Y-69361904D01*
X109661904Y-69409523D01*
X109423809Y-69409523D01*
X109328571Y-69361904D01*
X109280952Y-69314285D01*
X109233333Y-69219047D01*
X109233333Y-69028571D01*
X109280952Y-68933333D01*
X109328571Y-68885714D01*
X109423809Y-68838095D01*
X109280952Y-69980952D02*
X109233333Y-69885714D01*
X109185714Y-69838095D01*
X109090476Y-69790476D01*
X109042857Y-69790476D01*
X108947619Y-69838095D01*
X108900000Y-69885714D01*
X108852380Y-69980952D01*
X108852380Y-70171428D01*
X108900000Y-70266666D01*
X108947619Y-70314285D01*
X109042857Y-70361904D01*
X109090476Y-70361904D01*
X109185714Y-70314285D01*
X109233333Y-70266666D01*
X109280952Y-70171428D01*
X109280952Y-69980952D01*
X109328571Y-69885714D01*
X109376190Y-69838095D01*
X109471428Y-69790476D01*
X109661904Y-69790476D01*
X109757142Y-69838095D01*
X109804761Y-69885714D01*
X109852380Y-69980952D01*
X109852380Y-70171428D01*
X109804761Y-70266666D01*
X109757142Y-70314285D01*
X109661904Y-70361904D01*
X109471428Y-70361904D01*
X109376190Y-70314285D01*
X109328571Y-70266666D01*
X109280952Y-70171428D01*
X135157142Y-21157142D02*
X135204761Y-21109523D01*
X135252380Y-20966666D01*
X135252380Y-20871428D01*
X135204761Y-20728571D01*
X135109523Y-20633333D01*
X135014285Y-20585714D01*
X134823809Y-20538095D01*
X134680952Y-20538095D01*
X134490476Y-20585714D01*
X134395238Y-20633333D01*
X134300000Y-20728571D01*
X134252380Y-20871428D01*
X134252380Y-20966666D01*
X134300000Y-21109523D01*
X134347619Y-21157142D01*
X134252380Y-21490476D02*
X134252380Y-22157142D01*
X135252380Y-21728571D01*
X134252380Y-22728571D02*
X134252380Y-22823809D01*
X134300000Y-22919047D01*
X134347619Y-22966666D01*
X134442857Y-23014285D01*
X134633333Y-23061904D01*
X134871428Y-23061904D01*
X135061904Y-23014285D01*
X135157142Y-22966666D01*
X135204761Y-22919047D01*
X135252380Y-22823809D01*
X135252380Y-22728571D01*
X135204761Y-22633333D01*
X135157142Y-22585714D01*
X135061904Y-22538095D01*
X134871428Y-22490476D01*
X134633333Y-22490476D01*
X134442857Y-22538095D01*
X134347619Y-22585714D01*
X134300000Y-22633333D01*
X134252380Y-22728571D01*
X137357142Y-21157142D02*
X137404761Y-21109523D01*
X137452380Y-20966666D01*
X137452380Y-20871428D01*
X137404761Y-20728571D01*
X137309523Y-20633333D01*
X137214285Y-20585714D01*
X137023809Y-20538095D01*
X136880952Y-20538095D01*
X136690476Y-20585714D01*
X136595238Y-20633333D01*
X136500000Y-20728571D01*
X136452380Y-20871428D01*
X136452380Y-20966666D01*
X136500000Y-21109523D01*
X136547619Y-21157142D01*
X136452380Y-21490476D02*
X136452380Y-22157142D01*
X137452380Y-21728571D01*
X137452380Y-23061904D02*
X137452380Y-22490476D01*
X137452380Y-22776190D02*
X136452380Y-22776190D01*
X136595238Y-22680952D01*
X136690476Y-22585714D01*
X136738095Y-22490476D01*
X139557142Y-21157142D02*
X139604761Y-21109523D01*
X139652380Y-20966666D01*
X139652380Y-20871428D01*
X139604761Y-20728571D01*
X139509523Y-20633333D01*
X139414285Y-20585714D01*
X139223809Y-20538095D01*
X139080952Y-20538095D01*
X138890476Y-20585714D01*
X138795238Y-20633333D01*
X138700000Y-20728571D01*
X138652380Y-20871428D01*
X138652380Y-20966666D01*
X138700000Y-21109523D01*
X138747619Y-21157142D01*
X138652380Y-21490476D02*
X138652380Y-22157142D01*
X139652380Y-21728571D01*
X138747619Y-22490476D02*
X138700000Y-22538095D01*
X138652380Y-22633333D01*
X138652380Y-22871428D01*
X138700000Y-22966666D01*
X138747619Y-23014285D01*
X138842857Y-23061904D01*
X138938095Y-23061904D01*
X139080952Y-23014285D01*
X139652380Y-22442857D01*
X139652380Y-23061904D01*
X111257142Y-68457142D02*
X111304761Y-68409523D01*
X111352380Y-68266666D01*
X111352380Y-68171428D01*
X111304761Y-68028571D01*
X111209523Y-67933333D01*
X111114285Y-67885714D01*
X110923809Y-67838095D01*
X110780952Y-67838095D01*
X110590476Y-67885714D01*
X110495238Y-67933333D01*
X110400000Y-68028571D01*
X110352380Y-68171428D01*
X110352380Y-68266666D01*
X110400000Y-68409523D01*
X110447619Y-68457142D01*
X110352380Y-68790476D02*
X110352380Y-69457142D01*
X111352380Y-69028571D01*
X110352380Y-69742857D02*
X110352380Y-70361904D01*
X110733333Y-70028571D01*
X110733333Y-70171428D01*
X110780952Y-70266666D01*
X110828571Y-70314285D01*
X110923809Y-70361904D01*
X111161904Y-70361904D01*
X111257142Y-70314285D01*
X111304761Y-70266666D01*
X111352380Y-70171428D01*
X111352380Y-69885714D01*
X111304761Y-69790476D01*
X111257142Y-69742857D01*
X63238095Y-20052380D02*
X63238095Y-19052380D01*
X63000000Y-19052380D01*
X62857142Y-19100000D01*
X62761904Y-19195238D01*
X62714285Y-19290476D01*
X62666666Y-19480952D01*
X62666666Y-19623809D01*
X62714285Y-19814285D01*
X62761904Y-19909523D01*
X62857142Y-20004761D01*
X63000000Y-20052380D01*
X63238095Y-20052380D01*
X61714285Y-20052380D02*
X62285714Y-20052380D01*
X62000000Y-20052380D02*
X62000000Y-19052380D01*
X62095238Y-19195238D01*
X62190476Y-19290476D01*
X62285714Y-19338095D01*
X63238095Y-16552380D02*
X63238095Y-15552380D01*
X63000000Y-15552380D01*
X62857142Y-15600000D01*
X62761904Y-15695238D01*
X62714285Y-15790476D01*
X62666666Y-15980952D01*
X62666666Y-16123809D01*
X62714285Y-16314285D01*
X62761904Y-16409523D01*
X62857142Y-16504761D01*
X63000000Y-16552380D01*
X63238095Y-16552380D01*
X62285714Y-15647619D02*
X62238095Y-15600000D01*
X62142857Y-15552380D01*
X61904761Y-15552380D01*
X61809523Y-15600000D01*
X61761904Y-15647619D01*
X61714285Y-15742857D01*
X61714285Y-15838095D01*
X61761904Y-15980952D01*
X62333333Y-16552380D01*
X61714285Y-16552380D01*
X94338095Y-62752380D02*
X94338095Y-61752380D01*
X94100000Y-61752380D01*
X93957142Y-61800000D01*
X93861904Y-61895238D01*
X93814285Y-61990476D01*
X93766666Y-62180952D01*
X93766666Y-62323809D01*
X93814285Y-62514285D01*
X93861904Y-62609523D01*
X93957142Y-62704761D01*
X94100000Y-62752380D01*
X94338095Y-62752380D01*
X93433333Y-61752380D02*
X92814285Y-61752380D01*
X93147619Y-62133333D01*
X93004761Y-62133333D01*
X92909523Y-62180952D01*
X92861904Y-62228571D01*
X92814285Y-62323809D01*
X92814285Y-62561904D01*
X92861904Y-62657142D01*
X92909523Y-62704761D01*
X93004761Y-62752380D01*
X93290476Y-62752380D01*
X93385714Y-62704761D01*
X93433333Y-62657142D01*
X144352380Y-57261904D02*
X143352380Y-57261904D01*
X143352380Y-57500000D01*
X143400000Y-57642857D01*
X143495238Y-57738095D01*
X143590476Y-57785714D01*
X143780952Y-57833333D01*
X143923809Y-57833333D01*
X144114285Y-57785714D01*
X144209523Y-57738095D01*
X144304761Y-57642857D01*
X144352380Y-57500000D01*
X144352380Y-57261904D01*
X143685714Y-58690476D02*
X144352380Y-58690476D01*
X143304761Y-58452380D02*
X144019047Y-58214285D01*
X144019047Y-58833333D01*
X92533333Y-47528571D02*
X92866666Y-47528571D01*
X92866666Y-48052380D02*
X92866666Y-47052380D01*
X92390476Y-47052380D01*
X91676190Y-47528571D02*
X91533333Y-47576190D01*
X91485714Y-47623809D01*
X91438095Y-47719047D01*
X91438095Y-47861904D01*
X91485714Y-47957142D01*
X91533333Y-48004761D01*
X91628571Y-48052380D01*
X92009523Y-48052380D01*
X92009523Y-47052380D01*
X91676190Y-47052380D01*
X91580952Y-47100000D01*
X91533333Y-47147619D01*
X91485714Y-47242857D01*
X91485714Y-47338095D01*
X91533333Y-47433333D01*
X91580952Y-47480952D01*
X91676190Y-47528571D01*
X92009523Y-47528571D01*
X90485714Y-48052380D02*
X91057142Y-48052380D01*
X90771428Y-48052380D02*
X90771428Y-47052380D01*
X90866666Y-47195238D01*
X90961904Y-47290476D01*
X91057142Y-47338095D01*
X109583333Y-78178571D02*
X109916666Y-78178571D01*
X109916666Y-78702380D02*
X109916666Y-77702380D01*
X109440476Y-77702380D01*
X108726190Y-78178571D02*
X108583333Y-78226190D01*
X108535714Y-78273809D01*
X108488095Y-78369047D01*
X108488095Y-78511904D01*
X108535714Y-78607142D01*
X108583333Y-78654761D01*
X108678571Y-78702380D01*
X109059523Y-78702380D01*
X109059523Y-77702380D01*
X108726190Y-77702380D01*
X108630952Y-77750000D01*
X108583333Y-77797619D01*
X108535714Y-77892857D01*
X108535714Y-77988095D01*
X108583333Y-78083333D01*
X108630952Y-78130952D01*
X108726190Y-78178571D01*
X109059523Y-78178571D01*
X108107142Y-77797619D02*
X108059523Y-77750000D01*
X107964285Y-77702380D01*
X107726190Y-77702380D01*
X107630952Y-77750000D01*
X107583333Y-77797619D01*
X107535714Y-77892857D01*
X107535714Y-77988095D01*
X107583333Y-78130952D01*
X108154761Y-78702380D01*
X107535714Y-78702380D01*
X109533333Y-76128571D02*
X109866666Y-76128571D01*
X109866666Y-76652380D02*
X109866666Y-75652380D01*
X109390476Y-75652380D01*
X108676190Y-76128571D02*
X108533333Y-76176190D01*
X108485714Y-76223809D01*
X108438095Y-76319047D01*
X108438095Y-76461904D01*
X108485714Y-76557142D01*
X108533333Y-76604761D01*
X108628571Y-76652380D01*
X109009523Y-76652380D01*
X109009523Y-75652380D01*
X108676190Y-75652380D01*
X108580952Y-75700000D01*
X108533333Y-75747619D01*
X108485714Y-75842857D01*
X108485714Y-75938095D01*
X108533333Y-76033333D01*
X108580952Y-76080952D01*
X108676190Y-76128571D01*
X109009523Y-76128571D01*
X108104761Y-75652380D02*
X107485714Y-75652380D01*
X107819047Y-76033333D01*
X107676190Y-76033333D01*
X107580952Y-76080952D01*
X107533333Y-76128571D01*
X107485714Y-76223809D01*
X107485714Y-76461904D01*
X107533333Y-76557142D01*
X107580952Y-76604761D01*
X107676190Y-76652380D01*
X107961904Y-76652380D01*
X108057142Y-76604761D01*
X108104761Y-76557142D01*
X143895238Y-55847619D02*
X143990476Y-55800000D01*
X144085714Y-55704761D01*
X144228571Y-55561904D01*
X144323809Y-55514285D01*
X144419047Y-55514285D01*
X144371428Y-55752380D02*
X144466666Y-55704761D01*
X144561904Y-55609523D01*
X144609523Y-55419047D01*
X144609523Y-55085714D01*
X144561904Y-54895238D01*
X144466666Y-54800000D01*
X144371428Y-54752380D01*
X144180952Y-54752380D01*
X144085714Y-54800000D01*
X143990476Y-54895238D01*
X143942857Y-55085714D01*
X143942857Y-55419047D01*
X143990476Y-55609523D01*
X144085714Y-55704761D01*
X144180952Y-55752380D01*
X144371428Y-55752380D01*
X142990476Y-55752380D02*
X143561904Y-55752380D01*
X143276190Y-55752380D02*
X143276190Y-54752380D01*
X143371428Y-54895238D01*
X143466666Y-54990476D01*
X143561904Y-55038095D01*
X103995238Y-54447619D02*
X104090476Y-54400000D01*
X104185714Y-54304761D01*
X104328571Y-54161904D01*
X104423809Y-54114285D01*
X104519047Y-54114285D01*
X104471428Y-54352380D02*
X104566666Y-54304761D01*
X104661904Y-54209523D01*
X104709523Y-54019047D01*
X104709523Y-53685714D01*
X104661904Y-53495238D01*
X104566666Y-53400000D01*
X104471428Y-53352380D01*
X104280952Y-53352380D01*
X104185714Y-53400000D01*
X104090476Y-53495238D01*
X104042857Y-53685714D01*
X104042857Y-54019047D01*
X104090476Y-54209523D01*
X104185714Y-54304761D01*
X104280952Y-54352380D01*
X104471428Y-54352380D01*
X103661904Y-53447619D02*
X103614285Y-53400000D01*
X103519047Y-53352380D01*
X103280952Y-53352380D01*
X103185714Y-53400000D01*
X103138095Y-53447619D01*
X103090476Y-53542857D01*
X103090476Y-53638095D01*
X103138095Y-53780952D01*
X103709523Y-54352380D01*
X103090476Y-54352380D01*
X86166666Y-20152380D02*
X86500000Y-19676190D01*
X86738095Y-20152380D02*
X86738095Y-19152380D01*
X86357142Y-19152380D01*
X86261904Y-19200000D01*
X86214285Y-19247619D01*
X86166666Y-19342857D01*
X86166666Y-19485714D01*
X86214285Y-19580952D01*
X86261904Y-19628571D01*
X86357142Y-19676190D01*
X86738095Y-19676190D01*
X85214285Y-20152380D02*
X85785714Y-20152380D01*
X85500000Y-20152380D02*
X85500000Y-19152380D01*
X85595238Y-19295238D01*
X85690476Y-19390476D01*
X85785714Y-19438095D01*
X81266666Y-23402380D02*
X81600000Y-22926190D01*
X81838095Y-23402380D02*
X81838095Y-22402380D01*
X81457142Y-22402380D01*
X81361904Y-22450000D01*
X81314285Y-22497619D01*
X81266666Y-22592857D01*
X81266666Y-22735714D01*
X81314285Y-22830952D01*
X81361904Y-22878571D01*
X81457142Y-22926190D01*
X81838095Y-22926190D01*
X80885714Y-22497619D02*
X80838095Y-22450000D01*
X80742857Y-22402380D01*
X80504761Y-22402380D01*
X80409523Y-22450000D01*
X80361904Y-22497619D01*
X80314285Y-22592857D01*
X80314285Y-22688095D01*
X80361904Y-22830952D01*
X80933333Y-23402380D01*
X80314285Y-23402380D01*
X81166666Y-25902380D02*
X81500000Y-25426190D01*
X81738095Y-25902380D02*
X81738095Y-24902380D01*
X81357142Y-24902380D01*
X81261904Y-24950000D01*
X81214285Y-24997619D01*
X81166666Y-25092857D01*
X81166666Y-25235714D01*
X81214285Y-25330952D01*
X81261904Y-25378571D01*
X81357142Y-25426190D01*
X81738095Y-25426190D01*
X80833333Y-24902380D02*
X80214285Y-24902380D01*
X80547619Y-25283333D01*
X80404761Y-25283333D01*
X80309523Y-25330952D01*
X80261904Y-25378571D01*
X80214285Y-25473809D01*
X80214285Y-25711904D01*
X80261904Y-25807142D01*
X80309523Y-25854761D01*
X80404761Y-25902380D01*
X80690476Y-25902380D01*
X80785714Y-25854761D01*
X80833333Y-25807142D01*
X73666666Y-20052380D02*
X74000000Y-19576190D01*
X74238095Y-20052380D02*
X74238095Y-19052380D01*
X73857142Y-19052380D01*
X73761904Y-19100000D01*
X73714285Y-19147619D01*
X73666666Y-19242857D01*
X73666666Y-19385714D01*
X73714285Y-19480952D01*
X73761904Y-19528571D01*
X73857142Y-19576190D01*
X74238095Y-19576190D01*
X72761904Y-19052380D02*
X73238095Y-19052380D01*
X73285714Y-19528571D01*
X73238095Y-19480952D01*
X73142857Y-19433333D01*
X72904761Y-19433333D01*
X72809523Y-19480952D01*
X72761904Y-19528571D01*
X72714285Y-19623809D01*
X72714285Y-19861904D01*
X72761904Y-19957142D01*
X72809523Y-20004761D01*
X72904761Y-20052380D01*
X73142857Y-20052380D01*
X73238095Y-20004761D01*
X73285714Y-19957142D01*
X74542857Y-16552380D02*
X74876190Y-16076190D01*
X75114285Y-16552380D02*
X75114285Y-15552380D01*
X74733333Y-15552380D01*
X74638095Y-15600000D01*
X74590476Y-15647619D01*
X74542857Y-15742857D01*
X74542857Y-15885714D01*
X74590476Y-15980952D01*
X74638095Y-16028571D01*
X74733333Y-16076190D01*
X75114285Y-16076190D01*
X73590476Y-16552380D02*
X74161904Y-16552380D01*
X73876190Y-16552380D02*
X73876190Y-15552380D01*
X73971428Y-15695238D01*
X74066666Y-15790476D01*
X74161904Y-15838095D01*
X72971428Y-15552380D02*
X72876190Y-15552380D01*
X72780952Y-15600000D01*
X72733333Y-15647619D01*
X72685714Y-15742857D01*
X72638095Y-15933333D01*
X72638095Y-16171428D01*
X72685714Y-16361904D01*
X72733333Y-16457142D01*
X72780952Y-16504761D01*
X72876190Y-16552380D01*
X72971428Y-16552380D01*
X73066666Y-16504761D01*
X73114285Y-16457142D01*
X73161904Y-16361904D01*
X73209523Y-16171428D01*
X73209523Y-15933333D01*
X73161904Y-15742857D01*
X73114285Y-15647619D01*
X73066666Y-15600000D01*
X72971428Y-15552380D01*
X72952380Y-8594642D02*
X72476190Y-8261309D01*
X72952380Y-8023214D02*
X71952380Y-8023214D01*
X71952380Y-8404166D01*
X72000000Y-8499404D01*
X72047619Y-8547023D01*
X72142857Y-8594642D01*
X72285714Y-8594642D01*
X72380952Y-8547023D01*
X72428571Y-8499404D01*
X72476190Y-8404166D01*
X72476190Y-8023214D01*
X72952380Y-9547023D02*
X72952380Y-8975595D01*
X72952380Y-9261309D02*
X71952380Y-9261309D01*
X72095238Y-9166071D01*
X72190476Y-9070833D01*
X72238095Y-8975595D01*
X72952380Y-10499404D02*
X72952380Y-9927976D01*
X72952380Y-10213690D02*
X71952380Y-10213690D01*
X72095238Y-10118452D01*
X72190476Y-10023214D01*
X72238095Y-9927976D01*
X81642857Y-11202380D02*
X81976190Y-10726190D01*
X82214285Y-11202380D02*
X82214285Y-10202380D01*
X81833333Y-10202380D01*
X81738095Y-10250000D01*
X81690476Y-10297619D01*
X81642857Y-10392857D01*
X81642857Y-10535714D01*
X81690476Y-10630952D01*
X81738095Y-10678571D01*
X81833333Y-10726190D01*
X82214285Y-10726190D01*
X80690476Y-11202380D02*
X81261904Y-11202380D01*
X80976190Y-11202380D02*
X80976190Y-10202380D01*
X81071428Y-10345238D01*
X81166666Y-10440476D01*
X81261904Y-10488095D01*
X80309523Y-10297619D02*
X80261904Y-10250000D01*
X80166666Y-10202380D01*
X79928571Y-10202380D01*
X79833333Y-10250000D01*
X79785714Y-10297619D01*
X79738095Y-10392857D01*
X79738095Y-10488095D01*
X79785714Y-10630952D01*
X80357142Y-11202380D01*
X79738095Y-11202380D01*
X81592857Y-13552380D02*
X81926190Y-13076190D01*
X82164285Y-13552380D02*
X82164285Y-12552380D01*
X81783333Y-12552380D01*
X81688095Y-12600000D01*
X81640476Y-12647619D01*
X81592857Y-12742857D01*
X81592857Y-12885714D01*
X81640476Y-12980952D01*
X81688095Y-13028571D01*
X81783333Y-13076190D01*
X82164285Y-13076190D01*
X80640476Y-13552380D02*
X81211904Y-13552380D01*
X80926190Y-13552380D02*
X80926190Y-12552380D01*
X81021428Y-12695238D01*
X81116666Y-12790476D01*
X81211904Y-12838095D01*
X80307142Y-12552380D02*
X79688095Y-12552380D01*
X80021428Y-12933333D01*
X79878571Y-12933333D01*
X79783333Y-12980952D01*
X79735714Y-13028571D01*
X79688095Y-13123809D01*
X79688095Y-13361904D01*
X79735714Y-13457142D01*
X79783333Y-13504761D01*
X79878571Y-13552380D01*
X80164285Y-13552380D01*
X80259523Y-13504761D01*
X80307142Y-13457142D01*
X87042857Y-16552380D02*
X87376190Y-16076190D01*
X87614285Y-16552380D02*
X87614285Y-15552380D01*
X87233333Y-15552380D01*
X87138095Y-15600000D01*
X87090476Y-15647619D01*
X87042857Y-15742857D01*
X87042857Y-15885714D01*
X87090476Y-15980952D01*
X87138095Y-16028571D01*
X87233333Y-16076190D01*
X87614285Y-16076190D01*
X86090476Y-16552380D02*
X86661904Y-16552380D01*
X86376190Y-16552380D02*
X86376190Y-15552380D01*
X86471428Y-15695238D01*
X86566666Y-15790476D01*
X86661904Y-15838095D01*
X85185714Y-15552380D02*
X85661904Y-15552380D01*
X85709523Y-16028571D01*
X85661904Y-15980952D01*
X85566666Y-15933333D01*
X85328571Y-15933333D01*
X85233333Y-15980952D01*
X85185714Y-16028571D01*
X85138095Y-16123809D01*
X85138095Y-16361904D01*
X85185714Y-16457142D01*
X85233333Y-16504761D01*
X85328571Y-16552380D01*
X85566666Y-16552380D01*
X85661904Y-16504761D01*
X85709523Y-16457142D01*
X111842857Y-58952380D02*
X112176190Y-58476190D01*
X112414285Y-58952380D02*
X112414285Y-57952380D01*
X112033333Y-57952380D01*
X111938095Y-58000000D01*
X111890476Y-58047619D01*
X111842857Y-58142857D01*
X111842857Y-58285714D01*
X111890476Y-58380952D01*
X111938095Y-58428571D01*
X112033333Y-58476190D01*
X112414285Y-58476190D01*
X111509523Y-57952380D02*
X110890476Y-57952380D01*
X111223809Y-58333333D01*
X111080952Y-58333333D01*
X110985714Y-58380952D01*
X110938095Y-58428571D01*
X110890476Y-58523809D01*
X110890476Y-58761904D01*
X110938095Y-58857142D01*
X110985714Y-58904761D01*
X111080952Y-58952380D01*
X111366666Y-58952380D01*
X111461904Y-58904761D01*
X111509523Y-58857142D01*
X109938095Y-58952380D02*
X110509523Y-58952380D01*
X110223809Y-58952380D02*
X110223809Y-57952380D01*
X110319047Y-58095238D01*
X110414285Y-58190476D01*
X110509523Y-58238095D01*
X133252380Y-31357142D02*
X132776190Y-31023809D01*
X133252380Y-30785714D02*
X132252380Y-30785714D01*
X132252380Y-31166666D01*
X132300000Y-31261904D01*
X132347619Y-31309523D01*
X132442857Y-31357142D01*
X132585714Y-31357142D01*
X132680952Y-31309523D01*
X132728571Y-31261904D01*
X132776190Y-31166666D01*
X132776190Y-30785714D01*
X132252380Y-31690476D02*
X132252380Y-32309523D01*
X132633333Y-31976190D01*
X132633333Y-32119047D01*
X132680952Y-32214285D01*
X132728571Y-32261904D01*
X132823809Y-32309523D01*
X133061904Y-32309523D01*
X133157142Y-32261904D01*
X133204761Y-32214285D01*
X133252380Y-32119047D01*
X133252380Y-31833333D01*
X133204761Y-31738095D01*
X133157142Y-31690476D01*
X132347619Y-32690476D02*
X132300000Y-32738095D01*
X132252380Y-32833333D01*
X132252380Y-33071428D01*
X132300000Y-33166666D01*
X132347619Y-33214285D01*
X132442857Y-33261904D01*
X132538095Y-33261904D01*
X132680952Y-33214285D01*
X133252380Y-32642857D01*
X133252380Y-33261904D01*
X81661904Y-88152380D02*
X81090476Y-88152380D01*
X81376190Y-89152380D02*
X81376190Y-88152380D01*
X80757142Y-89152380D02*
X80757142Y-88152380D01*
X80376190Y-88152380D01*
X80280952Y-88200000D01*
X80233333Y-88247619D01*
X80185714Y-88342857D01*
X80185714Y-88485714D01*
X80233333Y-88580952D01*
X80280952Y-88628571D01*
X80376190Y-88676190D01*
X80757142Y-88676190D01*
X79280952Y-88152380D02*
X79757142Y-88152380D01*
X79804761Y-88628571D01*
X79757142Y-88580952D01*
X79661904Y-88533333D01*
X79423809Y-88533333D01*
X79328571Y-88580952D01*
X79280952Y-88628571D01*
X79233333Y-88723809D01*
X79233333Y-88961904D01*
X79280952Y-89057142D01*
X79328571Y-89104761D01*
X79423809Y-89152380D01*
X79661904Y-89152380D01*
X79757142Y-89104761D01*
X79804761Y-89057142D01*
X80052380Y-18738095D02*
X80861904Y-18738095D01*
X80957142Y-18785714D01*
X81004761Y-18833333D01*
X81052380Y-18928571D01*
X81052380Y-19119047D01*
X81004761Y-19214285D01*
X80957142Y-19261904D01*
X80861904Y-19309523D01*
X80052380Y-19309523D01*
X81052380Y-20309523D02*
X81052380Y-19738095D01*
X81052380Y-20023809D02*
X80052380Y-20023809D01*
X80195238Y-19928571D01*
X80290476Y-19833333D01*
X80338095Y-19738095D01*
X95202380Y-79988095D02*
X96011904Y-79988095D01*
X96107142Y-80035714D01*
X96154761Y-80083333D01*
X96202380Y-80178571D01*
X96202380Y-80369047D01*
X96154761Y-80464285D01*
X96107142Y-80511904D01*
X96011904Y-80559523D01*
X95202380Y-80559523D01*
X95202380Y-80940476D02*
X95202380Y-81559523D01*
X95583333Y-81226190D01*
X95583333Y-81369047D01*
X95630952Y-81464285D01*
X95678571Y-81511904D01*
X95773809Y-81559523D01*
X96011904Y-81559523D01*
X96107142Y-81511904D01*
X96154761Y-81464285D01*
X96202380Y-81369047D01*
X96202380Y-81083333D01*
X96154761Y-80988095D01*
X96107142Y-80940476D01*
X86452380Y-69488095D02*
X87261904Y-69488095D01*
X87357142Y-69535714D01*
X87404761Y-69583333D01*
X87452380Y-69678571D01*
X87452380Y-69869047D01*
X87404761Y-69964285D01*
X87357142Y-70011904D01*
X87261904Y-70059523D01*
X86452380Y-70059523D01*
X86785714Y-70964285D02*
X87452380Y-70964285D01*
X86404761Y-70726190D02*
X87119047Y-70488095D01*
X87119047Y-71107142D01*
X140315357Y-27357142D02*
X140362976Y-27404761D01*
X140505833Y-27452380D01*
X140601071Y-27452380D01*
X140743928Y-27404761D01*
X140839166Y-27309523D01*
X140886785Y-27214285D01*
X140934404Y-27023809D01*
X140934404Y-26880952D01*
X140886785Y-26690476D01*
X140839166Y-26595238D01*
X140743928Y-26500000D01*
X140601071Y-26452380D01*
X140505833Y-26452380D01*
X140362976Y-26500000D01*
X140315357Y-26547619D01*
X139458214Y-26452380D02*
X139648690Y-26452380D01*
X139743928Y-26500000D01*
X139791547Y-26547619D01*
X139886785Y-26690476D01*
X139934404Y-26880952D01*
X139934404Y-27261904D01*
X139886785Y-27357142D01*
X139839166Y-27404761D01*
X139743928Y-27452380D01*
X139553452Y-27452380D01*
X139458214Y-27404761D01*
X139410595Y-27357142D01*
X139362976Y-27261904D01*
X139362976Y-27023809D01*
X139410595Y-26928571D01*
X139458214Y-26880952D01*
X139553452Y-26833333D01*
X139743928Y-26833333D01*
X139839166Y-26880952D01*
X139886785Y-26928571D01*
X139934404Y-27023809D01*
X138410595Y-27452380D02*
X138982023Y-27452380D01*
X138696309Y-27452380D02*
X138696309Y-26452380D01*
X138791547Y-26595238D01*
X138886785Y-26690476D01*
X138982023Y-26738095D01*
X140350357Y-24992380D02*
X140683690Y-24516190D01*
X140921785Y-24992380D02*
X140921785Y-23992380D01*
X140540833Y-23992380D01*
X140445595Y-24040000D01*
X140397976Y-24087619D01*
X140350357Y-24182857D01*
X140350357Y-24325714D01*
X140397976Y-24420952D01*
X140445595Y-24468571D01*
X140540833Y-24516190D01*
X140921785Y-24516190D01*
X140017023Y-23992380D02*
X139397976Y-23992380D01*
X139731309Y-24373333D01*
X139588452Y-24373333D01*
X139493214Y-24420952D01*
X139445595Y-24468571D01*
X139397976Y-24563809D01*
X139397976Y-24801904D01*
X139445595Y-24897142D01*
X139493214Y-24944761D01*
X139588452Y-24992380D01*
X139874166Y-24992380D01*
X139969404Y-24944761D01*
X140017023Y-24897142D01*
X139064642Y-23992380D02*
X138445595Y-23992380D01*
X138778928Y-24373333D01*
X138636071Y-24373333D01*
X138540833Y-24420952D01*
X138493214Y-24468571D01*
X138445595Y-24563809D01*
X138445595Y-24801904D01*
X138493214Y-24897142D01*
X138540833Y-24944761D01*
X138636071Y-24992380D01*
X138921785Y-24992380D01*
X139017023Y-24944761D01*
X139064642Y-24897142D01*
X147961904Y-32552380D02*
X147961904Y-33361904D01*
X147914285Y-33457142D01*
X147866666Y-33504761D01*
X147771428Y-33552380D01*
X147580952Y-33552380D01*
X147485714Y-33504761D01*
X147438095Y-33457142D01*
X147390476Y-33361904D01*
X147390476Y-32552380D01*
X146438095Y-32552380D02*
X146914285Y-32552380D01*
X146961904Y-33028571D01*
X146914285Y-32980952D01*
X146819047Y-32933333D01*
X146580952Y-32933333D01*
X146485714Y-32980952D01*
X146438095Y-33028571D01*
X146390476Y-33123809D01*
X146390476Y-33361904D01*
X146438095Y-33457142D01*
X146485714Y-33504761D01*
X146580952Y-33552380D01*
X146819047Y-33552380D01*
X146914285Y-33504761D01*
X146961904Y-33457142D01*
X99033333Y-6142380D02*
X99033333Y-6856666D01*
X99080952Y-6999523D01*
X99176190Y-7094761D01*
X99319047Y-7142380D01*
X99414285Y-7142380D01*
X98509523Y-7142380D02*
X98319047Y-7142380D01*
X98223809Y-7094761D01*
X98176190Y-7047142D01*
X98080952Y-6904285D01*
X98033333Y-6713809D01*
X98033333Y-6332857D01*
X98080952Y-6237619D01*
X98128571Y-6190000D01*
X98223809Y-6142380D01*
X98414285Y-6142380D01*
X98509523Y-6190000D01*
X98557142Y-6237619D01*
X98604761Y-6332857D01*
X98604761Y-6570952D01*
X98557142Y-6666190D01*
X98509523Y-6713809D01*
X98414285Y-6761428D01*
X98223809Y-6761428D01*
X98128571Y-6713809D01*
X98080952Y-6666190D01*
X98033333Y-6570952D01*
X7242857Y-62457142D02*
X7290476Y-62504761D01*
X7433333Y-62552380D01*
X7528571Y-62552380D01*
X7671428Y-62504761D01*
X7766666Y-62409523D01*
X7814285Y-62314285D01*
X7861904Y-62123809D01*
X7861904Y-61980952D01*
X7814285Y-61790476D01*
X7766666Y-61695238D01*
X7671428Y-61600000D01*
X7528571Y-61552380D01*
X7433333Y-61552380D01*
X7290476Y-61600000D01*
X7242857Y-61647619D01*
X6671428Y-61980952D02*
X6766666Y-61933333D01*
X6814285Y-61885714D01*
X6861904Y-61790476D01*
X6861904Y-61742857D01*
X6814285Y-61647619D01*
X6766666Y-61600000D01*
X6671428Y-61552380D01*
X6480952Y-61552380D01*
X6385714Y-61600000D01*
X6338095Y-61647619D01*
X6290476Y-61742857D01*
X6290476Y-61790476D01*
X6338095Y-61885714D01*
X6385714Y-61933333D01*
X6480952Y-61980952D01*
X6671428Y-61980952D01*
X6766666Y-62028571D01*
X6814285Y-62076190D01*
X6861904Y-62171428D01*
X6861904Y-62361904D01*
X6814285Y-62457142D01*
X6766666Y-62504761D01*
X6671428Y-62552380D01*
X6480952Y-62552380D01*
X6385714Y-62504761D01*
X6338095Y-62457142D01*
X6290476Y-62361904D01*
X6290476Y-62171428D01*
X6338095Y-62076190D01*
X6385714Y-62028571D01*
X6480952Y-61980952D01*
X5433333Y-61885714D02*
X5433333Y-62552380D01*
X5671428Y-61504761D02*
X5909523Y-62219047D01*
X5290476Y-62219047D01*
X7182142Y-75532142D02*
X7229761Y-75484523D01*
X7277380Y-75341666D01*
X7277380Y-75246428D01*
X7229761Y-75103571D01*
X7134523Y-75008333D01*
X7039285Y-74960714D01*
X6848809Y-74913095D01*
X6705952Y-74913095D01*
X6515476Y-74960714D01*
X6420238Y-75008333D01*
X6325000Y-75103571D01*
X6277380Y-75246428D01*
X6277380Y-75341666D01*
X6325000Y-75484523D01*
X6372619Y-75532142D01*
X6705952Y-76103571D02*
X6658333Y-76008333D01*
X6610714Y-75960714D01*
X6515476Y-75913095D01*
X6467857Y-75913095D01*
X6372619Y-75960714D01*
X6325000Y-76008333D01*
X6277380Y-76103571D01*
X6277380Y-76294047D01*
X6325000Y-76389285D01*
X6372619Y-76436904D01*
X6467857Y-76484523D01*
X6515476Y-76484523D01*
X6610714Y-76436904D01*
X6658333Y-76389285D01*
X6705952Y-76294047D01*
X6705952Y-76103571D01*
X6753571Y-76008333D01*
X6801190Y-75960714D01*
X6896428Y-75913095D01*
X7086904Y-75913095D01*
X7182142Y-75960714D01*
X7229761Y-76008333D01*
X7277380Y-76103571D01*
X7277380Y-76294047D01*
X7229761Y-76389285D01*
X7182142Y-76436904D01*
X7086904Y-76484523D01*
X6896428Y-76484523D01*
X6801190Y-76436904D01*
X6753571Y-76389285D01*
X6705952Y-76294047D01*
X6277380Y-77389285D02*
X6277380Y-76913095D01*
X6753571Y-76865476D01*
X6705952Y-76913095D01*
X6658333Y-77008333D01*
X6658333Y-77246428D01*
X6705952Y-77341666D01*
X6753571Y-77389285D01*
X6848809Y-77436904D01*
X7086904Y-77436904D01*
X7182142Y-77389285D01*
X7229761Y-77341666D01*
X7277380Y-77246428D01*
X7277380Y-77008333D01*
X7229761Y-76913095D01*
X7182142Y-76865476D01*
X9677380Y-75786904D02*
X8677380Y-75786904D01*
X8677380Y-76025000D01*
X8725000Y-76167857D01*
X8820238Y-76263095D01*
X8915476Y-76310714D01*
X9105952Y-76358333D01*
X9248809Y-76358333D01*
X9439285Y-76310714D01*
X9534523Y-76263095D01*
X9629761Y-76167857D01*
X9677380Y-76025000D01*
X9677380Y-75786904D01*
X8677380Y-77215476D02*
X8677380Y-77025000D01*
X8725000Y-76929761D01*
X8772619Y-76882142D01*
X8915476Y-76786904D01*
X9105952Y-76739285D01*
X9486904Y-76739285D01*
X9582142Y-76786904D01*
X9629761Y-76834523D01*
X9677380Y-76929761D01*
X9677380Y-77120238D01*
X9629761Y-77215476D01*
X9582142Y-77263095D01*
X9486904Y-77310714D01*
X9248809Y-77310714D01*
X9153571Y-77263095D01*
X9105952Y-77215476D01*
X9058333Y-77120238D01*
X9058333Y-76929761D01*
X9105952Y-76834523D01*
X9153571Y-76786904D01*
X9248809Y-76739285D01*
X87433333Y-38828571D02*
X87766666Y-38828571D01*
X87766666Y-39352380D02*
X87766666Y-38352380D01*
X87290476Y-38352380D01*
X86576190Y-38828571D02*
X86433333Y-38876190D01*
X86385714Y-38923809D01*
X86338095Y-39019047D01*
X86338095Y-39161904D01*
X86385714Y-39257142D01*
X86433333Y-39304761D01*
X86528571Y-39352380D01*
X86909523Y-39352380D01*
X86909523Y-38352380D01*
X86576190Y-38352380D01*
X86480952Y-38400000D01*
X86433333Y-38447619D01*
X86385714Y-38542857D01*
X86385714Y-38638095D01*
X86433333Y-38733333D01*
X86480952Y-38780952D01*
X86576190Y-38828571D01*
X86909523Y-38828571D01*
X85861904Y-39352380D02*
X85671428Y-39352380D01*
X85576190Y-39304761D01*
X85528571Y-39257142D01*
X85433333Y-39114285D01*
X85385714Y-38923809D01*
X85385714Y-38542857D01*
X85433333Y-38447619D01*
X85480952Y-38400000D01*
X85576190Y-38352380D01*
X85766666Y-38352380D01*
X85861904Y-38400000D01*
X85909523Y-38447619D01*
X85957142Y-38542857D01*
X85957142Y-38780952D01*
X85909523Y-38876190D01*
X85861904Y-38923809D01*
X85766666Y-38971428D01*
X85576190Y-38971428D01*
X85480952Y-38923809D01*
X85433333Y-38876190D01*
X85385714Y-38780952D01*
X19109523Y-38928571D02*
X19442857Y-38928571D01*
X19442857Y-39452380D02*
X19442857Y-38452380D01*
X18966666Y-38452380D01*
X18252380Y-38928571D02*
X18109523Y-38976190D01*
X18061904Y-39023809D01*
X18014285Y-39119047D01*
X18014285Y-39261904D01*
X18061904Y-39357142D01*
X18109523Y-39404761D01*
X18204761Y-39452380D01*
X18585714Y-39452380D01*
X18585714Y-38452380D01*
X18252380Y-38452380D01*
X18157142Y-38500000D01*
X18109523Y-38547619D01*
X18061904Y-38642857D01*
X18061904Y-38738095D01*
X18109523Y-38833333D01*
X18157142Y-38880952D01*
X18252380Y-38928571D01*
X18585714Y-38928571D01*
X17061904Y-39452380D02*
X17633333Y-39452380D01*
X17347619Y-39452380D02*
X17347619Y-38452380D01*
X17442857Y-38595238D01*
X17538095Y-38690476D01*
X17633333Y-38738095D01*
X16442857Y-38452380D02*
X16347619Y-38452380D01*
X16252380Y-38500000D01*
X16204761Y-38547619D01*
X16157142Y-38642857D01*
X16109523Y-38833333D01*
X16109523Y-39071428D01*
X16157142Y-39261904D01*
X16204761Y-39357142D01*
X16252380Y-39404761D01*
X16347619Y-39452380D01*
X16442857Y-39452380D01*
X16538095Y-39404761D01*
X16585714Y-39357142D01*
X16633333Y-39261904D01*
X16680952Y-39071428D01*
X16680952Y-38833333D01*
X16633333Y-38642857D01*
X16585714Y-38547619D01*
X16538095Y-38500000D01*
X16442857Y-38452380D01*
X88309523Y-49528571D02*
X88642857Y-49528571D01*
X88642857Y-50052380D02*
X88642857Y-49052380D01*
X88166666Y-49052380D01*
X87452380Y-49528571D02*
X87309523Y-49576190D01*
X87261904Y-49623809D01*
X87214285Y-49719047D01*
X87214285Y-49861904D01*
X87261904Y-49957142D01*
X87309523Y-50004761D01*
X87404761Y-50052380D01*
X87785714Y-50052380D01*
X87785714Y-49052380D01*
X87452380Y-49052380D01*
X87357142Y-49100000D01*
X87309523Y-49147619D01*
X87261904Y-49242857D01*
X87261904Y-49338095D01*
X87309523Y-49433333D01*
X87357142Y-49480952D01*
X87452380Y-49528571D01*
X87785714Y-49528571D01*
X86261904Y-50052380D02*
X86833333Y-50052380D01*
X86547619Y-50052380D02*
X86547619Y-49052380D01*
X86642857Y-49195238D01*
X86738095Y-49290476D01*
X86833333Y-49338095D01*
X85309523Y-50052380D02*
X85880952Y-50052380D01*
X85595238Y-50052380D02*
X85595238Y-49052380D01*
X85690476Y-49195238D01*
X85785714Y-49290476D01*
X85880952Y-49338095D01*
X19109523Y-49528571D02*
X19442857Y-49528571D01*
X19442857Y-50052380D02*
X19442857Y-49052380D01*
X18966666Y-49052380D01*
X18252380Y-49528571D02*
X18109523Y-49576190D01*
X18061904Y-49623809D01*
X18014285Y-49719047D01*
X18014285Y-49861904D01*
X18061904Y-49957142D01*
X18109523Y-50004761D01*
X18204761Y-50052380D01*
X18585714Y-50052380D01*
X18585714Y-49052380D01*
X18252380Y-49052380D01*
X18157142Y-49100000D01*
X18109523Y-49147619D01*
X18061904Y-49242857D01*
X18061904Y-49338095D01*
X18109523Y-49433333D01*
X18157142Y-49480952D01*
X18252380Y-49528571D01*
X18585714Y-49528571D01*
X17061904Y-50052380D02*
X17633333Y-50052380D01*
X17347619Y-50052380D02*
X17347619Y-49052380D01*
X17442857Y-49195238D01*
X17538095Y-49290476D01*
X17633333Y-49338095D01*
X16680952Y-49147619D02*
X16633333Y-49100000D01*
X16538095Y-49052380D01*
X16300000Y-49052380D01*
X16204761Y-49100000D01*
X16157142Y-49147619D01*
X16109523Y-49242857D01*
X16109523Y-49338095D01*
X16157142Y-49480952D01*
X16728571Y-50052380D01*
X16109523Y-50052380D01*
X86809523Y-58528571D02*
X87142857Y-58528571D01*
X87142857Y-59052380D02*
X87142857Y-58052380D01*
X86666666Y-58052380D01*
X85952380Y-58528571D02*
X85809523Y-58576190D01*
X85761904Y-58623809D01*
X85714285Y-58719047D01*
X85714285Y-58861904D01*
X85761904Y-58957142D01*
X85809523Y-59004761D01*
X85904761Y-59052380D01*
X86285714Y-59052380D01*
X86285714Y-58052380D01*
X85952380Y-58052380D01*
X85857142Y-58100000D01*
X85809523Y-58147619D01*
X85761904Y-58242857D01*
X85761904Y-58338095D01*
X85809523Y-58433333D01*
X85857142Y-58480952D01*
X85952380Y-58528571D01*
X86285714Y-58528571D01*
X84761904Y-59052380D02*
X85333333Y-59052380D01*
X85047619Y-59052380D02*
X85047619Y-58052380D01*
X85142857Y-58195238D01*
X85238095Y-58290476D01*
X85333333Y-58338095D01*
X84428571Y-58052380D02*
X83809523Y-58052380D01*
X84142857Y-58433333D01*
X84000000Y-58433333D01*
X83904761Y-58480952D01*
X83857142Y-58528571D01*
X83809523Y-58623809D01*
X83809523Y-58861904D01*
X83857142Y-58957142D01*
X83904761Y-59004761D01*
X84000000Y-59052380D01*
X84285714Y-59052380D01*
X84380952Y-59004761D01*
X84428571Y-58957142D01*
X19109523Y-60128571D02*
X19442857Y-60128571D01*
X19442857Y-60652380D02*
X19442857Y-59652380D01*
X18966666Y-59652380D01*
X18252380Y-60128571D02*
X18109523Y-60176190D01*
X18061904Y-60223809D01*
X18014285Y-60319047D01*
X18014285Y-60461904D01*
X18061904Y-60557142D01*
X18109523Y-60604761D01*
X18204761Y-60652380D01*
X18585714Y-60652380D01*
X18585714Y-59652380D01*
X18252380Y-59652380D01*
X18157142Y-59700000D01*
X18109523Y-59747619D01*
X18061904Y-59842857D01*
X18061904Y-59938095D01*
X18109523Y-60033333D01*
X18157142Y-60080952D01*
X18252380Y-60128571D01*
X18585714Y-60128571D01*
X17061904Y-60652380D02*
X17633333Y-60652380D01*
X17347619Y-60652380D02*
X17347619Y-59652380D01*
X17442857Y-59795238D01*
X17538095Y-59890476D01*
X17633333Y-59938095D01*
X16204761Y-59985714D02*
X16204761Y-60652380D01*
X16442857Y-59604761D02*
X16680952Y-60319047D01*
X16061904Y-60319047D01*
X86809523Y-68728571D02*
X87142857Y-68728571D01*
X87142857Y-69252380D02*
X87142857Y-68252380D01*
X86666666Y-68252380D01*
X85952380Y-68728571D02*
X85809523Y-68776190D01*
X85761904Y-68823809D01*
X85714285Y-68919047D01*
X85714285Y-69061904D01*
X85761904Y-69157142D01*
X85809523Y-69204761D01*
X85904761Y-69252380D01*
X86285714Y-69252380D01*
X86285714Y-68252380D01*
X85952380Y-68252380D01*
X85857142Y-68300000D01*
X85809523Y-68347619D01*
X85761904Y-68442857D01*
X85761904Y-68538095D01*
X85809523Y-68633333D01*
X85857142Y-68680952D01*
X85952380Y-68728571D01*
X86285714Y-68728571D01*
X84761904Y-69252380D02*
X85333333Y-69252380D01*
X85047619Y-69252380D02*
X85047619Y-68252380D01*
X85142857Y-68395238D01*
X85238095Y-68490476D01*
X85333333Y-68538095D01*
X83857142Y-68252380D02*
X84333333Y-68252380D01*
X84380952Y-68728571D01*
X84333333Y-68680952D01*
X84238095Y-68633333D01*
X84000000Y-68633333D01*
X83904761Y-68680952D01*
X83857142Y-68728571D01*
X83809523Y-68823809D01*
X83809523Y-69061904D01*
X83857142Y-69157142D01*
X83904761Y-69204761D01*
X84000000Y-69252380D01*
X84238095Y-69252380D01*
X84333333Y-69204761D01*
X84380952Y-69157142D01*
X19109523Y-70728571D02*
X19442857Y-70728571D01*
X19442857Y-71252380D02*
X19442857Y-70252380D01*
X18966666Y-70252380D01*
X18252380Y-70728571D02*
X18109523Y-70776190D01*
X18061904Y-70823809D01*
X18014285Y-70919047D01*
X18014285Y-71061904D01*
X18061904Y-71157142D01*
X18109523Y-71204761D01*
X18204761Y-71252380D01*
X18585714Y-71252380D01*
X18585714Y-70252380D01*
X18252380Y-70252380D01*
X18157142Y-70300000D01*
X18109523Y-70347619D01*
X18061904Y-70442857D01*
X18061904Y-70538095D01*
X18109523Y-70633333D01*
X18157142Y-70680952D01*
X18252380Y-70728571D01*
X18585714Y-70728571D01*
X17061904Y-71252380D02*
X17633333Y-71252380D01*
X17347619Y-71252380D02*
X17347619Y-70252380D01*
X17442857Y-70395238D01*
X17538095Y-70490476D01*
X17633333Y-70538095D01*
X16204761Y-70252380D02*
X16395238Y-70252380D01*
X16490476Y-70300000D01*
X16538095Y-70347619D01*
X16633333Y-70490476D01*
X16680952Y-70680952D01*
X16680952Y-71061904D01*
X16633333Y-71157142D01*
X16585714Y-71204761D01*
X16490476Y-71252380D01*
X16300000Y-71252380D01*
X16204761Y-71204761D01*
X16157142Y-71157142D01*
X16109523Y-71061904D01*
X16109523Y-70823809D01*
X16157142Y-70728571D01*
X16204761Y-70680952D01*
X16300000Y-70633333D01*
X16490476Y-70633333D01*
X16585714Y-70680952D01*
X16633333Y-70728571D01*
X16680952Y-70823809D01*
X86709523Y-79528571D02*
X87042857Y-79528571D01*
X87042857Y-80052380D02*
X87042857Y-79052380D01*
X86566666Y-79052380D01*
X85852380Y-79528571D02*
X85709523Y-79576190D01*
X85661904Y-79623809D01*
X85614285Y-79719047D01*
X85614285Y-79861904D01*
X85661904Y-79957142D01*
X85709523Y-80004761D01*
X85804761Y-80052380D01*
X86185714Y-80052380D01*
X86185714Y-79052380D01*
X85852380Y-79052380D01*
X85757142Y-79100000D01*
X85709523Y-79147619D01*
X85661904Y-79242857D01*
X85661904Y-79338095D01*
X85709523Y-79433333D01*
X85757142Y-79480952D01*
X85852380Y-79528571D01*
X86185714Y-79528571D01*
X84661904Y-80052380D02*
X85233333Y-80052380D01*
X84947619Y-80052380D02*
X84947619Y-79052380D01*
X85042857Y-79195238D01*
X85138095Y-79290476D01*
X85233333Y-79338095D01*
X84328571Y-79052380D02*
X83661904Y-79052380D01*
X84090476Y-80052380D01*
X19009523Y-81328571D02*
X19342857Y-81328571D01*
X19342857Y-81852380D02*
X19342857Y-80852380D01*
X18866666Y-80852380D01*
X18152380Y-81328571D02*
X18009523Y-81376190D01*
X17961904Y-81423809D01*
X17914285Y-81519047D01*
X17914285Y-81661904D01*
X17961904Y-81757142D01*
X18009523Y-81804761D01*
X18104761Y-81852380D01*
X18485714Y-81852380D01*
X18485714Y-80852380D01*
X18152380Y-80852380D01*
X18057142Y-80900000D01*
X18009523Y-80947619D01*
X17961904Y-81042857D01*
X17961904Y-81138095D01*
X18009523Y-81233333D01*
X18057142Y-81280952D01*
X18152380Y-81328571D01*
X18485714Y-81328571D01*
X16961904Y-81852380D02*
X17533333Y-81852380D01*
X17247619Y-81852380D02*
X17247619Y-80852380D01*
X17342857Y-80995238D01*
X17438095Y-81090476D01*
X17533333Y-81138095D01*
X16390476Y-81280952D02*
X16485714Y-81233333D01*
X16533333Y-81185714D01*
X16580952Y-81090476D01*
X16580952Y-81042857D01*
X16533333Y-80947619D01*
X16485714Y-80900000D01*
X16390476Y-80852380D01*
X16200000Y-80852380D01*
X16104761Y-80900000D01*
X16057142Y-80947619D01*
X16009523Y-81042857D01*
X16009523Y-81090476D01*
X16057142Y-81185714D01*
X16104761Y-81233333D01*
X16200000Y-81280952D01*
X16390476Y-81280952D01*
X16485714Y-81328571D01*
X16533333Y-81376190D01*
X16580952Y-81471428D01*
X16580952Y-81661904D01*
X16533333Y-81757142D01*
X16485714Y-81804761D01*
X16390476Y-81852380D01*
X16200000Y-81852380D01*
X16104761Y-81804761D01*
X16057142Y-81757142D01*
X16009523Y-81661904D01*
X16009523Y-81471428D01*
X16057142Y-81376190D01*
X16104761Y-81328571D01*
X16200000Y-81280952D01*
X130059523Y-82228571D02*
X130392857Y-82228571D01*
X130392857Y-82752380D02*
X130392857Y-81752380D01*
X129916666Y-81752380D01*
X129202380Y-82228571D02*
X129059523Y-82276190D01*
X129011904Y-82323809D01*
X128964285Y-82419047D01*
X128964285Y-82561904D01*
X129011904Y-82657142D01*
X129059523Y-82704761D01*
X129154761Y-82752380D01*
X129535714Y-82752380D01*
X129535714Y-81752380D01*
X129202380Y-81752380D01*
X129107142Y-81800000D01*
X129059523Y-81847619D01*
X129011904Y-81942857D01*
X129011904Y-82038095D01*
X129059523Y-82133333D01*
X129107142Y-82180952D01*
X129202380Y-82228571D01*
X129535714Y-82228571D01*
X128011904Y-82752380D02*
X128583333Y-82752380D01*
X128297619Y-82752380D02*
X128297619Y-81752380D01*
X128392857Y-81895238D01*
X128488095Y-81990476D01*
X128583333Y-82038095D01*
X127535714Y-82752380D02*
X127345238Y-82752380D01*
X127250000Y-82704761D01*
X127202380Y-82657142D01*
X127107142Y-82514285D01*
X127059523Y-82323809D01*
X127059523Y-81942857D01*
X127107142Y-81847619D01*
X127154761Y-81800000D01*
X127250000Y-81752380D01*
X127440476Y-81752380D01*
X127535714Y-81800000D01*
X127583333Y-81847619D01*
X127630952Y-81942857D01*
X127630952Y-82180952D01*
X127583333Y-82276190D01*
X127535714Y-82323809D01*
X127440476Y-82371428D01*
X127250000Y-82371428D01*
X127154761Y-82323809D01*
X127107142Y-82276190D01*
X127059523Y-82180952D01*
X8227380Y-64432142D02*
X7751190Y-64098809D01*
X8227380Y-63860714D02*
X7227380Y-63860714D01*
X7227380Y-64241666D01*
X7275000Y-64336904D01*
X7322619Y-64384523D01*
X7417857Y-64432142D01*
X7560714Y-64432142D01*
X7655952Y-64384523D01*
X7703571Y-64336904D01*
X7751190Y-64241666D01*
X7751190Y-63860714D01*
X8227380Y-65384523D02*
X8227380Y-64813095D01*
X8227380Y-65098809D02*
X7227380Y-65098809D01*
X7370238Y-65003571D01*
X7465476Y-64908333D01*
X7513095Y-64813095D01*
X7227380Y-66241666D02*
X7227380Y-66051190D01*
X7275000Y-65955952D01*
X7322619Y-65908333D01*
X7465476Y-65813095D01*
X7655952Y-65765476D01*
X8036904Y-65765476D01*
X8132142Y-65813095D01*
X8179761Y-65860714D01*
X8227380Y-65955952D01*
X8227380Y-66146428D01*
X8179761Y-66241666D01*
X8132142Y-66289285D01*
X8036904Y-66336904D01*
X7798809Y-66336904D01*
X7703571Y-66289285D01*
X7655952Y-66241666D01*
X7608333Y-66146428D01*
X7608333Y-65955952D01*
X7655952Y-65860714D01*
X7703571Y-65813095D01*
X7798809Y-65765476D01*
X7242857Y-60402380D02*
X7576190Y-59926190D01*
X7814285Y-60402380D02*
X7814285Y-59402380D01*
X7433333Y-59402380D01*
X7338095Y-59450000D01*
X7290476Y-59497619D01*
X7242857Y-59592857D01*
X7242857Y-59735714D01*
X7290476Y-59830952D01*
X7338095Y-59878571D01*
X7433333Y-59926190D01*
X7814285Y-59926190D01*
X6290476Y-60402380D02*
X6861904Y-60402380D01*
X6576190Y-60402380D02*
X6576190Y-59402380D01*
X6671428Y-59545238D01*
X6766666Y-59640476D01*
X6861904Y-59688095D01*
X5957142Y-59402380D02*
X5290476Y-59402380D01*
X5719047Y-60402380D01*
X90261904Y-88152380D02*
X89690476Y-88152380D01*
X89976190Y-89152380D02*
X89976190Y-88152380D01*
X89357142Y-89152380D02*
X89357142Y-88152380D01*
X88976190Y-88152380D01*
X88880952Y-88200000D01*
X88833333Y-88247619D01*
X88785714Y-88342857D01*
X88785714Y-88485714D01*
X88833333Y-88580952D01*
X88880952Y-88628571D01*
X88976190Y-88676190D01*
X89357142Y-88676190D01*
X88404761Y-88247619D02*
X88357142Y-88200000D01*
X88261904Y-88152380D01*
X88023809Y-88152380D01*
X87928571Y-88200000D01*
X87880952Y-88247619D01*
X87833333Y-88342857D01*
X87833333Y-88438095D01*
X87880952Y-88580952D01*
X88452380Y-89152380D01*
X87833333Y-89152380D01*
M02*
