G04 #@! TF.GenerationSoftware,KiCad,Pcbnew,5.1.6-c6e7f7d~86~ubuntu18.04.1*
G04 #@! TF.CreationDate,2020-06-11T10:01:39+01:00*
G04 #@! TF.ProjectId,HL2_MRF101,484c325f-4d52-4463-9130-312e6b696361,2.0-build8*
G04 #@! TF.SameCoordinates,PX42c1d80PY2625a00*
G04 #@! TF.FileFunction,Legend,Top*
G04 #@! TF.FilePolarity,Positive*
%FSLAX46Y46*%
G04 Gerber Fmt 4.6, Leading zero omitted, Abs format (unit mm)*
G04 Created by KiCad (PCBNEW 5.1.6-c6e7f7d~86~ubuntu18.04.1) date 2020-06-11 10:01:39*
%MOMM*%
%LPD*%
G01*
G04 APERTURE LIST*
%ADD10C,0.150000*%
%ADD11C,0.200000*%
%ADD12C,0.300000*%
%ADD13C,0.120000*%
%ADD14C,0.100000*%
%ADD15C,0.010000*%
%ADD16C,0.299720*%
%ADD17C,0.127000*%
%ADD18C,0.125000*%
%ADD19C,0.101600*%
G04 APERTURE END LIST*
D10*
X116301285Y-65354380D02*
X116301285Y-64354380D01*
X116777476Y-65354380D02*
X116777476Y-64354380D01*
X117348904Y-65354380D01*
X117348904Y-64354380D01*
X117682238Y-64354380D02*
X118253666Y-64354380D01*
X117967952Y-65354380D02*
X117967952Y-64354380D01*
X118444142Y-64354380D02*
X119015571Y-64354380D01*
X118729857Y-65354380D02*
X118729857Y-64354380D01*
X119920333Y-65354380D02*
X119587000Y-64878190D01*
X119348904Y-65354380D02*
X119348904Y-64354380D01*
X119729857Y-64354380D01*
X119825095Y-64402000D01*
X119872714Y-64449619D01*
X119920333Y-64544857D01*
X119920333Y-64687714D01*
X119872714Y-64782952D01*
X119825095Y-64830571D01*
X119729857Y-64878190D01*
X119348904Y-64878190D01*
X130699761Y-69164380D02*
X130366428Y-68688190D01*
X130128333Y-69164380D02*
X130128333Y-68164380D01*
X130509285Y-68164380D01*
X130604523Y-68212000D01*
X130652142Y-68259619D01*
X130699761Y-68354857D01*
X130699761Y-68497714D01*
X130652142Y-68592952D01*
X130604523Y-68640571D01*
X130509285Y-68688190D01*
X130128333Y-68688190D01*
X131461666Y-68640571D02*
X131128333Y-68640571D01*
X131128333Y-69164380D02*
X131128333Y-68164380D01*
X131604523Y-68164380D01*
X131890238Y-68164380D02*
X132509285Y-68164380D01*
X132175952Y-68545333D01*
X132318809Y-68545333D01*
X132414047Y-68592952D01*
X132461666Y-68640571D01*
X132509285Y-68735809D01*
X132509285Y-68973904D01*
X132461666Y-69069142D01*
X132414047Y-69116761D01*
X132318809Y-69164380D01*
X132033095Y-69164380D01*
X131937857Y-69116761D01*
X131890238Y-69069142D01*
X92631380Y-72863238D02*
X92155190Y-73196571D01*
X92631380Y-73434666D02*
X91631380Y-73434666D01*
X91631380Y-73053714D01*
X91679000Y-72958476D01*
X91726619Y-72910857D01*
X91821857Y-72863238D01*
X91964714Y-72863238D01*
X92059952Y-72910857D01*
X92107571Y-72958476D01*
X92155190Y-73053714D01*
X92155190Y-73434666D01*
X92107571Y-72101333D02*
X92107571Y-72434666D01*
X92631380Y-72434666D02*
X91631380Y-72434666D01*
X91631380Y-71958476D01*
X92631380Y-71053714D02*
X92631380Y-71625142D01*
X92631380Y-71339428D02*
X91631380Y-71339428D01*
X91774238Y-71434666D01*
X91869476Y-71529904D01*
X91917095Y-71625142D01*
X80471428Y-23528571D02*
X80138095Y-23528571D01*
X80138095Y-24052380D02*
X80138095Y-23052380D01*
X80614285Y-23052380D01*
X80900000Y-23052380D02*
X81138095Y-24052380D01*
X81328571Y-23338095D01*
X81519047Y-24052380D01*
X81757142Y-23052380D01*
X82138095Y-24052380D02*
X82138095Y-23052380D01*
X82376190Y-23052380D01*
X82519047Y-23100000D01*
X82614285Y-23195238D01*
X82661904Y-23290476D01*
X82709523Y-23480952D01*
X82709523Y-23623809D01*
X82661904Y-23814285D01*
X82614285Y-23909523D01*
X82519047Y-24004761D01*
X82376190Y-24052380D01*
X82138095Y-24052380D01*
X80876190Y-12652380D02*
X80542857Y-12176190D01*
X80304761Y-12652380D02*
X80304761Y-11652380D01*
X80685714Y-11652380D01*
X80780952Y-11700000D01*
X80828571Y-11747619D01*
X80876190Y-11842857D01*
X80876190Y-11985714D01*
X80828571Y-12080952D01*
X80780952Y-12128571D01*
X80685714Y-12176190D01*
X80304761Y-12176190D01*
X81638095Y-12128571D02*
X81304761Y-12128571D01*
X81304761Y-12652380D02*
X81304761Y-11652380D01*
X81780952Y-11652380D01*
X82638095Y-12652380D02*
X82161904Y-12652380D01*
X82161904Y-11652380D01*
X94309523Y-56357142D02*
X94261904Y-56404761D01*
X94119047Y-56452380D01*
X94023809Y-56452380D01*
X93880952Y-56404761D01*
X93785714Y-56309523D01*
X93738095Y-56214285D01*
X93690476Y-56023809D01*
X93690476Y-55880952D01*
X93738095Y-55690476D01*
X93785714Y-55595238D01*
X93880952Y-55500000D01*
X94023809Y-55452380D01*
X94119047Y-55452380D01*
X94261904Y-55500000D01*
X94309523Y-55547619D01*
X94738095Y-56452380D02*
X94738095Y-55452380D01*
X95309523Y-56452380D01*
X95309523Y-55452380D01*
X95928571Y-55880952D02*
X95833333Y-55833333D01*
X95785714Y-55785714D01*
X95738095Y-55690476D01*
X95738095Y-55642857D01*
X95785714Y-55547619D01*
X95833333Y-55500000D01*
X95928571Y-55452380D01*
X96119047Y-55452380D01*
X96214285Y-55500000D01*
X96261904Y-55547619D01*
X96309523Y-55642857D01*
X96309523Y-55690476D01*
X96261904Y-55785714D01*
X96214285Y-55833333D01*
X96119047Y-55880952D01*
X95928571Y-55880952D01*
X95833333Y-55928571D01*
X95785714Y-55976190D01*
X95738095Y-56071428D01*
X95738095Y-56261904D01*
X95785714Y-56357142D01*
X95833333Y-56404761D01*
X95928571Y-56452380D01*
X96119047Y-56452380D01*
X96214285Y-56404761D01*
X96261904Y-56357142D01*
X96309523Y-56261904D01*
X96309523Y-56071428D01*
X96261904Y-55976190D01*
X96214285Y-55928571D01*
X96119047Y-55880952D01*
X24583214Y-94767857D02*
X24583214Y-93567857D01*
X24983214Y-94425000D01*
X25383214Y-93567857D01*
X25383214Y-94767857D01*
X26640357Y-94767857D02*
X26240357Y-94196428D01*
X25954642Y-94767857D02*
X25954642Y-93567857D01*
X26411785Y-93567857D01*
X26526071Y-93625000D01*
X26583214Y-93682142D01*
X26640357Y-93796428D01*
X26640357Y-93967857D01*
X26583214Y-94082142D01*
X26526071Y-94139285D01*
X26411785Y-94196428D01*
X25954642Y-94196428D01*
X27554642Y-94139285D02*
X27154642Y-94139285D01*
X27154642Y-94767857D02*
X27154642Y-93567857D01*
X27726071Y-93567857D01*
X28811785Y-94767857D02*
X28126071Y-94767857D01*
X28468928Y-94767857D02*
X28468928Y-93567857D01*
X28354642Y-93739285D01*
X28240357Y-93853571D01*
X28126071Y-93910714D01*
X29554642Y-93567857D02*
X29668928Y-93567857D01*
X29783214Y-93625000D01*
X29840357Y-93682142D01*
X29897500Y-93796428D01*
X29954642Y-94025000D01*
X29954642Y-94310714D01*
X29897500Y-94539285D01*
X29840357Y-94653571D01*
X29783214Y-94710714D01*
X29668928Y-94767857D01*
X29554642Y-94767857D01*
X29440357Y-94710714D01*
X29383214Y-94653571D01*
X29326071Y-94539285D01*
X29268928Y-94310714D01*
X29268928Y-94025000D01*
X29326071Y-93796428D01*
X29383214Y-93682142D01*
X29440357Y-93625000D01*
X29554642Y-93567857D01*
X31097500Y-94767857D02*
X30411785Y-94767857D01*
X30754642Y-94767857D02*
X30754642Y-93567857D01*
X30640357Y-93739285D01*
X30526071Y-93853571D01*
X30411785Y-93910714D01*
X33154642Y-94767857D02*
X32468928Y-94767857D01*
X32811785Y-94767857D02*
X32811785Y-93567857D01*
X32697500Y-93739285D01*
X32583214Y-93853571D01*
X32468928Y-93910714D01*
X33897500Y-93567857D02*
X34011785Y-93567857D01*
X34126071Y-93625000D01*
X34183214Y-93682142D01*
X34240357Y-93796428D01*
X34297500Y-94025000D01*
X34297500Y-94310714D01*
X34240357Y-94539285D01*
X34183214Y-94653571D01*
X34126071Y-94710714D01*
X34011785Y-94767857D01*
X33897500Y-94767857D01*
X33783214Y-94710714D01*
X33726071Y-94653571D01*
X33668928Y-94539285D01*
X33611785Y-94310714D01*
X33611785Y-94025000D01*
X33668928Y-93796428D01*
X33726071Y-93682142D01*
X33783214Y-93625000D01*
X33897500Y-93567857D01*
X35040357Y-93567857D02*
X35154642Y-93567857D01*
X35268928Y-93625000D01*
X35326071Y-93682142D01*
X35383214Y-93796428D01*
X35440357Y-94025000D01*
X35440357Y-94310714D01*
X35383214Y-94539285D01*
X35326071Y-94653571D01*
X35268928Y-94710714D01*
X35154642Y-94767857D01*
X35040357Y-94767857D01*
X34926071Y-94710714D01*
X34868928Y-94653571D01*
X34811785Y-94539285D01*
X34754642Y-94310714D01*
X34754642Y-94025000D01*
X34811785Y-93796428D01*
X34868928Y-93682142D01*
X34926071Y-93625000D01*
X35040357Y-93567857D01*
X35840357Y-93567857D02*
X36126071Y-94767857D01*
X36354642Y-93910714D01*
X36583214Y-94767857D01*
X36868928Y-93567857D01*
X38240357Y-94767857D02*
X38240357Y-93567857D01*
X38697500Y-93567857D01*
X38811785Y-93625000D01*
X38868928Y-93682142D01*
X38926071Y-93796428D01*
X38926071Y-93967857D01*
X38868928Y-94082142D01*
X38811785Y-94139285D01*
X38697500Y-94196428D01*
X38240357Y-94196428D01*
X39383214Y-94425000D02*
X39954642Y-94425000D01*
X39268928Y-94767857D02*
X39668928Y-93567857D01*
X40068928Y-94767857D01*
X41211785Y-93967857D02*
X41668928Y-93967857D01*
X41383214Y-94767857D02*
X41383214Y-93739285D01*
X41440357Y-93625000D01*
X41554642Y-93567857D01*
X41668928Y-93567857D01*
X42240357Y-94767857D02*
X42126071Y-94710714D01*
X42068928Y-94653571D01*
X42011785Y-94539285D01*
X42011785Y-94196428D01*
X42068928Y-94082142D01*
X42126071Y-94025000D01*
X42240357Y-93967857D01*
X42411785Y-93967857D01*
X42526071Y-94025000D01*
X42583214Y-94082142D01*
X42640357Y-94196428D01*
X42640357Y-94539285D01*
X42583214Y-94653571D01*
X42526071Y-94710714D01*
X42411785Y-94767857D01*
X42240357Y-94767857D01*
X43154642Y-94767857D02*
X43154642Y-93967857D01*
X43154642Y-94196428D02*
X43211785Y-94082142D01*
X43268928Y-94025000D01*
X43383214Y-93967857D01*
X43497500Y-93967857D01*
X44811785Y-94767857D02*
X44811785Y-93567857D01*
X44811785Y-94139285D02*
X45497500Y-94139285D01*
X45497500Y-94767857D02*
X45497500Y-93567857D01*
X46526071Y-94710714D02*
X46411785Y-94767857D01*
X46183214Y-94767857D01*
X46068928Y-94710714D01*
X46011785Y-94596428D01*
X46011785Y-94139285D01*
X46068928Y-94025000D01*
X46183214Y-93967857D01*
X46411785Y-93967857D01*
X46526071Y-94025000D01*
X46583214Y-94139285D01*
X46583214Y-94253571D01*
X46011785Y-94367857D01*
X47097500Y-94767857D02*
X47097500Y-93967857D01*
X47097500Y-94196428D02*
X47154642Y-94082142D01*
X47211785Y-94025000D01*
X47326071Y-93967857D01*
X47440357Y-93967857D01*
X47840357Y-94767857D02*
X47840357Y-93967857D01*
X47840357Y-94082142D02*
X47897500Y-94025000D01*
X48011785Y-93967857D01*
X48183214Y-93967857D01*
X48297500Y-94025000D01*
X48354642Y-94139285D01*
X48354642Y-94767857D01*
X48354642Y-94139285D02*
X48411785Y-94025000D01*
X48526071Y-93967857D01*
X48697500Y-93967857D01*
X48811785Y-94025000D01*
X48868928Y-94139285D01*
X48868928Y-94767857D01*
X49897500Y-94710714D02*
X49783214Y-94767857D01*
X49554642Y-94767857D01*
X49440357Y-94710714D01*
X49383214Y-94596428D01*
X49383214Y-94139285D01*
X49440357Y-94025000D01*
X49554642Y-93967857D01*
X49783214Y-93967857D01*
X49897500Y-94025000D01*
X49954642Y-94139285D01*
X49954642Y-94253571D01*
X49383214Y-94367857D01*
X50411785Y-94710714D02*
X50526071Y-94767857D01*
X50754642Y-94767857D01*
X50868928Y-94710714D01*
X50926071Y-94596428D01*
X50926071Y-94539285D01*
X50868928Y-94425000D01*
X50754642Y-94367857D01*
X50583214Y-94367857D01*
X50468928Y-94310714D01*
X50411785Y-94196428D01*
X50411785Y-94139285D01*
X50468928Y-94025000D01*
X50583214Y-93967857D01*
X50754642Y-93967857D01*
X50868928Y-94025000D01*
X51440357Y-94310714D02*
X52354642Y-94310714D01*
X53497500Y-94767857D02*
X52926071Y-94767857D01*
X52926071Y-93567857D01*
X53897500Y-94767857D02*
X53897500Y-93967857D01*
X53897500Y-93567857D02*
X53840357Y-93625000D01*
X53897500Y-93682142D01*
X53954642Y-93625000D01*
X53897500Y-93567857D01*
X53897500Y-93682142D01*
X54297500Y-93967857D02*
X54754642Y-93967857D01*
X54468928Y-93567857D02*
X54468928Y-94596428D01*
X54526071Y-94710714D01*
X54640357Y-94767857D01*
X54754642Y-94767857D01*
X55611785Y-94710714D02*
X55497500Y-94767857D01*
X55268928Y-94767857D01*
X55154642Y-94710714D01*
X55097500Y-94596428D01*
X55097500Y-94139285D01*
X55154642Y-94025000D01*
X55268928Y-93967857D01*
X55497500Y-93967857D01*
X55611785Y-94025000D01*
X55668928Y-94139285D01*
X55668928Y-94253571D01*
X55097500Y-94367857D01*
X57040357Y-93682142D02*
X57097500Y-93625000D01*
X57211785Y-93567857D01*
X57497500Y-93567857D01*
X57611785Y-93625000D01*
X57668928Y-93682142D01*
X57726071Y-93796428D01*
X57726071Y-93910714D01*
X57668928Y-94082142D01*
X56983214Y-94767857D01*
X57726071Y-94767857D01*
X59154642Y-94767857D02*
X59154642Y-93967857D01*
X59154642Y-94196428D02*
X59211785Y-94082142D01*
X59268928Y-94025000D01*
X59383214Y-93967857D01*
X59497500Y-93967857D01*
X60126071Y-93567857D02*
X60240357Y-93567857D01*
X60354642Y-93625000D01*
X60411785Y-93682142D01*
X60468928Y-93796428D01*
X60526071Y-94025000D01*
X60526071Y-94310714D01*
X60468928Y-94539285D01*
X60411785Y-94653571D01*
X60354642Y-94710714D01*
X60240357Y-94767857D01*
X60126071Y-94767857D01*
X60011785Y-94710714D01*
X59954642Y-94653571D01*
X59897500Y-94539285D01*
X59840357Y-94310714D01*
X59840357Y-94025000D01*
X59897500Y-93796428D01*
X59954642Y-93682142D01*
X60011785Y-93625000D01*
X60126071Y-93567857D01*
X61040357Y-94653571D02*
X61097500Y-94710714D01*
X61040357Y-94767857D01*
X60983214Y-94710714D01*
X61040357Y-94653571D01*
X61040357Y-94767857D01*
X61497500Y-93567857D02*
X62240357Y-93567857D01*
X61840357Y-94025000D01*
X62011785Y-94025000D01*
X62126071Y-94082142D01*
X62183214Y-94139285D01*
X62240357Y-94253571D01*
X62240357Y-94539285D01*
X62183214Y-94653571D01*
X62126071Y-94710714D01*
X62011785Y-94767857D01*
X61668928Y-94767857D01*
X61554642Y-94710714D01*
X61497500Y-94653571D01*
X25554642Y-95803571D02*
X25440357Y-95746428D01*
X25211785Y-95746428D01*
X25097500Y-95803571D01*
X24983214Y-95917857D01*
X24926071Y-96032142D01*
X24926071Y-96260714D01*
X24983214Y-96375000D01*
X25097500Y-96489285D01*
X25211785Y-96546428D01*
X25440357Y-96546428D01*
X25554642Y-96489285D01*
X25326071Y-95346428D02*
X25040357Y-95403571D01*
X24754642Y-95575000D01*
X24583214Y-95860714D01*
X24526071Y-96146428D01*
X24583214Y-96432142D01*
X24754642Y-96717857D01*
X25040357Y-96889285D01*
X25326071Y-96946428D01*
X25611785Y-96889285D01*
X25897500Y-96717857D01*
X26068928Y-96432142D01*
X26126071Y-96146428D01*
X26068928Y-95860714D01*
X25897500Y-95575000D01*
X25611785Y-95403571D01*
X25326071Y-95346428D01*
X27497500Y-95632142D02*
X27554642Y-95575000D01*
X27668928Y-95517857D01*
X27954642Y-95517857D01*
X28068928Y-95575000D01*
X28126071Y-95632142D01*
X28183214Y-95746428D01*
X28183214Y-95860714D01*
X28126071Y-96032142D01*
X27440357Y-96717857D01*
X28183214Y-96717857D01*
X28926071Y-95517857D02*
X29040357Y-95517857D01*
X29154642Y-95575000D01*
X29211785Y-95632142D01*
X29268928Y-95746428D01*
X29326071Y-95975000D01*
X29326071Y-96260714D01*
X29268928Y-96489285D01*
X29211785Y-96603571D01*
X29154642Y-96660714D01*
X29040357Y-96717857D01*
X28926071Y-96717857D01*
X28811785Y-96660714D01*
X28754642Y-96603571D01*
X28697500Y-96489285D01*
X28640357Y-96260714D01*
X28640357Y-95975000D01*
X28697500Y-95746428D01*
X28754642Y-95632142D01*
X28811785Y-95575000D01*
X28926071Y-95517857D01*
X29783214Y-95632142D02*
X29840357Y-95575000D01*
X29954642Y-95517857D01*
X30240357Y-95517857D01*
X30354642Y-95575000D01*
X30411785Y-95632142D01*
X30468928Y-95746428D01*
X30468928Y-95860714D01*
X30411785Y-96032142D01*
X29726071Y-96717857D01*
X30468928Y-96717857D01*
X31211785Y-95517857D02*
X31326071Y-95517857D01*
X31440357Y-95575000D01*
X31497500Y-95632142D01*
X31554642Y-95746428D01*
X31611785Y-95975000D01*
X31611785Y-96260714D01*
X31554642Y-96489285D01*
X31497500Y-96603571D01*
X31440357Y-96660714D01*
X31326071Y-96717857D01*
X31211785Y-96717857D01*
X31097500Y-96660714D01*
X31040357Y-96603571D01*
X30983214Y-96489285D01*
X30926071Y-96260714D01*
X30926071Y-95975000D01*
X30983214Y-95746428D01*
X31040357Y-95632142D01*
X31097500Y-95575000D01*
X31211785Y-95517857D01*
X33040357Y-96717857D02*
X33040357Y-95517857D01*
X33326071Y-95517857D01*
X33497500Y-95575000D01*
X33611785Y-95689285D01*
X33668928Y-95803571D01*
X33726071Y-96032142D01*
X33726071Y-96203571D01*
X33668928Y-96432142D01*
X33611785Y-96546428D01*
X33497500Y-96660714D01*
X33326071Y-96717857D01*
X33040357Y-96717857D01*
X34640357Y-96089285D02*
X34811785Y-96146428D01*
X34868928Y-96203571D01*
X34926071Y-96317857D01*
X34926071Y-96489285D01*
X34868928Y-96603571D01*
X34811785Y-96660714D01*
X34697500Y-96717857D01*
X34240357Y-96717857D01*
X34240357Y-95517857D01*
X34640357Y-95517857D01*
X34754642Y-95575000D01*
X34811785Y-95632142D01*
X34868928Y-95746428D01*
X34868928Y-95860714D01*
X34811785Y-95975000D01*
X34754642Y-96032142D01*
X34640357Y-96089285D01*
X34240357Y-96089285D01*
X35497500Y-96717857D02*
X35726071Y-96717857D01*
X35840357Y-96660714D01*
X35897500Y-96603571D01*
X36011785Y-96432142D01*
X36068928Y-96203571D01*
X36068928Y-95746428D01*
X36011785Y-95632142D01*
X35954642Y-95575000D01*
X35840357Y-95517857D01*
X35611785Y-95517857D01*
X35497500Y-95575000D01*
X35440357Y-95632142D01*
X35383214Y-95746428D01*
X35383214Y-96032142D01*
X35440357Y-96146428D01*
X35497500Y-96203571D01*
X35611785Y-96260714D01*
X35840357Y-96260714D01*
X35954642Y-96203571D01*
X36011785Y-96146428D01*
X36068928Y-96032142D01*
X36583214Y-96717857D02*
X36583214Y-95517857D01*
X36983214Y-96375000D01*
X37383214Y-95517857D01*
X37383214Y-96717857D01*
X37897500Y-96375000D02*
X38468928Y-96375000D01*
X37783214Y-96717857D02*
X38183214Y-95517857D01*
X38583214Y-96717857D01*
X38811785Y-95517857D02*
X39497500Y-95517857D01*
X39154642Y-96717857D02*
X39154642Y-95517857D01*
X41154642Y-97175000D02*
X41097500Y-97117857D01*
X40983214Y-96946428D01*
X40926071Y-96832142D01*
X40868928Y-96660714D01*
X40811785Y-96375000D01*
X40811785Y-96146428D01*
X40868928Y-95860714D01*
X40926071Y-95689285D01*
X40983214Y-95575000D01*
X41097500Y-95403571D01*
X41154642Y-95346428D01*
X41611785Y-96717857D02*
X41611785Y-95917857D01*
X41611785Y-96032142D02*
X41668928Y-95975000D01*
X41783214Y-95917857D01*
X41954642Y-95917857D01*
X42068928Y-95975000D01*
X42126071Y-96089285D01*
X42126071Y-96717857D01*
X42126071Y-96089285D02*
X42183214Y-95975000D01*
X42297500Y-95917857D01*
X42468928Y-95917857D01*
X42583214Y-95975000D01*
X42640357Y-96089285D01*
X42640357Y-96717857D01*
X43383214Y-96717857D02*
X43268928Y-96660714D01*
X43211785Y-96603571D01*
X43154642Y-96489285D01*
X43154642Y-96146428D01*
X43211785Y-96032142D01*
X43268928Y-95975000D01*
X43383214Y-95917857D01*
X43554642Y-95917857D01*
X43668928Y-95975000D01*
X43726071Y-96032142D01*
X43783214Y-96146428D01*
X43783214Y-96489285D01*
X43726071Y-96603571D01*
X43668928Y-96660714D01*
X43554642Y-96717857D01*
X43383214Y-96717857D01*
X44811785Y-96717857D02*
X44811785Y-95517857D01*
X44811785Y-96660714D02*
X44697500Y-96717857D01*
X44468928Y-96717857D01*
X44354642Y-96660714D01*
X44297500Y-96603571D01*
X44240357Y-96489285D01*
X44240357Y-96146428D01*
X44297500Y-96032142D01*
X44354642Y-95975000D01*
X44468928Y-95917857D01*
X44697500Y-95917857D01*
X44811785Y-95975000D01*
X45326071Y-96660714D02*
X45440357Y-96717857D01*
X45668928Y-96717857D01*
X45783214Y-96660714D01*
X45840357Y-96546428D01*
X45840357Y-96489285D01*
X45783214Y-96375000D01*
X45668928Y-96317857D01*
X45497500Y-96317857D01*
X45383214Y-96260714D01*
X45326071Y-96146428D01*
X45326071Y-96089285D01*
X45383214Y-95975000D01*
X45497500Y-95917857D01*
X45668928Y-95917857D01*
X45783214Y-95975000D01*
X47268928Y-96717857D02*
X47268928Y-95517857D01*
X47668928Y-96375000D01*
X48068928Y-95517857D01*
X48068928Y-96717857D01*
X49211785Y-95517857D02*
X48640357Y-95517857D01*
X48583214Y-96089285D01*
X48640357Y-96032142D01*
X48754642Y-95975000D01*
X49040357Y-95975000D01*
X49154642Y-96032142D01*
X49211785Y-96089285D01*
X49268928Y-96203571D01*
X49268928Y-96489285D01*
X49211785Y-96603571D01*
X49154642Y-96660714D01*
X49040357Y-96717857D01*
X48754642Y-96717857D01*
X48640357Y-96660714D01*
X48583214Y-96603571D01*
X49783214Y-96089285D02*
X50183214Y-96089285D01*
X50354642Y-96717857D02*
X49783214Y-96717857D01*
X49783214Y-95517857D01*
X50354642Y-95517857D01*
X50697500Y-95517857D02*
X51097500Y-96717857D01*
X51497500Y-95517857D01*
X51726071Y-95517857D02*
X52411785Y-95517857D01*
X52068928Y-96717857D02*
X52068928Y-95517857D01*
X52697500Y-97175000D02*
X52754642Y-97117857D01*
X52868928Y-96946428D01*
X52926071Y-96832142D01*
X52983214Y-96660714D01*
X53040357Y-96375000D01*
X53040357Y-96146428D01*
X52983214Y-95860714D01*
X52926071Y-95689285D01*
X52868928Y-95575000D01*
X52754642Y-95403571D01*
X52697500Y-95346428D01*
X54526071Y-96260714D02*
X55440357Y-96260714D01*
X56926071Y-96717857D02*
X56926071Y-95517857D01*
X56926071Y-95975000D02*
X57040357Y-95917857D01*
X57268928Y-95917857D01*
X57383214Y-95975000D01*
X57440357Y-96032142D01*
X57497500Y-96146428D01*
X57497500Y-96489285D01*
X57440357Y-96603571D01*
X57383214Y-96660714D01*
X57268928Y-96717857D01*
X57040357Y-96717857D01*
X56926071Y-96660714D01*
X58526071Y-96717857D02*
X58526071Y-96089285D01*
X58468928Y-95975000D01*
X58354642Y-95917857D01*
X58126071Y-95917857D01*
X58011785Y-95975000D01*
X58526071Y-96660714D02*
X58411785Y-96717857D01*
X58126071Y-96717857D01*
X58011785Y-96660714D01*
X57954642Y-96546428D01*
X57954642Y-96432142D01*
X58011785Y-96317857D01*
X58126071Y-96260714D01*
X58411785Y-96260714D01*
X58526071Y-96203571D01*
X59040357Y-96660714D02*
X59154642Y-96717857D01*
X59383214Y-96717857D01*
X59497500Y-96660714D01*
X59554642Y-96546428D01*
X59554642Y-96489285D01*
X59497500Y-96375000D01*
X59383214Y-96317857D01*
X59211785Y-96317857D01*
X59097500Y-96260714D01*
X59040357Y-96146428D01*
X59040357Y-96089285D01*
X59097500Y-95975000D01*
X59211785Y-95917857D01*
X59383214Y-95917857D01*
X59497500Y-95975000D01*
X60526071Y-96660714D02*
X60411785Y-96717857D01*
X60183214Y-96717857D01*
X60068928Y-96660714D01*
X60011785Y-96546428D01*
X60011785Y-96089285D01*
X60068928Y-95975000D01*
X60183214Y-95917857D01*
X60411785Y-95917857D01*
X60526071Y-95975000D01*
X60583214Y-96089285D01*
X60583214Y-96203571D01*
X60011785Y-96317857D01*
X61611785Y-96717857D02*
X61611785Y-95517857D01*
X61611785Y-96660714D02*
X61497500Y-96717857D01*
X61268928Y-96717857D01*
X61154642Y-96660714D01*
X61097500Y-96603571D01*
X61040357Y-96489285D01*
X61040357Y-96146428D01*
X61097500Y-96032142D01*
X61154642Y-95975000D01*
X61268928Y-95917857D01*
X61497500Y-95917857D01*
X61611785Y-95975000D01*
X63268928Y-96717857D02*
X63154642Y-96660714D01*
X63097500Y-96603571D01*
X63040357Y-96489285D01*
X63040357Y-96146428D01*
X63097500Y-96032142D01*
X63154642Y-95975000D01*
X63268928Y-95917857D01*
X63440357Y-95917857D01*
X63554642Y-95975000D01*
X63611785Y-96032142D01*
X63668928Y-96146428D01*
X63668928Y-96489285D01*
X63611785Y-96603571D01*
X63554642Y-96660714D01*
X63440357Y-96717857D01*
X63268928Y-96717857D01*
X64183214Y-95917857D02*
X64183214Y-96717857D01*
X64183214Y-96032142D02*
X64240357Y-95975000D01*
X64354642Y-95917857D01*
X64526071Y-95917857D01*
X64640357Y-95975000D01*
X64697500Y-96089285D01*
X64697500Y-96717857D01*
X66068928Y-95917857D02*
X66297500Y-96717857D01*
X66526071Y-96146428D01*
X66754642Y-96717857D01*
X66983214Y-95917857D01*
X67611785Y-96717857D02*
X67497500Y-96660714D01*
X67440357Y-96603571D01*
X67383214Y-96489285D01*
X67383214Y-96146428D01*
X67440357Y-96032142D01*
X67497500Y-95975000D01*
X67611785Y-95917857D01*
X67783214Y-95917857D01*
X67897500Y-95975000D01*
X67954642Y-96032142D01*
X68011785Y-96146428D01*
X68011785Y-96489285D01*
X67954642Y-96603571D01*
X67897500Y-96660714D01*
X67783214Y-96717857D01*
X67611785Y-96717857D01*
X68526071Y-96717857D02*
X68526071Y-95917857D01*
X68526071Y-96146428D02*
X68583214Y-96032142D01*
X68640357Y-95975000D01*
X68754642Y-95917857D01*
X68868928Y-95917857D01*
X69268928Y-96717857D02*
X69268928Y-95517857D01*
X69383214Y-96260714D02*
X69726071Y-96717857D01*
X69726071Y-95917857D02*
X69268928Y-96375000D01*
X71154642Y-96717857D02*
X71154642Y-95517857D01*
X71154642Y-95975000D02*
X71268928Y-95917857D01*
X71497500Y-95917857D01*
X71611785Y-95975000D01*
X71668928Y-96032142D01*
X71726071Y-96146428D01*
X71726071Y-96489285D01*
X71668928Y-96603571D01*
X71611785Y-96660714D01*
X71497500Y-96717857D01*
X71268928Y-96717857D01*
X71154642Y-96660714D01*
X72126071Y-95917857D02*
X72411785Y-96717857D01*
X72697500Y-95917857D02*
X72411785Y-96717857D01*
X72297500Y-97003571D01*
X72240357Y-97060714D01*
X72126071Y-97117857D01*
X73954642Y-95517857D02*
X74240357Y-96717857D01*
X74468928Y-95860714D01*
X74697500Y-96717857D01*
X74983214Y-95517857D01*
X75383214Y-96375000D02*
X75954642Y-96375000D01*
X75268928Y-96717857D02*
X75668928Y-95517857D01*
X76068928Y-96717857D01*
X76411785Y-95632142D02*
X76468928Y-95575000D01*
X76583214Y-95517857D01*
X76868928Y-95517857D01*
X76983214Y-95575000D01*
X77040357Y-95632142D01*
X77097500Y-95746428D01*
X77097500Y-95860714D01*
X77040357Y-96032142D01*
X76354642Y-96717857D01*
X77097500Y-96717857D01*
X77611785Y-96089285D02*
X78011785Y-96089285D01*
X78183214Y-96717857D02*
X77611785Y-96717857D01*
X77611785Y-95517857D01*
X78183214Y-95517857D01*
X78697500Y-95517857D02*
X78697500Y-96489285D01*
X78754642Y-96603571D01*
X78811785Y-96660714D01*
X78926071Y-96717857D01*
X79154642Y-96717857D01*
X79268928Y-96660714D01*
X79326071Y-96603571D01*
X79383214Y-96489285D01*
X79383214Y-95517857D01*
X80297500Y-95517857D02*
X80297500Y-96375000D01*
X80240357Y-96546428D01*
X80126071Y-96660714D01*
X79954642Y-96717857D01*
X79840357Y-96717857D01*
X80868928Y-96260714D02*
X81783214Y-96260714D01*
X81326071Y-96717857D02*
X81326071Y-95803571D01*
X82354642Y-96717857D02*
X82354642Y-95517857D01*
X83040357Y-96717857D01*
X83040357Y-95517857D01*
X83554642Y-95632142D02*
X83611785Y-95575000D01*
X83726071Y-95517857D01*
X84011785Y-95517857D01*
X84126071Y-95575000D01*
X84183214Y-95632142D01*
X84240357Y-95746428D01*
X84240357Y-95860714D01*
X84183214Y-96032142D01*
X83497500Y-96717857D01*
X84240357Y-96717857D01*
X84697500Y-96375000D02*
X85268928Y-96375000D01*
X84583214Y-96717857D02*
X84983214Y-95517857D01*
X85383214Y-96717857D01*
X85783214Y-96717857D02*
X85783214Y-95517857D01*
X86068928Y-95517857D01*
X86240357Y-95575000D01*
X86354642Y-95689285D01*
X86411785Y-95803571D01*
X86468928Y-96032142D01*
X86468928Y-96203571D01*
X86411785Y-96432142D01*
X86354642Y-96546428D01*
X86240357Y-96660714D01*
X86068928Y-96717857D01*
X85783214Y-96717857D01*
X87668928Y-96717857D02*
X87268928Y-96146428D01*
X86983214Y-96717857D02*
X86983214Y-95517857D01*
X87440357Y-95517857D01*
X87554642Y-95575000D01*
X87611785Y-95632142D01*
X87668928Y-95746428D01*
X87668928Y-95917857D01*
X87611785Y-96032142D01*
X87554642Y-96089285D01*
X87440357Y-96146428D01*
X86983214Y-96146428D01*
D11*
X9771428Y-73867857D02*
X8628571Y-73867857D01*
X9771428Y-71992857D02*
X8628571Y-71992857D01*
X9200000Y-71421428D02*
X9200000Y-72564285D01*
X4218942Y-68058757D02*
X3718942Y-68058757D01*
X3718942Y-68844471D02*
X3718942Y-67344471D01*
X4433228Y-67344471D01*
X5647514Y-68844471D02*
X5647514Y-68058757D01*
X5576085Y-67915900D01*
X5433228Y-67844471D01*
X5147514Y-67844471D01*
X5004657Y-67915900D01*
X5647514Y-68773042D02*
X5504657Y-68844471D01*
X5147514Y-68844471D01*
X5004657Y-68773042D01*
X4933228Y-68630185D01*
X4933228Y-68487328D01*
X5004657Y-68344471D01*
X5147514Y-68273042D01*
X5504657Y-68273042D01*
X5647514Y-68201614D01*
X6361800Y-67844471D02*
X6361800Y-68844471D01*
X6361800Y-67987328D02*
X6433228Y-67915900D01*
X6576085Y-67844471D01*
X6790371Y-67844471D01*
X6933228Y-67915900D01*
X7004657Y-68058757D01*
X7004657Y-68844471D01*
X1869800Y-82027071D02*
X1869800Y-80527071D01*
X2441228Y-80527071D01*
X2584085Y-80598500D01*
X2655514Y-80669928D01*
X2726942Y-80812785D01*
X2726942Y-81027071D01*
X2655514Y-81169928D01*
X2584085Y-81241357D01*
X2441228Y-81312785D01*
X1869800Y-81312785D01*
X3155514Y-80527071D02*
X4012657Y-80527071D01*
X3584085Y-82027071D02*
X3584085Y-80527071D01*
X4298371Y-80527071D02*
X5155514Y-80527071D01*
X4726942Y-82027071D02*
X4726942Y-80527071D01*
X7084085Y-80527071D02*
X7369800Y-80527071D01*
X7512657Y-80598500D01*
X7655514Y-80741357D01*
X7726942Y-81027071D01*
X7726942Y-81527071D01*
X7655514Y-81812785D01*
X7512657Y-81955642D01*
X7369800Y-82027071D01*
X7084085Y-82027071D01*
X6941228Y-81955642D01*
X6798371Y-81812785D01*
X6726942Y-81527071D01*
X6726942Y-81027071D01*
X6798371Y-80741357D01*
X6941228Y-80598500D01*
X7084085Y-80527071D01*
X9012657Y-81027071D02*
X9012657Y-82027071D01*
X8369800Y-81027071D02*
X8369800Y-81812785D01*
X8441228Y-81955642D01*
X8584085Y-82027071D01*
X8798371Y-82027071D01*
X8941228Y-81955642D01*
X9012657Y-81884214D01*
X9512657Y-81027071D02*
X10084085Y-81027071D01*
X9726942Y-80527071D02*
X9726942Y-81812785D01*
X9798371Y-81955642D01*
X9941228Y-82027071D01*
X10084085Y-82027071D01*
X16450000Y-10657142D02*
X16450000Y-11371428D01*
X16021428Y-10514285D02*
X17521428Y-11014285D01*
X16021428Y-11514285D01*
X17021428Y-12014285D02*
X16021428Y-12014285D01*
X16878571Y-12014285D02*
X16950000Y-12085714D01*
X17021428Y-12228571D01*
X17021428Y-12442857D01*
X16950000Y-12585714D01*
X16807142Y-12657142D01*
X16021428Y-12657142D01*
X17021428Y-13157142D02*
X17021428Y-13728571D01*
X17521428Y-13371428D02*
X16235714Y-13371428D01*
X16092857Y-13442857D01*
X16021428Y-13585714D01*
X16021428Y-13728571D01*
X16092857Y-14800000D02*
X16021428Y-14657142D01*
X16021428Y-14371428D01*
X16092857Y-14228571D01*
X16235714Y-14157142D01*
X16807142Y-14157142D01*
X16950000Y-14228571D01*
X17021428Y-14371428D01*
X17021428Y-14657142D01*
X16950000Y-14800000D01*
X16807142Y-14871428D01*
X16664285Y-14871428D01*
X16521428Y-14157142D01*
X17021428Y-15514285D02*
X16021428Y-15514285D01*
X16878571Y-15514285D02*
X16950000Y-15585714D01*
X17021428Y-15728571D01*
X17021428Y-15942857D01*
X16950000Y-16085714D01*
X16807142Y-16157142D01*
X16021428Y-16157142D01*
X17021428Y-16871428D02*
X16021428Y-16871428D01*
X16878571Y-16871428D02*
X16950000Y-16942857D01*
X17021428Y-17085714D01*
X17021428Y-17300000D01*
X16950000Y-17442857D01*
X16807142Y-17514285D01*
X16021428Y-17514285D01*
X16021428Y-18871428D02*
X16807142Y-18871428D01*
X16950000Y-18800000D01*
X17021428Y-18657142D01*
X17021428Y-18371428D01*
X16950000Y-18228571D01*
X16092857Y-18871428D02*
X16021428Y-18728571D01*
X16021428Y-18371428D01*
X16092857Y-18228571D01*
X16235714Y-18157142D01*
X16378571Y-18157142D01*
X16521428Y-18228571D01*
X16592857Y-18371428D01*
X16592857Y-18728571D01*
X16664285Y-18871428D01*
D12*
X105061904Y-18957142D02*
X103538095Y-18957142D01*
X110861904Y-18957142D02*
X109338095Y-18957142D01*
X110100000Y-18195238D02*
X110100000Y-19719047D01*
X106066666Y-5304761D02*
X105114285Y-5304761D01*
X105019047Y-6257142D01*
X105114285Y-6161904D01*
X105304761Y-6066666D01*
X105780952Y-6066666D01*
X105971428Y-6161904D01*
X106066666Y-6257142D01*
X106161904Y-6447619D01*
X106161904Y-6923809D01*
X106066666Y-7114285D01*
X105971428Y-7209523D01*
X105780952Y-7304761D01*
X105304761Y-7304761D01*
X105114285Y-7209523D01*
X105019047Y-7114285D01*
X107400000Y-5304761D02*
X107590476Y-5304761D01*
X107780952Y-5400000D01*
X107876190Y-5495238D01*
X107971428Y-5685714D01*
X108066666Y-6066666D01*
X108066666Y-6542857D01*
X107971428Y-6923809D01*
X107876190Y-7114285D01*
X107780952Y-7209523D01*
X107590476Y-7304761D01*
X107400000Y-7304761D01*
X107209523Y-7209523D01*
X107114285Y-7114285D01*
X107019047Y-6923809D01*
X106923809Y-6542857D01*
X106923809Y-6066666D01*
X107019047Y-5685714D01*
X107114285Y-5495238D01*
X107209523Y-5400000D01*
X107400000Y-5304761D01*
X108638095Y-5304761D02*
X109304761Y-7304761D01*
X109971428Y-5304761D01*
X89038095Y-17542857D02*
X90561904Y-17542857D01*
X93557142Y-16738095D02*
X93557142Y-18261904D01*
X92795238Y-17500000D02*
X94319047Y-17500000D01*
X90361904Y-7204761D02*
X89219047Y-7204761D01*
X89790476Y-7204761D02*
X89790476Y-5204761D01*
X89600000Y-5490476D01*
X89409523Y-5680952D01*
X89219047Y-5776190D01*
X91123809Y-5395238D02*
X91219047Y-5300000D01*
X91409523Y-5204761D01*
X91885714Y-5204761D01*
X92076190Y-5300000D01*
X92171428Y-5395238D01*
X92266666Y-5585714D01*
X92266666Y-5776190D01*
X92171428Y-6061904D01*
X91028571Y-7204761D01*
X92266666Y-7204761D01*
X92838095Y-5204761D02*
X93504761Y-7204761D01*
X94171428Y-5204761D01*
D13*
X37700000Y-15000000D02*
G75*
G03*
X37700000Y-15000000I-7600000J0D01*
G01*
X33400000Y-15000000D02*
G75*
G03*
X33400000Y-15000000I-3300000J0D01*
G01*
D14*
X106336000Y-89654000D02*
X106336000Y-74704000D01*
X113836000Y-89654000D02*
X106336000Y-89654000D01*
X113836000Y-87104000D02*
X113836000Y-89654000D01*
X113836000Y-74704000D02*
X113836000Y-87104000D01*
X106336000Y-74704000D02*
X113836000Y-74704000D01*
X106336000Y-72636000D02*
X106336000Y-57686000D01*
X113836000Y-72636000D02*
X106336000Y-72636000D01*
X113836000Y-70086000D02*
X113836000Y-72636000D01*
X113836000Y-57686000D02*
X113836000Y-70086000D01*
X106336000Y-57686000D02*
X113836000Y-57686000D01*
X87654000Y-79460000D02*
X87654000Y-89480000D01*
X87654000Y-89460000D02*
X67554000Y-89460000D01*
X67494000Y-89460000D02*
X67494000Y-79460000D01*
X67554000Y-79460000D02*
X87654000Y-79460000D01*
X87654000Y-67702300D02*
X87654000Y-77722300D01*
X87654000Y-77702300D02*
X67554000Y-77702300D01*
X67494000Y-77702300D02*
X67494000Y-67702300D01*
X67554000Y-67702300D02*
X87654000Y-67702300D01*
X87654000Y-55944600D02*
X87654000Y-65964600D01*
X87654000Y-65944600D02*
X67554000Y-65944600D01*
X67494000Y-65944600D02*
X67494000Y-55944600D01*
X67554000Y-55944600D02*
X87654000Y-55944600D01*
X87654000Y-44186900D02*
X87654000Y-54206900D01*
X87654000Y-54186900D02*
X67554000Y-54186900D01*
X67494000Y-54186900D02*
X67494000Y-44186900D01*
X67554000Y-44186900D02*
X87654000Y-44186900D01*
X116356000Y-54916000D02*
X106336000Y-54916000D01*
X106356000Y-54916000D02*
X106356000Y-34816000D01*
X106356000Y-34756000D02*
X116356000Y-34756000D01*
X116356000Y-34816000D02*
X116356000Y-54916000D01*
X87654000Y-32429200D02*
X87654000Y-42449200D01*
X87654000Y-42429200D02*
X67554000Y-42429200D01*
X67494000Y-42429200D02*
X67494000Y-32429200D01*
X67554000Y-32429200D02*
X87654000Y-32429200D01*
X14662000Y-89460000D02*
X14662000Y-79440000D01*
X14662000Y-79460000D02*
X34762000Y-79460000D01*
X34822000Y-79460000D02*
X34822000Y-89460000D01*
X34762000Y-89460000D02*
X14662000Y-89460000D01*
X14662000Y-77702300D02*
X14662000Y-67682300D01*
X14662000Y-67702300D02*
X34762000Y-67702300D01*
X34822000Y-67702300D02*
X34822000Y-77702300D01*
X34762000Y-77702300D02*
X14662000Y-77702300D01*
X14662000Y-65944600D02*
X14662000Y-55924600D01*
X14662000Y-55944600D02*
X34762000Y-55944600D01*
X34822000Y-55944600D02*
X34822000Y-65944600D01*
X34762000Y-65944600D02*
X14662000Y-65944600D01*
X14662000Y-54186900D02*
X14662000Y-44166900D01*
X14662000Y-44186900D02*
X34762000Y-44186900D01*
X34822000Y-44186900D02*
X34822000Y-54186900D01*
X34762000Y-54186900D02*
X14662000Y-54186900D01*
X14662000Y-42429200D02*
X14662000Y-32409200D01*
X14662000Y-32429200D02*
X34762000Y-32429200D01*
X34822000Y-32429200D02*
X34822000Y-42429200D01*
X34762000Y-42429200D02*
X14662000Y-42429200D01*
D13*
X95285000Y-69300000D02*
X95285000Y-68660000D01*
X95285000Y-66500000D02*
X95285000Y-67140000D01*
X95285000Y-68660000D02*
X95915000Y-68660000D01*
X92565000Y-69250000D02*
X92565000Y-66550000D01*
X100368500Y-55811221D02*
X100368500Y-56136779D01*
X101388500Y-55811221D02*
X101388500Y-56136779D01*
X101388500Y-59629279D02*
X101388500Y-59303721D01*
X100368500Y-59629279D02*
X100368500Y-59303721D01*
X124983000Y-67566000D02*
X124983000Y-68206000D01*
X124983000Y-70366000D02*
X124983000Y-69726000D01*
X124983000Y-68206000D02*
X124353000Y-68206000D01*
X127703000Y-67616000D02*
X127703000Y-70316000D01*
D15*
G36*
X69839934Y-6578691D02*
G01*
X69867103Y-6604361D01*
X69897861Y-6654456D01*
X69963623Y-6775675D01*
X70061957Y-6963201D01*
X70190429Y-7212218D01*
X70346604Y-7517910D01*
X70528048Y-7875460D01*
X70732328Y-8280053D01*
X70957010Y-8726872D01*
X71199660Y-9211102D01*
X71457843Y-9727926D01*
X71729126Y-10272529D01*
X72011076Y-10840094D01*
X72183012Y-11186944D01*
X72531198Y-11890379D01*
X72843287Y-12521972D01*
X73121118Y-13085573D01*
X73366531Y-13585034D01*
X73581364Y-14024205D01*
X73767455Y-14406936D01*
X73926644Y-14737079D01*
X74060769Y-15018483D01*
X74171669Y-15255000D01*
X74261184Y-15450479D01*
X74331151Y-15608773D01*
X74383410Y-15733730D01*
X74419798Y-15829203D01*
X74442157Y-15899041D01*
X74450564Y-15935417D01*
X74464476Y-16012763D01*
X74476111Y-16083890D01*
X74483622Y-16153112D01*
X74485163Y-16224744D01*
X74478887Y-16303099D01*
X74462947Y-16392494D01*
X74435495Y-16497243D01*
X74394685Y-16621660D01*
X74338670Y-16770060D01*
X74265603Y-16946759D01*
X74173637Y-17156070D01*
X74060924Y-17402308D01*
X73925619Y-17689788D01*
X73765874Y-18022825D01*
X73579841Y-18405734D01*
X73365675Y-18842828D01*
X73121528Y-19338424D01*
X72845553Y-19896835D01*
X72535903Y-20522377D01*
X72190731Y-21219363D01*
X72175801Y-21249513D01*
X71833727Y-21939274D01*
X71513711Y-22582473D01*
X71217168Y-23176328D01*
X70945510Y-23718058D01*
X70700151Y-24204883D01*
X70482506Y-24634022D01*
X70293987Y-25002694D01*
X70136007Y-25308119D01*
X70009982Y-25547515D01*
X69917324Y-25718103D01*
X69859446Y-25817100D01*
X69841526Y-25841417D01*
X69744225Y-25907582D01*
X69656847Y-25936610D01*
X69654000Y-25936667D01*
X69568093Y-25909774D01*
X69470271Y-25844727D01*
X69466484Y-25841417D01*
X69431138Y-25788725D01*
X69360132Y-25662688D01*
X69254878Y-25466081D01*
X69116786Y-25201680D01*
X68947265Y-24872260D01*
X68747727Y-24480596D01*
X68519582Y-24029463D01*
X68264240Y-23521637D01*
X67983111Y-22959893D01*
X67677606Y-22347007D01*
X67349136Y-21685753D01*
X67133737Y-21251021D01*
X66779228Y-20534297D01*
X66461031Y-19889701D01*
X66177456Y-19313703D01*
X65926814Y-18802772D01*
X65707415Y-18353377D01*
X65517572Y-17961986D01*
X65355595Y-17625068D01*
X65219795Y-17339093D01*
X65108484Y-17100529D01*
X65019971Y-16905845D01*
X64952569Y-16751510D01*
X64904588Y-16633992D01*
X64874340Y-16549761D01*
X64860782Y-16498968D01*
X64845849Y-16420519D01*
X64833211Y-16348605D01*
X64824712Y-16278896D01*
X64822308Y-16210196D01*
X66130150Y-16210196D01*
X67878779Y-19739931D01*
X68131962Y-20250430D01*
X68374715Y-20738788D01*
X68604388Y-21199734D01*
X68818328Y-21628000D01*
X69013885Y-22018314D01*
X69188408Y-22365406D01*
X69339247Y-22664007D01*
X69463749Y-22908847D01*
X69559264Y-23094654D01*
X69623141Y-23216159D01*
X69652729Y-23268092D01*
X69654315Y-23269667D01*
X69676600Y-23232593D01*
X69733714Y-23124903D01*
X69822991Y-22951890D01*
X69941768Y-22718850D01*
X70087378Y-22431078D01*
X70257157Y-22093869D01*
X70448440Y-21712518D01*
X70658562Y-21292319D01*
X70884857Y-20838568D01*
X71124660Y-20356560D01*
X71375307Y-19851589D01*
X71413862Y-19773813D01*
X71666043Y-19264704D01*
X71907458Y-18776752D01*
X72135454Y-18315350D01*
X72347381Y-17885892D01*
X72540585Y-17493770D01*
X72712415Y-17144380D01*
X72860219Y-16843113D01*
X72981344Y-16595363D01*
X73073139Y-16406523D01*
X73132951Y-16281987D01*
X73158129Y-16227149D01*
X73158735Y-16225357D01*
X73142073Y-16180619D01*
X73090220Y-16065476D01*
X73005776Y-15885284D01*
X72891345Y-15645401D01*
X72749527Y-15351184D01*
X72582926Y-15007990D01*
X72394144Y-14621177D01*
X72185782Y-14196102D01*
X71960443Y-13738122D01*
X71720730Y-13252594D01*
X71469244Y-12744875D01*
X71417674Y-12640961D01*
X69664379Y-9109167D01*
X67897265Y-12659681D01*
X66130150Y-16210196D01*
X64822308Y-16210196D01*
X64822198Y-16207057D01*
X64827514Y-16128755D01*
X64842503Y-16039660D01*
X64869012Y-15935437D01*
X64908885Y-15811753D01*
X64963967Y-15664277D01*
X65036102Y-15488676D01*
X65127135Y-15280616D01*
X65238913Y-15035765D01*
X65373278Y-14749791D01*
X65532076Y-14418360D01*
X65717153Y-14037141D01*
X65930352Y-13601799D01*
X66173519Y-13108004D01*
X66448498Y-12551421D01*
X66757135Y-11927718D01*
X67101274Y-11232563D01*
X67115082Y-11204667D01*
X67401744Y-10626409D01*
X67679402Y-10067989D01*
X67945601Y-9534262D01*
X68197883Y-9030080D01*
X68433794Y-8560296D01*
X68650876Y-8129763D01*
X68846674Y-7743334D01*
X69018732Y-7405862D01*
X69164593Y-7122201D01*
X69281802Y-6897202D01*
X69367902Y-6735720D01*
X69420437Y-6642606D01*
X69434329Y-6622083D01*
X69567630Y-6527111D01*
X69707203Y-6512467D01*
X69839934Y-6578691D01*
G37*
X69839934Y-6578691D02*
X69867103Y-6604361D01*
X69897861Y-6654456D01*
X69963623Y-6775675D01*
X70061957Y-6963201D01*
X70190429Y-7212218D01*
X70346604Y-7517910D01*
X70528048Y-7875460D01*
X70732328Y-8280053D01*
X70957010Y-8726872D01*
X71199660Y-9211102D01*
X71457843Y-9727926D01*
X71729126Y-10272529D01*
X72011076Y-10840094D01*
X72183012Y-11186944D01*
X72531198Y-11890379D01*
X72843287Y-12521972D01*
X73121118Y-13085573D01*
X73366531Y-13585034D01*
X73581364Y-14024205D01*
X73767455Y-14406936D01*
X73926644Y-14737079D01*
X74060769Y-15018483D01*
X74171669Y-15255000D01*
X74261184Y-15450479D01*
X74331151Y-15608773D01*
X74383410Y-15733730D01*
X74419798Y-15829203D01*
X74442157Y-15899041D01*
X74450564Y-15935417D01*
X74464476Y-16012763D01*
X74476111Y-16083890D01*
X74483622Y-16153112D01*
X74485163Y-16224744D01*
X74478887Y-16303099D01*
X74462947Y-16392494D01*
X74435495Y-16497243D01*
X74394685Y-16621660D01*
X74338670Y-16770060D01*
X74265603Y-16946759D01*
X74173637Y-17156070D01*
X74060924Y-17402308D01*
X73925619Y-17689788D01*
X73765874Y-18022825D01*
X73579841Y-18405734D01*
X73365675Y-18842828D01*
X73121528Y-19338424D01*
X72845553Y-19896835D01*
X72535903Y-20522377D01*
X72190731Y-21219363D01*
X72175801Y-21249513D01*
X71833727Y-21939274D01*
X71513711Y-22582473D01*
X71217168Y-23176328D01*
X70945510Y-23718058D01*
X70700151Y-24204883D01*
X70482506Y-24634022D01*
X70293987Y-25002694D01*
X70136007Y-25308119D01*
X70009982Y-25547515D01*
X69917324Y-25718103D01*
X69859446Y-25817100D01*
X69841526Y-25841417D01*
X69744225Y-25907582D01*
X69656847Y-25936610D01*
X69654000Y-25936667D01*
X69568093Y-25909774D01*
X69470271Y-25844727D01*
X69466484Y-25841417D01*
X69431138Y-25788725D01*
X69360132Y-25662688D01*
X69254878Y-25466081D01*
X69116786Y-25201680D01*
X68947265Y-24872260D01*
X68747727Y-24480596D01*
X68519582Y-24029463D01*
X68264240Y-23521637D01*
X67983111Y-22959893D01*
X67677606Y-22347007D01*
X67349136Y-21685753D01*
X67133737Y-21251021D01*
X66779228Y-20534297D01*
X66461031Y-19889701D01*
X66177456Y-19313703D01*
X65926814Y-18802772D01*
X65707415Y-18353377D01*
X65517572Y-17961986D01*
X65355595Y-17625068D01*
X65219795Y-17339093D01*
X65108484Y-17100529D01*
X65019971Y-16905845D01*
X64952569Y-16751510D01*
X64904588Y-16633992D01*
X64874340Y-16549761D01*
X64860782Y-16498968D01*
X64845849Y-16420519D01*
X64833211Y-16348605D01*
X64824712Y-16278896D01*
X64822308Y-16210196D01*
X66130150Y-16210196D01*
X67878779Y-19739931D01*
X68131962Y-20250430D01*
X68374715Y-20738788D01*
X68604388Y-21199734D01*
X68818328Y-21628000D01*
X69013885Y-22018314D01*
X69188408Y-22365406D01*
X69339247Y-22664007D01*
X69463749Y-22908847D01*
X69559264Y-23094654D01*
X69623141Y-23216159D01*
X69652729Y-23268092D01*
X69654315Y-23269667D01*
X69676600Y-23232593D01*
X69733714Y-23124903D01*
X69822991Y-22951890D01*
X69941768Y-22718850D01*
X70087378Y-22431078D01*
X70257157Y-22093869D01*
X70448440Y-21712518D01*
X70658562Y-21292319D01*
X70884857Y-20838568D01*
X71124660Y-20356560D01*
X71375307Y-19851589D01*
X71413862Y-19773813D01*
X71666043Y-19264704D01*
X71907458Y-18776752D01*
X72135454Y-18315350D01*
X72347381Y-17885892D01*
X72540585Y-17493770D01*
X72712415Y-17144380D01*
X72860219Y-16843113D01*
X72981344Y-16595363D01*
X73073139Y-16406523D01*
X73132951Y-16281987D01*
X73158129Y-16227149D01*
X73158735Y-16225357D01*
X73142073Y-16180619D01*
X73090220Y-16065476D01*
X73005776Y-15885284D01*
X72891345Y-15645401D01*
X72749527Y-15351184D01*
X72582926Y-15007990D01*
X72394144Y-14621177D01*
X72185782Y-14196102D01*
X71960443Y-13738122D01*
X71720730Y-13252594D01*
X71469244Y-12744875D01*
X71417674Y-12640961D01*
X69664379Y-9109167D01*
X67897265Y-12659681D01*
X66130150Y-16210196D01*
X64822308Y-16210196D01*
X64822198Y-16207057D01*
X64827514Y-16128755D01*
X64842503Y-16039660D01*
X64869012Y-15935437D01*
X64908885Y-15811753D01*
X64963967Y-15664277D01*
X65036102Y-15488676D01*
X65127135Y-15280616D01*
X65238913Y-15035765D01*
X65373278Y-14749791D01*
X65532076Y-14418360D01*
X65717153Y-14037141D01*
X65930352Y-13601799D01*
X66173519Y-13108004D01*
X66448498Y-12551421D01*
X66757135Y-11927718D01*
X67101274Y-11232563D01*
X67115082Y-11204667D01*
X67401744Y-10626409D01*
X67679402Y-10067989D01*
X67945601Y-9534262D01*
X68197883Y-9030080D01*
X68433794Y-8560296D01*
X68650876Y-8129763D01*
X68846674Y-7743334D01*
X69018732Y-7405862D01*
X69164593Y-7122201D01*
X69281802Y-6897202D01*
X69367902Y-6735720D01*
X69420437Y-6642606D01*
X69434329Y-6622083D01*
X69567630Y-6527111D01*
X69707203Y-6512467D01*
X69839934Y-6578691D01*
G36*
X69779302Y-21113441D02*
G01*
X69841785Y-21130502D01*
X69863290Y-21174951D01*
X69865667Y-21237667D01*
X69861042Y-21312848D01*
X69832609Y-21350338D01*
X69758526Y-21363241D01*
X69654000Y-21364667D01*
X69528699Y-21361892D01*
X69466215Y-21344832D01*
X69444710Y-21300383D01*
X69442334Y-21237667D01*
X69446958Y-21162486D01*
X69475391Y-21124996D01*
X69549474Y-21112093D01*
X69654000Y-21110667D01*
X69779302Y-21113441D01*
G37*
X69779302Y-21113441D02*
X69841785Y-21130502D01*
X69863290Y-21174951D01*
X69865667Y-21237667D01*
X69861042Y-21312848D01*
X69832609Y-21350338D01*
X69758526Y-21363241D01*
X69654000Y-21364667D01*
X69528699Y-21361892D01*
X69466215Y-21344832D01*
X69444710Y-21300383D01*
X69442334Y-21237667D01*
X69446958Y-21162486D01*
X69475391Y-21124996D01*
X69549474Y-21112093D01*
X69654000Y-21110667D01*
X69779302Y-21113441D01*
G36*
X70035000Y-20983667D02*
G01*
X69273000Y-20983667D01*
X69273000Y-20729667D01*
X70035000Y-20729667D01*
X70035000Y-20983667D01*
G37*
X70035000Y-20983667D02*
X69273000Y-20983667D01*
X69273000Y-20729667D01*
X70035000Y-20729667D01*
X70035000Y-20983667D01*
G36*
X70246667Y-20560334D02*
G01*
X69061334Y-20560334D01*
X69061334Y-20348667D01*
X70246667Y-20348667D01*
X70246667Y-20560334D01*
G37*
X70246667Y-20560334D02*
X69061334Y-20560334D01*
X69061334Y-20348667D01*
X70246667Y-20348667D01*
X70246667Y-20560334D01*
G36*
X70416000Y-20179334D02*
G01*
X68892000Y-20179334D01*
X68892000Y-19925334D01*
X70416000Y-19925334D01*
X70416000Y-20179334D01*
G37*
X70416000Y-20179334D02*
X68892000Y-20179334D01*
X68892000Y-19925334D01*
X70416000Y-19925334D01*
X70416000Y-20179334D01*
G36*
X69933981Y-11460104D02*
G01*
X70178891Y-11464134D01*
X70380689Y-11470340D01*
X70527805Y-11478301D01*
X70608668Y-11487599D01*
X70620611Y-11493556D01*
X70595591Y-11539371D01*
X70534332Y-11646152D01*
X70443742Y-11802020D01*
X70330728Y-11995093D01*
X70202197Y-12213490D01*
X70193750Y-12227805D01*
X69781000Y-12927164D01*
X69781000Y-14706090D01*
X69503975Y-14731959D01*
X69301364Y-14761284D01*
X69141818Y-14804876D01*
X69039668Y-14857619D01*
X69008656Y-14908834D01*
X69040536Y-14961402D01*
X69115597Y-15029937D01*
X69118638Y-15032223D01*
X69172226Y-15068869D01*
X69225044Y-15088536D01*
X69296802Y-15091417D01*
X69407208Y-15077708D01*
X69575972Y-15047603D01*
X69630942Y-15037283D01*
X69958024Y-14990641D01*
X70217518Y-14986229D01*
X70407257Y-15023941D01*
X70502385Y-15079721D01*
X70571176Y-15188024D01*
X70579841Y-15312097D01*
X70552935Y-15378746D01*
X70454336Y-15456315D01*
X70291440Y-15504803D01*
X70079898Y-15523007D01*
X69835359Y-15509720D01*
X69573474Y-15463740D01*
X69543474Y-15456432D01*
X69393918Y-15421930D01*
X69296262Y-15411410D01*
X69221182Y-15424953D01*
X69149186Y-15457520D01*
X69048829Y-15522909D01*
X69029001Y-15582274D01*
X69089687Y-15648575D01*
X69148935Y-15687596D01*
X69240600Y-15734591D01*
X69322980Y-15744081D01*
X69436420Y-15719061D01*
X69463775Y-15710966D01*
X69706605Y-15654024D01*
X69952128Y-15624381D01*
X70175376Y-15623298D01*
X70351380Y-15652037D01*
X70385936Y-15664388D01*
X70492979Y-15721910D01*
X70561692Y-15782402D01*
X70569327Y-15796017D01*
X70577705Y-15920015D01*
X70528839Y-16043914D01*
X70449687Y-16119961D01*
X70333736Y-16152326D01*
X70159714Y-16165444D01*
X69951852Y-16159927D01*
X69734385Y-16136388D01*
X69537167Y-16096910D01*
X69374577Y-16060314D01*
X69266516Y-16052442D01*
X69188365Y-16071955D01*
X69177334Y-16077350D01*
X69056828Y-16146155D01*
X69010765Y-16197686D01*
X69035392Y-16247141D01*
X69120880Y-16306058D01*
X69202892Y-16352602D01*
X69270041Y-16373904D01*
X69349743Y-16370963D01*
X69469418Y-16344778D01*
X69557815Y-16321976D01*
X69845944Y-16263830D01*
X70097698Y-16246336D01*
X70305005Y-16267373D01*
X70459793Y-16324819D01*
X70553988Y-16416551D01*
X70579517Y-16540450D01*
X70571416Y-16588357D01*
X70514329Y-16684354D01*
X70436190Y-16743076D01*
X70297794Y-16778096D01*
X70103637Y-16790579D01*
X69879438Y-16781003D01*
X69650914Y-16749849D01*
X69543474Y-16726432D01*
X69393607Y-16691917D01*
X69295766Y-16681447D01*
X69220802Y-16695001D01*
X69151870Y-16726131D01*
X69038620Y-16795141D01*
X69005151Y-16851527D01*
X69050301Y-16907502D01*
X69130194Y-16954075D01*
X69238314Y-17001772D01*
X69328362Y-17011622D01*
X69444322Y-16986648D01*
X69474544Y-16977725D01*
X69738678Y-16915756D01*
X69989525Y-16889171D01*
X70212329Y-16896921D01*
X70392330Y-16937956D01*
X70514770Y-17011226D01*
X70546925Y-17054000D01*
X70574656Y-17181149D01*
X70536401Y-17301266D01*
X70442917Y-17382856D01*
X70433229Y-17386831D01*
X70291117Y-17416442D01*
X70093618Y-17425476D01*
X69867289Y-17414643D01*
X69638691Y-17384651D01*
X69532214Y-17362780D01*
X69382255Y-17330059D01*
X69285297Y-17320259D01*
X69212568Y-17334350D01*
X69135297Y-17373306D01*
X69130048Y-17376362D01*
X69042246Y-17443163D01*
X68998829Y-17506632D01*
X68997834Y-17514706D01*
X69037306Y-17573018D01*
X69144382Y-17623172D01*
X69302052Y-17659983D01*
X69493305Y-17678263D01*
X69537584Y-17679277D01*
X69781000Y-17681667D01*
X69781000Y-19544334D01*
X70204334Y-19544334D01*
X70396446Y-19544978D01*
X70519349Y-19549486D01*
X70588502Y-19561724D01*
X70619362Y-19585555D01*
X70627387Y-19624844D01*
X70627667Y-19650167D01*
X70627667Y-19756000D01*
X68680334Y-19756000D01*
X68680334Y-19650167D01*
X68682910Y-19602139D01*
X68700944Y-19571413D01*
X68749894Y-19554125D01*
X68845218Y-19546410D01*
X69002374Y-19544404D01*
X69103667Y-19544334D01*
X69527000Y-19544334D01*
X69527000Y-18740000D01*
X69526099Y-18454936D01*
X69522866Y-18244146D01*
X69516509Y-18097251D01*
X69506236Y-18003872D01*
X69491255Y-17953630D01*
X69470772Y-17936148D01*
X69465584Y-17935667D01*
X69288895Y-17915666D01*
X69101309Y-17863361D01*
X68936555Y-17790298D01*
X68841056Y-17721902D01*
X68745306Y-17586814D01*
X68733968Y-17455165D01*
X68807063Y-17323533D01*
X68843959Y-17284969D01*
X68965251Y-17168764D01*
X68948261Y-17151774D01*
X69862866Y-17151774D01*
X69883877Y-17172371D01*
X69886834Y-17173667D01*
X69997215Y-17203106D01*
X70120416Y-17211693D01*
X70222835Y-17199429D01*
X70267834Y-17173667D01*
X70245754Y-17148988D01*
X70148297Y-17135880D01*
X70048082Y-17134309D01*
X69915856Y-17139512D01*
X69862866Y-17151774D01*
X68948261Y-17151774D01*
X68843959Y-17047472D01*
X68747949Y-16921046D01*
X68732924Y-16806068D01*
X68798842Y-16689437D01*
X68842618Y-16644296D01*
X68962569Y-16531082D01*
X68946561Y-16515074D01*
X69844717Y-16515074D01*
X69852095Y-16528278D01*
X69886834Y-16538667D01*
X70077357Y-16570689D01*
X70224836Y-16554354D01*
X70267834Y-16538667D01*
X70283875Y-16518884D01*
X70218933Y-16507493D01*
X70071410Y-16504236D01*
X70056167Y-16504318D01*
X69910901Y-16507460D01*
X69844717Y-16515074D01*
X68946561Y-16515074D01*
X68842618Y-16411131D01*
X68765089Y-16313490D01*
X68724437Y-16223047D01*
X68722667Y-16206845D01*
X68752016Y-16124026D01*
X68824435Y-16027431D01*
X68842618Y-16009296D01*
X68962569Y-15896082D01*
X68947285Y-15880798D01*
X69853302Y-15880798D01*
X69865667Y-15903667D01*
X69951669Y-15932709D01*
X70069069Y-15944002D01*
X70182974Y-15937545D01*
X70258493Y-15913339D01*
X70267834Y-15903667D01*
X70245679Y-15878703D01*
X70148461Y-15864555D01*
X70048082Y-15861982D01*
X69911300Y-15866711D01*
X69853302Y-15880798D01*
X68947285Y-15880798D01*
X68842618Y-15776131D01*
X68746368Y-15644459D01*
X68733458Y-15520974D01*
X68803846Y-15399168D01*
X68839929Y-15363143D01*
X68957190Y-15255703D01*
X68948262Y-15246774D01*
X69862866Y-15246774D01*
X69883877Y-15267371D01*
X69886834Y-15268667D01*
X69997215Y-15298106D01*
X70120416Y-15306693D01*
X70222835Y-15294429D01*
X70267834Y-15268667D01*
X70245754Y-15243988D01*
X70148297Y-15230880D01*
X70048082Y-15229309D01*
X69915856Y-15234512D01*
X69862866Y-15246774D01*
X68948262Y-15246774D01*
X68839929Y-15138441D01*
X68756064Y-15023819D01*
X68722675Y-14911590D01*
X68722667Y-14910166D01*
X68762291Y-14778064D01*
X68870990Y-14662684D01*
X69033506Y-14573255D01*
X69234580Y-14519004D01*
X69389417Y-14506903D01*
X69527000Y-14506667D01*
X69526470Y-12919167D01*
X69103402Y-12204774D01*
X68973395Y-11984474D01*
X68859568Y-11790118D01*
X68802385Y-11691500D01*
X69108694Y-11691500D01*
X69307264Y-12039378D01*
X69505834Y-12387255D01*
X69518214Y-12044703D01*
X69521843Y-11883529D01*
X69520541Y-11758115D01*
X69514665Y-11689797D01*
X69512181Y-11683736D01*
X69462635Y-11675338D01*
X69358657Y-11675380D01*
X69301231Y-11678412D01*
X69108694Y-11691500D01*
X68802385Y-11691500D01*
X68790112Y-11670334D01*
X69781000Y-11670334D01*
X69781081Y-12040750D01*
X69781162Y-12411167D01*
X69992748Y-12059368D01*
X70083180Y-11907211D01*
X70154328Y-11784081D01*
X70196688Y-11706614D01*
X70204334Y-11688951D01*
X70166231Y-11678327D01*
X70068818Y-11671587D01*
X69992667Y-11670334D01*
X69781000Y-11670334D01*
X68790112Y-11670334D01*
X68768477Y-11633023D01*
X68706679Y-11524507D01*
X68680732Y-11475888D01*
X68680334Y-11474524D01*
X68720700Y-11470022D01*
X68833937Y-11466016D01*
X69008247Y-11462698D01*
X69231835Y-11460260D01*
X69492903Y-11458894D01*
X69657528Y-11458667D01*
X69933981Y-11460104D01*
G37*
X69933981Y-11460104D02*
X70178891Y-11464134D01*
X70380689Y-11470340D01*
X70527805Y-11478301D01*
X70608668Y-11487599D01*
X70620611Y-11493556D01*
X70595591Y-11539371D01*
X70534332Y-11646152D01*
X70443742Y-11802020D01*
X70330728Y-11995093D01*
X70202197Y-12213490D01*
X70193750Y-12227805D01*
X69781000Y-12927164D01*
X69781000Y-14706090D01*
X69503975Y-14731959D01*
X69301364Y-14761284D01*
X69141818Y-14804876D01*
X69039668Y-14857619D01*
X69008656Y-14908834D01*
X69040536Y-14961402D01*
X69115597Y-15029937D01*
X69118638Y-15032223D01*
X69172226Y-15068869D01*
X69225044Y-15088536D01*
X69296802Y-15091417D01*
X69407208Y-15077708D01*
X69575972Y-15047603D01*
X69630942Y-15037283D01*
X69958024Y-14990641D01*
X70217518Y-14986229D01*
X70407257Y-15023941D01*
X70502385Y-15079721D01*
X70571176Y-15188024D01*
X70579841Y-15312097D01*
X70552935Y-15378746D01*
X70454336Y-15456315D01*
X70291440Y-15504803D01*
X70079898Y-15523007D01*
X69835359Y-15509720D01*
X69573474Y-15463740D01*
X69543474Y-15456432D01*
X69393918Y-15421930D01*
X69296262Y-15411410D01*
X69221182Y-15424953D01*
X69149186Y-15457520D01*
X69048829Y-15522909D01*
X69029001Y-15582274D01*
X69089687Y-15648575D01*
X69148935Y-15687596D01*
X69240600Y-15734591D01*
X69322980Y-15744081D01*
X69436420Y-15719061D01*
X69463775Y-15710966D01*
X69706605Y-15654024D01*
X69952128Y-15624381D01*
X70175376Y-15623298D01*
X70351380Y-15652037D01*
X70385936Y-15664388D01*
X70492979Y-15721910D01*
X70561692Y-15782402D01*
X70569327Y-15796017D01*
X70577705Y-15920015D01*
X70528839Y-16043914D01*
X70449687Y-16119961D01*
X70333736Y-16152326D01*
X70159714Y-16165444D01*
X69951852Y-16159927D01*
X69734385Y-16136388D01*
X69537167Y-16096910D01*
X69374577Y-16060314D01*
X69266516Y-16052442D01*
X69188365Y-16071955D01*
X69177334Y-16077350D01*
X69056828Y-16146155D01*
X69010765Y-16197686D01*
X69035392Y-16247141D01*
X69120880Y-16306058D01*
X69202892Y-16352602D01*
X69270041Y-16373904D01*
X69349743Y-16370963D01*
X69469418Y-16344778D01*
X69557815Y-16321976D01*
X69845944Y-16263830D01*
X70097698Y-16246336D01*
X70305005Y-16267373D01*
X70459793Y-16324819D01*
X70553988Y-16416551D01*
X70579517Y-16540450D01*
X70571416Y-16588357D01*
X70514329Y-16684354D01*
X70436190Y-16743076D01*
X70297794Y-16778096D01*
X70103637Y-16790579D01*
X69879438Y-16781003D01*
X69650914Y-16749849D01*
X69543474Y-16726432D01*
X69393607Y-16691917D01*
X69295766Y-16681447D01*
X69220802Y-16695001D01*
X69151870Y-16726131D01*
X69038620Y-16795141D01*
X69005151Y-16851527D01*
X69050301Y-16907502D01*
X69130194Y-16954075D01*
X69238314Y-17001772D01*
X69328362Y-17011622D01*
X69444322Y-16986648D01*
X69474544Y-16977725D01*
X69738678Y-16915756D01*
X69989525Y-16889171D01*
X70212329Y-16896921D01*
X70392330Y-16937956D01*
X70514770Y-17011226D01*
X70546925Y-17054000D01*
X70574656Y-17181149D01*
X70536401Y-17301266D01*
X70442917Y-17382856D01*
X70433229Y-17386831D01*
X70291117Y-17416442D01*
X70093618Y-17425476D01*
X69867289Y-17414643D01*
X69638691Y-17384651D01*
X69532214Y-17362780D01*
X69382255Y-17330059D01*
X69285297Y-17320259D01*
X69212568Y-17334350D01*
X69135297Y-17373306D01*
X69130048Y-17376362D01*
X69042246Y-17443163D01*
X68998829Y-17506632D01*
X68997834Y-17514706D01*
X69037306Y-17573018D01*
X69144382Y-17623172D01*
X69302052Y-17659983D01*
X69493305Y-17678263D01*
X69537584Y-17679277D01*
X69781000Y-17681667D01*
X69781000Y-19544334D01*
X70204334Y-19544334D01*
X70396446Y-19544978D01*
X70519349Y-19549486D01*
X70588502Y-19561724D01*
X70619362Y-19585555D01*
X70627387Y-19624844D01*
X70627667Y-19650167D01*
X70627667Y-19756000D01*
X68680334Y-19756000D01*
X68680334Y-19650167D01*
X68682910Y-19602139D01*
X68700944Y-19571413D01*
X68749894Y-19554125D01*
X68845218Y-19546410D01*
X69002374Y-19544404D01*
X69103667Y-19544334D01*
X69527000Y-19544334D01*
X69527000Y-18740000D01*
X69526099Y-18454936D01*
X69522866Y-18244146D01*
X69516509Y-18097251D01*
X69506236Y-18003872D01*
X69491255Y-17953630D01*
X69470772Y-17936148D01*
X69465584Y-17935667D01*
X69288895Y-17915666D01*
X69101309Y-17863361D01*
X68936555Y-17790298D01*
X68841056Y-17721902D01*
X68745306Y-17586814D01*
X68733968Y-17455165D01*
X68807063Y-17323533D01*
X68843959Y-17284969D01*
X68965251Y-17168764D01*
X68948261Y-17151774D01*
X69862866Y-17151774D01*
X69883877Y-17172371D01*
X69886834Y-17173667D01*
X69997215Y-17203106D01*
X70120416Y-17211693D01*
X70222835Y-17199429D01*
X70267834Y-17173667D01*
X70245754Y-17148988D01*
X70148297Y-17135880D01*
X70048082Y-17134309D01*
X69915856Y-17139512D01*
X69862866Y-17151774D01*
X68948261Y-17151774D01*
X68843959Y-17047472D01*
X68747949Y-16921046D01*
X68732924Y-16806068D01*
X68798842Y-16689437D01*
X68842618Y-16644296D01*
X68962569Y-16531082D01*
X68946561Y-16515074D01*
X69844717Y-16515074D01*
X69852095Y-16528278D01*
X69886834Y-16538667D01*
X70077357Y-16570689D01*
X70224836Y-16554354D01*
X70267834Y-16538667D01*
X70283875Y-16518884D01*
X70218933Y-16507493D01*
X70071410Y-16504236D01*
X70056167Y-16504318D01*
X69910901Y-16507460D01*
X69844717Y-16515074D01*
X68946561Y-16515074D01*
X68842618Y-16411131D01*
X68765089Y-16313490D01*
X68724437Y-16223047D01*
X68722667Y-16206845D01*
X68752016Y-16124026D01*
X68824435Y-16027431D01*
X68842618Y-16009296D01*
X68962569Y-15896082D01*
X68947285Y-15880798D01*
X69853302Y-15880798D01*
X69865667Y-15903667D01*
X69951669Y-15932709D01*
X70069069Y-15944002D01*
X70182974Y-15937545D01*
X70258493Y-15913339D01*
X70267834Y-15903667D01*
X70245679Y-15878703D01*
X70148461Y-15864555D01*
X70048082Y-15861982D01*
X69911300Y-15866711D01*
X69853302Y-15880798D01*
X68947285Y-15880798D01*
X68842618Y-15776131D01*
X68746368Y-15644459D01*
X68733458Y-15520974D01*
X68803846Y-15399168D01*
X68839929Y-15363143D01*
X68957190Y-15255703D01*
X68948262Y-15246774D01*
X69862866Y-15246774D01*
X69883877Y-15267371D01*
X69886834Y-15268667D01*
X69997215Y-15298106D01*
X70120416Y-15306693D01*
X70222835Y-15294429D01*
X70267834Y-15268667D01*
X70245754Y-15243988D01*
X70148297Y-15230880D01*
X70048082Y-15229309D01*
X69915856Y-15234512D01*
X69862866Y-15246774D01*
X68948262Y-15246774D01*
X68839929Y-15138441D01*
X68756064Y-15023819D01*
X68722675Y-14911590D01*
X68722667Y-14910166D01*
X68762291Y-14778064D01*
X68870990Y-14662684D01*
X69033506Y-14573255D01*
X69234580Y-14519004D01*
X69389417Y-14506903D01*
X69527000Y-14506667D01*
X69526470Y-12919167D01*
X69103402Y-12204774D01*
X68973395Y-11984474D01*
X68859568Y-11790118D01*
X68802385Y-11691500D01*
X69108694Y-11691500D01*
X69307264Y-12039378D01*
X69505834Y-12387255D01*
X69518214Y-12044703D01*
X69521843Y-11883529D01*
X69520541Y-11758115D01*
X69514665Y-11689797D01*
X69512181Y-11683736D01*
X69462635Y-11675338D01*
X69358657Y-11675380D01*
X69301231Y-11678412D01*
X69108694Y-11691500D01*
X68802385Y-11691500D01*
X68790112Y-11670334D01*
X69781000Y-11670334D01*
X69781081Y-12040750D01*
X69781162Y-12411167D01*
X69992748Y-12059368D01*
X70083180Y-11907211D01*
X70154328Y-11784081D01*
X70196688Y-11706614D01*
X70204334Y-11688951D01*
X70166231Y-11678327D01*
X70068818Y-11671587D01*
X69992667Y-11670334D01*
X69781000Y-11670334D01*
X68790112Y-11670334D01*
X68768477Y-11633023D01*
X68706679Y-11524507D01*
X68680732Y-11475888D01*
X68680334Y-11474524D01*
X68720700Y-11470022D01*
X68833937Y-11466016D01*
X69008247Y-11462698D01*
X69231835Y-11460260D01*
X69492903Y-11458894D01*
X69657528Y-11458667D01*
X69933981Y-11460104D01*
D13*
X1740000Y-76960000D02*
X7710000Y-76960000D01*
X7710000Y-76960000D02*
X7710000Y-69340000D01*
X7710000Y-69340000D02*
X1740000Y-69340000D01*
X1740000Y-69340000D02*
X1740000Y-76960000D01*
X1750000Y-73650000D02*
X2500000Y-73650000D01*
X2500000Y-73650000D02*
X2500000Y-72650000D01*
X2500000Y-72650000D02*
X1750000Y-72650000D01*
X1750000Y-72650000D02*
X1750000Y-73650000D01*
X1750000Y-76950000D02*
X2500000Y-76950000D01*
X2500000Y-76950000D02*
X2500000Y-75150000D01*
X2500000Y-75150000D02*
X1750000Y-75150000D01*
X1750000Y-75150000D02*
X1750000Y-76950000D01*
X1750000Y-71150000D02*
X2500000Y-71150000D01*
X2500000Y-71150000D02*
X2500000Y-69350000D01*
X2500000Y-69350000D02*
X1750000Y-69350000D01*
X1750000Y-69350000D02*
X1750000Y-71150000D01*
X4000000Y-76950000D02*
X4000000Y-76200000D01*
X4000000Y-76200000D02*
X6950000Y-76200000D01*
X6950000Y-76200000D02*
X6950000Y-73150000D01*
X4000000Y-69350000D02*
X4000000Y-70100000D01*
X4000000Y-70100000D02*
X6950000Y-70100000D01*
X6950000Y-70100000D02*
X6950000Y-73150000D01*
X1450000Y-76000000D02*
X1450000Y-77250000D01*
X1450000Y-77250000D02*
X2700000Y-77250000D01*
X91680000Y-12600000D02*
G75*
G03*
X91680000Y-12600000I-1680000J0D01*
G01*
X95310000Y-8500000D02*
X88190000Y-8500000D01*
X95310000Y-9600000D02*
X88190000Y-9600000D01*
X95310000Y-15760000D02*
X88190000Y-15760000D01*
X95310000Y-8040000D02*
X88190000Y-8040000D01*
X95310000Y-15760000D02*
X95310000Y-8040000D01*
X88190000Y-15760000D02*
X88190000Y-8040000D01*
X88725000Y-13669000D02*
X88854000Y-13541000D01*
X90975000Y-11419000D02*
X91069000Y-11326000D01*
X88930000Y-13875000D02*
X89024000Y-13781000D01*
X91145000Y-11659000D02*
X91274000Y-11531000D01*
X95550000Y-8440000D02*
X95550000Y-7800000D01*
X95550000Y-7800000D02*
X95150000Y-7800000D01*
X93471326Y-10919901D02*
G75*
G02*
X94366000Y-11160000I28674J-1680099D01*
G01*
X94925358Y-11710106D02*
G75*
G02*
X94940000Y-13466000I-1425358J-889894D01*
G01*
X94389894Y-14025358D02*
G75*
G02*
X92634000Y-14040000I-889894J1425358D01*
G01*
X92074495Y-13490193D02*
G75*
G02*
X92075000Y-11709000I1425505J890193D01*
G01*
X92609736Y-11175279D02*
G75*
G02*
X93500000Y-10920000I890264J-1424721D01*
G01*
D10*
X66284000Y-57673000D02*
X59284000Y-57673000D01*
X66284000Y-51673000D02*
X66284000Y-57673000D01*
X52284000Y-51673000D02*
X66284000Y-51673000D01*
X52284000Y-57673000D02*
X52284000Y-51673000D01*
X59284000Y-57673000D02*
X52284000Y-57673000D01*
X58784000Y-57673000D02*
X58534000Y-51673000D01*
X59534000Y-57673000D02*
X60034000Y-51673000D01*
X58034000Y-57673000D02*
X57534000Y-51673000D01*
X57284000Y-57673000D02*
X56534000Y-51673000D01*
X56534000Y-57673000D02*
X55534000Y-51673000D01*
X55784000Y-57673000D02*
X54784000Y-51673000D01*
X54784000Y-57673000D02*
X53784000Y-51673000D01*
X53784000Y-57673000D02*
X52784000Y-51673000D01*
X53034000Y-57673000D02*
X52284000Y-54173000D01*
X60284000Y-57673000D02*
X61034000Y-51673000D01*
X61034000Y-57673000D02*
X62034000Y-51673000D01*
X62034000Y-57673000D02*
X63034000Y-51673000D01*
X63034000Y-57673000D02*
X64034000Y-51673000D01*
X63784000Y-57673000D02*
X64784000Y-51673000D01*
X64784000Y-57673000D02*
X65784000Y-51673000D01*
X65534000Y-57673000D02*
X66284000Y-54173000D01*
D15*
G36*
X91718814Y-90818931D02*
G01*
X91802635Y-91263555D01*
X92111920Y-91391053D01*
X92421206Y-91518551D01*
X92792246Y-91266246D01*
X92896157Y-91195996D01*
X92990087Y-91133272D01*
X93069652Y-91080938D01*
X93130470Y-91041857D01*
X93168157Y-91018893D01*
X93178421Y-91013942D01*
X93196910Y-91026676D01*
X93236420Y-91061882D01*
X93292522Y-91115062D01*
X93360787Y-91181718D01*
X93436786Y-91257354D01*
X93516092Y-91337472D01*
X93594275Y-91417574D01*
X93666907Y-91493164D01*
X93729559Y-91559745D01*
X93777803Y-91612818D01*
X93807210Y-91647887D01*
X93814241Y-91659623D01*
X93804123Y-91681260D01*
X93775759Y-91728662D01*
X93732129Y-91797193D01*
X93676218Y-91882215D01*
X93611006Y-91979093D01*
X93573219Y-92034350D01*
X93504343Y-92135248D01*
X93443140Y-92226299D01*
X93392578Y-92302970D01*
X93355628Y-92360728D01*
X93335258Y-92395043D01*
X93332197Y-92402254D01*
X93339136Y-92422748D01*
X93358051Y-92470513D01*
X93386087Y-92538832D01*
X93420391Y-92620989D01*
X93458109Y-92710270D01*
X93496387Y-92799958D01*
X93532370Y-92883338D01*
X93563206Y-92953694D01*
X93586039Y-93004310D01*
X93598017Y-93028471D01*
X93598724Y-93029422D01*
X93617531Y-93034036D01*
X93667618Y-93044328D01*
X93743793Y-93059287D01*
X93840865Y-93077901D01*
X93953643Y-93099159D01*
X94019442Y-93111418D01*
X94139950Y-93134362D01*
X94248797Y-93156195D01*
X94340476Y-93175722D01*
X94409481Y-93191748D01*
X94450304Y-93203079D01*
X94458511Y-93206674D01*
X94466548Y-93231006D01*
X94473033Y-93285959D01*
X94477970Y-93365108D01*
X94481364Y-93462026D01*
X94483218Y-93570287D01*
X94483538Y-93683465D01*
X94482327Y-93795135D01*
X94479590Y-93898868D01*
X94475331Y-93988241D01*
X94469555Y-94056826D01*
X94462267Y-94098197D01*
X94457895Y-94106810D01*
X94431764Y-94117133D01*
X94376393Y-94131892D01*
X94299107Y-94149352D01*
X94207230Y-94167780D01*
X94175158Y-94173741D01*
X94020524Y-94202066D01*
X93898375Y-94224876D01*
X93804673Y-94243080D01*
X93735384Y-94257583D01*
X93686471Y-94269292D01*
X93653897Y-94279115D01*
X93633628Y-94287956D01*
X93621626Y-94296724D01*
X93619947Y-94298457D01*
X93603184Y-94326371D01*
X93577614Y-94380695D01*
X93545788Y-94454777D01*
X93510260Y-94541965D01*
X93473583Y-94635608D01*
X93438311Y-94729052D01*
X93406996Y-94815647D01*
X93382193Y-94888740D01*
X93366454Y-94941678D01*
X93362332Y-94967811D01*
X93362676Y-94968726D01*
X93376641Y-94990086D01*
X93408322Y-95037084D01*
X93454391Y-95104827D01*
X93511518Y-95188423D01*
X93576373Y-95282982D01*
X93594843Y-95309854D01*
X93660699Y-95407275D01*
X93718650Y-95496163D01*
X93765538Y-95571412D01*
X93798207Y-95627920D01*
X93813500Y-95660581D01*
X93814241Y-95664593D01*
X93801392Y-95685684D01*
X93765888Y-95727464D01*
X93712293Y-95785445D01*
X93645171Y-95855135D01*
X93569087Y-95932045D01*
X93488604Y-96011683D01*
X93408287Y-96089561D01*
X93332699Y-96161186D01*
X93266405Y-96222070D01*
X93213969Y-96267721D01*
X93179955Y-96293650D01*
X93170545Y-96297883D01*
X93148643Y-96287912D01*
X93103800Y-96261020D01*
X93043321Y-96221736D01*
X92996789Y-96190117D01*
X92912475Y-96132098D01*
X92812626Y-96063784D01*
X92712473Y-95995579D01*
X92658627Y-95959075D01*
X92476371Y-95835800D01*
X92323381Y-95918520D01*
X92253682Y-95954759D01*
X92194414Y-95982926D01*
X92154311Y-95998991D01*
X92144103Y-96001226D01*
X92131829Y-95984722D01*
X92107613Y-95938082D01*
X92073263Y-95865609D01*
X92030588Y-95771606D01*
X91981394Y-95660374D01*
X91927490Y-95536215D01*
X91870684Y-95403432D01*
X91812782Y-95266327D01*
X91755593Y-95129202D01*
X91700924Y-94996358D01*
X91650584Y-94872098D01*
X91606380Y-94760725D01*
X91570119Y-94666539D01*
X91543609Y-94593844D01*
X91528658Y-94546941D01*
X91526254Y-94530833D01*
X91545311Y-94510286D01*
X91587036Y-94476933D01*
X91642706Y-94437702D01*
X91647378Y-94434599D01*
X91791264Y-94319423D01*
X91907283Y-94185053D01*
X91994430Y-94035784D01*
X92051699Y-93875913D01*
X92078086Y-93709737D01*
X92072585Y-93541552D01*
X92034190Y-93375655D01*
X91961895Y-93216342D01*
X91940626Y-93181487D01*
X91829996Y-93040737D01*
X91699302Y-92927714D01*
X91553064Y-92843003D01*
X91395808Y-92787194D01*
X91232057Y-92760874D01*
X91066333Y-92764630D01*
X90903162Y-92799050D01*
X90747065Y-92864723D01*
X90602567Y-92962235D01*
X90557869Y-93001813D01*
X90444112Y-93125703D01*
X90361218Y-93256124D01*
X90304356Y-93402315D01*
X90272687Y-93547088D01*
X90264869Y-93709860D01*
X90290938Y-93873440D01*
X90348245Y-94032298D01*
X90434144Y-94180906D01*
X90545986Y-94313735D01*
X90681123Y-94425256D01*
X90698883Y-94437011D01*
X90755150Y-94475508D01*
X90797923Y-94508863D01*
X90818372Y-94530160D01*
X90818669Y-94530833D01*
X90814279Y-94553871D01*
X90796876Y-94606157D01*
X90768268Y-94683390D01*
X90730265Y-94781268D01*
X90684674Y-94895491D01*
X90633303Y-95021758D01*
X90577962Y-95155767D01*
X90520458Y-95293218D01*
X90462601Y-95429808D01*
X90406198Y-95561237D01*
X90353058Y-95683205D01*
X90304990Y-95791409D01*
X90263801Y-95881549D01*
X90231301Y-95949323D01*
X90209297Y-95990430D01*
X90200436Y-96001226D01*
X90173360Y-95992819D01*
X90122697Y-95970272D01*
X90057183Y-95937613D01*
X90021159Y-95918520D01*
X89868168Y-95835800D01*
X89685912Y-95959075D01*
X89592875Y-96022228D01*
X89491015Y-96091727D01*
X89395562Y-96157165D01*
X89347750Y-96190117D01*
X89280505Y-96235273D01*
X89223564Y-96271057D01*
X89184354Y-96292938D01*
X89171619Y-96297563D01*
X89153083Y-96285085D01*
X89112059Y-96250252D01*
X89052525Y-96196678D01*
X88978458Y-96127983D01*
X88893835Y-96047781D01*
X88840315Y-95996286D01*
X88746681Y-95904286D01*
X88665759Y-95821999D01*
X88600823Y-95752945D01*
X88555142Y-95700644D01*
X88531989Y-95668616D01*
X88529768Y-95662116D01*
X88540076Y-95637394D01*
X88568561Y-95587405D01*
X88612063Y-95517212D01*
X88667423Y-95431875D01*
X88731480Y-95336456D01*
X88749697Y-95309854D01*
X88816073Y-95213167D01*
X88875622Y-95126117D01*
X88925016Y-95053595D01*
X88960925Y-95000493D01*
X88980019Y-94971703D01*
X88981864Y-94968726D01*
X88979105Y-94945782D01*
X88964462Y-94895336D01*
X88940487Y-94824041D01*
X88909734Y-94738547D01*
X88874756Y-94645507D01*
X88838107Y-94551574D01*
X88802339Y-94463399D01*
X88770006Y-94387634D01*
X88743662Y-94330931D01*
X88725858Y-94299943D01*
X88724593Y-94298457D01*
X88713706Y-94289601D01*
X88695318Y-94280843D01*
X88665394Y-94271277D01*
X88619897Y-94259996D01*
X88554791Y-94246093D01*
X88466039Y-94228663D01*
X88349607Y-94206798D01*
X88201458Y-94179591D01*
X88169382Y-94173741D01*
X88074314Y-94155374D01*
X87991435Y-94137405D01*
X87928070Y-94121569D01*
X87891542Y-94109600D01*
X87886644Y-94106810D01*
X87878573Y-94082072D01*
X87872013Y-94026790D01*
X87866967Y-93947389D01*
X87863441Y-93850296D01*
X87861439Y-93741938D01*
X87860964Y-93628740D01*
X87862023Y-93517128D01*
X87864618Y-93413529D01*
X87868754Y-93324368D01*
X87874437Y-93256072D01*
X87881669Y-93215066D01*
X87886029Y-93206674D01*
X87910302Y-93198208D01*
X87965574Y-93184435D01*
X88046338Y-93166550D01*
X88147088Y-93145748D01*
X88262317Y-93123223D01*
X88325098Y-93111418D01*
X88444213Y-93089151D01*
X88550435Y-93068979D01*
X88638573Y-93051915D01*
X88703434Y-93038969D01*
X88739826Y-93031155D01*
X88745816Y-93029422D01*
X88755939Y-93009890D01*
X88777338Y-92962843D01*
X88807161Y-92895003D01*
X88842555Y-92813091D01*
X88880668Y-92723828D01*
X88918647Y-92633935D01*
X88953640Y-92550135D01*
X88982794Y-92479147D01*
X89003257Y-92427694D01*
X89012177Y-92402497D01*
X89012343Y-92401396D01*
X89002231Y-92381519D01*
X88973883Y-92335777D01*
X88930277Y-92268717D01*
X88874394Y-92184884D01*
X88809213Y-92088826D01*
X88771321Y-92033650D01*
X88702275Y-91932481D01*
X88640950Y-91840630D01*
X88590337Y-91762744D01*
X88553429Y-91703469D01*
X88533218Y-91667451D01*
X88530299Y-91659377D01*
X88542847Y-91640584D01*
X88577537Y-91600457D01*
X88629937Y-91543493D01*
X88695616Y-91474185D01*
X88770144Y-91397031D01*
X88849087Y-91316525D01*
X88928017Y-91237163D01*
X89002500Y-91163440D01*
X89068106Y-91099852D01*
X89120404Y-91050894D01*
X89154961Y-91021061D01*
X89166522Y-91013942D01*
X89185346Y-91023953D01*
X89230369Y-91052078D01*
X89297213Y-91095454D01*
X89381501Y-91151218D01*
X89478856Y-91216506D01*
X89552293Y-91266246D01*
X89923333Y-91518551D01*
X90541905Y-91263555D01*
X90625725Y-90818931D01*
X90709546Y-90374307D01*
X91634994Y-90374307D01*
X91718814Y-90818931D01*
G37*
X91718814Y-90818931D02*
X91802635Y-91263555D01*
X92111920Y-91391053D01*
X92421206Y-91518551D01*
X92792246Y-91266246D01*
X92896157Y-91195996D01*
X92990087Y-91133272D01*
X93069652Y-91080938D01*
X93130470Y-91041857D01*
X93168157Y-91018893D01*
X93178421Y-91013942D01*
X93196910Y-91026676D01*
X93236420Y-91061882D01*
X93292522Y-91115062D01*
X93360787Y-91181718D01*
X93436786Y-91257354D01*
X93516092Y-91337472D01*
X93594275Y-91417574D01*
X93666907Y-91493164D01*
X93729559Y-91559745D01*
X93777803Y-91612818D01*
X93807210Y-91647887D01*
X93814241Y-91659623D01*
X93804123Y-91681260D01*
X93775759Y-91728662D01*
X93732129Y-91797193D01*
X93676218Y-91882215D01*
X93611006Y-91979093D01*
X93573219Y-92034350D01*
X93504343Y-92135248D01*
X93443140Y-92226299D01*
X93392578Y-92302970D01*
X93355628Y-92360728D01*
X93335258Y-92395043D01*
X93332197Y-92402254D01*
X93339136Y-92422748D01*
X93358051Y-92470513D01*
X93386087Y-92538832D01*
X93420391Y-92620989D01*
X93458109Y-92710270D01*
X93496387Y-92799958D01*
X93532370Y-92883338D01*
X93563206Y-92953694D01*
X93586039Y-93004310D01*
X93598017Y-93028471D01*
X93598724Y-93029422D01*
X93617531Y-93034036D01*
X93667618Y-93044328D01*
X93743793Y-93059287D01*
X93840865Y-93077901D01*
X93953643Y-93099159D01*
X94019442Y-93111418D01*
X94139950Y-93134362D01*
X94248797Y-93156195D01*
X94340476Y-93175722D01*
X94409481Y-93191748D01*
X94450304Y-93203079D01*
X94458511Y-93206674D01*
X94466548Y-93231006D01*
X94473033Y-93285959D01*
X94477970Y-93365108D01*
X94481364Y-93462026D01*
X94483218Y-93570287D01*
X94483538Y-93683465D01*
X94482327Y-93795135D01*
X94479590Y-93898868D01*
X94475331Y-93988241D01*
X94469555Y-94056826D01*
X94462267Y-94098197D01*
X94457895Y-94106810D01*
X94431764Y-94117133D01*
X94376393Y-94131892D01*
X94299107Y-94149352D01*
X94207230Y-94167780D01*
X94175158Y-94173741D01*
X94020524Y-94202066D01*
X93898375Y-94224876D01*
X93804673Y-94243080D01*
X93735384Y-94257583D01*
X93686471Y-94269292D01*
X93653897Y-94279115D01*
X93633628Y-94287956D01*
X93621626Y-94296724D01*
X93619947Y-94298457D01*
X93603184Y-94326371D01*
X93577614Y-94380695D01*
X93545788Y-94454777D01*
X93510260Y-94541965D01*
X93473583Y-94635608D01*
X93438311Y-94729052D01*
X93406996Y-94815647D01*
X93382193Y-94888740D01*
X93366454Y-94941678D01*
X93362332Y-94967811D01*
X93362676Y-94968726D01*
X93376641Y-94990086D01*
X93408322Y-95037084D01*
X93454391Y-95104827D01*
X93511518Y-95188423D01*
X93576373Y-95282982D01*
X93594843Y-95309854D01*
X93660699Y-95407275D01*
X93718650Y-95496163D01*
X93765538Y-95571412D01*
X93798207Y-95627920D01*
X93813500Y-95660581D01*
X93814241Y-95664593D01*
X93801392Y-95685684D01*
X93765888Y-95727464D01*
X93712293Y-95785445D01*
X93645171Y-95855135D01*
X93569087Y-95932045D01*
X93488604Y-96011683D01*
X93408287Y-96089561D01*
X93332699Y-96161186D01*
X93266405Y-96222070D01*
X93213969Y-96267721D01*
X93179955Y-96293650D01*
X93170545Y-96297883D01*
X93148643Y-96287912D01*
X93103800Y-96261020D01*
X93043321Y-96221736D01*
X92996789Y-96190117D01*
X92912475Y-96132098D01*
X92812626Y-96063784D01*
X92712473Y-95995579D01*
X92658627Y-95959075D01*
X92476371Y-95835800D01*
X92323381Y-95918520D01*
X92253682Y-95954759D01*
X92194414Y-95982926D01*
X92154311Y-95998991D01*
X92144103Y-96001226D01*
X92131829Y-95984722D01*
X92107613Y-95938082D01*
X92073263Y-95865609D01*
X92030588Y-95771606D01*
X91981394Y-95660374D01*
X91927490Y-95536215D01*
X91870684Y-95403432D01*
X91812782Y-95266327D01*
X91755593Y-95129202D01*
X91700924Y-94996358D01*
X91650584Y-94872098D01*
X91606380Y-94760725D01*
X91570119Y-94666539D01*
X91543609Y-94593844D01*
X91528658Y-94546941D01*
X91526254Y-94530833D01*
X91545311Y-94510286D01*
X91587036Y-94476933D01*
X91642706Y-94437702D01*
X91647378Y-94434599D01*
X91791264Y-94319423D01*
X91907283Y-94185053D01*
X91994430Y-94035784D01*
X92051699Y-93875913D01*
X92078086Y-93709737D01*
X92072585Y-93541552D01*
X92034190Y-93375655D01*
X91961895Y-93216342D01*
X91940626Y-93181487D01*
X91829996Y-93040737D01*
X91699302Y-92927714D01*
X91553064Y-92843003D01*
X91395808Y-92787194D01*
X91232057Y-92760874D01*
X91066333Y-92764630D01*
X90903162Y-92799050D01*
X90747065Y-92864723D01*
X90602567Y-92962235D01*
X90557869Y-93001813D01*
X90444112Y-93125703D01*
X90361218Y-93256124D01*
X90304356Y-93402315D01*
X90272687Y-93547088D01*
X90264869Y-93709860D01*
X90290938Y-93873440D01*
X90348245Y-94032298D01*
X90434144Y-94180906D01*
X90545986Y-94313735D01*
X90681123Y-94425256D01*
X90698883Y-94437011D01*
X90755150Y-94475508D01*
X90797923Y-94508863D01*
X90818372Y-94530160D01*
X90818669Y-94530833D01*
X90814279Y-94553871D01*
X90796876Y-94606157D01*
X90768268Y-94683390D01*
X90730265Y-94781268D01*
X90684674Y-94895491D01*
X90633303Y-95021758D01*
X90577962Y-95155767D01*
X90520458Y-95293218D01*
X90462601Y-95429808D01*
X90406198Y-95561237D01*
X90353058Y-95683205D01*
X90304990Y-95791409D01*
X90263801Y-95881549D01*
X90231301Y-95949323D01*
X90209297Y-95990430D01*
X90200436Y-96001226D01*
X90173360Y-95992819D01*
X90122697Y-95970272D01*
X90057183Y-95937613D01*
X90021159Y-95918520D01*
X89868168Y-95835800D01*
X89685912Y-95959075D01*
X89592875Y-96022228D01*
X89491015Y-96091727D01*
X89395562Y-96157165D01*
X89347750Y-96190117D01*
X89280505Y-96235273D01*
X89223564Y-96271057D01*
X89184354Y-96292938D01*
X89171619Y-96297563D01*
X89153083Y-96285085D01*
X89112059Y-96250252D01*
X89052525Y-96196678D01*
X88978458Y-96127983D01*
X88893835Y-96047781D01*
X88840315Y-95996286D01*
X88746681Y-95904286D01*
X88665759Y-95821999D01*
X88600823Y-95752945D01*
X88555142Y-95700644D01*
X88531989Y-95668616D01*
X88529768Y-95662116D01*
X88540076Y-95637394D01*
X88568561Y-95587405D01*
X88612063Y-95517212D01*
X88667423Y-95431875D01*
X88731480Y-95336456D01*
X88749697Y-95309854D01*
X88816073Y-95213167D01*
X88875622Y-95126117D01*
X88925016Y-95053595D01*
X88960925Y-95000493D01*
X88980019Y-94971703D01*
X88981864Y-94968726D01*
X88979105Y-94945782D01*
X88964462Y-94895336D01*
X88940487Y-94824041D01*
X88909734Y-94738547D01*
X88874756Y-94645507D01*
X88838107Y-94551574D01*
X88802339Y-94463399D01*
X88770006Y-94387634D01*
X88743662Y-94330931D01*
X88725858Y-94299943D01*
X88724593Y-94298457D01*
X88713706Y-94289601D01*
X88695318Y-94280843D01*
X88665394Y-94271277D01*
X88619897Y-94259996D01*
X88554791Y-94246093D01*
X88466039Y-94228663D01*
X88349607Y-94206798D01*
X88201458Y-94179591D01*
X88169382Y-94173741D01*
X88074314Y-94155374D01*
X87991435Y-94137405D01*
X87928070Y-94121569D01*
X87891542Y-94109600D01*
X87886644Y-94106810D01*
X87878573Y-94082072D01*
X87872013Y-94026790D01*
X87866967Y-93947389D01*
X87863441Y-93850296D01*
X87861439Y-93741938D01*
X87860964Y-93628740D01*
X87862023Y-93517128D01*
X87864618Y-93413529D01*
X87868754Y-93324368D01*
X87874437Y-93256072D01*
X87881669Y-93215066D01*
X87886029Y-93206674D01*
X87910302Y-93198208D01*
X87965574Y-93184435D01*
X88046338Y-93166550D01*
X88147088Y-93145748D01*
X88262317Y-93123223D01*
X88325098Y-93111418D01*
X88444213Y-93089151D01*
X88550435Y-93068979D01*
X88638573Y-93051915D01*
X88703434Y-93038969D01*
X88739826Y-93031155D01*
X88745816Y-93029422D01*
X88755939Y-93009890D01*
X88777338Y-92962843D01*
X88807161Y-92895003D01*
X88842555Y-92813091D01*
X88880668Y-92723828D01*
X88918647Y-92633935D01*
X88953640Y-92550135D01*
X88982794Y-92479147D01*
X89003257Y-92427694D01*
X89012177Y-92402497D01*
X89012343Y-92401396D01*
X89002231Y-92381519D01*
X88973883Y-92335777D01*
X88930277Y-92268717D01*
X88874394Y-92184884D01*
X88809213Y-92088826D01*
X88771321Y-92033650D01*
X88702275Y-91932481D01*
X88640950Y-91840630D01*
X88590337Y-91762744D01*
X88553429Y-91703469D01*
X88533218Y-91667451D01*
X88530299Y-91659377D01*
X88542847Y-91640584D01*
X88577537Y-91600457D01*
X88629937Y-91543493D01*
X88695616Y-91474185D01*
X88770144Y-91397031D01*
X88849087Y-91316525D01*
X88928017Y-91237163D01*
X89002500Y-91163440D01*
X89068106Y-91099852D01*
X89120404Y-91050894D01*
X89154961Y-91021061D01*
X89166522Y-91013942D01*
X89185346Y-91023953D01*
X89230369Y-91052078D01*
X89297213Y-91095454D01*
X89381501Y-91151218D01*
X89478856Y-91216506D01*
X89552293Y-91266246D01*
X89923333Y-91518551D01*
X90541905Y-91263555D01*
X90625725Y-90818931D01*
X90709546Y-90374307D01*
X91634994Y-90374307D01*
X91718814Y-90818931D01*
G36*
X9107964Y-27640749D02*
G01*
X9091028Y-27684544D01*
X9057399Y-27751293D01*
X9004666Y-27847137D01*
X9000475Y-27854599D01*
X8949999Y-27942871D01*
X8905777Y-28017363D01*
X8872269Y-28070760D01*
X8853936Y-28095746D01*
X8853038Y-28096445D01*
X8827586Y-28090409D01*
X8770745Y-28062723D01*
X8685611Y-28015188D01*
X8575283Y-27949611D01*
X8442856Y-27867797D01*
X8291429Y-27771548D01*
X8254293Y-27747594D01*
X8151243Y-27685183D01*
X8062568Y-27639737D01*
X7996286Y-27615246D01*
X7983193Y-27612733D01*
X7925557Y-27613848D01*
X7834135Y-27626343D01*
X7714792Y-27648660D01*
X7573391Y-27679240D01*
X7415797Y-27716528D01*
X7247874Y-27758965D01*
X7075486Y-27804994D01*
X6904499Y-27853057D01*
X6740776Y-27901597D01*
X6590182Y-27949057D01*
X6458580Y-27993878D01*
X6351837Y-28034503D01*
X6288506Y-28062823D01*
X6221043Y-28096183D01*
X6156489Y-28127682D01*
X6152955Y-28129387D01*
X6087750Y-28181498D01*
X6043844Y-28257554D01*
X6022803Y-28346092D01*
X6026193Y-28435648D01*
X6055577Y-28514758D01*
X6094264Y-28559264D01*
X6200364Y-28623356D01*
X6332595Y-28670322D01*
X6477473Y-28696090D01*
X6559606Y-28699741D01*
X6712895Y-28685039D01*
X6839834Y-28641890D01*
X6946582Y-28567972D01*
X6970343Y-28544921D01*
X7036991Y-28476325D01*
X7508084Y-28471614D01*
X7979178Y-28466903D01*
X8160894Y-28586946D01*
X8243144Y-28643277D01*
X8317135Y-28697528D01*
X8372552Y-28741959D01*
X8392944Y-28761056D01*
X8443277Y-28815124D01*
X8403842Y-28888350D01*
X8375585Y-28934633D01*
X8353646Y-28959957D01*
X8349701Y-28961576D01*
X8332977Y-28978884D01*
X8320524Y-29008497D01*
X8309300Y-29037114D01*
X8287976Y-29080934D01*
X8254471Y-29143718D01*
X8206704Y-29229228D01*
X8142593Y-29341226D01*
X8060056Y-29483473D01*
X8014935Y-29560773D01*
X7960889Y-29651702D01*
X7922396Y-29711339D01*
X7894956Y-29744961D01*
X7874066Y-29757844D01*
X7855225Y-29755265D01*
X7850848Y-29753115D01*
X7823286Y-29732197D01*
X7771584Y-29687440D01*
X7701525Y-29624057D01*
X7618893Y-29547262D01*
X7548844Y-29480844D01*
X7382586Y-29327790D01*
X7238481Y-29208056D01*
X7115079Y-29120573D01*
X7010932Y-29064274D01*
X6958046Y-29045284D01*
X6911750Y-29037440D01*
X6832779Y-29029338D01*
X6730154Y-29021691D01*
X6612897Y-29015212D01*
X6538752Y-29012163D01*
X6410573Y-29007908D01*
X6316862Y-29006036D01*
X6250417Y-29007099D01*
X6204039Y-29011646D01*
X6170526Y-29020227D01*
X6142679Y-29033394D01*
X6125676Y-29043735D01*
X6060138Y-29103456D01*
X6014468Y-29180411D01*
X5994550Y-29261380D01*
X6001756Y-29322058D01*
X6032934Y-29376999D01*
X6088770Y-29445867D01*
X6159526Y-29519005D01*
X6235463Y-29586752D01*
X6306841Y-29639450D01*
X6341332Y-29658853D01*
X6388559Y-29687919D01*
X6460494Y-29740783D01*
X6551515Y-29812616D01*
X6656000Y-29898588D01*
X6768325Y-29993868D01*
X6882870Y-30093627D01*
X6994010Y-30193034D01*
X7096125Y-30287259D01*
X7183592Y-30371473D01*
X7247802Y-30437591D01*
X7311943Y-30510999D01*
X7359237Y-30572753D01*
X7384765Y-30616066D01*
X7387571Y-30630445D01*
X7376248Y-30652479D01*
X7345856Y-30707438D01*
X7298220Y-30792152D01*
X7235165Y-30903448D01*
X7158515Y-31038156D01*
X7070095Y-31193103D01*
X6971730Y-31365119D01*
X6865244Y-31551032D01*
X6752463Y-31747670D01*
X6635211Y-31951863D01*
X6515313Y-32160439D01*
X6394593Y-32370225D01*
X6274877Y-32578052D01*
X6157989Y-32780747D01*
X6045754Y-32975140D01*
X5939996Y-33158058D01*
X5842540Y-33326330D01*
X5755212Y-33476785D01*
X5679835Y-33606251D01*
X5618235Y-33711557D01*
X5572236Y-33789532D01*
X5543663Y-33837004D01*
X5534696Y-33850763D01*
X5532924Y-33832231D01*
X5531201Y-33773933D01*
X5529536Y-33677809D01*
X5527937Y-33545799D01*
X5526413Y-33379846D01*
X5524971Y-33181889D01*
X5523620Y-32953870D01*
X5522368Y-32697729D01*
X5521224Y-32415408D01*
X5520196Y-32108847D01*
X5519292Y-31779987D01*
X5518521Y-31430769D01*
X5517891Y-31063135D01*
X5517410Y-30679024D01*
X5517086Y-30280377D01*
X5516928Y-29869137D01*
X5516913Y-29696580D01*
X5516913Y-25522586D01*
X6033046Y-25820268D01*
X6142335Y-25883286D01*
X6283060Y-25964406D01*
X6450514Y-26060916D01*
X6639988Y-26170103D01*
X6846777Y-26289255D01*
X7066172Y-26415660D01*
X7293467Y-26546605D01*
X7523954Y-26679379D01*
X7752927Y-26811269D01*
X7810837Y-26844624D01*
X8021768Y-26966247D01*
X8222465Y-27082228D01*
X8409941Y-27190825D01*
X8581208Y-27290294D01*
X8733277Y-27378892D01*
X8863162Y-27454878D01*
X8967875Y-27516507D01*
X9044427Y-27562037D01*
X9089831Y-27589725D01*
X9101391Y-27597472D01*
X9110615Y-27613772D01*
X9107964Y-27640749D01*
G37*
X9107964Y-27640749D02*
X9091028Y-27684544D01*
X9057399Y-27751293D01*
X9004666Y-27847137D01*
X9000475Y-27854599D01*
X8949999Y-27942871D01*
X8905777Y-28017363D01*
X8872269Y-28070760D01*
X8853936Y-28095746D01*
X8853038Y-28096445D01*
X8827586Y-28090409D01*
X8770745Y-28062723D01*
X8685611Y-28015188D01*
X8575283Y-27949611D01*
X8442856Y-27867797D01*
X8291429Y-27771548D01*
X8254293Y-27747594D01*
X8151243Y-27685183D01*
X8062568Y-27639737D01*
X7996286Y-27615246D01*
X7983193Y-27612733D01*
X7925557Y-27613848D01*
X7834135Y-27626343D01*
X7714792Y-27648660D01*
X7573391Y-27679240D01*
X7415797Y-27716528D01*
X7247874Y-27758965D01*
X7075486Y-27804994D01*
X6904499Y-27853057D01*
X6740776Y-27901597D01*
X6590182Y-27949057D01*
X6458580Y-27993878D01*
X6351837Y-28034503D01*
X6288506Y-28062823D01*
X6221043Y-28096183D01*
X6156489Y-28127682D01*
X6152955Y-28129387D01*
X6087750Y-28181498D01*
X6043844Y-28257554D01*
X6022803Y-28346092D01*
X6026193Y-28435648D01*
X6055577Y-28514758D01*
X6094264Y-28559264D01*
X6200364Y-28623356D01*
X6332595Y-28670322D01*
X6477473Y-28696090D01*
X6559606Y-28699741D01*
X6712895Y-28685039D01*
X6839834Y-28641890D01*
X6946582Y-28567972D01*
X6970343Y-28544921D01*
X7036991Y-28476325D01*
X7508084Y-28471614D01*
X7979178Y-28466903D01*
X8160894Y-28586946D01*
X8243144Y-28643277D01*
X8317135Y-28697528D01*
X8372552Y-28741959D01*
X8392944Y-28761056D01*
X8443277Y-28815124D01*
X8403842Y-28888350D01*
X8375585Y-28934633D01*
X8353646Y-28959957D01*
X8349701Y-28961576D01*
X8332977Y-28978884D01*
X8320524Y-29008497D01*
X8309300Y-29037114D01*
X8287976Y-29080934D01*
X8254471Y-29143718D01*
X8206704Y-29229228D01*
X8142593Y-29341226D01*
X8060056Y-29483473D01*
X8014935Y-29560773D01*
X7960889Y-29651702D01*
X7922396Y-29711339D01*
X7894956Y-29744961D01*
X7874066Y-29757844D01*
X7855225Y-29755265D01*
X7850848Y-29753115D01*
X7823286Y-29732197D01*
X7771584Y-29687440D01*
X7701525Y-29624057D01*
X7618893Y-29547262D01*
X7548844Y-29480844D01*
X7382586Y-29327790D01*
X7238481Y-29208056D01*
X7115079Y-29120573D01*
X7010932Y-29064274D01*
X6958046Y-29045284D01*
X6911750Y-29037440D01*
X6832779Y-29029338D01*
X6730154Y-29021691D01*
X6612897Y-29015212D01*
X6538752Y-29012163D01*
X6410573Y-29007908D01*
X6316862Y-29006036D01*
X6250417Y-29007099D01*
X6204039Y-29011646D01*
X6170526Y-29020227D01*
X6142679Y-29033394D01*
X6125676Y-29043735D01*
X6060138Y-29103456D01*
X6014468Y-29180411D01*
X5994550Y-29261380D01*
X6001756Y-29322058D01*
X6032934Y-29376999D01*
X6088770Y-29445867D01*
X6159526Y-29519005D01*
X6235463Y-29586752D01*
X6306841Y-29639450D01*
X6341332Y-29658853D01*
X6388559Y-29687919D01*
X6460494Y-29740783D01*
X6551515Y-29812616D01*
X6656000Y-29898588D01*
X6768325Y-29993868D01*
X6882870Y-30093627D01*
X6994010Y-30193034D01*
X7096125Y-30287259D01*
X7183592Y-30371473D01*
X7247802Y-30437591D01*
X7311943Y-30510999D01*
X7359237Y-30572753D01*
X7384765Y-30616066D01*
X7387571Y-30630445D01*
X7376248Y-30652479D01*
X7345856Y-30707438D01*
X7298220Y-30792152D01*
X7235165Y-30903448D01*
X7158515Y-31038156D01*
X7070095Y-31193103D01*
X6971730Y-31365119D01*
X6865244Y-31551032D01*
X6752463Y-31747670D01*
X6635211Y-31951863D01*
X6515313Y-32160439D01*
X6394593Y-32370225D01*
X6274877Y-32578052D01*
X6157989Y-32780747D01*
X6045754Y-32975140D01*
X5939996Y-33158058D01*
X5842540Y-33326330D01*
X5755212Y-33476785D01*
X5679835Y-33606251D01*
X5618235Y-33711557D01*
X5572236Y-33789532D01*
X5543663Y-33837004D01*
X5534696Y-33850763D01*
X5532924Y-33832231D01*
X5531201Y-33773933D01*
X5529536Y-33677809D01*
X5527937Y-33545799D01*
X5526413Y-33379846D01*
X5524971Y-33181889D01*
X5523620Y-32953870D01*
X5522368Y-32697729D01*
X5521224Y-32415408D01*
X5520196Y-32108847D01*
X5519292Y-31779987D01*
X5518521Y-31430769D01*
X5517891Y-31063135D01*
X5517410Y-30679024D01*
X5517086Y-30280377D01*
X5516928Y-29869137D01*
X5516913Y-29696580D01*
X5516913Y-25522586D01*
X6033046Y-25820268D01*
X6142335Y-25883286D01*
X6283060Y-25964406D01*
X6450514Y-26060916D01*
X6639988Y-26170103D01*
X6846777Y-26289255D01*
X7066172Y-26415660D01*
X7293467Y-26546605D01*
X7523954Y-26679379D01*
X7752927Y-26811269D01*
X7810837Y-26844624D01*
X8021768Y-26966247D01*
X8222465Y-27082228D01*
X8409941Y-27190825D01*
X8581208Y-27290294D01*
X8733277Y-27378892D01*
X8863162Y-27454878D01*
X8967875Y-27516507D01*
X9044427Y-27562037D01*
X9089831Y-27589725D01*
X9101391Y-27597472D01*
X9110615Y-27613772D01*
X9107964Y-27640749D01*
G36*
X9184092Y-32576146D02*
G01*
X9158410Y-32591469D01*
X9099531Y-32625911D01*
X9010398Y-32677769D01*
X8893951Y-32745340D01*
X8753133Y-32826921D01*
X8590886Y-32920809D01*
X8410151Y-33025299D01*
X8213870Y-33138690D01*
X8004984Y-33259278D01*
X7789983Y-33383313D01*
X7570351Y-33509987D01*
X7359505Y-33631608D01*
X7160501Y-33746412D01*
X6976393Y-33852638D01*
X6810235Y-33948523D01*
X6665083Y-34032302D01*
X6543991Y-34102214D01*
X6450012Y-34156496D01*
X6386203Y-34193385D01*
X6356281Y-34210731D01*
X6305729Y-34239007D01*
X6274086Y-34254382D01*
X6268580Y-34255224D01*
X6278918Y-34236488D01*
X6308593Y-34184386D01*
X6356032Y-34101640D01*
X6419667Y-33990975D01*
X6497926Y-33855114D01*
X6589241Y-33696781D01*
X6692040Y-33518698D01*
X6804753Y-33323590D01*
X6925811Y-33114180D01*
X7053643Y-32893191D01*
X7102298Y-32809113D01*
X7232433Y-32584170D01*
X7356503Y-32369524D01*
X7472923Y-32167932D01*
X7580107Y-31982148D01*
X7676469Y-31814928D01*
X7760422Y-31669027D01*
X7830380Y-31547201D01*
X7884757Y-31452204D01*
X7921966Y-31386792D01*
X7940422Y-31353720D01*
X7942170Y-31350262D01*
X7957995Y-31360339D01*
X8000308Y-31395407D01*
X8065210Y-31451885D01*
X8148804Y-31526193D01*
X8247191Y-31614752D01*
X8356475Y-31713980D01*
X8472756Y-31820298D01*
X8592138Y-31930125D01*
X8710723Y-32039882D01*
X8824612Y-32145988D01*
X8929908Y-32244862D01*
X9022713Y-32332926D01*
X9099130Y-32406599D01*
X9155260Y-32462300D01*
X9173665Y-32481403D01*
X9233128Y-32544708D01*
X9184092Y-32576146D01*
G37*
X9184092Y-32576146D02*
X9158410Y-32591469D01*
X9099531Y-32625911D01*
X9010398Y-32677769D01*
X8893951Y-32745340D01*
X8753133Y-32826921D01*
X8590886Y-32920809D01*
X8410151Y-33025299D01*
X8213870Y-33138690D01*
X8004984Y-33259278D01*
X7789983Y-33383313D01*
X7570351Y-33509987D01*
X7359505Y-33631608D01*
X7160501Y-33746412D01*
X6976393Y-33852638D01*
X6810235Y-33948523D01*
X6665083Y-34032302D01*
X6543991Y-34102214D01*
X6450012Y-34156496D01*
X6386203Y-34193385D01*
X6356281Y-34210731D01*
X6305729Y-34239007D01*
X6274086Y-34254382D01*
X6268580Y-34255224D01*
X6278918Y-34236488D01*
X6308593Y-34184386D01*
X6356032Y-34101640D01*
X6419667Y-33990975D01*
X6497926Y-33855114D01*
X6589241Y-33696781D01*
X6692040Y-33518698D01*
X6804753Y-33323590D01*
X6925811Y-33114180D01*
X7053643Y-32893191D01*
X7102298Y-32809113D01*
X7232433Y-32584170D01*
X7356503Y-32369524D01*
X7472923Y-32167932D01*
X7580107Y-31982148D01*
X7676469Y-31814928D01*
X7760422Y-31669027D01*
X7830380Y-31547201D01*
X7884757Y-31452204D01*
X7921966Y-31386792D01*
X7940422Y-31353720D01*
X7942170Y-31350262D01*
X7957995Y-31360339D01*
X8000308Y-31395407D01*
X8065210Y-31451885D01*
X8148804Y-31526193D01*
X8247191Y-31614752D01*
X8356475Y-31713980D01*
X8472756Y-31820298D01*
X8592138Y-31930125D01*
X8710723Y-32039882D01*
X8824612Y-32145988D01*
X8929908Y-32244862D01*
X9022713Y-32332926D01*
X9099130Y-32406599D01*
X9155260Y-32462300D01*
X9173665Y-32481403D01*
X9233128Y-32544708D01*
X9184092Y-32576146D01*
G36*
X13423834Y-30120878D02*
G01*
X13373462Y-30151876D01*
X13293659Y-30199634D01*
X13187820Y-30262194D01*
X13059341Y-30337597D01*
X12911616Y-30423885D01*
X12748042Y-30519101D01*
X12572013Y-30621285D01*
X12386925Y-30728481D01*
X12196173Y-30838729D01*
X12003153Y-30950071D01*
X11811259Y-31060550D01*
X11623889Y-31168207D01*
X11444435Y-31271084D01*
X11276295Y-31367223D01*
X11122863Y-31454665D01*
X10987535Y-31531453D01*
X10873706Y-31595628D01*
X10784771Y-31645233D01*
X10724126Y-31678309D01*
X10695167Y-31692897D01*
X10693356Y-31693431D01*
X10668783Y-31675321D01*
X10631193Y-31624980D01*
X10584278Y-31548395D01*
X10531726Y-31451552D01*
X10481787Y-31350167D01*
X10421231Y-31212215D01*
X10366821Y-31067142D01*
X10317349Y-30909950D01*
X10271605Y-30735643D01*
X10228380Y-30539222D01*
X10186466Y-30315689D01*
X10144653Y-30060048D01*
X10105716Y-29795606D01*
X10071172Y-29565852D01*
X10036974Y-29372917D01*
X10001423Y-29211964D01*
X9962818Y-29078155D01*
X9919461Y-28966650D01*
X9869652Y-28872614D01*
X9811691Y-28791206D01*
X9743880Y-28717590D01*
X9718688Y-28693851D01*
X9660042Y-28642397D01*
X9612185Y-28604334D01*
X9584042Y-28586677D01*
X9581735Y-28586206D01*
X9567584Y-28580028D01*
X9567425Y-28558590D01*
X9583139Y-28517533D01*
X9616609Y-28452501D01*
X9669719Y-28359137D01*
X9707912Y-28294252D01*
X9767615Y-28197501D01*
X9818737Y-28122312D01*
X9857601Y-28073739D01*
X9880528Y-28056835D01*
X9880695Y-28056845D01*
X9902544Y-28067328D01*
X9957261Y-28096931D01*
X10041864Y-28143938D01*
X10153371Y-28206629D01*
X10288799Y-28283286D01*
X10445167Y-28372191D01*
X10619493Y-28471626D01*
X10808794Y-28579872D01*
X11010089Y-28695211D01*
X11220395Y-28815924D01*
X11436729Y-28940294D01*
X11656111Y-29066601D01*
X11875558Y-29193127D01*
X12092088Y-29318155D01*
X12302719Y-29439965D01*
X12504468Y-29556839D01*
X12694353Y-29667060D01*
X12869394Y-29768908D01*
X13026606Y-29860665D01*
X13163009Y-29940613D01*
X13275620Y-30007034D01*
X13361457Y-30058209D01*
X13417538Y-30092420D01*
X13440881Y-30107948D01*
X13441379Y-30108598D01*
X13423834Y-30120878D01*
G37*
X13423834Y-30120878D02*
X13373462Y-30151876D01*
X13293659Y-30199634D01*
X13187820Y-30262194D01*
X13059341Y-30337597D01*
X12911616Y-30423885D01*
X12748042Y-30519101D01*
X12572013Y-30621285D01*
X12386925Y-30728481D01*
X12196173Y-30838729D01*
X12003153Y-30950071D01*
X11811259Y-31060550D01*
X11623889Y-31168207D01*
X11444435Y-31271084D01*
X11276295Y-31367223D01*
X11122863Y-31454665D01*
X10987535Y-31531453D01*
X10873706Y-31595628D01*
X10784771Y-31645233D01*
X10724126Y-31678309D01*
X10695167Y-31692897D01*
X10693356Y-31693431D01*
X10668783Y-31675321D01*
X10631193Y-31624980D01*
X10584278Y-31548395D01*
X10531726Y-31451552D01*
X10481787Y-31350167D01*
X10421231Y-31212215D01*
X10366821Y-31067142D01*
X10317349Y-30909950D01*
X10271605Y-30735643D01*
X10228380Y-30539222D01*
X10186466Y-30315689D01*
X10144653Y-30060048D01*
X10105716Y-29795606D01*
X10071172Y-29565852D01*
X10036974Y-29372917D01*
X10001423Y-29211964D01*
X9962818Y-29078155D01*
X9919461Y-28966650D01*
X9869652Y-28872614D01*
X9811691Y-28791206D01*
X9743880Y-28717590D01*
X9718688Y-28693851D01*
X9660042Y-28642397D01*
X9612185Y-28604334D01*
X9584042Y-28586677D01*
X9581735Y-28586206D01*
X9567584Y-28580028D01*
X9567425Y-28558590D01*
X9583139Y-28517533D01*
X9616609Y-28452501D01*
X9669719Y-28359137D01*
X9707912Y-28294252D01*
X9767615Y-28197501D01*
X9818737Y-28122312D01*
X9857601Y-28073739D01*
X9880528Y-28056835D01*
X9880695Y-28056845D01*
X9902544Y-28067328D01*
X9957261Y-28096931D01*
X10041864Y-28143938D01*
X10153371Y-28206629D01*
X10288799Y-28283286D01*
X10445167Y-28372191D01*
X10619493Y-28471626D01*
X10808794Y-28579872D01*
X11010089Y-28695211D01*
X11220395Y-28815924D01*
X11436729Y-28940294D01*
X11656111Y-29066601D01*
X11875558Y-29193127D01*
X12092088Y-29318155D01*
X12302719Y-29439965D01*
X12504468Y-29556839D01*
X12694353Y-29667060D01*
X12869394Y-29768908D01*
X13026606Y-29860665D01*
X13163009Y-29940613D01*
X13275620Y-30007034D01*
X13361457Y-30058209D01*
X13417538Y-30092420D01*
X13440881Y-30107948D01*
X13441379Y-30108598D01*
X13423834Y-30120878D01*
D13*
X89056000Y-68287078D02*
X89056000Y-67769922D01*
X90476000Y-68287078D02*
X90476000Y-67769922D01*
X97167600Y-57713800D02*
G75*
G03*
X97167600Y-57713800I-950000J0D01*
G01*
X112600000Y-7900000D02*
X112200000Y-7900000D01*
X112600000Y-8540000D02*
X112600000Y-7900000D01*
X106058000Y-12208000D02*
X106453000Y-11812000D01*
X103412000Y-14854000D02*
X103792000Y-14474000D01*
X105807000Y-11926000D02*
X106187000Y-11546000D01*
X103146000Y-14588000D02*
X103541000Y-14192000D01*
X111348000Y-11919000D02*
X111454000Y-11812000D01*
X108412000Y-14854000D02*
X108519000Y-14747000D01*
X111082000Y-11653000D02*
X111188000Y-11546000D01*
X108146000Y-14588000D02*
X108253000Y-14481000D01*
X102240000Y-17260000D02*
X102240000Y-8140000D01*
X112360000Y-17260000D02*
X112360000Y-8140000D01*
X112360000Y-8140000D02*
X102240000Y-8140000D01*
X112360000Y-17260000D02*
X102240000Y-17260000D01*
X112360000Y-9700000D02*
X102240000Y-9700000D01*
X112360000Y-8600000D02*
X102240000Y-8600000D01*
X106980000Y-13200000D02*
G75*
G03*
X106980000Y-13200000I-2180000J0D01*
G01*
X111980000Y-13200000D02*
G75*
G03*
X111980000Y-13200000I-2180000J0D01*
G01*
D16*
X142297900Y-38798840D02*
G75*
G03*
X142297900Y-38798840I-99060J0D01*
G01*
D17*
X131942320Y-18552500D02*
X135467840Y-18552500D01*
X131932160Y-42047500D02*
X135457680Y-42047500D01*
X141939760Y-42047500D02*
X142948140Y-42047500D01*
X141939760Y-18552500D02*
X142948140Y-18552500D01*
X125460240Y-18552500D02*
X124451860Y-18552500D01*
X125460240Y-42047500D02*
X124451860Y-42047500D01*
X142948140Y-42047500D02*
X142948140Y-18552500D01*
X124451860Y-42047500D02*
X124451860Y-18552500D01*
D13*
X57700000Y-15000000D02*
G75*
G03*
X57700000Y-15000000I-7600000J0D01*
G01*
X53400000Y-15000000D02*
G75*
G03*
X53400000Y-15000000I-3300000J0D01*
G01*
X200000Y-22300000D02*
X200000Y-7300000D01*
X200000Y-7300000D02*
X15200000Y-7300000D01*
X15200000Y-7300000D02*
X15200000Y-22300000D01*
X15200000Y-22300000D02*
X200000Y-22300000D01*
X400000Y-14800000D02*
X1400000Y-15800000D01*
X400000Y-14800000D02*
X1400000Y-13800000D01*
D10*
X65534000Y-36473000D02*
X66284000Y-32973000D01*
X64784000Y-36473000D02*
X65784000Y-30473000D01*
X63784000Y-36473000D02*
X64784000Y-30473000D01*
X63034000Y-36473000D02*
X64034000Y-30473000D01*
X62034000Y-36473000D02*
X63034000Y-30473000D01*
X61034000Y-36473000D02*
X62034000Y-30473000D01*
X60284000Y-36473000D02*
X61034000Y-30473000D01*
X53034000Y-36473000D02*
X52284000Y-32973000D01*
X53784000Y-36473000D02*
X52784000Y-30473000D01*
X54784000Y-36473000D02*
X53784000Y-30473000D01*
X55784000Y-36473000D02*
X54784000Y-30473000D01*
X56534000Y-36473000D02*
X55534000Y-30473000D01*
X57284000Y-36473000D02*
X56534000Y-30473000D01*
X58034000Y-36473000D02*
X57534000Y-30473000D01*
X59534000Y-36473000D02*
X60034000Y-30473000D01*
X58784000Y-36473000D02*
X58534000Y-30473000D01*
X59284000Y-36473000D02*
X52284000Y-36473000D01*
X52284000Y-36473000D02*
X52284000Y-30473000D01*
X52284000Y-30473000D02*
X66284000Y-30473000D01*
X66284000Y-30473000D02*
X66284000Y-36473000D01*
X66284000Y-36473000D02*
X59284000Y-36473000D01*
X66284000Y-47073000D02*
X59284000Y-47073000D01*
X66284000Y-41073000D02*
X66284000Y-47073000D01*
X52284000Y-41073000D02*
X66284000Y-41073000D01*
X52284000Y-47073000D02*
X52284000Y-41073000D01*
X59284000Y-47073000D02*
X52284000Y-47073000D01*
X58784000Y-47073000D02*
X58534000Y-41073000D01*
X59534000Y-47073000D02*
X60034000Y-41073000D01*
X58034000Y-47073000D02*
X57534000Y-41073000D01*
X57284000Y-47073000D02*
X56534000Y-41073000D01*
X56534000Y-47073000D02*
X55534000Y-41073000D01*
X55784000Y-47073000D02*
X54784000Y-41073000D01*
X54784000Y-47073000D02*
X53784000Y-41073000D01*
X53784000Y-47073000D02*
X52784000Y-41073000D01*
X53034000Y-47073000D02*
X52284000Y-43573000D01*
X60284000Y-47073000D02*
X61034000Y-41073000D01*
X61034000Y-47073000D02*
X62034000Y-41073000D01*
X62034000Y-47073000D02*
X63034000Y-41073000D01*
X63034000Y-47073000D02*
X64034000Y-41073000D01*
X63784000Y-47073000D02*
X64784000Y-41073000D01*
X64784000Y-47073000D02*
X65784000Y-41073000D01*
X65534000Y-47073000D02*
X66284000Y-43573000D01*
X65534000Y-68273000D02*
X66284000Y-64773000D01*
X64784000Y-68273000D02*
X65784000Y-62273000D01*
X63784000Y-68273000D02*
X64784000Y-62273000D01*
X63034000Y-68273000D02*
X64034000Y-62273000D01*
X62034000Y-68273000D02*
X63034000Y-62273000D01*
X61034000Y-68273000D02*
X62034000Y-62273000D01*
X60284000Y-68273000D02*
X61034000Y-62273000D01*
X53034000Y-68273000D02*
X52284000Y-64773000D01*
X53784000Y-68273000D02*
X52784000Y-62273000D01*
X54784000Y-68273000D02*
X53784000Y-62273000D01*
X55784000Y-68273000D02*
X54784000Y-62273000D01*
X56534000Y-68273000D02*
X55534000Y-62273000D01*
X57284000Y-68273000D02*
X56534000Y-62273000D01*
X58034000Y-68273000D02*
X57534000Y-62273000D01*
X59534000Y-68273000D02*
X60034000Y-62273000D01*
X58784000Y-68273000D02*
X58534000Y-62273000D01*
X59284000Y-68273000D02*
X52284000Y-68273000D01*
X52284000Y-68273000D02*
X52284000Y-62273000D01*
X52284000Y-62273000D02*
X66284000Y-62273000D01*
X66284000Y-62273000D02*
X66284000Y-68273000D01*
X66284000Y-68273000D02*
X59284000Y-68273000D01*
X65534000Y-78873000D02*
X66284000Y-75373000D01*
X64784000Y-78873000D02*
X65784000Y-72873000D01*
X63784000Y-78873000D02*
X64784000Y-72873000D01*
X63034000Y-78873000D02*
X64034000Y-72873000D01*
X62034000Y-78873000D02*
X63034000Y-72873000D01*
X61034000Y-78873000D02*
X62034000Y-72873000D01*
X60284000Y-78873000D02*
X61034000Y-72873000D01*
X53034000Y-78873000D02*
X52284000Y-75373000D01*
X53784000Y-78873000D02*
X52784000Y-72873000D01*
X54784000Y-78873000D02*
X53784000Y-72873000D01*
X55784000Y-78873000D02*
X54784000Y-72873000D01*
X56534000Y-78873000D02*
X55534000Y-72873000D01*
X57284000Y-78873000D02*
X56534000Y-72873000D01*
X58034000Y-78873000D02*
X57534000Y-72873000D01*
X59534000Y-78873000D02*
X60034000Y-72873000D01*
X58784000Y-78873000D02*
X58534000Y-72873000D01*
X59284000Y-78873000D02*
X52284000Y-78873000D01*
X52284000Y-78873000D02*
X52284000Y-72873000D01*
X52284000Y-72873000D02*
X66284000Y-72873000D01*
X66284000Y-72873000D02*
X66284000Y-78873000D01*
X66284000Y-78873000D02*
X59284000Y-78873000D01*
X65534000Y-89473000D02*
X66284000Y-85973000D01*
X64784000Y-89473000D02*
X65784000Y-83473000D01*
X63784000Y-89473000D02*
X64784000Y-83473000D01*
X63034000Y-89473000D02*
X64034000Y-83473000D01*
X62034000Y-89473000D02*
X63034000Y-83473000D01*
X61034000Y-89473000D02*
X62034000Y-83473000D01*
X60284000Y-89473000D02*
X61034000Y-83473000D01*
X53034000Y-89473000D02*
X52284000Y-85973000D01*
X53784000Y-89473000D02*
X52784000Y-83473000D01*
X54784000Y-89473000D02*
X53784000Y-83473000D01*
X55784000Y-89473000D02*
X54784000Y-83473000D01*
X56534000Y-89473000D02*
X55534000Y-83473000D01*
X57284000Y-89473000D02*
X56534000Y-83473000D01*
X58034000Y-89473000D02*
X57534000Y-83473000D01*
X59534000Y-89473000D02*
X60034000Y-83473000D01*
X58784000Y-89473000D02*
X58534000Y-83473000D01*
X59284000Y-89473000D02*
X52284000Y-89473000D01*
X52284000Y-89473000D02*
X52284000Y-83473000D01*
X52284000Y-83473000D02*
X66284000Y-83473000D01*
X66284000Y-83473000D02*
X66284000Y-89473000D01*
X66284000Y-89473000D02*
X59284000Y-89473000D01*
X49734000Y-36473000D02*
X50484000Y-32973000D01*
X48984000Y-36473000D02*
X49984000Y-30473000D01*
X47984000Y-36473000D02*
X48984000Y-30473000D01*
X47234000Y-36473000D02*
X48234000Y-30473000D01*
X46234000Y-36473000D02*
X47234000Y-30473000D01*
X45234000Y-36473000D02*
X46234000Y-30473000D01*
X44484000Y-36473000D02*
X45234000Y-30473000D01*
X37234000Y-36473000D02*
X36484000Y-32973000D01*
X37984000Y-36473000D02*
X36984000Y-30473000D01*
X38984000Y-36473000D02*
X37984000Y-30473000D01*
X39984000Y-36473000D02*
X38984000Y-30473000D01*
X40734000Y-36473000D02*
X39734000Y-30473000D01*
X41484000Y-36473000D02*
X40734000Y-30473000D01*
X42234000Y-36473000D02*
X41734000Y-30473000D01*
X43734000Y-36473000D02*
X44234000Y-30473000D01*
X42984000Y-36473000D02*
X42734000Y-30473000D01*
X43484000Y-36473000D02*
X36484000Y-36473000D01*
X36484000Y-36473000D02*
X36484000Y-30473000D01*
X36484000Y-30473000D02*
X50484000Y-30473000D01*
X50484000Y-30473000D02*
X50484000Y-36473000D01*
X50484000Y-36473000D02*
X43484000Y-36473000D01*
X50484000Y-47073000D02*
X43484000Y-47073000D01*
X50484000Y-41073000D02*
X50484000Y-47073000D01*
X36484000Y-41073000D02*
X50484000Y-41073000D01*
X36484000Y-47073000D02*
X36484000Y-41073000D01*
X43484000Y-47073000D02*
X36484000Y-47073000D01*
X42984000Y-47073000D02*
X42734000Y-41073000D01*
X43734000Y-47073000D02*
X44234000Y-41073000D01*
X42234000Y-47073000D02*
X41734000Y-41073000D01*
X41484000Y-47073000D02*
X40734000Y-41073000D01*
X40734000Y-47073000D02*
X39734000Y-41073000D01*
X39984000Y-47073000D02*
X38984000Y-41073000D01*
X38984000Y-47073000D02*
X37984000Y-41073000D01*
X37984000Y-47073000D02*
X36984000Y-41073000D01*
X37234000Y-47073000D02*
X36484000Y-43573000D01*
X44484000Y-47073000D02*
X45234000Y-41073000D01*
X45234000Y-47073000D02*
X46234000Y-41073000D01*
X46234000Y-47073000D02*
X47234000Y-41073000D01*
X47234000Y-47073000D02*
X48234000Y-41073000D01*
X47984000Y-47073000D02*
X48984000Y-41073000D01*
X48984000Y-47073000D02*
X49984000Y-41073000D01*
X49734000Y-47073000D02*
X50484000Y-43573000D01*
X49734000Y-57673000D02*
X50484000Y-54173000D01*
X48984000Y-57673000D02*
X49984000Y-51673000D01*
X47984000Y-57673000D02*
X48984000Y-51673000D01*
X47234000Y-57673000D02*
X48234000Y-51673000D01*
X46234000Y-57673000D02*
X47234000Y-51673000D01*
X45234000Y-57673000D02*
X46234000Y-51673000D01*
X44484000Y-57673000D02*
X45234000Y-51673000D01*
X37234000Y-57673000D02*
X36484000Y-54173000D01*
X37984000Y-57673000D02*
X36984000Y-51673000D01*
X38984000Y-57673000D02*
X37984000Y-51673000D01*
X39984000Y-57673000D02*
X38984000Y-51673000D01*
X40734000Y-57673000D02*
X39734000Y-51673000D01*
X41484000Y-57673000D02*
X40734000Y-51673000D01*
X42234000Y-57673000D02*
X41734000Y-51673000D01*
X43734000Y-57673000D02*
X44234000Y-51673000D01*
X42984000Y-57673000D02*
X42734000Y-51673000D01*
X43484000Y-57673000D02*
X36484000Y-57673000D01*
X36484000Y-57673000D02*
X36484000Y-51673000D01*
X36484000Y-51673000D02*
X50484000Y-51673000D01*
X50484000Y-51673000D02*
X50484000Y-57673000D01*
X50484000Y-57673000D02*
X43484000Y-57673000D01*
X49734000Y-68273000D02*
X50484000Y-64773000D01*
X48984000Y-68273000D02*
X49984000Y-62273000D01*
X47984000Y-68273000D02*
X48984000Y-62273000D01*
X47234000Y-68273000D02*
X48234000Y-62273000D01*
X46234000Y-68273000D02*
X47234000Y-62273000D01*
X45234000Y-68273000D02*
X46234000Y-62273000D01*
X44484000Y-68273000D02*
X45234000Y-62273000D01*
X37234000Y-68273000D02*
X36484000Y-64773000D01*
X37984000Y-68273000D02*
X36984000Y-62273000D01*
X38984000Y-68273000D02*
X37984000Y-62273000D01*
X39984000Y-68273000D02*
X38984000Y-62273000D01*
X40734000Y-68273000D02*
X39734000Y-62273000D01*
X41484000Y-68273000D02*
X40734000Y-62273000D01*
X42234000Y-68273000D02*
X41734000Y-62273000D01*
X43734000Y-68273000D02*
X44234000Y-62273000D01*
X42984000Y-68273000D02*
X42734000Y-62273000D01*
X43484000Y-68273000D02*
X36484000Y-68273000D01*
X36484000Y-68273000D02*
X36484000Y-62273000D01*
X36484000Y-62273000D02*
X50484000Y-62273000D01*
X50484000Y-62273000D02*
X50484000Y-68273000D01*
X50484000Y-68273000D02*
X43484000Y-68273000D01*
X49734000Y-78873000D02*
X50484000Y-75373000D01*
X48984000Y-78873000D02*
X49984000Y-72873000D01*
X47984000Y-78873000D02*
X48984000Y-72873000D01*
X47234000Y-78873000D02*
X48234000Y-72873000D01*
X46234000Y-78873000D02*
X47234000Y-72873000D01*
X45234000Y-78873000D02*
X46234000Y-72873000D01*
X44484000Y-78873000D02*
X45234000Y-72873000D01*
X37234000Y-78873000D02*
X36484000Y-75373000D01*
X37984000Y-78873000D02*
X36984000Y-72873000D01*
X38984000Y-78873000D02*
X37984000Y-72873000D01*
X39984000Y-78873000D02*
X38984000Y-72873000D01*
X40734000Y-78873000D02*
X39734000Y-72873000D01*
X41484000Y-78873000D02*
X40734000Y-72873000D01*
X42234000Y-78873000D02*
X41734000Y-72873000D01*
X43734000Y-78873000D02*
X44234000Y-72873000D01*
X42984000Y-78873000D02*
X42734000Y-72873000D01*
X43484000Y-78873000D02*
X36484000Y-78873000D01*
X36484000Y-78873000D02*
X36484000Y-72873000D01*
X36484000Y-72873000D02*
X50484000Y-72873000D01*
X50484000Y-72873000D02*
X50484000Y-78873000D01*
X50484000Y-78873000D02*
X43484000Y-78873000D01*
X49734000Y-89473000D02*
X50484000Y-85973000D01*
X48984000Y-89473000D02*
X49984000Y-83473000D01*
X47984000Y-89473000D02*
X48984000Y-83473000D01*
X47234000Y-89473000D02*
X48234000Y-83473000D01*
X46234000Y-89473000D02*
X47234000Y-83473000D01*
X45234000Y-89473000D02*
X46234000Y-83473000D01*
X44484000Y-89473000D02*
X45234000Y-83473000D01*
X37234000Y-89473000D02*
X36484000Y-85973000D01*
X37984000Y-89473000D02*
X36984000Y-83473000D01*
X38984000Y-89473000D02*
X37984000Y-83473000D01*
X39984000Y-89473000D02*
X38984000Y-83473000D01*
X40734000Y-89473000D02*
X39734000Y-83473000D01*
X41484000Y-89473000D02*
X40734000Y-83473000D01*
X42234000Y-89473000D02*
X41734000Y-83473000D01*
X43734000Y-89473000D02*
X44234000Y-83473000D01*
X42984000Y-89473000D02*
X42734000Y-83473000D01*
X43484000Y-89473000D02*
X36484000Y-89473000D01*
X36484000Y-89473000D02*
X36484000Y-83473000D01*
X36484000Y-83473000D02*
X50484000Y-83473000D01*
X50484000Y-83473000D02*
X50484000Y-89473000D01*
X50484000Y-89473000D02*
X43484000Y-89473000D01*
D13*
X90476000Y-64310922D02*
X90476000Y-64828078D01*
X89056000Y-64310922D02*
X89056000Y-64828078D01*
X141010000Y-64741422D02*
X141010000Y-65258578D01*
X139590000Y-64741422D02*
X139590000Y-65258578D01*
X105589000Y-59510322D02*
X105589000Y-60027478D01*
X104169000Y-59510322D02*
X104169000Y-60027478D01*
X131658578Y-61290000D02*
X131141422Y-61290000D01*
X131658578Y-62710000D02*
X131141422Y-62710000D01*
X126671000Y-62112578D02*
X126671000Y-61595422D01*
X125251000Y-62112578D02*
X125251000Y-61595422D01*
X145558578Y-43690000D02*
X145041422Y-43690000D01*
X145558578Y-45110000D02*
X145041422Y-45110000D01*
X135525000Y-16979646D02*
X136525000Y-16979646D01*
X136025000Y-17479646D02*
X136025000Y-16479646D01*
X138301000Y-6919000D02*
X139499000Y-6919000D01*
X138038000Y-6959000D02*
X139762000Y-6959000D01*
X137838000Y-6999000D02*
X139962000Y-6999000D01*
X137670000Y-7039000D02*
X140130000Y-7039000D01*
X137522000Y-7079000D02*
X140278000Y-7079000D01*
X137390000Y-7119000D02*
X140410000Y-7119000D01*
X137270000Y-7159000D02*
X140530000Y-7159000D01*
X137158000Y-7199000D02*
X140642000Y-7199000D01*
X137054000Y-7239000D02*
X140746000Y-7239000D01*
X136956000Y-7279000D02*
X140844000Y-7279000D01*
X136863000Y-7319000D02*
X140937000Y-7319000D01*
X136775000Y-7359000D02*
X141025000Y-7359000D01*
X136691000Y-7399000D02*
X141109000Y-7399000D01*
X136611000Y-7439000D02*
X141189000Y-7439000D01*
X136535000Y-7479000D02*
X141265000Y-7479000D01*
X136461000Y-7519000D02*
X141339000Y-7519000D01*
X136390000Y-7559000D02*
X141410000Y-7559000D01*
X136321000Y-7599000D02*
X141479000Y-7599000D01*
X136255000Y-7639000D02*
X141545000Y-7639000D01*
X136191000Y-7679000D02*
X141609000Y-7679000D01*
X136130000Y-7719000D02*
X141670000Y-7719000D01*
X136070000Y-7759000D02*
X141730000Y-7759000D01*
X136011000Y-7799000D02*
X141789000Y-7799000D01*
X135955000Y-7839000D02*
X141845000Y-7839000D01*
X135900000Y-7879000D02*
X141900000Y-7879000D01*
X135846000Y-7919000D02*
X141954000Y-7919000D01*
X135794000Y-7959000D02*
X142006000Y-7959000D01*
X135744000Y-7999000D02*
X142056000Y-7999000D01*
X135694000Y-8039000D02*
X142106000Y-8039000D01*
X135646000Y-8079000D02*
X142154000Y-8079000D01*
X135599000Y-8119000D02*
X142201000Y-8119000D01*
X135553000Y-8159000D02*
X142247000Y-8159000D01*
X135508000Y-8199000D02*
X142292000Y-8199000D01*
X135464000Y-8239000D02*
X142336000Y-8239000D01*
X140141000Y-8279000D02*
X142378000Y-8279000D01*
X135422000Y-8279000D02*
X137659000Y-8279000D01*
X140141000Y-8319000D02*
X142420000Y-8319000D01*
X135380000Y-8319000D02*
X137659000Y-8319000D01*
X140141000Y-8359000D02*
X142461000Y-8359000D01*
X135339000Y-8359000D02*
X137659000Y-8359000D01*
X140141000Y-8399000D02*
X142501000Y-8399000D01*
X135299000Y-8399000D02*
X137659000Y-8399000D01*
X140141000Y-8439000D02*
X142540000Y-8439000D01*
X135260000Y-8439000D02*
X137659000Y-8439000D01*
X140141000Y-8479000D02*
X142579000Y-8479000D01*
X135221000Y-8479000D02*
X137659000Y-8479000D01*
X140141000Y-8519000D02*
X142616000Y-8519000D01*
X135184000Y-8519000D02*
X137659000Y-8519000D01*
X140141000Y-8559000D02*
X142653000Y-8559000D01*
X135147000Y-8559000D02*
X137659000Y-8559000D01*
X140141000Y-8599000D02*
X142689000Y-8599000D01*
X135111000Y-8599000D02*
X137659000Y-8599000D01*
X140141000Y-8639000D02*
X142724000Y-8639000D01*
X135076000Y-8639000D02*
X137659000Y-8639000D01*
X140141000Y-8679000D02*
X142758000Y-8679000D01*
X135042000Y-8679000D02*
X137659000Y-8679000D01*
X140141000Y-8719000D02*
X142792000Y-8719000D01*
X135008000Y-8719000D02*
X137659000Y-8719000D01*
X140141000Y-8759000D02*
X142825000Y-8759000D01*
X134975000Y-8759000D02*
X137659000Y-8759000D01*
X140141000Y-8799000D02*
X142857000Y-8799000D01*
X134943000Y-8799000D02*
X137659000Y-8799000D01*
X140141000Y-8839000D02*
X142889000Y-8839000D01*
X134911000Y-8839000D02*
X137659000Y-8839000D01*
X140141000Y-8879000D02*
X142920000Y-8879000D01*
X134880000Y-8879000D02*
X137659000Y-8879000D01*
X140141000Y-8919000D02*
X142950000Y-8919000D01*
X134850000Y-8919000D02*
X137659000Y-8919000D01*
X140141000Y-8959000D02*
X142980000Y-8959000D01*
X134820000Y-8959000D02*
X137659000Y-8959000D01*
X140141000Y-8999000D02*
X143010000Y-8999000D01*
X134790000Y-8999000D02*
X137659000Y-8999000D01*
X140141000Y-9039000D02*
X143038000Y-9039000D01*
X134762000Y-9039000D02*
X137659000Y-9039000D01*
X140141000Y-9079000D02*
X143066000Y-9079000D01*
X134734000Y-9079000D02*
X137659000Y-9079000D01*
X140141000Y-9119000D02*
X143094000Y-9119000D01*
X134706000Y-9119000D02*
X137659000Y-9119000D01*
X140141000Y-9159000D02*
X143121000Y-9159000D01*
X134679000Y-9159000D02*
X137659000Y-9159000D01*
X140141000Y-9199000D02*
X143147000Y-9199000D01*
X134653000Y-9199000D02*
X137659000Y-9199000D01*
X140141000Y-9239000D02*
X143173000Y-9239000D01*
X134627000Y-9239000D02*
X137659000Y-9239000D01*
X140141000Y-9279000D02*
X143198000Y-9279000D01*
X134602000Y-9279000D02*
X137659000Y-9279000D01*
X140141000Y-9319000D02*
X143223000Y-9319000D01*
X134577000Y-9319000D02*
X137659000Y-9319000D01*
X140141000Y-9359000D02*
X143247000Y-9359000D01*
X134553000Y-9359000D02*
X137659000Y-9359000D01*
X140141000Y-9399000D02*
X143271000Y-9399000D01*
X134529000Y-9399000D02*
X137659000Y-9399000D01*
X140141000Y-9439000D02*
X143295000Y-9439000D01*
X134505000Y-9439000D02*
X137659000Y-9439000D01*
X140141000Y-9479000D02*
X143317000Y-9479000D01*
X134483000Y-9479000D02*
X137659000Y-9479000D01*
X140141000Y-9519000D02*
X143340000Y-9519000D01*
X134460000Y-9519000D02*
X137659000Y-9519000D01*
X140141000Y-9559000D02*
X143362000Y-9559000D01*
X134438000Y-9559000D02*
X137659000Y-9559000D01*
X140141000Y-9599000D02*
X143383000Y-9599000D01*
X134417000Y-9599000D02*
X137659000Y-9599000D01*
X140141000Y-9639000D02*
X143404000Y-9639000D01*
X134396000Y-9639000D02*
X137659000Y-9639000D01*
X140141000Y-9679000D02*
X143425000Y-9679000D01*
X134375000Y-9679000D02*
X137659000Y-9679000D01*
X140141000Y-9719000D02*
X143445000Y-9719000D01*
X134355000Y-9719000D02*
X137659000Y-9719000D01*
X140141000Y-9759000D02*
X143464000Y-9759000D01*
X134336000Y-9759000D02*
X137659000Y-9759000D01*
X140141000Y-9799000D02*
X143484000Y-9799000D01*
X134316000Y-9799000D02*
X137659000Y-9799000D01*
X140141000Y-9839000D02*
X143503000Y-9839000D01*
X134297000Y-9839000D02*
X137659000Y-9839000D01*
X140141000Y-9879000D02*
X143521000Y-9879000D01*
X134279000Y-9879000D02*
X137659000Y-9879000D01*
X140141000Y-9919000D02*
X143539000Y-9919000D01*
X134261000Y-9919000D02*
X137659000Y-9919000D01*
X140141000Y-9959000D02*
X143557000Y-9959000D01*
X134243000Y-9959000D02*
X137659000Y-9959000D01*
X140141000Y-9999000D02*
X143574000Y-9999000D01*
X134226000Y-9999000D02*
X137659000Y-9999000D01*
X140141000Y-10039000D02*
X143590000Y-10039000D01*
X134210000Y-10039000D02*
X137659000Y-10039000D01*
X140141000Y-10079000D02*
X143607000Y-10079000D01*
X134193000Y-10079000D02*
X137659000Y-10079000D01*
X140141000Y-10119000D02*
X143623000Y-10119000D01*
X134177000Y-10119000D02*
X137659000Y-10119000D01*
X140141000Y-10159000D02*
X143638000Y-10159000D01*
X134162000Y-10159000D02*
X137659000Y-10159000D01*
X140141000Y-10199000D02*
X143654000Y-10199000D01*
X134146000Y-10199000D02*
X137659000Y-10199000D01*
X140141000Y-10239000D02*
X143668000Y-10239000D01*
X134132000Y-10239000D02*
X137659000Y-10239000D01*
X140141000Y-10279000D02*
X143683000Y-10279000D01*
X134117000Y-10279000D02*
X137659000Y-10279000D01*
X140141000Y-10319000D02*
X143697000Y-10319000D01*
X134103000Y-10319000D02*
X137659000Y-10319000D01*
X140141000Y-10359000D02*
X143711000Y-10359000D01*
X134089000Y-10359000D02*
X137659000Y-10359000D01*
X140141000Y-10399000D02*
X143724000Y-10399000D01*
X134076000Y-10399000D02*
X137659000Y-10399000D01*
X140141000Y-10439000D02*
X143737000Y-10439000D01*
X134063000Y-10439000D02*
X137659000Y-10439000D01*
X140141000Y-10479000D02*
X143750000Y-10479000D01*
X134050000Y-10479000D02*
X137659000Y-10479000D01*
X140141000Y-10519000D02*
X143762000Y-10519000D01*
X134038000Y-10519000D02*
X137659000Y-10519000D01*
X140141000Y-10559000D02*
X143774000Y-10559000D01*
X134026000Y-10559000D02*
X137659000Y-10559000D01*
X140141000Y-10599000D02*
X143785000Y-10599000D01*
X134015000Y-10599000D02*
X137659000Y-10599000D01*
X140141000Y-10639000D02*
X143797000Y-10639000D01*
X134003000Y-10639000D02*
X137659000Y-10639000D01*
X140141000Y-10679000D02*
X143807000Y-10679000D01*
X133993000Y-10679000D02*
X137659000Y-10679000D01*
X140141000Y-10719000D02*
X143818000Y-10719000D01*
X133982000Y-10719000D02*
X137659000Y-10719000D01*
X133972000Y-10759000D02*
X143828000Y-10759000D01*
X133962000Y-10799000D02*
X143838000Y-10799000D01*
X133953000Y-10839000D02*
X143847000Y-10839000D01*
X133944000Y-10879000D02*
X143856000Y-10879000D01*
X133935000Y-10919000D02*
X143865000Y-10919000D01*
X133926000Y-10959000D02*
X143874000Y-10959000D01*
X133918000Y-10999000D02*
X143882000Y-10999000D01*
X133910000Y-11039000D02*
X143890000Y-11039000D01*
X133903000Y-11079000D02*
X143897000Y-11079000D01*
X133896000Y-11119000D02*
X143904000Y-11119000D01*
X133889000Y-11159000D02*
X143911000Y-11159000D01*
X133882000Y-11199000D02*
X143918000Y-11199000D01*
X133876000Y-11239000D02*
X143924000Y-11239000D01*
X133870000Y-11279000D02*
X143930000Y-11279000D01*
X133865000Y-11320000D02*
X143935000Y-11320000D01*
X133860000Y-11360000D02*
X143940000Y-11360000D01*
X133855000Y-11400000D02*
X143945000Y-11400000D01*
X133850000Y-11440000D02*
X143950000Y-11440000D01*
X133846000Y-11480000D02*
X143954000Y-11480000D01*
X133842000Y-11520000D02*
X143958000Y-11520000D01*
X133838000Y-11560000D02*
X143962000Y-11560000D01*
X133835000Y-11600000D02*
X143965000Y-11600000D01*
X133832000Y-11640000D02*
X143968000Y-11640000D01*
X133830000Y-11680000D02*
X143970000Y-11680000D01*
X133827000Y-11720000D02*
X143973000Y-11720000D01*
X133825000Y-11760000D02*
X143975000Y-11760000D01*
X133823000Y-11800000D02*
X143977000Y-11800000D01*
X133822000Y-11840000D02*
X143978000Y-11840000D01*
X133821000Y-11880000D02*
X143979000Y-11880000D01*
X133820000Y-11920000D02*
X143980000Y-11920000D01*
X133820000Y-11960000D02*
X143980000Y-11960000D01*
X133820000Y-12000000D02*
X143980000Y-12000000D01*
X144020000Y-12000000D02*
G75*
G03*
X144020000Y-12000000I-5120000J0D01*
G01*
X102340200Y-50858078D02*
X102340200Y-50340922D01*
X103760200Y-50858078D02*
X103760200Y-50340922D01*
X119178000Y-52968578D02*
X119178000Y-52451422D01*
X117758000Y-52968578D02*
X117758000Y-52451422D01*
X122303922Y-38790000D02*
X122821078Y-38790000D01*
X122303922Y-40210000D02*
X122821078Y-40210000D01*
X122291422Y-42310000D02*
X122808578Y-42310000D01*
X122291422Y-40890000D02*
X122808578Y-40890000D01*
X123892000Y-59044000D02*
X119992000Y-59044000D01*
X123892000Y-57044000D02*
X119992000Y-57044000D01*
X123892000Y-59044000D02*
X123892000Y-57044000D01*
X102340200Y-54312478D02*
X102340200Y-53795322D01*
X103760200Y-54312478D02*
X103760200Y-53795322D01*
D10*
X1500000Y-93150000D02*
X1500000Y-92150000D01*
X1500000Y-83850000D02*
X1500000Y-82850000D01*
X-8000000Y-92150000D02*
X-8000000Y-83850000D01*
X1500000Y-83850000D02*
X-8000000Y-83850000D01*
X1500000Y-92150000D02*
X-8000000Y-92150000D01*
X11500000Y-93150000D02*
X11500000Y-82850000D01*
X1500000Y-82850000D02*
X11500000Y-82850000D01*
X1500000Y-93150000D02*
X11500000Y-93150000D01*
D13*
X145541422Y-55490000D02*
X146058578Y-55490000D01*
X145541422Y-56910000D02*
X146058578Y-56910000D01*
X120105000Y-60274000D02*
X121565000Y-60274000D01*
X120105000Y-63434000D02*
X122265000Y-63434000D01*
X120105000Y-63434000D02*
X120105000Y-62504000D01*
X120105000Y-60274000D02*
X120105000Y-61204000D01*
X141692400Y-91735264D02*
X141692400Y-87631136D01*
X138272400Y-91735264D02*
X138272400Y-87631136D01*
X142472400Y-91735264D02*
X142472400Y-87631136D01*
X145892400Y-91735264D02*
X145892400Y-87631136D01*
X141692400Y-83635264D02*
X141692400Y-79531136D01*
X138272400Y-83635264D02*
X138272400Y-79531136D01*
X142472400Y-79531136D02*
X142472400Y-83635264D01*
X145892400Y-79531136D02*
X145892400Y-83635264D01*
X141692400Y-71431136D02*
X141692400Y-75535264D01*
X138272400Y-71431136D02*
X138272400Y-75535264D01*
X145892400Y-71431136D02*
X145892400Y-75535264D01*
X142472400Y-71431136D02*
X142472400Y-75535264D01*
X142010000Y-57047936D02*
X142010000Y-61152064D01*
X138590000Y-57047936D02*
X138590000Y-61152064D01*
X129210000Y-52152064D02*
X129210000Y-48047936D01*
X125790000Y-52152064D02*
X125790000Y-48047936D01*
X133890000Y-57047936D02*
X133890000Y-61152064D01*
X137310000Y-57047936D02*
X137310000Y-61152064D01*
X133510000Y-48047936D02*
X133510000Y-52152064D01*
X130090000Y-48047936D02*
X130090000Y-52152064D01*
X137710000Y-52152064D02*
X137710000Y-48047936D01*
X134290000Y-52152064D02*
X134290000Y-48047936D01*
X138590000Y-52152064D02*
X138590000Y-48047936D01*
X142010000Y-52152064D02*
X142010000Y-48047936D01*
X124512000Y-62112578D02*
X124512000Y-61595422D01*
X123092000Y-62112578D02*
X123092000Y-61595422D01*
X85050000Y-23500000D02*
G75*
G03*
X85050000Y-23500000I-950000J0D01*
G01*
X85050000Y-12200000D02*
G75*
G03*
X85050000Y-12200000I-950000J0D01*
G01*
X117386000Y-62565200D02*
G75*
G03*
X117386000Y-62565200I-950000J0D01*
G01*
X116612600Y-70189778D02*
X116612600Y-69672622D01*
X115192600Y-70189778D02*
X115192600Y-69672622D01*
X121187000Y-70187478D02*
X121187000Y-69670322D01*
X122607000Y-70187478D02*
X122607000Y-69670322D01*
X119059078Y-69676000D02*
X118541922Y-69676000D01*
X119059078Y-68256000D02*
X118541922Y-68256000D01*
D10*
X29238095Y-25752380D02*
X29809523Y-25752380D01*
X29523809Y-26752380D02*
X29523809Y-25752380D01*
X30666666Y-26752380D02*
X30095238Y-26752380D01*
X30380952Y-26752380D02*
X30380952Y-25752380D01*
X30285714Y-25895238D01*
X30190476Y-25990476D01*
X30095238Y-26038095D01*
D14*
X109314571Y-74365904D02*
X109314571Y-73565904D01*
X109771714Y-74365904D02*
X109428857Y-73908761D01*
X109771714Y-73565904D02*
X109314571Y-74023047D01*
X110533619Y-74365904D02*
X110076476Y-74365904D01*
X110305047Y-74365904D02*
X110305047Y-73565904D01*
X110228857Y-73680190D01*
X110152666Y-73756380D01*
X110076476Y-73794476D01*
X110800285Y-73565904D02*
X111295523Y-73565904D01*
X111028857Y-73870666D01*
X111143142Y-73870666D01*
X111219333Y-73908761D01*
X111257428Y-73946857D01*
X111295523Y-74023047D01*
X111295523Y-74213523D01*
X111257428Y-74289714D01*
X111219333Y-74327809D01*
X111143142Y-74365904D01*
X110914571Y-74365904D01*
X110838380Y-74327809D01*
X110800285Y-74289714D01*
X109314571Y-57347904D02*
X109314571Y-56547904D01*
X109771714Y-57347904D02*
X109428857Y-56890761D01*
X109771714Y-56547904D02*
X109314571Y-57005047D01*
X110533619Y-57347904D02*
X110076476Y-57347904D01*
X110305047Y-57347904D02*
X110305047Y-56547904D01*
X110228857Y-56662190D01*
X110152666Y-56738380D01*
X110076476Y-56776476D01*
X111295523Y-57347904D02*
X110838380Y-57347904D01*
X111066952Y-57347904D02*
X111066952Y-56547904D01*
X110990761Y-56662190D01*
X110914571Y-56738380D01*
X110838380Y-56776476D01*
X89683404Y-84796476D02*
X88883404Y-84796476D01*
X89683404Y-84339333D02*
X89226261Y-84682190D01*
X88883404Y-84339333D02*
X89340547Y-84796476D01*
X88883404Y-83615523D02*
X88883404Y-83996476D01*
X89264357Y-84034571D01*
X89226261Y-83996476D01*
X89188166Y-83920285D01*
X89188166Y-83729809D01*
X89226261Y-83653619D01*
X89264357Y-83615523D01*
X89340547Y-83577428D01*
X89531023Y-83577428D01*
X89607214Y-83615523D01*
X89645309Y-83653619D01*
X89683404Y-83729809D01*
X89683404Y-83920285D01*
X89645309Y-83996476D01*
X89607214Y-84034571D01*
X89619904Y-76668476D02*
X88819904Y-76668476D01*
X89619904Y-76211333D02*
X89162761Y-76554190D01*
X88819904Y-76211333D02*
X89277047Y-76668476D01*
X89086571Y-75525619D02*
X89619904Y-75525619D01*
X88781809Y-75716095D02*
X89353238Y-75906571D01*
X89353238Y-75411333D01*
X89365904Y-58761476D02*
X88565904Y-58761476D01*
X89365904Y-58304333D02*
X88908761Y-58647190D01*
X88565904Y-58304333D02*
X89023047Y-58761476D01*
X88565904Y-58037666D02*
X88565904Y-57542428D01*
X88870666Y-57809095D01*
X88870666Y-57694809D01*
X88908761Y-57618619D01*
X88946857Y-57580523D01*
X89023047Y-57542428D01*
X89213523Y-57542428D01*
X89289714Y-57580523D01*
X89327809Y-57618619D01*
X89365904Y-57694809D01*
X89365904Y-57923380D01*
X89327809Y-57999571D01*
X89289714Y-58037666D01*
X89619904Y-48855476D02*
X88819904Y-48855476D01*
X89619904Y-48398333D02*
X89162761Y-48741190D01*
X88819904Y-48398333D02*
X89277047Y-48855476D01*
X88896095Y-48093571D02*
X88858000Y-48055476D01*
X88819904Y-47979285D01*
X88819904Y-47788809D01*
X88858000Y-47712619D01*
X88896095Y-47674523D01*
X88972285Y-47636428D01*
X89048476Y-47636428D01*
X89162761Y-47674523D01*
X89619904Y-48131666D01*
X89619904Y-47636428D01*
X111273571Y-57643904D02*
X111273571Y-56843904D01*
X111730714Y-57643904D02*
X111387857Y-57186761D01*
X111730714Y-56843904D02*
X111273571Y-57301047D01*
X112492619Y-57643904D02*
X112035476Y-57643904D01*
X112264047Y-57643904D02*
X112264047Y-56843904D01*
X112187857Y-56958190D01*
X112111666Y-57034380D01*
X112035476Y-57072476D01*
X112797380Y-56920095D02*
X112835476Y-56882000D01*
X112911666Y-56843904D01*
X113102142Y-56843904D01*
X113178333Y-56882000D01*
X113216428Y-56920095D01*
X113254523Y-56996285D01*
X113254523Y-57072476D01*
X113216428Y-57186761D01*
X112759285Y-57643904D01*
X113254523Y-57643904D01*
X89365904Y-37171476D02*
X88565904Y-37171476D01*
X89365904Y-36714333D02*
X88908761Y-37057190D01*
X88565904Y-36714333D02*
X89023047Y-37171476D01*
X89365904Y-35952428D02*
X89365904Y-36409571D01*
X89365904Y-36181000D02*
X88565904Y-36181000D01*
X88680190Y-36257190D01*
X88756380Y-36333380D01*
X88794476Y-36409571D01*
X11934095Y-84377571D02*
X12734095Y-84377571D01*
X11934095Y-84834714D02*
X12391238Y-84491857D01*
X12734095Y-84834714D02*
X12276952Y-84377571D01*
X11934095Y-85596619D02*
X11934095Y-85139476D01*
X11934095Y-85368047D02*
X12734095Y-85368047D01*
X12619809Y-85291857D01*
X12543619Y-85215666D01*
X12505523Y-85139476D01*
X12734095Y-86091857D02*
X12734095Y-86168047D01*
X12696000Y-86244238D01*
X12657904Y-86282333D01*
X12581714Y-86320428D01*
X12429333Y-86358523D01*
X12238857Y-86358523D01*
X12086476Y-86320428D01*
X12010285Y-86282333D01*
X11972190Y-86244238D01*
X11934095Y-86168047D01*
X11934095Y-86091857D01*
X11972190Y-86015666D01*
X12010285Y-85977571D01*
X12086476Y-85939476D01*
X12238857Y-85901380D01*
X12429333Y-85901380D01*
X12581714Y-85939476D01*
X12657904Y-85977571D01*
X12696000Y-86015666D01*
X12734095Y-86091857D01*
X11934095Y-73000823D02*
X12734095Y-73000823D01*
X11934095Y-73457966D02*
X12391238Y-73115109D01*
X12734095Y-73457966D02*
X12276952Y-73000823D01*
X11934095Y-73838919D02*
X11934095Y-73991300D01*
X11972190Y-74067490D01*
X12010285Y-74105585D01*
X12124571Y-74181776D01*
X12276952Y-74219871D01*
X12581714Y-74219871D01*
X12657904Y-74181776D01*
X12696000Y-74143680D01*
X12734095Y-74067490D01*
X12734095Y-73915109D01*
X12696000Y-73838919D01*
X12657904Y-73800823D01*
X12581714Y-73762728D01*
X12391238Y-73762728D01*
X12315047Y-73800823D01*
X12276952Y-73838919D01*
X12238857Y-73915109D01*
X12238857Y-74067490D01*
X12276952Y-74143680D01*
X12315047Y-74181776D01*
X12391238Y-74219871D01*
X11934095Y-61243123D02*
X12734095Y-61243123D01*
X11934095Y-61700266D02*
X12391238Y-61357409D01*
X12734095Y-61700266D02*
X12276952Y-61243123D01*
X12391238Y-62157409D02*
X12429333Y-62081219D01*
X12467428Y-62043123D01*
X12543619Y-62005028D01*
X12581714Y-62005028D01*
X12657904Y-62043123D01*
X12696000Y-62081219D01*
X12734095Y-62157409D01*
X12734095Y-62309790D01*
X12696000Y-62385980D01*
X12657904Y-62424076D01*
X12581714Y-62462171D01*
X12543619Y-62462171D01*
X12467428Y-62424076D01*
X12429333Y-62385980D01*
X12391238Y-62309790D01*
X12391238Y-62157409D01*
X12353142Y-62081219D01*
X12315047Y-62043123D01*
X12238857Y-62005028D01*
X12086476Y-62005028D01*
X12010285Y-62043123D01*
X11972190Y-62081219D01*
X11934095Y-62157409D01*
X11934095Y-62309790D01*
X11972190Y-62385980D01*
X12010285Y-62424076D01*
X12086476Y-62462171D01*
X12238857Y-62462171D01*
X12315047Y-62424076D01*
X12353142Y-62385980D01*
X12391238Y-62309790D01*
X11934095Y-49485423D02*
X12734095Y-49485423D01*
X11934095Y-49942566D02*
X12391238Y-49599709D01*
X12734095Y-49942566D02*
X12276952Y-49485423D01*
X12734095Y-50209233D02*
X12734095Y-50742566D01*
X11934095Y-50399709D01*
X11934095Y-37727723D02*
X12734095Y-37727723D01*
X11934095Y-38184866D02*
X12391238Y-37842009D01*
X12734095Y-38184866D02*
X12276952Y-37727723D01*
X12734095Y-38870580D02*
X12734095Y-38718200D01*
X12696000Y-38642009D01*
X12657904Y-38603914D01*
X12543619Y-38527723D01*
X12391238Y-38489628D01*
X12086476Y-38489628D01*
X12010285Y-38527723D01*
X11972190Y-38565819D01*
X11934095Y-38642009D01*
X11934095Y-38794390D01*
X11972190Y-38870580D01*
X12010285Y-38908676D01*
X12086476Y-38946771D01*
X12276952Y-38946771D01*
X12353142Y-38908676D01*
X12391238Y-38870580D01*
X12429333Y-38794390D01*
X12429333Y-38642009D01*
X12391238Y-38565819D01*
X12353142Y-38527723D01*
X12276952Y-38489628D01*
D10*
X93591666Y-70552380D02*
X93591666Y-71266666D01*
X93544047Y-71409523D01*
X93448809Y-71504761D01*
X93305952Y-71552380D01*
X93210714Y-71552380D01*
X94496428Y-70885714D02*
X94496428Y-71552380D01*
X94258333Y-70504761D02*
X94020238Y-71219047D01*
X94639285Y-71219047D01*
X101267380Y-53733857D02*
X100791190Y-54067190D01*
X101267380Y-54305285D02*
X100267380Y-54305285D01*
X100267380Y-53924333D01*
X100315000Y-53829095D01*
X100362619Y-53781476D01*
X100457857Y-53733857D01*
X100600714Y-53733857D01*
X100695952Y-53781476D01*
X100743571Y-53829095D01*
X100791190Y-53924333D01*
X100791190Y-54305285D01*
X100600714Y-52876714D02*
X101267380Y-52876714D01*
X100219761Y-53114809D02*
X100934047Y-53352904D01*
X100934047Y-52733857D01*
X101267380Y-51829095D02*
X101267380Y-52400523D01*
X101267380Y-52114809D02*
X100267380Y-52114809D01*
X100410238Y-52210047D01*
X100505476Y-52305285D01*
X100553095Y-52400523D01*
X101394380Y-63258857D02*
X100918190Y-63592190D01*
X101394380Y-63830285D02*
X100394380Y-63830285D01*
X100394380Y-63449333D01*
X100442000Y-63354095D01*
X100489619Y-63306476D01*
X100584857Y-63258857D01*
X100727714Y-63258857D01*
X100822952Y-63306476D01*
X100870571Y-63354095D01*
X100918190Y-63449333D01*
X100918190Y-63830285D01*
X100727714Y-62401714D02*
X101394380Y-62401714D01*
X100346761Y-62639809D02*
X101061047Y-62877904D01*
X101061047Y-62258857D01*
X100394380Y-61687428D02*
X100394380Y-61592190D01*
X100442000Y-61496952D01*
X100489619Y-61449333D01*
X100584857Y-61401714D01*
X100775333Y-61354095D01*
X101013428Y-61354095D01*
X101203904Y-61401714D01*
X101299142Y-61449333D01*
X101346761Y-61496952D01*
X101394380Y-61592190D01*
X101394380Y-61687428D01*
X101346761Y-61782666D01*
X101299142Y-61830285D01*
X101203904Y-61877904D01*
X101013428Y-61925523D01*
X100775333Y-61925523D01*
X100584857Y-61877904D01*
X100489619Y-61830285D01*
X100442000Y-61782666D01*
X100394380Y-61687428D01*
X126009666Y-65218380D02*
X126009666Y-65932666D01*
X125962047Y-66075523D01*
X125866809Y-66170761D01*
X125723952Y-66218380D01*
X125628714Y-66218380D01*
X126390619Y-65218380D02*
X127009666Y-65218380D01*
X126676333Y-65599333D01*
X126819190Y-65599333D01*
X126914428Y-65646952D01*
X126962047Y-65694571D01*
X127009666Y-65789809D01*
X127009666Y-66027904D01*
X126962047Y-66123142D01*
X126914428Y-66170761D01*
X126819190Y-66218380D01*
X126533476Y-66218380D01*
X126438238Y-66170761D01*
X126390619Y-66123142D01*
X4966666Y-69652380D02*
X4966666Y-70366666D01*
X4919047Y-70509523D01*
X4823809Y-70604761D01*
X4680952Y-70652380D01*
X4585714Y-70652380D01*
X5585714Y-70080952D02*
X5490476Y-70033333D01*
X5442857Y-69985714D01*
X5395238Y-69890476D01*
X5395238Y-69842857D01*
X5442857Y-69747619D01*
X5490476Y-69700000D01*
X5585714Y-69652380D01*
X5776190Y-69652380D01*
X5871428Y-69700000D01*
X5919047Y-69747619D01*
X5966666Y-69842857D01*
X5966666Y-69890476D01*
X5919047Y-69985714D01*
X5871428Y-70033333D01*
X5776190Y-70080952D01*
X5585714Y-70080952D01*
X5490476Y-70128571D01*
X5442857Y-70176190D01*
X5395238Y-70271428D01*
X5395238Y-70461904D01*
X5442857Y-70557142D01*
X5490476Y-70604761D01*
X5585714Y-70652380D01*
X5776190Y-70652380D01*
X5871428Y-70604761D01*
X5919047Y-70557142D01*
X5966666Y-70461904D01*
X5966666Y-70271428D01*
X5919047Y-70176190D01*
X5871428Y-70128571D01*
X5776190Y-70080952D01*
X91566666Y-9852380D02*
X91566666Y-10566666D01*
X91519047Y-10709523D01*
X91423809Y-10804761D01*
X91280952Y-10852380D01*
X91185714Y-10852380D01*
X91947619Y-9852380D02*
X92614285Y-9852380D01*
X92185714Y-10852380D01*
D18*
X62617333Y-50875380D02*
X62141142Y-50875380D01*
X62141142Y-49875380D01*
X62855428Y-49875380D02*
X63474476Y-49875380D01*
X63141142Y-50256333D01*
X63284000Y-50256333D01*
X63379238Y-50303952D01*
X63426857Y-50351571D01*
X63474476Y-50446809D01*
X63474476Y-50684904D01*
X63426857Y-50780142D01*
X63379238Y-50827761D01*
X63284000Y-50875380D01*
X62998285Y-50875380D01*
X62903047Y-50827761D01*
X62855428Y-50780142D01*
D10*
X89821571Y-72085333D02*
X89821571Y-72418666D01*
X90345380Y-72418666D02*
X89345380Y-72418666D01*
X89345380Y-71942476D01*
X89821571Y-71228190D02*
X89869190Y-71085333D01*
X89916809Y-71037714D01*
X90012047Y-70990095D01*
X90154904Y-70990095D01*
X90250142Y-71037714D01*
X90297761Y-71085333D01*
X90345380Y-71180571D01*
X90345380Y-71561523D01*
X89345380Y-71561523D01*
X89345380Y-71228190D01*
X89393000Y-71132952D01*
X89440619Y-71085333D01*
X89535857Y-71037714D01*
X89631095Y-71037714D01*
X89726333Y-71085333D01*
X89773952Y-71132952D01*
X89821571Y-71228190D01*
X89821571Y-71561523D01*
X89345380Y-70085333D02*
X89345380Y-70561523D01*
X89821571Y-70609142D01*
X89773952Y-70561523D01*
X89726333Y-70466285D01*
X89726333Y-70228190D01*
X89773952Y-70132952D01*
X89821571Y-70085333D01*
X89916809Y-70037714D01*
X90154904Y-70037714D01*
X90250142Y-70085333D01*
X90297761Y-70132952D01*
X90345380Y-70228190D01*
X90345380Y-70466285D01*
X90297761Y-70561523D01*
X90250142Y-70609142D01*
X107066666Y-10152380D02*
X107066666Y-10866666D01*
X107019047Y-11009523D01*
X106923809Y-11104761D01*
X106780952Y-11152380D01*
X106685714Y-11152380D01*
X107971428Y-10152380D02*
X107780952Y-10152380D01*
X107685714Y-10200000D01*
X107638095Y-10247619D01*
X107542857Y-10390476D01*
X107495238Y-10580952D01*
X107495238Y-10961904D01*
X107542857Y-11057142D01*
X107590476Y-11104761D01*
X107685714Y-11152380D01*
X107876190Y-11152380D01*
X107971428Y-11104761D01*
X108019047Y-11057142D01*
X108066666Y-10961904D01*
X108066666Y-10723809D01*
X108019047Y-10628571D01*
X107971428Y-10580952D01*
X107876190Y-10533333D01*
X107685714Y-10533333D01*
X107590476Y-10580952D01*
X107542857Y-10628571D01*
X107495238Y-10723809D01*
D19*
X132732380Y-19104523D02*
X133458095Y-19104523D01*
X133095238Y-20374523D02*
X133095238Y-19104523D01*
X133760476Y-19104523D02*
X134546666Y-19104523D01*
X134123333Y-19588333D01*
X134304761Y-19588333D01*
X134425714Y-19648809D01*
X134486190Y-19709285D01*
X134546666Y-19830238D01*
X134546666Y-20132619D01*
X134486190Y-20253571D01*
X134425714Y-20314047D01*
X134304761Y-20374523D01*
X133941904Y-20374523D01*
X133820952Y-20314047D01*
X133760476Y-20253571D01*
D10*
X49238095Y-25752380D02*
X49809523Y-25752380D01*
X49523809Y-26752380D02*
X49523809Y-25752380D01*
X50095238Y-25847619D02*
X50142857Y-25800000D01*
X50238095Y-25752380D01*
X50476190Y-25752380D01*
X50571428Y-25800000D01*
X50619047Y-25847619D01*
X50666666Y-25942857D01*
X50666666Y-26038095D01*
X50619047Y-26180952D01*
X50047619Y-26752380D01*
X50666666Y-26752380D01*
X8066666Y-14252380D02*
X8066666Y-14966666D01*
X8019047Y-15109523D01*
X7923809Y-15204761D01*
X7780952Y-15252380D01*
X7685714Y-15252380D01*
X9066666Y-15252380D02*
X8495238Y-15252380D01*
X8780952Y-15252380D02*
X8780952Y-14252380D01*
X8685714Y-14395238D01*
X8590476Y-14490476D01*
X8495238Y-14538095D01*
D18*
X62617333Y-29675380D02*
X62141142Y-29675380D01*
X62141142Y-28675380D01*
X63474476Y-29675380D02*
X62903047Y-29675380D01*
X63188761Y-29675380D02*
X63188761Y-28675380D01*
X63093523Y-28818238D01*
X62998285Y-28913476D01*
X62903047Y-28961095D01*
X62617333Y-40275380D02*
X62141142Y-40275380D01*
X62141142Y-39275380D01*
X62903047Y-39370619D02*
X62950666Y-39323000D01*
X63045904Y-39275380D01*
X63284000Y-39275380D01*
X63379238Y-39323000D01*
X63426857Y-39370619D01*
X63474476Y-39465857D01*
X63474476Y-39561095D01*
X63426857Y-39703952D01*
X62855428Y-40275380D01*
X63474476Y-40275380D01*
X62617333Y-61475380D02*
X62141142Y-61475380D01*
X62141142Y-60475380D01*
X63379238Y-60808714D02*
X63379238Y-61475380D01*
X63141142Y-60427761D02*
X62903047Y-61142047D01*
X63522095Y-61142047D01*
X62617333Y-72075380D02*
X62141142Y-72075380D01*
X62141142Y-71075380D01*
X63426857Y-71075380D02*
X62950666Y-71075380D01*
X62903047Y-71551571D01*
X62950666Y-71503952D01*
X63045904Y-71456333D01*
X63284000Y-71456333D01*
X63379238Y-71503952D01*
X63426857Y-71551571D01*
X63474476Y-71646809D01*
X63474476Y-71884904D01*
X63426857Y-71980142D01*
X63379238Y-72027761D01*
X63284000Y-72075380D01*
X63045904Y-72075380D01*
X62950666Y-72027761D01*
X62903047Y-71980142D01*
X62617333Y-82675380D02*
X62141142Y-82675380D01*
X62141142Y-81675380D01*
X63379238Y-81675380D02*
X63188761Y-81675380D01*
X63093523Y-81723000D01*
X63045904Y-81770619D01*
X62950666Y-81913476D01*
X62903047Y-82103952D01*
X62903047Y-82484904D01*
X62950666Y-82580142D01*
X62998285Y-82627761D01*
X63093523Y-82675380D01*
X63284000Y-82675380D01*
X63379238Y-82627761D01*
X63426857Y-82580142D01*
X63474476Y-82484904D01*
X63474476Y-82246809D01*
X63426857Y-82151571D01*
X63379238Y-82103952D01*
X63284000Y-82056333D01*
X63093523Y-82056333D01*
X62998285Y-82103952D01*
X62950666Y-82151571D01*
X62903047Y-82246809D01*
X46817333Y-29675380D02*
X46341142Y-29675380D01*
X46341142Y-28675380D01*
X47055428Y-28675380D02*
X47722095Y-28675380D01*
X47293523Y-29675380D01*
X46817333Y-40275380D02*
X46341142Y-40275380D01*
X46341142Y-39275380D01*
X47293523Y-39703952D02*
X47198285Y-39656333D01*
X47150666Y-39608714D01*
X47103047Y-39513476D01*
X47103047Y-39465857D01*
X47150666Y-39370619D01*
X47198285Y-39323000D01*
X47293523Y-39275380D01*
X47484000Y-39275380D01*
X47579238Y-39323000D01*
X47626857Y-39370619D01*
X47674476Y-39465857D01*
X47674476Y-39513476D01*
X47626857Y-39608714D01*
X47579238Y-39656333D01*
X47484000Y-39703952D01*
X47293523Y-39703952D01*
X47198285Y-39751571D01*
X47150666Y-39799190D01*
X47103047Y-39894428D01*
X47103047Y-40084904D01*
X47150666Y-40180142D01*
X47198285Y-40227761D01*
X47293523Y-40275380D01*
X47484000Y-40275380D01*
X47579238Y-40227761D01*
X47626857Y-40180142D01*
X47674476Y-40084904D01*
X47674476Y-39894428D01*
X47626857Y-39799190D01*
X47579238Y-39751571D01*
X47484000Y-39703952D01*
X46817333Y-50875380D02*
X46341142Y-50875380D01*
X46341142Y-49875380D01*
X47198285Y-50875380D02*
X47388761Y-50875380D01*
X47484000Y-50827761D01*
X47531619Y-50780142D01*
X47626857Y-50637285D01*
X47674476Y-50446809D01*
X47674476Y-50065857D01*
X47626857Y-49970619D01*
X47579238Y-49923000D01*
X47484000Y-49875380D01*
X47293523Y-49875380D01*
X47198285Y-49923000D01*
X47150666Y-49970619D01*
X47103047Y-50065857D01*
X47103047Y-50303952D01*
X47150666Y-50399190D01*
X47198285Y-50446809D01*
X47293523Y-50494428D01*
X47484000Y-50494428D01*
X47579238Y-50446809D01*
X47626857Y-50399190D01*
X47674476Y-50303952D01*
X46341142Y-61475380D02*
X45864952Y-61475380D01*
X45864952Y-60475380D01*
X47198285Y-61475380D02*
X46626857Y-61475380D01*
X46912571Y-61475380D02*
X46912571Y-60475380D01*
X46817333Y-60618238D01*
X46722095Y-60713476D01*
X46626857Y-60761095D01*
X47817333Y-60475380D02*
X47912571Y-60475380D01*
X48007809Y-60523000D01*
X48055428Y-60570619D01*
X48103047Y-60665857D01*
X48150666Y-60856333D01*
X48150666Y-61094428D01*
X48103047Y-61284904D01*
X48055428Y-61380142D01*
X48007809Y-61427761D01*
X47912571Y-61475380D01*
X47817333Y-61475380D01*
X47722095Y-61427761D01*
X47674476Y-61380142D01*
X47626857Y-61284904D01*
X47579238Y-61094428D01*
X47579238Y-60856333D01*
X47626857Y-60665857D01*
X47674476Y-60570619D01*
X47722095Y-60523000D01*
X47817333Y-60475380D01*
X46341142Y-72075380D02*
X45864952Y-72075380D01*
X45864952Y-71075380D01*
X47198285Y-72075380D02*
X46626857Y-72075380D01*
X46912571Y-72075380D02*
X46912571Y-71075380D01*
X46817333Y-71218238D01*
X46722095Y-71313476D01*
X46626857Y-71361095D01*
X48150666Y-72075380D02*
X47579238Y-72075380D01*
X47864952Y-72075380D02*
X47864952Y-71075380D01*
X47769714Y-71218238D01*
X47674476Y-71313476D01*
X47579238Y-71361095D01*
X46341142Y-82675380D02*
X45864952Y-82675380D01*
X45864952Y-81675380D01*
X47198285Y-82675380D02*
X46626857Y-82675380D01*
X46912571Y-82675380D02*
X46912571Y-81675380D01*
X46817333Y-81818238D01*
X46722095Y-81913476D01*
X46626857Y-81961095D01*
X47579238Y-81770619D02*
X47626857Y-81723000D01*
X47722095Y-81675380D01*
X47960190Y-81675380D01*
X48055428Y-81723000D01*
X48103047Y-81770619D01*
X48150666Y-81865857D01*
X48150666Y-81961095D01*
X48103047Y-82103952D01*
X47531619Y-82675380D01*
X48150666Y-82675380D01*
D10*
X91723142Y-65212357D02*
X91770761Y-65259976D01*
X91818380Y-65402833D01*
X91818380Y-65498071D01*
X91770761Y-65640928D01*
X91675523Y-65736166D01*
X91580285Y-65783785D01*
X91389809Y-65831404D01*
X91246952Y-65831404D01*
X91056476Y-65783785D01*
X90961238Y-65736166D01*
X90866000Y-65640928D01*
X90818380Y-65498071D01*
X90818380Y-65402833D01*
X90866000Y-65259976D01*
X90913619Y-65212357D01*
X90818380Y-64307595D02*
X90818380Y-64783785D01*
X91294571Y-64831404D01*
X91246952Y-64783785D01*
X91199333Y-64688547D01*
X91199333Y-64450452D01*
X91246952Y-64355214D01*
X91294571Y-64307595D01*
X91389809Y-64259976D01*
X91627904Y-64259976D01*
X91723142Y-64307595D01*
X91770761Y-64355214D01*
X91818380Y-64450452D01*
X91818380Y-64688547D01*
X91770761Y-64783785D01*
X91723142Y-64831404D01*
X90818380Y-63355214D02*
X90818380Y-63831404D01*
X91294571Y-63879023D01*
X91246952Y-63831404D01*
X91199333Y-63736166D01*
X91199333Y-63498071D01*
X91246952Y-63402833D01*
X91294571Y-63355214D01*
X91389809Y-63307595D01*
X91627904Y-63307595D01*
X91723142Y-63355214D01*
X91770761Y-63402833D01*
X91818380Y-63498071D01*
X91818380Y-63736166D01*
X91770761Y-63831404D01*
X91723142Y-63879023D01*
X142657142Y-65642857D02*
X142704761Y-65690476D01*
X142752380Y-65833333D01*
X142752380Y-65928571D01*
X142704761Y-66071428D01*
X142609523Y-66166666D01*
X142514285Y-66214285D01*
X142323809Y-66261904D01*
X142180952Y-66261904D01*
X141990476Y-66214285D01*
X141895238Y-66166666D01*
X141800000Y-66071428D01*
X141752380Y-65928571D01*
X141752380Y-65833333D01*
X141800000Y-65690476D01*
X141847619Y-65642857D01*
X141752380Y-64738095D02*
X141752380Y-65214285D01*
X142228571Y-65261904D01*
X142180952Y-65214285D01*
X142133333Y-65119047D01*
X142133333Y-64880952D01*
X142180952Y-64785714D01*
X142228571Y-64738095D01*
X142323809Y-64690476D01*
X142561904Y-64690476D01*
X142657142Y-64738095D01*
X142704761Y-64785714D01*
X142752380Y-64880952D01*
X142752380Y-65119047D01*
X142704761Y-65214285D01*
X142657142Y-65261904D01*
X141752380Y-63833333D02*
X141752380Y-64023809D01*
X141800000Y-64119047D01*
X141847619Y-64166666D01*
X141990476Y-64261904D01*
X142180952Y-64309523D01*
X142561904Y-64309523D01*
X142657142Y-64261904D01*
X142704761Y-64214285D01*
X142752380Y-64119047D01*
X142752380Y-63928571D01*
X142704761Y-63833333D01*
X142657142Y-63785714D01*
X142561904Y-63738095D01*
X142323809Y-63738095D01*
X142228571Y-63785714D01*
X142180952Y-63833333D01*
X142133333Y-63928571D01*
X142133333Y-64119047D01*
X142180952Y-64214285D01*
X142228571Y-64261904D01*
X142323809Y-64309523D01*
X103839142Y-62877857D02*
X103886761Y-62925476D01*
X103934380Y-63068333D01*
X103934380Y-63163571D01*
X103886761Y-63306428D01*
X103791523Y-63401666D01*
X103696285Y-63449285D01*
X103505809Y-63496904D01*
X103362952Y-63496904D01*
X103172476Y-63449285D01*
X103077238Y-63401666D01*
X102982000Y-63306428D01*
X102934380Y-63163571D01*
X102934380Y-63068333D01*
X102982000Y-62925476D01*
X103029619Y-62877857D01*
X102934380Y-61973095D02*
X102934380Y-62449285D01*
X103410571Y-62496904D01*
X103362952Y-62449285D01*
X103315333Y-62354047D01*
X103315333Y-62115952D01*
X103362952Y-62020714D01*
X103410571Y-61973095D01*
X103505809Y-61925476D01*
X103743904Y-61925476D01*
X103839142Y-61973095D01*
X103886761Y-62020714D01*
X103934380Y-62115952D01*
X103934380Y-62354047D01*
X103886761Y-62449285D01*
X103839142Y-62496904D01*
X102934380Y-61592142D02*
X102934380Y-60925476D01*
X103934380Y-61354047D01*
X130657142Y-64157142D02*
X130609523Y-64204761D01*
X130466666Y-64252380D01*
X130371428Y-64252380D01*
X130228571Y-64204761D01*
X130133333Y-64109523D01*
X130085714Y-64014285D01*
X130038095Y-63823809D01*
X130038095Y-63680952D01*
X130085714Y-63490476D01*
X130133333Y-63395238D01*
X130228571Y-63300000D01*
X130371428Y-63252380D01*
X130466666Y-63252380D01*
X130609523Y-63300000D01*
X130657142Y-63347619D01*
X131561904Y-63252380D02*
X131085714Y-63252380D01*
X131038095Y-63728571D01*
X131085714Y-63680952D01*
X131180952Y-63633333D01*
X131419047Y-63633333D01*
X131514285Y-63680952D01*
X131561904Y-63728571D01*
X131609523Y-63823809D01*
X131609523Y-64061904D01*
X131561904Y-64157142D01*
X131514285Y-64204761D01*
X131419047Y-64252380D01*
X131180952Y-64252380D01*
X131085714Y-64204761D01*
X131038095Y-64157142D01*
X132085714Y-64252380D02*
X132276190Y-64252380D01*
X132371428Y-64204761D01*
X132419047Y-64157142D01*
X132514285Y-64014285D01*
X132561904Y-63823809D01*
X132561904Y-63442857D01*
X132514285Y-63347619D01*
X132466666Y-63300000D01*
X132371428Y-63252380D01*
X132180952Y-63252380D01*
X132085714Y-63300000D01*
X132038095Y-63347619D01*
X131990476Y-63442857D01*
X131990476Y-63680952D01*
X132038095Y-63776190D01*
X132085714Y-63823809D01*
X132180952Y-63871428D01*
X132371428Y-63871428D01*
X132466666Y-63823809D01*
X132514285Y-63776190D01*
X132561904Y-63680952D01*
X127096142Y-60052142D02*
X127048523Y-60099761D01*
X126905666Y-60147380D01*
X126810428Y-60147380D01*
X126667571Y-60099761D01*
X126572333Y-60004523D01*
X126524714Y-59909285D01*
X126477095Y-59718809D01*
X126477095Y-59575952D01*
X126524714Y-59385476D01*
X126572333Y-59290238D01*
X126667571Y-59195000D01*
X126810428Y-59147380D01*
X126905666Y-59147380D01*
X127048523Y-59195000D01*
X127096142Y-59242619D01*
X127953285Y-59147380D02*
X127762809Y-59147380D01*
X127667571Y-59195000D01*
X127619952Y-59242619D01*
X127524714Y-59385476D01*
X127477095Y-59575952D01*
X127477095Y-59956904D01*
X127524714Y-60052142D01*
X127572333Y-60099761D01*
X127667571Y-60147380D01*
X127858047Y-60147380D01*
X127953285Y-60099761D01*
X128000904Y-60052142D01*
X128048523Y-59956904D01*
X128048523Y-59718809D01*
X128000904Y-59623571D01*
X127953285Y-59575952D01*
X127858047Y-59528333D01*
X127667571Y-59528333D01*
X127572333Y-59575952D01*
X127524714Y-59623571D01*
X127477095Y-59718809D01*
X128667571Y-59147380D02*
X128762809Y-59147380D01*
X128858047Y-59195000D01*
X128905666Y-59242619D01*
X128953285Y-59337857D01*
X129000904Y-59528333D01*
X129000904Y-59766428D01*
X128953285Y-59956904D01*
X128905666Y-60052142D01*
X128858047Y-60099761D01*
X128762809Y-60147380D01*
X128667571Y-60147380D01*
X128572333Y-60099761D01*
X128524714Y-60052142D01*
X128477095Y-59956904D01*
X128429476Y-59766428D01*
X128429476Y-59528333D01*
X128477095Y-59337857D01*
X128524714Y-59242619D01*
X128572333Y-59195000D01*
X128667571Y-59147380D01*
X144657142Y-43057142D02*
X144609523Y-43104761D01*
X144466666Y-43152380D01*
X144371428Y-43152380D01*
X144228571Y-43104761D01*
X144133333Y-43009523D01*
X144085714Y-42914285D01*
X144038095Y-42723809D01*
X144038095Y-42580952D01*
X144085714Y-42390476D01*
X144133333Y-42295238D01*
X144228571Y-42200000D01*
X144371428Y-42152380D01*
X144466666Y-42152380D01*
X144609523Y-42200000D01*
X144657142Y-42247619D01*
X145514285Y-42152380D02*
X145323809Y-42152380D01*
X145228571Y-42200000D01*
X145180952Y-42247619D01*
X145085714Y-42390476D01*
X145038095Y-42580952D01*
X145038095Y-42961904D01*
X145085714Y-43057142D01*
X145133333Y-43104761D01*
X145228571Y-43152380D01*
X145419047Y-43152380D01*
X145514285Y-43104761D01*
X145561904Y-43057142D01*
X145609523Y-42961904D01*
X145609523Y-42723809D01*
X145561904Y-42628571D01*
X145514285Y-42580952D01*
X145419047Y-42533333D01*
X145228571Y-42533333D01*
X145133333Y-42580952D01*
X145085714Y-42628571D01*
X145038095Y-42723809D01*
X145990476Y-42247619D02*
X146038095Y-42200000D01*
X146133333Y-42152380D01*
X146371428Y-42152380D01*
X146466666Y-42200000D01*
X146514285Y-42247619D01*
X146561904Y-42342857D01*
X146561904Y-42438095D01*
X146514285Y-42580952D01*
X145942857Y-43152380D01*
X146561904Y-43152380D01*
X133007142Y-12642857D02*
X133054761Y-12690476D01*
X133102380Y-12833333D01*
X133102380Y-12928571D01*
X133054761Y-13071428D01*
X132959523Y-13166666D01*
X132864285Y-13214285D01*
X132673809Y-13261904D01*
X132530952Y-13261904D01*
X132340476Y-13214285D01*
X132245238Y-13166666D01*
X132150000Y-13071428D01*
X132102380Y-12928571D01*
X132102380Y-12833333D01*
X132150000Y-12690476D01*
X132197619Y-12642857D01*
X132102380Y-11785714D02*
X132102380Y-11976190D01*
X132150000Y-12071428D01*
X132197619Y-12119047D01*
X132340476Y-12214285D01*
X132530952Y-12261904D01*
X132911904Y-12261904D01*
X133007142Y-12214285D01*
X133054761Y-12166666D01*
X133102380Y-12071428D01*
X133102380Y-11880952D01*
X133054761Y-11785714D01*
X133007142Y-11738095D01*
X132911904Y-11690476D01*
X132673809Y-11690476D01*
X132578571Y-11738095D01*
X132530952Y-11785714D01*
X132483333Y-11880952D01*
X132483333Y-12071428D01*
X132530952Y-12166666D01*
X132578571Y-12214285D01*
X132673809Y-12261904D01*
X132102380Y-11357142D02*
X132102380Y-10690476D01*
X133102380Y-11119047D01*
X103432742Y-54188757D02*
X103480361Y-54236376D01*
X103527980Y-54379233D01*
X103527980Y-54474471D01*
X103480361Y-54617328D01*
X103385123Y-54712566D01*
X103289885Y-54760185D01*
X103099409Y-54807804D01*
X102956552Y-54807804D01*
X102766076Y-54760185D01*
X102670838Y-54712566D01*
X102575600Y-54617328D01*
X102527980Y-54474471D01*
X102527980Y-54379233D01*
X102575600Y-54236376D01*
X102623219Y-54188757D01*
X102527980Y-53331614D02*
X102527980Y-53522090D01*
X102575600Y-53617328D01*
X102623219Y-53664947D01*
X102766076Y-53760185D01*
X102956552Y-53807804D01*
X103337504Y-53807804D01*
X103432742Y-53760185D01*
X103480361Y-53712566D01*
X103527980Y-53617328D01*
X103527980Y-53426852D01*
X103480361Y-53331614D01*
X103432742Y-53283995D01*
X103337504Y-53236376D01*
X103099409Y-53236376D01*
X103004171Y-53283995D01*
X102956552Y-53331614D01*
X102908933Y-53426852D01*
X102908933Y-53617328D01*
X102956552Y-53712566D01*
X103004171Y-53760185D01*
X103099409Y-53807804D01*
X102956552Y-52664947D02*
X102908933Y-52760185D01*
X102861314Y-52807804D01*
X102766076Y-52855423D01*
X102718457Y-52855423D01*
X102623219Y-52807804D01*
X102575600Y-52760185D01*
X102527980Y-52664947D01*
X102527980Y-52474471D01*
X102575600Y-52379233D01*
X102623219Y-52331614D01*
X102718457Y-52283995D01*
X102766076Y-52283995D01*
X102861314Y-52331614D01*
X102908933Y-52379233D01*
X102956552Y-52474471D01*
X102956552Y-52664947D01*
X103004171Y-52760185D01*
X103051790Y-52807804D01*
X103147028Y-52855423D01*
X103337504Y-52855423D01*
X103432742Y-52807804D01*
X103480361Y-52760185D01*
X103527980Y-52664947D01*
X103527980Y-52474471D01*
X103480361Y-52379233D01*
X103432742Y-52331614D01*
X103337504Y-52283995D01*
X103147028Y-52283995D01*
X103051790Y-52331614D01*
X103004171Y-52379233D01*
X102956552Y-52474471D01*
X115325142Y-51967142D02*
X115277523Y-52014761D01*
X115134666Y-52062380D01*
X115039428Y-52062380D01*
X114896571Y-52014761D01*
X114801333Y-51919523D01*
X114753714Y-51824285D01*
X114706095Y-51633809D01*
X114706095Y-51490952D01*
X114753714Y-51300476D01*
X114801333Y-51205238D01*
X114896571Y-51110000D01*
X115039428Y-51062380D01*
X115134666Y-51062380D01*
X115277523Y-51110000D01*
X115325142Y-51157619D01*
X115658476Y-51062380D02*
X116325142Y-51062380D01*
X115896571Y-52062380D01*
X116610857Y-51062380D02*
X117229904Y-51062380D01*
X116896571Y-51443333D01*
X117039428Y-51443333D01*
X117134666Y-51490952D01*
X117182285Y-51538571D01*
X117229904Y-51633809D01*
X117229904Y-51871904D01*
X117182285Y-51967142D01*
X117134666Y-52014761D01*
X117039428Y-52062380D01*
X116753714Y-52062380D01*
X116658476Y-52014761D01*
X116610857Y-51967142D01*
X121919642Y-38207142D02*
X121872023Y-38254761D01*
X121729166Y-38302380D01*
X121633928Y-38302380D01*
X121491071Y-38254761D01*
X121395833Y-38159523D01*
X121348214Y-38064285D01*
X121300595Y-37873809D01*
X121300595Y-37730952D01*
X121348214Y-37540476D01*
X121395833Y-37445238D01*
X121491071Y-37350000D01*
X121633928Y-37302380D01*
X121729166Y-37302380D01*
X121872023Y-37350000D01*
X121919642Y-37397619D01*
X122252976Y-37302380D02*
X122919642Y-37302380D01*
X122491071Y-38302380D01*
X123776785Y-37302380D02*
X123300595Y-37302380D01*
X123252976Y-37778571D01*
X123300595Y-37730952D01*
X123395833Y-37683333D01*
X123633928Y-37683333D01*
X123729166Y-37730952D01*
X123776785Y-37778571D01*
X123824404Y-37873809D01*
X123824404Y-38111904D01*
X123776785Y-38207142D01*
X123729166Y-38254761D01*
X123633928Y-38302380D01*
X123395833Y-38302380D01*
X123300595Y-38254761D01*
X123252976Y-38207142D01*
X121944642Y-43557142D02*
X121897023Y-43604761D01*
X121754166Y-43652380D01*
X121658928Y-43652380D01*
X121516071Y-43604761D01*
X121420833Y-43509523D01*
X121373214Y-43414285D01*
X121325595Y-43223809D01*
X121325595Y-43080952D01*
X121373214Y-42890476D01*
X121420833Y-42795238D01*
X121516071Y-42700000D01*
X121658928Y-42652380D01*
X121754166Y-42652380D01*
X121897023Y-42700000D01*
X121944642Y-42747619D01*
X122277976Y-42652380D02*
X122944642Y-42652380D01*
X122516071Y-43652380D01*
X123754166Y-42652380D02*
X123563690Y-42652380D01*
X123468452Y-42700000D01*
X123420833Y-42747619D01*
X123325595Y-42890476D01*
X123277976Y-43080952D01*
X123277976Y-43461904D01*
X123325595Y-43557142D01*
X123373214Y-43604761D01*
X123468452Y-43652380D01*
X123658928Y-43652380D01*
X123754166Y-43604761D01*
X123801785Y-43557142D01*
X123849404Y-43461904D01*
X123849404Y-43223809D01*
X123801785Y-43128571D01*
X123754166Y-43080952D01*
X123658928Y-43033333D01*
X123468452Y-43033333D01*
X123373214Y-43080952D01*
X123325595Y-43128571D01*
X123277976Y-43223809D01*
X118110904Y-56718380D02*
X118110904Y-55718380D01*
X118349000Y-55718380D01*
X118491857Y-55766000D01*
X118587095Y-55861238D01*
X118634714Y-55956476D01*
X118682333Y-56146952D01*
X118682333Y-56289809D01*
X118634714Y-56480285D01*
X118587095Y-56575523D01*
X118491857Y-56670761D01*
X118349000Y-56718380D01*
X118110904Y-56718380D01*
X119015666Y-55718380D02*
X119634714Y-55718380D01*
X119301380Y-56099333D01*
X119444238Y-56099333D01*
X119539476Y-56146952D01*
X119587095Y-56194571D01*
X119634714Y-56289809D01*
X119634714Y-56527904D01*
X119587095Y-56623142D01*
X119539476Y-56670761D01*
X119444238Y-56718380D01*
X119158523Y-56718380D01*
X119063285Y-56670761D01*
X119015666Y-56623142D01*
X102978771Y-51687233D02*
X102978771Y-52020566D01*
X103502580Y-52020566D02*
X102502580Y-52020566D01*
X102502580Y-51544376D01*
X102978771Y-50830090D02*
X103026390Y-50687233D01*
X103074009Y-50639614D01*
X103169247Y-50591995D01*
X103312104Y-50591995D01*
X103407342Y-50639614D01*
X103454961Y-50687233D01*
X103502580Y-50782471D01*
X103502580Y-51163423D01*
X102502580Y-51163423D01*
X102502580Y-50830090D01*
X102550200Y-50734852D01*
X102597819Y-50687233D01*
X102693057Y-50639614D01*
X102788295Y-50639614D01*
X102883533Y-50687233D01*
X102931152Y-50734852D01*
X102978771Y-50830090D01*
X102978771Y-51163423D01*
X102502580Y-50258661D02*
X102502580Y-49639614D01*
X102883533Y-49972947D01*
X102883533Y-49830090D01*
X102931152Y-49734852D01*
X102978771Y-49687233D01*
X103074009Y-49639614D01*
X103312104Y-49639614D01*
X103407342Y-49687233D01*
X103454961Y-49734852D01*
X103502580Y-49830090D01*
X103502580Y-50115804D01*
X103454961Y-50211042D01*
X103407342Y-50258661D01*
D14*
X1433333Y-87711904D02*
X1433333Y-88283333D01*
X1395238Y-88397619D01*
X1319047Y-88473809D01*
X1204761Y-88511904D01*
X1128571Y-88511904D01*
X2195238Y-87711904D02*
X1814285Y-87711904D01*
X1776190Y-88092857D01*
X1814285Y-88054761D01*
X1890476Y-88016666D01*
X2080952Y-88016666D01*
X2157142Y-88054761D01*
X2195238Y-88092857D01*
X2233333Y-88169047D01*
X2233333Y-88359523D01*
X2195238Y-88435714D01*
X2157142Y-88473809D01*
X2080952Y-88511904D01*
X1890476Y-88511904D01*
X1814285Y-88473809D01*
X1776190Y-88435714D01*
D10*
X145157142Y-58452380D02*
X144680952Y-58452380D01*
X144680952Y-57452380D01*
X146014285Y-58452380D02*
X145442857Y-58452380D01*
X145728571Y-58452380D02*
X145728571Y-57452380D01*
X145633333Y-57595238D01*
X145538095Y-57690476D01*
X145442857Y-57738095D01*
X146347619Y-57452380D02*
X146966666Y-57452380D01*
X146633333Y-57833333D01*
X146776190Y-57833333D01*
X146871428Y-57880952D01*
X146919047Y-57928571D01*
X146966666Y-58023809D01*
X146966666Y-58261904D01*
X146919047Y-58357142D01*
X146871428Y-58404761D01*
X146776190Y-58452380D01*
X146490476Y-58452380D01*
X146395238Y-58404761D01*
X146347619Y-58357142D01*
X122817761Y-60242619D02*
X122722523Y-60195000D01*
X122627285Y-60099761D01*
X122484428Y-59956904D01*
X122389190Y-59909285D01*
X122293952Y-59909285D01*
X122341571Y-60147380D02*
X122246333Y-60099761D01*
X122151095Y-60004523D01*
X122103476Y-59814047D01*
X122103476Y-59480714D01*
X122151095Y-59290238D01*
X122246333Y-59195000D01*
X122341571Y-59147380D01*
X122532047Y-59147380D01*
X122627285Y-59195000D01*
X122722523Y-59290238D01*
X122770142Y-59480714D01*
X122770142Y-59814047D01*
X122722523Y-60004523D01*
X122627285Y-60099761D01*
X122532047Y-60147380D01*
X122341571Y-60147380D01*
X123151095Y-59242619D02*
X123198714Y-59195000D01*
X123293952Y-59147380D01*
X123532047Y-59147380D01*
X123627285Y-59195000D01*
X123674904Y-59242619D01*
X123722523Y-59337857D01*
X123722523Y-59433095D01*
X123674904Y-59575952D01*
X123103476Y-60147380D01*
X123722523Y-60147380D01*
X137814780Y-90326057D02*
X137338590Y-90659390D01*
X137814780Y-90897485D02*
X136814780Y-90897485D01*
X136814780Y-90516533D01*
X136862400Y-90421295D01*
X136910019Y-90373676D01*
X137005257Y-90326057D01*
X137148114Y-90326057D01*
X137243352Y-90373676D01*
X137290971Y-90421295D01*
X137338590Y-90516533D01*
X137338590Y-90897485D01*
X137814780Y-89373676D02*
X137814780Y-89945104D01*
X137814780Y-89659390D02*
X136814780Y-89659390D01*
X136957638Y-89754628D01*
X137052876Y-89849866D01*
X137100495Y-89945104D01*
X137243352Y-88802247D02*
X137195733Y-88897485D01*
X137148114Y-88945104D01*
X137052876Y-88992723D01*
X137005257Y-88992723D01*
X136910019Y-88945104D01*
X136862400Y-88897485D01*
X136814780Y-88802247D01*
X136814780Y-88611771D01*
X136862400Y-88516533D01*
X136910019Y-88468914D01*
X137005257Y-88421295D01*
X137052876Y-88421295D01*
X137148114Y-88468914D01*
X137195733Y-88516533D01*
X137243352Y-88611771D01*
X137243352Y-88802247D01*
X137290971Y-88897485D01*
X137338590Y-88945104D01*
X137433828Y-88992723D01*
X137624304Y-88992723D01*
X137719542Y-88945104D01*
X137767161Y-88897485D01*
X137814780Y-88802247D01*
X137814780Y-88611771D01*
X137767161Y-88516533D01*
X137719542Y-88468914D01*
X137624304Y-88421295D01*
X137433828Y-88421295D01*
X137338590Y-88468914D01*
X137290971Y-88516533D01*
X137243352Y-88611771D01*
X147234780Y-90326057D02*
X146758590Y-90659390D01*
X147234780Y-90897485D02*
X146234780Y-90897485D01*
X146234780Y-90516533D01*
X146282400Y-90421295D01*
X146330019Y-90373676D01*
X146425257Y-90326057D01*
X146568114Y-90326057D01*
X146663352Y-90373676D01*
X146710971Y-90421295D01*
X146758590Y-90516533D01*
X146758590Y-90897485D01*
X147234780Y-89373676D02*
X147234780Y-89945104D01*
X147234780Y-89659390D02*
X146234780Y-89659390D01*
X146377638Y-89754628D01*
X146472876Y-89849866D01*
X146520495Y-89945104D01*
X147234780Y-88897485D02*
X147234780Y-88707009D01*
X147187161Y-88611771D01*
X147139542Y-88564152D01*
X146996685Y-88468914D01*
X146806209Y-88421295D01*
X146425257Y-88421295D01*
X146330019Y-88468914D01*
X146282400Y-88516533D01*
X146234780Y-88611771D01*
X146234780Y-88802247D01*
X146282400Y-88897485D01*
X146330019Y-88945104D01*
X146425257Y-88992723D01*
X146663352Y-88992723D01*
X146758590Y-88945104D01*
X146806209Y-88897485D01*
X146853828Y-88802247D01*
X146853828Y-88611771D01*
X146806209Y-88516533D01*
X146758590Y-88468914D01*
X146663352Y-88421295D01*
X137814780Y-82226057D02*
X137338590Y-82559390D01*
X137814780Y-82797485D02*
X136814780Y-82797485D01*
X136814780Y-82416533D01*
X136862400Y-82321295D01*
X136910019Y-82273676D01*
X137005257Y-82226057D01*
X137148114Y-82226057D01*
X137243352Y-82273676D01*
X137290971Y-82321295D01*
X137338590Y-82416533D01*
X137338590Y-82797485D01*
X136910019Y-81845104D02*
X136862400Y-81797485D01*
X136814780Y-81702247D01*
X136814780Y-81464152D01*
X136862400Y-81368914D01*
X136910019Y-81321295D01*
X137005257Y-81273676D01*
X137100495Y-81273676D01*
X137243352Y-81321295D01*
X137814780Y-81892723D01*
X137814780Y-81273676D01*
X136814780Y-80654628D02*
X136814780Y-80559390D01*
X136862400Y-80464152D01*
X136910019Y-80416533D01*
X137005257Y-80368914D01*
X137195733Y-80321295D01*
X137433828Y-80321295D01*
X137624304Y-80368914D01*
X137719542Y-80416533D01*
X137767161Y-80464152D01*
X137814780Y-80559390D01*
X137814780Y-80654628D01*
X137767161Y-80749866D01*
X137719542Y-80797485D01*
X137624304Y-80845104D01*
X137433828Y-80892723D01*
X137195733Y-80892723D01*
X137005257Y-80845104D01*
X136910019Y-80797485D01*
X136862400Y-80749866D01*
X136814780Y-80654628D01*
X147254780Y-82226057D02*
X146778590Y-82559390D01*
X147254780Y-82797485D02*
X146254780Y-82797485D01*
X146254780Y-82416533D01*
X146302400Y-82321295D01*
X146350019Y-82273676D01*
X146445257Y-82226057D01*
X146588114Y-82226057D01*
X146683352Y-82273676D01*
X146730971Y-82321295D01*
X146778590Y-82416533D01*
X146778590Y-82797485D01*
X146350019Y-81845104D02*
X146302400Y-81797485D01*
X146254780Y-81702247D01*
X146254780Y-81464152D01*
X146302400Y-81368914D01*
X146350019Y-81321295D01*
X146445257Y-81273676D01*
X146540495Y-81273676D01*
X146683352Y-81321295D01*
X147254780Y-81892723D01*
X147254780Y-81273676D01*
X147254780Y-80321295D02*
X147254780Y-80892723D01*
X147254780Y-80607009D02*
X146254780Y-80607009D01*
X146397638Y-80702247D01*
X146492876Y-80797485D01*
X146540495Y-80892723D01*
X137834780Y-75626057D02*
X137358590Y-75959390D01*
X137834780Y-76197485D02*
X136834780Y-76197485D01*
X136834780Y-75816533D01*
X136882400Y-75721295D01*
X136930019Y-75673676D01*
X137025257Y-75626057D01*
X137168114Y-75626057D01*
X137263352Y-75673676D01*
X137310971Y-75721295D01*
X137358590Y-75816533D01*
X137358590Y-76197485D01*
X136930019Y-75245104D02*
X136882400Y-75197485D01*
X136834780Y-75102247D01*
X136834780Y-74864152D01*
X136882400Y-74768914D01*
X136930019Y-74721295D01*
X137025257Y-74673676D01*
X137120495Y-74673676D01*
X137263352Y-74721295D01*
X137834780Y-75292723D01*
X137834780Y-74673676D01*
X136930019Y-74292723D02*
X136882400Y-74245104D01*
X136834780Y-74149866D01*
X136834780Y-73911771D01*
X136882400Y-73816533D01*
X136930019Y-73768914D01*
X137025257Y-73721295D01*
X137120495Y-73721295D01*
X137263352Y-73768914D01*
X137834780Y-74340342D01*
X137834780Y-73721295D01*
X147254780Y-74126057D02*
X146778590Y-74459390D01*
X147254780Y-74697485D02*
X146254780Y-74697485D01*
X146254780Y-74316533D01*
X146302400Y-74221295D01*
X146350019Y-74173676D01*
X146445257Y-74126057D01*
X146588114Y-74126057D01*
X146683352Y-74173676D01*
X146730971Y-74221295D01*
X146778590Y-74316533D01*
X146778590Y-74697485D01*
X146350019Y-73745104D02*
X146302400Y-73697485D01*
X146254780Y-73602247D01*
X146254780Y-73364152D01*
X146302400Y-73268914D01*
X146350019Y-73221295D01*
X146445257Y-73173676D01*
X146540495Y-73173676D01*
X146683352Y-73221295D01*
X147254780Y-73792723D01*
X147254780Y-73173676D01*
X146254780Y-72840342D02*
X146254780Y-72221295D01*
X146635733Y-72554628D01*
X146635733Y-72411771D01*
X146683352Y-72316533D01*
X146730971Y-72268914D01*
X146826209Y-72221295D01*
X147064304Y-72221295D01*
X147159542Y-72268914D01*
X147207161Y-72316533D01*
X147254780Y-72411771D01*
X147254780Y-72697485D01*
X147207161Y-72792723D01*
X147159542Y-72840342D01*
X143452380Y-59742857D02*
X142976190Y-60076190D01*
X143452380Y-60314285D02*
X142452380Y-60314285D01*
X142452380Y-59933333D01*
X142500000Y-59838095D01*
X142547619Y-59790476D01*
X142642857Y-59742857D01*
X142785714Y-59742857D01*
X142880952Y-59790476D01*
X142928571Y-59838095D01*
X142976190Y-59933333D01*
X142976190Y-60314285D01*
X142547619Y-59361904D02*
X142500000Y-59314285D01*
X142452380Y-59219047D01*
X142452380Y-58980952D01*
X142500000Y-58885714D01*
X142547619Y-58838095D01*
X142642857Y-58790476D01*
X142738095Y-58790476D01*
X142880952Y-58838095D01*
X143452380Y-59409523D01*
X143452380Y-58790476D01*
X142785714Y-57933333D02*
X143452380Y-57933333D01*
X142404761Y-58171428D02*
X143119047Y-58409523D01*
X143119047Y-57790476D01*
X126857142Y-45852380D02*
X126523809Y-45376190D01*
X126285714Y-45852380D02*
X126285714Y-44852380D01*
X126666666Y-44852380D01*
X126761904Y-44900000D01*
X126809523Y-44947619D01*
X126857142Y-45042857D01*
X126857142Y-45185714D01*
X126809523Y-45280952D01*
X126761904Y-45328571D01*
X126666666Y-45376190D01*
X126285714Y-45376190D01*
X127238095Y-44947619D02*
X127285714Y-44900000D01*
X127380952Y-44852380D01*
X127619047Y-44852380D01*
X127714285Y-44900000D01*
X127761904Y-44947619D01*
X127809523Y-45042857D01*
X127809523Y-45138095D01*
X127761904Y-45280952D01*
X127190476Y-45852380D01*
X127809523Y-45852380D01*
X128714285Y-44852380D02*
X128238095Y-44852380D01*
X128190476Y-45328571D01*
X128238095Y-45280952D01*
X128333333Y-45233333D01*
X128571428Y-45233333D01*
X128666666Y-45280952D01*
X128714285Y-45328571D01*
X128761904Y-45423809D01*
X128761904Y-45661904D01*
X128714285Y-45757142D01*
X128666666Y-45804761D01*
X128571428Y-45852380D01*
X128333333Y-45852380D01*
X128238095Y-45804761D01*
X128190476Y-45757142D01*
X133452380Y-59742857D02*
X132976190Y-60076190D01*
X133452380Y-60314285D02*
X132452380Y-60314285D01*
X132452380Y-59933333D01*
X132500000Y-59838095D01*
X132547619Y-59790476D01*
X132642857Y-59742857D01*
X132785714Y-59742857D01*
X132880952Y-59790476D01*
X132928571Y-59838095D01*
X132976190Y-59933333D01*
X132976190Y-60314285D01*
X132547619Y-59361904D02*
X132500000Y-59314285D01*
X132452380Y-59219047D01*
X132452380Y-58980952D01*
X132500000Y-58885714D01*
X132547619Y-58838095D01*
X132642857Y-58790476D01*
X132738095Y-58790476D01*
X132880952Y-58838095D01*
X133452380Y-59409523D01*
X133452380Y-58790476D01*
X132452380Y-57933333D02*
X132452380Y-58123809D01*
X132500000Y-58219047D01*
X132547619Y-58266666D01*
X132690476Y-58361904D01*
X132880952Y-58409523D01*
X133261904Y-58409523D01*
X133357142Y-58361904D01*
X133404761Y-58314285D01*
X133452380Y-58219047D01*
X133452380Y-58028571D01*
X133404761Y-57933333D01*
X133357142Y-57885714D01*
X133261904Y-57838095D01*
X133023809Y-57838095D01*
X132928571Y-57885714D01*
X132880952Y-57933333D01*
X132833333Y-58028571D01*
X132833333Y-58219047D01*
X132880952Y-58314285D01*
X132928571Y-58361904D01*
X133023809Y-58409523D01*
X131157142Y-45852380D02*
X130823809Y-45376190D01*
X130585714Y-45852380D02*
X130585714Y-44852380D01*
X130966666Y-44852380D01*
X131061904Y-44900000D01*
X131109523Y-44947619D01*
X131157142Y-45042857D01*
X131157142Y-45185714D01*
X131109523Y-45280952D01*
X131061904Y-45328571D01*
X130966666Y-45376190D01*
X130585714Y-45376190D01*
X131538095Y-44947619D02*
X131585714Y-44900000D01*
X131680952Y-44852380D01*
X131919047Y-44852380D01*
X132014285Y-44900000D01*
X132061904Y-44947619D01*
X132109523Y-45042857D01*
X132109523Y-45138095D01*
X132061904Y-45280952D01*
X131490476Y-45852380D01*
X132109523Y-45852380D01*
X132442857Y-44852380D02*
X133109523Y-44852380D01*
X132680952Y-45852380D01*
X135357142Y-45852380D02*
X135023809Y-45376190D01*
X134785714Y-45852380D02*
X134785714Y-44852380D01*
X135166666Y-44852380D01*
X135261904Y-44900000D01*
X135309523Y-44947619D01*
X135357142Y-45042857D01*
X135357142Y-45185714D01*
X135309523Y-45280952D01*
X135261904Y-45328571D01*
X135166666Y-45376190D01*
X134785714Y-45376190D01*
X135738095Y-44947619D02*
X135785714Y-44900000D01*
X135880952Y-44852380D01*
X136119047Y-44852380D01*
X136214285Y-44900000D01*
X136261904Y-44947619D01*
X136309523Y-45042857D01*
X136309523Y-45138095D01*
X136261904Y-45280952D01*
X135690476Y-45852380D01*
X136309523Y-45852380D01*
X136880952Y-45280952D02*
X136785714Y-45233333D01*
X136738095Y-45185714D01*
X136690476Y-45090476D01*
X136690476Y-45042857D01*
X136738095Y-44947619D01*
X136785714Y-44900000D01*
X136880952Y-44852380D01*
X137071428Y-44852380D01*
X137166666Y-44900000D01*
X137214285Y-44947619D01*
X137261904Y-45042857D01*
X137261904Y-45090476D01*
X137214285Y-45185714D01*
X137166666Y-45233333D01*
X137071428Y-45280952D01*
X136880952Y-45280952D01*
X136785714Y-45328571D01*
X136738095Y-45376190D01*
X136690476Y-45471428D01*
X136690476Y-45661904D01*
X136738095Y-45757142D01*
X136785714Y-45804761D01*
X136880952Y-45852380D01*
X137071428Y-45852380D01*
X137166666Y-45804761D01*
X137214285Y-45757142D01*
X137261904Y-45661904D01*
X137261904Y-45471428D01*
X137214285Y-45376190D01*
X137166666Y-45328571D01*
X137071428Y-45280952D01*
X139657142Y-45852380D02*
X139323809Y-45376190D01*
X139085714Y-45852380D02*
X139085714Y-44852380D01*
X139466666Y-44852380D01*
X139561904Y-44900000D01*
X139609523Y-44947619D01*
X139657142Y-45042857D01*
X139657142Y-45185714D01*
X139609523Y-45280952D01*
X139561904Y-45328571D01*
X139466666Y-45376190D01*
X139085714Y-45376190D01*
X139990476Y-44852380D02*
X140609523Y-44852380D01*
X140276190Y-45233333D01*
X140419047Y-45233333D01*
X140514285Y-45280952D01*
X140561904Y-45328571D01*
X140609523Y-45423809D01*
X140609523Y-45661904D01*
X140561904Y-45757142D01*
X140514285Y-45804761D01*
X140419047Y-45852380D01*
X140133333Y-45852380D01*
X140038095Y-45804761D01*
X139990476Y-45757142D01*
X141228571Y-44852380D02*
X141323809Y-44852380D01*
X141419047Y-44900000D01*
X141466666Y-44947619D01*
X141514285Y-45042857D01*
X141561904Y-45233333D01*
X141561904Y-45471428D01*
X141514285Y-45661904D01*
X141466666Y-45757142D01*
X141419047Y-45804761D01*
X141323809Y-45852380D01*
X141228571Y-45852380D01*
X141133333Y-45804761D01*
X141085714Y-45757142D01*
X141038095Y-45661904D01*
X140990476Y-45471428D01*
X140990476Y-45233333D01*
X141038095Y-45042857D01*
X141085714Y-44947619D01*
X141133333Y-44900000D01*
X141228571Y-44852380D01*
X123667142Y-64719380D02*
X123333809Y-64243190D01*
X123095714Y-64719380D02*
X123095714Y-63719380D01*
X123476666Y-63719380D01*
X123571904Y-63767000D01*
X123619523Y-63814619D01*
X123667142Y-63909857D01*
X123667142Y-64052714D01*
X123619523Y-64147952D01*
X123571904Y-64195571D01*
X123476666Y-64243190D01*
X123095714Y-64243190D01*
X124000476Y-63719380D02*
X124619523Y-63719380D01*
X124286190Y-64100333D01*
X124429047Y-64100333D01*
X124524285Y-64147952D01*
X124571904Y-64195571D01*
X124619523Y-64290809D01*
X124619523Y-64528904D01*
X124571904Y-64624142D01*
X124524285Y-64671761D01*
X124429047Y-64719380D01*
X124143333Y-64719380D01*
X124048095Y-64671761D01*
X124000476Y-64624142D01*
X125571904Y-64719380D02*
X125000476Y-64719380D01*
X125286190Y-64719380D02*
X125286190Y-63719380D01*
X125190952Y-63862238D01*
X125095714Y-63957476D01*
X125000476Y-64005095D01*
X116354980Y-73774057D02*
X115878790Y-74107390D01*
X116354980Y-74345485D02*
X115354980Y-74345485D01*
X115354980Y-73964533D01*
X115402600Y-73869295D01*
X115450219Y-73821676D01*
X115545457Y-73774057D01*
X115688314Y-73774057D01*
X115783552Y-73821676D01*
X115831171Y-73869295D01*
X115878790Y-73964533D01*
X115878790Y-74345485D01*
X115354980Y-73440723D02*
X115354980Y-72821676D01*
X115735933Y-73155009D01*
X115735933Y-73012152D01*
X115783552Y-72916914D01*
X115831171Y-72869295D01*
X115926409Y-72821676D01*
X116164504Y-72821676D01*
X116259742Y-72869295D01*
X116307361Y-72916914D01*
X116354980Y-73012152D01*
X116354980Y-73297866D01*
X116307361Y-73393104D01*
X116259742Y-73440723D01*
X115354980Y-72488342D02*
X115354980Y-71821676D01*
X116354980Y-72250247D01*
X122349380Y-73771757D02*
X121873190Y-74105090D01*
X122349380Y-74343185D02*
X121349380Y-74343185D01*
X121349380Y-73962233D01*
X121397000Y-73866995D01*
X121444619Y-73819376D01*
X121539857Y-73771757D01*
X121682714Y-73771757D01*
X121777952Y-73819376D01*
X121825571Y-73866995D01*
X121873190Y-73962233D01*
X121873190Y-74343185D01*
X121349380Y-73438423D02*
X121349380Y-72819376D01*
X121730333Y-73152709D01*
X121730333Y-73009852D01*
X121777952Y-72914614D01*
X121825571Y-72866995D01*
X121920809Y-72819376D01*
X122158904Y-72819376D01*
X122254142Y-72866995D01*
X122301761Y-72914614D01*
X122349380Y-73009852D01*
X122349380Y-73295566D01*
X122301761Y-73390804D01*
X122254142Y-73438423D01*
X121777952Y-72247947D02*
X121730333Y-72343185D01*
X121682714Y-72390804D01*
X121587476Y-72438423D01*
X121539857Y-72438423D01*
X121444619Y-72390804D01*
X121397000Y-72343185D01*
X121349380Y-72247947D01*
X121349380Y-72057471D01*
X121397000Y-71962233D01*
X121444619Y-71914614D01*
X121539857Y-71866995D01*
X121587476Y-71866995D01*
X121682714Y-71914614D01*
X121730333Y-71962233D01*
X121777952Y-72057471D01*
X121777952Y-72247947D01*
X121825571Y-72343185D01*
X121873190Y-72390804D01*
X121968428Y-72438423D01*
X122158904Y-72438423D01*
X122254142Y-72390804D01*
X122301761Y-72343185D01*
X122349380Y-72247947D01*
X122349380Y-72057471D01*
X122301761Y-71962233D01*
X122254142Y-71914614D01*
X122158904Y-71866995D01*
X121968428Y-71866995D01*
X121873190Y-71914614D01*
X121825571Y-71962233D01*
X121777952Y-72057471D01*
X118157642Y-71068380D02*
X117824309Y-70592190D01*
X117586214Y-71068380D02*
X117586214Y-70068380D01*
X117967166Y-70068380D01*
X118062404Y-70116000D01*
X118110023Y-70163619D01*
X118157642Y-70258857D01*
X118157642Y-70401714D01*
X118110023Y-70496952D01*
X118062404Y-70544571D01*
X117967166Y-70592190D01*
X117586214Y-70592190D01*
X118490976Y-70068380D02*
X119110023Y-70068380D01*
X118776690Y-70449333D01*
X118919547Y-70449333D01*
X119014785Y-70496952D01*
X119062404Y-70544571D01*
X119110023Y-70639809D01*
X119110023Y-70877904D01*
X119062404Y-70973142D01*
X119014785Y-71020761D01*
X118919547Y-71068380D01*
X118633833Y-71068380D01*
X118538595Y-71020761D01*
X118490976Y-70973142D01*
X119967166Y-70068380D02*
X119776690Y-70068380D01*
X119681452Y-70116000D01*
X119633833Y-70163619D01*
X119538595Y-70306476D01*
X119490976Y-70496952D01*
X119490976Y-70877904D01*
X119538595Y-70973142D01*
X119586214Y-71020761D01*
X119681452Y-71068380D01*
X119871928Y-71068380D01*
X119967166Y-71020761D01*
X120014785Y-70973142D01*
X120062404Y-70877904D01*
X120062404Y-70639809D01*
X120014785Y-70544571D01*
X119967166Y-70496952D01*
X119871928Y-70449333D01*
X119681452Y-70449333D01*
X119586214Y-70496952D01*
X119538595Y-70544571D01*
X119490976Y-70639809D01*
M02*
