M48
; DRILL file {KiCad 5.1.6-c6e7f7d~86~ubuntu18.04.1} date Thu Jun 11 10:02:00 2020
; FORMAT={-:-/ absolute / inch / decimal}
; #@! TF.CreationDate,2020-06-11T10:02:00+01:00
; #@! TF.GenerationSoftware,Kicad,Pcbnew,5.1.6-c6e7f7d~86~ubuntu18.04.1
FMAT,2
INCH
T1C0.0118
T2C0.0197
T3C0.0315
T4C0.0350
T5C0.0394
T6C0.0433
T7C0.0472
T8C0.0512
T9C0.0791
T10C0.0906
T11C0.1181
T12C0.1299
T13C0.0945
T14C0.0976
%
G90
G05
T1
X0.4141Y-1.2302
X0.7441Y-0.4752
X0.7441Y-0.6752
X0.8441Y-0.4752
X0.8441Y-0.6752
X0.8941Y-1.0752
X0.9441Y-0.4752
X0.9441Y-0.6752
X0.9941Y-0.9752
X1.0941Y-1.1752
X1.1941Y-1.0752
X1.3441Y-0.7752
X1.4441Y-0.7752
X1.5441Y-0.7752
X1.8141Y-0.4352
X2.9941Y-1.2752
X3.0941Y-1.1752
X3.1941Y-2.3252
X3.1991Y-1.8702
X3.2041Y-1.6952
X3.2141Y-2.1652
X3.2241Y-2.6152
X3.3041Y-3.3452
X3.3441Y-1.0752
X3.4041Y-1.4252
X3.4141Y-2.8752
X3.4191Y-2.6252
X3.4441Y-1.0752
X3.4641Y-2.4752
X3.4841Y-2.3752
X3.5441Y-1.0752
X3.5741Y-0.7652
X3.5741Y-2.3752
X3.5841Y-2.4452
X3.5941Y-1.2752
X3.6841Y-2.4552
X3.6941Y-1.9552
X3.7941Y-0.7652
X3.7941Y-1.0752
X3.8941Y-1.0752
X3.9441Y-1.3252
X4.0441Y-2.3642
X4.1441Y-1.9552
X4.2441Y-0.7752
X4.2941Y-3.5752
X4.3941Y-0.7752
X4.3941Y-3.5752
X4.4941Y-3.5752
X4.5081Y-1.2292
X4.5191Y-2.5792
X4.5441Y-0.7752
X4.5941Y-3.5752
X4.6691Y-2.6502
X4.6841Y-1.3052
X4.6941Y-3.5752
X4.7211Y-2.5112
X4.7941Y-3.5752
X4.8191Y-2.6502
X4.8191Y-2.9002
X4.8609Y-1.2283
X4.8941Y-3.5752
X4.9091Y-2.2852
X4.9141Y-2.1752
X4.9616Y-2.3452
X4.9941Y-3.5752
X5.0691Y-2.6502
X5.0691Y-2.7752
X5.0691Y-2.9002
X5.0941Y-3.5252
X5.1941Y-3.4252
X5.2941Y-3.3252
T2
X0.0551Y-1.498
X0.0984Y-0.0394
X0.0984Y-3.8976
X0.1614Y-1.7638
X0.1969Y-0.0394
X0.1969Y-3.8976
X0.2953Y-0.0394
X0.2953Y-3.8976
X0.3937Y-0.0394
X0.3937Y-3.8976
X0.4921Y-0.0394
X0.4921Y-3.8976
X0.5906Y-0.0394
X0.5906Y-3.8976
X0.689Y-0.0394
X0.689Y-3.8976
X0.8858Y-0.0394
X0.8858Y-3.8976
X0.9843Y-0.0394
X0.9843Y-3.8976
X1.0827Y-0.0394
X1.0827Y-3.8976
X1.1811Y-0.0394
X1.1811Y-3.8976
X1.2008Y-0.2126
X1.2795Y-0.0394
X1.2795Y-3.8976
X1.378Y-0.0394
X1.378Y-3.8976
X1.4764Y-0.0394
X1.4764Y-3.8976
X1.4836Y-3.558
X1.4876Y-1.4652
X1.4876Y-1.8926
X1.4876Y-2.3178
X1.4876Y-2.7273
X1.5748Y-0.0394
X1.5748Y-3.8976
X1.6341Y-3.0752
X1.6732Y-0.0394
X1.6732Y-3.8976
X1.7717Y-0.0394
X1.7717Y-3.8976
X1.8701Y-0.0394
X1.8701Y-3.8976
X1.9685Y-0.0394
X1.9685Y-3.8976
X1.9724Y-0.2126
X2.0669Y-0.0394
X2.0669Y-3.8976
X2.1135Y-1.8887
X2.1141Y-1.4652
X2.1175Y-2.2942
X2.1175Y-2.7233
X2.1175Y-3.1367
X2.1175Y-3.5619
X2.1654Y-0.0394
X2.1654Y-3.8976
X2.2638Y-0.0394
X2.2638Y-3.8976
X2.3622Y-0.0394
X2.3622Y-3.8976
X2.4134Y-0.7244
X2.4606Y-0.0394
X2.4606Y-3.8976
X2.5506Y-2.058
X2.5506Y-2.4753
X2.5506Y-2.8926
X2.5506Y-3.31
X2.5545Y-1.2233
X2.5545Y-1.6407
X2.5591Y-0.0394
X2.5591Y-3.8976
X2.6575Y-0.0394
X2.6575Y-3.8976
X2.7559Y-0.0394
X2.7559Y-3.8976
X2.7677Y-0.7047
X2.8075Y-0.3917
X2.8098Y-1.0031
X2.8543Y-0.0394
X2.8543Y-3.8976
X2.9016Y-0.7913
X2.9291Y-0.5512
X2.9528Y-0.0394
X2.9528Y-3.8976
X2.9567Y-1.0945
X3.0512Y-0.0394
X3.0512Y-3.8976
X3.1496Y-0.0394
X3.1496Y-3.8976
X3.1693Y-0.4173
X3.1791Y-0.7087
X3.185Y-0.9961
X3.248Y-0.0394
X3.248Y-3.8976
X3.311Y-0.563
X3.311Y-0.8386
X3.3386Y-0.248
X3.3465Y-0.0394
X3.3465Y-3.8976
X3.4449Y-0.0394
X3.4449Y-3.8976
X3.4685Y-0.9449
X3.4685Y-2.9488
X3.498Y-3.2421
X3.5433Y-0.0394
X3.5433Y-3.8976
X3.5748Y-3.4094
X3.6417Y-0.0394
X3.6417Y-3.8976
X3.6741Y-2.7812
X3.6969Y-2.5079
X3.7341Y-2.9632
X3.748Y-2.4843
X3.7874Y-2.4409
X3.9764Y-0.0394
X3.9764Y-3.8976
X4.0764Y-0.0394
X4.0764Y-3.8976
X4.1764Y-0.0394
X4.1764Y-3.8976
X4.2764Y-0.0394
X4.2764Y-3.8976
X4.3764Y-0.0394
X4.3764Y-3.8976
X4.4764Y-0.0394
X4.4764Y-3.8976
X4.5764Y-0.0394
X4.5764Y-3.8976
X4.6764Y-0.0394
X4.6764Y-3.8976
X4.7764Y-0.0394
X4.7764Y-3.8976
X4.7981Y-2.1662
X4.8764Y-0.0394
X4.8764Y-3.8976
X4.9724Y-0.8976
X4.9724Y-1.0551
X4.9764Y-0.0394
X4.9764Y-3.8976
X4.9961Y-1.437
X5.0291Y-2.0102
X5.0764Y-0.0394
X5.0764Y-3.8976
X5.1764Y-0.0394
X5.1764Y-3.8976
X5.1811Y-0.9606
X5.2241Y-2.8602
X5.2441Y-3.1252
X5.2756Y-1.7313
X5.3406Y-2.3858
X5.3465Y-1.0079
X5.4764Y-0.0394
X5.4764Y-3.8976
X5.563Y-1.2441
X5.5764Y-0.0394
X5.5764Y-3.8976
X5.6693Y-1.1417
X5.6693Y-1.2417
X5.6693Y-1.3417
X5.6764Y-0.0394
X5.6764Y-3.8976
X5.7441Y-2.5402
X5.7559Y-1.4016
X5.7717Y-0.2953
X5.7764Y-0.0394
X5.7764Y-3.8976
X5.7795Y-0.8268
X5.7941Y-2.4002
X5.8583Y-1.4764
T3
X4.2341Y-2.3152
X4.2341Y-2.5152
X4.2341Y-2.6152
X4.2341Y-2.7152
X4.4341Y-2.3152
X4.4341Y-2.5152
X4.4341Y-2.6152
X4.4341Y-2.7152
X5.6641Y-1.8952
X5.6641Y-1.9952
X4.2341Y-2.9852
X4.2341Y-3.1852
X4.2341Y-3.2852
X4.2341Y-3.3852
X4.4341Y-2.9852
X4.4341Y-3.1852
X4.4341Y-3.2852
X4.4341Y-3.3852
T4
X4.6941Y-2.9002
X4.9391Y-2.9002
X5.0551Y-2.4409
X5.5111Y-2.6883
X5.5111Y-3.7237
X5.5669Y-0.5236
X5.5669Y-0.5945
X5.5669Y-0.6654
X5.6614Y-0.5236
X5.6614Y-0.5945
X5.6614Y-0.6654
X5.6765Y-2.6883
X5.6765Y-3.7237
X0.5079Y-0.5827
X0.5079Y-0.6827
T5
X0.6241Y-2.2494
X0.6241Y-2.5494
X0.9241Y-2.2494
X0.9241Y-2.5494
X1.1241Y-2.2494
X1.1241Y-2.5494
X1.3241Y-2.2494
X1.3241Y-2.5494
X1.612Y-2.0525
X1.812Y-2.2509
X1.612Y-1.6352
X1.812Y-1.8336
X2.234Y-2.0525
X2.434Y-2.2509
X2.234Y-3.3044
X2.434Y-3.5029
X2.7041Y-3.1752
X2.7041Y-3.4752
X2.9041Y-3.1752
X2.9041Y-3.4752
X3.1041Y-3.1752
X3.1041Y-3.4752
X3.4041Y-3.1752
X3.4041Y-3.4752
X1.612Y-2.4698
X1.812Y-2.6682
X1.612Y-2.8871
X1.812Y-3.0856
X0.2591Y-1.5945
X0.2591Y-1.6945
X0.2591Y-1.7945
X0.2591Y-1.8945
X0.2591Y-1.9945
X0.2591Y-2.0945
X4.2341Y-1.4152
X4.2341Y-1.6152
X4.2341Y-1.8152
X4.2341Y-2.1152
X4.5341Y-1.4152
X4.5341Y-1.6152
X4.5341Y-1.8152
X4.5341Y-2.1152
X0.6241Y-1.3236
X0.6241Y-1.6236
X0.9241Y-1.3236
X0.9241Y-1.6236
X1.1241Y-1.3236
X1.1241Y-1.6236
X1.3241Y-1.3236
X1.3241Y-1.6236
X2.234Y-1.2178
X2.434Y-1.4163
X5.4685Y-0.374
X5.4685Y-0.5709
X2.234Y-2.4698
X2.434Y-2.6682
X1.612Y-3.3044
X1.812Y-3.5029
X2.7041Y-2.2494
X2.7041Y-2.5494
X2.9041Y-2.2494
X2.9041Y-2.5494
X3.1041Y-2.2494
X3.1041Y-2.5494
X3.4041Y-2.2494
X3.4041Y-2.5494
X0.1654Y-2.8307
X0.1654Y-2.9291
X0.6241Y-2.7123
X0.6241Y-3.0123
X0.9241Y-2.7123
X0.9241Y-3.0123
X1.1241Y-2.7123
X1.1241Y-3.0123
X1.3241Y-2.7123
X1.3241Y-3.0123
X0.6241Y-3.1752
X0.6241Y-3.4752
X0.9241Y-3.1752
X0.9241Y-3.4752
X1.1241Y-3.1752
X1.1241Y-3.4752
X1.3241Y-3.1752
X1.3241Y-3.4752
X3.8858Y-0.3724
X3.8858Y-0.4724
X3.8858Y-0.5724
X2.7041Y-1.3236
X2.7041Y-1.6236
X2.9041Y-1.3236
X2.9041Y-1.6236
X3.1041Y-1.3236
X3.1041Y-1.6236
X3.4041Y-1.3236
X3.4041Y-1.6236
X2.234Y-2.8871
X2.434Y-3.0856
X0.6241Y-1.7865
X0.6241Y-2.0865
X0.9241Y-1.7865
X0.9241Y-2.0865
X1.1241Y-1.7865
X1.1241Y-2.0865
X1.3241Y-1.7865
X1.3241Y-2.0865
X2.234Y-1.6352
X2.434Y-1.8336
X1.612Y-1.2178
X1.812Y-1.4163
X2.7041Y-2.7123
X2.7041Y-3.0123
X2.9041Y-2.7123
X2.9041Y-3.0123
X3.1041Y-2.7123
X3.1041Y-3.0123
X3.4041Y-2.7123
X3.4041Y-3.0123
X3.8858Y-1.6728
X3.8858Y-1.7728
X3.8858Y-1.8728
X3.8858Y-1.9728
X3.8858Y-2.0728
X3.8858Y-2.1728
X3.8858Y-2.2728
X3.8858Y-2.3728
X3.8858Y-2.4728
X3.8858Y-2.5728
X3.8858Y-2.6728
X3.8858Y-2.7728
X3.8858Y-2.8728
X3.8858Y-2.9728
X3.8858Y-3.0728
X3.8858Y-3.1728
X3.8858Y-3.2728
X3.8858Y-3.3728
X3.8858Y-3.4728
X3.8858Y-3.5728
X2.7041Y-1.7865
X2.7041Y-2.0865
X2.9041Y-1.7865
X2.9041Y-2.0865
X3.1041Y-1.7865
X3.1041Y-2.0865
X3.4041Y-1.7865
X3.4041Y-2.0865
T6
X5.7795Y-0.9654
X5.7795Y-1.0654
X5.7795Y-1.1654
X5.7795Y-1.8472
X5.7795Y-1.9472
X5.7795Y-2.0472
T7
X1.185Y-0.6654
X1.185Y-0.9449
X1.2402Y-0.5433
X1.4843Y-0.3937
X3.5433Y-0.4961
X3.6811Y-0.4961
X1.9724Y-0.6654
X1.9724Y-0.9449
X2.0276Y-0.5433
X2.2717Y-0.3937
T8
X4.126Y-0.5197
X4.3228Y-0.5197
T9
X0.3079Y-0.3827
X0.3079Y-0.7827
T10
X0.3937Y-3.4646
T11
X0.2165Y-3.4646
T12
X0.7874Y-3.8189
X3.8189Y-0.1181
X3.8189Y-3.8189
X5.3543Y-0.1181
X5.315Y-3.8189
X0.7874Y-0.1181
T13
X0.0925Y-3.2972
T14
X0.0925Y-3.6319
T0
M30
