G04 #@! TF.GenerationSoftware,KiCad,Pcbnew,(5.1.5)-3*
G04 #@! TF.CreationDate,2020-01-13T11:56:00+01:00*
G04 #@! TF.ProjectId,HL2_MRF101,484c325f-4d52-4463-9130-312e6b696361,2.0-build8*
G04 #@! TF.SameCoordinates,PX42c1d80PY2625a00*
G04 #@! TF.FileFunction,Copper,L2,Inr*
G04 #@! TF.FilePolarity,Positive*
%FSLAX46Y46*%
G04 Gerber Fmt 4.6, Leading zero omitted, Abs format (unit mm)*
G04 Created by KiCad (PCBNEW (5.1.5)-3) date 2020-01-13 11:56:00*
%MOMM*%
%LPD*%
G04 APERTURE LIST*
%ADD10C,5.300000*%
%ADD11R,2.600000X2.600000*%
%ADD12C,2.600000*%
%ADD13C,2.400000*%
%ADD14R,2.400000X2.400000*%
%ADD15O,1.700000X1.700000*%
%ADD16R,1.700000X1.700000*%
%ADD17O,2.500000X1.600000*%
%ADD18O,7.000000X3.500000*%
%ADD19C,1.850000*%
%ADD20R,2.000000X2.000000*%
%ADD21C,2.000000*%
%ADD22R,1.600000X1.600000*%
%ADD23O,1.600000X1.600000*%
%ADD24R,5.200000X4.400000*%
%ADD25R,5.200000X1.600000*%
%ADD26C,3.500000*%
%ADD27C,4.200000*%
%ADD28R,2.000000X1.905000*%
%ADD29O,2.000000X1.905000*%
%ADD30O,2.000000X1.700000*%
%ADD31C,0.100000*%
%ADD32C,0.800000*%
%ADD33C,1.300000*%
%ADD34C,0.603000*%
%ADD35C,1.600000*%
%ADD36C,1.000000*%
%ADD37C,0.500000*%
%ADD38C,0.350000*%
%ADD39C,0.254000*%
G04 APERTURE END LIST*
D10*
X135000000Y-97000000D03*
X135000000Y-3000000D03*
X20000000Y-97000000D03*
X97000000Y-97000000D03*
X97000000Y-3000000D03*
X20000000Y-3000000D03*
D11*
X105500000Y-21600000D03*
D12*
X105500000Y-26600000D03*
D13*
X92600000Y-13500000D03*
D14*
X92600000Y-10000000D03*
D15*
X98700000Y-42490000D03*
X98700000Y-45030000D03*
X98700000Y-47570000D03*
X98700000Y-50110000D03*
X98700000Y-52650000D03*
X98700000Y-55190000D03*
X98700000Y-57730000D03*
X98700000Y-60270000D03*
X98700000Y-62810000D03*
X98700000Y-65350000D03*
X98700000Y-67890000D03*
X98700000Y-70430000D03*
X98700000Y-72970000D03*
X98700000Y-75510000D03*
X98700000Y-78050000D03*
X98700000Y-80590000D03*
X98700000Y-83130000D03*
X98700000Y-85670000D03*
X98700000Y-88210000D03*
D16*
X98700000Y-90750000D03*
D13*
X51000000Y-24000000D03*
X51000000Y-16900000D03*
X58600000Y-10000000D03*
X52400000Y-13800000D03*
X31000000Y-24000000D03*
X31000000Y-16900000D03*
X38600000Y-10000000D03*
X32400000Y-13800000D03*
D17*
X12900000Y-17340000D03*
X12900000Y-14800000D03*
D18*
X7820000Y-9720000D03*
X7820000Y-19880000D03*
D19*
X82380000Y-40940000D03*
X77300000Y-40940000D03*
X74760000Y-40940000D03*
X72220000Y-40940000D03*
X72220000Y-35860000D03*
X74760000Y-35860000D03*
X77300000Y-35860000D03*
X82380000Y-35860000D03*
X82380000Y-50940000D03*
X77300000Y-50940000D03*
X74760000Y-50940000D03*
X72220000Y-50940000D03*
X72220000Y-45860000D03*
X74760000Y-45860000D03*
X77300000Y-45860000D03*
X82380000Y-45860000D03*
X82380000Y-60940000D03*
X77300000Y-60940000D03*
X74760000Y-60940000D03*
X72220000Y-60940000D03*
X72220000Y-55860000D03*
X74760000Y-55860000D03*
X77300000Y-55860000D03*
X82380000Y-55860000D03*
X82480000Y-70840000D03*
X77400000Y-70840000D03*
X74860000Y-70840000D03*
X72320000Y-70840000D03*
X72320000Y-65760000D03*
X74860000Y-65760000D03*
X77400000Y-65760000D03*
X82480000Y-65760000D03*
X82480000Y-80940000D03*
X77400000Y-80940000D03*
X74860000Y-80940000D03*
X72320000Y-80940000D03*
X72320000Y-75860000D03*
X74860000Y-75860000D03*
X77400000Y-75860000D03*
X82480000Y-75860000D03*
X23320000Y-35860000D03*
X28400000Y-35860000D03*
X30940000Y-35860000D03*
X33480000Y-35860000D03*
X33480000Y-40940000D03*
X30940000Y-40940000D03*
X28400000Y-40940000D03*
X23320000Y-40940000D03*
X23420000Y-45860000D03*
X28500000Y-45860000D03*
X31040000Y-45860000D03*
X33580000Y-45860000D03*
X33580000Y-50940000D03*
X31040000Y-50940000D03*
X28500000Y-50940000D03*
X23420000Y-50940000D03*
X23320000Y-55860000D03*
X28400000Y-55860000D03*
X30940000Y-55860000D03*
X33480000Y-55860000D03*
X33480000Y-60940000D03*
X30940000Y-60940000D03*
X28400000Y-60940000D03*
X23320000Y-60940000D03*
X23220000Y-65860000D03*
X28300000Y-65860000D03*
X30840000Y-65860000D03*
X33380000Y-65860000D03*
X33380000Y-70940000D03*
X30840000Y-70940000D03*
X28300000Y-70940000D03*
X23220000Y-70940000D03*
X23220000Y-75860000D03*
X28300000Y-75860000D03*
X30840000Y-75860000D03*
X33380000Y-75860000D03*
X33380000Y-80940000D03*
X30840000Y-80940000D03*
X28300000Y-80940000D03*
X23220000Y-80940000D03*
X112640000Y-80620000D03*
X112640000Y-85700000D03*
X112640000Y-88240000D03*
X112640000Y-90780000D03*
X107560000Y-90780000D03*
X107560000Y-88240000D03*
X107560000Y-85700000D03*
X107560000Y-80620000D03*
X107560000Y-73920000D03*
X107560000Y-68840000D03*
X107560000Y-66300000D03*
X107560000Y-63760000D03*
X112640000Y-63760000D03*
X112640000Y-66300000D03*
X112640000Y-68840000D03*
X112640000Y-73920000D03*
X125540000Y-80620000D03*
X125540000Y-85700000D03*
X125540000Y-88240000D03*
X125540000Y-90780000D03*
X120460000Y-90780000D03*
X120460000Y-88240000D03*
X120460000Y-85700000D03*
X120460000Y-80620000D03*
X57760000Y-31060000D03*
X62840000Y-36100000D03*
X62840000Y-46100000D03*
X57760000Y-41060000D03*
X62840000Y-56100000D03*
X57760000Y-51060000D03*
X57760000Y-61060000D03*
X62840000Y-66100000D03*
X57760000Y-71060000D03*
X62840000Y-76100000D03*
X57760000Y-81060000D03*
X62840000Y-86100000D03*
X42860000Y-31060000D03*
X47940000Y-36100000D03*
X47940000Y-46100000D03*
X42860000Y-41060000D03*
X42860000Y-51060000D03*
X47940000Y-56100000D03*
X42860000Y-61060000D03*
X47940000Y-66100000D03*
X42860000Y-71060000D03*
X47940000Y-76100000D03*
X42860000Y-81060000D03*
X47940000Y-86100000D03*
D20*
X120500000Y-14400000D03*
D21*
X120500000Y-9400000D03*
D22*
X143600000Y-42400000D03*
D23*
X143600000Y-34780000D03*
D24*
X5000000Y-71800000D03*
X5000000Y-64200000D03*
D25*
X5000000Y-68000000D03*
X5000000Y-45000000D03*
D24*
X5000000Y-41200000D03*
X5000000Y-48800000D03*
D26*
X10000000Y-88000000D03*
D27*
X5500000Y-88000000D03*
D28*
X146800000Y-41200000D03*
D29*
X146800000Y-38660000D03*
X146800000Y-36120000D03*
D30*
X145700000Y-63800000D03*
G04 #@! TA.AperFunction,ViaPad*
D31*
G36*
X146474504Y-60451204D02*
G01*
X146498773Y-60454804D01*
X146522571Y-60460765D01*
X146545671Y-60469030D01*
X146567849Y-60479520D01*
X146588893Y-60492133D01*
X146608598Y-60506747D01*
X146626777Y-60523223D01*
X146643253Y-60541402D01*
X146657867Y-60561107D01*
X146670480Y-60582151D01*
X146680970Y-60604329D01*
X146689235Y-60627429D01*
X146695196Y-60651227D01*
X146698796Y-60675496D01*
X146700000Y-60700000D01*
X146700000Y-61900000D01*
X146698796Y-61924504D01*
X146695196Y-61948773D01*
X146689235Y-61972571D01*
X146680970Y-61995671D01*
X146670480Y-62017849D01*
X146657867Y-62038893D01*
X146643253Y-62058598D01*
X146626777Y-62076777D01*
X146608598Y-62093253D01*
X146588893Y-62107867D01*
X146567849Y-62120480D01*
X146545671Y-62130970D01*
X146522571Y-62139235D01*
X146498773Y-62145196D01*
X146474504Y-62148796D01*
X146450000Y-62150000D01*
X144950000Y-62150000D01*
X144925496Y-62148796D01*
X144901227Y-62145196D01*
X144877429Y-62139235D01*
X144854329Y-62130970D01*
X144832151Y-62120480D01*
X144811107Y-62107867D01*
X144791402Y-62093253D01*
X144773223Y-62076777D01*
X144756747Y-62058598D01*
X144742133Y-62038893D01*
X144729520Y-62017849D01*
X144719030Y-61995671D01*
X144710765Y-61972571D01*
X144704804Y-61948773D01*
X144701204Y-61924504D01*
X144700000Y-61900000D01*
X144700000Y-60700000D01*
X144701204Y-60675496D01*
X144704804Y-60651227D01*
X144710765Y-60627429D01*
X144719030Y-60604329D01*
X144729520Y-60582151D01*
X144742133Y-60561107D01*
X144756747Y-60541402D01*
X144773223Y-60523223D01*
X144791402Y-60506747D01*
X144811107Y-60492133D01*
X144832151Y-60479520D01*
X144854329Y-60469030D01*
X144877429Y-60460765D01*
X144901227Y-60454804D01*
X144925496Y-60451204D01*
X144950000Y-60450000D01*
X146450000Y-60450000D01*
X146474504Y-60451204D01*
G37*
G04 #@! TD.AperFunction*
D28*
X146800000Y-52000000D03*
D29*
X146800000Y-49460000D03*
X146800000Y-46920000D03*
D16*
X98700000Y-9460000D03*
D15*
X98700000Y-12000000D03*
X98700000Y-14540000D03*
D32*
X75100000Y-20100000D03*
D33*
X92000000Y-57700000D03*
D32*
X86800000Y-68000000D03*
D33*
X86200000Y-91000000D03*
X95500000Y-91000000D03*
D32*
X129900000Y-82500000D03*
X146700000Y-82500000D03*
X17500000Y-99000000D03*
X37500000Y-99000000D03*
X47500000Y-99000000D03*
X52500000Y-99000000D03*
X55000000Y-99000000D03*
X57500000Y-99000000D03*
X60000000Y-99000000D03*
X62500000Y-99000000D03*
X65000000Y-99000000D03*
X67500000Y-99000000D03*
X2500000Y-99000000D03*
X5000000Y-99000000D03*
X7500000Y-99000000D03*
X10000000Y-99000000D03*
X15000000Y-99000000D03*
X40000000Y-99000000D03*
X42500000Y-99000000D03*
X45000000Y-99000000D03*
X50000000Y-99000000D03*
X12500000Y-99000000D03*
X32500000Y-99000000D03*
X75000000Y-99000000D03*
X22500000Y-99000000D03*
X25000000Y-99000000D03*
X87500000Y-99000000D03*
X72500000Y-99000000D03*
X70000000Y-99000000D03*
X82500000Y-99000000D03*
X92500000Y-99000000D03*
X35000000Y-99000000D03*
X27500000Y-99000000D03*
X77500000Y-99000000D03*
X85000000Y-99000000D03*
X80000000Y-99000000D03*
X30000000Y-99000000D03*
X90000000Y-99000000D03*
X101000000Y-1000000D03*
X103540000Y-1000000D03*
X106080000Y-1000000D03*
X108620000Y-1000000D03*
X111160000Y-1000000D03*
X113700000Y-1000000D03*
X116240000Y-1000000D03*
X118780000Y-1000000D03*
X121320000Y-1000000D03*
X123860000Y-1000000D03*
X126400000Y-1000000D03*
X128940000Y-1000000D03*
X131480000Y-1000000D03*
X144180000Y-1000000D03*
X146720000Y-1000000D03*
X101000000Y-99000000D03*
X103540000Y-99000000D03*
X106080000Y-99000000D03*
X108620000Y-99000000D03*
X111160000Y-99000000D03*
X113700000Y-99000000D03*
X116240000Y-99000000D03*
X118780000Y-99000000D03*
X121320000Y-99000000D03*
X123860000Y-99000000D03*
X126400000Y-99000000D03*
X128940000Y-99000000D03*
X131480000Y-99000000D03*
X139100000Y-99000000D03*
X141640000Y-99000000D03*
X144180000Y-99000000D03*
X146720000Y-99000000D03*
D33*
X135500000Y-13250000D03*
X135500000Y-15500000D03*
X135500000Y-17750000D03*
X141250000Y-13000000D03*
X132000000Y-65250000D03*
D32*
X72500000Y-1000000D03*
X80000000Y-1000000D03*
X85000000Y-1000000D03*
X77500000Y-1000000D03*
X30000000Y-1000000D03*
X22500000Y-1000000D03*
X82500000Y-1000000D03*
X90000000Y-1000000D03*
X32500000Y-1000000D03*
X70000000Y-1000000D03*
X92500000Y-1000000D03*
X65000000Y-1000000D03*
X35000000Y-1000000D03*
X27500000Y-1000000D03*
X87500000Y-1000000D03*
X75000000Y-1000000D03*
X25000000Y-1000000D03*
X67500000Y-1000000D03*
X37500000Y-1000000D03*
X62500000Y-1000000D03*
X50000000Y-1000000D03*
X17500000Y-1000000D03*
X7500000Y-1000000D03*
X60000000Y-1000000D03*
X57500000Y-1000000D03*
X55000000Y-1000000D03*
X12500000Y-1000000D03*
X52500000Y-1000000D03*
X15000000Y-1000000D03*
X47500000Y-1000000D03*
X45000000Y-1000000D03*
X42500000Y-1000000D03*
X40000000Y-1000000D03*
X2500000Y-1000000D03*
X5000000Y-1000000D03*
X10000000Y-1000000D03*
X80750000Y-18000000D03*
D33*
X9600000Y-42600000D03*
X9400000Y-47600000D03*
X9400000Y-65600000D03*
X9400000Y-70600000D03*
D32*
X86900000Y-73900000D03*
X94700000Y-53100000D03*
D33*
X118200000Y-69500000D03*
X118200000Y-73700000D03*
X144500000Y-69500000D03*
X144500000Y-72700000D03*
X131000000Y-91000000D03*
D32*
X18000000Y-39100000D03*
X18000000Y-41640000D03*
X18000000Y-44180000D03*
X18000000Y-46720000D03*
X18000000Y-49260000D03*
X18000000Y-51800000D03*
X18000000Y-54340000D03*
X18000000Y-56880000D03*
X18000000Y-59420000D03*
X18000000Y-61960000D03*
X18000000Y-64500000D03*
X18000000Y-67040000D03*
X18000000Y-69580000D03*
X18000000Y-72120000D03*
X18000000Y-74660000D03*
X18000000Y-77200000D03*
X18000000Y-79740000D03*
X30000000Y-92400000D03*
X32500000Y-92400000D03*
X35000000Y-92400000D03*
X37500000Y-92400000D03*
X40000000Y-92400000D03*
X42500000Y-92400000D03*
X45000000Y-92400000D03*
X47500000Y-92400000D03*
X50000000Y-92400000D03*
X52500000Y-92400000D03*
X55000000Y-92400000D03*
X57500000Y-92400000D03*
X60000000Y-92400000D03*
X62500000Y-92400000D03*
X65000000Y-92400000D03*
X67500000Y-92400000D03*
X70000000Y-92400000D03*
X72500000Y-92400000D03*
X75000000Y-92400000D03*
X77500000Y-92400000D03*
X80000000Y-92400000D03*
X82500000Y-92400000D03*
X85000000Y-92400000D03*
X18700000Y-82700000D03*
X20300000Y-84400000D03*
X21800000Y-85900000D03*
X23400000Y-87400000D03*
X25200000Y-89000000D03*
X27300000Y-91000000D03*
X15500000Y-39100000D03*
X13000000Y-39100000D03*
X10500000Y-39100000D03*
X88000000Y-89600000D03*
X88000000Y-87300000D03*
X74400000Y-14000000D03*
X73700000Y-20100000D03*
X61300000Y-18400000D03*
X70300000Y-17900000D03*
X71370000Y-25480000D03*
X80500000Y-10600000D03*
X80900000Y-25300000D03*
X86100000Y-22800000D03*
X91400000Y-46300000D03*
X91000000Y-63400000D03*
X81600000Y-83700000D03*
X105600000Y-76700000D03*
X138900000Y-63800000D03*
X111400000Y-57300000D03*
X146600000Y-28700000D03*
X141700000Y-32600000D03*
X141640000Y-1000000D03*
X139100000Y-1000000D03*
X71310000Y-9950000D03*
D33*
X142200000Y-91000000D03*
D32*
X146800000Y-88800000D03*
X147600000Y-62600000D03*
X146800000Y-91400000D03*
X135800000Y-22800000D03*
X128600000Y-23600000D03*
D33*
X141000000Y-27000000D03*
X132000000Y-63500000D03*
X146000000Y-17750000D03*
D32*
X92800000Y-64500000D03*
D33*
X146000000Y-26000000D03*
D34*
X95200000Y-63100000D03*
X96200000Y-62000000D03*
D35*
X126500000Y-77500000D03*
D32*
X84100000Y-21300000D03*
X84100000Y-14300000D03*
D33*
X129000000Y-13400000D03*
X126600000Y-13400000D03*
X126600000Y-15200000D03*
X129000000Y-15200000D03*
X126600000Y-17000000D03*
X129000000Y-17000000D03*
D32*
X132300000Y-26200000D03*
X109600000Y-51600000D03*
X109400000Y-37900000D03*
X118100000Y-91000000D03*
X114600000Y-77900000D03*
D36*
X23220000Y-80940000D02*
X21740000Y-80940000D01*
X21740000Y-80940000D02*
X21000000Y-80200000D01*
X21060000Y-40940000D02*
X23320000Y-40940000D01*
X21000000Y-41000000D02*
X21060000Y-40940000D01*
X21000000Y-51200000D02*
X21260000Y-50940000D01*
X21260000Y-50940000D02*
X23420000Y-50940000D01*
X21000000Y-51200000D02*
X21000000Y-41000000D01*
X21060000Y-60940000D02*
X23320000Y-60940000D01*
X21000000Y-61000000D02*
X21060000Y-60940000D01*
X21000000Y-61000000D02*
X21000000Y-51200000D01*
X21140000Y-70940000D02*
X23220000Y-70940000D01*
X21000000Y-70800000D02*
X21140000Y-70940000D01*
X21000000Y-80200000D02*
X21000000Y-70800000D01*
X21000000Y-70800000D02*
X21000000Y-61000000D01*
X84860000Y-35860000D02*
X82380000Y-35860000D01*
X85000000Y-36000000D02*
X84860000Y-35860000D01*
X84940000Y-45860000D02*
X82380000Y-45860000D01*
X85000000Y-45800000D02*
X84940000Y-45860000D01*
X85000000Y-45800000D02*
X85000000Y-36000000D01*
X85000000Y-56000000D02*
X84860000Y-55860000D01*
X84860000Y-55860000D02*
X82380000Y-55860000D01*
X85000000Y-56000000D02*
X85000000Y-45800000D01*
X84960000Y-65760000D02*
X82480000Y-65760000D01*
X85000000Y-65800000D02*
X84960000Y-65760000D01*
X23000000Y-27800000D02*
X21000000Y-29800000D01*
X85000000Y-36000000D02*
X85000000Y-29800000D01*
X21000000Y-29800000D02*
X21000000Y-41000000D01*
X85000000Y-29800000D02*
X83000000Y-27800000D01*
X107560000Y-79000000D02*
X112640000Y-73920000D01*
X107560000Y-80620000D02*
X107560000Y-79000000D01*
D37*
X75100000Y-27800000D02*
X75100000Y-20100000D01*
D36*
X83000000Y-27800000D02*
X75100000Y-27800000D01*
X75100000Y-27800000D02*
X23000000Y-27800000D01*
X85000000Y-57700000D02*
X92000000Y-57700000D01*
X85000000Y-65800000D02*
X85000000Y-57700000D01*
X85000000Y-57700000D02*
X85000000Y-56000000D01*
D38*
X85000000Y-67900000D02*
X85100000Y-68000000D01*
D36*
X85000000Y-74648147D02*
X85000000Y-67900000D01*
D38*
X85100000Y-68000000D02*
X86800000Y-68000000D01*
D36*
X85000000Y-67900000D02*
X85000000Y-65800000D01*
X84660000Y-75860000D02*
X82480000Y-75860000D01*
X85000000Y-76200000D02*
X84660000Y-75860000D01*
X85000000Y-74648147D02*
X85000000Y-76200000D01*
X85000000Y-76200000D02*
X85000000Y-86300000D01*
X85000000Y-88880762D02*
X85000000Y-86300000D01*
X86200000Y-90080762D02*
X85000000Y-88880762D01*
X86200000Y-91000000D02*
X86200000Y-90080762D01*
D37*
X120460000Y-80620000D02*
X122340000Y-82500000D01*
X122340000Y-82500000D02*
X129900000Y-82500000D01*
X129900000Y-82500000D02*
X146700000Y-82500000D01*
D36*
X122800000Y-82960000D02*
X120460000Y-80620000D01*
X122800000Y-92200000D02*
X122800000Y-82960000D01*
X121500000Y-93500000D02*
X122800000Y-92200000D01*
X95500000Y-91000000D02*
X98000000Y-93500000D01*
X106251853Y-80620000D02*
X107560000Y-80620000D01*
X104000000Y-82871853D02*
X106251853Y-80620000D01*
X104000000Y-93500000D02*
X104000000Y-82871853D01*
X104000000Y-93500000D02*
X121500000Y-93500000D01*
X98000000Y-93500000D02*
X104000000Y-93500000D01*
D37*
X24901853Y-38750000D02*
X80190000Y-38750000D01*
X80190000Y-38750000D02*
X82380000Y-40940000D01*
X23320000Y-35860000D02*
X23320000Y-37168147D01*
X23320000Y-37168147D02*
X24901853Y-38750000D01*
X23420000Y-47168147D02*
X23420000Y-45860000D01*
X25001853Y-48750000D02*
X23420000Y-47168147D01*
X82380000Y-50940000D02*
X80190000Y-48750000D01*
X80190000Y-48750000D02*
X25001853Y-48750000D01*
X23320000Y-55860000D02*
X26210000Y-58750000D01*
X80190000Y-58750000D02*
X26210000Y-58750000D01*
X82380000Y-60940000D02*
X80190000Y-58750000D01*
X23220000Y-65860000D02*
X26110000Y-68750000D01*
X80390000Y-68750000D02*
X55250000Y-68750000D01*
X82480000Y-70840000D02*
X80390000Y-68750000D01*
X26110000Y-68750000D02*
X55250000Y-68750000D01*
X55250000Y-68750000D02*
X55750000Y-68750000D01*
X23220000Y-75860000D02*
X26110000Y-78750000D01*
X80290000Y-78750000D02*
X76500000Y-78750000D01*
X82480000Y-80940000D02*
X80290000Y-78750000D01*
X26110000Y-78750000D02*
X76500000Y-78750000D01*
X76500000Y-78750000D02*
X77250000Y-78750000D01*
D38*
X97200000Y-54150000D02*
X98700000Y-52650000D01*
X97200000Y-62600000D02*
X97200000Y-54150000D01*
X96700000Y-63100000D02*
X97200000Y-62600000D01*
X95200000Y-63100000D02*
X96700000Y-63100000D01*
X96200000Y-52610000D02*
X98700000Y-50110000D01*
X96200000Y-62000000D02*
X96200000Y-52610000D01*
D36*
X101000000Y-12000000D02*
X98700000Y-12000000D01*
X101200000Y-8200000D02*
X101200000Y-11800000D01*
X146600000Y-52000000D02*
X148200000Y-52000000D01*
X145400000Y-6800000D02*
X102600000Y-6800000D01*
X101200000Y-11800000D02*
X101000000Y-12000000D01*
X102600000Y-6800000D02*
X101200000Y-8200000D01*
X148200000Y-52000000D02*
X148800000Y-51400000D01*
X148800000Y-51400000D02*
X148800000Y-10200000D01*
X148800000Y-10200000D02*
X145400000Y-6800000D01*
D38*
X97400000Y-64100000D02*
X97000000Y-64500000D01*
X100600000Y-64100000D02*
X97400000Y-64100000D01*
X97000000Y-64500000D02*
X92800000Y-64500000D01*
X103800000Y-69900000D02*
X103800000Y-67300000D01*
X105500000Y-71600000D02*
X103800000Y-69900000D01*
X125540000Y-80620000D02*
X126848147Y-80620000D01*
X126848147Y-80620000D02*
X127900000Y-79568147D01*
X103800000Y-67300000D02*
X100600000Y-64100000D01*
X127900000Y-79568147D02*
X127900000Y-73300000D01*
X127900000Y-73300000D02*
X126200000Y-71600000D01*
X126200000Y-71600000D02*
X105500000Y-71600000D01*
D39*
G36*
X3737573Y-19381997D02*
G01*
X3847375Y-19753000D01*
X7693000Y-19753000D01*
X7693000Y-19733000D01*
X7947000Y-19733000D01*
X7947000Y-19753000D01*
X11792625Y-19753000D01*
X11902427Y-19381997D01*
X11887562Y-19327000D01*
X19172797Y-19327000D01*
X19073000Y-81899797D01*
X19075401Y-81924578D01*
X19082590Y-81948414D01*
X19094291Y-81970389D01*
X19110197Y-81989803D01*
X29210197Y-92089803D01*
X29229443Y-92105597D01*
X29251399Y-92117333D01*
X29275224Y-92124560D01*
X29300000Y-92127000D01*
X85588135Y-92127000D01*
X85595114Y-92131663D01*
X85827513Y-92227926D01*
X86074226Y-92277000D01*
X86325774Y-92277000D01*
X86572487Y-92227926D01*
X86804886Y-92131663D01*
X86811865Y-92127000D01*
X87600000Y-92127000D01*
X87624776Y-92124560D01*
X87648601Y-92117333D01*
X87670557Y-92105597D01*
X87689803Y-92089803D01*
X87705597Y-92070557D01*
X87717333Y-92048601D01*
X87724560Y-92024776D01*
X87727000Y-92000000D01*
X87727000Y-68445703D01*
X87787533Y-68299565D01*
X87827000Y-68101151D01*
X87827000Y-67898849D01*
X87787533Y-67700435D01*
X87727000Y-67554297D01*
X87727000Y-66127000D01*
X96873000Y-66127000D01*
X96873000Y-90779181D01*
X96729564Y-90635745D01*
X96727926Y-90627513D01*
X96631663Y-90395114D01*
X96491911Y-90185960D01*
X96314040Y-90008089D01*
X96104886Y-89868337D01*
X95872487Y-89772074D01*
X95625774Y-89723000D01*
X95374226Y-89723000D01*
X95127513Y-89772074D01*
X94895114Y-89868337D01*
X94685960Y-90008089D01*
X94508089Y-90185960D01*
X94368337Y-90395114D01*
X94272074Y-90627513D01*
X94223000Y-90874226D01*
X94223000Y-91125774D01*
X94272074Y-91372487D01*
X94368337Y-91604886D01*
X94508089Y-91814040D01*
X94685960Y-91991911D01*
X94895114Y-92131663D01*
X95127513Y-92227926D01*
X95135745Y-92229564D01*
X96873000Y-93966819D01*
X96873000Y-99298000D01*
X702000Y-99298000D01*
X702000Y-93144105D01*
X899806Y-93440143D01*
X1159857Y-93700194D01*
X1465644Y-93904514D01*
X1805416Y-94045253D01*
X2166117Y-94117000D01*
X2533883Y-94117000D01*
X2894584Y-94045253D01*
X3234356Y-93904514D01*
X3540143Y-93700194D01*
X3800194Y-93440143D01*
X4004514Y-93134356D01*
X4145253Y-92794584D01*
X4217000Y-92433883D01*
X4217000Y-92066117D01*
X4145253Y-91705416D01*
X4004514Y-91365644D01*
X3800194Y-91059857D01*
X3540143Y-90799806D01*
X3234356Y-90595486D01*
X2894584Y-90454747D01*
X2533883Y-90383000D01*
X2166117Y-90383000D01*
X1805416Y-90454747D01*
X1465644Y-90595486D01*
X1159857Y-90799806D01*
X899806Y-91059857D01*
X702000Y-91355895D01*
X702000Y-89918640D01*
X3760965Y-89918640D01*
X3989099Y-90295641D01*
X4465989Y-90546292D01*
X4982614Y-90699092D01*
X5519122Y-90748167D01*
X6054896Y-90691631D01*
X6569345Y-90531657D01*
X7010901Y-90295641D01*
X7239035Y-89918640D01*
X5500000Y-88179605D01*
X3760965Y-89918640D01*
X702000Y-89918640D01*
X702000Y-88019122D01*
X2751833Y-88019122D01*
X2808369Y-88554896D01*
X2968343Y-89069345D01*
X3204359Y-89510901D01*
X3581360Y-89739035D01*
X5320395Y-88000000D01*
X5679605Y-88000000D01*
X7418640Y-89739035D01*
X7795641Y-89510901D01*
X7951992Y-89213426D01*
X8153664Y-89515249D01*
X8484751Y-89846336D01*
X8874068Y-90106470D01*
X9306655Y-90285653D01*
X9765886Y-90377000D01*
X10234114Y-90377000D01*
X10693345Y-90285653D01*
X11125932Y-90106470D01*
X11515249Y-89846336D01*
X11846336Y-89515249D01*
X12106470Y-89125932D01*
X12285653Y-88693345D01*
X12377000Y-88234114D01*
X12377000Y-87765886D01*
X12285653Y-87306655D01*
X12106470Y-86874068D01*
X11846336Y-86484751D01*
X11515249Y-86153664D01*
X11125932Y-85893530D01*
X10693345Y-85714347D01*
X10234114Y-85623000D01*
X9765886Y-85623000D01*
X9306655Y-85714347D01*
X8874068Y-85893530D01*
X8484751Y-86153664D01*
X8153664Y-86484751D01*
X7953465Y-86784369D01*
X7795641Y-86489099D01*
X7418640Y-86260965D01*
X5679605Y-88000000D01*
X5320395Y-88000000D01*
X3581360Y-86260965D01*
X3204359Y-86489099D01*
X2953708Y-86965989D01*
X2800908Y-87482614D01*
X2751833Y-88019122D01*
X702000Y-88019122D01*
X702000Y-86081360D01*
X3760965Y-86081360D01*
X5500000Y-87820395D01*
X7239035Y-86081360D01*
X7010901Y-85704359D01*
X6534011Y-85453708D01*
X6017386Y-85300908D01*
X5480878Y-85251833D01*
X4945104Y-85308369D01*
X4430655Y-85468343D01*
X3989099Y-85704359D01*
X3760965Y-86081360D01*
X702000Y-86081360D01*
X702000Y-84545556D01*
X730934Y-84615409D01*
X930876Y-84914645D01*
X1185355Y-85169124D01*
X1484591Y-85369066D01*
X1817084Y-85506789D01*
X2170056Y-85577000D01*
X2529944Y-85577000D01*
X2882916Y-85506789D01*
X3215409Y-85369066D01*
X3514645Y-85169124D01*
X3769124Y-84914645D01*
X3969066Y-84615409D01*
X4106789Y-84282916D01*
X4177000Y-83929944D01*
X4177000Y-83570056D01*
X4106789Y-83217084D01*
X3969066Y-82884591D01*
X3769124Y-82585355D01*
X3514645Y-82330876D01*
X3215409Y-82130934D01*
X2882916Y-81993211D01*
X2529944Y-81923000D01*
X2170056Y-81923000D01*
X1817084Y-81993211D01*
X1484591Y-82130934D01*
X1185355Y-82330876D01*
X930876Y-82585355D01*
X730934Y-82884591D01*
X702000Y-82954444D01*
X702000Y-74802000D01*
X1965520Y-74802000D01*
X2000000Y-74805396D01*
X2034480Y-74802000D01*
X2137616Y-74791842D01*
X2269943Y-74751701D01*
X2391897Y-74686515D01*
X2451007Y-74638004D01*
X4714250Y-74635000D01*
X4873000Y-74476250D01*
X4873000Y-71927000D01*
X5127000Y-71927000D01*
X5127000Y-74476250D01*
X5285750Y-74635000D01*
X7600000Y-74638072D01*
X7724482Y-74625812D01*
X7844180Y-74589502D01*
X7954494Y-74530537D01*
X8051185Y-74451185D01*
X8130537Y-74354494D01*
X8189502Y-74244180D01*
X8225812Y-74124482D01*
X8238072Y-74000000D01*
X8235000Y-72085750D01*
X8076250Y-71927000D01*
X5127000Y-71927000D01*
X4873000Y-71927000D01*
X4853000Y-71927000D01*
X4853000Y-71673000D01*
X4873000Y-71673000D01*
X4873000Y-71653000D01*
X5127000Y-71653000D01*
X5127000Y-71673000D01*
X8076250Y-71673000D01*
X8235000Y-71514250D01*
X8238072Y-69600000D01*
X8225812Y-69475518D01*
X8189502Y-69355820D01*
X8130537Y-69245506D01*
X8088017Y-69193695D01*
X8123853Y-69150028D01*
X8182075Y-69041103D01*
X8217927Y-68922913D01*
X8230033Y-68800000D01*
X8230033Y-67200000D01*
X8217927Y-67077087D01*
X8182075Y-66958897D01*
X8123853Y-66849972D01*
X8088017Y-66806305D01*
X8130537Y-66754494D01*
X8189502Y-66644180D01*
X8225812Y-66524482D01*
X8238072Y-66400000D01*
X8235000Y-64485750D01*
X8076250Y-64327000D01*
X5127000Y-64327000D01*
X5127000Y-64347000D01*
X4873000Y-64347000D01*
X4873000Y-64327000D01*
X4853000Y-64327000D01*
X4853000Y-64073000D01*
X4873000Y-64073000D01*
X4873000Y-61523750D01*
X5127000Y-61523750D01*
X5127000Y-64073000D01*
X8076250Y-64073000D01*
X8235000Y-63914250D01*
X8238072Y-62000000D01*
X8225812Y-61875518D01*
X8189502Y-61755820D01*
X8130537Y-61645506D01*
X8051185Y-61548815D01*
X7954494Y-61469463D01*
X7844180Y-61410498D01*
X7724482Y-61374188D01*
X7600000Y-61361928D01*
X5285750Y-61365000D01*
X5127000Y-61523750D01*
X4873000Y-61523750D01*
X4714250Y-61365000D01*
X2400000Y-61361928D01*
X2311709Y-61370624D01*
X2269943Y-61348299D01*
X2137616Y-61308158D01*
X2034480Y-61298000D01*
X2000000Y-61294604D01*
X1965520Y-61298000D01*
X702000Y-61298000D01*
X702000Y-51802000D01*
X1965520Y-51802000D01*
X2000000Y-51805396D01*
X2034480Y-51802000D01*
X2137616Y-51791842D01*
X2269943Y-51751701D01*
X2391897Y-51686515D01*
X2451007Y-51638004D01*
X4714250Y-51635000D01*
X4873000Y-51476250D01*
X4873000Y-48927000D01*
X5127000Y-48927000D01*
X5127000Y-51476250D01*
X5285750Y-51635000D01*
X7600000Y-51638072D01*
X7724482Y-51625812D01*
X7844180Y-51589502D01*
X7954494Y-51530537D01*
X8051185Y-51451185D01*
X8130537Y-51354494D01*
X8189502Y-51244180D01*
X8225812Y-51124482D01*
X8238072Y-51000000D01*
X8235000Y-49085750D01*
X8076250Y-48927000D01*
X5127000Y-48927000D01*
X4873000Y-48927000D01*
X4853000Y-48927000D01*
X4853000Y-48673000D01*
X4873000Y-48673000D01*
X4873000Y-48653000D01*
X5127000Y-48653000D01*
X5127000Y-48673000D01*
X8076250Y-48673000D01*
X8235000Y-48514250D01*
X8238072Y-46600000D01*
X8225812Y-46475518D01*
X8189502Y-46355820D01*
X8130537Y-46245506D01*
X8088017Y-46193695D01*
X8123853Y-46150028D01*
X8182075Y-46041103D01*
X8217927Y-45922913D01*
X8230033Y-45800000D01*
X8230033Y-44200000D01*
X8217927Y-44077087D01*
X8182075Y-43958897D01*
X8123853Y-43849972D01*
X8088017Y-43806305D01*
X8130537Y-43754494D01*
X8189502Y-43644180D01*
X8225812Y-43524482D01*
X8238072Y-43400000D01*
X8235000Y-41485750D01*
X8076250Y-41327000D01*
X5127000Y-41327000D01*
X5127000Y-41347000D01*
X4873000Y-41347000D01*
X4873000Y-41327000D01*
X4853000Y-41327000D01*
X4853000Y-41073000D01*
X4873000Y-41073000D01*
X4873000Y-38523750D01*
X5127000Y-38523750D01*
X5127000Y-41073000D01*
X8076250Y-41073000D01*
X8235000Y-40914250D01*
X8238072Y-39000000D01*
X8225812Y-38875518D01*
X8189502Y-38755820D01*
X8130537Y-38645506D01*
X8051185Y-38548815D01*
X7954494Y-38469463D01*
X7844180Y-38410498D01*
X7724482Y-38374188D01*
X7600000Y-38361928D01*
X5285750Y-38365000D01*
X5127000Y-38523750D01*
X4873000Y-38523750D01*
X4714250Y-38365000D01*
X2451007Y-38361996D01*
X2391897Y-38313485D01*
X2269943Y-38248299D01*
X2137616Y-38208158D01*
X2034480Y-38198000D01*
X2000000Y-38194604D01*
X1965520Y-38198000D01*
X702000Y-38198000D01*
X702000Y-20378003D01*
X3737573Y-20378003D01*
X3817947Y-20675368D01*
X4016388Y-21099439D01*
X4293748Y-21476648D01*
X4639369Y-21792498D01*
X5039968Y-22034852D01*
X5480150Y-22194396D01*
X5943000Y-22265000D01*
X7693000Y-22265000D01*
X7693000Y-20007000D01*
X7947000Y-20007000D01*
X7947000Y-22265000D01*
X9697000Y-22265000D01*
X10159850Y-22194396D01*
X10600032Y-22034852D01*
X11000631Y-21792498D01*
X11346252Y-21476648D01*
X11623612Y-21099439D01*
X11822053Y-20675368D01*
X11902427Y-20378003D01*
X11792625Y-20007000D01*
X7947000Y-20007000D01*
X7693000Y-20007000D01*
X3847375Y-20007000D01*
X3737573Y-20378003D01*
X702000Y-20378003D01*
X702000Y-19327000D01*
X3752438Y-19327000D01*
X3737573Y-19381997D01*
G37*
X3737573Y-19381997D02*
X3847375Y-19753000D01*
X7693000Y-19753000D01*
X7693000Y-19733000D01*
X7947000Y-19733000D01*
X7947000Y-19753000D01*
X11792625Y-19753000D01*
X11902427Y-19381997D01*
X11887562Y-19327000D01*
X19172797Y-19327000D01*
X19073000Y-81899797D01*
X19075401Y-81924578D01*
X19082590Y-81948414D01*
X19094291Y-81970389D01*
X19110197Y-81989803D01*
X29210197Y-92089803D01*
X29229443Y-92105597D01*
X29251399Y-92117333D01*
X29275224Y-92124560D01*
X29300000Y-92127000D01*
X85588135Y-92127000D01*
X85595114Y-92131663D01*
X85827513Y-92227926D01*
X86074226Y-92277000D01*
X86325774Y-92277000D01*
X86572487Y-92227926D01*
X86804886Y-92131663D01*
X86811865Y-92127000D01*
X87600000Y-92127000D01*
X87624776Y-92124560D01*
X87648601Y-92117333D01*
X87670557Y-92105597D01*
X87689803Y-92089803D01*
X87705597Y-92070557D01*
X87717333Y-92048601D01*
X87724560Y-92024776D01*
X87727000Y-92000000D01*
X87727000Y-68445703D01*
X87787533Y-68299565D01*
X87827000Y-68101151D01*
X87827000Y-67898849D01*
X87787533Y-67700435D01*
X87727000Y-67554297D01*
X87727000Y-66127000D01*
X96873000Y-66127000D01*
X96873000Y-90779181D01*
X96729564Y-90635745D01*
X96727926Y-90627513D01*
X96631663Y-90395114D01*
X96491911Y-90185960D01*
X96314040Y-90008089D01*
X96104886Y-89868337D01*
X95872487Y-89772074D01*
X95625774Y-89723000D01*
X95374226Y-89723000D01*
X95127513Y-89772074D01*
X94895114Y-89868337D01*
X94685960Y-90008089D01*
X94508089Y-90185960D01*
X94368337Y-90395114D01*
X94272074Y-90627513D01*
X94223000Y-90874226D01*
X94223000Y-91125774D01*
X94272074Y-91372487D01*
X94368337Y-91604886D01*
X94508089Y-91814040D01*
X94685960Y-91991911D01*
X94895114Y-92131663D01*
X95127513Y-92227926D01*
X95135745Y-92229564D01*
X96873000Y-93966819D01*
X96873000Y-99298000D01*
X702000Y-99298000D01*
X702000Y-93144105D01*
X899806Y-93440143D01*
X1159857Y-93700194D01*
X1465644Y-93904514D01*
X1805416Y-94045253D01*
X2166117Y-94117000D01*
X2533883Y-94117000D01*
X2894584Y-94045253D01*
X3234356Y-93904514D01*
X3540143Y-93700194D01*
X3800194Y-93440143D01*
X4004514Y-93134356D01*
X4145253Y-92794584D01*
X4217000Y-92433883D01*
X4217000Y-92066117D01*
X4145253Y-91705416D01*
X4004514Y-91365644D01*
X3800194Y-91059857D01*
X3540143Y-90799806D01*
X3234356Y-90595486D01*
X2894584Y-90454747D01*
X2533883Y-90383000D01*
X2166117Y-90383000D01*
X1805416Y-90454747D01*
X1465644Y-90595486D01*
X1159857Y-90799806D01*
X899806Y-91059857D01*
X702000Y-91355895D01*
X702000Y-89918640D01*
X3760965Y-89918640D01*
X3989099Y-90295641D01*
X4465989Y-90546292D01*
X4982614Y-90699092D01*
X5519122Y-90748167D01*
X6054896Y-90691631D01*
X6569345Y-90531657D01*
X7010901Y-90295641D01*
X7239035Y-89918640D01*
X5500000Y-88179605D01*
X3760965Y-89918640D01*
X702000Y-89918640D01*
X702000Y-88019122D01*
X2751833Y-88019122D01*
X2808369Y-88554896D01*
X2968343Y-89069345D01*
X3204359Y-89510901D01*
X3581360Y-89739035D01*
X5320395Y-88000000D01*
X5679605Y-88000000D01*
X7418640Y-89739035D01*
X7795641Y-89510901D01*
X7951992Y-89213426D01*
X8153664Y-89515249D01*
X8484751Y-89846336D01*
X8874068Y-90106470D01*
X9306655Y-90285653D01*
X9765886Y-90377000D01*
X10234114Y-90377000D01*
X10693345Y-90285653D01*
X11125932Y-90106470D01*
X11515249Y-89846336D01*
X11846336Y-89515249D01*
X12106470Y-89125932D01*
X12285653Y-88693345D01*
X12377000Y-88234114D01*
X12377000Y-87765886D01*
X12285653Y-87306655D01*
X12106470Y-86874068D01*
X11846336Y-86484751D01*
X11515249Y-86153664D01*
X11125932Y-85893530D01*
X10693345Y-85714347D01*
X10234114Y-85623000D01*
X9765886Y-85623000D01*
X9306655Y-85714347D01*
X8874068Y-85893530D01*
X8484751Y-86153664D01*
X8153664Y-86484751D01*
X7953465Y-86784369D01*
X7795641Y-86489099D01*
X7418640Y-86260965D01*
X5679605Y-88000000D01*
X5320395Y-88000000D01*
X3581360Y-86260965D01*
X3204359Y-86489099D01*
X2953708Y-86965989D01*
X2800908Y-87482614D01*
X2751833Y-88019122D01*
X702000Y-88019122D01*
X702000Y-86081360D01*
X3760965Y-86081360D01*
X5500000Y-87820395D01*
X7239035Y-86081360D01*
X7010901Y-85704359D01*
X6534011Y-85453708D01*
X6017386Y-85300908D01*
X5480878Y-85251833D01*
X4945104Y-85308369D01*
X4430655Y-85468343D01*
X3989099Y-85704359D01*
X3760965Y-86081360D01*
X702000Y-86081360D01*
X702000Y-84545556D01*
X730934Y-84615409D01*
X930876Y-84914645D01*
X1185355Y-85169124D01*
X1484591Y-85369066D01*
X1817084Y-85506789D01*
X2170056Y-85577000D01*
X2529944Y-85577000D01*
X2882916Y-85506789D01*
X3215409Y-85369066D01*
X3514645Y-85169124D01*
X3769124Y-84914645D01*
X3969066Y-84615409D01*
X4106789Y-84282916D01*
X4177000Y-83929944D01*
X4177000Y-83570056D01*
X4106789Y-83217084D01*
X3969066Y-82884591D01*
X3769124Y-82585355D01*
X3514645Y-82330876D01*
X3215409Y-82130934D01*
X2882916Y-81993211D01*
X2529944Y-81923000D01*
X2170056Y-81923000D01*
X1817084Y-81993211D01*
X1484591Y-82130934D01*
X1185355Y-82330876D01*
X930876Y-82585355D01*
X730934Y-82884591D01*
X702000Y-82954444D01*
X702000Y-74802000D01*
X1965520Y-74802000D01*
X2000000Y-74805396D01*
X2034480Y-74802000D01*
X2137616Y-74791842D01*
X2269943Y-74751701D01*
X2391897Y-74686515D01*
X2451007Y-74638004D01*
X4714250Y-74635000D01*
X4873000Y-74476250D01*
X4873000Y-71927000D01*
X5127000Y-71927000D01*
X5127000Y-74476250D01*
X5285750Y-74635000D01*
X7600000Y-74638072D01*
X7724482Y-74625812D01*
X7844180Y-74589502D01*
X7954494Y-74530537D01*
X8051185Y-74451185D01*
X8130537Y-74354494D01*
X8189502Y-74244180D01*
X8225812Y-74124482D01*
X8238072Y-74000000D01*
X8235000Y-72085750D01*
X8076250Y-71927000D01*
X5127000Y-71927000D01*
X4873000Y-71927000D01*
X4853000Y-71927000D01*
X4853000Y-71673000D01*
X4873000Y-71673000D01*
X4873000Y-71653000D01*
X5127000Y-71653000D01*
X5127000Y-71673000D01*
X8076250Y-71673000D01*
X8235000Y-71514250D01*
X8238072Y-69600000D01*
X8225812Y-69475518D01*
X8189502Y-69355820D01*
X8130537Y-69245506D01*
X8088017Y-69193695D01*
X8123853Y-69150028D01*
X8182075Y-69041103D01*
X8217927Y-68922913D01*
X8230033Y-68800000D01*
X8230033Y-67200000D01*
X8217927Y-67077087D01*
X8182075Y-66958897D01*
X8123853Y-66849972D01*
X8088017Y-66806305D01*
X8130537Y-66754494D01*
X8189502Y-66644180D01*
X8225812Y-66524482D01*
X8238072Y-66400000D01*
X8235000Y-64485750D01*
X8076250Y-64327000D01*
X5127000Y-64327000D01*
X5127000Y-64347000D01*
X4873000Y-64347000D01*
X4873000Y-64327000D01*
X4853000Y-64327000D01*
X4853000Y-64073000D01*
X4873000Y-64073000D01*
X4873000Y-61523750D01*
X5127000Y-61523750D01*
X5127000Y-64073000D01*
X8076250Y-64073000D01*
X8235000Y-63914250D01*
X8238072Y-62000000D01*
X8225812Y-61875518D01*
X8189502Y-61755820D01*
X8130537Y-61645506D01*
X8051185Y-61548815D01*
X7954494Y-61469463D01*
X7844180Y-61410498D01*
X7724482Y-61374188D01*
X7600000Y-61361928D01*
X5285750Y-61365000D01*
X5127000Y-61523750D01*
X4873000Y-61523750D01*
X4714250Y-61365000D01*
X2400000Y-61361928D01*
X2311709Y-61370624D01*
X2269943Y-61348299D01*
X2137616Y-61308158D01*
X2034480Y-61298000D01*
X2000000Y-61294604D01*
X1965520Y-61298000D01*
X702000Y-61298000D01*
X702000Y-51802000D01*
X1965520Y-51802000D01*
X2000000Y-51805396D01*
X2034480Y-51802000D01*
X2137616Y-51791842D01*
X2269943Y-51751701D01*
X2391897Y-51686515D01*
X2451007Y-51638004D01*
X4714250Y-51635000D01*
X4873000Y-51476250D01*
X4873000Y-48927000D01*
X5127000Y-48927000D01*
X5127000Y-51476250D01*
X5285750Y-51635000D01*
X7600000Y-51638072D01*
X7724482Y-51625812D01*
X7844180Y-51589502D01*
X7954494Y-51530537D01*
X8051185Y-51451185D01*
X8130537Y-51354494D01*
X8189502Y-51244180D01*
X8225812Y-51124482D01*
X8238072Y-51000000D01*
X8235000Y-49085750D01*
X8076250Y-48927000D01*
X5127000Y-48927000D01*
X4873000Y-48927000D01*
X4853000Y-48927000D01*
X4853000Y-48673000D01*
X4873000Y-48673000D01*
X4873000Y-48653000D01*
X5127000Y-48653000D01*
X5127000Y-48673000D01*
X8076250Y-48673000D01*
X8235000Y-48514250D01*
X8238072Y-46600000D01*
X8225812Y-46475518D01*
X8189502Y-46355820D01*
X8130537Y-46245506D01*
X8088017Y-46193695D01*
X8123853Y-46150028D01*
X8182075Y-46041103D01*
X8217927Y-45922913D01*
X8230033Y-45800000D01*
X8230033Y-44200000D01*
X8217927Y-44077087D01*
X8182075Y-43958897D01*
X8123853Y-43849972D01*
X8088017Y-43806305D01*
X8130537Y-43754494D01*
X8189502Y-43644180D01*
X8225812Y-43524482D01*
X8238072Y-43400000D01*
X8235000Y-41485750D01*
X8076250Y-41327000D01*
X5127000Y-41327000D01*
X5127000Y-41347000D01*
X4873000Y-41347000D01*
X4873000Y-41327000D01*
X4853000Y-41327000D01*
X4853000Y-41073000D01*
X4873000Y-41073000D01*
X4873000Y-38523750D01*
X5127000Y-38523750D01*
X5127000Y-41073000D01*
X8076250Y-41073000D01*
X8235000Y-40914250D01*
X8238072Y-39000000D01*
X8225812Y-38875518D01*
X8189502Y-38755820D01*
X8130537Y-38645506D01*
X8051185Y-38548815D01*
X7954494Y-38469463D01*
X7844180Y-38410498D01*
X7724482Y-38374188D01*
X7600000Y-38361928D01*
X5285750Y-38365000D01*
X5127000Y-38523750D01*
X4873000Y-38523750D01*
X4714250Y-38365000D01*
X2451007Y-38361996D01*
X2391897Y-38313485D01*
X2269943Y-38248299D01*
X2137616Y-38208158D01*
X2034480Y-38198000D01*
X2000000Y-38194604D01*
X1965520Y-38198000D01*
X702000Y-38198000D01*
X702000Y-20378003D01*
X3737573Y-20378003D01*
X3817947Y-20675368D01*
X4016388Y-21099439D01*
X4293748Y-21476648D01*
X4639369Y-21792498D01*
X5039968Y-22034852D01*
X5480150Y-22194396D01*
X5943000Y-22265000D01*
X7693000Y-22265000D01*
X7693000Y-20007000D01*
X7947000Y-20007000D01*
X7947000Y-22265000D01*
X9697000Y-22265000D01*
X10159850Y-22194396D01*
X10600032Y-22034852D01*
X11000631Y-21792498D01*
X11346252Y-21476648D01*
X11623612Y-21099439D01*
X11822053Y-20675368D01*
X11902427Y-20378003D01*
X11792625Y-20007000D01*
X7947000Y-20007000D01*
X7693000Y-20007000D01*
X3847375Y-20007000D01*
X3737573Y-20378003D01*
X702000Y-20378003D01*
X702000Y-19327000D01*
X3752438Y-19327000D01*
X3737573Y-19381997D01*
G36*
X126373000Y-76073000D02*
G01*
X126359453Y-76073000D01*
X126083759Y-76127838D01*
X125824062Y-76235409D01*
X125590340Y-76391576D01*
X125391576Y-76590340D01*
X125235409Y-76824062D01*
X125127838Y-77083759D01*
X125073000Y-77359453D01*
X125073000Y-77640547D01*
X125127838Y-77916241D01*
X125235409Y-78175938D01*
X125391576Y-78409660D01*
X125590340Y-78608424D01*
X125824062Y-78764591D01*
X126083759Y-78872162D01*
X126359453Y-78927000D01*
X126373000Y-78927000D01*
X126373000Y-79073000D01*
X125717995Y-79073000D01*
X125692859Y-79068000D01*
X125387141Y-79068000D01*
X125362005Y-79073000D01*
X120637995Y-79073000D01*
X120612859Y-79068000D01*
X120307141Y-79068000D01*
X120282005Y-79073000D01*
X119300000Y-79073000D01*
X119275224Y-79075440D01*
X119251399Y-79082667D01*
X119229443Y-79094403D01*
X119210197Y-79110197D01*
X119194403Y-79129443D01*
X119182667Y-79151399D01*
X119175440Y-79175224D01*
X119173000Y-79200000D01*
X119173000Y-79752606D01*
X119084636Y-79884853D01*
X118967643Y-80167298D01*
X118908000Y-80467141D01*
X118908000Y-80772859D01*
X118967643Y-81072702D01*
X119084636Y-81355147D01*
X119173000Y-81487394D01*
X119173000Y-84832606D01*
X119084636Y-84964853D01*
X118967643Y-85247298D01*
X118908000Y-85547141D01*
X118908000Y-85852859D01*
X118967643Y-86152702D01*
X119084636Y-86435147D01*
X119173000Y-86567394D01*
X119173000Y-87372606D01*
X119084636Y-87504853D01*
X118967643Y-87787298D01*
X118908000Y-88087141D01*
X118908000Y-88392859D01*
X118967643Y-88692702D01*
X119084636Y-88975147D01*
X119173000Y-89107394D01*
X119173000Y-89912606D01*
X119084636Y-90044853D01*
X118967643Y-90327298D01*
X118908000Y-90627141D01*
X118908000Y-90932859D01*
X118967643Y-91232702D01*
X119084636Y-91515147D01*
X119173000Y-91647394D01*
X119173000Y-92073000D01*
X113498414Y-92073000D01*
X113629342Y-91985517D01*
X113845517Y-91769342D01*
X114015364Y-91515147D01*
X114132357Y-91232702D01*
X114192000Y-90932859D01*
X114192000Y-90627141D01*
X114132357Y-90327298D01*
X114015364Y-90044853D01*
X113845517Y-89790658D01*
X113629342Y-89574483D01*
X113532836Y-89510000D01*
X113629342Y-89445517D01*
X113845517Y-89229342D01*
X114015364Y-88975147D01*
X114132357Y-88692702D01*
X114192000Y-88392859D01*
X114192000Y-88087141D01*
X114132357Y-87787298D01*
X114015364Y-87504853D01*
X113845517Y-87250658D01*
X113629342Y-87034483D01*
X113532836Y-86970000D01*
X113629342Y-86905517D01*
X113845517Y-86689342D01*
X114015364Y-86435147D01*
X114132357Y-86152702D01*
X114192000Y-85852859D01*
X114192000Y-85547141D01*
X114132357Y-85247298D01*
X114015364Y-84964853D01*
X113845517Y-84710658D01*
X113629342Y-84494483D01*
X113375147Y-84324636D01*
X113092702Y-84207643D01*
X112792859Y-84148000D01*
X112727000Y-84148000D01*
X112727000Y-82172000D01*
X112792859Y-82172000D01*
X113092702Y-82112357D01*
X113375147Y-81995364D01*
X113629342Y-81825517D01*
X113845517Y-81609342D01*
X114015364Y-81355147D01*
X114132357Y-81072702D01*
X114192000Y-80772859D01*
X114192000Y-80467141D01*
X114132357Y-80167298D01*
X114015364Y-79884853D01*
X113845517Y-79630658D01*
X113629342Y-79414483D01*
X113375147Y-79244636D01*
X113092702Y-79127643D01*
X112792859Y-79068000D01*
X112727000Y-79068000D01*
X112727000Y-75827000D01*
X126373000Y-75827000D01*
X126373000Y-76073000D01*
G37*
X126373000Y-76073000D02*
X126359453Y-76073000D01*
X126083759Y-76127838D01*
X125824062Y-76235409D01*
X125590340Y-76391576D01*
X125391576Y-76590340D01*
X125235409Y-76824062D01*
X125127838Y-77083759D01*
X125073000Y-77359453D01*
X125073000Y-77640547D01*
X125127838Y-77916241D01*
X125235409Y-78175938D01*
X125391576Y-78409660D01*
X125590340Y-78608424D01*
X125824062Y-78764591D01*
X126083759Y-78872162D01*
X126359453Y-78927000D01*
X126373000Y-78927000D01*
X126373000Y-79073000D01*
X125717995Y-79073000D01*
X125692859Y-79068000D01*
X125387141Y-79068000D01*
X125362005Y-79073000D01*
X120637995Y-79073000D01*
X120612859Y-79068000D01*
X120307141Y-79068000D01*
X120282005Y-79073000D01*
X119300000Y-79073000D01*
X119275224Y-79075440D01*
X119251399Y-79082667D01*
X119229443Y-79094403D01*
X119210197Y-79110197D01*
X119194403Y-79129443D01*
X119182667Y-79151399D01*
X119175440Y-79175224D01*
X119173000Y-79200000D01*
X119173000Y-79752606D01*
X119084636Y-79884853D01*
X118967643Y-80167298D01*
X118908000Y-80467141D01*
X118908000Y-80772859D01*
X118967643Y-81072702D01*
X119084636Y-81355147D01*
X119173000Y-81487394D01*
X119173000Y-84832606D01*
X119084636Y-84964853D01*
X118967643Y-85247298D01*
X118908000Y-85547141D01*
X118908000Y-85852859D01*
X118967643Y-86152702D01*
X119084636Y-86435147D01*
X119173000Y-86567394D01*
X119173000Y-87372606D01*
X119084636Y-87504853D01*
X118967643Y-87787298D01*
X118908000Y-88087141D01*
X118908000Y-88392859D01*
X118967643Y-88692702D01*
X119084636Y-88975147D01*
X119173000Y-89107394D01*
X119173000Y-89912606D01*
X119084636Y-90044853D01*
X118967643Y-90327298D01*
X118908000Y-90627141D01*
X118908000Y-90932859D01*
X118967643Y-91232702D01*
X119084636Y-91515147D01*
X119173000Y-91647394D01*
X119173000Y-92073000D01*
X113498414Y-92073000D01*
X113629342Y-91985517D01*
X113845517Y-91769342D01*
X114015364Y-91515147D01*
X114132357Y-91232702D01*
X114192000Y-90932859D01*
X114192000Y-90627141D01*
X114132357Y-90327298D01*
X114015364Y-90044853D01*
X113845517Y-89790658D01*
X113629342Y-89574483D01*
X113532836Y-89510000D01*
X113629342Y-89445517D01*
X113845517Y-89229342D01*
X114015364Y-88975147D01*
X114132357Y-88692702D01*
X114192000Y-88392859D01*
X114192000Y-88087141D01*
X114132357Y-87787298D01*
X114015364Y-87504853D01*
X113845517Y-87250658D01*
X113629342Y-87034483D01*
X113532836Y-86970000D01*
X113629342Y-86905517D01*
X113845517Y-86689342D01*
X114015364Y-86435147D01*
X114132357Y-86152702D01*
X114192000Y-85852859D01*
X114192000Y-85547141D01*
X114132357Y-85247298D01*
X114015364Y-84964853D01*
X113845517Y-84710658D01*
X113629342Y-84494483D01*
X113375147Y-84324636D01*
X113092702Y-84207643D01*
X112792859Y-84148000D01*
X112727000Y-84148000D01*
X112727000Y-82172000D01*
X112792859Y-82172000D01*
X113092702Y-82112357D01*
X113375147Y-81995364D01*
X113629342Y-81825517D01*
X113845517Y-81609342D01*
X114015364Y-81355147D01*
X114132357Y-81072702D01*
X114192000Y-80772859D01*
X114192000Y-80467141D01*
X114132357Y-80167298D01*
X114015364Y-79884853D01*
X113845517Y-79630658D01*
X113629342Y-79414483D01*
X113375147Y-79244636D01*
X113092702Y-79127643D01*
X112792859Y-79068000D01*
X112727000Y-79068000D01*
X112727000Y-75827000D01*
X126373000Y-75827000D01*
X126373000Y-76073000D01*
M02*
