G04 #@! TF.GenerationSoftware,KiCad,Pcbnew,5.1.6-c6e7f7d~86~ubuntu18.04.1*
G04 #@! TF.CreationDate,2020-06-11T10:01:39+01:00*
G04 #@! TF.ProjectId,HL2_MRF101,484c325f-4d52-4463-9130-312e6b696361,2.0-build8*
G04 #@! TF.SameCoordinates,PX42c1d80PY2625a00*
G04 #@! TF.FileFunction,Soldermask,Bot*
G04 #@! TF.FilePolarity,Negative*
%FSLAX46Y46*%
G04 Gerber Fmt 4.6, Leading zero omitted, Abs format (unit mm)*
G04 Created by KiCad (PCBNEW 5.1.6-c6e7f7d~86~ubuntu18.04.1) date 2020-06-11 10:01:39*
%MOMM*%
%LPD*%
G01*
G04 APERTURE LIST*
%ADD10O,1.900000X1.900000*%
%ADD11R,1.900000X1.900000*%
%ADD12C,2.600000*%
%ADD13O,1.800000X1.800000*%
%ADD14R,1.800000X1.800000*%
%ADD15C,2.050000*%
%ADD16R,0.650000X1.700000*%
%ADD17R,1.100000X1.000000*%
%ADD18R,1.000000X1.100000*%
%ADD19O,2.200000X1.900000*%
%ADD20R,2.600000X2.600000*%
%ADD21C,2.450000*%
%ADD22C,5.500000*%
%ADD23R,1.550000X0.600000*%
%ADD24R,1.260000X0.850000*%
%ADD25R,2.800000X2.800000*%
%ADD26C,2.800000*%
%ADD27O,2.700000X1.800000*%
%ADD28O,7.200000X3.700000*%
%ADD29R,3.098140X5.597500*%
%ADD30R,2.200000X2.200000*%
%ADD31C,2.200000*%
%ADD32R,1.100000X1.400000*%
%ADD33R,1.400000X1.100000*%
%ADD34C,2.680000*%
%ADD35C,3.700000*%
%ADD36C,4.400000*%
%ADD37R,2.200000X2.105000*%
%ADD38O,2.200000X2.105000*%
%ADD39C,1.700000*%
%ADD40C,1.000000*%
%ADD41C,0.800000*%
%ADD42C,1.500000*%
%ADD43C,0.254000*%
G04 APERTURE END LIST*
D10*
X6580000Y-53200000D03*
X6580000Y-50660000D03*
X6580000Y-48120000D03*
X6580000Y-45580000D03*
X6580000Y-43040000D03*
D11*
X6580000Y-40500000D03*
D12*
X30100000Y-24000000D03*
X30100000Y-16900000D03*
X37700000Y-10000000D03*
X31500000Y-13800000D03*
D13*
X143868000Y-50678000D03*
D14*
X143868000Y-48138000D03*
D15*
X112626000Y-75824000D03*
X112626000Y-80904000D03*
X112626000Y-83444000D03*
X112626000Y-85984000D03*
X107546000Y-85984000D03*
X107546000Y-83444000D03*
X107546000Y-80904000D03*
X107546000Y-75824000D03*
X112626000Y-58806000D03*
X112626000Y-63886000D03*
X112626000Y-66426000D03*
X112626000Y-68966000D03*
X107546000Y-68966000D03*
X107546000Y-66426000D03*
X107546000Y-63886000D03*
X107546000Y-58806000D03*
X86464000Y-88270000D03*
X73764000Y-88270000D03*
X78844000Y-88270000D03*
X68684000Y-88270000D03*
X68684000Y-80650000D03*
X78844000Y-80650000D03*
X73764000Y-80650000D03*
X86464000Y-80650000D03*
X86464000Y-76512300D03*
X73764000Y-76512300D03*
X78844000Y-76512300D03*
X68684000Y-76512300D03*
X68684000Y-68892300D03*
X78844000Y-68892300D03*
X73764000Y-68892300D03*
X86464000Y-68892300D03*
X86464000Y-64754600D03*
X73764000Y-64754600D03*
X78844000Y-64754600D03*
X68684000Y-64754600D03*
X68684000Y-57134600D03*
X78844000Y-57134600D03*
X73764000Y-57134600D03*
X86464000Y-57134600D03*
X86464000Y-52996900D03*
X73764000Y-52996900D03*
X78844000Y-52996900D03*
X68684000Y-52996900D03*
X68684000Y-45376900D03*
X78844000Y-45376900D03*
X73764000Y-45376900D03*
X86464000Y-45376900D03*
X107546000Y-53726000D03*
X107546000Y-41026000D03*
X107546000Y-46106000D03*
X107546000Y-35946000D03*
X115166000Y-35946000D03*
X115166000Y-46106000D03*
X115166000Y-41026000D03*
X115166000Y-53726000D03*
X86464000Y-41239200D03*
X73764000Y-41239200D03*
X78844000Y-41239200D03*
X68684000Y-41239200D03*
X68684000Y-33619200D03*
X78844000Y-33619200D03*
X73764000Y-33619200D03*
X86464000Y-33619200D03*
X15852000Y-80650000D03*
X28552000Y-80650000D03*
X23472000Y-80650000D03*
X33632000Y-80650000D03*
X33632000Y-88270000D03*
X23472000Y-88270000D03*
X28552000Y-88270000D03*
X15852000Y-88270000D03*
X15852000Y-68892300D03*
X28552000Y-68892300D03*
X23472000Y-68892300D03*
X33632000Y-68892300D03*
X33632000Y-76512300D03*
X23472000Y-76512300D03*
X28552000Y-76512300D03*
X15852000Y-76512300D03*
X15852000Y-57134600D03*
X28552000Y-57134600D03*
X23472000Y-57134600D03*
X33632000Y-57134600D03*
X33632000Y-64754600D03*
X23472000Y-64754600D03*
X28552000Y-64754600D03*
X15852000Y-64754600D03*
X15852000Y-45376900D03*
X28552000Y-45376900D03*
X23472000Y-45376900D03*
X33632000Y-45376900D03*
X33632000Y-52996900D03*
X23472000Y-52996900D03*
X28552000Y-52996900D03*
X15852000Y-52996900D03*
X15852000Y-33619200D03*
X28552000Y-33619200D03*
X23472000Y-33619200D03*
X33632000Y-33619200D03*
X33632000Y-41239200D03*
X23472000Y-41239200D03*
X28552000Y-41239200D03*
X15852000Y-41239200D03*
D16*
X92825000Y-73200000D03*
X92175000Y-73200000D03*
X91525000Y-73200000D03*
X90875000Y-73200000D03*
X90225000Y-73200000D03*
X89575000Y-73200000D03*
X88925000Y-73200000D03*
X88275000Y-73200000D03*
X88275000Y-67300000D03*
X88925000Y-67300000D03*
X89575000Y-67300000D03*
X90225000Y-67300000D03*
X90875000Y-67300000D03*
X91525000Y-67300000D03*
X92175000Y-67300000D03*
X92825000Y-67300000D03*
D17*
X2175000Y-65075000D03*
X4175000Y-66025000D03*
X4175000Y-64125000D03*
D18*
X3250000Y-58050000D03*
X4200000Y-56050000D03*
X2300000Y-56050000D03*
D19*
X4200000Y-71900000D03*
G36*
G01*
X5020700Y-75350000D02*
X3379300Y-75350000D01*
G75*
G02*
X3100000Y-75070700I0J279300D01*
G01*
X3100000Y-73729300D01*
G75*
G02*
X3379300Y-73450000I279300J0D01*
G01*
X5020700Y-73450000D01*
G75*
G02*
X5300000Y-73729300I0J-279300D01*
G01*
X5300000Y-75070700D01*
G75*
G02*
X5020700Y-75350000I-279300J0D01*
G01*
G37*
D12*
X90000000Y-12600000D03*
D20*
X93500000Y-12600000D03*
G36*
G01*
X138593750Y-57550000D02*
X139606250Y-57550000D01*
G75*
G02*
X139900000Y-57843750I0J-293750D01*
G01*
X139900000Y-58431250D01*
G75*
G02*
X139606250Y-58725000I-293750J0D01*
G01*
X138593750Y-58725000D01*
G75*
G02*
X138300000Y-58431250I0J293750D01*
G01*
X138300000Y-57843750D01*
G75*
G02*
X138593750Y-57550000I293750J0D01*
G01*
G37*
G36*
G01*
X138593750Y-55675000D02*
X139606250Y-55675000D01*
G75*
G02*
X139900000Y-55968750I0J-293750D01*
G01*
X139900000Y-56556250D01*
G75*
G02*
X139606250Y-56850000I-293750J0D01*
G01*
X138593750Y-56850000D01*
G75*
G02*
X138300000Y-56556250I0J293750D01*
G01*
X138300000Y-55968750D01*
G75*
G02*
X138593750Y-55675000I293750J0D01*
G01*
G37*
D21*
X61824000Y-57173000D03*
X56744000Y-52133000D03*
D22*
X20000000Y-3000000D03*
X97000000Y-3000000D03*
X136000000Y-3000000D03*
X135000000Y-97000000D03*
X97000000Y-97000000D03*
X20000000Y-97000000D03*
D23*
X116550000Y-28050000D03*
X120850000Y-28050000D03*
X116550000Y-28700000D03*
X120850000Y-28700000D03*
X116550000Y-29350000D03*
X120850000Y-29350000D03*
X116550000Y-30000000D03*
X120850000Y-30000000D03*
G36*
G01*
X132800000Y-54550000D02*
X132800000Y-54200000D01*
G75*
G02*
X132975000Y-54025000I175000J0D01*
G01*
X134450000Y-54025000D01*
G75*
G02*
X134625000Y-54200000I0J-175000D01*
G01*
X134625000Y-54550000D01*
G75*
G02*
X134450000Y-54725000I-175000J0D01*
G01*
X132975000Y-54725000D01*
G75*
G02*
X132800000Y-54550000I0J175000D01*
G01*
G37*
G36*
G01*
X132800000Y-53900000D02*
X132800000Y-53550000D01*
G75*
G02*
X132975000Y-53375000I175000J0D01*
G01*
X134450000Y-53375000D01*
G75*
G02*
X134625000Y-53550000I0J-175000D01*
G01*
X134625000Y-53900000D01*
G75*
G02*
X134450000Y-54075000I-175000J0D01*
G01*
X132975000Y-54075000D01*
G75*
G02*
X132800000Y-53900000I0J175000D01*
G01*
G37*
G36*
G01*
X132800000Y-53250000D02*
X132800000Y-52900000D01*
G75*
G02*
X132975000Y-52725000I175000J0D01*
G01*
X134450000Y-52725000D01*
G75*
G02*
X134625000Y-52900000I0J-175000D01*
G01*
X134625000Y-53250000D01*
G75*
G02*
X134450000Y-53425000I-175000J0D01*
G01*
X132975000Y-53425000D01*
G75*
G02*
X132800000Y-53250000I0J175000D01*
G01*
G37*
G36*
G01*
X132800000Y-52600000D02*
X132800000Y-52250000D01*
G75*
G02*
X132975000Y-52075000I175000J0D01*
G01*
X134450000Y-52075000D01*
G75*
G02*
X134625000Y-52250000I0J-175000D01*
G01*
X134625000Y-52600000D01*
G75*
G02*
X134450000Y-52775000I-175000J0D01*
G01*
X132975000Y-52775000D01*
G75*
G02*
X132800000Y-52600000I0J175000D01*
G01*
G37*
G36*
G01*
X128575000Y-52600000D02*
X128575000Y-52250000D01*
G75*
G02*
X128750000Y-52075000I175000J0D01*
G01*
X130225000Y-52075000D01*
G75*
G02*
X130400000Y-52250000I0J-175000D01*
G01*
X130400000Y-52600000D01*
G75*
G02*
X130225000Y-52775000I-175000J0D01*
G01*
X128750000Y-52775000D01*
G75*
G02*
X128575000Y-52600000I0J175000D01*
G01*
G37*
G36*
G01*
X128575000Y-53250000D02*
X128575000Y-52900000D01*
G75*
G02*
X128750000Y-52725000I175000J0D01*
G01*
X130225000Y-52725000D01*
G75*
G02*
X130400000Y-52900000I0J-175000D01*
G01*
X130400000Y-53250000D01*
G75*
G02*
X130225000Y-53425000I-175000J0D01*
G01*
X128750000Y-53425000D01*
G75*
G02*
X128575000Y-53250000I0J175000D01*
G01*
G37*
G36*
G01*
X128575000Y-53900000D02*
X128575000Y-53550000D01*
G75*
G02*
X128750000Y-53375000I175000J0D01*
G01*
X130225000Y-53375000D01*
G75*
G02*
X130400000Y-53550000I0J-175000D01*
G01*
X130400000Y-53900000D01*
G75*
G02*
X130225000Y-54075000I-175000J0D01*
G01*
X128750000Y-54075000D01*
G75*
G02*
X128575000Y-53900000I0J175000D01*
G01*
G37*
G36*
G01*
X128575000Y-54550000D02*
X128575000Y-54200000D01*
G75*
G02*
X128750000Y-54025000I175000J0D01*
G01*
X130225000Y-54025000D01*
G75*
G02*
X130400000Y-54200000I0J-175000D01*
G01*
X130400000Y-54550000D01*
G75*
G02*
X130225000Y-54725000I-175000J0D01*
G01*
X128750000Y-54725000D01*
G75*
G02*
X128575000Y-54550000I0J175000D01*
G01*
G37*
D24*
X130000000Y-25500000D03*
X130000000Y-23600000D03*
X127800000Y-23600000D03*
X127800000Y-24550000D03*
X127800000Y-25500000D03*
G36*
G01*
X128306250Y-18400000D02*
X127293750Y-18400000D01*
G75*
G02*
X127000000Y-18106250I0J293750D01*
G01*
X127000000Y-17518750D01*
G75*
G02*
X127293750Y-17225000I293750J0D01*
G01*
X128306250Y-17225000D01*
G75*
G02*
X128600000Y-17518750I0J-293750D01*
G01*
X128600000Y-18106250D01*
G75*
G02*
X128306250Y-18400000I-293750J0D01*
G01*
G37*
G36*
G01*
X128306250Y-20275000D02*
X127293750Y-20275000D01*
G75*
G02*
X127000000Y-19981250I0J293750D01*
G01*
X127000000Y-19393750D01*
G75*
G02*
X127293750Y-19100000I293750J0D01*
G01*
X128306250Y-19100000D01*
G75*
G02*
X128600000Y-19393750I0J-293750D01*
G01*
X128600000Y-19981250D01*
G75*
G02*
X128306250Y-20275000I-293750J0D01*
G01*
G37*
G36*
G01*
X130606250Y-18400000D02*
X129593750Y-18400000D01*
G75*
G02*
X129300000Y-18106250I0J293750D01*
G01*
X129300000Y-17518750D01*
G75*
G02*
X129593750Y-17225000I293750J0D01*
G01*
X130606250Y-17225000D01*
G75*
G02*
X130900000Y-17518750I0J-293750D01*
G01*
X130900000Y-18106250D01*
G75*
G02*
X130606250Y-18400000I-293750J0D01*
G01*
G37*
G36*
G01*
X130606250Y-20275000D02*
X129593750Y-20275000D01*
G75*
G02*
X129300000Y-19981250I0J293750D01*
G01*
X129300000Y-19393750D01*
G75*
G02*
X129593750Y-19100000I293750J0D01*
G01*
X130606250Y-19100000D01*
G75*
G02*
X130900000Y-19393750I0J-293750D01*
G01*
X130900000Y-19981250D01*
G75*
G02*
X130606250Y-20275000I-293750J0D01*
G01*
G37*
G36*
G01*
X128800000Y-13200000D02*
X128800000Y-16200000D01*
G75*
G02*
X128500000Y-16500000I-300000J0D01*
G01*
X127900000Y-16500000D01*
G75*
G02*
X127600000Y-16200000I0J300000D01*
G01*
X127600000Y-13200000D01*
G75*
G02*
X127900000Y-12900000I300000J0D01*
G01*
X128500000Y-12900000D01*
G75*
G02*
X128800000Y-13200000I0J-300000D01*
G01*
G37*
G36*
G01*
X130300000Y-13200000D02*
X130300000Y-16200000D01*
G75*
G02*
X130000000Y-16500000I-300000J0D01*
G01*
X129400000Y-16500000D01*
G75*
G02*
X129100000Y-16200000I0J300000D01*
G01*
X129100000Y-13200000D01*
G75*
G02*
X129400000Y-12900000I300000J0D01*
G01*
X130000000Y-12900000D01*
G75*
G02*
X130300000Y-13200000I0J-300000D01*
G01*
G37*
G36*
G01*
X115993750Y-24850000D02*
X117006250Y-24850000D01*
G75*
G02*
X117300000Y-25143750I0J-293750D01*
G01*
X117300000Y-25731250D01*
G75*
G02*
X117006250Y-26025000I-293750J0D01*
G01*
X115993750Y-26025000D01*
G75*
G02*
X115700000Y-25731250I0J293750D01*
G01*
X115700000Y-25143750D01*
G75*
G02*
X115993750Y-24850000I293750J0D01*
G01*
G37*
G36*
G01*
X115993750Y-22975000D02*
X117006250Y-22975000D01*
G75*
G02*
X117300000Y-23268750I0J-293750D01*
G01*
X117300000Y-23856250D01*
G75*
G02*
X117006250Y-24150000I-293750J0D01*
G01*
X115993750Y-24150000D01*
G75*
G02*
X115700000Y-23856250I0J293750D01*
G01*
X115700000Y-23268750D01*
G75*
G02*
X115993750Y-22975000I293750J0D01*
G01*
G37*
G36*
G01*
X120493750Y-24850000D02*
X121506250Y-24850000D01*
G75*
G02*
X121800000Y-25143750I0J-293750D01*
G01*
X121800000Y-25731250D01*
G75*
G02*
X121506250Y-26025000I-293750J0D01*
G01*
X120493750Y-26025000D01*
G75*
G02*
X120200000Y-25731250I0J293750D01*
G01*
X120200000Y-25143750D01*
G75*
G02*
X120493750Y-24850000I293750J0D01*
G01*
G37*
G36*
G01*
X120493750Y-22975000D02*
X121506250Y-22975000D01*
G75*
G02*
X121800000Y-23268750I0J-293750D01*
G01*
X121800000Y-23856250D01*
G75*
G02*
X121506250Y-24150000I-293750J0D01*
G01*
X120493750Y-24150000D01*
G75*
G02*
X120200000Y-23856250I0J293750D01*
G01*
X120200000Y-23268750D01*
G75*
G02*
X120493750Y-22975000I293750J0D01*
G01*
G37*
G36*
G01*
X122693750Y-24850000D02*
X123706250Y-24850000D01*
G75*
G02*
X124000000Y-25143750I0J-293750D01*
G01*
X124000000Y-25731250D01*
G75*
G02*
X123706250Y-26025000I-293750J0D01*
G01*
X122693750Y-26025000D01*
G75*
G02*
X122400000Y-25731250I0J293750D01*
G01*
X122400000Y-25143750D01*
G75*
G02*
X122693750Y-24850000I293750J0D01*
G01*
G37*
G36*
G01*
X122693750Y-22975000D02*
X123706250Y-22975000D01*
G75*
G02*
X124000000Y-23268750I0J-293750D01*
G01*
X124000000Y-23856250D01*
G75*
G02*
X123706250Y-24150000I-293750J0D01*
G01*
X122693750Y-24150000D01*
G75*
G02*
X122400000Y-23856250I0J293750D01*
G01*
X122400000Y-23268750D01*
G75*
G02*
X122693750Y-22975000I293750J0D01*
G01*
G37*
G36*
G01*
X129593750Y-29050000D02*
X130606250Y-29050000D01*
G75*
G02*
X130900000Y-29343750I0J-293750D01*
G01*
X130900000Y-29931250D01*
G75*
G02*
X130606250Y-30225000I-293750J0D01*
G01*
X129593750Y-30225000D01*
G75*
G02*
X129300000Y-29931250I0J293750D01*
G01*
X129300000Y-29343750D01*
G75*
G02*
X129593750Y-29050000I293750J0D01*
G01*
G37*
G36*
G01*
X129593750Y-27175000D02*
X130606250Y-27175000D01*
G75*
G02*
X130900000Y-27468750I0J-293750D01*
G01*
X130900000Y-28056250D01*
G75*
G02*
X130606250Y-28350000I-293750J0D01*
G01*
X129593750Y-28350000D01*
G75*
G02*
X129300000Y-28056250I0J293750D01*
G01*
X129300000Y-27468750D01*
G75*
G02*
X129593750Y-27175000I293750J0D01*
G01*
G37*
G36*
G01*
X133193750Y-57550000D02*
X134206250Y-57550000D01*
G75*
G02*
X134500000Y-57843750I0J-293750D01*
G01*
X134500000Y-58431250D01*
G75*
G02*
X134206250Y-58725000I-293750J0D01*
G01*
X133193750Y-58725000D01*
G75*
G02*
X132900000Y-58431250I0J293750D01*
G01*
X132900000Y-57843750D01*
G75*
G02*
X133193750Y-57550000I293750J0D01*
G01*
G37*
G36*
G01*
X133193750Y-55675000D02*
X134206250Y-55675000D01*
G75*
G02*
X134500000Y-55968750I0J-293750D01*
G01*
X134500000Y-56556250D01*
G75*
G02*
X134206250Y-56850000I-293750J0D01*
G01*
X133193750Y-56850000D01*
G75*
G02*
X132900000Y-56556250I0J293750D01*
G01*
X132900000Y-55968750D01*
G75*
G02*
X133193750Y-55675000I293750J0D01*
G01*
G37*
G36*
G01*
X129250000Y-21906250D02*
X129250000Y-20893750D01*
G75*
G02*
X129543750Y-20600000I293750J0D01*
G01*
X130131250Y-20600000D01*
G75*
G02*
X130425000Y-20893750I0J-293750D01*
G01*
X130425000Y-21906250D01*
G75*
G02*
X130131250Y-22200000I-293750J0D01*
G01*
X129543750Y-22200000D01*
G75*
G02*
X129250000Y-21906250I0J293750D01*
G01*
G37*
G36*
G01*
X127375000Y-21906250D02*
X127375000Y-20893750D01*
G75*
G02*
X127668750Y-20600000I293750J0D01*
G01*
X128256250Y-20600000D01*
G75*
G02*
X128550000Y-20893750I0J-293750D01*
G01*
X128550000Y-21906250D01*
G75*
G02*
X128256250Y-22200000I-293750J0D01*
G01*
X127668750Y-22200000D01*
G75*
G02*
X127375000Y-21906250I0J293750D01*
G01*
G37*
G36*
G01*
X119306250Y-24150000D02*
X118293750Y-24150000D01*
G75*
G02*
X118000000Y-23856250I0J293750D01*
G01*
X118000000Y-23268750D01*
G75*
G02*
X118293750Y-22975000I293750J0D01*
G01*
X119306250Y-22975000D01*
G75*
G02*
X119600000Y-23268750I0J-293750D01*
G01*
X119600000Y-23856250D01*
G75*
G02*
X119306250Y-24150000I-293750J0D01*
G01*
G37*
G36*
G01*
X119306250Y-26025000D02*
X118293750Y-26025000D01*
G75*
G02*
X118000000Y-25731250I0J293750D01*
G01*
X118000000Y-25143750D01*
G75*
G02*
X118293750Y-24850000I293750J0D01*
G01*
X119306250Y-24850000D01*
G75*
G02*
X119600000Y-25143750I0J-293750D01*
G01*
X119600000Y-25731250D01*
G75*
G02*
X119306250Y-26025000I-293750J0D01*
G01*
G37*
G36*
G01*
X127393750Y-29050000D02*
X128406250Y-29050000D01*
G75*
G02*
X128700000Y-29343750I0J-293750D01*
G01*
X128700000Y-29931250D01*
G75*
G02*
X128406250Y-30225000I-293750J0D01*
G01*
X127393750Y-30225000D01*
G75*
G02*
X127100000Y-29931250I0J293750D01*
G01*
X127100000Y-29343750D01*
G75*
G02*
X127393750Y-29050000I293750J0D01*
G01*
G37*
G36*
G01*
X127393750Y-27175000D02*
X128406250Y-27175000D01*
G75*
G02*
X128700000Y-27468750I0J-293750D01*
G01*
X128700000Y-28056250D01*
G75*
G02*
X128406250Y-28350000I-293750J0D01*
G01*
X127393750Y-28350000D01*
G75*
G02*
X127100000Y-28056250I0J293750D01*
G01*
X127100000Y-27468750D01*
G75*
G02*
X127393750Y-27175000I293750J0D01*
G01*
G37*
G36*
G01*
X130993750Y-57550000D02*
X132006250Y-57550000D01*
G75*
G02*
X132300000Y-57843750I0J-293750D01*
G01*
X132300000Y-58431250D01*
G75*
G02*
X132006250Y-58725000I-293750J0D01*
G01*
X130993750Y-58725000D01*
G75*
G02*
X130700000Y-58431250I0J293750D01*
G01*
X130700000Y-57843750D01*
G75*
G02*
X130993750Y-57550000I293750J0D01*
G01*
G37*
G36*
G01*
X130993750Y-55675000D02*
X132006250Y-55675000D01*
G75*
G02*
X132300000Y-55968750I0J-293750D01*
G01*
X132300000Y-56556250D01*
G75*
G02*
X132006250Y-56850000I-293750J0D01*
G01*
X130993750Y-56850000D01*
G75*
G02*
X130700000Y-56556250I0J293750D01*
G01*
X130700000Y-55968750D01*
G75*
G02*
X130993750Y-55675000I293750J0D01*
G01*
G37*
G36*
G01*
X74693750Y-25450000D02*
X75706250Y-25450000D01*
G75*
G02*
X76000000Y-25743750I0J-293750D01*
G01*
X76000000Y-26331250D01*
G75*
G02*
X75706250Y-26625000I-293750J0D01*
G01*
X74693750Y-26625000D01*
G75*
G02*
X74400000Y-26331250I0J293750D01*
G01*
X74400000Y-25743750D01*
G75*
G02*
X74693750Y-25450000I293750J0D01*
G01*
G37*
G36*
G01*
X74693750Y-23575000D02*
X75706250Y-23575000D01*
G75*
G02*
X76000000Y-23868750I0J-293750D01*
G01*
X76000000Y-24456250D01*
G75*
G02*
X75706250Y-24750000I-293750J0D01*
G01*
X74693750Y-24750000D01*
G75*
G02*
X74400000Y-24456250I0J293750D01*
G01*
X74400000Y-23868750D01*
G75*
G02*
X74693750Y-23575000I293750J0D01*
G01*
G37*
D10*
X98700000Y-42490000D03*
X98700000Y-45030000D03*
X98700000Y-47570000D03*
X98700000Y-50110000D03*
X98700000Y-52650000D03*
X98700000Y-55190000D03*
X98700000Y-57730000D03*
X98700000Y-60270000D03*
X98700000Y-62810000D03*
X98700000Y-65350000D03*
X98700000Y-67890000D03*
X98700000Y-70430000D03*
X98700000Y-72970000D03*
X98700000Y-75510000D03*
X98700000Y-78050000D03*
X98700000Y-80590000D03*
X98700000Y-83130000D03*
X98700000Y-85670000D03*
X98700000Y-88210000D03*
D11*
X98700000Y-90750000D03*
G36*
G01*
X73106250Y-24662500D02*
X72093750Y-24662500D01*
G75*
G02*
X71800000Y-24368750I0J293750D01*
G01*
X71800000Y-23781250D01*
G75*
G02*
X72093750Y-23487500I293750J0D01*
G01*
X73106250Y-23487500D01*
G75*
G02*
X73400000Y-23781250I0J-293750D01*
G01*
X73400000Y-24368750D01*
G75*
G02*
X73106250Y-24662500I-293750J0D01*
G01*
G37*
G36*
G01*
X73106250Y-22787500D02*
X72093750Y-22787500D01*
G75*
G02*
X71800000Y-22493750I0J293750D01*
G01*
X71800000Y-21906250D01*
G75*
G02*
X72093750Y-21612500I293750J0D01*
G01*
X73106250Y-21612500D01*
G75*
G02*
X73400000Y-21906250I0J-293750D01*
G01*
X73400000Y-22493750D01*
G75*
G02*
X73106250Y-22787500I-293750J0D01*
G01*
G37*
G36*
G01*
X65412036Y-26825000D02*
X68387964Y-26825000D01*
G75*
G02*
X68675000Y-27112036I0J-287036D01*
G01*
X68675000Y-28087964D01*
G75*
G02*
X68387964Y-28375000I-287036J0D01*
G01*
X65412036Y-28375000D01*
G75*
G02*
X65125000Y-28087964I0J287036D01*
G01*
X65125000Y-27112036D01*
G75*
G02*
X65412036Y-26825000I287036J0D01*
G01*
G37*
G36*
G01*
X65412036Y-21025000D02*
X68387964Y-21025000D01*
G75*
G02*
X68675000Y-21312036I0J-287036D01*
G01*
X68675000Y-22287964D01*
G75*
G02*
X68387964Y-22575000I-287036J0D01*
G01*
X65412036Y-22575000D01*
G75*
G02*
X65125000Y-22287964I0J287036D01*
G01*
X65125000Y-21312036D01*
G75*
G02*
X65412036Y-21025000I287036J0D01*
G01*
G37*
G36*
G01*
X64387964Y-22575000D02*
X61412036Y-22575000D01*
G75*
G02*
X61125000Y-22287964I0J287036D01*
G01*
X61125000Y-21312036D01*
G75*
G02*
X61412036Y-21025000I287036J0D01*
G01*
X64387964Y-21025000D01*
G75*
G02*
X64675000Y-21312036I0J-287036D01*
G01*
X64675000Y-22287964D01*
G75*
G02*
X64387964Y-22575000I-287036J0D01*
G01*
G37*
G36*
G01*
X64387964Y-28375000D02*
X61412036Y-28375000D01*
G75*
G02*
X61125000Y-28087964I0J287036D01*
G01*
X61125000Y-27112036D01*
G75*
G02*
X61412036Y-26825000I287036J0D01*
G01*
X64387964Y-26825000D01*
G75*
G02*
X64675000Y-27112036I0J-287036D01*
G01*
X64675000Y-28087964D01*
G75*
G02*
X64387964Y-28375000I-287036J0D01*
G01*
G37*
G36*
G01*
X68387964Y-8775000D02*
X65412036Y-8775000D01*
G75*
G02*
X65125000Y-8487964I0J287036D01*
G01*
X65125000Y-7512036D01*
G75*
G02*
X65412036Y-7225000I287036J0D01*
G01*
X68387964Y-7225000D01*
G75*
G02*
X68675000Y-7512036I0J-287036D01*
G01*
X68675000Y-8487964D01*
G75*
G02*
X68387964Y-8775000I-287036J0D01*
G01*
G37*
G36*
G01*
X68387964Y-14575000D02*
X65412036Y-14575000D01*
G75*
G02*
X65125000Y-14287964I0J287036D01*
G01*
X65125000Y-13312036D01*
G75*
G02*
X65412036Y-13025000I287036J0D01*
G01*
X68387964Y-13025000D01*
G75*
G02*
X68675000Y-13312036I0J-287036D01*
G01*
X68675000Y-14287964D01*
G75*
G02*
X68387964Y-14575000I-287036J0D01*
G01*
G37*
G36*
G01*
X61412036Y-13025000D02*
X64387964Y-13025000D01*
G75*
G02*
X64675000Y-13312036I0J-287036D01*
G01*
X64675000Y-14287964D01*
G75*
G02*
X64387964Y-14575000I-287036J0D01*
G01*
X61412036Y-14575000D01*
G75*
G02*
X61125000Y-14287964I0J287036D01*
G01*
X61125000Y-13312036D01*
G75*
G02*
X61412036Y-13025000I287036J0D01*
G01*
G37*
G36*
G01*
X61412036Y-7225000D02*
X64387964Y-7225000D01*
G75*
G02*
X64675000Y-7512036I0J-287036D01*
G01*
X64675000Y-8487964D01*
G75*
G02*
X64387964Y-8775000I-287036J0D01*
G01*
X61412036Y-8775000D01*
G75*
G02*
X61125000Y-8487964I0J287036D01*
G01*
X61125000Y-7512036D01*
G75*
G02*
X61412036Y-7225000I287036J0D01*
G01*
G37*
D25*
X109800000Y-13200000D03*
D26*
X104800000Y-13200000D03*
G36*
G01*
X136406250Y-56850000D02*
X135393750Y-56850000D01*
G75*
G02*
X135100000Y-56556250I0J293750D01*
G01*
X135100000Y-55968750D01*
G75*
G02*
X135393750Y-55675000I293750J0D01*
G01*
X136406250Y-55675000D01*
G75*
G02*
X136700000Y-55968750I0J-293750D01*
G01*
X136700000Y-56556250D01*
G75*
G02*
X136406250Y-56850000I-293750J0D01*
G01*
G37*
G36*
G01*
X136406250Y-58725000D02*
X135393750Y-58725000D01*
G75*
G02*
X135100000Y-58431250I0J293750D01*
G01*
X135100000Y-57843750D01*
G75*
G02*
X135393750Y-57550000I293750J0D01*
G01*
X136406250Y-57550000D01*
G75*
G02*
X136700000Y-57843750I0J-293750D01*
G01*
X136700000Y-58431250D01*
G75*
G02*
X136406250Y-58725000I-293750J0D01*
G01*
G37*
D12*
X50100000Y-24000000D03*
X50100000Y-16900000D03*
X57700000Y-10000000D03*
X51500000Y-13800000D03*
D27*
X12900000Y-17340000D03*
X12900000Y-14800000D03*
D28*
X7820000Y-9720000D03*
X7820000Y-19880000D03*
D29*
X115752080Y-10800000D03*
X125647920Y-10800000D03*
D21*
X56744000Y-30933000D03*
X61824000Y-35973000D03*
X61824000Y-46573000D03*
X56744000Y-41533000D03*
X56744000Y-62733000D03*
X61824000Y-67773000D03*
X56744000Y-73333000D03*
X61824000Y-78373000D03*
X56744000Y-83933000D03*
X61824000Y-88973000D03*
X40944000Y-30933000D03*
X46024000Y-35973000D03*
X46024000Y-46573000D03*
X40944000Y-41533000D03*
X40944000Y-52133000D03*
X46024000Y-57173000D03*
X40944000Y-62733000D03*
X46024000Y-67773000D03*
X40944000Y-73333000D03*
X46024000Y-78373000D03*
X40944000Y-83933000D03*
X46024000Y-88973000D03*
G36*
G01*
X81893750Y-40535500D02*
X82906250Y-40535500D01*
G75*
G02*
X83200000Y-40829250I0J-293750D01*
G01*
X83200000Y-41416750D01*
G75*
G02*
X82906250Y-41710500I-293750J0D01*
G01*
X81893750Y-41710500D01*
G75*
G02*
X81600000Y-41416750I0J293750D01*
G01*
X81600000Y-40829250D01*
G75*
G02*
X81893750Y-40535500I293750J0D01*
G01*
G37*
G36*
G01*
X81893750Y-38660500D02*
X82906250Y-38660500D01*
G75*
G02*
X83200000Y-38954250I0J-293750D01*
G01*
X83200000Y-39541750D01*
G75*
G02*
X82906250Y-39835500I-293750J0D01*
G01*
X81893750Y-39835500D01*
G75*
G02*
X81600000Y-39541750I0J293750D01*
G01*
X81600000Y-38954250D01*
G75*
G02*
X81893750Y-38660500I293750J0D01*
G01*
G37*
G36*
G01*
X81893750Y-50501500D02*
X82906250Y-50501500D01*
G75*
G02*
X83200000Y-50795250I0J-293750D01*
G01*
X83200000Y-51382750D01*
G75*
G02*
X82906250Y-51676500I-293750J0D01*
G01*
X81893750Y-51676500D01*
G75*
G02*
X81600000Y-51382750I0J293750D01*
G01*
X81600000Y-50795250D01*
G75*
G02*
X81893750Y-50501500I293750J0D01*
G01*
G37*
G36*
G01*
X81893750Y-52376500D02*
X82906250Y-52376500D01*
G75*
G02*
X83200000Y-52670250I0J-293750D01*
G01*
X83200000Y-53257750D01*
G75*
G02*
X82906250Y-53551500I-293750J0D01*
G01*
X81893750Y-53551500D01*
G75*
G02*
X81600000Y-53257750I0J293750D01*
G01*
X81600000Y-52670250D01*
G75*
G02*
X81893750Y-52376500I293750J0D01*
G01*
G37*
G36*
G01*
X81893750Y-62185500D02*
X82906250Y-62185500D01*
G75*
G02*
X83200000Y-62479250I0J-293750D01*
G01*
X83200000Y-63066750D01*
G75*
G02*
X82906250Y-63360500I-293750J0D01*
G01*
X81893750Y-63360500D01*
G75*
G02*
X81600000Y-63066750I0J293750D01*
G01*
X81600000Y-62479250D01*
G75*
G02*
X81893750Y-62185500I293750J0D01*
G01*
G37*
G36*
G01*
X81893750Y-64060500D02*
X82906250Y-64060500D01*
G75*
G02*
X83200000Y-64354250I0J-293750D01*
G01*
X83200000Y-64941750D01*
G75*
G02*
X82906250Y-65235500I-293750J0D01*
G01*
X81893750Y-65235500D01*
G75*
G02*
X81600000Y-64941750I0J293750D01*
G01*
X81600000Y-64354250D01*
G75*
G02*
X81893750Y-64060500I293750J0D01*
G01*
G37*
G36*
G01*
X81893750Y-74123500D02*
X82906250Y-74123500D01*
G75*
G02*
X83200000Y-74417250I0J-293750D01*
G01*
X83200000Y-75004750D01*
G75*
G02*
X82906250Y-75298500I-293750J0D01*
G01*
X81893750Y-75298500D01*
G75*
G02*
X81600000Y-75004750I0J293750D01*
G01*
X81600000Y-74417250D01*
G75*
G02*
X81893750Y-74123500I293750J0D01*
G01*
G37*
G36*
G01*
X81893750Y-75998500D02*
X82906250Y-75998500D01*
G75*
G02*
X83200000Y-76292250I0J-293750D01*
G01*
X83200000Y-76879750D01*
G75*
G02*
X82906250Y-77173500I-293750J0D01*
G01*
X81893750Y-77173500D01*
G75*
G02*
X81600000Y-76879750I0J293750D01*
G01*
X81600000Y-76292250D01*
G75*
G02*
X81893750Y-75998500I293750J0D01*
G01*
G37*
G36*
G01*
X81893750Y-87858000D02*
X82906250Y-87858000D01*
G75*
G02*
X83200000Y-88151750I0J-293750D01*
G01*
X83200000Y-88739250D01*
G75*
G02*
X82906250Y-89033000I-293750J0D01*
G01*
X81893750Y-89033000D01*
G75*
G02*
X81600000Y-88739250I0J293750D01*
G01*
X81600000Y-88151750D01*
G75*
G02*
X81893750Y-87858000I293750J0D01*
G01*
G37*
G36*
G01*
X81893750Y-85983000D02*
X82906250Y-85983000D01*
G75*
G02*
X83200000Y-86276750I0J-293750D01*
G01*
X83200000Y-86864250D01*
G75*
G02*
X82906250Y-87158000I-293750J0D01*
G01*
X81893750Y-87158000D01*
G75*
G02*
X81600000Y-86864250I0J293750D01*
G01*
X81600000Y-86276750D01*
G75*
G02*
X81893750Y-85983000I293750J0D01*
G01*
G37*
G36*
G01*
X64199000Y-31948000D02*
X65569000Y-31948000D01*
G75*
G02*
X65859000Y-32238000I0J-290000D01*
G01*
X65859000Y-33108000D01*
G75*
G02*
X65569000Y-33398000I-290000J0D01*
G01*
X64199000Y-33398000D01*
G75*
G02*
X63909000Y-33108000I0J290000D01*
G01*
X63909000Y-32238000D01*
G75*
G02*
X64199000Y-31948000I290000J0D01*
G01*
G37*
G36*
G01*
X64199000Y-34748000D02*
X65569000Y-34748000D01*
G75*
G02*
X65859000Y-35038000I0J-290000D01*
G01*
X65859000Y-35908000D01*
G75*
G02*
X65569000Y-36198000I-290000J0D01*
G01*
X64199000Y-36198000D01*
G75*
G02*
X63909000Y-35908000I0J290000D01*
G01*
X63909000Y-35038000D01*
G75*
G02*
X64199000Y-34748000I290000J0D01*
G01*
G37*
G36*
G01*
X64199000Y-45348000D02*
X65569000Y-45348000D01*
G75*
G02*
X65859000Y-45638000I0J-290000D01*
G01*
X65859000Y-46508000D01*
G75*
G02*
X65569000Y-46798000I-290000J0D01*
G01*
X64199000Y-46798000D01*
G75*
G02*
X63909000Y-46508000I0J290000D01*
G01*
X63909000Y-45638000D01*
G75*
G02*
X64199000Y-45348000I290000J0D01*
G01*
G37*
G36*
G01*
X64199000Y-42548000D02*
X65569000Y-42548000D01*
G75*
G02*
X65859000Y-42838000I0J-290000D01*
G01*
X65859000Y-43708000D01*
G75*
G02*
X65569000Y-43998000I-290000J0D01*
G01*
X64199000Y-43998000D01*
G75*
G02*
X63909000Y-43708000I0J290000D01*
G01*
X63909000Y-42838000D01*
G75*
G02*
X64199000Y-42548000I290000J0D01*
G01*
G37*
G36*
G01*
X64099000Y-55948000D02*
X65469000Y-55948000D01*
G75*
G02*
X65759000Y-56238000I0J-290000D01*
G01*
X65759000Y-57108000D01*
G75*
G02*
X65469000Y-57398000I-290000J0D01*
G01*
X64099000Y-57398000D01*
G75*
G02*
X63809000Y-57108000I0J290000D01*
G01*
X63809000Y-56238000D01*
G75*
G02*
X64099000Y-55948000I290000J0D01*
G01*
G37*
G36*
G01*
X64099000Y-53148000D02*
X65469000Y-53148000D01*
G75*
G02*
X65759000Y-53438000I0J-290000D01*
G01*
X65759000Y-54308000D01*
G75*
G02*
X65469000Y-54598000I-290000J0D01*
G01*
X64099000Y-54598000D01*
G75*
G02*
X63809000Y-54308000I0J290000D01*
G01*
X63809000Y-53438000D01*
G75*
G02*
X64099000Y-53148000I290000J0D01*
G01*
G37*
G36*
G01*
X64099000Y-66548000D02*
X65469000Y-66548000D01*
G75*
G02*
X65759000Y-66838000I0J-290000D01*
G01*
X65759000Y-67708000D01*
G75*
G02*
X65469000Y-67998000I-290000J0D01*
G01*
X64099000Y-67998000D01*
G75*
G02*
X63809000Y-67708000I0J290000D01*
G01*
X63809000Y-66838000D01*
G75*
G02*
X64099000Y-66548000I290000J0D01*
G01*
G37*
G36*
G01*
X64099000Y-63748000D02*
X65469000Y-63748000D01*
G75*
G02*
X65759000Y-64038000I0J-290000D01*
G01*
X65759000Y-64908000D01*
G75*
G02*
X65469000Y-65198000I-290000J0D01*
G01*
X64099000Y-65198000D01*
G75*
G02*
X63809000Y-64908000I0J290000D01*
G01*
X63809000Y-64038000D01*
G75*
G02*
X64099000Y-63748000I290000J0D01*
G01*
G37*
G36*
G01*
X64099000Y-74348000D02*
X65469000Y-74348000D01*
G75*
G02*
X65759000Y-74638000I0J-290000D01*
G01*
X65759000Y-75508000D01*
G75*
G02*
X65469000Y-75798000I-290000J0D01*
G01*
X64099000Y-75798000D01*
G75*
G02*
X63809000Y-75508000I0J290000D01*
G01*
X63809000Y-74638000D01*
G75*
G02*
X64099000Y-74348000I290000J0D01*
G01*
G37*
G36*
G01*
X64099000Y-77148000D02*
X65469000Y-77148000D01*
G75*
G02*
X65759000Y-77438000I0J-290000D01*
G01*
X65759000Y-78308000D01*
G75*
G02*
X65469000Y-78598000I-290000J0D01*
G01*
X64099000Y-78598000D01*
G75*
G02*
X63809000Y-78308000I0J290000D01*
G01*
X63809000Y-77438000D01*
G75*
G02*
X64099000Y-77148000I290000J0D01*
G01*
G37*
G36*
G01*
X64099000Y-84948000D02*
X65469000Y-84948000D01*
G75*
G02*
X65759000Y-85238000I0J-290000D01*
G01*
X65759000Y-86108000D01*
G75*
G02*
X65469000Y-86398000I-290000J0D01*
G01*
X64099000Y-86398000D01*
G75*
G02*
X63809000Y-86108000I0J290000D01*
G01*
X63809000Y-85238000D01*
G75*
G02*
X64099000Y-84948000I290000J0D01*
G01*
G37*
G36*
G01*
X64099000Y-87748000D02*
X65469000Y-87748000D01*
G75*
G02*
X65759000Y-88038000I0J-290000D01*
G01*
X65759000Y-88908000D01*
G75*
G02*
X65469000Y-89198000I-290000J0D01*
G01*
X64099000Y-89198000D01*
G75*
G02*
X63809000Y-88908000I0J290000D01*
G01*
X63809000Y-88038000D01*
G75*
G02*
X64099000Y-87748000I290000J0D01*
G01*
G37*
G36*
G01*
X59809000Y-32288000D02*
X59809000Y-33658000D01*
G75*
G02*
X59519000Y-33948000I-290000J0D01*
G01*
X58649000Y-33948000D01*
G75*
G02*
X58359000Y-33658000I0J290000D01*
G01*
X58359000Y-32288000D01*
G75*
G02*
X58649000Y-31998000I290000J0D01*
G01*
X59519000Y-31998000D01*
G75*
G02*
X59809000Y-32288000I0J-290000D01*
G01*
G37*
G36*
G01*
X62609000Y-32288000D02*
X62609000Y-33658000D01*
G75*
G02*
X62319000Y-33948000I-290000J0D01*
G01*
X61449000Y-33948000D01*
G75*
G02*
X61159000Y-33658000I0J290000D01*
G01*
X61159000Y-32288000D01*
G75*
G02*
X61449000Y-31998000I290000J0D01*
G01*
X62319000Y-31998000D01*
G75*
G02*
X62609000Y-32288000I0J-290000D01*
G01*
G37*
G36*
G01*
X62609000Y-42888000D02*
X62609000Y-44258000D01*
G75*
G02*
X62319000Y-44548000I-290000J0D01*
G01*
X61449000Y-44548000D01*
G75*
G02*
X61159000Y-44258000I0J290000D01*
G01*
X61159000Y-42888000D01*
G75*
G02*
X61449000Y-42598000I290000J0D01*
G01*
X62319000Y-42598000D01*
G75*
G02*
X62609000Y-42888000I0J-290000D01*
G01*
G37*
G36*
G01*
X59809000Y-42888000D02*
X59809000Y-44258000D01*
G75*
G02*
X59519000Y-44548000I-290000J0D01*
G01*
X58649000Y-44548000D01*
G75*
G02*
X58359000Y-44258000I0J290000D01*
G01*
X58359000Y-42888000D01*
G75*
G02*
X58649000Y-42598000I290000J0D01*
G01*
X59519000Y-42598000D01*
G75*
G02*
X59809000Y-42888000I0J-290000D01*
G01*
G37*
G36*
G01*
X62509000Y-53488000D02*
X62509000Y-54858000D01*
G75*
G02*
X62219000Y-55148000I-290000J0D01*
G01*
X61349000Y-55148000D01*
G75*
G02*
X61059000Y-54858000I0J290000D01*
G01*
X61059000Y-53488000D01*
G75*
G02*
X61349000Y-53198000I290000J0D01*
G01*
X62219000Y-53198000D01*
G75*
G02*
X62509000Y-53488000I0J-290000D01*
G01*
G37*
G36*
G01*
X59709000Y-53488000D02*
X59709000Y-54858000D01*
G75*
G02*
X59419000Y-55148000I-290000J0D01*
G01*
X58549000Y-55148000D01*
G75*
G02*
X58259000Y-54858000I0J290000D01*
G01*
X58259000Y-53488000D01*
G75*
G02*
X58549000Y-53198000I290000J0D01*
G01*
X59419000Y-53198000D01*
G75*
G02*
X59709000Y-53488000I0J-290000D01*
G01*
G37*
G36*
G01*
X62509000Y-64088000D02*
X62509000Y-65458000D01*
G75*
G02*
X62219000Y-65748000I-290000J0D01*
G01*
X61349000Y-65748000D01*
G75*
G02*
X61059000Y-65458000I0J290000D01*
G01*
X61059000Y-64088000D01*
G75*
G02*
X61349000Y-63798000I290000J0D01*
G01*
X62219000Y-63798000D01*
G75*
G02*
X62509000Y-64088000I0J-290000D01*
G01*
G37*
G36*
G01*
X59709000Y-64088000D02*
X59709000Y-65458000D01*
G75*
G02*
X59419000Y-65748000I-290000J0D01*
G01*
X58549000Y-65748000D01*
G75*
G02*
X58259000Y-65458000I0J290000D01*
G01*
X58259000Y-64088000D01*
G75*
G02*
X58549000Y-63798000I290000J0D01*
G01*
X59419000Y-63798000D01*
G75*
G02*
X59709000Y-64088000I0J-290000D01*
G01*
G37*
G36*
G01*
X59709000Y-74688000D02*
X59709000Y-76058000D01*
G75*
G02*
X59419000Y-76348000I-290000J0D01*
G01*
X58549000Y-76348000D01*
G75*
G02*
X58259000Y-76058000I0J290000D01*
G01*
X58259000Y-74688000D01*
G75*
G02*
X58549000Y-74398000I290000J0D01*
G01*
X59419000Y-74398000D01*
G75*
G02*
X59709000Y-74688000I0J-290000D01*
G01*
G37*
G36*
G01*
X62509000Y-74688000D02*
X62509000Y-76058000D01*
G75*
G02*
X62219000Y-76348000I-290000J0D01*
G01*
X61349000Y-76348000D01*
G75*
G02*
X61059000Y-76058000I0J290000D01*
G01*
X61059000Y-74688000D01*
G75*
G02*
X61349000Y-74398000I290000J0D01*
G01*
X62219000Y-74398000D01*
G75*
G02*
X62509000Y-74688000I0J-290000D01*
G01*
G37*
G36*
G01*
X59809000Y-85288000D02*
X59809000Y-86658000D01*
G75*
G02*
X59519000Y-86948000I-290000J0D01*
G01*
X58649000Y-86948000D01*
G75*
G02*
X58359000Y-86658000I0J290000D01*
G01*
X58359000Y-85288000D01*
G75*
G02*
X58649000Y-84998000I290000J0D01*
G01*
X59519000Y-84998000D01*
G75*
G02*
X59809000Y-85288000I0J-290000D01*
G01*
G37*
G36*
G01*
X62609000Y-85288000D02*
X62609000Y-86658000D01*
G75*
G02*
X62319000Y-86948000I-290000J0D01*
G01*
X61449000Y-86948000D01*
G75*
G02*
X61159000Y-86658000I0J290000D01*
G01*
X61159000Y-85288000D01*
G75*
G02*
X61449000Y-84998000I290000J0D01*
G01*
X62319000Y-84998000D01*
G75*
G02*
X62609000Y-85288000I0J-290000D01*
G01*
G37*
G36*
G01*
X70606250Y-22787500D02*
X69593750Y-22787500D01*
G75*
G02*
X69300000Y-22493750I0J293750D01*
G01*
X69300000Y-21906250D01*
G75*
G02*
X69593750Y-21612500I293750J0D01*
G01*
X70606250Y-21612500D01*
G75*
G02*
X70900000Y-21906250I0J-293750D01*
G01*
X70900000Y-22493750D01*
G75*
G02*
X70606250Y-22787500I-293750J0D01*
G01*
G37*
G36*
G01*
X70606250Y-24662500D02*
X69593750Y-24662500D01*
G75*
G02*
X69300000Y-24368750I0J293750D01*
G01*
X69300000Y-23781250D01*
G75*
G02*
X69593750Y-23487500I293750J0D01*
G01*
X70606250Y-23487500D01*
G75*
G02*
X70900000Y-23781250I0J-293750D01*
G01*
X70900000Y-24368750D01*
G75*
G02*
X70606250Y-24662500I-293750J0D01*
G01*
G37*
G36*
G01*
X54369000Y-33398000D02*
X52999000Y-33398000D01*
G75*
G02*
X52709000Y-33108000I0J290000D01*
G01*
X52709000Y-32238000D01*
G75*
G02*
X52999000Y-31948000I290000J0D01*
G01*
X54369000Y-31948000D01*
G75*
G02*
X54659000Y-32238000I0J-290000D01*
G01*
X54659000Y-33108000D01*
G75*
G02*
X54369000Y-33398000I-290000J0D01*
G01*
G37*
G36*
G01*
X54369000Y-36198000D02*
X52999000Y-36198000D01*
G75*
G02*
X52709000Y-35908000I0J290000D01*
G01*
X52709000Y-35038000D01*
G75*
G02*
X52999000Y-34748000I290000J0D01*
G01*
X54369000Y-34748000D01*
G75*
G02*
X54659000Y-35038000I0J-290000D01*
G01*
X54659000Y-35908000D01*
G75*
G02*
X54369000Y-36198000I-290000J0D01*
G01*
G37*
G36*
G01*
X54369000Y-46798000D02*
X52999000Y-46798000D01*
G75*
G02*
X52709000Y-46508000I0J290000D01*
G01*
X52709000Y-45638000D01*
G75*
G02*
X52999000Y-45348000I290000J0D01*
G01*
X54369000Y-45348000D01*
G75*
G02*
X54659000Y-45638000I0J-290000D01*
G01*
X54659000Y-46508000D01*
G75*
G02*
X54369000Y-46798000I-290000J0D01*
G01*
G37*
G36*
G01*
X54369000Y-43998000D02*
X52999000Y-43998000D01*
G75*
G02*
X52709000Y-43708000I0J290000D01*
G01*
X52709000Y-42838000D01*
G75*
G02*
X52999000Y-42548000I290000J0D01*
G01*
X54369000Y-42548000D01*
G75*
G02*
X54659000Y-42838000I0J-290000D01*
G01*
X54659000Y-43708000D01*
G75*
G02*
X54369000Y-43998000I-290000J0D01*
G01*
G37*
G36*
G01*
X54469000Y-57398000D02*
X53099000Y-57398000D01*
G75*
G02*
X52809000Y-57108000I0J290000D01*
G01*
X52809000Y-56238000D01*
G75*
G02*
X53099000Y-55948000I290000J0D01*
G01*
X54469000Y-55948000D01*
G75*
G02*
X54759000Y-56238000I0J-290000D01*
G01*
X54759000Y-57108000D01*
G75*
G02*
X54469000Y-57398000I-290000J0D01*
G01*
G37*
G36*
G01*
X54469000Y-54598000D02*
X53099000Y-54598000D01*
G75*
G02*
X52809000Y-54308000I0J290000D01*
G01*
X52809000Y-53438000D01*
G75*
G02*
X53099000Y-53148000I290000J0D01*
G01*
X54469000Y-53148000D01*
G75*
G02*
X54759000Y-53438000I0J-290000D01*
G01*
X54759000Y-54308000D01*
G75*
G02*
X54469000Y-54598000I-290000J0D01*
G01*
G37*
G36*
G01*
X54469000Y-65198000D02*
X53099000Y-65198000D01*
G75*
G02*
X52809000Y-64908000I0J290000D01*
G01*
X52809000Y-64038000D01*
G75*
G02*
X53099000Y-63748000I290000J0D01*
G01*
X54469000Y-63748000D01*
G75*
G02*
X54759000Y-64038000I0J-290000D01*
G01*
X54759000Y-64908000D01*
G75*
G02*
X54469000Y-65198000I-290000J0D01*
G01*
G37*
G36*
G01*
X54469000Y-67998000D02*
X53099000Y-67998000D01*
G75*
G02*
X52809000Y-67708000I0J290000D01*
G01*
X52809000Y-66838000D01*
G75*
G02*
X53099000Y-66548000I290000J0D01*
G01*
X54469000Y-66548000D01*
G75*
G02*
X54759000Y-66838000I0J-290000D01*
G01*
X54759000Y-67708000D01*
G75*
G02*
X54469000Y-67998000I-290000J0D01*
G01*
G37*
G36*
G01*
X54469000Y-75698000D02*
X53099000Y-75698000D01*
G75*
G02*
X52809000Y-75408000I0J290000D01*
G01*
X52809000Y-74538000D01*
G75*
G02*
X53099000Y-74248000I290000J0D01*
G01*
X54469000Y-74248000D01*
G75*
G02*
X54759000Y-74538000I0J-290000D01*
G01*
X54759000Y-75408000D01*
G75*
G02*
X54469000Y-75698000I-290000J0D01*
G01*
G37*
G36*
G01*
X54469000Y-78498000D02*
X53099000Y-78498000D01*
G75*
G02*
X52809000Y-78208000I0J290000D01*
G01*
X52809000Y-77338000D01*
G75*
G02*
X53099000Y-77048000I290000J0D01*
G01*
X54469000Y-77048000D01*
G75*
G02*
X54759000Y-77338000I0J-290000D01*
G01*
X54759000Y-78208000D01*
G75*
G02*
X54469000Y-78498000I-290000J0D01*
G01*
G37*
G36*
G01*
X54469000Y-86398000D02*
X53099000Y-86398000D01*
G75*
G02*
X52809000Y-86108000I0J290000D01*
G01*
X52809000Y-85238000D01*
G75*
G02*
X53099000Y-84948000I290000J0D01*
G01*
X54469000Y-84948000D01*
G75*
G02*
X54759000Y-85238000I0J-290000D01*
G01*
X54759000Y-86108000D01*
G75*
G02*
X54469000Y-86398000I-290000J0D01*
G01*
G37*
G36*
G01*
X54469000Y-89198000D02*
X53099000Y-89198000D01*
G75*
G02*
X52809000Y-88908000I0J290000D01*
G01*
X52809000Y-88038000D01*
G75*
G02*
X53099000Y-87748000I290000J0D01*
G01*
X54469000Y-87748000D01*
G75*
G02*
X54759000Y-88038000I0J-290000D01*
G01*
X54759000Y-88908000D01*
G75*
G02*
X54469000Y-89198000I-290000J0D01*
G01*
G37*
G36*
G01*
X46809000Y-32288000D02*
X46809000Y-33658000D01*
G75*
G02*
X46519000Y-33948000I-290000J0D01*
G01*
X45649000Y-33948000D01*
G75*
G02*
X45359000Y-33658000I0J290000D01*
G01*
X45359000Y-32288000D01*
G75*
G02*
X45649000Y-31998000I290000J0D01*
G01*
X46519000Y-31998000D01*
G75*
G02*
X46809000Y-32288000I0J-290000D01*
G01*
G37*
G36*
G01*
X44009000Y-32288000D02*
X44009000Y-33658000D01*
G75*
G02*
X43719000Y-33948000I-290000J0D01*
G01*
X42849000Y-33948000D01*
G75*
G02*
X42559000Y-33658000I0J290000D01*
G01*
X42559000Y-32288000D01*
G75*
G02*
X42849000Y-31998000I290000J0D01*
G01*
X43719000Y-31998000D01*
G75*
G02*
X44009000Y-32288000I0J-290000D01*
G01*
G37*
G36*
G01*
X46809000Y-42888000D02*
X46809000Y-44258000D01*
G75*
G02*
X46519000Y-44548000I-290000J0D01*
G01*
X45649000Y-44548000D01*
G75*
G02*
X45359000Y-44258000I0J290000D01*
G01*
X45359000Y-42888000D01*
G75*
G02*
X45649000Y-42598000I290000J0D01*
G01*
X46519000Y-42598000D01*
G75*
G02*
X46809000Y-42888000I0J-290000D01*
G01*
G37*
G36*
G01*
X44009000Y-42888000D02*
X44009000Y-44258000D01*
G75*
G02*
X43719000Y-44548000I-290000J0D01*
G01*
X42849000Y-44548000D01*
G75*
G02*
X42559000Y-44258000I0J290000D01*
G01*
X42559000Y-42888000D01*
G75*
G02*
X42849000Y-42598000I290000J0D01*
G01*
X43719000Y-42598000D01*
G75*
G02*
X44009000Y-42888000I0J-290000D01*
G01*
G37*
G36*
G01*
X43909000Y-53488000D02*
X43909000Y-54858000D01*
G75*
G02*
X43619000Y-55148000I-290000J0D01*
G01*
X42749000Y-55148000D01*
G75*
G02*
X42459000Y-54858000I0J290000D01*
G01*
X42459000Y-53488000D01*
G75*
G02*
X42749000Y-53198000I290000J0D01*
G01*
X43619000Y-53198000D01*
G75*
G02*
X43909000Y-53488000I0J-290000D01*
G01*
G37*
G36*
G01*
X46709000Y-53488000D02*
X46709000Y-54858000D01*
G75*
G02*
X46419000Y-55148000I-290000J0D01*
G01*
X45549000Y-55148000D01*
G75*
G02*
X45259000Y-54858000I0J290000D01*
G01*
X45259000Y-53488000D01*
G75*
G02*
X45549000Y-53198000I290000J0D01*
G01*
X46419000Y-53198000D01*
G75*
G02*
X46709000Y-53488000I0J-290000D01*
G01*
G37*
G36*
G01*
X46809000Y-64088000D02*
X46809000Y-65458000D01*
G75*
G02*
X46519000Y-65748000I-290000J0D01*
G01*
X45649000Y-65748000D01*
G75*
G02*
X45359000Y-65458000I0J290000D01*
G01*
X45359000Y-64088000D01*
G75*
G02*
X45649000Y-63798000I290000J0D01*
G01*
X46519000Y-63798000D01*
G75*
G02*
X46809000Y-64088000I0J-290000D01*
G01*
G37*
G36*
G01*
X44009000Y-64088000D02*
X44009000Y-65458000D01*
G75*
G02*
X43719000Y-65748000I-290000J0D01*
G01*
X42849000Y-65748000D01*
G75*
G02*
X42559000Y-65458000I0J290000D01*
G01*
X42559000Y-64088000D01*
G75*
G02*
X42849000Y-63798000I290000J0D01*
G01*
X43719000Y-63798000D01*
G75*
G02*
X44009000Y-64088000I0J-290000D01*
G01*
G37*
G36*
G01*
X43909000Y-74688000D02*
X43909000Y-76058000D01*
G75*
G02*
X43619000Y-76348000I-290000J0D01*
G01*
X42749000Y-76348000D01*
G75*
G02*
X42459000Y-76058000I0J290000D01*
G01*
X42459000Y-74688000D01*
G75*
G02*
X42749000Y-74398000I290000J0D01*
G01*
X43619000Y-74398000D01*
G75*
G02*
X43909000Y-74688000I0J-290000D01*
G01*
G37*
G36*
G01*
X46709000Y-74688000D02*
X46709000Y-76058000D01*
G75*
G02*
X46419000Y-76348000I-290000J0D01*
G01*
X45549000Y-76348000D01*
G75*
G02*
X45259000Y-76058000I0J290000D01*
G01*
X45259000Y-74688000D01*
G75*
G02*
X45549000Y-74398000I290000J0D01*
G01*
X46419000Y-74398000D01*
G75*
G02*
X46709000Y-74688000I0J-290000D01*
G01*
G37*
G36*
G01*
X46709000Y-85288000D02*
X46709000Y-86658000D01*
G75*
G02*
X46419000Y-86948000I-290000J0D01*
G01*
X45549000Y-86948000D01*
G75*
G02*
X45259000Y-86658000I0J290000D01*
G01*
X45259000Y-85288000D01*
G75*
G02*
X45549000Y-84998000I290000J0D01*
G01*
X46419000Y-84998000D01*
G75*
G02*
X46709000Y-85288000I0J-290000D01*
G01*
G37*
G36*
G01*
X43909000Y-85288000D02*
X43909000Y-86658000D01*
G75*
G02*
X43619000Y-86948000I-290000J0D01*
G01*
X42749000Y-86948000D01*
G75*
G02*
X42459000Y-86658000I0J290000D01*
G01*
X42459000Y-85288000D01*
G75*
G02*
X42749000Y-84998000I290000J0D01*
G01*
X43619000Y-84998000D01*
G75*
G02*
X43909000Y-85288000I0J-290000D01*
G01*
G37*
G36*
G01*
X38569000Y-33398000D02*
X37199000Y-33398000D01*
G75*
G02*
X36909000Y-33108000I0J290000D01*
G01*
X36909000Y-32238000D01*
G75*
G02*
X37199000Y-31948000I290000J0D01*
G01*
X38569000Y-31948000D01*
G75*
G02*
X38859000Y-32238000I0J-290000D01*
G01*
X38859000Y-33108000D01*
G75*
G02*
X38569000Y-33398000I-290000J0D01*
G01*
G37*
G36*
G01*
X38569000Y-36198000D02*
X37199000Y-36198000D01*
G75*
G02*
X36909000Y-35908000I0J290000D01*
G01*
X36909000Y-35038000D01*
G75*
G02*
X37199000Y-34748000I290000J0D01*
G01*
X38569000Y-34748000D01*
G75*
G02*
X38859000Y-35038000I0J-290000D01*
G01*
X38859000Y-35908000D01*
G75*
G02*
X38569000Y-36198000I-290000J0D01*
G01*
G37*
G36*
G01*
X38569000Y-43998000D02*
X37199000Y-43998000D01*
G75*
G02*
X36909000Y-43708000I0J290000D01*
G01*
X36909000Y-42838000D01*
G75*
G02*
X37199000Y-42548000I290000J0D01*
G01*
X38569000Y-42548000D01*
G75*
G02*
X38859000Y-42838000I0J-290000D01*
G01*
X38859000Y-43708000D01*
G75*
G02*
X38569000Y-43998000I-290000J0D01*
G01*
G37*
G36*
G01*
X38569000Y-46798000D02*
X37199000Y-46798000D01*
G75*
G02*
X36909000Y-46508000I0J290000D01*
G01*
X36909000Y-45638000D01*
G75*
G02*
X37199000Y-45348000I290000J0D01*
G01*
X38569000Y-45348000D01*
G75*
G02*
X38859000Y-45638000I0J-290000D01*
G01*
X38859000Y-46508000D01*
G75*
G02*
X38569000Y-46798000I-290000J0D01*
G01*
G37*
G36*
G01*
X38569000Y-57398000D02*
X37199000Y-57398000D01*
G75*
G02*
X36909000Y-57108000I0J290000D01*
G01*
X36909000Y-56238000D01*
G75*
G02*
X37199000Y-55948000I290000J0D01*
G01*
X38569000Y-55948000D01*
G75*
G02*
X38859000Y-56238000I0J-290000D01*
G01*
X38859000Y-57108000D01*
G75*
G02*
X38569000Y-57398000I-290000J0D01*
G01*
G37*
G36*
G01*
X38569000Y-54598000D02*
X37199000Y-54598000D01*
G75*
G02*
X36909000Y-54308000I0J290000D01*
G01*
X36909000Y-53438000D01*
G75*
G02*
X37199000Y-53148000I290000J0D01*
G01*
X38569000Y-53148000D01*
G75*
G02*
X38859000Y-53438000I0J-290000D01*
G01*
X38859000Y-54308000D01*
G75*
G02*
X38569000Y-54598000I-290000J0D01*
G01*
G37*
G36*
G01*
X38569000Y-65198000D02*
X37199000Y-65198000D01*
G75*
G02*
X36909000Y-64908000I0J290000D01*
G01*
X36909000Y-64038000D01*
G75*
G02*
X37199000Y-63748000I290000J0D01*
G01*
X38569000Y-63748000D01*
G75*
G02*
X38859000Y-64038000I0J-290000D01*
G01*
X38859000Y-64908000D01*
G75*
G02*
X38569000Y-65198000I-290000J0D01*
G01*
G37*
G36*
G01*
X38569000Y-67998000D02*
X37199000Y-67998000D01*
G75*
G02*
X36909000Y-67708000I0J290000D01*
G01*
X36909000Y-66838000D01*
G75*
G02*
X37199000Y-66548000I290000J0D01*
G01*
X38569000Y-66548000D01*
G75*
G02*
X38859000Y-66838000I0J-290000D01*
G01*
X38859000Y-67708000D01*
G75*
G02*
X38569000Y-67998000I-290000J0D01*
G01*
G37*
G36*
G01*
X38569000Y-78598000D02*
X37199000Y-78598000D01*
G75*
G02*
X36909000Y-78308000I0J290000D01*
G01*
X36909000Y-77438000D01*
G75*
G02*
X37199000Y-77148000I290000J0D01*
G01*
X38569000Y-77148000D01*
G75*
G02*
X38859000Y-77438000I0J-290000D01*
G01*
X38859000Y-78308000D01*
G75*
G02*
X38569000Y-78598000I-290000J0D01*
G01*
G37*
G36*
G01*
X38569000Y-75798000D02*
X37199000Y-75798000D01*
G75*
G02*
X36909000Y-75508000I0J290000D01*
G01*
X36909000Y-74638000D01*
G75*
G02*
X37199000Y-74348000I290000J0D01*
G01*
X38569000Y-74348000D01*
G75*
G02*
X38859000Y-74638000I0J-290000D01*
G01*
X38859000Y-75508000D01*
G75*
G02*
X38569000Y-75798000I-290000J0D01*
G01*
G37*
G36*
G01*
X38569000Y-89198000D02*
X37199000Y-89198000D01*
G75*
G02*
X36909000Y-88908000I0J290000D01*
G01*
X36909000Y-88038000D01*
G75*
G02*
X37199000Y-87748000I290000J0D01*
G01*
X38569000Y-87748000D01*
G75*
G02*
X38859000Y-88038000I0J-290000D01*
G01*
X38859000Y-88908000D01*
G75*
G02*
X38569000Y-89198000I-290000J0D01*
G01*
G37*
G36*
G01*
X38569000Y-86398000D02*
X37199000Y-86398000D01*
G75*
G02*
X36909000Y-86108000I0J290000D01*
G01*
X36909000Y-85238000D01*
G75*
G02*
X37199000Y-84948000I290000J0D01*
G01*
X38569000Y-84948000D01*
G75*
G02*
X38859000Y-85238000I0J-290000D01*
G01*
X38859000Y-86108000D01*
G75*
G02*
X38569000Y-86398000I-290000J0D01*
G01*
G37*
G36*
G01*
X69593750Y-10875000D02*
X70606250Y-10875000D01*
G75*
G02*
X70900000Y-11168750I0J-293750D01*
G01*
X70900000Y-11756250D01*
G75*
G02*
X70606250Y-12050000I-293750J0D01*
G01*
X69593750Y-12050000D01*
G75*
G02*
X69300000Y-11756250I0J293750D01*
G01*
X69300000Y-11168750D01*
G75*
G02*
X69593750Y-10875000I293750J0D01*
G01*
G37*
G36*
G01*
X69593750Y-12750000D02*
X70606250Y-12750000D01*
G75*
G02*
X70900000Y-13043750I0J-293750D01*
G01*
X70900000Y-13631250D01*
G75*
G02*
X70606250Y-13925000I-293750J0D01*
G01*
X69593750Y-13925000D01*
G75*
G02*
X69300000Y-13631250I0J293750D01*
G01*
X69300000Y-13043750D01*
G75*
G02*
X69593750Y-12750000I293750J0D01*
G01*
G37*
G36*
G01*
X18390250Y-34247500D02*
X17377750Y-34247500D01*
G75*
G02*
X17084000Y-33953750I0J293750D01*
G01*
X17084000Y-33366250D01*
G75*
G02*
X17377750Y-33072500I293750J0D01*
G01*
X18390250Y-33072500D01*
G75*
G02*
X18684000Y-33366250I0J-293750D01*
G01*
X18684000Y-33953750D01*
G75*
G02*
X18390250Y-34247500I-293750J0D01*
G01*
G37*
G36*
G01*
X18390250Y-36122500D02*
X17377750Y-36122500D01*
G75*
G02*
X17084000Y-35828750I0J293750D01*
G01*
X17084000Y-35241250D01*
G75*
G02*
X17377750Y-34947500I293750J0D01*
G01*
X18390250Y-34947500D01*
G75*
G02*
X18684000Y-35241250I0J-293750D01*
G01*
X18684000Y-35828750D01*
G75*
G02*
X18390250Y-36122500I-293750J0D01*
G01*
G37*
G36*
G01*
X18390250Y-47806500D02*
X17377750Y-47806500D01*
G75*
G02*
X17084000Y-47512750I0J293750D01*
G01*
X17084000Y-46925250D01*
G75*
G02*
X17377750Y-46631500I293750J0D01*
G01*
X18390250Y-46631500D01*
G75*
G02*
X18684000Y-46925250I0J-293750D01*
G01*
X18684000Y-47512750D01*
G75*
G02*
X18390250Y-47806500I-293750J0D01*
G01*
G37*
G36*
G01*
X18390250Y-45931500D02*
X17377750Y-45931500D01*
G75*
G02*
X17084000Y-45637750I0J293750D01*
G01*
X17084000Y-45050250D01*
G75*
G02*
X17377750Y-44756500I293750J0D01*
G01*
X18390250Y-44756500D01*
G75*
G02*
X18684000Y-45050250I0J-293750D01*
G01*
X18684000Y-45637750D01*
G75*
G02*
X18390250Y-45931500I-293750J0D01*
G01*
G37*
G36*
G01*
X18644250Y-59490500D02*
X17631750Y-59490500D01*
G75*
G02*
X17338000Y-59196750I0J293750D01*
G01*
X17338000Y-58609250D01*
G75*
G02*
X17631750Y-58315500I293750J0D01*
G01*
X18644250Y-58315500D01*
G75*
G02*
X18938000Y-58609250I0J-293750D01*
G01*
X18938000Y-59196750D01*
G75*
G02*
X18644250Y-59490500I-293750J0D01*
G01*
G37*
G36*
G01*
X18644250Y-57615500D02*
X17631750Y-57615500D01*
G75*
G02*
X17338000Y-57321750I0J293750D01*
G01*
X17338000Y-56734250D01*
G75*
G02*
X17631750Y-56440500I293750J0D01*
G01*
X18644250Y-56440500D01*
G75*
G02*
X18938000Y-56734250I0J-293750D01*
G01*
X18938000Y-57321750D01*
G75*
G02*
X18644250Y-57615500I-293750J0D01*
G01*
G37*
G36*
G01*
X18644250Y-71428500D02*
X17631750Y-71428500D01*
G75*
G02*
X17338000Y-71134750I0J293750D01*
G01*
X17338000Y-70547250D01*
G75*
G02*
X17631750Y-70253500I293750J0D01*
G01*
X18644250Y-70253500D01*
G75*
G02*
X18938000Y-70547250I0J-293750D01*
G01*
X18938000Y-71134750D01*
G75*
G02*
X18644250Y-71428500I-293750J0D01*
G01*
G37*
G36*
G01*
X18644250Y-69553500D02*
X17631750Y-69553500D01*
G75*
G02*
X17338000Y-69259750I0J293750D01*
G01*
X17338000Y-68672250D01*
G75*
G02*
X17631750Y-68378500I293750J0D01*
G01*
X18644250Y-68378500D01*
G75*
G02*
X18938000Y-68672250I0J-293750D01*
G01*
X18938000Y-69259750D01*
G75*
G02*
X18644250Y-69553500I-293750J0D01*
G01*
G37*
G36*
G01*
X18644250Y-81237500D02*
X17631750Y-81237500D01*
G75*
G02*
X17338000Y-80943750I0J293750D01*
G01*
X17338000Y-80356250D01*
G75*
G02*
X17631750Y-80062500I293750J0D01*
G01*
X18644250Y-80062500D01*
G75*
G02*
X18938000Y-80356250I0J-293750D01*
G01*
X18938000Y-80943750D01*
G75*
G02*
X18644250Y-81237500I-293750J0D01*
G01*
G37*
G36*
G01*
X18644250Y-83112500D02*
X17631750Y-83112500D01*
G75*
G02*
X17338000Y-82818750I0J293750D01*
G01*
X17338000Y-82231250D01*
G75*
G02*
X17631750Y-81937500I293750J0D01*
G01*
X18644250Y-81937500D01*
G75*
G02*
X18938000Y-82231250I0J-293750D01*
G01*
X18938000Y-82818750D01*
G75*
G02*
X18644250Y-83112500I-293750J0D01*
G01*
G37*
G36*
G01*
X84938250Y-34247500D02*
X83925750Y-34247500D01*
G75*
G02*
X83632000Y-33953750I0J293750D01*
G01*
X83632000Y-33366250D01*
G75*
G02*
X83925750Y-33072500I293750J0D01*
G01*
X84938250Y-33072500D01*
G75*
G02*
X85232000Y-33366250I0J-293750D01*
G01*
X85232000Y-33953750D01*
G75*
G02*
X84938250Y-34247500I-293750J0D01*
G01*
G37*
G36*
G01*
X84938250Y-36122500D02*
X83925750Y-36122500D01*
G75*
G02*
X83632000Y-35828750I0J293750D01*
G01*
X83632000Y-35241250D01*
G75*
G02*
X83925750Y-34947500I293750J0D01*
G01*
X84938250Y-34947500D01*
G75*
G02*
X85232000Y-35241250I0J-293750D01*
G01*
X85232000Y-35828750D01*
G75*
G02*
X84938250Y-36122500I-293750J0D01*
G01*
G37*
G36*
G01*
X17377750Y-38914500D02*
X18390250Y-38914500D01*
G75*
G02*
X18684000Y-39208250I0J-293750D01*
G01*
X18684000Y-39795750D01*
G75*
G02*
X18390250Y-40089500I-293750J0D01*
G01*
X17377750Y-40089500D01*
G75*
G02*
X17084000Y-39795750I0J293750D01*
G01*
X17084000Y-39208250D01*
G75*
G02*
X17377750Y-38914500I293750J0D01*
G01*
G37*
G36*
G01*
X17377750Y-40789500D02*
X18390250Y-40789500D01*
G75*
G02*
X18684000Y-41083250I0J-293750D01*
G01*
X18684000Y-41670750D01*
G75*
G02*
X18390250Y-41964500I-293750J0D01*
G01*
X17377750Y-41964500D01*
G75*
G02*
X17084000Y-41670750I0J293750D01*
G01*
X17084000Y-41083250D01*
G75*
G02*
X17377750Y-40789500I293750J0D01*
G01*
G37*
G36*
G01*
X84938250Y-47963500D02*
X83925750Y-47963500D01*
G75*
G02*
X83632000Y-47669750I0J293750D01*
G01*
X83632000Y-47082250D01*
G75*
G02*
X83925750Y-46788500I293750J0D01*
G01*
X84938250Y-46788500D01*
G75*
G02*
X85232000Y-47082250I0J-293750D01*
G01*
X85232000Y-47669750D01*
G75*
G02*
X84938250Y-47963500I-293750J0D01*
G01*
G37*
G36*
G01*
X84938250Y-46088500D02*
X83925750Y-46088500D01*
G75*
G02*
X83632000Y-45794750I0J293750D01*
G01*
X83632000Y-45207250D01*
G75*
G02*
X83925750Y-44913500I293750J0D01*
G01*
X84938250Y-44913500D01*
G75*
G02*
X85232000Y-45207250I0J-293750D01*
G01*
X85232000Y-45794750D01*
G75*
G02*
X84938250Y-46088500I-293750J0D01*
G01*
G37*
G36*
G01*
X17377750Y-50598500D02*
X18390250Y-50598500D01*
G75*
G02*
X18684000Y-50892250I0J-293750D01*
G01*
X18684000Y-51479750D01*
G75*
G02*
X18390250Y-51773500I-293750J0D01*
G01*
X17377750Y-51773500D01*
G75*
G02*
X17084000Y-51479750I0J293750D01*
G01*
X17084000Y-50892250D01*
G75*
G02*
X17377750Y-50598500I293750J0D01*
G01*
G37*
G36*
G01*
X17377750Y-52473500D02*
X18390250Y-52473500D01*
G75*
G02*
X18684000Y-52767250I0J-293750D01*
G01*
X18684000Y-53354750D01*
G75*
G02*
X18390250Y-53648500I-293750J0D01*
G01*
X17377750Y-53648500D01*
G75*
G02*
X17084000Y-53354750I0J293750D01*
G01*
X17084000Y-52767250D01*
G75*
G02*
X17377750Y-52473500I293750J0D01*
G01*
G37*
G36*
G01*
X74693750Y-21750000D02*
X75706250Y-21750000D01*
G75*
G02*
X76000000Y-22043750I0J-293750D01*
G01*
X76000000Y-22631250D01*
G75*
G02*
X75706250Y-22925000I-293750J0D01*
G01*
X74693750Y-22925000D01*
G75*
G02*
X74400000Y-22631250I0J293750D01*
G01*
X74400000Y-22043750D01*
G75*
G02*
X74693750Y-21750000I293750J0D01*
G01*
G37*
G36*
G01*
X74693750Y-19875000D02*
X75706250Y-19875000D01*
G75*
G02*
X76000000Y-20168750I0J-293750D01*
G01*
X76000000Y-20756250D01*
G75*
G02*
X75706250Y-21050000I-293750J0D01*
G01*
X74693750Y-21050000D01*
G75*
G02*
X74400000Y-20756250I0J293750D01*
G01*
X74400000Y-20168750D01*
G75*
G02*
X74693750Y-19875000I293750J0D01*
G01*
G37*
G36*
G01*
X84938250Y-57772500D02*
X83925750Y-57772500D01*
G75*
G02*
X83632000Y-57478750I0J293750D01*
G01*
X83632000Y-56891250D01*
G75*
G02*
X83925750Y-56597500I293750J0D01*
G01*
X84938250Y-56597500D01*
G75*
G02*
X85232000Y-56891250I0J-293750D01*
G01*
X85232000Y-57478750D01*
G75*
G02*
X84938250Y-57772500I-293750J0D01*
G01*
G37*
G36*
G01*
X84938250Y-59647500D02*
X83925750Y-59647500D01*
G75*
G02*
X83632000Y-59353750I0J293750D01*
G01*
X83632000Y-58766250D01*
G75*
G02*
X83925750Y-58472500I293750J0D01*
G01*
X84938250Y-58472500D01*
G75*
G02*
X85232000Y-58766250I0J-293750D01*
G01*
X85232000Y-59353750D01*
G75*
G02*
X84938250Y-59647500I-293750J0D01*
G01*
G37*
G36*
G01*
X17631750Y-62185500D02*
X18644250Y-62185500D01*
G75*
G02*
X18938000Y-62479250I0J-293750D01*
G01*
X18938000Y-63066750D01*
G75*
G02*
X18644250Y-63360500I-293750J0D01*
G01*
X17631750Y-63360500D01*
G75*
G02*
X17338000Y-63066750I0J293750D01*
G01*
X17338000Y-62479250D01*
G75*
G02*
X17631750Y-62185500I293750J0D01*
G01*
G37*
G36*
G01*
X17631750Y-64060500D02*
X18644250Y-64060500D01*
G75*
G02*
X18938000Y-64354250I0J-293750D01*
G01*
X18938000Y-64941750D01*
G75*
G02*
X18644250Y-65235500I-293750J0D01*
G01*
X17631750Y-65235500D01*
G75*
G02*
X17338000Y-64941750I0J293750D01*
G01*
X17338000Y-64354250D01*
G75*
G02*
X17631750Y-64060500I293750J0D01*
G01*
G37*
G36*
G01*
X84684250Y-71428500D02*
X83671750Y-71428500D01*
G75*
G02*
X83378000Y-71134750I0J293750D01*
G01*
X83378000Y-70547250D01*
G75*
G02*
X83671750Y-70253500I293750J0D01*
G01*
X84684250Y-70253500D01*
G75*
G02*
X84978000Y-70547250I0J-293750D01*
G01*
X84978000Y-71134750D01*
G75*
G02*
X84684250Y-71428500I-293750J0D01*
G01*
G37*
G36*
G01*
X84684250Y-69553500D02*
X83671750Y-69553500D01*
G75*
G02*
X83378000Y-69259750I0J293750D01*
G01*
X83378000Y-68672250D01*
G75*
G02*
X83671750Y-68378500I293750J0D01*
G01*
X84684250Y-68378500D01*
G75*
G02*
X84978000Y-68672250I0J-293750D01*
G01*
X84978000Y-69259750D01*
G75*
G02*
X84684250Y-69553500I-293750J0D01*
G01*
G37*
G36*
G01*
X17631750Y-75998500D02*
X18644250Y-75998500D01*
G75*
G02*
X18938000Y-76292250I0J-293750D01*
G01*
X18938000Y-76879750D01*
G75*
G02*
X18644250Y-77173500I-293750J0D01*
G01*
X17631750Y-77173500D01*
G75*
G02*
X17338000Y-76879750I0J293750D01*
G01*
X17338000Y-76292250D01*
G75*
G02*
X17631750Y-75998500I293750J0D01*
G01*
G37*
G36*
G01*
X17631750Y-74123500D02*
X18644250Y-74123500D01*
G75*
G02*
X18938000Y-74417250I0J-293750D01*
G01*
X18938000Y-75004750D01*
G75*
G02*
X18644250Y-75298500I-293750J0D01*
G01*
X17631750Y-75298500D01*
G75*
G02*
X17338000Y-75004750I0J293750D01*
G01*
X17338000Y-74417250D01*
G75*
G02*
X17631750Y-74123500I293750J0D01*
G01*
G37*
G36*
G01*
X84684250Y-81237500D02*
X83671750Y-81237500D01*
G75*
G02*
X83378000Y-80943750I0J293750D01*
G01*
X83378000Y-80356250D01*
G75*
G02*
X83671750Y-80062500I293750J0D01*
G01*
X84684250Y-80062500D01*
G75*
G02*
X84978000Y-80356250I0J-293750D01*
G01*
X84978000Y-80943750D01*
G75*
G02*
X84684250Y-81237500I-293750J0D01*
G01*
G37*
G36*
G01*
X84684250Y-83112500D02*
X83671750Y-83112500D01*
G75*
G02*
X83378000Y-82818750I0J293750D01*
G01*
X83378000Y-82231250D01*
G75*
G02*
X83671750Y-81937500I293750J0D01*
G01*
X84684250Y-81937500D01*
G75*
G02*
X84978000Y-82231250I0J-293750D01*
G01*
X84978000Y-82818750D01*
G75*
G02*
X84684250Y-83112500I-293750J0D01*
G01*
G37*
G36*
G01*
X17631750Y-85729000D02*
X18644250Y-85729000D01*
G75*
G02*
X18938000Y-86022750I0J-293750D01*
G01*
X18938000Y-86610250D01*
G75*
G02*
X18644250Y-86904000I-293750J0D01*
G01*
X17631750Y-86904000D01*
G75*
G02*
X17338000Y-86610250I0J293750D01*
G01*
X17338000Y-86022750D01*
G75*
G02*
X17631750Y-85729000I293750J0D01*
G01*
G37*
G36*
G01*
X17631750Y-87604000D02*
X18644250Y-87604000D01*
G75*
G02*
X18938000Y-87897750I0J-293750D01*
G01*
X18938000Y-88485250D01*
G75*
G02*
X18644250Y-88779000I-293750J0D01*
G01*
X17631750Y-88779000D01*
G75*
G02*
X17338000Y-88485250I0J293750D01*
G01*
X17338000Y-87897750D01*
G75*
G02*
X17631750Y-87604000I293750J0D01*
G01*
G37*
G36*
G01*
X94339750Y-72850000D02*
X95352250Y-72850000D01*
G75*
G02*
X95646000Y-73143750I0J-293750D01*
G01*
X95646000Y-73731250D01*
G75*
G02*
X95352250Y-74025000I-293750J0D01*
G01*
X94339750Y-74025000D01*
G75*
G02*
X94046000Y-73731250I0J293750D01*
G01*
X94046000Y-73143750D01*
G75*
G02*
X94339750Y-72850000I293750J0D01*
G01*
G37*
G36*
G01*
X94339750Y-70975000D02*
X95352250Y-70975000D01*
G75*
G02*
X95646000Y-71268750I0J-293750D01*
G01*
X95646000Y-71856250D01*
G75*
G02*
X95352250Y-72150000I-293750J0D01*
G01*
X94339750Y-72150000D01*
G75*
G02*
X94046000Y-71856250I0J293750D01*
G01*
X94046000Y-71268750D01*
G75*
G02*
X94339750Y-70975000I293750J0D01*
G01*
G37*
G36*
G01*
X113137300Y-56115350D02*
X113137300Y-57127850D01*
G75*
G02*
X112843550Y-57421600I-293750J0D01*
G01*
X112256050Y-57421600D01*
G75*
G02*
X111962300Y-57127850I0J293750D01*
G01*
X111962300Y-56115350D01*
G75*
G02*
X112256050Y-55821600I293750J0D01*
G01*
X112843550Y-55821600D01*
G75*
G02*
X113137300Y-56115350I0J-293750D01*
G01*
G37*
G36*
G01*
X111262300Y-56115350D02*
X111262300Y-57127850D01*
G75*
G02*
X110968550Y-57421600I-293750J0D01*
G01*
X110381050Y-57421600D01*
G75*
G02*
X110087300Y-57127850I0J293750D01*
G01*
X110087300Y-56115350D01*
G75*
G02*
X110381050Y-55821600I293750J0D01*
G01*
X110968550Y-55821600D01*
G75*
G02*
X111262300Y-56115350I0J-293750D01*
G01*
G37*
G36*
G01*
X141806250Y-56850000D02*
X140793750Y-56850000D01*
G75*
G02*
X140500000Y-56556250I0J293750D01*
G01*
X140500000Y-55968750D01*
G75*
G02*
X140793750Y-55675000I293750J0D01*
G01*
X141806250Y-55675000D01*
G75*
G02*
X142100000Y-55968750I0J-293750D01*
G01*
X142100000Y-56556250D01*
G75*
G02*
X141806250Y-56850000I-293750J0D01*
G01*
G37*
G36*
G01*
X141806250Y-58725000D02*
X140793750Y-58725000D01*
G75*
G02*
X140500000Y-58431250I0J293750D01*
G01*
X140500000Y-57843750D01*
G75*
G02*
X140793750Y-57550000I293750J0D01*
G01*
X141806250Y-57550000D01*
G75*
G02*
X142100000Y-57843750I0J-293750D01*
G01*
X142100000Y-58431250D01*
G75*
G02*
X141806250Y-58725000I-293750J0D01*
G01*
G37*
G36*
G01*
X108431700Y-73993450D02*
X108431700Y-72980950D01*
G75*
G02*
X108725450Y-72687200I293750J0D01*
G01*
X109312950Y-72687200D01*
G75*
G02*
X109606700Y-72980950I0J-293750D01*
G01*
X109606700Y-73993450D01*
G75*
G02*
X109312950Y-74287200I-293750J0D01*
G01*
X108725450Y-74287200D01*
G75*
G02*
X108431700Y-73993450I0J293750D01*
G01*
G37*
G36*
G01*
X110306700Y-73993450D02*
X110306700Y-72980950D01*
G75*
G02*
X110600450Y-72687200I293750J0D01*
G01*
X111187950Y-72687200D01*
G75*
G02*
X111481700Y-72980950I0J-293750D01*
G01*
X111481700Y-73993450D01*
G75*
G02*
X111187950Y-74287200I-293750J0D01*
G01*
X110600450Y-74287200D01*
G75*
G02*
X110306700Y-73993450I0J293750D01*
G01*
G37*
G36*
G01*
X108070000Y-77794250D02*
X108070000Y-78806750D01*
G75*
G02*
X107776250Y-79100500I-293750J0D01*
G01*
X107188750Y-79100500D01*
G75*
G02*
X106895000Y-78806750I0J293750D01*
G01*
X106895000Y-77794250D01*
G75*
G02*
X107188750Y-77500500I293750J0D01*
G01*
X107776250Y-77500500D01*
G75*
G02*
X108070000Y-77794250I0J-293750D01*
G01*
G37*
G36*
G01*
X109945000Y-77794250D02*
X109945000Y-78806750D01*
G75*
G02*
X109651250Y-79100500I-293750J0D01*
G01*
X109063750Y-79100500D01*
G75*
G02*
X108770000Y-78806750I0J293750D01*
G01*
X108770000Y-77794250D01*
G75*
G02*
X109063750Y-77500500I293750J0D01*
G01*
X109651250Y-77500500D01*
G75*
G02*
X109945000Y-77794250I0J-293750D01*
G01*
G37*
G36*
G01*
X146293750Y-40412500D02*
X147306250Y-40412500D01*
G75*
G02*
X147600000Y-40706250I0J-293750D01*
G01*
X147600000Y-41293750D01*
G75*
G02*
X147306250Y-41587500I-293750J0D01*
G01*
X146293750Y-41587500D01*
G75*
G02*
X146000000Y-41293750I0J293750D01*
G01*
X146000000Y-40706250D01*
G75*
G02*
X146293750Y-40412500I293750J0D01*
G01*
G37*
G36*
G01*
X146293750Y-42287500D02*
X147306250Y-42287500D01*
G75*
G02*
X147600000Y-42581250I0J-293750D01*
G01*
X147600000Y-43168750D01*
G75*
G02*
X147306250Y-43462500I-293750J0D01*
G01*
X146293750Y-43462500D01*
G75*
G02*
X146000000Y-43168750I0J293750D01*
G01*
X146000000Y-42581250D01*
G75*
G02*
X146293750Y-42287500I293750J0D01*
G01*
G37*
D30*
X138900000Y-14500000D03*
D31*
X138900000Y-9500000D03*
G36*
G01*
X126765900Y-84458250D02*
X126765900Y-83445750D01*
G75*
G02*
X127059650Y-83152000I293750J0D01*
G01*
X127647150Y-83152000D01*
G75*
G02*
X127940900Y-83445750I0J-293750D01*
G01*
X127940900Y-84458250D01*
G75*
G02*
X127647150Y-84752000I-293750J0D01*
G01*
X127059650Y-84752000D01*
G75*
G02*
X126765900Y-84458250I0J293750D01*
G01*
G37*
G36*
G01*
X124890900Y-84458250D02*
X124890900Y-83445750D01*
G75*
G02*
X125184650Y-83152000I293750J0D01*
G01*
X125772150Y-83152000D01*
G75*
G02*
X126065900Y-83445750I0J-293750D01*
G01*
X126065900Y-84458250D01*
G75*
G02*
X125772150Y-84752000I-293750J0D01*
G01*
X125184650Y-84752000D01*
G75*
G02*
X124890900Y-84458250I0J293750D01*
G01*
G37*
G36*
G01*
X135306250Y-18187500D02*
X134293750Y-18187500D01*
G75*
G02*
X134000000Y-17893750I0J293750D01*
G01*
X134000000Y-17306250D01*
G75*
G02*
X134293750Y-17012500I293750J0D01*
G01*
X135306250Y-17012500D01*
G75*
G02*
X135600000Y-17306250I0J-293750D01*
G01*
X135600000Y-17893750D01*
G75*
G02*
X135306250Y-18187500I-293750J0D01*
G01*
G37*
G36*
G01*
X135306250Y-20062500D02*
X134293750Y-20062500D01*
G75*
G02*
X134000000Y-19768750I0J293750D01*
G01*
X134000000Y-19181250D01*
G75*
G02*
X134293750Y-18887500I293750J0D01*
G01*
X135306250Y-18887500D01*
G75*
G02*
X135600000Y-19181250I0J-293750D01*
G01*
X135600000Y-19768750D01*
G75*
G02*
X135306250Y-20062500I-293750J0D01*
G01*
G37*
G36*
G01*
X137506250Y-20075000D02*
X136493750Y-20075000D01*
G75*
G02*
X136200000Y-19781250I0J293750D01*
G01*
X136200000Y-19193750D01*
G75*
G02*
X136493750Y-18900000I293750J0D01*
G01*
X137506250Y-18900000D01*
G75*
G02*
X137800000Y-19193750I0J-293750D01*
G01*
X137800000Y-19781250D01*
G75*
G02*
X137506250Y-20075000I-293750J0D01*
G01*
G37*
G36*
G01*
X137506250Y-18200000D02*
X136493750Y-18200000D01*
G75*
G02*
X136200000Y-17906250I0J293750D01*
G01*
X136200000Y-17318750D01*
G75*
G02*
X136493750Y-17025000I293750J0D01*
G01*
X137506250Y-17025000D01*
G75*
G02*
X137800000Y-17318750I0J-293750D01*
G01*
X137800000Y-17906250D01*
G75*
G02*
X137506250Y-18200000I-293750J0D01*
G01*
G37*
G36*
G01*
X139706250Y-18187500D02*
X138693750Y-18187500D01*
G75*
G02*
X138400000Y-17893750I0J293750D01*
G01*
X138400000Y-17306250D01*
G75*
G02*
X138693750Y-17012500I293750J0D01*
G01*
X139706250Y-17012500D01*
G75*
G02*
X140000000Y-17306250I0J-293750D01*
G01*
X140000000Y-17893750D01*
G75*
G02*
X139706250Y-18187500I-293750J0D01*
G01*
G37*
G36*
G01*
X139706250Y-20062500D02*
X138693750Y-20062500D01*
G75*
G02*
X138400000Y-19768750I0J293750D01*
G01*
X138400000Y-19181250D01*
G75*
G02*
X138693750Y-18887500I293750J0D01*
G01*
X139706250Y-18887500D01*
G75*
G02*
X140000000Y-19181250I0J-293750D01*
G01*
X140000000Y-19768750D01*
G75*
G02*
X139706250Y-20062500I-293750J0D01*
G01*
G37*
G36*
G01*
X120753000Y-84432850D02*
X120753000Y-83420350D01*
G75*
G02*
X121046750Y-83126600I293750J0D01*
G01*
X121634250Y-83126600D01*
G75*
G02*
X121928000Y-83420350I0J-293750D01*
G01*
X121928000Y-84432850D01*
G75*
G02*
X121634250Y-84726600I-293750J0D01*
G01*
X121046750Y-84726600D01*
G75*
G02*
X120753000Y-84432850I0J293750D01*
G01*
G37*
G36*
G01*
X122628000Y-84432850D02*
X122628000Y-83420350D01*
G75*
G02*
X122921750Y-83126600I293750J0D01*
G01*
X123509250Y-83126600D01*
G75*
G02*
X123803000Y-83420350I0J-293750D01*
G01*
X123803000Y-84432850D01*
G75*
G02*
X123509250Y-84726600I-293750J0D01*
G01*
X122921750Y-84726600D01*
G75*
G02*
X122628000Y-84432850I0J293750D01*
G01*
G37*
G36*
G01*
X118688700Y-84458250D02*
X118688700Y-83445750D01*
G75*
G02*
X118982450Y-83152000I293750J0D01*
G01*
X119569950Y-83152000D01*
G75*
G02*
X119863700Y-83445750I0J-293750D01*
G01*
X119863700Y-84458250D01*
G75*
G02*
X119569950Y-84752000I-293750J0D01*
G01*
X118982450Y-84752000D01*
G75*
G02*
X118688700Y-84458250I0J293750D01*
G01*
G37*
G36*
G01*
X116813700Y-84458250D02*
X116813700Y-83445750D01*
G75*
G02*
X117107450Y-83152000I293750J0D01*
G01*
X117694950Y-83152000D01*
G75*
G02*
X117988700Y-83445750I0J-293750D01*
G01*
X117988700Y-84458250D01*
G75*
G02*
X117694950Y-84752000I-293750J0D01*
G01*
X117107450Y-84752000D01*
G75*
G02*
X116813700Y-84458250I0J293750D01*
G01*
G37*
D32*
X64250000Y-19600000D03*
X67550000Y-19600000D03*
X67550000Y-16100000D03*
X64250000Y-16100000D03*
D33*
X143900000Y-53000000D03*
X143900000Y-56300000D03*
G36*
G01*
X93375000Y-48106250D02*
X93375000Y-47093750D01*
G75*
G02*
X93668750Y-46800000I293750J0D01*
G01*
X94256250Y-46800000D01*
G75*
G02*
X94550000Y-47093750I0J-293750D01*
G01*
X94550000Y-48106250D01*
G75*
G02*
X94256250Y-48400000I-293750J0D01*
G01*
X93668750Y-48400000D01*
G75*
G02*
X93375000Y-48106250I0J293750D01*
G01*
G37*
G36*
G01*
X95250000Y-48106250D02*
X95250000Y-47093750D01*
G75*
G02*
X95543750Y-46800000I293750J0D01*
G01*
X96131250Y-46800000D01*
G75*
G02*
X96425000Y-47093750I0J-293750D01*
G01*
X96425000Y-48106250D01*
G75*
G02*
X96131250Y-48400000I-293750J0D01*
G01*
X95543750Y-48400000D01*
G75*
G02*
X95250000Y-48106250I0J293750D01*
G01*
G37*
G36*
G01*
X113111900Y-60814350D02*
X113111900Y-61826850D01*
G75*
G02*
X112818150Y-62120600I-293750J0D01*
G01*
X112230650Y-62120600D01*
G75*
G02*
X111936900Y-61826850I0J293750D01*
G01*
X111936900Y-60814350D01*
G75*
G02*
X112230650Y-60520600I293750J0D01*
G01*
X112818150Y-60520600D01*
G75*
G02*
X113111900Y-60814350I0J-293750D01*
G01*
G37*
G36*
G01*
X111236900Y-60814350D02*
X111236900Y-61826850D01*
G75*
G02*
X110943150Y-62120600I-293750J0D01*
G01*
X110355650Y-62120600D01*
G75*
G02*
X110061900Y-61826850I0J293750D01*
G01*
X110061900Y-60814350D01*
G75*
G02*
X110355650Y-60520600I293750J0D01*
G01*
X110943150Y-60520600D01*
G75*
G02*
X111236900Y-60814350I0J-293750D01*
G01*
G37*
D12*
X2350000Y-83750000D03*
D34*
X2350000Y-92250000D03*
D35*
X10000000Y-88000000D03*
D36*
X5500000Y-88000000D03*
G36*
G01*
X126958556Y-80800000D02*
X123947444Y-80800000D01*
G75*
G02*
X123653000Y-80505556I0J294444D01*
G01*
X123653000Y-79769444D01*
G75*
G02*
X123947444Y-79475000I294444J0D01*
G01*
X126958556Y-79475000D01*
G75*
G02*
X127253000Y-79769444I0J-294444D01*
G01*
X127253000Y-80505556D01*
G75*
G02*
X126958556Y-80800000I-294444J0D01*
G01*
G37*
G36*
G01*
X126958556Y-76525000D02*
X123947444Y-76525000D01*
G75*
G02*
X123653000Y-76230556I0J294444D01*
G01*
X123653000Y-75494444D01*
G75*
G02*
X123947444Y-75200000I294444J0D01*
G01*
X126958556Y-75200000D01*
G75*
G02*
X127253000Y-75494444I0J-294444D01*
G01*
X127253000Y-76230556D01*
G75*
G02*
X126958556Y-76525000I-294444J0D01*
G01*
G37*
G36*
G01*
X120735556Y-76525000D02*
X117724444Y-76525000D01*
G75*
G02*
X117430000Y-76230556I0J294444D01*
G01*
X117430000Y-75494444D01*
G75*
G02*
X117724444Y-75200000I294444J0D01*
G01*
X120735556Y-75200000D01*
G75*
G02*
X121030000Y-75494444I0J-294444D01*
G01*
X121030000Y-76230556D01*
G75*
G02*
X120735556Y-76525000I-294444J0D01*
G01*
G37*
G36*
G01*
X120735556Y-80800000D02*
X117724444Y-80800000D01*
G75*
G02*
X117430000Y-80505556I0J294444D01*
G01*
X117430000Y-79769444D01*
G75*
G02*
X117724444Y-79475000I294444J0D01*
G01*
X120735556Y-79475000D01*
G75*
G02*
X121030000Y-79769444I0J-294444D01*
G01*
X121030000Y-80505556D01*
G75*
G02*
X120735556Y-80800000I-294444J0D01*
G01*
G37*
D37*
X146800000Y-52000000D03*
D38*
X146800000Y-49460000D03*
X146800000Y-46920000D03*
G36*
G01*
X84725000Y-19093750D02*
X84725000Y-20106250D01*
G75*
G02*
X84431250Y-20400000I-293750J0D01*
G01*
X83843750Y-20400000D01*
G75*
G02*
X83550000Y-20106250I0J293750D01*
G01*
X83550000Y-19093750D01*
G75*
G02*
X83843750Y-18800000I293750J0D01*
G01*
X84431250Y-18800000D01*
G75*
G02*
X84725000Y-19093750I0J-293750D01*
G01*
G37*
G36*
G01*
X82850000Y-19093750D02*
X82850000Y-20106250D01*
G75*
G02*
X82556250Y-20400000I-293750J0D01*
G01*
X81968750Y-20400000D01*
G75*
G02*
X81675000Y-20106250I0J293750D01*
G01*
X81675000Y-19093750D01*
G75*
G02*
X81968750Y-18800000I293750J0D01*
G01*
X82556250Y-18800000D01*
G75*
G02*
X82850000Y-19093750I0J-293750D01*
G01*
G37*
G36*
G01*
X77850000Y-22443750D02*
X77850000Y-23456250D01*
G75*
G02*
X77556250Y-23750000I-293750J0D01*
G01*
X76968750Y-23750000D01*
G75*
G02*
X76675000Y-23456250I0J293750D01*
G01*
X76675000Y-22443750D01*
G75*
G02*
X76968750Y-22150000I293750J0D01*
G01*
X77556250Y-22150000D01*
G75*
G02*
X77850000Y-22443750I0J-293750D01*
G01*
G37*
G36*
G01*
X79725000Y-22443750D02*
X79725000Y-23456250D01*
G75*
G02*
X79431250Y-23750000I-293750J0D01*
G01*
X78843750Y-23750000D01*
G75*
G02*
X78550000Y-23456250I0J293750D01*
G01*
X78550000Y-22443750D01*
G75*
G02*
X78843750Y-22150000I293750J0D01*
G01*
X79431250Y-22150000D01*
G75*
G02*
X79725000Y-22443750I0J-293750D01*
G01*
G37*
G36*
G01*
X79725000Y-24893750D02*
X79725000Y-25906250D01*
G75*
G02*
X79431250Y-26200000I-293750J0D01*
G01*
X78843750Y-26200000D01*
G75*
G02*
X78550000Y-25906250I0J293750D01*
G01*
X78550000Y-24893750D01*
G75*
G02*
X78843750Y-24600000I293750J0D01*
G01*
X79431250Y-24600000D01*
G75*
G02*
X79725000Y-24893750I0J-293750D01*
G01*
G37*
G36*
G01*
X77850000Y-24893750D02*
X77850000Y-25906250D01*
G75*
G02*
X77556250Y-26200000I-293750J0D01*
G01*
X76968750Y-26200000D01*
G75*
G02*
X76675000Y-25906250I0J293750D01*
G01*
X76675000Y-24893750D01*
G75*
G02*
X76968750Y-24600000I293750J0D01*
G01*
X77556250Y-24600000D01*
G75*
G02*
X77850000Y-24893750I0J-293750D01*
G01*
G37*
G36*
G01*
X70450000Y-19093750D02*
X70450000Y-20106250D01*
G75*
G02*
X70156250Y-20400000I-293750J0D01*
G01*
X69568750Y-20400000D01*
G75*
G02*
X69275000Y-20106250I0J293750D01*
G01*
X69275000Y-19093750D01*
G75*
G02*
X69568750Y-18800000I293750J0D01*
G01*
X70156250Y-18800000D01*
G75*
G02*
X70450000Y-19093750I0J-293750D01*
G01*
G37*
G36*
G01*
X72325000Y-19093750D02*
X72325000Y-20106250D01*
G75*
G02*
X72031250Y-20400000I-293750J0D01*
G01*
X71443750Y-20400000D01*
G75*
G02*
X71150000Y-20106250I0J293750D01*
G01*
X71150000Y-19093750D01*
G75*
G02*
X71443750Y-18800000I293750J0D01*
G01*
X72031250Y-18800000D01*
G75*
G02*
X72325000Y-19093750I0J-293750D01*
G01*
G37*
G36*
G01*
X72262500Y-15593750D02*
X72262500Y-16606250D01*
G75*
G02*
X71968750Y-16900000I-293750J0D01*
G01*
X71381250Y-16900000D01*
G75*
G02*
X71087500Y-16606250I0J293750D01*
G01*
X71087500Y-15593750D01*
G75*
G02*
X71381250Y-15300000I293750J0D01*
G01*
X71968750Y-15300000D01*
G75*
G02*
X72262500Y-15593750I0J-293750D01*
G01*
G37*
G36*
G01*
X70387500Y-15593750D02*
X70387500Y-16606250D01*
G75*
G02*
X70093750Y-16900000I-293750J0D01*
G01*
X69506250Y-16900000D01*
G75*
G02*
X69212500Y-16606250I0J293750D01*
G01*
X69212500Y-15593750D01*
G75*
G02*
X69506250Y-15300000I293750J0D01*
G01*
X70093750Y-15300000D01*
G75*
G02*
X70387500Y-15593750I0J-293750D01*
G01*
G37*
G36*
G01*
X71993750Y-10875000D02*
X73006250Y-10875000D01*
G75*
G02*
X73300000Y-11168750I0J-293750D01*
G01*
X73300000Y-11756250D01*
G75*
G02*
X73006250Y-12050000I-293750J0D01*
G01*
X71993750Y-12050000D01*
G75*
G02*
X71700000Y-11756250I0J293750D01*
G01*
X71700000Y-11168750D01*
G75*
G02*
X71993750Y-10875000I293750J0D01*
G01*
G37*
G36*
G01*
X71993750Y-12750000D02*
X73006250Y-12750000D01*
G75*
G02*
X73300000Y-13043750I0J-293750D01*
G01*
X73300000Y-13631250D01*
G75*
G02*
X73006250Y-13925000I-293750J0D01*
G01*
X71993750Y-13925000D01*
G75*
G02*
X71700000Y-13631250I0J293750D01*
G01*
X71700000Y-13043750D01*
G75*
G02*
X71993750Y-12750000I293750J0D01*
G01*
G37*
G36*
G01*
X79025000Y-10243750D02*
X79025000Y-11256250D01*
G75*
G02*
X78731250Y-11550000I-293750J0D01*
G01*
X78143750Y-11550000D01*
G75*
G02*
X77850000Y-11256250I0J293750D01*
G01*
X77850000Y-10243750D01*
G75*
G02*
X78143750Y-9950000I293750J0D01*
G01*
X78731250Y-9950000D01*
G75*
G02*
X79025000Y-10243750I0J-293750D01*
G01*
G37*
G36*
G01*
X77150000Y-10243750D02*
X77150000Y-11256250D01*
G75*
G02*
X76856250Y-11550000I-293750J0D01*
G01*
X76268750Y-11550000D01*
G75*
G02*
X75975000Y-11256250I0J293750D01*
G01*
X75975000Y-10243750D01*
G75*
G02*
X76268750Y-9950000I293750J0D01*
G01*
X76856250Y-9950000D01*
G75*
G02*
X77150000Y-10243750I0J-293750D01*
G01*
G37*
G36*
G01*
X77150000Y-12493750D02*
X77150000Y-13506250D01*
G75*
G02*
X76856250Y-13800000I-293750J0D01*
G01*
X76268750Y-13800000D01*
G75*
G02*
X75975000Y-13506250I0J293750D01*
G01*
X75975000Y-12493750D01*
G75*
G02*
X76268750Y-12200000I293750J0D01*
G01*
X76856250Y-12200000D01*
G75*
G02*
X77150000Y-12493750I0J-293750D01*
G01*
G37*
G36*
G01*
X79025000Y-12493750D02*
X79025000Y-13506250D01*
G75*
G02*
X78731250Y-13800000I-293750J0D01*
G01*
X78143750Y-13800000D01*
G75*
G02*
X77850000Y-13506250I0J293750D01*
G01*
X77850000Y-12493750D01*
G75*
G02*
X78143750Y-12200000I293750J0D01*
G01*
X78731250Y-12200000D01*
G75*
G02*
X79025000Y-12493750I0J-293750D01*
G01*
G37*
G36*
G01*
X83550000Y-16606250D02*
X83550000Y-15593750D01*
G75*
G02*
X83843750Y-15300000I293750J0D01*
G01*
X84431250Y-15300000D01*
G75*
G02*
X84725000Y-15593750I0J-293750D01*
G01*
X84725000Y-16606250D01*
G75*
G02*
X84431250Y-16900000I-293750J0D01*
G01*
X83843750Y-16900000D01*
G75*
G02*
X83550000Y-16606250I0J293750D01*
G01*
G37*
G36*
G01*
X81675000Y-16606250D02*
X81675000Y-15593750D01*
G75*
G02*
X81968750Y-15300000I293750J0D01*
G01*
X82556250Y-15300000D01*
G75*
G02*
X82850000Y-15593750I0J-293750D01*
G01*
X82850000Y-16606250D01*
G75*
G02*
X82556250Y-16900000I-293750J0D01*
G01*
X81968750Y-16900000D01*
G75*
G02*
X81675000Y-16606250I0J293750D01*
G01*
G37*
G36*
G01*
X132293750Y-29050000D02*
X133306250Y-29050000D01*
G75*
G02*
X133600000Y-29343750I0J-293750D01*
G01*
X133600000Y-29931250D01*
G75*
G02*
X133306250Y-30225000I-293750J0D01*
G01*
X132293750Y-30225000D01*
G75*
G02*
X132000000Y-29931250I0J293750D01*
G01*
X132000000Y-29343750D01*
G75*
G02*
X132293750Y-29050000I293750J0D01*
G01*
G37*
G36*
G01*
X132293750Y-27175000D02*
X133306250Y-27175000D01*
G75*
G02*
X133600000Y-27468750I0J-293750D01*
G01*
X133600000Y-28056250D01*
G75*
G02*
X133306250Y-28350000I-293750J0D01*
G01*
X132293750Y-28350000D01*
G75*
G02*
X132000000Y-28056250I0J293750D01*
G01*
X132000000Y-27468750D01*
G75*
G02*
X132293750Y-27175000I293750J0D01*
G01*
G37*
D39*
X94465000Y-89540000D03*
G36*
G01*
X76850000Y-14975000D02*
X77200000Y-14975000D01*
G75*
G02*
X77375000Y-15150000I0J-175000D01*
G01*
X77375000Y-16625000D01*
G75*
G02*
X77200000Y-16800000I-175000J0D01*
G01*
X76850000Y-16800000D01*
G75*
G02*
X76675000Y-16625000I0J175000D01*
G01*
X76675000Y-15150000D01*
G75*
G02*
X76850000Y-14975000I175000J0D01*
G01*
G37*
G36*
G01*
X77500000Y-14975000D02*
X77850000Y-14975000D01*
G75*
G02*
X78025000Y-15150000I0J-175000D01*
G01*
X78025000Y-16625000D01*
G75*
G02*
X77850000Y-16800000I-175000J0D01*
G01*
X77500000Y-16800000D01*
G75*
G02*
X77325000Y-16625000I0J175000D01*
G01*
X77325000Y-15150000D01*
G75*
G02*
X77500000Y-14975000I175000J0D01*
G01*
G37*
G36*
G01*
X78150000Y-14975000D02*
X78500000Y-14975000D01*
G75*
G02*
X78675000Y-15150000I0J-175000D01*
G01*
X78675000Y-16625000D01*
G75*
G02*
X78500000Y-16800000I-175000J0D01*
G01*
X78150000Y-16800000D01*
G75*
G02*
X77975000Y-16625000I0J175000D01*
G01*
X77975000Y-15150000D01*
G75*
G02*
X78150000Y-14975000I175000J0D01*
G01*
G37*
G36*
G01*
X78800000Y-14975000D02*
X79150000Y-14975000D01*
G75*
G02*
X79325000Y-15150000I0J-175000D01*
G01*
X79325000Y-16625000D01*
G75*
G02*
X79150000Y-16800000I-175000J0D01*
G01*
X78800000Y-16800000D01*
G75*
G02*
X78625000Y-16625000I0J175000D01*
G01*
X78625000Y-15150000D01*
G75*
G02*
X78800000Y-14975000I175000J0D01*
G01*
G37*
G36*
G01*
X78800000Y-19200000D02*
X79150000Y-19200000D01*
G75*
G02*
X79325000Y-19375000I0J-175000D01*
G01*
X79325000Y-20850000D01*
G75*
G02*
X79150000Y-21025000I-175000J0D01*
G01*
X78800000Y-21025000D01*
G75*
G02*
X78625000Y-20850000I0J175000D01*
G01*
X78625000Y-19375000D01*
G75*
G02*
X78800000Y-19200000I175000J0D01*
G01*
G37*
G36*
G01*
X78150000Y-19200000D02*
X78500000Y-19200000D01*
G75*
G02*
X78675000Y-19375000I0J-175000D01*
G01*
X78675000Y-20850000D01*
G75*
G02*
X78500000Y-21025000I-175000J0D01*
G01*
X78150000Y-21025000D01*
G75*
G02*
X77975000Y-20850000I0J175000D01*
G01*
X77975000Y-19375000D01*
G75*
G02*
X78150000Y-19200000I175000J0D01*
G01*
G37*
G36*
G01*
X77500000Y-19200000D02*
X77850000Y-19200000D01*
G75*
G02*
X78025000Y-19375000I0J-175000D01*
G01*
X78025000Y-20850000D01*
G75*
G02*
X77850000Y-21025000I-175000J0D01*
G01*
X77500000Y-21025000D01*
G75*
G02*
X77325000Y-20850000I0J175000D01*
G01*
X77325000Y-19375000D01*
G75*
G02*
X77500000Y-19200000I175000J0D01*
G01*
G37*
G36*
G01*
X76850000Y-19200000D02*
X77200000Y-19200000D01*
G75*
G02*
X77375000Y-19375000I0J-175000D01*
G01*
X77375000Y-20850000D01*
G75*
G02*
X77200000Y-21025000I-175000J0D01*
G01*
X76850000Y-21025000D01*
G75*
G02*
X76675000Y-20850000I0J175000D01*
G01*
X76675000Y-19375000D01*
G75*
G02*
X76850000Y-19200000I175000J0D01*
G01*
G37*
G36*
G01*
X94300000Y-85300000D02*
X93950000Y-85300000D01*
G75*
G02*
X93775000Y-85125000I0J175000D01*
G01*
X93775000Y-83375000D01*
G75*
G02*
X93950000Y-83200000I175000J0D01*
G01*
X94300000Y-83200000D01*
G75*
G02*
X94475000Y-83375000I0J-175000D01*
G01*
X94475000Y-85125000D01*
G75*
G02*
X94300000Y-85300000I-175000J0D01*
G01*
G37*
G36*
G01*
X93650000Y-85300000D02*
X93300000Y-85300000D01*
G75*
G02*
X93125000Y-85125000I0J175000D01*
G01*
X93125000Y-83375000D01*
G75*
G02*
X93300000Y-83200000I175000J0D01*
G01*
X93650000Y-83200000D01*
G75*
G02*
X93825000Y-83375000I0J-175000D01*
G01*
X93825000Y-85125000D01*
G75*
G02*
X93650000Y-85300000I-175000J0D01*
G01*
G37*
G36*
G01*
X93000000Y-85300000D02*
X92650000Y-85300000D01*
G75*
G02*
X92475000Y-85125000I0J175000D01*
G01*
X92475000Y-83375000D01*
G75*
G02*
X92650000Y-83200000I175000J0D01*
G01*
X93000000Y-83200000D01*
G75*
G02*
X93175000Y-83375000I0J-175000D01*
G01*
X93175000Y-85125000D01*
G75*
G02*
X93000000Y-85300000I-175000J0D01*
G01*
G37*
G36*
G01*
X92350000Y-85300000D02*
X92000000Y-85300000D01*
G75*
G02*
X91825000Y-85125000I0J175000D01*
G01*
X91825000Y-83375000D01*
G75*
G02*
X92000000Y-83200000I175000J0D01*
G01*
X92350000Y-83200000D01*
G75*
G02*
X92525000Y-83375000I0J-175000D01*
G01*
X92525000Y-85125000D01*
G75*
G02*
X92350000Y-85300000I-175000J0D01*
G01*
G37*
G36*
G01*
X91700000Y-85300000D02*
X91350000Y-85300000D01*
G75*
G02*
X91175000Y-85125000I0J175000D01*
G01*
X91175000Y-83375000D01*
G75*
G02*
X91350000Y-83200000I175000J0D01*
G01*
X91700000Y-83200000D01*
G75*
G02*
X91875000Y-83375000I0J-175000D01*
G01*
X91875000Y-85125000D01*
G75*
G02*
X91700000Y-85300000I-175000J0D01*
G01*
G37*
G36*
G01*
X91050000Y-85300000D02*
X90700000Y-85300000D01*
G75*
G02*
X90525000Y-85125000I0J175000D01*
G01*
X90525000Y-83375000D01*
G75*
G02*
X90700000Y-83200000I175000J0D01*
G01*
X91050000Y-83200000D01*
G75*
G02*
X91225000Y-83375000I0J-175000D01*
G01*
X91225000Y-85125000D01*
G75*
G02*
X91050000Y-85300000I-175000J0D01*
G01*
G37*
G36*
G01*
X90400000Y-85300000D02*
X90050000Y-85300000D01*
G75*
G02*
X89875000Y-85125000I0J175000D01*
G01*
X89875000Y-83375000D01*
G75*
G02*
X90050000Y-83200000I175000J0D01*
G01*
X90400000Y-83200000D01*
G75*
G02*
X90575000Y-83375000I0J-175000D01*
G01*
X90575000Y-85125000D01*
G75*
G02*
X90400000Y-85300000I-175000J0D01*
G01*
G37*
G36*
G01*
X89750000Y-85300000D02*
X89400000Y-85300000D01*
G75*
G02*
X89225000Y-85125000I0J175000D01*
G01*
X89225000Y-83375000D01*
G75*
G02*
X89400000Y-83200000I175000J0D01*
G01*
X89750000Y-83200000D01*
G75*
G02*
X89925000Y-83375000I0J-175000D01*
G01*
X89925000Y-85125000D01*
G75*
G02*
X89750000Y-85300000I-175000J0D01*
G01*
G37*
G36*
G01*
X89100000Y-85300000D02*
X88750000Y-85300000D01*
G75*
G02*
X88575000Y-85125000I0J175000D01*
G01*
X88575000Y-83375000D01*
G75*
G02*
X88750000Y-83200000I175000J0D01*
G01*
X89100000Y-83200000D01*
G75*
G02*
X89275000Y-83375000I0J-175000D01*
G01*
X89275000Y-85125000D01*
G75*
G02*
X89100000Y-85300000I-175000J0D01*
G01*
G37*
G36*
G01*
X88450000Y-85300000D02*
X88100000Y-85300000D01*
G75*
G02*
X87925000Y-85125000I0J175000D01*
G01*
X87925000Y-83375000D01*
G75*
G02*
X88100000Y-83200000I175000J0D01*
G01*
X88450000Y-83200000D01*
G75*
G02*
X88625000Y-83375000I0J-175000D01*
G01*
X88625000Y-85125000D01*
G75*
G02*
X88450000Y-85300000I-175000J0D01*
G01*
G37*
G36*
G01*
X88450000Y-78300000D02*
X88100000Y-78300000D01*
G75*
G02*
X87925000Y-78125000I0J175000D01*
G01*
X87925000Y-76375000D01*
G75*
G02*
X88100000Y-76200000I175000J0D01*
G01*
X88450000Y-76200000D01*
G75*
G02*
X88625000Y-76375000I0J-175000D01*
G01*
X88625000Y-78125000D01*
G75*
G02*
X88450000Y-78300000I-175000J0D01*
G01*
G37*
G36*
G01*
X89100000Y-78300000D02*
X88750000Y-78300000D01*
G75*
G02*
X88575000Y-78125000I0J175000D01*
G01*
X88575000Y-76375000D01*
G75*
G02*
X88750000Y-76200000I175000J0D01*
G01*
X89100000Y-76200000D01*
G75*
G02*
X89275000Y-76375000I0J-175000D01*
G01*
X89275000Y-78125000D01*
G75*
G02*
X89100000Y-78300000I-175000J0D01*
G01*
G37*
G36*
G01*
X89750000Y-78300000D02*
X89400000Y-78300000D01*
G75*
G02*
X89225000Y-78125000I0J175000D01*
G01*
X89225000Y-76375000D01*
G75*
G02*
X89400000Y-76200000I175000J0D01*
G01*
X89750000Y-76200000D01*
G75*
G02*
X89925000Y-76375000I0J-175000D01*
G01*
X89925000Y-78125000D01*
G75*
G02*
X89750000Y-78300000I-175000J0D01*
G01*
G37*
G36*
G01*
X90400000Y-78300000D02*
X90050000Y-78300000D01*
G75*
G02*
X89875000Y-78125000I0J175000D01*
G01*
X89875000Y-76375000D01*
G75*
G02*
X90050000Y-76200000I175000J0D01*
G01*
X90400000Y-76200000D01*
G75*
G02*
X90575000Y-76375000I0J-175000D01*
G01*
X90575000Y-78125000D01*
G75*
G02*
X90400000Y-78300000I-175000J0D01*
G01*
G37*
G36*
G01*
X91050000Y-78300000D02*
X90700000Y-78300000D01*
G75*
G02*
X90525000Y-78125000I0J175000D01*
G01*
X90525000Y-76375000D01*
G75*
G02*
X90700000Y-76200000I175000J0D01*
G01*
X91050000Y-76200000D01*
G75*
G02*
X91225000Y-76375000I0J-175000D01*
G01*
X91225000Y-78125000D01*
G75*
G02*
X91050000Y-78300000I-175000J0D01*
G01*
G37*
G36*
G01*
X91700000Y-78300000D02*
X91350000Y-78300000D01*
G75*
G02*
X91175000Y-78125000I0J175000D01*
G01*
X91175000Y-76375000D01*
G75*
G02*
X91350000Y-76200000I175000J0D01*
G01*
X91700000Y-76200000D01*
G75*
G02*
X91875000Y-76375000I0J-175000D01*
G01*
X91875000Y-78125000D01*
G75*
G02*
X91700000Y-78300000I-175000J0D01*
G01*
G37*
G36*
G01*
X92350000Y-78300000D02*
X92000000Y-78300000D01*
G75*
G02*
X91825000Y-78125000I0J175000D01*
G01*
X91825000Y-76375000D01*
G75*
G02*
X92000000Y-76200000I175000J0D01*
G01*
X92350000Y-76200000D01*
G75*
G02*
X92525000Y-76375000I0J-175000D01*
G01*
X92525000Y-78125000D01*
G75*
G02*
X92350000Y-78300000I-175000J0D01*
G01*
G37*
G36*
G01*
X93000000Y-78300000D02*
X92650000Y-78300000D01*
G75*
G02*
X92475000Y-78125000I0J175000D01*
G01*
X92475000Y-76375000D01*
G75*
G02*
X92650000Y-76200000I175000J0D01*
G01*
X93000000Y-76200000D01*
G75*
G02*
X93175000Y-76375000I0J-175000D01*
G01*
X93175000Y-78125000D01*
G75*
G02*
X93000000Y-78300000I-175000J0D01*
G01*
G37*
G36*
G01*
X93650000Y-78300000D02*
X93300000Y-78300000D01*
G75*
G02*
X93125000Y-78125000I0J175000D01*
G01*
X93125000Y-76375000D01*
G75*
G02*
X93300000Y-76200000I175000J0D01*
G01*
X93650000Y-76200000D01*
G75*
G02*
X93825000Y-76375000I0J-175000D01*
G01*
X93825000Y-78125000D01*
G75*
G02*
X93650000Y-78300000I-175000J0D01*
G01*
G37*
G36*
G01*
X94300000Y-78300000D02*
X93950000Y-78300000D01*
G75*
G02*
X93775000Y-78125000I0J175000D01*
G01*
X93775000Y-76375000D01*
G75*
G02*
X93950000Y-76200000I175000J0D01*
G01*
X94300000Y-76200000D01*
G75*
G02*
X94475000Y-76375000I0J-175000D01*
G01*
X94475000Y-78125000D01*
G75*
G02*
X94300000Y-78300000I-175000J0D01*
G01*
G37*
G36*
G01*
X141475000Y-27514250D02*
X141475000Y-26501750D01*
G75*
G02*
X141768750Y-26208000I293750J0D01*
G01*
X142356250Y-26208000D01*
G75*
G02*
X142650000Y-26501750I0J-293750D01*
G01*
X142650000Y-27514250D01*
G75*
G02*
X142356250Y-27808000I-293750J0D01*
G01*
X141768750Y-27808000D01*
G75*
G02*
X141475000Y-27514250I0J293750D01*
G01*
G37*
G36*
G01*
X143350000Y-27514250D02*
X143350000Y-26501750D01*
G75*
G02*
X143643750Y-26208000I293750J0D01*
G01*
X144231250Y-26208000D01*
G75*
G02*
X144525000Y-26501750I0J-293750D01*
G01*
X144525000Y-27514250D01*
G75*
G02*
X144231250Y-27808000I-293750J0D01*
G01*
X143643750Y-27808000D01*
G75*
G02*
X143350000Y-27514250I0J293750D01*
G01*
G37*
G36*
G01*
X144532500Y-24033750D02*
X144532500Y-25046250D01*
G75*
G02*
X144238750Y-25340000I-293750J0D01*
G01*
X143651250Y-25340000D01*
G75*
G02*
X143357500Y-25046250I0J293750D01*
G01*
X143357500Y-24033750D01*
G75*
G02*
X143651250Y-23740000I293750J0D01*
G01*
X144238750Y-23740000D01*
G75*
G02*
X144532500Y-24033750I0J-293750D01*
G01*
G37*
G36*
G01*
X142657500Y-24033750D02*
X142657500Y-25046250D01*
G75*
G02*
X142363750Y-25340000I-293750J0D01*
G01*
X141776250Y-25340000D01*
G75*
G02*
X141482500Y-25046250I0J293750D01*
G01*
X141482500Y-24033750D01*
G75*
G02*
X141776250Y-23740000I293750J0D01*
G01*
X142363750Y-23740000D01*
G75*
G02*
X142657500Y-24033750I0J-293750D01*
G01*
G37*
D37*
X146800000Y-29600000D03*
D38*
X146800000Y-27060000D03*
X146800000Y-24520000D03*
D11*
X98700000Y-9460000D03*
D10*
X98700000Y-12000000D03*
X98700000Y-14540000D03*
G36*
G01*
X1712500Y-62581250D02*
X1712500Y-61568750D01*
G75*
G02*
X2006250Y-61275000I293750J0D01*
G01*
X2593750Y-61275000D01*
G75*
G02*
X2887500Y-61568750I0J-293750D01*
G01*
X2887500Y-62581250D01*
G75*
G02*
X2593750Y-62875000I-293750J0D01*
G01*
X2006250Y-62875000D01*
G75*
G02*
X1712500Y-62581250I0J293750D01*
G01*
G37*
G36*
G01*
X3587500Y-62581250D02*
X3587500Y-61568750D01*
G75*
G02*
X3881250Y-61275000I293750J0D01*
G01*
X4468750Y-61275000D01*
G75*
G02*
X4762500Y-61568750I0J-293750D01*
G01*
X4762500Y-62581250D01*
G75*
G02*
X4468750Y-62875000I-293750J0D01*
G01*
X3881250Y-62875000D01*
G75*
G02*
X3587500Y-62581250I0J293750D01*
G01*
G37*
G36*
G01*
X7331250Y-72625000D02*
X6318750Y-72625000D01*
G75*
G02*
X6025000Y-72331250I0J293750D01*
G01*
X6025000Y-71743750D01*
G75*
G02*
X6318750Y-71450000I293750J0D01*
G01*
X7331250Y-71450000D01*
G75*
G02*
X7625000Y-71743750I0J-293750D01*
G01*
X7625000Y-72331250D01*
G75*
G02*
X7331250Y-72625000I-293750J0D01*
G01*
G37*
G36*
G01*
X7331250Y-74500000D02*
X6318750Y-74500000D01*
G75*
G02*
X6025000Y-74206250I0J293750D01*
G01*
X6025000Y-73618750D01*
G75*
G02*
X6318750Y-73325000I293750J0D01*
G01*
X7331250Y-73325000D01*
G75*
G02*
X7625000Y-73618750I0J-293750D01*
G01*
X7625000Y-74206250D01*
G75*
G02*
X7331250Y-74500000I-293750J0D01*
G01*
G37*
D33*
X9225000Y-71275000D03*
X9225000Y-74575000D03*
G36*
G01*
X84938250Y-41710500D02*
X83925750Y-41710500D01*
G75*
G02*
X83632000Y-41416750I0J293750D01*
G01*
X83632000Y-40829250D01*
G75*
G02*
X83925750Y-40535500I293750J0D01*
G01*
X84938250Y-40535500D01*
G75*
G02*
X85232000Y-40829250I0J-293750D01*
G01*
X85232000Y-41416750D01*
G75*
G02*
X84938250Y-41710500I-293750J0D01*
G01*
G37*
G36*
G01*
X84938250Y-39835500D02*
X83925750Y-39835500D01*
G75*
G02*
X83632000Y-39541750I0J293750D01*
G01*
X83632000Y-38954250D01*
G75*
G02*
X83925750Y-38660500I293750J0D01*
G01*
X84938250Y-38660500D01*
G75*
G02*
X85232000Y-38954250I0J-293750D01*
G01*
X85232000Y-39541750D01*
G75*
G02*
X84938250Y-39835500I-293750J0D01*
G01*
G37*
G36*
G01*
X20676250Y-36122500D02*
X19663750Y-36122500D01*
G75*
G02*
X19370000Y-35828750I0J293750D01*
G01*
X19370000Y-35241250D01*
G75*
G02*
X19663750Y-34947500I293750J0D01*
G01*
X20676250Y-34947500D01*
G75*
G02*
X20970000Y-35241250I0J-293750D01*
G01*
X20970000Y-35828750D01*
G75*
G02*
X20676250Y-36122500I-293750J0D01*
G01*
G37*
G36*
G01*
X20676250Y-34247500D02*
X19663750Y-34247500D01*
G75*
G02*
X19370000Y-33953750I0J293750D01*
G01*
X19370000Y-33366250D01*
G75*
G02*
X19663750Y-33072500I293750J0D01*
G01*
X20676250Y-33072500D01*
G75*
G02*
X20970000Y-33366250I0J-293750D01*
G01*
X20970000Y-33953750D01*
G75*
G02*
X20676250Y-34247500I-293750J0D01*
G01*
G37*
G36*
G01*
X84938250Y-51676500D02*
X83925750Y-51676500D01*
G75*
G02*
X83632000Y-51382750I0J293750D01*
G01*
X83632000Y-50795250D01*
G75*
G02*
X83925750Y-50501500I293750J0D01*
G01*
X84938250Y-50501500D01*
G75*
G02*
X85232000Y-50795250I0J-293750D01*
G01*
X85232000Y-51382750D01*
G75*
G02*
X84938250Y-51676500I-293750J0D01*
G01*
G37*
G36*
G01*
X84938250Y-53551500D02*
X83925750Y-53551500D01*
G75*
G02*
X83632000Y-53257750I0J293750D01*
G01*
X83632000Y-52670250D01*
G75*
G02*
X83925750Y-52376500I293750J0D01*
G01*
X84938250Y-52376500D01*
G75*
G02*
X85232000Y-52670250I0J-293750D01*
G01*
X85232000Y-53257750D01*
G75*
G02*
X84938250Y-53551500I-293750J0D01*
G01*
G37*
G36*
G01*
X20930250Y-45931500D02*
X19917750Y-45931500D01*
G75*
G02*
X19624000Y-45637750I0J293750D01*
G01*
X19624000Y-45050250D01*
G75*
G02*
X19917750Y-44756500I293750J0D01*
G01*
X20930250Y-44756500D01*
G75*
G02*
X21224000Y-45050250I0J-293750D01*
G01*
X21224000Y-45637750D01*
G75*
G02*
X20930250Y-45931500I-293750J0D01*
G01*
G37*
G36*
G01*
X20930250Y-47806500D02*
X19917750Y-47806500D01*
G75*
G02*
X19624000Y-47512750I0J293750D01*
G01*
X19624000Y-46925250D01*
G75*
G02*
X19917750Y-46631500I293750J0D01*
G01*
X20930250Y-46631500D01*
G75*
G02*
X21224000Y-46925250I0J-293750D01*
G01*
X21224000Y-47512750D01*
G75*
G02*
X20930250Y-47806500I-293750J0D01*
G01*
G37*
G36*
G01*
X84938250Y-65235500D02*
X83925750Y-65235500D01*
G75*
G02*
X83632000Y-64941750I0J293750D01*
G01*
X83632000Y-64354250D01*
G75*
G02*
X83925750Y-64060500I293750J0D01*
G01*
X84938250Y-64060500D01*
G75*
G02*
X85232000Y-64354250I0J-293750D01*
G01*
X85232000Y-64941750D01*
G75*
G02*
X84938250Y-65235500I-293750J0D01*
G01*
G37*
G36*
G01*
X84938250Y-63360500D02*
X83925750Y-63360500D01*
G75*
G02*
X83632000Y-63066750I0J293750D01*
G01*
X83632000Y-62479250D01*
G75*
G02*
X83925750Y-62185500I293750J0D01*
G01*
X84938250Y-62185500D01*
G75*
G02*
X85232000Y-62479250I0J-293750D01*
G01*
X85232000Y-63066750D01*
G75*
G02*
X84938250Y-63360500I-293750J0D01*
G01*
G37*
G36*
G01*
X20930250Y-59490500D02*
X19917750Y-59490500D01*
G75*
G02*
X19624000Y-59196750I0J293750D01*
G01*
X19624000Y-58609250D01*
G75*
G02*
X19917750Y-58315500I293750J0D01*
G01*
X20930250Y-58315500D01*
G75*
G02*
X21224000Y-58609250I0J-293750D01*
G01*
X21224000Y-59196750D01*
G75*
G02*
X20930250Y-59490500I-293750J0D01*
G01*
G37*
G36*
G01*
X20930250Y-57615500D02*
X19917750Y-57615500D01*
G75*
G02*
X19624000Y-57321750I0J293750D01*
G01*
X19624000Y-56734250D01*
G75*
G02*
X19917750Y-56440500I293750J0D01*
G01*
X20930250Y-56440500D01*
G75*
G02*
X21224000Y-56734250I0J-293750D01*
G01*
X21224000Y-57321750D01*
G75*
G02*
X20930250Y-57615500I-293750J0D01*
G01*
G37*
G36*
G01*
X84938250Y-75298500D02*
X83925750Y-75298500D01*
G75*
G02*
X83632000Y-75004750I0J293750D01*
G01*
X83632000Y-74417250D01*
G75*
G02*
X83925750Y-74123500I293750J0D01*
G01*
X84938250Y-74123500D01*
G75*
G02*
X85232000Y-74417250I0J-293750D01*
G01*
X85232000Y-75004750D01*
G75*
G02*
X84938250Y-75298500I-293750J0D01*
G01*
G37*
G36*
G01*
X84938250Y-77173500D02*
X83925750Y-77173500D01*
G75*
G02*
X83632000Y-76879750I0J293750D01*
G01*
X83632000Y-76292250D01*
G75*
G02*
X83925750Y-75998500I293750J0D01*
G01*
X84938250Y-75998500D01*
G75*
G02*
X85232000Y-76292250I0J-293750D01*
G01*
X85232000Y-76879750D01*
G75*
G02*
X84938250Y-77173500I-293750J0D01*
G01*
G37*
G36*
G01*
X20930250Y-71428500D02*
X19917750Y-71428500D01*
G75*
G02*
X19624000Y-71134750I0J293750D01*
G01*
X19624000Y-70547250D01*
G75*
G02*
X19917750Y-70253500I293750J0D01*
G01*
X20930250Y-70253500D01*
G75*
G02*
X21224000Y-70547250I0J-293750D01*
G01*
X21224000Y-71134750D01*
G75*
G02*
X20930250Y-71428500I-293750J0D01*
G01*
G37*
G36*
G01*
X20930250Y-69553500D02*
X19917750Y-69553500D01*
G75*
G02*
X19624000Y-69259750I0J293750D01*
G01*
X19624000Y-68672250D01*
G75*
G02*
X19917750Y-68378500I293750J0D01*
G01*
X20930250Y-68378500D01*
G75*
G02*
X21224000Y-68672250I0J-293750D01*
G01*
X21224000Y-69259750D01*
G75*
G02*
X20930250Y-69553500I-293750J0D01*
G01*
G37*
G36*
G01*
X84938250Y-89033000D02*
X83925750Y-89033000D01*
G75*
G02*
X83632000Y-88739250I0J293750D01*
G01*
X83632000Y-88151750D01*
G75*
G02*
X83925750Y-87858000I293750J0D01*
G01*
X84938250Y-87858000D01*
G75*
G02*
X85232000Y-88151750I0J-293750D01*
G01*
X85232000Y-88739250D01*
G75*
G02*
X84938250Y-89033000I-293750J0D01*
G01*
G37*
G36*
G01*
X84938250Y-87158000D02*
X83925750Y-87158000D01*
G75*
G02*
X83632000Y-86864250I0J293750D01*
G01*
X83632000Y-86276750D01*
G75*
G02*
X83925750Y-85983000I293750J0D01*
G01*
X84938250Y-85983000D01*
G75*
G02*
X85232000Y-86276750I0J-293750D01*
G01*
X85232000Y-86864250D01*
G75*
G02*
X84938250Y-87158000I-293750J0D01*
G01*
G37*
G36*
G01*
X20930250Y-81237500D02*
X19917750Y-81237500D01*
G75*
G02*
X19624000Y-80943750I0J293750D01*
G01*
X19624000Y-80356250D01*
G75*
G02*
X19917750Y-80062500I293750J0D01*
G01*
X20930250Y-80062500D01*
G75*
G02*
X21224000Y-80356250I0J-293750D01*
G01*
X21224000Y-80943750D01*
G75*
G02*
X20930250Y-81237500I-293750J0D01*
G01*
G37*
G36*
G01*
X20930250Y-83112500D02*
X19917750Y-83112500D01*
G75*
G02*
X19624000Y-82818750I0J293750D01*
G01*
X19624000Y-82231250D01*
G75*
G02*
X19917750Y-81937500I293750J0D01*
G01*
X20930250Y-81937500D01*
G75*
G02*
X21224000Y-82231250I0J-293750D01*
G01*
X21224000Y-82818750D01*
G75*
G02*
X20930250Y-83112500I-293750J0D01*
G01*
G37*
G36*
G01*
X112190900Y-72037650D02*
X112190900Y-71025150D01*
G75*
G02*
X112484650Y-70731400I293750J0D01*
G01*
X113072150Y-70731400D01*
G75*
G02*
X113365900Y-71025150I0J-293750D01*
G01*
X113365900Y-72037650D01*
G75*
G02*
X113072150Y-72331400I-293750J0D01*
G01*
X112484650Y-72331400D01*
G75*
G02*
X112190900Y-72037650I0J293750D01*
G01*
G37*
G36*
G01*
X110315900Y-72037650D02*
X110315900Y-71025150D01*
G75*
G02*
X110609650Y-70731400I293750J0D01*
G01*
X111197150Y-70731400D01*
G75*
G02*
X111490900Y-71025150I0J-293750D01*
G01*
X111490900Y-72037650D01*
G75*
G02*
X111197150Y-72331400I-293750J0D01*
G01*
X110609650Y-72331400D01*
G75*
G02*
X110315900Y-72037650I0J293750D01*
G01*
G37*
G36*
G01*
X6631250Y-66600000D02*
X5618750Y-66600000D01*
G75*
G02*
X5325000Y-66306250I0J293750D01*
G01*
X5325000Y-65718750D01*
G75*
G02*
X5618750Y-65425000I293750J0D01*
G01*
X6631250Y-65425000D01*
G75*
G02*
X6925000Y-65718750I0J-293750D01*
G01*
X6925000Y-66306250D01*
G75*
G02*
X6631250Y-66600000I-293750J0D01*
G01*
G37*
G36*
G01*
X6631250Y-64725000D02*
X5618750Y-64725000D01*
G75*
G02*
X5325000Y-64431250I0J293750D01*
G01*
X5325000Y-63843750D01*
G75*
G02*
X5618750Y-63550000I293750J0D01*
G01*
X6631250Y-63550000D01*
G75*
G02*
X6925000Y-63843750I0J-293750D01*
G01*
X6925000Y-64431250D01*
G75*
G02*
X6631250Y-64725000I-293750J0D01*
G01*
G37*
G36*
G01*
X2875000Y-59418750D02*
X2875000Y-60431250D01*
G75*
G02*
X2581250Y-60725000I-293750J0D01*
G01*
X1993750Y-60725000D01*
G75*
G02*
X1700000Y-60431250I0J293750D01*
G01*
X1700000Y-59418750D01*
G75*
G02*
X1993750Y-59125000I293750J0D01*
G01*
X2581250Y-59125000D01*
G75*
G02*
X2875000Y-59418750I0J-293750D01*
G01*
G37*
G36*
G01*
X4750000Y-59418750D02*
X4750000Y-60431250D01*
G75*
G02*
X4456250Y-60725000I-293750J0D01*
G01*
X3868750Y-60725000D01*
G75*
G02*
X3575000Y-60431250I0J293750D01*
G01*
X3575000Y-59418750D01*
G75*
G02*
X3868750Y-59125000I293750J0D01*
G01*
X4456250Y-59125000D01*
G75*
G02*
X4750000Y-59418750I0J-293750D01*
G01*
G37*
D40*
X90800000Y-86600000D03*
X75100000Y-27800000D03*
D41*
X124691000Y-58044000D03*
D40*
X94846000Y-75265199D03*
D41*
X93830000Y-49662000D03*
X123468000Y-31200000D03*
X90782000Y-19436000D03*
X96370000Y-19436000D03*
X91290000Y-32390000D03*
X84940000Y-27310000D03*
X87480000Y-27310000D03*
X90020000Y-27310000D03*
D40*
X17500000Y-99000000D03*
X37500000Y-99000000D03*
X47500000Y-99000000D03*
X52500000Y-99000000D03*
X55000000Y-99000000D03*
X57500000Y-99000000D03*
X60000000Y-99000000D03*
X62500000Y-99000000D03*
X65000000Y-99000000D03*
X67500000Y-99000000D03*
X2500000Y-99000000D03*
X5000000Y-99000000D03*
X7500000Y-99000000D03*
X10000000Y-99000000D03*
X15000000Y-99000000D03*
X40000000Y-99000000D03*
X42500000Y-99000000D03*
X45000000Y-99000000D03*
X50000000Y-99000000D03*
X12500000Y-99000000D03*
X32500000Y-99000000D03*
X75000000Y-99000000D03*
X22500000Y-99000000D03*
X25000000Y-99000000D03*
X87500000Y-99000000D03*
X72500000Y-99000000D03*
X70000000Y-99000000D03*
X82500000Y-99000000D03*
X92500000Y-99000000D03*
X35000000Y-99000000D03*
X27500000Y-99000000D03*
X77500000Y-99000000D03*
X85000000Y-99000000D03*
X80000000Y-99000000D03*
X30000000Y-99000000D03*
X90000000Y-99000000D03*
X101000000Y-1000000D03*
X103540000Y-1000000D03*
X106080000Y-1000000D03*
X108620000Y-1000000D03*
X111160000Y-1000000D03*
X113700000Y-1000000D03*
X116240000Y-1000000D03*
X118780000Y-1000000D03*
X121320000Y-1000000D03*
X123860000Y-1000000D03*
X126400000Y-1000000D03*
X128940000Y-1000000D03*
X131480000Y-1000000D03*
X144180000Y-1000000D03*
X146720000Y-1000000D03*
X101000000Y-99000000D03*
X103540000Y-99000000D03*
X106080000Y-99000000D03*
X108620000Y-99000000D03*
X111160000Y-99000000D03*
X113700000Y-99000000D03*
X116240000Y-99000000D03*
X118780000Y-99000000D03*
X121320000Y-99000000D03*
X123860000Y-99000000D03*
X126400000Y-99000000D03*
X128940000Y-99000000D03*
X131480000Y-99000000D03*
X139100000Y-99000000D03*
X141640000Y-99000000D03*
X144180000Y-99000000D03*
X146720000Y-99000000D03*
X72500000Y-1000000D03*
X80000000Y-1000000D03*
X85000000Y-1000000D03*
X77500000Y-1000000D03*
X30000000Y-1000000D03*
X22500000Y-1000000D03*
X82500000Y-1000000D03*
X90000000Y-1000000D03*
X32500000Y-1000000D03*
X70000000Y-1000000D03*
X92500000Y-1000000D03*
X65000000Y-1000000D03*
X35000000Y-1000000D03*
X27500000Y-1000000D03*
X87500000Y-1000000D03*
X75000000Y-1000000D03*
X25000000Y-1000000D03*
X67500000Y-1000000D03*
X37500000Y-1000000D03*
X62500000Y-1000000D03*
X50000000Y-1000000D03*
X17500000Y-1000000D03*
X7500000Y-1000000D03*
X60000000Y-1000000D03*
X57500000Y-1000000D03*
X55000000Y-1000000D03*
X12500000Y-1000000D03*
X52500000Y-1000000D03*
X15000000Y-1000000D03*
X47500000Y-1000000D03*
X45000000Y-1000000D03*
X42500000Y-1000000D03*
X40000000Y-1000000D03*
X2500000Y-1000000D03*
X5000000Y-1000000D03*
X10000000Y-1000000D03*
X80750000Y-18000000D03*
D42*
X139982400Y-94583200D03*
X144182400Y-94583200D03*
X139982400Y-68283200D03*
X144182400Y-68283200D03*
X119230000Y-73665000D03*
D40*
X74400000Y-14000000D03*
X73700000Y-20100000D03*
X61300000Y-18400000D03*
X70300000Y-17900000D03*
X71370000Y-25480000D03*
X80500000Y-10600000D03*
X80900000Y-25300000D03*
X88100000Y-24000000D03*
X121871600Y-55021400D03*
X141640000Y-1000000D03*
X139100000Y-1000000D03*
X71310000Y-9950000D03*
X133200000Y-79380000D03*
X147170000Y-60965000D03*
D42*
X125453000Y-73665000D03*
D40*
X37784000Y-48073000D03*
X37784000Y-37216000D03*
X37784000Y-58873000D03*
X37784000Y-69273000D03*
X41506000Y-78110000D03*
X37684000Y-90373000D03*
X53784000Y-90473000D03*
X53784000Y-79673000D03*
X53784000Y-69173000D03*
X53784000Y-58273000D03*
X53684000Y-47973000D03*
X53698000Y-37216000D03*
X64884000Y-31073000D03*
X64884000Y-41673000D03*
X64784000Y-52273000D03*
X64784000Y-62873000D03*
X64784000Y-73473000D03*
X64784000Y-84073000D03*
X88100000Y-74900000D03*
X93322000Y-70642400D03*
X88850000Y-82350000D03*
X1400000Y-38050000D03*
D41*
X10518000Y-31247000D03*
D42*
X128400000Y-62000000D03*
D40*
X127739000Y-51059000D03*
X134000000Y-43975000D03*
X144000000Y-29000000D03*
X144000000Y-31540000D03*
X144000000Y-34080000D03*
X126900000Y-36500000D03*
X148800000Y-37500000D03*
X135800000Y-25600000D03*
X131600000Y-24400000D03*
X126300000Y-22800000D03*
X126300000Y-26800000D03*
X145900000Y-64521000D03*
X141300000Y-31600000D03*
X146200000Y-35600000D03*
X146800000Y-21000000D03*
X84800000Y-6300000D03*
X50100000Y-5400000D03*
X30500000Y-5400000D03*
X4100000Y-44800000D03*
X146600000Y-7500000D03*
X132692000Y-72649000D03*
D41*
X126024500Y-59568000D03*
X128755000Y-67315000D03*
X128755000Y-70490000D03*
X128755000Y-73665000D03*
X122405000Y-73665000D03*
X118595000Y-67315000D03*
X122405000Y-67315000D03*
X36680000Y-19690000D03*
X46078000Y-11054000D03*
X39220000Y-19690000D03*
X86464000Y-36200000D03*
X81384000Y-43058000D03*
X81257000Y-47503000D03*
X81638000Y-54996000D03*
X81130000Y-59060000D03*
X81892000Y-66426000D03*
X105260000Y-49662000D03*
X124818000Y-55250000D03*
X18900000Y-12070000D03*
X21440000Y-12070000D03*
X34140000Y-19690000D03*
X18900000Y-17150000D03*
X21440000Y-17150000D03*
X23980000Y-17150000D03*
X23980000Y-12070000D03*
X96370000Y-27310000D03*
X98910000Y-27310000D03*
X126850000Y-90810000D03*
X124310000Y-90810000D03*
X121770000Y-90810000D03*
X119230000Y-90810000D03*
X114150000Y-90810000D03*
X111610000Y-90810000D03*
X109070000Y-90810000D03*
X129390000Y-89540000D03*
X131930000Y-87000000D03*
X134470000Y-84460000D03*
X116690000Y-90810000D03*
X100180000Y-33660000D03*
X78590000Y-29850000D03*
X76050000Y-32390000D03*
X25250000Y-24770000D03*
X22710000Y-27310000D03*
X30330000Y-27310000D03*
X27790000Y-29850000D03*
X107800000Y-19690000D03*
X111610000Y-19690000D03*
X115420000Y-19690000D03*
X88496000Y-60330000D03*
X90782000Y-60330000D03*
X87988000Y-62870000D03*
X91036000Y-62108000D03*
X86718000Y-73030000D03*
X83924000Y-84968000D03*
D40*
X135650000Y-60600000D03*
X93900000Y-63700000D03*
D41*
X114785000Y-65511600D03*
D40*
X95200000Y-63100000D03*
X96200000Y-62000000D03*
D41*
X114505600Y-31221600D03*
X118976000Y-33152000D03*
D40*
X84100000Y-21300000D03*
X84100000Y-14300000D03*
D42*
X143800000Y-13300000D03*
X141400000Y-13300000D03*
X141400000Y-15100000D03*
X143800000Y-15100000D03*
X141400000Y-16900000D03*
X143800000Y-16900000D03*
D41*
X119915800Y-63784400D03*
X102720000Y-60050600D03*
X93575994Y-62362000D03*
X86845000Y-66680000D03*
D43*
G36*
X149873000Y-2323042D02*
G01*
X127000Y-2372958D01*
X127000Y-126958D01*
X149873000Y-77042D01*
X149873000Y-2323042D01*
G37*
X149873000Y-2323042D02*
X127000Y-2372958D01*
X127000Y-126958D01*
X149873000Y-77042D01*
X149873000Y-2323042D01*
G36*
X149773000Y-99823042D02*
G01*
X127000Y-99872958D01*
X127000Y-97627000D01*
X88500103Y-97627000D01*
X149773000Y-97577104D01*
X149773000Y-99823042D01*
G37*
X149773000Y-99823042D02*
X127000Y-99872958D01*
X127000Y-97627000D01*
X88500103Y-97627000D01*
X149773000Y-97577104D01*
X149773000Y-99823042D01*
M02*
