G04 #@! TF.GenerationSoftware,KiCad,Pcbnew,(5.1.5)-3*
G04 #@! TF.CreationDate,2020-02-20T16:57:50+01:00*
G04 #@! TF.ProjectId,HL2_MRF101,484c325f-4d52-4463-9130-312e6b696361,2.0-build8*
G04 #@! TF.SameCoordinates,PX42c1d80PY2625a00*
G04 #@! TF.FileFunction,Legend,Bot*
G04 #@! TF.FilePolarity,Positive*
%FSLAX46Y46*%
G04 Gerber Fmt 4.6, Leading zero omitted, Abs format (unit mm)*
G04 Created by KiCad (PCBNEW (5.1.5)-3) date 2020-02-20 16:57:50*
%MOMM*%
%LPD*%
G04 APERTURE LIST*
%ADD10C,0.150000*%
%ADD11C,0.120000*%
%ADD12C,0.010000*%
%ADD13C,0.100000*%
%ADD14C,0.127000*%
%ADD15C,0.101600*%
G04 APERTURE END LIST*
D10*
X121642857Y-95542857D02*
X121642857Y-96400000D01*
X121700000Y-96571428D01*
X121814285Y-96685714D01*
X121985714Y-96742857D01*
X122100000Y-96742857D01*
X120500000Y-96742857D02*
X121071428Y-96742857D01*
X121071428Y-95542857D01*
X119414285Y-96628571D02*
X119471428Y-96685714D01*
X119642857Y-96742857D01*
X119757142Y-96742857D01*
X119928571Y-96685714D01*
X120042857Y-96571428D01*
X120100000Y-96457142D01*
X120157142Y-96228571D01*
X120157142Y-96057142D01*
X120100000Y-95828571D01*
X120042857Y-95714285D01*
X119928571Y-95600000D01*
X119757142Y-95542857D01*
X119642857Y-95542857D01*
X119471428Y-95600000D01*
X119414285Y-95657142D01*
X118557142Y-95542857D02*
X118557142Y-96400000D01*
X118614285Y-96571428D01*
X118728571Y-96685714D01*
X118900000Y-96742857D01*
X119014285Y-96742857D01*
X117414285Y-96742857D02*
X117985714Y-96742857D01*
X117985714Y-95542857D01*
X116328571Y-96628571D02*
X116385714Y-96685714D01*
X116557142Y-96742857D01*
X116671428Y-96742857D01*
X116842857Y-96685714D01*
X116957142Y-96571428D01*
X117014285Y-96457142D01*
X117071428Y-96228571D01*
X117071428Y-96057142D01*
X117014285Y-95828571D01*
X116957142Y-95714285D01*
X116842857Y-95600000D01*
X116671428Y-95542857D01*
X116557142Y-95542857D01*
X116385714Y-95600000D01*
X116328571Y-95657142D01*
X115471428Y-95542857D02*
X115471428Y-96400000D01*
X115528571Y-96571428D01*
X115642857Y-96685714D01*
X115814285Y-96742857D01*
X115928571Y-96742857D01*
X114328571Y-96742857D02*
X114900000Y-96742857D01*
X114900000Y-95542857D01*
X113242857Y-96628571D02*
X113300000Y-96685714D01*
X113471428Y-96742857D01*
X113585714Y-96742857D01*
X113757142Y-96685714D01*
X113871428Y-96571428D01*
X113928571Y-96457142D01*
X113985714Y-96228571D01*
X113985714Y-96057142D01*
X113928571Y-95828571D01*
X113871428Y-95714285D01*
X113757142Y-95600000D01*
X113585714Y-95542857D01*
X113471428Y-95542857D01*
X113300000Y-95600000D01*
X113242857Y-95657142D01*
X112385714Y-95542857D02*
X112385714Y-96400000D01*
X112442857Y-96571428D01*
X112557142Y-96685714D01*
X112728571Y-96742857D01*
X112842857Y-96742857D01*
X111242857Y-96742857D02*
X111814285Y-96742857D01*
X111814285Y-95542857D01*
X110157142Y-96628571D02*
X110214285Y-96685714D01*
X110385714Y-96742857D01*
X110500000Y-96742857D01*
X110671428Y-96685714D01*
X110785714Y-96571428D01*
X110842857Y-96457142D01*
X110900000Y-96228571D01*
X110900000Y-96057142D01*
X110842857Y-95828571D01*
X110785714Y-95714285D01*
X110671428Y-95600000D01*
X110500000Y-95542857D01*
X110385714Y-95542857D01*
X110214285Y-95600000D01*
X110157142Y-95657142D01*
X77616785Y-94767857D02*
X77616785Y-93567857D01*
X77216785Y-94425000D01*
X76816785Y-93567857D01*
X76816785Y-94767857D01*
X75559642Y-94767857D02*
X75959642Y-94196428D01*
X76245357Y-94767857D02*
X76245357Y-93567857D01*
X75788214Y-93567857D01*
X75673928Y-93625000D01*
X75616785Y-93682142D01*
X75559642Y-93796428D01*
X75559642Y-93967857D01*
X75616785Y-94082142D01*
X75673928Y-94139285D01*
X75788214Y-94196428D01*
X76245357Y-94196428D01*
X74645357Y-94139285D02*
X75045357Y-94139285D01*
X75045357Y-94767857D02*
X75045357Y-93567857D01*
X74473928Y-93567857D01*
X73388214Y-94767857D02*
X74073928Y-94767857D01*
X73731071Y-94767857D02*
X73731071Y-93567857D01*
X73845357Y-93739285D01*
X73959642Y-93853571D01*
X74073928Y-93910714D01*
X72645357Y-93567857D02*
X72531071Y-93567857D01*
X72416785Y-93625000D01*
X72359642Y-93682142D01*
X72302500Y-93796428D01*
X72245357Y-94025000D01*
X72245357Y-94310714D01*
X72302500Y-94539285D01*
X72359642Y-94653571D01*
X72416785Y-94710714D01*
X72531071Y-94767857D01*
X72645357Y-94767857D01*
X72759642Y-94710714D01*
X72816785Y-94653571D01*
X72873928Y-94539285D01*
X72931071Y-94310714D01*
X72931071Y-94025000D01*
X72873928Y-93796428D01*
X72816785Y-93682142D01*
X72759642Y-93625000D01*
X72645357Y-93567857D01*
X71102500Y-94767857D02*
X71788214Y-94767857D01*
X71445357Y-94767857D02*
X71445357Y-93567857D01*
X71559642Y-93739285D01*
X71673928Y-93853571D01*
X71788214Y-93910714D01*
X69045357Y-94767857D02*
X69731071Y-94767857D01*
X69388214Y-94767857D02*
X69388214Y-93567857D01*
X69502500Y-93739285D01*
X69616785Y-93853571D01*
X69731071Y-93910714D01*
X68302500Y-93567857D02*
X68188214Y-93567857D01*
X68073928Y-93625000D01*
X68016785Y-93682142D01*
X67959642Y-93796428D01*
X67902500Y-94025000D01*
X67902500Y-94310714D01*
X67959642Y-94539285D01*
X68016785Y-94653571D01*
X68073928Y-94710714D01*
X68188214Y-94767857D01*
X68302500Y-94767857D01*
X68416785Y-94710714D01*
X68473928Y-94653571D01*
X68531071Y-94539285D01*
X68588214Y-94310714D01*
X68588214Y-94025000D01*
X68531071Y-93796428D01*
X68473928Y-93682142D01*
X68416785Y-93625000D01*
X68302500Y-93567857D01*
X67159642Y-93567857D02*
X67045357Y-93567857D01*
X66931071Y-93625000D01*
X66873928Y-93682142D01*
X66816785Y-93796428D01*
X66759642Y-94025000D01*
X66759642Y-94310714D01*
X66816785Y-94539285D01*
X66873928Y-94653571D01*
X66931071Y-94710714D01*
X67045357Y-94767857D01*
X67159642Y-94767857D01*
X67273928Y-94710714D01*
X67331071Y-94653571D01*
X67388214Y-94539285D01*
X67445357Y-94310714D01*
X67445357Y-94025000D01*
X67388214Y-93796428D01*
X67331071Y-93682142D01*
X67273928Y-93625000D01*
X67159642Y-93567857D01*
X66359642Y-93567857D02*
X66073928Y-94767857D01*
X65845357Y-93910714D01*
X65616785Y-94767857D01*
X65331071Y-93567857D01*
X63959642Y-94767857D02*
X63959642Y-93567857D01*
X63502500Y-93567857D01*
X63388214Y-93625000D01*
X63331071Y-93682142D01*
X63273928Y-93796428D01*
X63273928Y-93967857D01*
X63331071Y-94082142D01*
X63388214Y-94139285D01*
X63502500Y-94196428D01*
X63959642Y-94196428D01*
X62816785Y-94425000D02*
X62245357Y-94425000D01*
X62931071Y-94767857D02*
X62531071Y-93567857D01*
X62131071Y-94767857D01*
X60988214Y-93967857D02*
X60531071Y-93967857D01*
X60816785Y-94767857D02*
X60816785Y-93739285D01*
X60759642Y-93625000D01*
X60645357Y-93567857D01*
X60531071Y-93567857D01*
X59959642Y-94767857D02*
X60073928Y-94710714D01*
X60131071Y-94653571D01*
X60188214Y-94539285D01*
X60188214Y-94196428D01*
X60131071Y-94082142D01*
X60073928Y-94025000D01*
X59959642Y-93967857D01*
X59788214Y-93967857D01*
X59673928Y-94025000D01*
X59616785Y-94082142D01*
X59559642Y-94196428D01*
X59559642Y-94539285D01*
X59616785Y-94653571D01*
X59673928Y-94710714D01*
X59788214Y-94767857D01*
X59959642Y-94767857D01*
X59045357Y-94767857D02*
X59045357Y-93967857D01*
X59045357Y-94196428D02*
X58988214Y-94082142D01*
X58931071Y-94025000D01*
X58816785Y-93967857D01*
X58702500Y-93967857D01*
X57388214Y-94767857D02*
X57388214Y-93567857D01*
X57388214Y-94139285D02*
X56702500Y-94139285D01*
X56702500Y-94767857D02*
X56702500Y-93567857D01*
X55673928Y-94710714D02*
X55788214Y-94767857D01*
X56016785Y-94767857D01*
X56131071Y-94710714D01*
X56188214Y-94596428D01*
X56188214Y-94139285D01*
X56131071Y-94025000D01*
X56016785Y-93967857D01*
X55788214Y-93967857D01*
X55673928Y-94025000D01*
X55616785Y-94139285D01*
X55616785Y-94253571D01*
X56188214Y-94367857D01*
X55102500Y-94767857D02*
X55102500Y-93967857D01*
X55102500Y-94196428D02*
X55045357Y-94082142D01*
X54988214Y-94025000D01*
X54873928Y-93967857D01*
X54759642Y-93967857D01*
X54359642Y-94767857D02*
X54359642Y-93967857D01*
X54359642Y-94082142D02*
X54302500Y-94025000D01*
X54188214Y-93967857D01*
X54016785Y-93967857D01*
X53902500Y-94025000D01*
X53845357Y-94139285D01*
X53845357Y-94767857D01*
X53845357Y-94139285D02*
X53788214Y-94025000D01*
X53673928Y-93967857D01*
X53502500Y-93967857D01*
X53388214Y-94025000D01*
X53331071Y-94139285D01*
X53331071Y-94767857D01*
X52302500Y-94710714D02*
X52416785Y-94767857D01*
X52645357Y-94767857D01*
X52759642Y-94710714D01*
X52816785Y-94596428D01*
X52816785Y-94139285D01*
X52759642Y-94025000D01*
X52645357Y-93967857D01*
X52416785Y-93967857D01*
X52302500Y-94025000D01*
X52245357Y-94139285D01*
X52245357Y-94253571D01*
X52816785Y-94367857D01*
X51788214Y-94710714D02*
X51673928Y-94767857D01*
X51445357Y-94767857D01*
X51331071Y-94710714D01*
X51273928Y-94596428D01*
X51273928Y-94539285D01*
X51331071Y-94425000D01*
X51445357Y-94367857D01*
X51616785Y-94367857D01*
X51731071Y-94310714D01*
X51788214Y-94196428D01*
X51788214Y-94139285D01*
X51731071Y-94025000D01*
X51616785Y-93967857D01*
X51445357Y-93967857D01*
X51331071Y-94025000D01*
X50759642Y-94310714D02*
X49845357Y-94310714D01*
X48702500Y-94767857D02*
X49273928Y-94767857D01*
X49273928Y-93567857D01*
X48302500Y-94767857D02*
X48302500Y-93967857D01*
X48302500Y-93567857D02*
X48359642Y-93625000D01*
X48302500Y-93682142D01*
X48245357Y-93625000D01*
X48302500Y-93567857D01*
X48302500Y-93682142D01*
X47902500Y-93967857D02*
X47445357Y-93967857D01*
X47731071Y-93567857D02*
X47731071Y-94596428D01*
X47673928Y-94710714D01*
X47559642Y-94767857D01*
X47445357Y-94767857D01*
X46588214Y-94710714D02*
X46702500Y-94767857D01*
X46931071Y-94767857D01*
X47045357Y-94710714D01*
X47102500Y-94596428D01*
X47102500Y-94139285D01*
X47045357Y-94025000D01*
X46931071Y-93967857D01*
X46702500Y-93967857D01*
X46588214Y-94025000D01*
X46531071Y-94139285D01*
X46531071Y-94253571D01*
X47102500Y-94367857D01*
X45159642Y-93682142D02*
X45102500Y-93625000D01*
X44988214Y-93567857D01*
X44702500Y-93567857D01*
X44588214Y-93625000D01*
X44531071Y-93682142D01*
X44473928Y-93796428D01*
X44473928Y-93910714D01*
X44531071Y-94082142D01*
X45216785Y-94767857D01*
X44473928Y-94767857D01*
X43045357Y-94767857D02*
X43045357Y-93967857D01*
X43045357Y-94196428D02*
X42988214Y-94082142D01*
X42931071Y-94025000D01*
X42816785Y-93967857D01*
X42702500Y-93967857D01*
X41845357Y-94710714D02*
X41959642Y-94767857D01*
X42188214Y-94767857D01*
X42302500Y-94710714D01*
X42359642Y-94596428D01*
X42359642Y-94139285D01*
X42302500Y-94025000D01*
X42188214Y-93967857D01*
X41959642Y-93967857D01*
X41845357Y-94025000D01*
X41788214Y-94139285D01*
X41788214Y-94253571D01*
X42359642Y-94367857D01*
X41388214Y-93967857D02*
X41102500Y-94767857D01*
X40816785Y-93967857D01*
X40359642Y-94767857D02*
X40359642Y-93967857D01*
X40359642Y-93567857D02*
X40416785Y-93625000D01*
X40359642Y-93682142D01*
X40302500Y-93625000D01*
X40359642Y-93567857D01*
X40359642Y-93682142D01*
X39845357Y-94710714D02*
X39731071Y-94767857D01*
X39502500Y-94767857D01*
X39388214Y-94710714D01*
X39331071Y-94596428D01*
X39331071Y-94539285D01*
X39388214Y-94425000D01*
X39502500Y-94367857D01*
X39673928Y-94367857D01*
X39788214Y-94310714D01*
X39845357Y-94196428D01*
X39845357Y-94139285D01*
X39788214Y-94025000D01*
X39673928Y-93967857D01*
X39502500Y-93967857D01*
X39388214Y-94025000D01*
X38816785Y-94767857D02*
X38816785Y-93967857D01*
X38816785Y-93567857D02*
X38873928Y-93625000D01*
X38816785Y-93682142D01*
X38759642Y-93625000D01*
X38816785Y-93567857D01*
X38816785Y-93682142D01*
X38073928Y-94767857D02*
X38188214Y-94710714D01*
X38245357Y-94653571D01*
X38302500Y-94539285D01*
X38302500Y-94196428D01*
X38245357Y-94082142D01*
X38188214Y-94025000D01*
X38073928Y-93967857D01*
X37902500Y-93967857D01*
X37788214Y-94025000D01*
X37731071Y-94082142D01*
X37673928Y-94196428D01*
X37673928Y-94539285D01*
X37731071Y-94653571D01*
X37788214Y-94710714D01*
X37902500Y-94767857D01*
X38073928Y-94767857D01*
X37159642Y-93967857D02*
X37159642Y-94767857D01*
X37159642Y-94082142D02*
X37102500Y-94025000D01*
X36988214Y-93967857D01*
X36816785Y-93967857D01*
X36702500Y-94025000D01*
X36645357Y-94139285D01*
X36645357Y-94767857D01*
X34931071Y-93567857D02*
X34816785Y-93567857D01*
X34702500Y-93625000D01*
X34645357Y-93682142D01*
X34588214Y-93796428D01*
X34531071Y-94025000D01*
X34531071Y-94310714D01*
X34588214Y-94539285D01*
X34645357Y-94653571D01*
X34702500Y-94710714D01*
X34816785Y-94767857D01*
X34931071Y-94767857D01*
X35045357Y-94710714D01*
X35102500Y-94653571D01*
X35159642Y-94539285D01*
X35216785Y-94310714D01*
X35216785Y-94025000D01*
X35159642Y-93796428D01*
X35102500Y-93682142D01*
X35045357Y-93625000D01*
X34931071Y-93567857D01*
X34016785Y-94653571D02*
X33959642Y-94710714D01*
X34016785Y-94767857D01*
X34073928Y-94710714D01*
X34016785Y-94653571D01*
X34016785Y-94767857D01*
X32816785Y-94767857D02*
X33502500Y-94767857D01*
X33159642Y-94767857D02*
X33159642Y-93567857D01*
X33273928Y-93739285D01*
X33388214Y-93853571D01*
X33502500Y-93910714D01*
X76645357Y-95803571D02*
X76759642Y-95746428D01*
X76988214Y-95746428D01*
X77102500Y-95803571D01*
X77216785Y-95917857D01*
X77273928Y-96032142D01*
X77273928Y-96260714D01*
X77216785Y-96375000D01*
X77102500Y-96489285D01*
X76988214Y-96546428D01*
X76759642Y-96546428D01*
X76645357Y-96489285D01*
X76873928Y-95346428D02*
X77159642Y-95403571D01*
X77445357Y-95575000D01*
X77616785Y-95860714D01*
X77673928Y-96146428D01*
X77616785Y-96432142D01*
X77445357Y-96717857D01*
X77159642Y-96889285D01*
X76873928Y-96946428D01*
X76588214Y-96889285D01*
X76302500Y-96717857D01*
X76131071Y-96432142D01*
X76073928Y-96146428D01*
X76131071Y-95860714D01*
X76302500Y-95575000D01*
X76588214Y-95403571D01*
X76873928Y-95346428D01*
X74702500Y-95632142D02*
X74645357Y-95575000D01*
X74531071Y-95517857D01*
X74245357Y-95517857D01*
X74131071Y-95575000D01*
X74073928Y-95632142D01*
X74016785Y-95746428D01*
X74016785Y-95860714D01*
X74073928Y-96032142D01*
X74759642Y-96717857D01*
X74016785Y-96717857D01*
X73273928Y-95517857D02*
X73159642Y-95517857D01*
X73045357Y-95575000D01*
X72988214Y-95632142D01*
X72931071Y-95746428D01*
X72873928Y-95975000D01*
X72873928Y-96260714D01*
X72931071Y-96489285D01*
X72988214Y-96603571D01*
X73045357Y-96660714D01*
X73159642Y-96717857D01*
X73273928Y-96717857D01*
X73388214Y-96660714D01*
X73445357Y-96603571D01*
X73502500Y-96489285D01*
X73559642Y-96260714D01*
X73559642Y-95975000D01*
X73502500Y-95746428D01*
X73445357Y-95632142D01*
X73388214Y-95575000D01*
X73273928Y-95517857D01*
X72416785Y-95632142D02*
X72359642Y-95575000D01*
X72245357Y-95517857D01*
X71959642Y-95517857D01*
X71845357Y-95575000D01*
X71788214Y-95632142D01*
X71731071Y-95746428D01*
X71731071Y-95860714D01*
X71788214Y-96032142D01*
X72473928Y-96717857D01*
X71731071Y-96717857D01*
X70988214Y-95517857D02*
X70873928Y-95517857D01*
X70759642Y-95575000D01*
X70702500Y-95632142D01*
X70645357Y-95746428D01*
X70588214Y-95975000D01*
X70588214Y-96260714D01*
X70645357Y-96489285D01*
X70702500Y-96603571D01*
X70759642Y-96660714D01*
X70873928Y-96717857D01*
X70988214Y-96717857D01*
X71102500Y-96660714D01*
X71159642Y-96603571D01*
X71216785Y-96489285D01*
X71273928Y-96260714D01*
X71273928Y-95975000D01*
X71216785Y-95746428D01*
X71159642Y-95632142D01*
X71102500Y-95575000D01*
X70988214Y-95517857D01*
X69159642Y-96717857D02*
X69159642Y-95517857D01*
X68873928Y-95517857D01*
X68702500Y-95575000D01*
X68588214Y-95689285D01*
X68531071Y-95803571D01*
X68473928Y-96032142D01*
X68473928Y-96203571D01*
X68531071Y-96432142D01*
X68588214Y-96546428D01*
X68702500Y-96660714D01*
X68873928Y-96717857D01*
X69159642Y-96717857D01*
X67559642Y-96089285D02*
X67388214Y-96146428D01*
X67331071Y-96203571D01*
X67273928Y-96317857D01*
X67273928Y-96489285D01*
X67331071Y-96603571D01*
X67388214Y-96660714D01*
X67502500Y-96717857D01*
X67959642Y-96717857D01*
X67959642Y-95517857D01*
X67559642Y-95517857D01*
X67445357Y-95575000D01*
X67388214Y-95632142D01*
X67331071Y-95746428D01*
X67331071Y-95860714D01*
X67388214Y-95975000D01*
X67445357Y-96032142D01*
X67559642Y-96089285D01*
X67959642Y-96089285D01*
X66702500Y-96717857D02*
X66473928Y-96717857D01*
X66359642Y-96660714D01*
X66302500Y-96603571D01*
X66188214Y-96432142D01*
X66131071Y-96203571D01*
X66131071Y-95746428D01*
X66188214Y-95632142D01*
X66245357Y-95575000D01*
X66359642Y-95517857D01*
X66588214Y-95517857D01*
X66702500Y-95575000D01*
X66759642Y-95632142D01*
X66816785Y-95746428D01*
X66816785Y-96032142D01*
X66759642Y-96146428D01*
X66702500Y-96203571D01*
X66588214Y-96260714D01*
X66359642Y-96260714D01*
X66245357Y-96203571D01*
X66188214Y-96146428D01*
X66131071Y-96032142D01*
X65616785Y-96717857D02*
X65616785Y-95517857D01*
X65216785Y-96375000D01*
X64816785Y-95517857D01*
X64816785Y-96717857D01*
X64302500Y-96375000D02*
X63731071Y-96375000D01*
X64416785Y-96717857D02*
X64016785Y-95517857D01*
X63616785Y-96717857D01*
X63388214Y-95517857D02*
X62702500Y-95517857D01*
X63045357Y-96717857D02*
X63045357Y-95517857D01*
X61388214Y-96260714D02*
X60473928Y-96260714D01*
X58988214Y-96717857D02*
X58988214Y-95517857D01*
X58988214Y-95975000D02*
X58873928Y-95917857D01*
X58645357Y-95917857D01*
X58531071Y-95975000D01*
X58473928Y-96032142D01*
X58416785Y-96146428D01*
X58416785Y-96489285D01*
X58473928Y-96603571D01*
X58531071Y-96660714D01*
X58645357Y-96717857D01*
X58873928Y-96717857D01*
X58988214Y-96660714D01*
X57388214Y-96717857D02*
X57388214Y-96089285D01*
X57445357Y-95975000D01*
X57559642Y-95917857D01*
X57788214Y-95917857D01*
X57902500Y-95975000D01*
X57388214Y-96660714D02*
X57502500Y-96717857D01*
X57788214Y-96717857D01*
X57902500Y-96660714D01*
X57959642Y-96546428D01*
X57959642Y-96432142D01*
X57902500Y-96317857D01*
X57788214Y-96260714D01*
X57502500Y-96260714D01*
X57388214Y-96203571D01*
X56873928Y-96660714D02*
X56759642Y-96717857D01*
X56531071Y-96717857D01*
X56416785Y-96660714D01*
X56359642Y-96546428D01*
X56359642Y-96489285D01*
X56416785Y-96375000D01*
X56531071Y-96317857D01*
X56702500Y-96317857D01*
X56816785Y-96260714D01*
X56873928Y-96146428D01*
X56873928Y-96089285D01*
X56816785Y-95975000D01*
X56702500Y-95917857D01*
X56531071Y-95917857D01*
X56416785Y-95975000D01*
X55388214Y-96660714D02*
X55502500Y-96717857D01*
X55731071Y-96717857D01*
X55845357Y-96660714D01*
X55902500Y-96546428D01*
X55902500Y-96089285D01*
X55845357Y-95975000D01*
X55731071Y-95917857D01*
X55502500Y-95917857D01*
X55388214Y-95975000D01*
X55331071Y-96089285D01*
X55331071Y-96203571D01*
X55902500Y-96317857D01*
X54302500Y-96717857D02*
X54302500Y-95517857D01*
X54302500Y-96660714D02*
X54416785Y-96717857D01*
X54645357Y-96717857D01*
X54759642Y-96660714D01*
X54816785Y-96603571D01*
X54873928Y-96489285D01*
X54873928Y-96146428D01*
X54816785Y-96032142D01*
X54759642Y-95975000D01*
X54645357Y-95917857D01*
X54416785Y-95917857D01*
X54302500Y-95975000D01*
X52645357Y-96717857D02*
X52759642Y-96660714D01*
X52816785Y-96603571D01*
X52873928Y-96489285D01*
X52873928Y-96146428D01*
X52816785Y-96032142D01*
X52759642Y-95975000D01*
X52645357Y-95917857D01*
X52473928Y-95917857D01*
X52359642Y-95975000D01*
X52302500Y-96032142D01*
X52245357Y-96146428D01*
X52245357Y-96489285D01*
X52302500Y-96603571D01*
X52359642Y-96660714D01*
X52473928Y-96717857D01*
X52645357Y-96717857D01*
X51731071Y-95917857D02*
X51731071Y-96717857D01*
X51731071Y-96032142D02*
X51673928Y-95975000D01*
X51559642Y-95917857D01*
X51388214Y-95917857D01*
X51273928Y-95975000D01*
X51216785Y-96089285D01*
X51216785Y-96717857D01*
X49845357Y-95917857D02*
X49616785Y-96717857D01*
X49388214Y-96146428D01*
X49159642Y-96717857D01*
X48931071Y-95917857D01*
X48302500Y-96717857D02*
X48416785Y-96660714D01*
X48473928Y-96603571D01*
X48531071Y-96489285D01*
X48531071Y-96146428D01*
X48473928Y-96032142D01*
X48416785Y-95975000D01*
X48302500Y-95917857D01*
X48131071Y-95917857D01*
X48016785Y-95975000D01*
X47959642Y-96032142D01*
X47902500Y-96146428D01*
X47902500Y-96489285D01*
X47959642Y-96603571D01*
X48016785Y-96660714D01*
X48131071Y-96717857D01*
X48302500Y-96717857D01*
X47388214Y-96717857D02*
X47388214Y-95917857D01*
X47388214Y-96146428D02*
X47331071Y-96032142D01*
X47273928Y-95975000D01*
X47159642Y-95917857D01*
X47045357Y-95917857D01*
X46645357Y-96717857D02*
X46645357Y-95517857D01*
X46531071Y-96260714D02*
X46188214Y-96717857D01*
X46188214Y-95917857D02*
X46645357Y-96375000D01*
X44759642Y-96717857D02*
X44759642Y-95517857D01*
X44759642Y-95975000D02*
X44645357Y-95917857D01*
X44416785Y-95917857D01*
X44302500Y-95975000D01*
X44245357Y-96032142D01*
X44188214Y-96146428D01*
X44188214Y-96489285D01*
X44245357Y-96603571D01*
X44302500Y-96660714D01*
X44416785Y-96717857D01*
X44645357Y-96717857D01*
X44759642Y-96660714D01*
X43788214Y-95917857D02*
X43502500Y-96717857D01*
X43216785Y-95917857D02*
X43502500Y-96717857D01*
X43616785Y-97003571D01*
X43673928Y-97060714D01*
X43788214Y-97117857D01*
X41959642Y-95517857D02*
X41673928Y-96717857D01*
X41445357Y-95860714D01*
X41216785Y-96717857D01*
X40931071Y-95517857D01*
X40531071Y-96375000D02*
X39959642Y-96375000D01*
X40645357Y-96717857D02*
X40245357Y-95517857D01*
X39845357Y-96717857D01*
X39502500Y-95632142D02*
X39445357Y-95575000D01*
X39331071Y-95517857D01*
X39045357Y-95517857D01*
X38931071Y-95575000D01*
X38873928Y-95632142D01*
X38816785Y-95746428D01*
X38816785Y-95860714D01*
X38873928Y-96032142D01*
X39559642Y-96717857D01*
X38816785Y-96717857D01*
X38302500Y-96089285D02*
X37902500Y-96089285D01*
X37731071Y-96717857D02*
X38302500Y-96717857D01*
X38302500Y-95517857D01*
X37731071Y-95517857D01*
X37216785Y-95517857D02*
X37216785Y-96489285D01*
X37159642Y-96603571D01*
X37102500Y-96660714D01*
X36988214Y-96717857D01*
X36759642Y-96717857D01*
X36645357Y-96660714D01*
X36588214Y-96603571D01*
X36531071Y-96489285D01*
X36531071Y-95517857D01*
X35616785Y-95517857D02*
X35616785Y-96375000D01*
X35673928Y-96546428D01*
X35788214Y-96660714D01*
X35959642Y-96717857D01*
X36073928Y-96717857D01*
X33616785Y-96717857D02*
X33616785Y-96089285D01*
X33673928Y-95975000D01*
X33788214Y-95917857D01*
X34016785Y-95917857D01*
X34131071Y-95975000D01*
X33616785Y-96660714D02*
X33731071Y-96717857D01*
X34016785Y-96717857D01*
X34131071Y-96660714D01*
X34188214Y-96546428D01*
X34188214Y-96432142D01*
X34131071Y-96317857D01*
X34016785Y-96260714D01*
X33731071Y-96260714D01*
X33616785Y-96203571D01*
X33045357Y-95917857D02*
X33045357Y-96717857D01*
X33045357Y-96032142D02*
X32988214Y-95975000D01*
X32873928Y-95917857D01*
X32702500Y-95917857D01*
X32588214Y-95975000D01*
X32531071Y-96089285D01*
X32531071Y-96717857D01*
X31445357Y-96717857D02*
X31445357Y-95517857D01*
X31445357Y-96660714D02*
X31559642Y-96717857D01*
X31788214Y-96717857D01*
X31902500Y-96660714D01*
X31959642Y-96603571D01*
X32016785Y-96489285D01*
X32016785Y-96146428D01*
X31959642Y-96032142D01*
X31902500Y-95975000D01*
X31788214Y-95917857D01*
X31559642Y-95917857D01*
X31445357Y-95975000D01*
X29959642Y-96717857D02*
X29959642Y-95517857D01*
X29273928Y-96717857D01*
X29273928Y-95517857D01*
X28759642Y-95632142D02*
X28702500Y-95575000D01*
X28588214Y-95517857D01*
X28302500Y-95517857D01*
X28188214Y-95575000D01*
X28131071Y-95632142D01*
X28073928Y-95746428D01*
X28073928Y-95860714D01*
X28131071Y-96032142D01*
X28816785Y-96717857D01*
X28073928Y-96717857D01*
X27616785Y-96375000D02*
X27045357Y-96375000D01*
X27731071Y-96717857D02*
X27331071Y-95517857D01*
X26931071Y-96717857D01*
X26531071Y-96717857D02*
X26531071Y-95517857D01*
X26245357Y-95517857D01*
X26073928Y-95575000D01*
X25959642Y-95689285D01*
X25902500Y-95803571D01*
X25845357Y-96032142D01*
X25845357Y-96203571D01*
X25902500Y-96432142D01*
X25959642Y-96546428D01*
X26073928Y-96660714D01*
X26245357Y-96717857D01*
X26531071Y-96717857D01*
X24645357Y-96717857D02*
X25045357Y-96146428D01*
X25331071Y-96717857D02*
X25331071Y-95517857D01*
X24873928Y-95517857D01*
X24759642Y-95575000D01*
X24702500Y-95632142D01*
X24645357Y-95746428D01*
X24645357Y-95917857D01*
X24702500Y-96032142D01*
X24759642Y-96089285D01*
X24873928Y-96146428D01*
X25331071Y-96146428D01*
D11*
X131858578Y-33310000D02*
X131341422Y-33310000D01*
X131858578Y-31890000D02*
X131341422Y-31890000D01*
X6580000Y-39170000D02*
X5250000Y-39170000D01*
X5250000Y-39170000D02*
X5250000Y-40500000D01*
X5250000Y-41770000D02*
X5250000Y-54530000D01*
X7910000Y-54530000D02*
X5250000Y-54530000D01*
X7910000Y-41770000D02*
X7910000Y-54530000D01*
X7910000Y-41770000D02*
X5250000Y-41770000D01*
D12*
G36*
X83144186Y-91468931D02*
G01*
X83060365Y-91913555D01*
X82751080Y-92041053D01*
X82441794Y-92168551D01*
X82070754Y-91916246D01*
X81966843Y-91845996D01*
X81872913Y-91783272D01*
X81793348Y-91730938D01*
X81732530Y-91691857D01*
X81694843Y-91668893D01*
X81684579Y-91663942D01*
X81666090Y-91676676D01*
X81626580Y-91711882D01*
X81570478Y-91765062D01*
X81502213Y-91831718D01*
X81426214Y-91907354D01*
X81346908Y-91987472D01*
X81268725Y-92067574D01*
X81196093Y-92143164D01*
X81133441Y-92209745D01*
X81085197Y-92262818D01*
X81055790Y-92297887D01*
X81048759Y-92309623D01*
X81058877Y-92331260D01*
X81087241Y-92378662D01*
X81130871Y-92447193D01*
X81186782Y-92532215D01*
X81251994Y-92629093D01*
X81289781Y-92684350D01*
X81358657Y-92785248D01*
X81419860Y-92876299D01*
X81470422Y-92952970D01*
X81507372Y-93010728D01*
X81527742Y-93045043D01*
X81530803Y-93052254D01*
X81523864Y-93072748D01*
X81504949Y-93120513D01*
X81476913Y-93188832D01*
X81442609Y-93270989D01*
X81404891Y-93360270D01*
X81366613Y-93449958D01*
X81330630Y-93533338D01*
X81299794Y-93603694D01*
X81276961Y-93654310D01*
X81264983Y-93678471D01*
X81264276Y-93679422D01*
X81245469Y-93684036D01*
X81195382Y-93694328D01*
X81119207Y-93709287D01*
X81022135Y-93727901D01*
X80909357Y-93749159D01*
X80843558Y-93761418D01*
X80723050Y-93784362D01*
X80614203Y-93806195D01*
X80522524Y-93825722D01*
X80453519Y-93841748D01*
X80412696Y-93853079D01*
X80404489Y-93856674D01*
X80396452Y-93881006D01*
X80389967Y-93935959D01*
X80385030Y-94015108D01*
X80381636Y-94112026D01*
X80379782Y-94220287D01*
X80379462Y-94333465D01*
X80380673Y-94445135D01*
X80383410Y-94548868D01*
X80387669Y-94638241D01*
X80393445Y-94706826D01*
X80400733Y-94748197D01*
X80405105Y-94756810D01*
X80431236Y-94767133D01*
X80486607Y-94781892D01*
X80563893Y-94799352D01*
X80655770Y-94817780D01*
X80687842Y-94823741D01*
X80842476Y-94852066D01*
X80964625Y-94874876D01*
X81058327Y-94893080D01*
X81127616Y-94907583D01*
X81176529Y-94919292D01*
X81209103Y-94929115D01*
X81229372Y-94937956D01*
X81241374Y-94946724D01*
X81243053Y-94948457D01*
X81259816Y-94976371D01*
X81285386Y-95030695D01*
X81317212Y-95104777D01*
X81352740Y-95191965D01*
X81389417Y-95285608D01*
X81424689Y-95379052D01*
X81456004Y-95465647D01*
X81480807Y-95538740D01*
X81496546Y-95591678D01*
X81500668Y-95617811D01*
X81500324Y-95618726D01*
X81486359Y-95640086D01*
X81454678Y-95687084D01*
X81408609Y-95754827D01*
X81351482Y-95838423D01*
X81286627Y-95932982D01*
X81268157Y-95959854D01*
X81202301Y-96057275D01*
X81144350Y-96146163D01*
X81097462Y-96221412D01*
X81064793Y-96277920D01*
X81049500Y-96310581D01*
X81048759Y-96314593D01*
X81061608Y-96335684D01*
X81097112Y-96377464D01*
X81150707Y-96435445D01*
X81217829Y-96505135D01*
X81293913Y-96582045D01*
X81374396Y-96661683D01*
X81454713Y-96739561D01*
X81530301Y-96811186D01*
X81596595Y-96872070D01*
X81649031Y-96917721D01*
X81683045Y-96943650D01*
X81692455Y-96947883D01*
X81714357Y-96937912D01*
X81759200Y-96911020D01*
X81819679Y-96871736D01*
X81866211Y-96840117D01*
X81950525Y-96782098D01*
X82050374Y-96713784D01*
X82150527Y-96645579D01*
X82204373Y-96609075D01*
X82386629Y-96485800D01*
X82539619Y-96568520D01*
X82609318Y-96604759D01*
X82668586Y-96632926D01*
X82708689Y-96648991D01*
X82718897Y-96651226D01*
X82731171Y-96634722D01*
X82755387Y-96588082D01*
X82789737Y-96515609D01*
X82832412Y-96421606D01*
X82881606Y-96310374D01*
X82935510Y-96186215D01*
X82992316Y-96053432D01*
X83050218Y-95916327D01*
X83107407Y-95779202D01*
X83162076Y-95646358D01*
X83212416Y-95522098D01*
X83256620Y-95410725D01*
X83292881Y-95316539D01*
X83319391Y-95243844D01*
X83334342Y-95196941D01*
X83336746Y-95180833D01*
X83317689Y-95160286D01*
X83275964Y-95126933D01*
X83220294Y-95087702D01*
X83215622Y-95084599D01*
X83071736Y-94969423D01*
X82955717Y-94835053D01*
X82868570Y-94685784D01*
X82811301Y-94525913D01*
X82784914Y-94359737D01*
X82790415Y-94191552D01*
X82828810Y-94025655D01*
X82901105Y-93866342D01*
X82922374Y-93831487D01*
X83033004Y-93690737D01*
X83163698Y-93577714D01*
X83309936Y-93493003D01*
X83467192Y-93437194D01*
X83630943Y-93410874D01*
X83796667Y-93414630D01*
X83959838Y-93449050D01*
X84115935Y-93514723D01*
X84260433Y-93612235D01*
X84305131Y-93651813D01*
X84418888Y-93775703D01*
X84501782Y-93906124D01*
X84558644Y-94052315D01*
X84590313Y-94197088D01*
X84598131Y-94359860D01*
X84572062Y-94523440D01*
X84514755Y-94682298D01*
X84428856Y-94830906D01*
X84317014Y-94963735D01*
X84181877Y-95075256D01*
X84164117Y-95087011D01*
X84107850Y-95125508D01*
X84065077Y-95158863D01*
X84044628Y-95180160D01*
X84044331Y-95180833D01*
X84048721Y-95203871D01*
X84066124Y-95256157D01*
X84094732Y-95333390D01*
X84132735Y-95431268D01*
X84178326Y-95545491D01*
X84229697Y-95671758D01*
X84285038Y-95805767D01*
X84342542Y-95943218D01*
X84400399Y-96079808D01*
X84456802Y-96211237D01*
X84509942Y-96333205D01*
X84558010Y-96441409D01*
X84599199Y-96531549D01*
X84631699Y-96599323D01*
X84653703Y-96640430D01*
X84662564Y-96651226D01*
X84689640Y-96642819D01*
X84740303Y-96620272D01*
X84805817Y-96587613D01*
X84841841Y-96568520D01*
X84994832Y-96485800D01*
X85177088Y-96609075D01*
X85270125Y-96672228D01*
X85371985Y-96741727D01*
X85467438Y-96807165D01*
X85515250Y-96840117D01*
X85582495Y-96885273D01*
X85639436Y-96921057D01*
X85678646Y-96942938D01*
X85691381Y-96947563D01*
X85709917Y-96935085D01*
X85750941Y-96900252D01*
X85810475Y-96846678D01*
X85884542Y-96777983D01*
X85969165Y-96697781D01*
X86022685Y-96646286D01*
X86116319Y-96554286D01*
X86197241Y-96471999D01*
X86262177Y-96402945D01*
X86307858Y-96350644D01*
X86331011Y-96318616D01*
X86333232Y-96312116D01*
X86322924Y-96287394D01*
X86294439Y-96237405D01*
X86250937Y-96167212D01*
X86195577Y-96081875D01*
X86131520Y-95986456D01*
X86113303Y-95959854D01*
X86046927Y-95863167D01*
X85987378Y-95776117D01*
X85937984Y-95703595D01*
X85902075Y-95650493D01*
X85882981Y-95621703D01*
X85881136Y-95618726D01*
X85883895Y-95595782D01*
X85898538Y-95545336D01*
X85922513Y-95474041D01*
X85953266Y-95388547D01*
X85988244Y-95295507D01*
X86024893Y-95201574D01*
X86060661Y-95113399D01*
X86092994Y-95037634D01*
X86119338Y-94980931D01*
X86137142Y-94949943D01*
X86138407Y-94948457D01*
X86149294Y-94939601D01*
X86167682Y-94930843D01*
X86197606Y-94921277D01*
X86243103Y-94909996D01*
X86308209Y-94896093D01*
X86396961Y-94878663D01*
X86513393Y-94856798D01*
X86661542Y-94829591D01*
X86693618Y-94823741D01*
X86788686Y-94805374D01*
X86871565Y-94787405D01*
X86934930Y-94771569D01*
X86971458Y-94759600D01*
X86976356Y-94756810D01*
X86984427Y-94732072D01*
X86990987Y-94676790D01*
X86996033Y-94597389D01*
X86999559Y-94500296D01*
X87001561Y-94391938D01*
X87002036Y-94278740D01*
X87000977Y-94167128D01*
X86998382Y-94063529D01*
X86994246Y-93974368D01*
X86988563Y-93906072D01*
X86981331Y-93865066D01*
X86976971Y-93856674D01*
X86952698Y-93848208D01*
X86897426Y-93834435D01*
X86816662Y-93816550D01*
X86715912Y-93795748D01*
X86600683Y-93773223D01*
X86537902Y-93761418D01*
X86418787Y-93739151D01*
X86312565Y-93718979D01*
X86224427Y-93701915D01*
X86159566Y-93688969D01*
X86123174Y-93681155D01*
X86117184Y-93679422D01*
X86107061Y-93659890D01*
X86085662Y-93612843D01*
X86055839Y-93545003D01*
X86020445Y-93463091D01*
X85982332Y-93373828D01*
X85944353Y-93283935D01*
X85909360Y-93200135D01*
X85880206Y-93129147D01*
X85859743Y-93077694D01*
X85850823Y-93052497D01*
X85850657Y-93051396D01*
X85860769Y-93031519D01*
X85889117Y-92985777D01*
X85932723Y-92918717D01*
X85988606Y-92834884D01*
X86053787Y-92738826D01*
X86091679Y-92683650D01*
X86160725Y-92582481D01*
X86222050Y-92490630D01*
X86272663Y-92412744D01*
X86309571Y-92353469D01*
X86329782Y-92317451D01*
X86332701Y-92309377D01*
X86320153Y-92290584D01*
X86285463Y-92250457D01*
X86233063Y-92193493D01*
X86167384Y-92124185D01*
X86092856Y-92047031D01*
X86013913Y-91966525D01*
X85934983Y-91887163D01*
X85860500Y-91813440D01*
X85794894Y-91749852D01*
X85742596Y-91700894D01*
X85708039Y-91671061D01*
X85696478Y-91663942D01*
X85677654Y-91673953D01*
X85632631Y-91702078D01*
X85565787Y-91745454D01*
X85481499Y-91801218D01*
X85384144Y-91866506D01*
X85310707Y-91916246D01*
X84939667Y-92168551D01*
X84321095Y-91913555D01*
X84237275Y-91468931D01*
X84153454Y-91024307D01*
X83228006Y-91024307D01*
X83144186Y-91468931D01*
G37*
X83144186Y-91468931D02*
X83060365Y-91913555D01*
X82751080Y-92041053D01*
X82441794Y-92168551D01*
X82070754Y-91916246D01*
X81966843Y-91845996D01*
X81872913Y-91783272D01*
X81793348Y-91730938D01*
X81732530Y-91691857D01*
X81694843Y-91668893D01*
X81684579Y-91663942D01*
X81666090Y-91676676D01*
X81626580Y-91711882D01*
X81570478Y-91765062D01*
X81502213Y-91831718D01*
X81426214Y-91907354D01*
X81346908Y-91987472D01*
X81268725Y-92067574D01*
X81196093Y-92143164D01*
X81133441Y-92209745D01*
X81085197Y-92262818D01*
X81055790Y-92297887D01*
X81048759Y-92309623D01*
X81058877Y-92331260D01*
X81087241Y-92378662D01*
X81130871Y-92447193D01*
X81186782Y-92532215D01*
X81251994Y-92629093D01*
X81289781Y-92684350D01*
X81358657Y-92785248D01*
X81419860Y-92876299D01*
X81470422Y-92952970D01*
X81507372Y-93010728D01*
X81527742Y-93045043D01*
X81530803Y-93052254D01*
X81523864Y-93072748D01*
X81504949Y-93120513D01*
X81476913Y-93188832D01*
X81442609Y-93270989D01*
X81404891Y-93360270D01*
X81366613Y-93449958D01*
X81330630Y-93533338D01*
X81299794Y-93603694D01*
X81276961Y-93654310D01*
X81264983Y-93678471D01*
X81264276Y-93679422D01*
X81245469Y-93684036D01*
X81195382Y-93694328D01*
X81119207Y-93709287D01*
X81022135Y-93727901D01*
X80909357Y-93749159D01*
X80843558Y-93761418D01*
X80723050Y-93784362D01*
X80614203Y-93806195D01*
X80522524Y-93825722D01*
X80453519Y-93841748D01*
X80412696Y-93853079D01*
X80404489Y-93856674D01*
X80396452Y-93881006D01*
X80389967Y-93935959D01*
X80385030Y-94015108D01*
X80381636Y-94112026D01*
X80379782Y-94220287D01*
X80379462Y-94333465D01*
X80380673Y-94445135D01*
X80383410Y-94548868D01*
X80387669Y-94638241D01*
X80393445Y-94706826D01*
X80400733Y-94748197D01*
X80405105Y-94756810D01*
X80431236Y-94767133D01*
X80486607Y-94781892D01*
X80563893Y-94799352D01*
X80655770Y-94817780D01*
X80687842Y-94823741D01*
X80842476Y-94852066D01*
X80964625Y-94874876D01*
X81058327Y-94893080D01*
X81127616Y-94907583D01*
X81176529Y-94919292D01*
X81209103Y-94929115D01*
X81229372Y-94937956D01*
X81241374Y-94946724D01*
X81243053Y-94948457D01*
X81259816Y-94976371D01*
X81285386Y-95030695D01*
X81317212Y-95104777D01*
X81352740Y-95191965D01*
X81389417Y-95285608D01*
X81424689Y-95379052D01*
X81456004Y-95465647D01*
X81480807Y-95538740D01*
X81496546Y-95591678D01*
X81500668Y-95617811D01*
X81500324Y-95618726D01*
X81486359Y-95640086D01*
X81454678Y-95687084D01*
X81408609Y-95754827D01*
X81351482Y-95838423D01*
X81286627Y-95932982D01*
X81268157Y-95959854D01*
X81202301Y-96057275D01*
X81144350Y-96146163D01*
X81097462Y-96221412D01*
X81064793Y-96277920D01*
X81049500Y-96310581D01*
X81048759Y-96314593D01*
X81061608Y-96335684D01*
X81097112Y-96377464D01*
X81150707Y-96435445D01*
X81217829Y-96505135D01*
X81293913Y-96582045D01*
X81374396Y-96661683D01*
X81454713Y-96739561D01*
X81530301Y-96811186D01*
X81596595Y-96872070D01*
X81649031Y-96917721D01*
X81683045Y-96943650D01*
X81692455Y-96947883D01*
X81714357Y-96937912D01*
X81759200Y-96911020D01*
X81819679Y-96871736D01*
X81866211Y-96840117D01*
X81950525Y-96782098D01*
X82050374Y-96713784D01*
X82150527Y-96645579D01*
X82204373Y-96609075D01*
X82386629Y-96485800D01*
X82539619Y-96568520D01*
X82609318Y-96604759D01*
X82668586Y-96632926D01*
X82708689Y-96648991D01*
X82718897Y-96651226D01*
X82731171Y-96634722D01*
X82755387Y-96588082D01*
X82789737Y-96515609D01*
X82832412Y-96421606D01*
X82881606Y-96310374D01*
X82935510Y-96186215D01*
X82992316Y-96053432D01*
X83050218Y-95916327D01*
X83107407Y-95779202D01*
X83162076Y-95646358D01*
X83212416Y-95522098D01*
X83256620Y-95410725D01*
X83292881Y-95316539D01*
X83319391Y-95243844D01*
X83334342Y-95196941D01*
X83336746Y-95180833D01*
X83317689Y-95160286D01*
X83275964Y-95126933D01*
X83220294Y-95087702D01*
X83215622Y-95084599D01*
X83071736Y-94969423D01*
X82955717Y-94835053D01*
X82868570Y-94685784D01*
X82811301Y-94525913D01*
X82784914Y-94359737D01*
X82790415Y-94191552D01*
X82828810Y-94025655D01*
X82901105Y-93866342D01*
X82922374Y-93831487D01*
X83033004Y-93690737D01*
X83163698Y-93577714D01*
X83309936Y-93493003D01*
X83467192Y-93437194D01*
X83630943Y-93410874D01*
X83796667Y-93414630D01*
X83959838Y-93449050D01*
X84115935Y-93514723D01*
X84260433Y-93612235D01*
X84305131Y-93651813D01*
X84418888Y-93775703D01*
X84501782Y-93906124D01*
X84558644Y-94052315D01*
X84590313Y-94197088D01*
X84598131Y-94359860D01*
X84572062Y-94523440D01*
X84514755Y-94682298D01*
X84428856Y-94830906D01*
X84317014Y-94963735D01*
X84181877Y-95075256D01*
X84164117Y-95087011D01*
X84107850Y-95125508D01*
X84065077Y-95158863D01*
X84044628Y-95180160D01*
X84044331Y-95180833D01*
X84048721Y-95203871D01*
X84066124Y-95256157D01*
X84094732Y-95333390D01*
X84132735Y-95431268D01*
X84178326Y-95545491D01*
X84229697Y-95671758D01*
X84285038Y-95805767D01*
X84342542Y-95943218D01*
X84400399Y-96079808D01*
X84456802Y-96211237D01*
X84509942Y-96333205D01*
X84558010Y-96441409D01*
X84599199Y-96531549D01*
X84631699Y-96599323D01*
X84653703Y-96640430D01*
X84662564Y-96651226D01*
X84689640Y-96642819D01*
X84740303Y-96620272D01*
X84805817Y-96587613D01*
X84841841Y-96568520D01*
X84994832Y-96485800D01*
X85177088Y-96609075D01*
X85270125Y-96672228D01*
X85371985Y-96741727D01*
X85467438Y-96807165D01*
X85515250Y-96840117D01*
X85582495Y-96885273D01*
X85639436Y-96921057D01*
X85678646Y-96942938D01*
X85691381Y-96947563D01*
X85709917Y-96935085D01*
X85750941Y-96900252D01*
X85810475Y-96846678D01*
X85884542Y-96777983D01*
X85969165Y-96697781D01*
X86022685Y-96646286D01*
X86116319Y-96554286D01*
X86197241Y-96471999D01*
X86262177Y-96402945D01*
X86307858Y-96350644D01*
X86331011Y-96318616D01*
X86333232Y-96312116D01*
X86322924Y-96287394D01*
X86294439Y-96237405D01*
X86250937Y-96167212D01*
X86195577Y-96081875D01*
X86131520Y-95986456D01*
X86113303Y-95959854D01*
X86046927Y-95863167D01*
X85987378Y-95776117D01*
X85937984Y-95703595D01*
X85902075Y-95650493D01*
X85882981Y-95621703D01*
X85881136Y-95618726D01*
X85883895Y-95595782D01*
X85898538Y-95545336D01*
X85922513Y-95474041D01*
X85953266Y-95388547D01*
X85988244Y-95295507D01*
X86024893Y-95201574D01*
X86060661Y-95113399D01*
X86092994Y-95037634D01*
X86119338Y-94980931D01*
X86137142Y-94949943D01*
X86138407Y-94948457D01*
X86149294Y-94939601D01*
X86167682Y-94930843D01*
X86197606Y-94921277D01*
X86243103Y-94909996D01*
X86308209Y-94896093D01*
X86396961Y-94878663D01*
X86513393Y-94856798D01*
X86661542Y-94829591D01*
X86693618Y-94823741D01*
X86788686Y-94805374D01*
X86871565Y-94787405D01*
X86934930Y-94771569D01*
X86971458Y-94759600D01*
X86976356Y-94756810D01*
X86984427Y-94732072D01*
X86990987Y-94676790D01*
X86996033Y-94597389D01*
X86999559Y-94500296D01*
X87001561Y-94391938D01*
X87002036Y-94278740D01*
X87000977Y-94167128D01*
X86998382Y-94063529D01*
X86994246Y-93974368D01*
X86988563Y-93906072D01*
X86981331Y-93865066D01*
X86976971Y-93856674D01*
X86952698Y-93848208D01*
X86897426Y-93834435D01*
X86816662Y-93816550D01*
X86715912Y-93795748D01*
X86600683Y-93773223D01*
X86537902Y-93761418D01*
X86418787Y-93739151D01*
X86312565Y-93718979D01*
X86224427Y-93701915D01*
X86159566Y-93688969D01*
X86123174Y-93681155D01*
X86117184Y-93679422D01*
X86107061Y-93659890D01*
X86085662Y-93612843D01*
X86055839Y-93545003D01*
X86020445Y-93463091D01*
X85982332Y-93373828D01*
X85944353Y-93283935D01*
X85909360Y-93200135D01*
X85880206Y-93129147D01*
X85859743Y-93077694D01*
X85850823Y-93052497D01*
X85850657Y-93051396D01*
X85860769Y-93031519D01*
X85889117Y-92985777D01*
X85932723Y-92918717D01*
X85988606Y-92834884D01*
X86053787Y-92738826D01*
X86091679Y-92683650D01*
X86160725Y-92582481D01*
X86222050Y-92490630D01*
X86272663Y-92412744D01*
X86309571Y-92353469D01*
X86329782Y-92317451D01*
X86332701Y-92309377D01*
X86320153Y-92290584D01*
X86285463Y-92250457D01*
X86233063Y-92193493D01*
X86167384Y-92124185D01*
X86092856Y-92047031D01*
X86013913Y-91966525D01*
X85934983Y-91887163D01*
X85860500Y-91813440D01*
X85794894Y-91749852D01*
X85742596Y-91700894D01*
X85708039Y-91671061D01*
X85696478Y-91663942D01*
X85677654Y-91673953D01*
X85632631Y-91702078D01*
X85565787Y-91745454D01*
X85481499Y-91801218D01*
X85384144Y-91866506D01*
X85310707Y-91916246D01*
X84939667Y-92168551D01*
X84321095Y-91913555D01*
X84237275Y-91468931D01*
X84153454Y-91024307D01*
X83228006Y-91024307D01*
X83144186Y-91468931D01*
D13*
X115900000Y-31000000D02*
G75*
G03X115900000Y-31000000I-300000J0D01*
G01*
X115900000Y-33500000D02*
X119100000Y-33500000D01*
X119100000Y-33500000D02*
X119100000Y-30900000D01*
X119100000Y-30900000D02*
X115900000Y-30900000D01*
X115900000Y-30900000D02*
X115900000Y-33500000D01*
D11*
X124100000Y-37410000D02*
X121175000Y-37410000D01*
X124100000Y-37410000D02*
X125600000Y-37410000D01*
X124100000Y-34190000D02*
X122600000Y-34190000D01*
X124100000Y-34190000D02*
X125600000Y-34190000D01*
X119200000Y-26060000D02*
X116750000Y-26060000D01*
X117400000Y-22840000D02*
X119200000Y-22840000D01*
X116490000Y-18908578D02*
X116490000Y-18391422D01*
X117910000Y-18908578D02*
X117910000Y-18391422D01*
X118790000Y-18908578D02*
X118790000Y-18391422D01*
X120210000Y-18908578D02*
X120210000Y-18391422D01*
X118482983Y-15410000D02*
X118117017Y-15410000D01*
X118482983Y-11990000D02*
X118117017Y-11990000D01*
X122858578Y-33110000D02*
X122341422Y-33110000D01*
X122858578Y-31690000D02*
X122341422Y-31690000D01*
X113041422Y-26990000D02*
X113558578Y-26990000D01*
X113041422Y-28410000D02*
X113558578Y-28410000D01*
X113041422Y-29190000D02*
X113558578Y-29190000D01*
X113041422Y-30610000D02*
X113558578Y-30610000D01*
X122341422Y-26990000D02*
X122858578Y-26990000D01*
X122341422Y-28410000D02*
X122858578Y-28410000D01*
X129741422Y-38390000D02*
X130258578Y-38390000D01*
X129741422Y-39810000D02*
X130258578Y-39810000D01*
X118041422Y-20590000D02*
X118558578Y-20590000D01*
X118041422Y-22010000D02*
X118558578Y-22010000D01*
X122858578Y-30810000D02*
X122341422Y-30810000D01*
X122858578Y-29390000D02*
X122341422Y-29390000D01*
X89458578Y-61010000D02*
X88941422Y-61010000D01*
X89458578Y-59590000D02*
X88941422Y-59590000D01*
X122341422Y-24690000D02*
X122858578Y-24690000D01*
X122341422Y-26110000D02*
X122858578Y-26110000D01*
X129741422Y-36090000D02*
X130258578Y-36090000D01*
X129741422Y-37510000D02*
X130258578Y-37510000D01*
X75910000Y-24841422D02*
X75910000Y-25358578D01*
X74490000Y-24841422D02*
X74490000Y-25358578D01*
X98700000Y-92080000D02*
X100030000Y-92080000D01*
X100030000Y-92080000D02*
X100030000Y-90750000D01*
X100030000Y-89480000D02*
X100030000Y-41160000D01*
X97370000Y-41160000D02*
X100030000Y-41160000D01*
X97370000Y-89480000D02*
X97370000Y-41160000D01*
X97370000Y-89480000D02*
X100030000Y-89480000D01*
X73310000Y-23396078D02*
X73310000Y-22878922D01*
X71890000Y-23396078D02*
X71890000Y-22878922D01*
X68610000Y-22647936D02*
X68610000Y-26752064D01*
X65190000Y-22647936D02*
X65190000Y-26752064D01*
X61190000Y-26752064D02*
X61190000Y-22647936D01*
X64610000Y-26752064D02*
X64610000Y-22647936D01*
X65190000Y-12952064D02*
X65190000Y-8847936D01*
X68610000Y-12952064D02*
X68610000Y-8847936D01*
X64610000Y-8847936D02*
X64610000Y-12952064D01*
X61190000Y-8847936D02*
X61190000Y-12952064D01*
D14*
X104000520Y-5900520D02*
X115999480Y-5900520D01*
X115999480Y-17899480D02*
X104000520Y-17899480D01*
X104000520Y-14899740D02*
X104000520Y-17899480D01*
X115999480Y-14899740D02*
X115999480Y-17899480D01*
X115999480Y-8900260D02*
X115999480Y-5900520D01*
X104000520Y-8900260D02*
X104000520Y-5900520D01*
G36*
X106751340Y-17648020D02*
G01*
X113248660Y-17648020D01*
X113248660Y-6151980D01*
X106751340Y-6151980D01*
X106751340Y-17648020D01*
G37*
X106751340Y-17648020D02*
X113248660Y-17648020D01*
X113248660Y-6151980D01*
X106751340Y-6151980D01*
X106751340Y-17648020D01*
D11*
X80710000Y-40041422D02*
X80710000Y-40558578D01*
X79290000Y-40041422D02*
X79290000Y-40558578D01*
X79290000Y-50003922D02*
X79290000Y-50521078D01*
X80710000Y-50003922D02*
X80710000Y-50521078D01*
X79290000Y-60003922D02*
X79290000Y-60521078D01*
X80710000Y-60003922D02*
X80710000Y-60521078D01*
X79290000Y-69941422D02*
X79290000Y-70458578D01*
X80710000Y-69941422D02*
X80710000Y-70458578D01*
X80710000Y-80003922D02*
X80710000Y-80521078D01*
X79290000Y-80003922D02*
X79290000Y-80521078D01*
X64990000Y-33597936D02*
X64990000Y-34802064D01*
X66810000Y-33597936D02*
X66810000Y-34802064D01*
X66810000Y-43597936D02*
X66810000Y-44802064D01*
X64990000Y-43597936D02*
X64990000Y-44802064D01*
X66710000Y-53597936D02*
X66710000Y-54802064D01*
X64890000Y-53597936D02*
X64890000Y-54802064D01*
X66710000Y-63597936D02*
X66710000Y-64802064D01*
X64890000Y-63597936D02*
X64890000Y-64802064D01*
X64890000Y-73597936D02*
X64890000Y-74802064D01*
X66710000Y-73597936D02*
X66710000Y-74802064D01*
X64890000Y-83597936D02*
X64890000Y-84802064D01*
X66710000Y-83597936D02*
X66710000Y-84802064D01*
X62102064Y-34010000D02*
X60897936Y-34010000D01*
X62102064Y-32190000D02*
X60897936Y-32190000D01*
X62102064Y-42190000D02*
X60897936Y-42190000D01*
X62102064Y-44010000D02*
X60897936Y-44010000D01*
X62002064Y-52190000D02*
X60797936Y-52190000D01*
X62002064Y-54010000D02*
X60797936Y-54010000D01*
X62002064Y-62190000D02*
X60797936Y-62190000D01*
X62002064Y-64010000D02*
X60797936Y-64010000D01*
X62002064Y-74010000D02*
X60797936Y-74010000D01*
X62002064Y-72190000D02*
X60797936Y-72190000D01*
X62102064Y-84010000D02*
X60897936Y-84010000D01*
X62102064Y-82190000D02*
X60897936Y-82190000D01*
X69390000Y-23396078D02*
X69390000Y-22878922D01*
X70810000Y-23396078D02*
X70810000Y-22878922D01*
X53790000Y-34802064D02*
X53790000Y-33597936D01*
X55610000Y-34802064D02*
X55610000Y-33597936D01*
X55610000Y-44802064D02*
X55610000Y-43597936D01*
X53790000Y-44802064D02*
X53790000Y-43597936D01*
X55710000Y-54802064D02*
X55710000Y-53597936D01*
X53890000Y-54802064D02*
X53890000Y-53597936D01*
X53890000Y-64802064D02*
X53890000Y-63597936D01*
X55710000Y-64802064D02*
X55710000Y-63597936D01*
X53890000Y-74702064D02*
X53890000Y-73497936D01*
X55710000Y-74702064D02*
X55710000Y-73497936D01*
X53890000Y-84802064D02*
X53890000Y-83597936D01*
X55710000Y-84802064D02*
X55710000Y-83597936D01*
X47202064Y-32190000D02*
X45997936Y-32190000D01*
X47202064Y-34010000D02*
X45997936Y-34010000D01*
X47202064Y-42190000D02*
X45997936Y-42190000D01*
X47202064Y-44010000D02*
X45997936Y-44010000D01*
X47102064Y-54010000D02*
X45897936Y-54010000D01*
X47102064Y-52190000D02*
X45897936Y-52190000D01*
X47202064Y-62190000D02*
X45997936Y-62190000D01*
X47202064Y-64010000D02*
X45997936Y-64010000D01*
X47102064Y-74010000D02*
X45897936Y-74010000D01*
X47102064Y-72190000D02*
X45897936Y-72190000D01*
X47102064Y-82190000D02*
X45897936Y-82190000D01*
X47102064Y-84010000D02*
X45897936Y-84010000D01*
X38890000Y-34802064D02*
X38890000Y-33597936D01*
X40710000Y-34802064D02*
X40710000Y-33597936D01*
X38890000Y-44802064D02*
X38890000Y-43597936D01*
X40710000Y-44802064D02*
X40710000Y-43597936D01*
X40710000Y-54802064D02*
X40710000Y-53597936D01*
X38890000Y-54802064D02*
X38890000Y-53597936D01*
X38890000Y-64802064D02*
X38890000Y-63597936D01*
X40710000Y-64802064D02*
X40710000Y-63597936D01*
X40710000Y-74802064D02*
X40710000Y-73597936D01*
X38890000Y-74802064D02*
X38890000Y-73597936D01*
X40710000Y-84802064D02*
X40710000Y-83597936D01*
X38890000Y-84802064D02*
X38890000Y-83597936D01*
X69390000Y-12141422D02*
X69390000Y-12658578D01*
X70810000Y-12141422D02*
X70810000Y-12658578D01*
X24990000Y-36796078D02*
X24990000Y-36278922D01*
X26410000Y-36796078D02*
X26410000Y-36278922D01*
X26510000Y-46858578D02*
X26510000Y-46341422D01*
X25090000Y-46858578D02*
X25090000Y-46341422D01*
X26410000Y-56858578D02*
X26410000Y-56341422D01*
X24990000Y-56858578D02*
X24990000Y-56341422D01*
X26410000Y-66796078D02*
X26410000Y-66278922D01*
X24990000Y-66796078D02*
X24990000Y-66278922D01*
X24990000Y-76796078D02*
X24990000Y-76278922D01*
X26410000Y-76796078D02*
X26410000Y-76278922D01*
X79290000Y-36758578D02*
X79290000Y-36241422D01*
X80710000Y-36758578D02*
X80710000Y-36241422D01*
X24990000Y-40003922D02*
X24990000Y-40521078D01*
X26410000Y-40003922D02*
X26410000Y-40521078D01*
X80710000Y-46758578D02*
X80710000Y-46241422D01*
X79290000Y-46758578D02*
X79290000Y-46241422D01*
X25090000Y-50041422D02*
X25090000Y-50558578D01*
X26510000Y-50041422D02*
X26510000Y-50558578D01*
X75910000Y-21141422D02*
X75910000Y-21658578D01*
X74490000Y-21141422D02*
X74490000Y-21658578D01*
X79290000Y-56796078D02*
X79290000Y-56278922D01*
X80710000Y-56796078D02*
X80710000Y-56278922D01*
X24990000Y-60041422D02*
X24990000Y-60558578D01*
X26410000Y-60041422D02*
X26410000Y-60558578D01*
X80710000Y-66696078D02*
X80710000Y-66178922D01*
X79290000Y-66696078D02*
X79290000Y-66178922D01*
X26410000Y-70003922D02*
X26410000Y-70521078D01*
X24990000Y-70003922D02*
X24990000Y-70521078D01*
X79290000Y-76796078D02*
X79290000Y-76278922D01*
X80710000Y-76796078D02*
X80710000Y-76278922D01*
X24990000Y-80003922D02*
X24990000Y-80521078D01*
X26410000Y-80003922D02*
X26410000Y-80521078D01*
X95310000Y-72241422D02*
X95310000Y-72758578D01*
X93890000Y-72241422D02*
X93890000Y-72758578D01*
X89458578Y-65210000D02*
X88941422Y-65210000D01*
X89458578Y-63790000D02*
X88941422Y-63790000D01*
X107903922Y-82190000D02*
X108421078Y-82190000D01*
X107903922Y-83610000D02*
X108421078Y-83610000D01*
X112196078Y-82190000D02*
X111678922Y-82190000D01*
X112196078Y-83610000D02*
X111678922Y-83610000D01*
X107741422Y-57010000D02*
X108258578Y-57010000D01*
X107741422Y-55590000D02*
X108258578Y-55590000D01*
X124541422Y-83710000D02*
X125058578Y-83710000D01*
X124541422Y-82290000D02*
X125058578Y-82290000D01*
X121358578Y-83710000D02*
X120841422Y-83710000D01*
X121358578Y-82290000D02*
X120841422Y-82290000D01*
X145890000Y-31041422D02*
X145890000Y-31558578D01*
X147310000Y-31041422D02*
X147310000Y-31558578D01*
X107941422Y-70890000D02*
X108458578Y-70890000D01*
X107941422Y-72310000D02*
X108458578Y-72310000D01*
X112258578Y-70890000D02*
X111741422Y-70890000D01*
X112258578Y-72310000D02*
X111741422Y-72310000D01*
X68150000Y-18600000D02*
X64250000Y-18600000D01*
X68150000Y-20600000D02*
X64250000Y-20600000D01*
X68150000Y-18600000D02*
X68150000Y-20600000D01*
X68150000Y-15100000D02*
X68150000Y-17100000D01*
X68150000Y-17100000D02*
X64250000Y-17100000D01*
X68150000Y-15100000D02*
X64250000Y-15100000D01*
X91350000Y-61300000D02*
X91350000Y-59300000D01*
X91350000Y-59300000D02*
X95250000Y-59300000D01*
X91350000Y-61300000D02*
X95250000Y-61300000D01*
X144720000Y-40710000D02*
X142480000Y-40710000D01*
X142480000Y-40710000D02*
X142480000Y-36470000D01*
X142480000Y-36470000D02*
X144720000Y-36470000D01*
X144720000Y-36470000D02*
X144720000Y-40710000D01*
X143600000Y-41360000D02*
X143600000Y-40710000D01*
X143600000Y-35820000D02*
X143600000Y-36470000D01*
X144720000Y-39990000D02*
X142480000Y-39990000D01*
X144720000Y-39870000D02*
X142480000Y-39870000D01*
X144720000Y-40110000D02*
X142480000Y-40110000D01*
X94641422Y-48310000D02*
X95158578Y-48310000D01*
X94641422Y-46890000D02*
X95158578Y-46890000D01*
X112158578Y-77590000D02*
X111641422Y-77590000D01*
X112158578Y-79010000D02*
X111641422Y-79010000D01*
X112158578Y-76910000D02*
X111641422Y-76910000D01*
X112158578Y-75490000D02*
X111641422Y-75490000D01*
X150070000Y-43780000D02*
X150070000Y-33540000D01*
X145429000Y-43780000D02*
X145429000Y-33540000D01*
X150070000Y-43780000D02*
X145429000Y-43780000D01*
X150070000Y-33540000D02*
X145429000Y-33540000D01*
X148560000Y-43780000D02*
X148560000Y-33540000D01*
X150070000Y-40510000D02*
X148560000Y-40510000D01*
X150070000Y-36809000D02*
X148560000Y-36809000D01*
X102320000Y-55640000D02*
X103250000Y-55640000D01*
X105480000Y-55640000D02*
X104550000Y-55640000D01*
X105480000Y-55640000D02*
X105480000Y-57800000D01*
X102320000Y-55640000D02*
X102320000Y-57100000D01*
X83458578Y-18890000D02*
X82941422Y-18890000D01*
X83458578Y-20310000D02*
X82941422Y-20310000D01*
X78458578Y-23660000D02*
X77941422Y-23660000D01*
X78458578Y-22240000D02*
X77941422Y-22240000D01*
X78458578Y-24690000D02*
X77941422Y-24690000D01*
X78458578Y-26110000D02*
X77941422Y-26110000D01*
X71058578Y-20310000D02*
X70541422Y-20310000D01*
X71058578Y-18890000D02*
X70541422Y-18890000D01*
X70996078Y-15390000D02*
X70478922Y-15390000D01*
X70996078Y-16810000D02*
X70478922Y-16810000D01*
X71790000Y-12141422D02*
X71790000Y-12658578D01*
X73210000Y-12141422D02*
X73210000Y-12658578D01*
X77758578Y-10040000D02*
X77241422Y-10040000D01*
X77758578Y-11460000D02*
X77241422Y-11460000D01*
X77758578Y-13710000D02*
X77241422Y-13710000D01*
X77758578Y-12290000D02*
X77241422Y-12290000D01*
X82941422Y-15390000D02*
X83458578Y-15390000D01*
X82941422Y-16810000D02*
X83458578Y-16810000D01*
X107741422Y-59210000D02*
X108258578Y-59210000D01*
X107741422Y-57790000D02*
X108258578Y-57790000D01*
X132341422Y-20490000D02*
X132858578Y-20490000D01*
X132341422Y-21910000D02*
X132858578Y-21910000D01*
X83150000Y-87100000D02*
G75*
G03X83150000Y-87100000I-950000J0D01*
G01*
X79610000Y-18000000D02*
X79610000Y-19500000D01*
X79610000Y-18000000D02*
X79610000Y-16500000D01*
X76390000Y-18000000D02*
X76390000Y-19500000D01*
X76390000Y-18000000D02*
X76390000Y-15075000D01*
X87490000Y-80750000D02*
X87490000Y-77990000D01*
X87490000Y-77990000D02*
X87765000Y-77990000D01*
X87490000Y-80750000D02*
X87490000Y-83510000D01*
X87490000Y-83510000D02*
X87765000Y-83510000D01*
X94910000Y-80750000D02*
X94910000Y-77990000D01*
X94910000Y-77990000D02*
X94635000Y-77990000D01*
X94910000Y-80750000D02*
X94910000Y-83510000D01*
X94910000Y-83510000D02*
X94635000Y-83510000D01*
X94635000Y-83510000D02*
X94635000Y-85200000D01*
D10*
X87825000Y-72450000D02*
X87825000Y-68050000D01*
X93350000Y-74025000D02*
X93350000Y-68050000D01*
D11*
X142741422Y-50118000D02*
X143258578Y-50118000D01*
X142741422Y-48698000D02*
X143258578Y-48698000D01*
X143266078Y-46230000D02*
X142748922Y-46230000D01*
X143266078Y-47650000D02*
X142748922Y-47650000D01*
X150070000Y-54580000D02*
X150070000Y-44340000D01*
X145429000Y-54580000D02*
X145429000Y-44340000D01*
X150070000Y-54580000D02*
X145429000Y-54580000D01*
X150070000Y-44340000D02*
X145429000Y-44340000D01*
X148560000Y-54580000D02*
X148560000Y-44340000D01*
X150070000Y-51310000D02*
X148560000Y-51310000D01*
X150070000Y-47609000D02*
X148560000Y-47609000D01*
X100030000Y-10730000D02*
X97370000Y-10730000D01*
X100030000Y-10730000D02*
X100030000Y-15870000D01*
X100030000Y-15870000D02*
X97370000Y-15870000D01*
X97370000Y-10730000D02*
X97370000Y-15870000D01*
X97370000Y-8130000D02*
X97370000Y-9460000D01*
X98700000Y-8130000D02*
X97370000Y-8130000D01*
X138560000Y-58296078D02*
X138560000Y-57778922D01*
X137140000Y-58296078D02*
X137140000Y-57778922D01*
X142540000Y-62908578D02*
X142540000Y-62391422D01*
X143960000Y-62908578D02*
X143960000Y-62391422D01*
X139850000Y-60450000D02*
X141850000Y-60450000D01*
X141850000Y-60450000D02*
X141850000Y-64350000D01*
X139850000Y-60450000D02*
X139850000Y-64350000D01*
X83041422Y-39010000D02*
X83558578Y-39010000D01*
X83041422Y-37590000D02*
X83558578Y-37590000D01*
X22041422Y-39110000D02*
X22558578Y-39110000D01*
X22041422Y-37690000D02*
X22558578Y-37690000D01*
X83041422Y-47690000D02*
X83558578Y-47690000D01*
X83041422Y-49110000D02*
X83558578Y-49110000D01*
X22203922Y-47690000D02*
X22721078Y-47690000D01*
X22203922Y-49110000D02*
X22721078Y-49110000D01*
X83041422Y-59210000D02*
X83558578Y-59210000D01*
X83041422Y-57790000D02*
X83558578Y-57790000D01*
X22103922Y-59110000D02*
X22621078Y-59110000D01*
X22103922Y-57690000D02*
X22621078Y-57690000D01*
X83041422Y-67490000D02*
X83558578Y-67490000D01*
X83041422Y-68910000D02*
X83558578Y-68910000D01*
X22003922Y-69010000D02*
X22521078Y-69010000D01*
X22003922Y-67590000D02*
X22521078Y-67590000D01*
X83141422Y-79110000D02*
X83658578Y-79110000D01*
X83141422Y-77690000D02*
X83658578Y-77690000D01*
X22041422Y-77690000D02*
X22558578Y-77690000D01*
X22041422Y-79110000D02*
X22558578Y-79110000D01*
X128491422Y-79940000D02*
X129008578Y-79940000D01*
X128491422Y-81360000D02*
X129008578Y-81360000D01*
X142430000Y-58860000D02*
X142430000Y-57400000D01*
X139270000Y-58860000D02*
X139270000Y-56700000D01*
X139270000Y-58860000D02*
X140200000Y-58860000D01*
X142430000Y-58860000D02*
X141500000Y-58860000D01*
X12230000Y-42260000D02*
X11300000Y-42260000D01*
X9070000Y-42260000D02*
X10000000Y-42260000D01*
X9070000Y-42260000D02*
X9070000Y-40100000D01*
X12230000Y-42260000D02*
X12230000Y-40800000D01*
X141108578Y-54440000D02*
X140591422Y-54440000D01*
X141108578Y-55860000D02*
X140591422Y-55860000D01*
X136410000Y-57791422D02*
X136410000Y-58308578D01*
X134990000Y-57791422D02*
X134990000Y-58308578D01*
X86250000Y-87100000D02*
G75*
G03X86250000Y-87100000I-950000J0D01*
G01*
D10*
X132242857Y-30432380D02*
X132576190Y-29956190D01*
X132814285Y-30432380D02*
X132814285Y-29432380D01*
X132433333Y-29432380D01*
X132338095Y-29480000D01*
X132290476Y-29527619D01*
X132242857Y-29622857D01*
X132242857Y-29765714D01*
X132290476Y-29860952D01*
X132338095Y-29908571D01*
X132433333Y-29956190D01*
X132814285Y-29956190D01*
X131909523Y-29432380D02*
X131290476Y-29432380D01*
X131623809Y-29813333D01*
X131480952Y-29813333D01*
X131385714Y-29860952D01*
X131338095Y-29908571D01*
X131290476Y-30003809D01*
X131290476Y-30241904D01*
X131338095Y-30337142D01*
X131385714Y-30384761D01*
X131480952Y-30432380D01*
X131766666Y-30432380D01*
X131861904Y-30384761D01*
X131909523Y-30337142D01*
X130814285Y-30432380D02*
X130623809Y-30432380D01*
X130528571Y-30384761D01*
X130480952Y-30337142D01*
X130385714Y-30194285D01*
X130338095Y-30003809D01*
X130338095Y-29622857D01*
X130385714Y-29527619D01*
X130433333Y-29480000D01*
X130528571Y-29432380D01*
X130719047Y-29432380D01*
X130814285Y-29480000D01*
X130861904Y-29527619D01*
X130909523Y-29622857D01*
X130909523Y-29860952D01*
X130861904Y-29956190D01*
X130814285Y-30003809D01*
X130719047Y-30051428D01*
X130528571Y-30051428D01*
X130433333Y-30003809D01*
X130385714Y-29956190D01*
X130338095Y-29860952D01*
X7389523Y-37622380D02*
X7389523Y-38336666D01*
X7437142Y-38479523D01*
X7532380Y-38574761D01*
X7675238Y-38622380D01*
X7770476Y-38622380D01*
X6389523Y-38622380D02*
X6960952Y-38622380D01*
X6675238Y-38622380D02*
X6675238Y-37622380D01*
X6770476Y-37765238D01*
X6865714Y-37860476D01*
X6960952Y-37908095D01*
X5770476Y-37622380D02*
X5675238Y-37622380D01*
X5580000Y-37670000D01*
X5532380Y-37717619D01*
X5484761Y-37812857D01*
X5437142Y-38003333D01*
X5437142Y-38241428D01*
X5484761Y-38431904D01*
X5532380Y-38527142D01*
X5580000Y-38574761D01*
X5675238Y-38622380D01*
X5770476Y-38622380D01*
X5865714Y-38574761D01*
X5913333Y-38527142D01*
X5960952Y-38431904D01*
X6008571Y-38241428D01*
X6008571Y-38003333D01*
X5960952Y-37812857D01*
X5913333Y-37717619D01*
X5865714Y-37670000D01*
X5770476Y-37622380D01*
D13*
X115063095Y-32809523D02*
X114415476Y-32809523D01*
X114339285Y-32771428D01*
X114301190Y-32733333D01*
X114263095Y-32657142D01*
X114263095Y-32504761D01*
X114301190Y-32428571D01*
X114339285Y-32390476D01*
X114415476Y-32352380D01*
X115063095Y-32352380D01*
X114986904Y-32009523D02*
X115025000Y-31971428D01*
X115063095Y-31895238D01*
X115063095Y-31704761D01*
X115025000Y-31628571D01*
X114986904Y-31590476D01*
X114910714Y-31552380D01*
X114834523Y-31552380D01*
X114720238Y-31590476D01*
X114263095Y-32047619D01*
X114263095Y-31552380D01*
D10*
X124861904Y-37852380D02*
X124861904Y-38661904D01*
X124814285Y-38757142D01*
X124766666Y-38804761D01*
X124671428Y-38852380D01*
X124480952Y-38852380D01*
X124385714Y-38804761D01*
X124338095Y-38757142D01*
X124290476Y-38661904D01*
X124290476Y-37852380D01*
X123385714Y-37852380D02*
X123576190Y-37852380D01*
X123671428Y-37900000D01*
X123719047Y-37947619D01*
X123814285Y-38090476D01*
X123861904Y-38280952D01*
X123861904Y-38661904D01*
X123814285Y-38757142D01*
X123766666Y-38804761D01*
X123671428Y-38852380D01*
X123480952Y-38852380D01*
X123385714Y-38804761D01*
X123338095Y-38757142D01*
X123290476Y-38661904D01*
X123290476Y-38423809D01*
X123338095Y-38328571D01*
X123385714Y-38280952D01*
X123480952Y-38233333D01*
X123671428Y-38233333D01*
X123766666Y-38280952D01*
X123814285Y-38328571D01*
X123861904Y-38423809D01*
X115961904Y-23952380D02*
X115961904Y-24761904D01*
X115914285Y-24857142D01*
X115866666Y-24904761D01*
X115771428Y-24952380D01*
X115580952Y-24952380D01*
X115485714Y-24904761D01*
X115438095Y-24857142D01*
X115390476Y-24761904D01*
X115390476Y-23952380D01*
X115009523Y-23952380D02*
X114342857Y-23952380D01*
X114771428Y-24952380D01*
X115852380Y-18957142D02*
X115376190Y-18623809D01*
X115852380Y-18385714D02*
X114852380Y-18385714D01*
X114852380Y-18766666D01*
X114900000Y-18861904D01*
X114947619Y-18909523D01*
X115042857Y-18957142D01*
X115185714Y-18957142D01*
X115280952Y-18909523D01*
X115328571Y-18861904D01*
X115376190Y-18766666D01*
X115376190Y-18385714D01*
X115852380Y-19909523D02*
X115852380Y-19338095D01*
X115852380Y-19623809D02*
X114852380Y-19623809D01*
X114995238Y-19528571D01*
X115090476Y-19433333D01*
X115138095Y-19338095D01*
X115185714Y-20766666D02*
X115852380Y-20766666D01*
X114804761Y-20528571D02*
X115519047Y-20290476D01*
X115519047Y-20909523D01*
X121852380Y-18057142D02*
X121376190Y-17723809D01*
X121852380Y-17485714D02*
X120852380Y-17485714D01*
X120852380Y-17866666D01*
X120900000Y-17961904D01*
X120947619Y-18009523D01*
X121042857Y-18057142D01*
X121185714Y-18057142D01*
X121280952Y-18009523D01*
X121328571Y-17961904D01*
X121376190Y-17866666D01*
X121376190Y-17485714D01*
X120852380Y-18390476D02*
X120852380Y-19009523D01*
X121233333Y-18676190D01*
X121233333Y-18819047D01*
X121280952Y-18914285D01*
X121328571Y-18961904D01*
X121423809Y-19009523D01*
X121661904Y-19009523D01*
X121757142Y-18961904D01*
X121804761Y-18914285D01*
X121852380Y-18819047D01*
X121852380Y-18533333D01*
X121804761Y-18438095D01*
X121757142Y-18390476D01*
X120852380Y-19914285D02*
X120852380Y-19438095D01*
X121328571Y-19390476D01*
X121280952Y-19438095D01*
X121233333Y-19533333D01*
X121233333Y-19771428D01*
X121280952Y-19866666D01*
X121328571Y-19914285D01*
X121423809Y-19961904D01*
X121661904Y-19961904D01*
X121757142Y-19914285D01*
X121804761Y-19866666D01*
X121852380Y-19771428D01*
X121852380Y-19533333D01*
X121804761Y-19438095D01*
X121757142Y-19390476D01*
X118942857Y-11452380D02*
X119276190Y-10976190D01*
X119514285Y-11452380D02*
X119514285Y-10452380D01*
X119133333Y-10452380D01*
X119038095Y-10500000D01*
X118990476Y-10547619D01*
X118942857Y-10642857D01*
X118942857Y-10785714D01*
X118990476Y-10880952D01*
X119038095Y-10928571D01*
X119133333Y-10976190D01*
X119514285Y-10976190D01*
X118609523Y-10452380D02*
X117990476Y-10452380D01*
X118323809Y-10833333D01*
X118180952Y-10833333D01*
X118085714Y-10880952D01*
X118038095Y-10928571D01*
X117990476Y-11023809D01*
X117990476Y-11261904D01*
X118038095Y-11357142D01*
X118085714Y-11404761D01*
X118180952Y-11452380D01*
X118466666Y-11452380D01*
X118561904Y-11404761D01*
X118609523Y-11357142D01*
X117133333Y-10785714D02*
X117133333Y-11452380D01*
X117371428Y-10404761D02*
X117609523Y-11119047D01*
X116990476Y-11119047D01*
X126542857Y-32757142D02*
X126590476Y-32804761D01*
X126733333Y-32852380D01*
X126828571Y-32852380D01*
X126971428Y-32804761D01*
X127066666Y-32709523D01*
X127114285Y-32614285D01*
X127161904Y-32423809D01*
X127161904Y-32280952D01*
X127114285Y-32090476D01*
X127066666Y-31995238D01*
X126971428Y-31900000D01*
X126828571Y-31852380D01*
X126733333Y-31852380D01*
X126590476Y-31900000D01*
X126542857Y-31947619D01*
X126209523Y-31852380D02*
X125542857Y-31852380D01*
X125971428Y-32852380D01*
X125019047Y-32280952D02*
X125114285Y-32233333D01*
X125161904Y-32185714D01*
X125209523Y-32090476D01*
X125209523Y-32042857D01*
X125161904Y-31947619D01*
X125114285Y-31900000D01*
X125019047Y-31852380D01*
X124828571Y-31852380D01*
X124733333Y-31900000D01*
X124685714Y-31947619D01*
X124638095Y-32042857D01*
X124638095Y-32090476D01*
X124685714Y-32185714D01*
X124733333Y-32233333D01*
X124828571Y-32280952D01*
X125019047Y-32280952D01*
X125114285Y-32328571D01*
X125161904Y-32376190D01*
X125209523Y-32471428D01*
X125209523Y-32661904D01*
X125161904Y-32757142D01*
X125114285Y-32804761D01*
X125019047Y-32852380D01*
X124828571Y-32852380D01*
X124733333Y-32804761D01*
X124685714Y-32757142D01*
X124638095Y-32661904D01*
X124638095Y-32471428D01*
X124685714Y-32376190D01*
X124733333Y-32328571D01*
X124828571Y-32280952D01*
X110542857Y-28057142D02*
X110590476Y-28104761D01*
X110733333Y-28152380D01*
X110828571Y-28152380D01*
X110971428Y-28104761D01*
X111066666Y-28009523D01*
X111114285Y-27914285D01*
X111161904Y-27723809D01*
X111161904Y-27580952D01*
X111114285Y-27390476D01*
X111066666Y-27295238D01*
X110971428Y-27200000D01*
X110828571Y-27152380D01*
X110733333Y-27152380D01*
X110590476Y-27200000D01*
X110542857Y-27247619D01*
X110209523Y-27152380D02*
X109542857Y-27152380D01*
X109971428Y-28152380D01*
X109114285Y-28152380D02*
X108923809Y-28152380D01*
X108828571Y-28104761D01*
X108780952Y-28057142D01*
X108685714Y-27914285D01*
X108638095Y-27723809D01*
X108638095Y-27342857D01*
X108685714Y-27247619D01*
X108733333Y-27200000D01*
X108828571Y-27152380D01*
X109019047Y-27152380D01*
X109114285Y-27200000D01*
X109161904Y-27247619D01*
X109209523Y-27342857D01*
X109209523Y-27580952D01*
X109161904Y-27676190D01*
X109114285Y-27723809D01*
X109019047Y-27771428D01*
X108828571Y-27771428D01*
X108733333Y-27723809D01*
X108685714Y-27676190D01*
X108638095Y-27580952D01*
X110542857Y-30257142D02*
X110590476Y-30304761D01*
X110733333Y-30352380D01*
X110828571Y-30352380D01*
X110971428Y-30304761D01*
X111066666Y-30209523D01*
X111114285Y-30114285D01*
X111161904Y-29923809D01*
X111161904Y-29780952D01*
X111114285Y-29590476D01*
X111066666Y-29495238D01*
X110971428Y-29400000D01*
X110828571Y-29352380D01*
X110733333Y-29352380D01*
X110590476Y-29400000D01*
X110542857Y-29447619D01*
X109971428Y-29780952D02*
X110066666Y-29733333D01*
X110114285Y-29685714D01*
X110161904Y-29590476D01*
X110161904Y-29542857D01*
X110114285Y-29447619D01*
X110066666Y-29400000D01*
X109971428Y-29352380D01*
X109780952Y-29352380D01*
X109685714Y-29400000D01*
X109638095Y-29447619D01*
X109590476Y-29542857D01*
X109590476Y-29590476D01*
X109638095Y-29685714D01*
X109685714Y-29733333D01*
X109780952Y-29780952D01*
X109971428Y-29780952D01*
X110066666Y-29828571D01*
X110114285Y-29876190D01*
X110161904Y-29971428D01*
X110161904Y-30161904D01*
X110114285Y-30257142D01*
X110066666Y-30304761D01*
X109971428Y-30352380D01*
X109780952Y-30352380D01*
X109685714Y-30304761D01*
X109638095Y-30257142D01*
X109590476Y-30161904D01*
X109590476Y-29971428D01*
X109638095Y-29876190D01*
X109685714Y-29828571D01*
X109780952Y-29780952D01*
X108971428Y-29352380D02*
X108876190Y-29352380D01*
X108780952Y-29400000D01*
X108733333Y-29447619D01*
X108685714Y-29542857D01*
X108638095Y-29733333D01*
X108638095Y-29971428D01*
X108685714Y-30161904D01*
X108733333Y-30257142D01*
X108780952Y-30304761D01*
X108876190Y-30352380D01*
X108971428Y-30352380D01*
X109066666Y-30304761D01*
X109114285Y-30257142D01*
X109161904Y-30161904D01*
X109209523Y-29971428D01*
X109209523Y-29733333D01*
X109161904Y-29542857D01*
X109114285Y-29447619D01*
X109066666Y-29400000D01*
X108971428Y-29352380D01*
X126542857Y-28057142D02*
X126590476Y-28104761D01*
X126733333Y-28152380D01*
X126828571Y-28152380D01*
X126971428Y-28104761D01*
X127066666Y-28009523D01*
X127114285Y-27914285D01*
X127161904Y-27723809D01*
X127161904Y-27580952D01*
X127114285Y-27390476D01*
X127066666Y-27295238D01*
X126971428Y-27200000D01*
X126828571Y-27152380D01*
X126733333Y-27152380D01*
X126590476Y-27200000D01*
X126542857Y-27247619D01*
X125971428Y-27580952D02*
X126066666Y-27533333D01*
X126114285Y-27485714D01*
X126161904Y-27390476D01*
X126161904Y-27342857D01*
X126114285Y-27247619D01*
X126066666Y-27200000D01*
X125971428Y-27152380D01*
X125780952Y-27152380D01*
X125685714Y-27200000D01*
X125638095Y-27247619D01*
X125590476Y-27342857D01*
X125590476Y-27390476D01*
X125638095Y-27485714D01*
X125685714Y-27533333D01*
X125780952Y-27580952D01*
X125971428Y-27580952D01*
X126066666Y-27628571D01*
X126114285Y-27676190D01*
X126161904Y-27771428D01*
X126161904Y-27961904D01*
X126114285Y-28057142D01*
X126066666Y-28104761D01*
X125971428Y-28152380D01*
X125780952Y-28152380D01*
X125685714Y-28104761D01*
X125638095Y-28057142D01*
X125590476Y-27961904D01*
X125590476Y-27771428D01*
X125638095Y-27676190D01*
X125685714Y-27628571D01*
X125780952Y-27580952D01*
X124638095Y-28152380D02*
X125209523Y-28152380D01*
X124923809Y-28152380D02*
X124923809Y-27152380D01*
X125019047Y-27295238D01*
X125114285Y-27390476D01*
X125209523Y-27438095D01*
X133942857Y-39357142D02*
X133990476Y-39404761D01*
X134133333Y-39452380D01*
X134228571Y-39452380D01*
X134371428Y-39404761D01*
X134466666Y-39309523D01*
X134514285Y-39214285D01*
X134561904Y-39023809D01*
X134561904Y-38880952D01*
X134514285Y-38690476D01*
X134466666Y-38595238D01*
X134371428Y-38500000D01*
X134228571Y-38452380D01*
X134133333Y-38452380D01*
X133990476Y-38500000D01*
X133942857Y-38547619D01*
X133371428Y-38880952D02*
X133466666Y-38833333D01*
X133514285Y-38785714D01*
X133561904Y-38690476D01*
X133561904Y-38642857D01*
X133514285Y-38547619D01*
X133466666Y-38500000D01*
X133371428Y-38452380D01*
X133180952Y-38452380D01*
X133085714Y-38500000D01*
X133038095Y-38547619D01*
X132990476Y-38642857D01*
X132990476Y-38690476D01*
X133038095Y-38785714D01*
X133085714Y-38833333D01*
X133180952Y-38880952D01*
X133371428Y-38880952D01*
X133466666Y-38928571D01*
X133514285Y-38976190D01*
X133561904Y-39071428D01*
X133561904Y-39261904D01*
X133514285Y-39357142D01*
X133466666Y-39404761D01*
X133371428Y-39452380D01*
X133180952Y-39452380D01*
X133085714Y-39404761D01*
X133038095Y-39357142D01*
X132990476Y-39261904D01*
X132990476Y-39071428D01*
X133038095Y-38976190D01*
X133085714Y-38928571D01*
X133180952Y-38880952D01*
X132609523Y-38547619D02*
X132561904Y-38500000D01*
X132466666Y-38452380D01*
X132228571Y-38452380D01*
X132133333Y-38500000D01*
X132085714Y-38547619D01*
X132038095Y-38642857D01*
X132038095Y-38738095D01*
X132085714Y-38880952D01*
X132657142Y-39452380D01*
X132038095Y-39452380D01*
X122242857Y-21657142D02*
X122290476Y-21704761D01*
X122433333Y-21752380D01*
X122528571Y-21752380D01*
X122671428Y-21704761D01*
X122766666Y-21609523D01*
X122814285Y-21514285D01*
X122861904Y-21323809D01*
X122861904Y-21180952D01*
X122814285Y-20990476D01*
X122766666Y-20895238D01*
X122671428Y-20800000D01*
X122528571Y-20752380D01*
X122433333Y-20752380D01*
X122290476Y-20800000D01*
X122242857Y-20847619D01*
X121671428Y-21180952D02*
X121766666Y-21133333D01*
X121814285Y-21085714D01*
X121861904Y-20990476D01*
X121861904Y-20942857D01*
X121814285Y-20847619D01*
X121766666Y-20800000D01*
X121671428Y-20752380D01*
X121480952Y-20752380D01*
X121385714Y-20800000D01*
X121338095Y-20847619D01*
X121290476Y-20942857D01*
X121290476Y-20990476D01*
X121338095Y-21085714D01*
X121385714Y-21133333D01*
X121480952Y-21180952D01*
X121671428Y-21180952D01*
X121766666Y-21228571D01*
X121814285Y-21276190D01*
X121861904Y-21371428D01*
X121861904Y-21561904D01*
X121814285Y-21657142D01*
X121766666Y-21704761D01*
X121671428Y-21752380D01*
X121480952Y-21752380D01*
X121385714Y-21704761D01*
X121338095Y-21657142D01*
X121290476Y-21561904D01*
X121290476Y-21371428D01*
X121338095Y-21276190D01*
X121385714Y-21228571D01*
X121480952Y-21180952D01*
X120957142Y-20752380D02*
X120338095Y-20752380D01*
X120671428Y-21133333D01*
X120528571Y-21133333D01*
X120433333Y-21180952D01*
X120385714Y-21228571D01*
X120338095Y-21323809D01*
X120338095Y-21561904D01*
X120385714Y-21657142D01*
X120433333Y-21704761D01*
X120528571Y-21752380D01*
X120814285Y-21752380D01*
X120909523Y-21704761D01*
X120957142Y-21657142D01*
X126633333Y-30028571D02*
X126966666Y-30028571D01*
X126966666Y-30552380D02*
X126966666Y-29552380D01*
X126490476Y-29552380D01*
X125776190Y-30028571D02*
X125633333Y-30076190D01*
X125585714Y-30123809D01*
X125538095Y-30219047D01*
X125538095Y-30361904D01*
X125585714Y-30457142D01*
X125633333Y-30504761D01*
X125728571Y-30552380D01*
X126109523Y-30552380D01*
X126109523Y-29552380D01*
X125776190Y-29552380D01*
X125680952Y-29600000D01*
X125633333Y-29647619D01*
X125585714Y-29742857D01*
X125585714Y-29838095D01*
X125633333Y-29933333D01*
X125680952Y-29980952D01*
X125776190Y-30028571D01*
X126109523Y-30028571D01*
X124680952Y-29885714D02*
X124680952Y-30552380D01*
X124919047Y-29504761D02*
X125157142Y-30219047D01*
X124538095Y-30219047D01*
X90033333Y-58128571D02*
X90366666Y-58128571D01*
X90366666Y-58652380D02*
X90366666Y-57652380D01*
X89890476Y-57652380D01*
X89176190Y-58128571D02*
X89033333Y-58176190D01*
X88985714Y-58223809D01*
X88938095Y-58319047D01*
X88938095Y-58461904D01*
X88985714Y-58557142D01*
X89033333Y-58604761D01*
X89128571Y-58652380D01*
X89509523Y-58652380D01*
X89509523Y-57652380D01*
X89176190Y-57652380D01*
X89080952Y-57700000D01*
X89033333Y-57747619D01*
X88985714Y-57842857D01*
X88985714Y-57938095D01*
X89033333Y-58033333D01*
X89080952Y-58080952D01*
X89176190Y-58128571D01*
X89509523Y-58128571D01*
X88033333Y-57652380D02*
X88509523Y-57652380D01*
X88557142Y-58128571D01*
X88509523Y-58080952D01*
X88414285Y-58033333D01*
X88176190Y-58033333D01*
X88080952Y-58080952D01*
X88033333Y-58128571D01*
X87985714Y-58223809D01*
X87985714Y-58461904D01*
X88033333Y-58557142D01*
X88080952Y-58604761D01*
X88176190Y-58652380D01*
X88414285Y-58652380D01*
X88509523Y-58604761D01*
X88557142Y-58557142D01*
X126733333Y-25328571D02*
X127066666Y-25328571D01*
X127066666Y-25852380D02*
X127066666Y-24852380D01*
X126590476Y-24852380D01*
X125876190Y-25328571D02*
X125733333Y-25376190D01*
X125685714Y-25423809D01*
X125638095Y-25519047D01*
X125638095Y-25661904D01*
X125685714Y-25757142D01*
X125733333Y-25804761D01*
X125828571Y-25852380D01*
X126209523Y-25852380D01*
X126209523Y-24852380D01*
X125876190Y-24852380D01*
X125780952Y-24900000D01*
X125733333Y-24947619D01*
X125685714Y-25042857D01*
X125685714Y-25138095D01*
X125733333Y-25233333D01*
X125780952Y-25280952D01*
X125876190Y-25328571D01*
X126209523Y-25328571D01*
X124780952Y-24852380D02*
X124971428Y-24852380D01*
X125066666Y-24900000D01*
X125114285Y-24947619D01*
X125209523Y-25090476D01*
X125257142Y-25280952D01*
X125257142Y-25661904D01*
X125209523Y-25757142D01*
X125161904Y-25804761D01*
X125066666Y-25852380D01*
X124876190Y-25852380D01*
X124780952Y-25804761D01*
X124733333Y-25757142D01*
X124685714Y-25661904D01*
X124685714Y-25423809D01*
X124733333Y-25328571D01*
X124780952Y-25280952D01*
X124876190Y-25233333D01*
X125066666Y-25233333D01*
X125161904Y-25280952D01*
X125209523Y-25328571D01*
X125257142Y-25423809D01*
X134033333Y-36728571D02*
X134366666Y-36728571D01*
X134366666Y-37252380D02*
X134366666Y-36252380D01*
X133890476Y-36252380D01*
X133176190Y-36728571D02*
X133033333Y-36776190D01*
X132985714Y-36823809D01*
X132938095Y-36919047D01*
X132938095Y-37061904D01*
X132985714Y-37157142D01*
X133033333Y-37204761D01*
X133128571Y-37252380D01*
X133509523Y-37252380D01*
X133509523Y-36252380D01*
X133176190Y-36252380D01*
X133080952Y-36300000D01*
X133033333Y-36347619D01*
X132985714Y-36442857D01*
X132985714Y-36538095D01*
X133033333Y-36633333D01*
X133080952Y-36680952D01*
X133176190Y-36728571D01*
X133509523Y-36728571D01*
X132604761Y-36252380D02*
X131938095Y-36252380D01*
X132366666Y-37252380D01*
X75128571Y-27366666D02*
X75128571Y-27033333D01*
X75652380Y-27033333D02*
X74652380Y-27033333D01*
X74652380Y-27509523D01*
X75128571Y-28223809D02*
X75176190Y-28366666D01*
X75223809Y-28414285D01*
X75319047Y-28461904D01*
X75461904Y-28461904D01*
X75557142Y-28414285D01*
X75604761Y-28366666D01*
X75652380Y-28271428D01*
X75652380Y-27890476D01*
X74652380Y-27890476D01*
X74652380Y-28223809D01*
X74700000Y-28319047D01*
X74747619Y-28366666D01*
X74842857Y-28414285D01*
X74938095Y-28414285D01*
X75033333Y-28366666D01*
X75080952Y-28319047D01*
X75128571Y-28223809D01*
X75128571Y-27890476D01*
X75080952Y-29033333D02*
X75033333Y-28938095D01*
X74985714Y-28890476D01*
X74890476Y-28842857D01*
X74842857Y-28842857D01*
X74747619Y-28890476D01*
X74700000Y-28938095D01*
X74652380Y-29033333D01*
X74652380Y-29223809D01*
X74700000Y-29319047D01*
X74747619Y-29366666D01*
X74842857Y-29414285D01*
X74890476Y-29414285D01*
X74985714Y-29366666D01*
X75033333Y-29319047D01*
X75080952Y-29223809D01*
X75080952Y-29033333D01*
X75128571Y-28938095D01*
X75176190Y-28890476D01*
X75271428Y-28842857D01*
X75461904Y-28842857D01*
X75557142Y-28890476D01*
X75604761Y-28938095D01*
X75652380Y-29033333D01*
X75652380Y-29223809D01*
X75604761Y-29319047D01*
X75557142Y-29366666D01*
X75461904Y-29414285D01*
X75271428Y-29414285D01*
X75176190Y-29366666D01*
X75128571Y-29319047D01*
X75080952Y-29223809D01*
X99033333Y-92532380D02*
X99033333Y-93246666D01*
X99080952Y-93389523D01*
X99176190Y-93484761D01*
X99319047Y-93532380D01*
X99414285Y-93532380D01*
X98604761Y-92627619D02*
X98557142Y-92580000D01*
X98461904Y-92532380D01*
X98223809Y-92532380D01*
X98128571Y-92580000D01*
X98080952Y-92627619D01*
X98033333Y-92722857D01*
X98033333Y-92818095D01*
X98080952Y-92960952D01*
X98652380Y-93532380D01*
X98033333Y-93532380D01*
X73052380Y-25633333D02*
X72576190Y-25300000D01*
X73052380Y-25061904D02*
X72052380Y-25061904D01*
X72052380Y-25442857D01*
X72100000Y-25538095D01*
X72147619Y-25585714D01*
X72242857Y-25633333D01*
X72385714Y-25633333D01*
X72480952Y-25585714D01*
X72528571Y-25538095D01*
X72576190Y-25442857D01*
X72576190Y-25061904D01*
X72385714Y-26490476D02*
X73052380Y-26490476D01*
X72004761Y-26252380D02*
X72719047Y-26014285D01*
X72719047Y-26633333D01*
X66966666Y-29852380D02*
X67300000Y-29376190D01*
X67538095Y-29852380D02*
X67538095Y-28852380D01*
X67157142Y-28852380D01*
X67061904Y-28900000D01*
X67014285Y-28947619D01*
X66966666Y-29042857D01*
X66966666Y-29185714D01*
X67014285Y-29280952D01*
X67061904Y-29328571D01*
X67157142Y-29376190D01*
X67538095Y-29376190D01*
X66633333Y-28852380D02*
X65966666Y-28852380D01*
X66395238Y-29852380D01*
X63066666Y-29852380D02*
X63400000Y-29376190D01*
X63638095Y-29852380D02*
X63638095Y-28852380D01*
X63257142Y-28852380D01*
X63161904Y-28900000D01*
X63114285Y-28947619D01*
X63066666Y-29042857D01*
X63066666Y-29185714D01*
X63114285Y-29280952D01*
X63161904Y-29328571D01*
X63257142Y-29376190D01*
X63638095Y-29376190D01*
X62209523Y-28852380D02*
X62400000Y-28852380D01*
X62495238Y-28900000D01*
X62542857Y-28947619D01*
X62638095Y-29090476D01*
X62685714Y-29280952D01*
X62685714Y-29661904D01*
X62638095Y-29757142D01*
X62590476Y-29804761D01*
X62495238Y-29852380D01*
X62304761Y-29852380D01*
X62209523Y-29804761D01*
X62161904Y-29757142D01*
X62114285Y-29661904D01*
X62114285Y-29423809D01*
X62161904Y-29328571D01*
X62209523Y-29280952D01*
X62304761Y-29233333D01*
X62495238Y-29233333D01*
X62590476Y-29280952D01*
X62638095Y-29328571D01*
X62685714Y-29423809D01*
X66966666Y-6852380D02*
X67300000Y-6376190D01*
X67538095Y-6852380D02*
X67538095Y-5852380D01*
X67157142Y-5852380D01*
X67061904Y-5900000D01*
X67014285Y-5947619D01*
X66966666Y-6042857D01*
X66966666Y-6185714D01*
X67014285Y-6280952D01*
X67061904Y-6328571D01*
X67157142Y-6376190D01*
X67538095Y-6376190D01*
X66490476Y-6852380D02*
X66300000Y-6852380D01*
X66204761Y-6804761D01*
X66157142Y-6757142D01*
X66061904Y-6614285D01*
X66014285Y-6423809D01*
X66014285Y-6042857D01*
X66061904Y-5947619D01*
X66109523Y-5900000D01*
X66204761Y-5852380D01*
X66395238Y-5852380D01*
X66490476Y-5900000D01*
X66538095Y-5947619D01*
X66585714Y-6042857D01*
X66585714Y-6280952D01*
X66538095Y-6376190D01*
X66490476Y-6423809D01*
X66395238Y-6471428D01*
X66204761Y-6471428D01*
X66109523Y-6423809D01*
X66061904Y-6376190D01*
X66014285Y-6280952D01*
X63066666Y-6852380D02*
X63400000Y-6376190D01*
X63638095Y-6852380D02*
X63638095Y-5852380D01*
X63257142Y-5852380D01*
X63161904Y-5900000D01*
X63114285Y-5947619D01*
X63066666Y-6042857D01*
X63066666Y-6185714D01*
X63114285Y-6280952D01*
X63161904Y-6328571D01*
X63257142Y-6376190D01*
X63638095Y-6376190D01*
X62495238Y-6280952D02*
X62590476Y-6233333D01*
X62638095Y-6185714D01*
X62685714Y-6090476D01*
X62685714Y-6042857D01*
X62638095Y-5947619D01*
X62590476Y-5900000D01*
X62495238Y-5852380D01*
X62304761Y-5852380D01*
X62209523Y-5900000D01*
X62161904Y-5947619D01*
X62114285Y-6042857D01*
X62114285Y-6090476D01*
X62161904Y-6185714D01*
X62209523Y-6233333D01*
X62304761Y-6280952D01*
X62495238Y-6280952D01*
X62590476Y-6328571D01*
X62638095Y-6376190D01*
X62685714Y-6471428D01*
X62685714Y-6661904D01*
X62638095Y-6757142D01*
X62590476Y-6804761D01*
X62495238Y-6852380D01*
X62304761Y-6852380D01*
X62209523Y-6804761D01*
X62161904Y-6757142D01*
X62114285Y-6661904D01*
X62114285Y-6471428D01*
X62161904Y-6376190D01*
X62209523Y-6328571D01*
X62304761Y-6280952D01*
D15*
X110996768Y-4849443D02*
X111601530Y-4849443D01*
X111601530Y-3579443D01*
X109908197Y-4849443D02*
X110633911Y-4849443D01*
X110271054Y-4849443D02*
X110271054Y-3579443D01*
X110392006Y-3760872D01*
X110512959Y-3881824D01*
X110633911Y-3942300D01*
X108819625Y-4002777D02*
X108819625Y-4849443D01*
X109122006Y-3518967D02*
X109424387Y-4426110D01*
X108638197Y-4426110D01*
D10*
X78166666Y-39457142D02*
X78214285Y-39504761D01*
X78357142Y-39552380D01*
X78452380Y-39552380D01*
X78595238Y-39504761D01*
X78690476Y-39409523D01*
X78738095Y-39314285D01*
X78785714Y-39123809D01*
X78785714Y-38980952D01*
X78738095Y-38790476D01*
X78690476Y-38695238D01*
X78595238Y-38600000D01*
X78452380Y-38552380D01*
X78357142Y-38552380D01*
X78214285Y-38600000D01*
X78166666Y-38647619D01*
X77214285Y-39552380D02*
X77785714Y-39552380D01*
X77500000Y-39552380D02*
X77500000Y-38552380D01*
X77595238Y-38695238D01*
X77690476Y-38790476D01*
X77785714Y-38838095D01*
X78066666Y-49457142D02*
X78114285Y-49504761D01*
X78257142Y-49552380D01*
X78352380Y-49552380D01*
X78495238Y-49504761D01*
X78590476Y-49409523D01*
X78638095Y-49314285D01*
X78685714Y-49123809D01*
X78685714Y-48980952D01*
X78638095Y-48790476D01*
X78590476Y-48695238D01*
X78495238Y-48600000D01*
X78352380Y-48552380D01*
X78257142Y-48552380D01*
X78114285Y-48600000D01*
X78066666Y-48647619D01*
X77685714Y-48647619D02*
X77638095Y-48600000D01*
X77542857Y-48552380D01*
X77304761Y-48552380D01*
X77209523Y-48600000D01*
X77161904Y-48647619D01*
X77114285Y-48742857D01*
X77114285Y-48838095D01*
X77161904Y-48980952D01*
X77733333Y-49552380D01*
X77114285Y-49552380D01*
X77966666Y-59457142D02*
X78014285Y-59504761D01*
X78157142Y-59552380D01*
X78252380Y-59552380D01*
X78395238Y-59504761D01*
X78490476Y-59409523D01*
X78538095Y-59314285D01*
X78585714Y-59123809D01*
X78585714Y-58980952D01*
X78538095Y-58790476D01*
X78490476Y-58695238D01*
X78395238Y-58600000D01*
X78252380Y-58552380D01*
X78157142Y-58552380D01*
X78014285Y-58600000D01*
X77966666Y-58647619D01*
X77633333Y-58552380D02*
X77014285Y-58552380D01*
X77347619Y-58933333D01*
X77204761Y-58933333D01*
X77109523Y-58980952D01*
X77061904Y-59028571D01*
X77014285Y-59123809D01*
X77014285Y-59361904D01*
X77061904Y-59457142D01*
X77109523Y-59504761D01*
X77204761Y-59552380D01*
X77490476Y-59552380D01*
X77585714Y-59504761D01*
X77633333Y-59457142D01*
X77966666Y-69357142D02*
X78014285Y-69404761D01*
X78157142Y-69452380D01*
X78252380Y-69452380D01*
X78395238Y-69404761D01*
X78490476Y-69309523D01*
X78538095Y-69214285D01*
X78585714Y-69023809D01*
X78585714Y-68880952D01*
X78538095Y-68690476D01*
X78490476Y-68595238D01*
X78395238Y-68500000D01*
X78252380Y-68452380D01*
X78157142Y-68452380D01*
X78014285Y-68500000D01*
X77966666Y-68547619D01*
X77109523Y-68785714D02*
X77109523Y-69452380D01*
X77347619Y-68404761D02*
X77585714Y-69119047D01*
X76966666Y-69119047D01*
X78066666Y-79457142D02*
X78114285Y-79504761D01*
X78257142Y-79552380D01*
X78352380Y-79552380D01*
X78495238Y-79504761D01*
X78590476Y-79409523D01*
X78638095Y-79314285D01*
X78685714Y-79123809D01*
X78685714Y-78980952D01*
X78638095Y-78790476D01*
X78590476Y-78695238D01*
X78495238Y-78600000D01*
X78352380Y-78552380D01*
X78257142Y-78552380D01*
X78114285Y-78600000D01*
X78066666Y-78647619D01*
X77161904Y-78552380D02*
X77638095Y-78552380D01*
X77685714Y-79028571D01*
X77638095Y-78980952D01*
X77542857Y-78933333D01*
X77304761Y-78933333D01*
X77209523Y-78980952D01*
X77161904Y-79028571D01*
X77114285Y-79123809D01*
X77114285Y-79361904D01*
X77161904Y-79457142D01*
X77209523Y-79504761D01*
X77304761Y-79552380D01*
X77542857Y-79552380D01*
X77638095Y-79504761D01*
X77685714Y-79457142D01*
X68057142Y-34033333D02*
X68104761Y-33985714D01*
X68152380Y-33842857D01*
X68152380Y-33747619D01*
X68104761Y-33604761D01*
X68009523Y-33509523D01*
X67914285Y-33461904D01*
X67723809Y-33414285D01*
X67580952Y-33414285D01*
X67390476Y-33461904D01*
X67295238Y-33509523D01*
X67200000Y-33604761D01*
X67152380Y-33747619D01*
X67152380Y-33842857D01*
X67200000Y-33985714D01*
X67247619Y-34033333D01*
X67152380Y-34890476D02*
X67152380Y-34700000D01*
X67200000Y-34604761D01*
X67247619Y-34557142D01*
X67390476Y-34461904D01*
X67580952Y-34414285D01*
X67961904Y-34414285D01*
X68057142Y-34461904D01*
X68104761Y-34509523D01*
X68152380Y-34604761D01*
X68152380Y-34795238D01*
X68104761Y-34890476D01*
X68057142Y-34938095D01*
X67961904Y-34985714D01*
X67723809Y-34985714D01*
X67628571Y-34938095D01*
X67580952Y-34890476D01*
X67533333Y-34795238D01*
X67533333Y-34604761D01*
X67580952Y-34509523D01*
X67628571Y-34461904D01*
X67723809Y-34414285D01*
X68157142Y-44033333D02*
X68204761Y-43985714D01*
X68252380Y-43842857D01*
X68252380Y-43747619D01*
X68204761Y-43604761D01*
X68109523Y-43509523D01*
X68014285Y-43461904D01*
X67823809Y-43414285D01*
X67680952Y-43414285D01*
X67490476Y-43461904D01*
X67395238Y-43509523D01*
X67300000Y-43604761D01*
X67252380Y-43747619D01*
X67252380Y-43842857D01*
X67300000Y-43985714D01*
X67347619Y-44033333D01*
X67252380Y-44366666D02*
X67252380Y-45033333D01*
X68252380Y-44604761D01*
X68157142Y-54133333D02*
X68204761Y-54085714D01*
X68252380Y-53942857D01*
X68252380Y-53847619D01*
X68204761Y-53704761D01*
X68109523Y-53609523D01*
X68014285Y-53561904D01*
X67823809Y-53514285D01*
X67680952Y-53514285D01*
X67490476Y-53561904D01*
X67395238Y-53609523D01*
X67300000Y-53704761D01*
X67252380Y-53847619D01*
X67252380Y-53942857D01*
X67300000Y-54085714D01*
X67347619Y-54133333D01*
X67680952Y-54704761D02*
X67633333Y-54609523D01*
X67585714Y-54561904D01*
X67490476Y-54514285D01*
X67442857Y-54514285D01*
X67347619Y-54561904D01*
X67300000Y-54609523D01*
X67252380Y-54704761D01*
X67252380Y-54895238D01*
X67300000Y-54990476D01*
X67347619Y-55038095D01*
X67442857Y-55085714D01*
X67490476Y-55085714D01*
X67585714Y-55038095D01*
X67633333Y-54990476D01*
X67680952Y-54895238D01*
X67680952Y-54704761D01*
X67728571Y-54609523D01*
X67776190Y-54561904D01*
X67871428Y-54514285D01*
X68061904Y-54514285D01*
X68157142Y-54561904D01*
X68204761Y-54609523D01*
X68252380Y-54704761D01*
X68252380Y-54895238D01*
X68204761Y-54990476D01*
X68157142Y-55038095D01*
X68061904Y-55085714D01*
X67871428Y-55085714D01*
X67776190Y-55038095D01*
X67728571Y-54990476D01*
X67680952Y-54895238D01*
X68157142Y-64033333D02*
X68204761Y-63985714D01*
X68252380Y-63842857D01*
X68252380Y-63747619D01*
X68204761Y-63604761D01*
X68109523Y-63509523D01*
X68014285Y-63461904D01*
X67823809Y-63414285D01*
X67680952Y-63414285D01*
X67490476Y-63461904D01*
X67395238Y-63509523D01*
X67300000Y-63604761D01*
X67252380Y-63747619D01*
X67252380Y-63842857D01*
X67300000Y-63985714D01*
X67347619Y-64033333D01*
X68252380Y-64509523D02*
X68252380Y-64700000D01*
X68204761Y-64795238D01*
X68157142Y-64842857D01*
X68014285Y-64938095D01*
X67823809Y-64985714D01*
X67442857Y-64985714D01*
X67347619Y-64938095D01*
X67300000Y-64890476D01*
X67252380Y-64795238D01*
X67252380Y-64604761D01*
X67300000Y-64509523D01*
X67347619Y-64461904D01*
X67442857Y-64414285D01*
X67680952Y-64414285D01*
X67776190Y-64461904D01*
X67823809Y-64509523D01*
X67871428Y-64604761D01*
X67871428Y-64795238D01*
X67823809Y-64890476D01*
X67776190Y-64938095D01*
X67680952Y-64985714D01*
X68257142Y-73557142D02*
X68304761Y-73509523D01*
X68352380Y-73366666D01*
X68352380Y-73271428D01*
X68304761Y-73128571D01*
X68209523Y-73033333D01*
X68114285Y-72985714D01*
X67923809Y-72938095D01*
X67780952Y-72938095D01*
X67590476Y-72985714D01*
X67495238Y-73033333D01*
X67400000Y-73128571D01*
X67352380Y-73271428D01*
X67352380Y-73366666D01*
X67400000Y-73509523D01*
X67447619Y-73557142D01*
X68352380Y-74509523D02*
X68352380Y-73938095D01*
X68352380Y-74223809D02*
X67352380Y-74223809D01*
X67495238Y-74128571D01*
X67590476Y-74033333D01*
X67638095Y-73938095D01*
X67352380Y-75128571D02*
X67352380Y-75223809D01*
X67400000Y-75319047D01*
X67447619Y-75366666D01*
X67542857Y-75414285D01*
X67733333Y-75461904D01*
X67971428Y-75461904D01*
X68161904Y-75414285D01*
X68257142Y-75366666D01*
X68304761Y-75319047D01*
X68352380Y-75223809D01*
X68352380Y-75128571D01*
X68304761Y-75033333D01*
X68257142Y-74985714D01*
X68161904Y-74938095D01*
X67971428Y-74890476D01*
X67733333Y-74890476D01*
X67542857Y-74938095D01*
X67447619Y-74985714D01*
X67400000Y-75033333D01*
X67352380Y-75128571D01*
X68057142Y-83557142D02*
X68104761Y-83509523D01*
X68152380Y-83366666D01*
X68152380Y-83271428D01*
X68104761Y-83128571D01*
X68009523Y-83033333D01*
X67914285Y-82985714D01*
X67723809Y-82938095D01*
X67580952Y-82938095D01*
X67390476Y-82985714D01*
X67295238Y-83033333D01*
X67200000Y-83128571D01*
X67152380Y-83271428D01*
X67152380Y-83366666D01*
X67200000Y-83509523D01*
X67247619Y-83557142D01*
X68152380Y-84509523D02*
X68152380Y-83938095D01*
X68152380Y-84223809D02*
X67152380Y-84223809D01*
X67295238Y-84128571D01*
X67390476Y-84033333D01*
X67438095Y-83938095D01*
X68152380Y-85461904D02*
X68152380Y-84890476D01*
X68152380Y-85176190D02*
X67152380Y-85176190D01*
X67295238Y-85080952D01*
X67390476Y-84985714D01*
X67438095Y-84890476D01*
X62142857Y-31637142D02*
X62190476Y-31684761D01*
X62333333Y-31732380D01*
X62428571Y-31732380D01*
X62571428Y-31684761D01*
X62666666Y-31589523D01*
X62714285Y-31494285D01*
X62761904Y-31303809D01*
X62761904Y-31160952D01*
X62714285Y-30970476D01*
X62666666Y-30875238D01*
X62571428Y-30780000D01*
X62428571Y-30732380D01*
X62333333Y-30732380D01*
X62190476Y-30780000D01*
X62142857Y-30827619D01*
X61190476Y-31732380D02*
X61761904Y-31732380D01*
X61476190Y-31732380D02*
X61476190Y-30732380D01*
X61571428Y-30875238D01*
X61666666Y-30970476D01*
X61761904Y-31018095D01*
X60809523Y-30827619D02*
X60761904Y-30780000D01*
X60666666Y-30732380D01*
X60428571Y-30732380D01*
X60333333Y-30780000D01*
X60285714Y-30827619D01*
X60238095Y-30922857D01*
X60238095Y-31018095D01*
X60285714Y-31160952D01*
X60857142Y-31732380D01*
X60238095Y-31732380D01*
X62142857Y-41637142D02*
X62190476Y-41684761D01*
X62333333Y-41732380D01*
X62428571Y-41732380D01*
X62571428Y-41684761D01*
X62666666Y-41589523D01*
X62714285Y-41494285D01*
X62761904Y-41303809D01*
X62761904Y-41160952D01*
X62714285Y-40970476D01*
X62666666Y-40875238D01*
X62571428Y-40780000D01*
X62428571Y-40732380D01*
X62333333Y-40732380D01*
X62190476Y-40780000D01*
X62142857Y-40827619D01*
X61190476Y-41732380D02*
X61761904Y-41732380D01*
X61476190Y-41732380D02*
X61476190Y-40732380D01*
X61571428Y-40875238D01*
X61666666Y-40970476D01*
X61761904Y-41018095D01*
X60857142Y-40732380D02*
X60238095Y-40732380D01*
X60571428Y-41113333D01*
X60428571Y-41113333D01*
X60333333Y-41160952D01*
X60285714Y-41208571D01*
X60238095Y-41303809D01*
X60238095Y-41541904D01*
X60285714Y-41637142D01*
X60333333Y-41684761D01*
X60428571Y-41732380D01*
X60714285Y-41732380D01*
X60809523Y-41684761D01*
X60857142Y-41637142D01*
X62042857Y-51637142D02*
X62090476Y-51684761D01*
X62233333Y-51732380D01*
X62328571Y-51732380D01*
X62471428Y-51684761D01*
X62566666Y-51589523D01*
X62614285Y-51494285D01*
X62661904Y-51303809D01*
X62661904Y-51160952D01*
X62614285Y-50970476D01*
X62566666Y-50875238D01*
X62471428Y-50780000D01*
X62328571Y-50732380D01*
X62233333Y-50732380D01*
X62090476Y-50780000D01*
X62042857Y-50827619D01*
X61090476Y-51732380D02*
X61661904Y-51732380D01*
X61376190Y-51732380D02*
X61376190Y-50732380D01*
X61471428Y-50875238D01*
X61566666Y-50970476D01*
X61661904Y-51018095D01*
X60233333Y-51065714D02*
X60233333Y-51732380D01*
X60471428Y-50684761D02*
X60709523Y-51399047D01*
X60090476Y-51399047D01*
X62042857Y-61637142D02*
X62090476Y-61684761D01*
X62233333Y-61732380D01*
X62328571Y-61732380D01*
X62471428Y-61684761D01*
X62566666Y-61589523D01*
X62614285Y-61494285D01*
X62661904Y-61303809D01*
X62661904Y-61160952D01*
X62614285Y-60970476D01*
X62566666Y-60875238D01*
X62471428Y-60780000D01*
X62328571Y-60732380D01*
X62233333Y-60732380D01*
X62090476Y-60780000D01*
X62042857Y-60827619D01*
X61090476Y-61732380D02*
X61661904Y-61732380D01*
X61376190Y-61732380D02*
X61376190Y-60732380D01*
X61471428Y-60875238D01*
X61566666Y-60970476D01*
X61661904Y-61018095D01*
X60185714Y-60732380D02*
X60661904Y-60732380D01*
X60709523Y-61208571D01*
X60661904Y-61160952D01*
X60566666Y-61113333D01*
X60328571Y-61113333D01*
X60233333Y-61160952D01*
X60185714Y-61208571D01*
X60138095Y-61303809D01*
X60138095Y-61541904D01*
X60185714Y-61637142D01*
X60233333Y-61684761D01*
X60328571Y-61732380D01*
X60566666Y-61732380D01*
X60661904Y-61684761D01*
X60709523Y-61637142D01*
X62042857Y-71637142D02*
X62090476Y-71684761D01*
X62233333Y-71732380D01*
X62328571Y-71732380D01*
X62471428Y-71684761D01*
X62566666Y-71589523D01*
X62614285Y-71494285D01*
X62661904Y-71303809D01*
X62661904Y-71160952D01*
X62614285Y-70970476D01*
X62566666Y-70875238D01*
X62471428Y-70780000D01*
X62328571Y-70732380D01*
X62233333Y-70732380D01*
X62090476Y-70780000D01*
X62042857Y-70827619D01*
X61090476Y-71732380D02*
X61661904Y-71732380D01*
X61376190Y-71732380D02*
X61376190Y-70732380D01*
X61471428Y-70875238D01*
X61566666Y-70970476D01*
X61661904Y-71018095D01*
X60233333Y-70732380D02*
X60423809Y-70732380D01*
X60519047Y-70780000D01*
X60566666Y-70827619D01*
X60661904Y-70970476D01*
X60709523Y-71160952D01*
X60709523Y-71541904D01*
X60661904Y-71637142D01*
X60614285Y-71684761D01*
X60519047Y-71732380D01*
X60328571Y-71732380D01*
X60233333Y-71684761D01*
X60185714Y-71637142D01*
X60138095Y-71541904D01*
X60138095Y-71303809D01*
X60185714Y-71208571D01*
X60233333Y-71160952D01*
X60328571Y-71113333D01*
X60519047Y-71113333D01*
X60614285Y-71160952D01*
X60661904Y-71208571D01*
X60709523Y-71303809D01*
X62142857Y-81637142D02*
X62190476Y-81684761D01*
X62333333Y-81732380D01*
X62428571Y-81732380D01*
X62571428Y-81684761D01*
X62666666Y-81589523D01*
X62714285Y-81494285D01*
X62761904Y-81303809D01*
X62761904Y-81160952D01*
X62714285Y-80970476D01*
X62666666Y-80875238D01*
X62571428Y-80780000D01*
X62428571Y-80732380D01*
X62333333Y-80732380D01*
X62190476Y-80780000D01*
X62142857Y-80827619D01*
X61190476Y-81732380D02*
X61761904Y-81732380D01*
X61476190Y-81732380D02*
X61476190Y-80732380D01*
X61571428Y-80875238D01*
X61666666Y-80970476D01*
X61761904Y-81018095D01*
X60857142Y-80732380D02*
X60190476Y-80732380D01*
X60619047Y-81732380D01*
X70457142Y-25657142D02*
X70504761Y-25609523D01*
X70552380Y-25466666D01*
X70552380Y-25371428D01*
X70504761Y-25228571D01*
X70409523Y-25133333D01*
X70314285Y-25085714D01*
X70123809Y-25038095D01*
X69980952Y-25038095D01*
X69790476Y-25085714D01*
X69695238Y-25133333D01*
X69600000Y-25228571D01*
X69552380Y-25371428D01*
X69552380Y-25466666D01*
X69600000Y-25609523D01*
X69647619Y-25657142D01*
X70552380Y-26609523D02*
X70552380Y-26038095D01*
X70552380Y-26323809D02*
X69552380Y-26323809D01*
X69695238Y-26228571D01*
X69790476Y-26133333D01*
X69838095Y-26038095D01*
X69980952Y-27180952D02*
X69933333Y-27085714D01*
X69885714Y-27038095D01*
X69790476Y-26990476D01*
X69742857Y-26990476D01*
X69647619Y-27038095D01*
X69600000Y-27085714D01*
X69552380Y-27180952D01*
X69552380Y-27371428D01*
X69600000Y-27466666D01*
X69647619Y-27514285D01*
X69742857Y-27561904D01*
X69790476Y-27561904D01*
X69885714Y-27514285D01*
X69933333Y-27466666D01*
X69980952Y-27371428D01*
X69980952Y-27180952D01*
X70028571Y-27085714D01*
X70076190Y-27038095D01*
X70171428Y-26990476D01*
X70361904Y-26990476D01*
X70457142Y-27038095D01*
X70504761Y-27085714D01*
X70552380Y-27180952D01*
X70552380Y-27371428D01*
X70504761Y-27466666D01*
X70457142Y-27514285D01*
X70361904Y-27561904D01*
X70171428Y-27561904D01*
X70076190Y-27514285D01*
X70028571Y-27466666D01*
X69980952Y-27371428D01*
X56957142Y-33557142D02*
X57004761Y-33509523D01*
X57052380Y-33366666D01*
X57052380Y-33271428D01*
X57004761Y-33128571D01*
X56909523Y-33033333D01*
X56814285Y-32985714D01*
X56623809Y-32938095D01*
X56480952Y-32938095D01*
X56290476Y-32985714D01*
X56195238Y-33033333D01*
X56100000Y-33128571D01*
X56052380Y-33271428D01*
X56052380Y-33366666D01*
X56100000Y-33509523D01*
X56147619Y-33557142D01*
X57052380Y-34509523D02*
X57052380Y-33938095D01*
X57052380Y-34223809D02*
X56052380Y-34223809D01*
X56195238Y-34128571D01*
X56290476Y-34033333D01*
X56338095Y-33938095D01*
X57052380Y-34985714D02*
X57052380Y-35176190D01*
X57004761Y-35271428D01*
X56957142Y-35319047D01*
X56814285Y-35414285D01*
X56623809Y-35461904D01*
X56242857Y-35461904D01*
X56147619Y-35414285D01*
X56100000Y-35366666D01*
X56052380Y-35271428D01*
X56052380Y-35080952D01*
X56100000Y-34985714D01*
X56147619Y-34938095D01*
X56242857Y-34890476D01*
X56480952Y-34890476D01*
X56576190Y-34938095D01*
X56623809Y-34985714D01*
X56671428Y-35080952D01*
X56671428Y-35271428D01*
X56623809Y-35366666D01*
X56576190Y-35414285D01*
X56480952Y-35461904D01*
X56877142Y-43557142D02*
X56924761Y-43509523D01*
X56972380Y-43366666D01*
X56972380Y-43271428D01*
X56924761Y-43128571D01*
X56829523Y-43033333D01*
X56734285Y-42985714D01*
X56543809Y-42938095D01*
X56400952Y-42938095D01*
X56210476Y-42985714D01*
X56115238Y-43033333D01*
X56020000Y-43128571D01*
X55972380Y-43271428D01*
X55972380Y-43366666D01*
X56020000Y-43509523D01*
X56067619Y-43557142D01*
X56067619Y-43938095D02*
X56020000Y-43985714D01*
X55972380Y-44080952D01*
X55972380Y-44319047D01*
X56020000Y-44414285D01*
X56067619Y-44461904D01*
X56162857Y-44509523D01*
X56258095Y-44509523D01*
X56400952Y-44461904D01*
X56972380Y-43890476D01*
X56972380Y-44509523D01*
X55972380Y-45128571D02*
X55972380Y-45223809D01*
X56020000Y-45319047D01*
X56067619Y-45366666D01*
X56162857Y-45414285D01*
X56353333Y-45461904D01*
X56591428Y-45461904D01*
X56781904Y-45414285D01*
X56877142Y-45366666D01*
X56924761Y-45319047D01*
X56972380Y-45223809D01*
X56972380Y-45128571D01*
X56924761Y-45033333D01*
X56877142Y-44985714D01*
X56781904Y-44938095D01*
X56591428Y-44890476D01*
X56353333Y-44890476D01*
X56162857Y-44938095D01*
X56067619Y-44985714D01*
X56020000Y-45033333D01*
X55972380Y-45128571D01*
X56977142Y-53557142D02*
X57024761Y-53509523D01*
X57072380Y-53366666D01*
X57072380Y-53271428D01*
X57024761Y-53128571D01*
X56929523Y-53033333D01*
X56834285Y-52985714D01*
X56643809Y-52938095D01*
X56500952Y-52938095D01*
X56310476Y-52985714D01*
X56215238Y-53033333D01*
X56120000Y-53128571D01*
X56072380Y-53271428D01*
X56072380Y-53366666D01*
X56120000Y-53509523D01*
X56167619Y-53557142D01*
X56167619Y-53938095D02*
X56120000Y-53985714D01*
X56072380Y-54080952D01*
X56072380Y-54319047D01*
X56120000Y-54414285D01*
X56167619Y-54461904D01*
X56262857Y-54509523D01*
X56358095Y-54509523D01*
X56500952Y-54461904D01*
X57072380Y-53890476D01*
X57072380Y-54509523D01*
X57072380Y-55461904D02*
X57072380Y-54890476D01*
X57072380Y-55176190D02*
X56072380Y-55176190D01*
X56215238Y-55080952D01*
X56310476Y-54985714D01*
X56358095Y-54890476D01*
X56977142Y-63557142D02*
X57024761Y-63509523D01*
X57072380Y-63366666D01*
X57072380Y-63271428D01*
X57024761Y-63128571D01*
X56929523Y-63033333D01*
X56834285Y-62985714D01*
X56643809Y-62938095D01*
X56500952Y-62938095D01*
X56310476Y-62985714D01*
X56215238Y-63033333D01*
X56120000Y-63128571D01*
X56072380Y-63271428D01*
X56072380Y-63366666D01*
X56120000Y-63509523D01*
X56167619Y-63557142D01*
X56167619Y-63938095D02*
X56120000Y-63985714D01*
X56072380Y-64080952D01*
X56072380Y-64319047D01*
X56120000Y-64414285D01*
X56167619Y-64461904D01*
X56262857Y-64509523D01*
X56358095Y-64509523D01*
X56500952Y-64461904D01*
X57072380Y-63890476D01*
X57072380Y-64509523D01*
X56167619Y-64890476D02*
X56120000Y-64938095D01*
X56072380Y-65033333D01*
X56072380Y-65271428D01*
X56120000Y-65366666D01*
X56167619Y-65414285D01*
X56262857Y-65461904D01*
X56358095Y-65461904D01*
X56500952Y-65414285D01*
X57072380Y-64842857D01*
X57072380Y-65461904D01*
X56977142Y-73457142D02*
X57024761Y-73409523D01*
X57072380Y-73266666D01*
X57072380Y-73171428D01*
X57024761Y-73028571D01*
X56929523Y-72933333D01*
X56834285Y-72885714D01*
X56643809Y-72838095D01*
X56500952Y-72838095D01*
X56310476Y-72885714D01*
X56215238Y-72933333D01*
X56120000Y-73028571D01*
X56072380Y-73171428D01*
X56072380Y-73266666D01*
X56120000Y-73409523D01*
X56167619Y-73457142D01*
X56167619Y-73838095D02*
X56120000Y-73885714D01*
X56072380Y-73980952D01*
X56072380Y-74219047D01*
X56120000Y-74314285D01*
X56167619Y-74361904D01*
X56262857Y-74409523D01*
X56358095Y-74409523D01*
X56500952Y-74361904D01*
X57072380Y-73790476D01*
X57072380Y-74409523D01*
X56072380Y-74742857D02*
X56072380Y-75361904D01*
X56453333Y-75028571D01*
X56453333Y-75171428D01*
X56500952Y-75266666D01*
X56548571Y-75314285D01*
X56643809Y-75361904D01*
X56881904Y-75361904D01*
X56977142Y-75314285D01*
X57024761Y-75266666D01*
X57072380Y-75171428D01*
X57072380Y-74885714D01*
X57024761Y-74790476D01*
X56977142Y-74742857D01*
X56977142Y-83557142D02*
X57024761Y-83509523D01*
X57072380Y-83366666D01*
X57072380Y-83271428D01*
X57024761Y-83128571D01*
X56929523Y-83033333D01*
X56834285Y-82985714D01*
X56643809Y-82938095D01*
X56500952Y-82938095D01*
X56310476Y-82985714D01*
X56215238Y-83033333D01*
X56120000Y-83128571D01*
X56072380Y-83271428D01*
X56072380Y-83366666D01*
X56120000Y-83509523D01*
X56167619Y-83557142D01*
X56167619Y-83938095D02*
X56120000Y-83985714D01*
X56072380Y-84080952D01*
X56072380Y-84319047D01*
X56120000Y-84414285D01*
X56167619Y-84461904D01*
X56262857Y-84509523D01*
X56358095Y-84509523D01*
X56500952Y-84461904D01*
X57072380Y-83890476D01*
X57072380Y-84509523D01*
X56405714Y-85366666D02*
X57072380Y-85366666D01*
X56024761Y-85128571D02*
X56739047Y-84890476D01*
X56739047Y-85509523D01*
X47242857Y-31637142D02*
X47290476Y-31684761D01*
X47433333Y-31732380D01*
X47528571Y-31732380D01*
X47671428Y-31684761D01*
X47766666Y-31589523D01*
X47814285Y-31494285D01*
X47861904Y-31303809D01*
X47861904Y-31160952D01*
X47814285Y-30970476D01*
X47766666Y-30875238D01*
X47671428Y-30780000D01*
X47528571Y-30732380D01*
X47433333Y-30732380D01*
X47290476Y-30780000D01*
X47242857Y-30827619D01*
X46861904Y-30827619D02*
X46814285Y-30780000D01*
X46719047Y-30732380D01*
X46480952Y-30732380D01*
X46385714Y-30780000D01*
X46338095Y-30827619D01*
X46290476Y-30922857D01*
X46290476Y-31018095D01*
X46338095Y-31160952D01*
X46909523Y-31732380D01*
X46290476Y-31732380D01*
X45385714Y-30732380D02*
X45861904Y-30732380D01*
X45909523Y-31208571D01*
X45861904Y-31160952D01*
X45766666Y-31113333D01*
X45528571Y-31113333D01*
X45433333Y-31160952D01*
X45385714Y-31208571D01*
X45338095Y-31303809D01*
X45338095Y-31541904D01*
X45385714Y-31637142D01*
X45433333Y-31684761D01*
X45528571Y-31732380D01*
X45766666Y-31732380D01*
X45861904Y-31684761D01*
X45909523Y-31637142D01*
X47242857Y-41637142D02*
X47290476Y-41684761D01*
X47433333Y-41732380D01*
X47528571Y-41732380D01*
X47671428Y-41684761D01*
X47766666Y-41589523D01*
X47814285Y-41494285D01*
X47861904Y-41303809D01*
X47861904Y-41160952D01*
X47814285Y-40970476D01*
X47766666Y-40875238D01*
X47671428Y-40780000D01*
X47528571Y-40732380D01*
X47433333Y-40732380D01*
X47290476Y-40780000D01*
X47242857Y-40827619D01*
X46861904Y-40827619D02*
X46814285Y-40780000D01*
X46719047Y-40732380D01*
X46480952Y-40732380D01*
X46385714Y-40780000D01*
X46338095Y-40827619D01*
X46290476Y-40922857D01*
X46290476Y-41018095D01*
X46338095Y-41160952D01*
X46909523Y-41732380D01*
X46290476Y-41732380D01*
X45433333Y-40732380D02*
X45623809Y-40732380D01*
X45719047Y-40780000D01*
X45766666Y-40827619D01*
X45861904Y-40970476D01*
X45909523Y-41160952D01*
X45909523Y-41541904D01*
X45861904Y-41637142D01*
X45814285Y-41684761D01*
X45719047Y-41732380D01*
X45528571Y-41732380D01*
X45433333Y-41684761D01*
X45385714Y-41637142D01*
X45338095Y-41541904D01*
X45338095Y-41303809D01*
X45385714Y-41208571D01*
X45433333Y-41160952D01*
X45528571Y-41113333D01*
X45719047Y-41113333D01*
X45814285Y-41160952D01*
X45861904Y-41208571D01*
X45909523Y-41303809D01*
X47142857Y-51637142D02*
X47190476Y-51684761D01*
X47333333Y-51732380D01*
X47428571Y-51732380D01*
X47571428Y-51684761D01*
X47666666Y-51589523D01*
X47714285Y-51494285D01*
X47761904Y-51303809D01*
X47761904Y-51160952D01*
X47714285Y-50970476D01*
X47666666Y-50875238D01*
X47571428Y-50780000D01*
X47428571Y-50732380D01*
X47333333Y-50732380D01*
X47190476Y-50780000D01*
X47142857Y-50827619D01*
X46761904Y-50827619D02*
X46714285Y-50780000D01*
X46619047Y-50732380D01*
X46380952Y-50732380D01*
X46285714Y-50780000D01*
X46238095Y-50827619D01*
X46190476Y-50922857D01*
X46190476Y-51018095D01*
X46238095Y-51160952D01*
X46809523Y-51732380D01*
X46190476Y-51732380D01*
X45857142Y-50732380D02*
X45190476Y-50732380D01*
X45619047Y-51732380D01*
X47242857Y-61637142D02*
X47290476Y-61684761D01*
X47433333Y-61732380D01*
X47528571Y-61732380D01*
X47671428Y-61684761D01*
X47766666Y-61589523D01*
X47814285Y-61494285D01*
X47861904Y-61303809D01*
X47861904Y-61160952D01*
X47814285Y-60970476D01*
X47766666Y-60875238D01*
X47671428Y-60780000D01*
X47528571Y-60732380D01*
X47433333Y-60732380D01*
X47290476Y-60780000D01*
X47242857Y-60827619D01*
X46861904Y-60827619D02*
X46814285Y-60780000D01*
X46719047Y-60732380D01*
X46480952Y-60732380D01*
X46385714Y-60780000D01*
X46338095Y-60827619D01*
X46290476Y-60922857D01*
X46290476Y-61018095D01*
X46338095Y-61160952D01*
X46909523Y-61732380D01*
X46290476Y-61732380D01*
X45719047Y-61160952D02*
X45814285Y-61113333D01*
X45861904Y-61065714D01*
X45909523Y-60970476D01*
X45909523Y-60922857D01*
X45861904Y-60827619D01*
X45814285Y-60780000D01*
X45719047Y-60732380D01*
X45528571Y-60732380D01*
X45433333Y-60780000D01*
X45385714Y-60827619D01*
X45338095Y-60922857D01*
X45338095Y-60970476D01*
X45385714Y-61065714D01*
X45433333Y-61113333D01*
X45528571Y-61160952D01*
X45719047Y-61160952D01*
X45814285Y-61208571D01*
X45861904Y-61256190D01*
X45909523Y-61351428D01*
X45909523Y-61541904D01*
X45861904Y-61637142D01*
X45814285Y-61684761D01*
X45719047Y-61732380D01*
X45528571Y-61732380D01*
X45433333Y-61684761D01*
X45385714Y-61637142D01*
X45338095Y-61541904D01*
X45338095Y-61351428D01*
X45385714Y-61256190D01*
X45433333Y-61208571D01*
X45528571Y-61160952D01*
X47142857Y-71637142D02*
X47190476Y-71684761D01*
X47333333Y-71732380D01*
X47428571Y-71732380D01*
X47571428Y-71684761D01*
X47666666Y-71589523D01*
X47714285Y-71494285D01*
X47761904Y-71303809D01*
X47761904Y-71160952D01*
X47714285Y-70970476D01*
X47666666Y-70875238D01*
X47571428Y-70780000D01*
X47428571Y-70732380D01*
X47333333Y-70732380D01*
X47190476Y-70780000D01*
X47142857Y-70827619D01*
X46761904Y-70827619D02*
X46714285Y-70780000D01*
X46619047Y-70732380D01*
X46380952Y-70732380D01*
X46285714Y-70780000D01*
X46238095Y-70827619D01*
X46190476Y-70922857D01*
X46190476Y-71018095D01*
X46238095Y-71160952D01*
X46809523Y-71732380D01*
X46190476Y-71732380D01*
X45714285Y-71732380D02*
X45523809Y-71732380D01*
X45428571Y-71684761D01*
X45380952Y-71637142D01*
X45285714Y-71494285D01*
X45238095Y-71303809D01*
X45238095Y-70922857D01*
X45285714Y-70827619D01*
X45333333Y-70780000D01*
X45428571Y-70732380D01*
X45619047Y-70732380D01*
X45714285Y-70780000D01*
X45761904Y-70827619D01*
X45809523Y-70922857D01*
X45809523Y-71160952D01*
X45761904Y-71256190D01*
X45714285Y-71303809D01*
X45619047Y-71351428D01*
X45428571Y-71351428D01*
X45333333Y-71303809D01*
X45285714Y-71256190D01*
X45238095Y-71160952D01*
X47142857Y-81637142D02*
X47190476Y-81684761D01*
X47333333Y-81732380D01*
X47428571Y-81732380D01*
X47571428Y-81684761D01*
X47666666Y-81589523D01*
X47714285Y-81494285D01*
X47761904Y-81303809D01*
X47761904Y-81160952D01*
X47714285Y-80970476D01*
X47666666Y-80875238D01*
X47571428Y-80780000D01*
X47428571Y-80732380D01*
X47333333Y-80732380D01*
X47190476Y-80780000D01*
X47142857Y-80827619D01*
X46809523Y-80732380D02*
X46190476Y-80732380D01*
X46523809Y-81113333D01*
X46380952Y-81113333D01*
X46285714Y-81160952D01*
X46238095Y-81208571D01*
X46190476Y-81303809D01*
X46190476Y-81541904D01*
X46238095Y-81637142D01*
X46285714Y-81684761D01*
X46380952Y-81732380D01*
X46666666Y-81732380D01*
X46761904Y-81684761D01*
X46809523Y-81637142D01*
X45571428Y-80732380D02*
X45476190Y-80732380D01*
X45380952Y-80780000D01*
X45333333Y-80827619D01*
X45285714Y-80922857D01*
X45238095Y-81113333D01*
X45238095Y-81351428D01*
X45285714Y-81541904D01*
X45333333Y-81637142D01*
X45380952Y-81684761D01*
X45476190Y-81732380D01*
X45571428Y-81732380D01*
X45666666Y-81684761D01*
X45714285Y-81637142D01*
X45761904Y-81541904D01*
X45809523Y-81351428D01*
X45809523Y-81113333D01*
X45761904Y-80922857D01*
X45714285Y-80827619D01*
X45666666Y-80780000D01*
X45571428Y-80732380D01*
X42057142Y-33557142D02*
X42104761Y-33509523D01*
X42152380Y-33366666D01*
X42152380Y-33271428D01*
X42104761Y-33128571D01*
X42009523Y-33033333D01*
X41914285Y-32985714D01*
X41723809Y-32938095D01*
X41580952Y-32938095D01*
X41390476Y-32985714D01*
X41295238Y-33033333D01*
X41200000Y-33128571D01*
X41152380Y-33271428D01*
X41152380Y-33366666D01*
X41200000Y-33509523D01*
X41247619Y-33557142D01*
X41152380Y-33890476D02*
X41152380Y-34509523D01*
X41533333Y-34176190D01*
X41533333Y-34319047D01*
X41580952Y-34414285D01*
X41628571Y-34461904D01*
X41723809Y-34509523D01*
X41961904Y-34509523D01*
X42057142Y-34461904D01*
X42104761Y-34414285D01*
X42152380Y-34319047D01*
X42152380Y-34033333D01*
X42104761Y-33938095D01*
X42057142Y-33890476D01*
X42152380Y-35461904D02*
X42152380Y-34890476D01*
X42152380Y-35176190D02*
X41152380Y-35176190D01*
X41295238Y-35080952D01*
X41390476Y-34985714D01*
X41438095Y-34890476D01*
X41977142Y-43557142D02*
X42024761Y-43509523D01*
X42072380Y-43366666D01*
X42072380Y-43271428D01*
X42024761Y-43128571D01*
X41929523Y-43033333D01*
X41834285Y-42985714D01*
X41643809Y-42938095D01*
X41500952Y-42938095D01*
X41310476Y-42985714D01*
X41215238Y-43033333D01*
X41120000Y-43128571D01*
X41072380Y-43271428D01*
X41072380Y-43366666D01*
X41120000Y-43509523D01*
X41167619Y-43557142D01*
X41072380Y-43890476D02*
X41072380Y-44509523D01*
X41453333Y-44176190D01*
X41453333Y-44319047D01*
X41500952Y-44414285D01*
X41548571Y-44461904D01*
X41643809Y-44509523D01*
X41881904Y-44509523D01*
X41977142Y-44461904D01*
X42024761Y-44414285D01*
X42072380Y-44319047D01*
X42072380Y-44033333D01*
X42024761Y-43938095D01*
X41977142Y-43890476D01*
X41167619Y-44890476D02*
X41120000Y-44938095D01*
X41072380Y-45033333D01*
X41072380Y-45271428D01*
X41120000Y-45366666D01*
X41167619Y-45414285D01*
X41262857Y-45461904D01*
X41358095Y-45461904D01*
X41500952Y-45414285D01*
X42072380Y-44842857D01*
X42072380Y-45461904D01*
X41977142Y-53557142D02*
X42024761Y-53509523D01*
X42072380Y-53366666D01*
X42072380Y-53271428D01*
X42024761Y-53128571D01*
X41929523Y-53033333D01*
X41834285Y-52985714D01*
X41643809Y-52938095D01*
X41500952Y-52938095D01*
X41310476Y-52985714D01*
X41215238Y-53033333D01*
X41120000Y-53128571D01*
X41072380Y-53271428D01*
X41072380Y-53366666D01*
X41120000Y-53509523D01*
X41167619Y-53557142D01*
X41072380Y-53890476D02*
X41072380Y-54509523D01*
X41453333Y-54176190D01*
X41453333Y-54319047D01*
X41500952Y-54414285D01*
X41548571Y-54461904D01*
X41643809Y-54509523D01*
X41881904Y-54509523D01*
X41977142Y-54461904D01*
X42024761Y-54414285D01*
X42072380Y-54319047D01*
X42072380Y-54033333D01*
X42024761Y-53938095D01*
X41977142Y-53890476D01*
X41072380Y-54842857D02*
X41072380Y-55461904D01*
X41453333Y-55128571D01*
X41453333Y-55271428D01*
X41500952Y-55366666D01*
X41548571Y-55414285D01*
X41643809Y-55461904D01*
X41881904Y-55461904D01*
X41977142Y-55414285D01*
X42024761Y-55366666D01*
X42072380Y-55271428D01*
X42072380Y-54985714D01*
X42024761Y-54890476D01*
X41977142Y-54842857D01*
X41977142Y-63557142D02*
X42024761Y-63509523D01*
X42072380Y-63366666D01*
X42072380Y-63271428D01*
X42024761Y-63128571D01*
X41929523Y-63033333D01*
X41834285Y-62985714D01*
X41643809Y-62938095D01*
X41500952Y-62938095D01*
X41310476Y-62985714D01*
X41215238Y-63033333D01*
X41120000Y-63128571D01*
X41072380Y-63271428D01*
X41072380Y-63366666D01*
X41120000Y-63509523D01*
X41167619Y-63557142D01*
X41072380Y-63890476D02*
X41072380Y-64509523D01*
X41453333Y-64176190D01*
X41453333Y-64319047D01*
X41500952Y-64414285D01*
X41548571Y-64461904D01*
X41643809Y-64509523D01*
X41881904Y-64509523D01*
X41977142Y-64461904D01*
X42024761Y-64414285D01*
X42072380Y-64319047D01*
X42072380Y-64033333D01*
X42024761Y-63938095D01*
X41977142Y-63890476D01*
X41405714Y-65366666D02*
X42072380Y-65366666D01*
X41024761Y-65128571D02*
X41739047Y-64890476D01*
X41739047Y-65509523D01*
X41977142Y-73557142D02*
X42024761Y-73509523D01*
X42072380Y-73366666D01*
X42072380Y-73271428D01*
X42024761Y-73128571D01*
X41929523Y-73033333D01*
X41834285Y-72985714D01*
X41643809Y-72938095D01*
X41500952Y-72938095D01*
X41310476Y-72985714D01*
X41215238Y-73033333D01*
X41120000Y-73128571D01*
X41072380Y-73271428D01*
X41072380Y-73366666D01*
X41120000Y-73509523D01*
X41167619Y-73557142D01*
X41072380Y-73890476D02*
X41072380Y-74509523D01*
X41453333Y-74176190D01*
X41453333Y-74319047D01*
X41500952Y-74414285D01*
X41548571Y-74461904D01*
X41643809Y-74509523D01*
X41881904Y-74509523D01*
X41977142Y-74461904D01*
X42024761Y-74414285D01*
X42072380Y-74319047D01*
X42072380Y-74033333D01*
X42024761Y-73938095D01*
X41977142Y-73890476D01*
X41072380Y-75414285D02*
X41072380Y-74938095D01*
X41548571Y-74890476D01*
X41500952Y-74938095D01*
X41453333Y-75033333D01*
X41453333Y-75271428D01*
X41500952Y-75366666D01*
X41548571Y-75414285D01*
X41643809Y-75461904D01*
X41881904Y-75461904D01*
X41977142Y-75414285D01*
X42024761Y-75366666D01*
X42072380Y-75271428D01*
X42072380Y-75033333D01*
X42024761Y-74938095D01*
X41977142Y-74890476D01*
X41977142Y-83557142D02*
X42024761Y-83509523D01*
X42072380Y-83366666D01*
X42072380Y-83271428D01*
X42024761Y-83128571D01*
X41929523Y-83033333D01*
X41834285Y-82985714D01*
X41643809Y-82938095D01*
X41500952Y-82938095D01*
X41310476Y-82985714D01*
X41215238Y-83033333D01*
X41120000Y-83128571D01*
X41072380Y-83271428D01*
X41072380Y-83366666D01*
X41120000Y-83509523D01*
X41167619Y-83557142D01*
X41072380Y-83890476D02*
X41072380Y-84509523D01*
X41453333Y-84176190D01*
X41453333Y-84319047D01*
X41500952Y-84414285D01*
X41548571Y-84461904D01*
X41643809Y-84509523D01*
X41881904Y-84509523D01*
X41977142Y-84461904D01*
X42024761Y-84414285D01*
X42072380Y-84319047D01*
X42072380Y-84033333D01*
X42024761Y-83938095D01*
X41977142Y-83890476D01*
X41072380Y-85366666D02*
X41072380Y-85176190D01*
X41120000Y-85080952D01*
X41167619Y-85033333D01*
X41310476Y-84938095D01*
X41500952Y-84890476D01*
X41881904Y-84890476D01*
X41977142Y-84938095D01*
X42024761Y-84985714D01*
X42072380Y-85080952D01*
X42072380Y-85271428D01*
X42024761Y-85366666D01*
X41977142Y-85414285D01*
X41881904Y-85461904D01*
X41643809Y-85461904D01*
X41548571Y-85414285D01*
X41500952Y-85366666D01*
X41453333Y-85271428D01*
X41453333Y-85080952D01*
X41500952Y-84985714D01*
X41548571Y-84938095D01*
X41643809Y-84890476D01*
X70457142Y-8457142D02*
X70504761Y-8409523D01*
X70552380Y-8266666D01*
X70552380Y-8171428D01*
X70504761Y-8028571D01*
X70409523Y-7933333D01*
X70314285Y-7885714D01*
X70123809Y-7838095D01*
X69980952Y-7838095D01*
X69790476Y-7885714D01*
X69695238Y-7933333D01*
X69600000Y-8028571D01*
X69552380Y-8171428D01*
X69552380Y-8266666D01*
X69600000Y-8409523D01*
X69647619Y-8457142D01*
X69552380Y-8790476D02*
X69552380Y-9409523D01*
X69933333Y-9076190D01*
X69933333Y-9219047D01*
X69980952Y-9314285D01*
X70028571Y-9361904D01*
X70123809Y-9409523D01*
X70361904Y-9409523D01*
X70457142Y-9361904D01*
X70504761Y-9314285D01*
X70552380Y-9219047D01*
X70552380Y-8933333D01*
X70504761Y-8838095D01*
X70457142Y-8790476D01*
X69552380Y-9742857D02*
X69552380Y-10409523D01*
X70552380Y-9980952D01*
X28942857Y-37957142D02*
X28990476Y-38004761D01*
X29133333Y-38052380D01*
X29228571Y-38052380D01*
X29371428Y-38004761D01*
X29466666Y-37909523D01*
X29514285Y-37814285D01*
X29561904Y-37623809D01*
X29561904Y-37480952D01*
X29514285Y-37290476D01*
X29466666Y-37195238D01*
X29371428Y-37100000D01*
X29228571Y-37052380D01*
X29133333Y-37052380D01*
X28990476Y-37100000D01*
X28942857Y-37147619D01*
X28609523Y-37052380D02*
X27990476Y-37052380D01*
X28323809Y-37433333D01*
X28180952Y-37433333D01*
X28085714Y-37480952D01*
X28038095Y-37528571D01*
X27990476Y-37623809D01*
X27990476Y-37861904D01*
X28038095Y-37957142D01*
X28085714Y-38004761D01*
X28180952Y-38052380D01*
X28466666Y-38052380D01*
X28561904Y-38004761D01*
X28609523Y-37957142D01*
X27419047Y-37480952D02*
X27514285Y-37433333D01*
X27561904Y-37385714D01*
X27609523Y-37290476D01*
X27609523Y-37242857D01*
X27561904Y-37147619D01*
X27514285Y-37100000D01*
X27419047Y-37052380D01*
X27228571Y-37052380D01*
X27133333Y-37100000D01*
X27085714Y-37147619D01*
X27038095Y-37242857D01*
X27038095Y-37290476D01*
X27085714Y-37385714D01*
X27133333Y-37433333D01*
X27228571Y-37480952D01*
X27419047Y-37480952D01*
X27514285Y-37528571D01*
X27561904Y-37576190D01*
X27609523Y-37671428D01*
X27609523Y-37861904D01*
X27561904Y-37957142D01*
X27514285Y-38004761D01*
X27419047Y-38052380D01*
X27228571Y-38052380D01*
X27133333Y-38004761D01*
X27085714Y-37957142D01*
X27038095Y-37861904D01*
X27038095Y-37671428D01*
X27085714Y-37576190D01*
X27133333Y-37528571D01*
X27228571Y-37480952D01*
X29042857Y-48057142D02*
X29090476Y-48104761D01*
X29233333Y-48152380D01*
X29328571Y-48152380D01*
X29471428Y-48104761D01*
X29566666Y-48009523D01*
X29614285Y-47914285D01*
X29661904Y-47723809D01*
X29661904Y-47580952D01*
X29614285Y-47390476D01*
X29566666Y-47295238D01*
X29471428Y-47200000D01*
X29328571Y-47152380D01*
X29233333Y-47152380D01*
X29090476Y-47200000D01*
X29042857Y-47247619D01*
X28709523Y-47152380D02*
X28090476Y-47152380D01*
X28423809Y-47533333D01*
X28280952Y-47533333D01*
X28185714Y-47580952D01*
X28138095Y-47628571D01*
X28090476Y-47723809D01*
X28090476Y-47961904D01*
X28138095Y-48057142D01*
X28185714Y-48104761D01*
X28280952Y-48152380D01*
X28566666Y-48152380D01*
X28661904Y-48104761D01*
X28709523Y-48057142D01*
X27614285Y-48152380D02*
X27423809Y-48152380D01*
X27328571Y-48104761D01*
X27280952Y-48057142D01*
X27185714Y-47914285D01*
X27138095Y-47723809D01*
X27138095Y-47342857D01*
X27185714Y-47247619D01*
X27233333Y-47200000D01*
X27328571Y-47152380D01*
X27519047Y-47152380D01*
X27614285Y-47200000D01*
X27661904Y-47247619D01*
X27709523Y-47342857D01*
X27709523Y-47580952D01*
X27661904Y-47676190D01*
X27614285Y-47723809D01*
X27519047Y-47771428D01*
X27328571Y-47771428D01*
X27233333Y-47723809D01*
X27185714Y-47676190D01*
X27138095Y-47580952D01*
X28842857Y-58057142D02*
X28890476Y-58104761D01*
X29033333Y-58152380D01*
X29128571Y-58152380D01*
X29271428Y-58104761D01*
X29366666Y-58009523D01*
X29414285Y-57914285D01*
X29461904Y-57723809D01*
X29461904Y-57580952D01*
X29414285Y-57390476D01*
X29366666Y-57295238D01*
X29271428Y-57200000D01*
X29128571Y-57152380D01*
X29033333Y-57152380D01*
X28890476Y-57200000D01*
X28842857Y-57247619D01*
X27985714Y-57485714D02*
X27985714Y-58152380D01*
X28223809Y-57104761D02*
X28461904Y-57819047D01*
X27842857Y-57819047D01*
X27271428Y-57152380D02*
X27176190Y-57152380D01*
X27080952Y-57200000D01*
X27033333Y-57247619D01*
X26985714Y-57342857D01*
X26938095Y-57533333D01*
X26938095Y-57771428D01*
X26985714Y-57961904D01*
X27033333Y-58057142D01*
X27080952Y-58104761D01*
X27176190Y-58152380D01*
X27271428Y-58152380D01*
X27366666Y-58104761D01*
X27414285Y-58057142D01*
X27461904Y-57961904D01*
X27509523Y-57771428D01*
X27509523Y-57533333D01*
X27461904Y-57342857D01*
X27414285Y-57247619D01*
X27366666Y-57200000D01*
X27271428Y-57152380D01*
X28942857Y-67957142D02*
X28990476Y-68004761D01*
X29133333Y-68052380D01*
X29228571Y-68052380D01*
X29371428Y-68004761D01*
X29466666Y-67909523D01*
X29514285Y-67814285D01*
X29561904Y-67623809D01*
X29561904Y-67480952D01*
X29514285Y-67290476D01*
X29466666Y-67195238D01*
X29371428Y-67100000D01*
X29228571Y-67052380D01*
X29133333Y-67052380D01*
X28990476Y-67100000D01*
X28942857Y-67147619D01*
X28085714Y-67385714D02*
X28085714Y-68052380D01*
X28323809Y-67004761D02*
X28561904Y-67719047D01*
X27942857Y-67719047D01*
X27038095Y-68052380D02*
X27609523Y-68052380D01*
X27323809Y-68052380D02*
X27323809Y-67052380D01*
X27419047Y-67195238D01*
X27514285Y-67290476D01*
X27609523Y-67338095D01*
X28942857Y-77957142D02*
X28990476Y-78004761D01*
X29133333Y-78052380D01*
X29228571Y-78052380D01*
X29371428Y-78004761D01*
X29466666Y-77909523D01*
X29514285Y-77814285D01*
X29561904Y-77623809D01*
X29561904Y-77480952D01*
X29514285Y-77290476D01*
X29466666Y-77195238D01*
X29371428Y-77100000D01*
X29228571Y-77052380D01*
X29133333Y-77052380D01*
X28990476Y-77100000D01*
X28942857Y-77147619D01*
X28085714Y-77385714D02*
X28085714Y-78052380D01*
X28323809Y-77004761D02*
X28561904Y-77719047D01*
X27942857Y-77719047D01*
X27609523Y-77147619D02*
X27561904Y-77100000D01*
X27466666Y-77052380D01*
X27228571Y-77052380D01*
X27133333Y-77100000D01*
X27085714Y-77147619D01*
X27038095Y-77242857D01*
X27038095Y-77338095D01*
X27085714Y-77480952D01*
X27657142Y-78052380D01*
X27038095Y-78052380D01*
X78142857Y-37957142D02*
X78190476Y-38004761D01*
X78333333Y-38052380D01*
X78428571Y-38052380D01*
X78571428Y-38004761D01*
X78666666Y-37909523D01*
X78714285Y-37814285D01*
X78761904Y-37623809D01*
X78761904Y-37480952D01*
X78714285Y-37290476D01*
X78666666Y-37195238D01*
X78571428Y-37100000D01*
X78428571Y-37052380D01*
X78333333Y-37052380D01*
X78190476Y-37100000D01*
X78142857Y-37147619D01*
X77285714Y-37385714D02*
X77285714Y-38052380D01*
X77523809Y-37004761D02*
X77761904Y-37719047D01*
X77142857Y-37719047D01*
X76857142Y-37052380D02*
X76238095Y-37052380D01*
X76571428Y-37433333D01*
X76428571Y-37433333D01*
X76333333Y-37480952D01*
X76285714Y-37528571D01*
X76238095Y-37623809D01*
X76238095Y-37861904D01*
X76285714Y-37957142D01*
X76333333Y-38004761D01*
X76428571Y-38052380D01*
X76714285Y-38052380D01*
X76809523Y-38004761D01*
X76857142Y-37957142D01*
X28942857Y-39457142D02*
X28990476Y-39504761D01*
X29133333Y-39552380D01*
X29228571Y-39552380D01*
X29371428Y-39504761D01*
X29466666Y-39409523D01*
X29514285Y-39314285D01*
X29561904Y-39123809D01*
X29561904Y-38980952D01*
X29514285Y-38790476D01*
X29466666Y-38695238D01*
X29371428Y-38600000D01*
X29228571Y-38552380D01*
X29133333Y-38552380D01*
X28990476Y-38600000D01*
X28942857Y-38647619D01*
X28085714Y-38885714D02*
X28085714Y-39552380D01*
X28323809Y-38504761D02*
X28561904Y-39219047D01*
X27942857Y-39219047D01*
X27133333Y-38885714D02*
X27133333Y-39552380D01*
X27371428Y-38504761D02*
X27609523Y-39219047D01*
X26990476Y-39219047D01*
X78042857Y-47957142D02*
X78090476Y-48004761D01*
X78233333Y-48052380D01*
X78328571Y-48052380D01*
X78471428Y-48004761D01*
X78566666Y-47909523D01*
X78614285Y-47814285D01*
X78661904Y-47623809D01*
X78661904Y-47480952D01*
X78614285Y-47290476D01*
X78566666Y-47195238D01*
X78471428Y-47100000D01*
X78328571Y-47052380D01*
X78233333Y-47052380D01*
X78090476Y-47100000D01*
X78042857Y-47147619D01*
X77185714Y-47385714D02*
X77185714Y-48052380D01*
X77423809Y-47004761D02*
X77661904Y-47719047D01*
X77042857Y-47719047D01*
X76185714Y-47052380D02*
X76661904Y-47052380D01*
X76709523Y-47528571D01*
X76661904Y-47480952D01*
X76566666Y-47433333D01*
X76328571Y-47433333D01*
X76233333Y-47480952D01*
X76185714Y-47528571D01*
X76138095Y-47623809D01*
X76138095Y-47861904D01*
X76185714Y-47957142D01*
X76233333Y-48004761D01*
X76328571Y-48052380D01*
X76566666Y-48052380D01*
X76661904Y-48004761D01*
X76709523Y-47957142D01*
X28942857Y-49457142D02*
X28990476Y-49504761D01*
X29133333Y-49552380D01*
X29228571Y-49552380D01*
X29371428Y-49504761D01*
X29466666Y-49409523D01*
X29514285Y-49314285D01*
X29561904Y-49123809D01*
X29561904Y-48980952D01*
X29514285Y-48790476D01*
X29466666Y-48695238D01*
X29371428Y-48600000D01*
X29228571Y-48552380D01*
X29133333Y-48552380D01*
X28990476Y-48600000D01*
X28942857Y-48647619D01*
X28085714Y-48885714D02*
X28085714Y-49552380D01*
X28323809Y-48504761D02*
X28561904Y-49219047D01*
X27942857Y-49219047D01*
X27133333Y-48552380D02*
X27323809Y-48552380D01*
X27419047Y-48600000D01*
X27466666Y-48647619D01*
X27561904Y-48790476D01*
X27609523Y-48980952D01*
X27609523Y-49361904D01*
X27561904Y-49457142D01*
X27514285Y-49504761D01*
X27419047Y-49552380D01*
X27228571Y-49552380D01*
X27133333Y-49504761D01*
X27085714Y-49457142D01*
X27038095Y-49361904D01*
X27038095Y-49123809D01*
X27085714Y-49028571D01*
X27133333Y-48980952D01*
X27228571Y-48933333D01*
X27419047Y-48933333D01*
X27514285Y-48980952D01*
X27561904Y-49028571D01*
X27609523Y-49123809D01*
X75557142Y-17657142D02*
X75604761Y-17609523D01*
X75652380Y-17466666D01*
X75652380Y-17371428D01*
X75604761Y-17228571D01*
X75509523Y-17133333D01*
X75414285Y-17085714D01*
X75223809Y-17038095D01*
X75080952Y-17038095D01*
X74890476Y-17085714D01*
X74795238Y-17133333D01*
X74700000Y-17228571D01*
X74652380Y-17371428D01*
X74652380Y-17466666D01*
X74700000Y-17609523D01*
X74747619Y-17657142D01*
X74985714Y-18514285D02*
X75652380Y-18514285D01*
X74604761Y-18276190D02*
X75319047Y-18038095D01*
X75319047Y-18657142D01*
X74652380Y-18942857D02*
X74652380Y-19609523D01*
X75652380Y-19180952D01*
X77942857Y-57957142D02*
X77990476Y-58004761D01*
X78133333Y-58052380D01*
X78228571Y-58052380D01*
X78371428Y-58004761D01*
X78466666Y-57909523D01*
X78514285Y-57814285D01*
X78561904Y-57623809D01*
X78561904Y-57480952D01*
X78514285Y-57290476D01*
X78466666Y-57195238D01*
X78371428Y-57100000D01*
X78228571Y-57052380D01*
X78133333Y-57052380D01*
X77990476Y-57100000D01*
X77942857Y-57147619D01*
X77085714Y-57385714D02*
X77085714Y-58052380D01*
X77323809Y-57004761D02*
X77561904Y-57719047D01*
X76942857Y-57719047D01*
X76419047Y-57480952D02*
X76514285Y-57433333D01*
X76561904Y-57385714D01*
X76609523Y-57290476D01*
X76609523Y-57242857D01*
X76561904Y-57147619D01*
X76514285Y-57100000D01*
X76419047Y-57052380D01*
X76228571Y-57052380D01*
X76133333Y-57100000D01*
X76085714Y-57147619D01*
X76038095Y-57242857D01*
X76038095Y-57290476D01*
X76085714Y-57385714D01*
X76133333Y-57433333D01*
X76228571Y-57480952D01*
X76419047Y-57480952D01*
X76514285Y-57528571D01*
X76561904Y-57576190D01*
X76609523Y-57671428D01*
X76609523Y-57861904D01*
X76561904Y-57957142D01*
X76514285Y-58004761D01*
X76419047Y-58052380D01*
X76228571Y-58052380D01*
X76133333Y-58004761D01*
X76085714Y-57957142D01*
X76038095Y-57861904D01*
X76038095Y-57671428D01*
X76085714Y-57576190D01*
X76133333Y-57528571D01*
X76228571Y-57480952D01*
X28842857Y-59457142D02*
X28890476Y-59504761D01*
X29033333Y-59552380D01*
X29128571Y-59552380D01*
X29271428Y-59504761D01*
X29366666Y-59409523D01*
X29414285Y-59314285D01*
X29461904Y-59123809D01*
X29461904Y-58980952D01*
X29414285Y-58790476D01*
X29366666Y-58695238D01*
X29271428Y-58600000D01*
X29128571Y-58552380D01*
X29033333Y-58552380D01*
X28890476Y-58600000D01*
X28842857Y-58647619D01*
X27985714Y-58885714D02*
X27985714Y-59552380D01*
X28223809Y-58504761D02*
X28461904Y-59219047D01*
X27842857Y-59219047D01*
X27414285Y-59552380D02*
X27223809Y-59552380D01*
X27128571Y-59504761D01*
X27080952Y-59457142D01*
X26985714Y-59314285D01*
X26938095Y-59123809D01*
X26938095Y-58742857D01*
X26985714Y-58647619D01*
X27033333Y-58600000D01*
X27128571Y-58552380D01*
X27319047Y-58552380D01*
X27414285Y-58600000D01*
X27461904Y-58647619D01*
X27509523Y-58742857D01*
X27509523Y-58980952D01*
X27461904Y-59076190D01*
X27414285Y-59123809D01*
X27319047Y-59171428D01*
X27128571Y-59171428D01*
X27033333Y-59123809D01*
X26985714Y-59076190D01*
X26938095Y-58980952D01*
X78142857Y-67857142D02*
X78190476Y-67904761D01*
X78333333Y-67952380D01*
X78428571Y-67952380D01*
X78571428Y-67904761D01*
X78666666Y-67809523D01*
X78714285Y-67714285D01*
X78761904Y-67523809D01*
X78761904Y-67380952D01*
X78714285Y-67190476D01*
X78666666Y-67095238D01*
X78571428Y-67000000D01*
X78428571Y-66952380D01*
X78333333Y-66952380D01*
X78190476Y-67000000D01*
X78142857Y-67047619D01*
X77238095Y-66952380D02*
X77714285Y-66952380D01*
X77761904Y-67428571D01*
X77714285Y-67380952D01*
X77619047Y-67333333D01*
X77380952Y-67333333D01*
X77285714Y-67380952D01*
X77238095Y-67428571D01*
X77190476Y-67523809D01*
X77190476Y-67761904D01*
X77238095Y-67857142D01*
X77285714Y-67904761D01*
X77380952Y-67952380D01*
X77619047Y-67952380D01*
X77714285Y-67904761D01*
X77761904Y-67857142D01*
X76571428Y-66952380D02*
X76476190Y-66952380D01*
X76380952Y-67000000D01*
X76333333Y-67047619D01*
X76285714Y-67142857D01*
X76238095Y-67333333D01*
X76238095Y-67571428D01*
X76285714Y-67761904D01*
X76333333Y-67857142D01*
X76380952Y-67904761D01*
X76476190Y-67952380D01*
X76571428Y-67952380D01*
X76666666Y-67904761D01*
X76714285Y-67857142D01*
X76761904Y-67761904D01*
X76809523Y-67571428D01*
X76809523Y-67333333D01*
X76761904Y-67142857D01*
X76714285Y-67047619D01*
X76666666Y-67000000D01*
X76571428Y-66952380D01*
X28942857Y-69457142D02*
X28990476Y-69504761D01*
X29133333Y-69552380D01*
X29228571Y-69552380D01*
X29371428Y-69504761D01*
X29466666Y-69409523D01*
X29514285Y-69314285D01*
X29561904Y-69123809D01*
X29561904Y-68980952D01*
X29514285Y-68790476D01*
X29466666Y-68695238D01*
X29371428Y-68600000D01*
X29228571Y-68552380D01*
X29133333Y-68552380D01*
X28990476Y-68600000D01*
X28942857Y-68647619D01*
X28038095Y-68552380D02*
X28514285Y-68552380D01*
X28561904Y-69028571D01*
X28514285Y-68980952D01*
X28419047Y-68933333D01*
X28180952Y-68933333D01*
X28085714Y-68980952D01*
X28038095Y-69028571D01*
X27990476Y-69123809D01*
X27990476Y-69361904D01*
X28038095Y-69457142D01*
X28085714Y-69504761D01*
X28180952Y-69552380D01*
X28419047Y-69552380D01*
X28514285Y-69504761D01*
X28561904Y-69457142D01*
X27038095Y-69552380D02*
X27609523Y-69552380D01*
X27323809Y-69552380D02*
X27323809Y-68552380D01*
X27419047Y-68695238D01*
X27514285Y-68790476D01*
X27609523Y-68838095D01*
X78042857Y-77957142D02*
X78090476Y-78004761D01*
X78233333Y-78052380D01*
X78328571Y-78052380D01*
X78471428Y-78004761D01*
X78566666Y-77909523D01*
X78614285Y-77814285D01*
X78661904Y-77623809D01*
X78661904Y-77480952D01*
X78614285Y-77290476D01*
X78566666Y-77195238D01*
X78471428Y-77100000D01*
X78328571Y-77052380D01*
X78233333Y-77052380D01*
X78090476Y-77100000D01*
X78042857Y-77147619D01*
X77138095Y-77052380D02*
X77614285Y-77052380D01*
X77661904Y-77528571D01*
X77614285Y-77480952D01*
X77519047Y-77433333D01*
X77280952Y-77433333D01*
X77185714Y-77480952D01*
X77138095Y-77528571D01*
X77090476Y-77623809D01*
X77090476Y-77861904D01*
X77138095Y-77957142D01*
X77185714Y-78004761D01*
X77280952Y-78052380D01*
X77519047Y-78052380D01*
X77614285Y-78004761D01*
X77661904Y-77957142D01*
X76709523Y-77147619D02*
X76661904Y-77100000D01*
X76566666Y-77052380D01*
X76328571Y-77052380D01*
X76233333Y-77100000D01*
X76185714Y-77147619D01*
X76138095Y-77242857D01*
X76138095Y-77338095D01*
X76185714Y-77480952D01*
X76757142Y-78052380D01*
X76138095Y-78052380D01*
X28842857Y-79357142D02*
X28890476Y-79404761D01*
X29033333Y-79452380D01*
X29128571Y-79452380D01*
X29271428Y-79404761D01*
X29366666Y-79309523D01*
X29414285Y-79214285D01*
X29461904Y-79023809D01*
X29461904Y-78880952D01*
X29414285Y-78690476D01*
X29366666Y-78595238D01*
X29271428Y-78500000D01*
X29128571Y-78452380D01*
X29033333Y-78452380D01*
X28890476Y-78500000D01*
X28842857Y-78547619D01*
X27938095Y-78452380D02*
X28414285Y-78452380D01*
X28461904Y-78928571D01*
X28414285Y-78880952D01*
X28319047Y-78833333D01*
X28080952Y-78833333D01*
X27985714Y-78880952D01*
X27938095Y-78928571D01*
X27890476Y-79023809D01*
X27890476Y-79261904D01*
X27938095Y-79357142D01*
X27985714Y-79404761D01*
X28080952Y-79452380D01*
X28319047Y-79452380D01*
X28414285Y-79404761D01*
X28461904Y-79357142D01*
X27557142Y-78452380D02*
X26938095Y-78452380D01*
X27271428Y-78833333D01*
X27128571Y-78833333D01*
X27033333Y-78880952D01*
X26985714Y-78928571D01*
X26938095Y-79023809D01*
X26938095Y-79261904D01*
X26985714Y-79357142D01*
X27033333Y-79404761D01*
X27128571Y-79452380D01*
X27414285Y-79452380D01*
X27509523Y-79404761D01*
X27557142Y-79357142D01*
X96657142Y-71857142D02*
X96704761Y-71809523D01*
X96752380Y-71666666D01*
X96752380Y-71571428D01*
X96704761Y-71428571D01*
X96609523Y-71333333D01*
X96514285Y-71285714D01*
X96323809Y-71238095D01*
X96180952Y-71238095D01*
X95990476Y-71285714D01*
X95895238Y-71333333D01*
X95800000Y-71428571D01*
X95752380Y-71571428D01*
X95752380Y-71666666D01*
X95800000Y-71809523D01*
X95847619Y-71857142D01*
X95752380Y-72761904D02*
X95752380Y-72285714D01*
X96228571Y-72238095D01*
X96180952Y-72285714D01*
X96133333Y-72380952D01*
X96133333Y-72619047D01*
X96180952Y-72714285D01*
X96228571Y-72761904D01*
X96323809Y-72809523D01*
X96561904Y-72809523D01*
X96657142Y-72761904D01*
X96704761Y-72714285D01*
X96752380Y-72619047D01*
X96752380Y-72380952D01*
X96704761Y-72285714D01*
X96657142Y-72238095D01*
X96085714Y-73666666D02*
X96752380Y-73666666D01*
X95704761Y-73428571D02*
X96419047Y-73190476D01*
X96419047Y-73809523D01*
X89842857Y-63257142D02*
X89890476Y-63304761D01*
X90033333Y-63352380D01*
X90128571Y-63352380D01*
X90271428Y-63304761D01*
X90366666Y-63209523D01*
X90414285Y-63114285D01*
X90461904Y-62923809D01*
X90461904Y-62780952D01*
X90414285Y-62590476D01*
X90366666Y-62495238D01*
X90271428Y-62400000D01*
X90128571Y-62352380D01*
X90033333Y-62352380D01*
X89890476Y-62400000D01*
X89842857Y-62447619D01*
X88938095Y-62352380D02*
X89414285Y-62352380D01*
X89461904Y-62828571D01*
X89414285Y-62780952D01*
X89319047Y-62733333D01*
X89080952Y-62733333D01*
X88985714Y-62780952D01*
X88938095Y-62828571D01*
X88890476Y-62923809D01*
X88890476Y-63161904D01*
X88938095Y-63257142D01*
X88985714Y-63304761D01*
X89080952Y-63352380D01*
X89319047Y-63352380D01*
X89414285Y-63304761D01*
X89461904Y-63257142D01*
X87985714Y-62352380D02*
X88461904Y-62352380D01*
X88509523Y-62828571D01*
X88461904Y-62780952D01*
X88366666Y-62733333D01*
X88128571Y-62733333D01*
X88033333Y-62780952D01*
X87985714Y-62828571D01*
X87938095Y-62923809D01*
X87938095Y-63161904D01*
X87985714Y-63257142D01*
X88033333Y-63304761D01*
X88128571Y-63352380D01*
X88366666Y-63352380D01*
X88461904Y-63304761D01*
X88509523Y-63257142D01*
X109857142Y-84757142D02*
X109904761Y-84709523D01*
X109952380Y-84566666D01*
X109952380Y-84471428D01*
X109904761Y-84328571D01*
X109809523Y-84233333D01*
X109714285Y-84185714D01*
X109523809Y-84138095D01*
X109380952Y-84138095D01*
X109190476Y-84185714D01*
X109095238Y-84233333D01*
X109000000Y-84328571D01*
X108952380Y-84471428D01*
X108952380Y-84566666D01*
X109000000Y-84709523D01*
X109047619Y-84757142D01*
X108952380Y-85661904D02*
X108952380Y-85185714D01*
X109428571Y-85138095D01*
X109380952Y-85185714D01*
X109333333Y-85280952D01*
X109333333Y-85519047D01*
X109380952Y-85614285D01*
X109428571Y-85661904D01*
X109523809Y-85709523D01*
X109761904Y-85709523D01*
X109857142Y-85661904D01*
X109904761Y-85614285D01*
X109952380Y-85519047D01*
X109952380Y-85280952D01*
X109904761Y-85185714D01*
X109857142Y-85138095D01*
X108952380Y-86042857D02*
X108952380Y-86709523D01*
X109952380Y-86280952D01*
X111257142Y-84757142D02*
X111304761Y-84709523D01*
X111352380Y-84566666D01*
X111352380Y-84471428D01*
X111304761Y-84328571D01*
X111209523Y-84233333D01*
X111114285Y-84185714D01*
X110923809Y-84138095D01*
X110780952Y-84138095D01*
X110590476Y-84185714D01*
X110495238Y-84233333D01*
X110400000Y-84328571D01*
X110352380Y-84471428D01*
X110352380Y-84566666D01*
X110400000Y-84709523D01*
X110447619Y-84757142D01*
X110352380Y-85661904D02*
X110352380Y-85185714D01*
X110828571Y-85138095D01*
X110780952Y-85185714D01*
X110733333Y-85280952D01*
X110733333Y-85519047D01*
X110780952Y-85614285D01*
X110828571Y-85661904D01*
X110923809Y-85709523D01*
X111161904Y-85709523D01*
X111257142Y-85661904D01*
X111304761Y-85614285D01*
X111352380Y-85519047D01*
X111352380Y-85280952D01*
X111304761Y-85185714D01*
X111257142Y-85138095D01*
X110780952Y-86280952D02*
X110733333Y-86185714D01*
X110685714Y-86138095D01*
X110590476Y-86090476D01*
X110542857Y-86090476D01*
X110447619Y-86138095D01*
X110400000Y-86185714D01*
X110352380Y-86280952D01*
X110352380Y-86471428D01*
X110400000Y-86566666D01*
X110447619Y-86614285D01*
X110542857Y-86661904D01*
X110590476Y-86661904D01*
X110685714Y-86614285D01*
X110733333Y-86566666D01*
X110780952Y-86471428D01*
X110780952Y-86280952D01*
X110828571Y-86185714D01*
X110876190Y-86138095D01*
X110971428Y-86090476D01*
X111161904Y-86090476D01*
X111257142Y-86138095D01*
X111304761Y-86185714D01*
X111352380Y-86280952D01*
X111352380Y-86471428D01*
X111304761Y-86566666D01*
X111257142Y-86614285D01*
X111161904Y-86661904D01*
X110971428Y-86661904D01*
X110876190Y-86614285D01*
X110828571Y-86566666D01*
X110780952Y-86471428D01*
X111842857Y-56657142D02*
X111890476Y-56704761D01*
X112033333Y-56752380D01*
X112128571Y-56752380D01*
X112271428Y-56704761D01*
X112366666Y-56609523D01*
X112414285Y-56514285D01*
X112461904Y-56323809D01*
X112461904Y-56180952D01*
X112414285Y-55990476D01*
X112366666Y-55895238D01*
X112271428Y-55800000D01*
X112128571Y-55752380D01*
X112033333Y-55752380D01*
X111890476Y-55800000D01*
X111842857Y-55847619D01*
X110985714Y-55752380D02*
X111176190Y-55752380D01*
X111271428Y-55800000D01*
X111319047Y-55847619D01*
X111414285Y-55990476D01*
X111461904Y-56180952D01*
X111461904Y-56561904D01*
X111414285Y-56657142D01*
X111366666Y-56704761D01*
X111271428Y-56752380D01*
X111080952Y-56752380D01*
X110985714Y-56704761D01*
X110938095Y-56657142D01*
X110890476Y-56561904D01*
X110890476Y-56323809D01*
X110938095Y-56228571D01*
X110985714Y-56180952D01*
X111080952Y-56133333D01*
X111271428Y-56133333D01*
X111366666Y-56180952D01*
X111414285Y-56228571D01*
X111461904Y-56323809D01*
X110271428Y-55752380D02*
X110176190Y-55752380D01*
X110080952Y-55800000D01*
X110033333Y-55847619D01*
X109985714Y-55942857D01*
X109938095Y-56133333D01*
X109938095Y-56371428D01*
X109985714Y-56561904D01*
X110033333Y-56657142D01*
X110080952Y-56704761D01*
X110176190Y-56752380D01*
X110271428Y-56752380D01*
X110366666Y-56704761D01*
X110414285Y-56657142D01*
X110461904Y-56561904D01*
X110509523Y-56371428D01*
X110509523Y-56133333D01*
X110461904Y-55942857D01*
X110414285Y-55847619D01*
X110366666Y-55800000D01*
X110271428Y-55752380D01*
X124157142Y-84857142D02*
X124204761Y-84809523D01*
X124252380Y-84666666D01*
X124252380Y-84571428D01*
X124204761Y-84428571D01*
X124109523Y-84333333D01*
X124014285Y-84285714D01*
X123823809Y-84238095D01*
X123680952Y-84238095D01*
X123490476Y-84285714D01*
X123395238Y-84333333D01*
X123300000Y-84428571D01*
X123252380Y-84571428D01*
X123252380Y-84666666D01*
X123300000Y-84809523D01*
X123347619Y-84857142D01*
X123252380Y-85714285D02*
X123252380Y-85523809D01*
X123300000Y-85428571D01*
X123347619Y-85380952D01*
X123490476Y-85285714D01*
X123680952Y-85238095D01*
X124061904Y-85238095D01*
X124157142Y-85285714D01*
X124204761Y-85333333D01*
X124252380Y-85428571D01*
X124252380Y-85619047D01*
X124204761Y-85714285D01*
X124157142Y-85761904D01*
X124061904Y-85809523D01*
X123823809Y-85809523D01*
X123728571Y-85761904D01*
X123680952Y-85714285D01*
X123633333Y-85619047D01*
X123633333Y-85428571D01*
X123680952Y-85333333D01*
X123728571Y-85285714D01*
X123823809Y-85238095D01*
X123585714Y-86666666D02*
X124252380Y-86666666D01*
X123204761Y-86428571D02*
X123919047Y-86190476D01*
X123919047Y-86809523D01*
X122657142Y-84857142D02*
X122704761Y-84809523D01*
X122752380Y-84666666D01*
X122752380Y-84571428D01*
X122704761Y-84428571D01*
X122609523Y-84333333D01*
X122514285Y-84285714D01*
X122323809Y-84238095D01*
X122180952Y-84238095D01*
X121990476Y-84285714D01*
X121895238Y-84333333D01*
X121800000Y-84428571D01*
X121752380Y-84571428D01*
X121752380Y-84666666D01*
X121800000Y-84809523D01*
X121847619Y-84857142D01*
X121752380Y-85714285D02*
X121752380Y-85523809D01*
X121800000Y-85428571D01*
X121847619Y-85380952D01*
X121990476Y-85285714D01*
X122180952Y-85238095D01*
X122561904Y-85238095D01*
X122657142Y-85285714D01*
X122704761Y-85333333D01*
X122752380Y-85428571D01*
X122752380Y-85619047D01*
X122704761Y-85714285D01*
X122657142Y-85761904D01*
X122561904Y-85809523D01*
X122323809Y-85809523D01*
X122228571Y-85761904D01*
X122180952Y-85714285D01*
X122133333Y-85619047D01*
X122133333Y-85428571D01*
X122180952Y-85333333D01*
X122228571Y-85285714D01*
X122323809Y-85238095D01*
X121752380Y-86714285D02*
X121752380Y-86238095D01*
X122228571Y-86190476D01*
X122180952Y-86238095D01*
X122133333Y-86333333D01*
X122133333Y-86571428D01*
X122180952Y-86666666D01*
X122228571Y-86714285D01*
X122323809Y-86761904D01*
X122561904Y-86761904D01*
X122657142Y-86714285D01*
X122704761Y-86666666D01*
X122752380Y-86571428D01*
X122752380Y-86333333D01*
X122704761Y-86238095D01*
X122657142Y-86190476D01*
X145307142Y-30657142D02*
X145354761Y-30609523D01*
X145402380Y-30466666D01*
X145402380Y-30371428D01*
X145354761Y-30228571D01*
X145259523Y-30133333D01*
X145164285Y-30085714D01*
X144973809Y-30038095D01*
X144830952Y-30038095D01*
X144640476Y-30085714D01*
X144545238Y-30133333D01*
X144450000Y-30228571D01*
X144402380Y-30371428D01*
X144402380Y-30466666D01*
X144450000Y-30609523D01*
X144497619Y-30657142D01*
X144402380Y-31514285D02*
X144402380Y-31323809D01*
X144450000Y-31228571D01*
X144497619Y-31180952D01*
X144640476Y-31085714D01*
X144830952Y-31038095D01*
X145211904Y-31038095D01*
X145307142Y-31085714D01*
X145354761Y-31133333D01*
X145402380Y-31228571D01*
X145402380Y-31419047D01*
X145354761Y-31514285D01*
X145307142Y-31561904D01*
X145211904Y-31609523D01*
X144973809Y-31609523D01*
X144878571Y-31561904D01*
X144830952Y-31514285D01*
X144783333Y-31419047D01*
X144783333Y-31228571D01*
X144830952Y-31133333D01*
X144878571Y-31085714D01*
X144973809Y-31038095D01*
X144402380Y-32466666D02*
X144402380Y-32276190D01*
X144450000Y-32180952D01*
X144497619Y-32133333D01*
X144640476Y-32038095D01*
X144830952Y-31990476D01*
X145211904Y-31990476D01*
X145307142Y-32038095D01*
X145354761Y-32085714D01*
X145402380Y-32180952D01*
X145402380Y-32371428D01*
X145354761Y-32466666D01*
X145307142Y-32514285D01*
X145211904Y-32561904D01*
X144973809Y-32561904D01*
X144878571Y-32514285D01*
X144830952Y-32466666D01*
X144783333Y-32371428D01*
X144783333Y-32180952D01*
X144830952Y-32085714D01*
X144878571Y-32038095D01*
X144973809Y-31990476D01*
X109757142Y-68457142D02*
X109804761Y-68409523D01*
X109852380Y-68266666D01*
X109852380Y-68171428D01*
X109804761Y-68028571D01*
X109709523Y-67933333D01*
X109614285Y-67885714D01*
X109423809Y-67838095D01*
X109280952Y-67838095D01*
X109090476Y-67885714D01*
X108995238Y-67933333D01*
X108900000Y-68028571D01*
X108852380Y-68171428D01*
X108852380Y-68266666D01*
X108900000Y-68409523D01*
X108947619Y-68457142D01*
X108852380Y-69314285D02*
X108852380Y-69123809D01*
X108900000Y-69028571D01*
X108947619Y-68980952D01*
X109090476Y-68885714D01*
X109280952Y-68838095D01*
X109661904Y-68838095D01*
X109757142Y-68885714D01*
X109804761Y-68933333D01*
X109852380Y-69028571D01*
X109852380Y-69219047D01*
X109804761Y-69314285D01*
X109757142Y-69361904D01*
X109661904Y-69409523D01*
X109423809Y-69409523D01*
X109328571Y-69361904D01*
X109280952Y-69314285D01*
X109233333Y-69219047D01*
X109233333Y-69028571D01*
X109280952Y-68933333D01*
X109328571Y-68885714D01*
X109423809Y-68838095D01*
X109280952Y-69980952D02*
X109233333Y-69885714D01*
X109185714Y-69838095D01*
X109090476Y-69790476D01*
X109042857Y-69790476D01*
X108947619Y-69838095D01*
X108900000Y-69885714D01*
X108852380Y-69980952D01*
X108852380Y-70171428D01*
X108900000Y-70266666D01*
X108947619Y-70314285D01*
X109042857Y-70361904D01*
X109090476Y-70361904D01*
X109185714Y-70314285D01*
X109233333Y-70266666D01*
X109280952Y-70171428D01*
X109280952Y-69980952D01*
X109328571Y-69885714D01*
X109376190Y-69838095D01*
X109471428Y-69790476D01*
X109661904Y-69790476D01*
X109757142Y-69838095D01*
X109804761Y-69885714D01*
X109852380Y-69980952D01*
X109852380Y-70171428D01*
X109804761Y-70266666D01*
X109757142Y-70314285D01*
X109661904Y-70361904D01*
X109471428Y-70361904D01*
X109376190Y-70314285D01*
X109328571Y-70266666D01*
X109280952Y-70171428D01*
X111257142Y-68457142D02*
X111304761Y-68409523D01*
X111352380Y-68266666D01*
X111352380Y-68171428D01*
X111304761Y-68028571D01*
X111209523Y-67933333D01*
X111114285Y-67885714D01*
X110923809Y-67838095D01*
X110780952Y-67838095D01*
X110590476Y-67885714D01*
X110495238Y-67933333D01*
X110400000Y-68028571D01*
X110352380Y-68171428D01*
X110352380Y-68266666D01*
X110400000Y-68409523D01*
X110447619Y-68457142D01*
X110352380Y-68790476D02*
X110352380Y-69457142D01*
X111352380Y-69028571D01*
X110352380Y-69742857D02*
X110352380Y-70361904D01*
X110733333Y-70028571D01*
X110733333Y-70171428D01*
X110780952Y-70266666D01*
X110828571Y-70314285D01*
X110923809Y-70361904D01*
X111161904Y-70361904D01*
X111257142Y-70314285D01*
X111304761Y-70266666D01*
X111352380Y-70171428D01*
X111352380Y-69885714D01*
X111304761Y-69790476D01*
X111257142Y-69742857D01*
X63238095Y-20052380D02*
X63238095Y-19052380D01*
X63000000Y-19052380D01*
X62857142Y-19100000D01*
X62761904Y-19195238D01*
X62714285Y-19290476D01*
X62666666Y-19480952D01*
X62666666Y-19623809D01*
X62714285Y-19814285D01*
X62761904Y-19909523D01*
X62857142Y-20004761D01*
X63000000Y-20052380D01*
X63238095Y-20052380D01*
X61714285Y-20052380D02*
X62285714Y-20052380D01*
X62000000Y-20052380D02*
X62000000Y-19052380D01*
X62095238Y-19195238D01*
X62190476Y-19290476D01*
X62285714Y-19338095D01*
X63238095Y-16552380D02*
X63238095Y-15552380D01*
X63000000Y-15552380D01*
X62857142Y-15600000D01*
X62761904Y-15695238D01*
X62714285Y-15790476D01*
X62666666Y-15980952D01*
X62666666Y-16123809D01*
X62714285Y-16314285D01*
X62761904Y-16409523D01*
X62857142Y-16504761D01*
X63000000Y-16552380D01*
X63238095Y-16552380D01*
X62285714Y-15647619D02*
X62238095Y-15600000D01*
X62142857Y-15552380D01*
X61904761Y-15552380D01*
X61809523Y-15600000D01*
X61761904Y-15647619D01*
X61714285Y-15742857D01*
X61714285Y-15838095D01*
X61761904Y-15980952D01*
X62333333Y-16552380D01*
X61714285Y-16552380D01*
X94338095Y-62752380D02*
X94338095Y-61752380D01*
X94100000Y-61752380D01*
X93957142Y-61800000D01*
X93861904Y-61895238D01*
X93814285Y-61990476D01*
X93766666Y-62180952D01*
X93766666Y-62323809D01*
X93814285Y-62514285D01*
X93861904Y-62609523D01*
X93957142Y-62704761D01*
X94100000Y-62752380D01*
X94338095Y-62752380D01*
X93433333Y-61752380D02*
X92814285Y-61752380D01*
X93147619Y-62133333D01*
X93004761Y-62133333D01*
X92909523Y-62180952D01*
X92861904Y-62228571D01*
X92814285Y-62323809D01*
X92814285Y-62561904D01*
X92861904Y-62657142D01*
X92909523Y-62704761D01*
X93004761Y-62752380D01*
X93290476Y-62752380D01*
X93385714Y-62704761D01*
X93433333Y-62657142D01*
X142152380Y-37561904D02*
X141152380Y-37561904D01*
X141152380Y-37800000D01*
X141200000Y-37942857D01*
X141295238Y-38038095D01*
X141390476Y-38085714D01*
X141580952Y-38133333D01*
X141723809Y-38133333D01*
X141914285Y-38085714D01*
X142009523Y-38038095D01*
X142104761Y-37942857D01*
X142152380Y-37800000D01*
X142152380Y-37561904D01*
X141152380Y-39038095D02*
X141152380Y-38561904D01*
X141628571Y-38514285D01*
X141580952Y-38561904D01*
X141533333Y-38657142D01*
X141533333Y-38895238D01*
X141580952Y-38990476D01*
X141628571Y-39038095D01*
X141723809Y-39085714D01*
X141961904Y-39085714D01*
X142057142Y-39038095D01*
X142104761Y-38990476D01*
X142152380Y-38895238D01*
X142152380Y-38657142D01*
X142104761Y-38561904D01*
X142057142Y-38514285D01*
X142152380Y-41938095D02*
X141152380Y-41938095D01*
X142152380Y-42509523D02*
X141580952Y-42080952D01*
X141152380Y-42509523D02*
X141723809Y-41938095D01*
X92533333Y-47528571D02*
X92866666Y-47528571D01*
X92866666Y-48052380D02*
X92866666Y-47052380D01*
X92390476Y-47052380D01*
X91676190Y-47528571D02*
X91533333Y-47576190D01*
X91485714Y-47623809D01*
X91438095Y-47719047D01*
X91438095Y-47861904D01*
X91485714Y-47957142D01*
X91533333Y-48004761D01*
X91628571Y-48052380D01*
X92009523Y-48052380D01*
X92009523Y-47052380D01*
X91676190Y-47052380D01*
X91580952Y-47100000D01*
X91533333Y-47147619D01*
X91485714Y-47242857D01*
X91485714Y-47338095D01*
X91533333Y-47433333D01*
X91580952Y-47480952D01*
X91676190Y-47528571D01*
X92009523Y-47528571D01*
X90485714Y-48052380D02*
X91057142Y-48052380D01*
X90771428Y-48052380D02*
X90771428Y-47052380D01*
X90866666Y-47195238D01*
X90961904Y-47290476D01*
X91057142Y-47338095D01*
X109583333Y-78178571D02*
X109916666Y-78178571D01*
X109916666Y-78702380D02*
X109916666Y-77702380D01*
X109440476Y-77702380D01*
X108726190Y-78178571D02*
X108583333Y-78226190D01*
X108535714Y-78273809D01*
X108488095Y-78369047D01*
X108488095Y-78511904D01*
X108535714Y-78607142D01*
X108583333Y-78654761D01*
X108678571Y-78702380D01*
X109059523Y-78702380D01*
X109059523Y-77702380D01*
X108726190Y-77702380D01*
X108630952Y-77750000D01*
X108583333Y-77797619D01*
X108535714Y-77892857D01*
X108535714Y-77988095D01*
X108583333Y-78083333D01*
X108630952Y-78130952D01*
X108726190Y-78178571D01*
X109059523Y-78178571D01*
X108107142Y-77797619D02*
X108059523Y-77750000D01*
X107964285Y-77702380D01*
X107726190Y-77702380D01*
X107630952Y-77750000D01*
X107583333Y-77797619D01*
X107535714Y-77892857D01*
X107535714Y-77988095D01*
X107583333Y-78130952D01*
X108154761Y-78702380D01*
X107535714Y-78702380D01*
X109533333Y-76128571D02*
X109866666Y-76128571D01*
X109866666Y-76652380D02*
X109866666Y-75652380D01*
X109390476Y-75652380D01*
X108676190Y-76128571D02*
X108533333Y-76176190D01*
X108485714Y-76223809D01*
X108438095Y-76319047D01*
X108438095Y-76461904D01*
X108485714Y-76557142D01*
X108533333Y-76604761D01*
X108628571Y-76652380D01*
X109009523Y-76652380D01*
X109009523Y-75652380D01*
X108676190Y-75652380D01*
X108580952Y-75700000D01*
X108533333Y-75747619D01*
X108485714Y-75842857D01*
X108485714Y-75938095D01*
X108533333Y-76033333D01*
X108580952Y-76080952D01*
X108676190Y-76128571D01*
X109009523Y-76128571D01*
X108104761Y-75652380D02*
X107485714Y-75652380D01*
X107819047Y-76033333D01*
X107676190Y-76033333D01*
X107580952Y-76080952D01*
X107533333Y-76128571D01*
X107485714Y-76223809D01*
X107485714Y-76461904D01*
X107533333Y-76557142D01*
X107580952Y-76604761D01*
X107676190Y-76652380D01*
X107961904Y-76652380D01*
X108057142Y-76604761D01*
X108104761Y-76557142D01*
X143895238Y-45047619D02*
X143990476Y-45000000D01*
X144085714Y-44904761D01*
X144228571Y-44761904D01*
X144323809Y-44714285D01*
X144419047Y-44714285D01*
X144371428Y-44952380D02*
X144466666Y-44904761D01*
X144561904Y-44809523D01*
X144609523Y-44619047D01*
X144609523Y-44285714D01*
X144561904Y-44095238D01*
X144466666Y-44000000D01*
X144371428Y-43952380D01*
X144180952Y-43952380D01*
X144085714Y-44000000D01*
X143990476Y-44095238D01*
X143942857Y-44285714D01*
X143942857Y-44619047D01*
X143990476Y-44809523D01*
X144085714Y-44904761D01*
X144180952Y-44952380D01*
X144371428Y-44952380D01*
X142990476Y-44952380D02*
X143561904Y-44952380D01*
X143276190Y-44952380D02*
X143276190Y-43952380D01*
X143371428Y-44095238D01*
X143466666Y-44190476D01*
X143561904Y-44238095D01*
X103995238Y-54447619D02*
X104090476Y-54400000D01*
X104185714Y-54304761D01*
X104328571Y-54161904D01*
X104423809Y-54114285D01*
X104519047Y-54114285D01*
X104471428Y-54352380D02*
X104566666Y-54304761D01*
X104661904Y-54209523D01*
X104709523Y-54019047D01*
X104709523Y-53685714D01*
X104661904Y-53495238D01*
X104566666Y-53400000D01*
X104471428Y-53352380D01*
X104280952Y-53352380D01*
X104185714Y-53400000D01*
X104090476Y-53495238D01*
X104042857Y-53685714D01*
X104042857Y-54019047D01*
X104090476Y-54209523D01*
X104185714Y-54304761D01*
X104280952Y-54352380D01*
X104471428Y-54352380D01*
X103661904Y-53447619D02*
X103614285Y-53400000D01*
X103519047Y-53352380D01*
X103280952Y-53352380D01*
X103185714Y-53400000D01*
X103138095Y-53447619D01*
X103090476Y-53542857D01*
X103090476Y-53638095D01*
X103138095Y-53780952D01*
X103709523Y-54352380D01*
X103090476Y-54352380D01*
X86166666Y-20152380D02*
X86500000Y-19676190D01*
X86738095Y-20152380D02*
X86738095Y-19152380D01*
X86357142Y-19152380D01*
X86261904Y-19200000D01*
X86214285Y-19247619D01*
X86166666Y-19342857D01*
X86166666Y-19485714D01*
X86214285Y-19580952D01*
X86261904Y-19628571D01*
X86357142Y-19676190D01*
X86738095Y-19676190D01*
X85214285Y-20152380D02*
X85785714Y-20152380D01*
X85500000Y-20152380D02*
X85500000Y-19152380D01*
X85595238Y-19295238D01*
X85690476Y-19390476D01*
X85785714Y-19438095D01*
X81266666Y-23402380D02*
X81600000Y-22926190D01*
X81838095Y-23402380D02*
X81838095Y-22402380D01*
X81457142Y-22402380D01*
X81361904Y-22450000D01*
X81314285Y-22497619D01*
X81266666Y-22592857D01*
X81266666Y-22735714D01*
X81314285Y-22830952D01*
X81361904Y-22878571D01*
X81457142Y-22926190D01*
X81838095Y-22926190D01*
X80885714Y-22497619D02*
X80838095Y-22450000D01*
X80742857Y-22402380D01*
X80504761Y-22402380D01*
X80409523Y-22450000D01*
X80361904Y-22497619D01*
X80314285Y-22592857D01*
X80314285Y-22688095D01*
X80361904Y-22830952D01*
X80933333Y-23402380D01*
X80314285Y-23402380D01*
X81166666Y-25902380D02*
X81500000Y-25426190D01*
X81738095Y-25902380D02*
X81738095Y-24902380D01*
X81357142Y-24902380D01*
X81261904Y-24950000D01*
X81214285Y-24997619D01*
X81166666Y-25092857D01*
X81166666Y-25235714D01*
X81214285Y-25330952D01*
X81261904Y-25378571D01*
X81357142Y-25426190D01*
X81738095Y-25426190D01*
X80833333Y-24902380D02*
X80214285Y-24902380D01*
X80547619Y-25283333D01*
X80404761Y-25283333D01*
X80309523Y-25330952D01*
X80261904Y-25378571D01*
X80214285Y-25473809D01*
X80214285Y-25711904D01*
X80261904Y-25807142D01*
X80309523Y-25854761D01*
X80404761Y-25902380D01*
X80690476Y-25902380D01*
X80785714Y-25854761D01*
X80833333Y-25807142D01*
X73666666Y-20052380D02*
X74000000Y-19576190D01*
X74238095Y-20052380D02*
X74238095Y-19052380D01*
X73857142Y-19052380D01*
X73761904Y-19100000D01*
X73714285Y-19147619D01*
X73666666Y-19242857D01*
X73666666Y-19385714D01*
X73714285Y-19480952D01*
X73761904Y-19528571D01*
X73857142Y-19576190D01*
X74238095Y-19576190D01*
X72761904Y-19052380D02*
X73238095Y-19052380D01*
X73285714Y-19528571D01*
X73238095Y-19480952D01*
X73142857Y-19433333D01*
X72904761Y-19433333D01*
X72809523Y-19480952D01*
X72761904Y-19528571D01*
X72714285Y-19623809D01*
X72714285Y-19861904D01*
X72761904Y-19957142D01*
X72809523Y-20004761D01*
X72904761Y-20052380D01*
X73142857Y-20052380D01*
X73238095Y-20004761D01*
X73285714Y-19957142D01*
X74542857Y-16552380D02*
X74876190Y-16076190D01*
X75114285Y-16552380D02*
X75114285Y-15552380D01*
X74733333Y-15552380D01*
X74638095Y-15600000D01*
X74590476Y-15647619D01*
X74542857Y-15742857D01*
X74542857Y-15885714D01*
X74590476Y-15980952D01*
X74638095Y-16028571D01*
X74733333Y-16076190D01*
X75114285Y-16076190D01*
X73590476Y-16552380D02*
X74161904Y-16552380D01*
X73876190Y-16552380D02*
X73876190Y-15552380D01*
X73971428Y-15695238D01*
X74066666Y-15790476D01*
X74161904Y-15838095D01*
X72971428Y-15552380D02*
X72876190Y-15552380D01*
X72780952Y-15600000D01*
X72733333Y-15647619D01*
X72685714Y-15742857D01*
X72638095Y-15933333D01*
X72638095Y-16171428D01*
X72685714Y-16361904D01*
X72733333Y-16457142D01*
X72780952Y-16504761D01*
X72876190Y-16552380D01*
X72971428Y-16552380D01*
X73066666Y-16504761D01*
X73114285Y-16457142D01*
X73161904Y-16361904D01*
X73209523Y-16171428D01*
X73209523Y-15933333D01*
X73161904Y-15742857D01*
X73114285Y-15647619D01*
X73066666Y-15600000D01*
X72971428Y-15552380D01*
X72952380Y-8594642D02*
X72476190Y-8261309D01*
X72952380Y-8023214D02*
X71952380Y-8023214D01*
X71952380Y-8404166D01*
X72000000Y-8499404D01*
X72047619Y-8547023D01*
X72142857Y-8594642D01*
X72285714Y-8594642D01*
X72380952Y-8547023D01*
X72428571Y-8499404D01*
X72476190Y-8404166D01*
X72476190Y-8023214D01*
X72952380Y-9547023D02*
X72952380Y-8975595D01*
X72952380Y-9261309D02*
X71952380Y-9261309D01*
X72095238Y-9166071D01*
X72190476Y-9070833D01*
X72238095Y-8975595D01*
X72952380Y-10499404D02*
X72952380Y-9927976D01*
X72952380Y-10213690D02*
X71952380Y-10213690D01*
X72095238Y-10118452D01*
X72190476Y-10023214D01*
X72238095Y-9927976D01*
X81642857Y-11202380D02*
X81976190Y-10726190D01*
X82214285Y-11202380D02*
X82214285Y-10202380D01*
X81833333Y-10202380D01*
X81738095Y-10250000D01*
X81690476Y-10297619D01*
X81642857Y-10392857D01*
X81642857Y-10535714D01*
X81690476Y-10630952D01*
X81738095Y-10678571D01*
X81833333Y-10726190D01*
X82214285Y-10726190D01*
X80690476Y-11202380D02*
X81261904Y-11202380D01*
X80976190Y-11202380D02*
X80976190Y-10202380D01*
X81071428Y-10345238D01*
X81166666Y-10440476D01*
X81261904Y-10488095D01*
X80309523Y-10297619D02*
X80261904Y-10250000D01*
X80166666Y-10202380D01*
X79928571Y-10202380D01*
X79833333Y-10250000D01*
X79785714Y-10297619D01*
X79738095Y-10392857D01*
X79738095Y-10488095D01*
X79785714Y-10630952D01*
X80357142Y-11202380D01*
X79738095Y-11202380D01*
X81592857Y-13552380D02*
X81926190Y-13076190D01*
X82164285Y-13552380D02*
X82164285Y-12552380D01*
X81783333Y-12552380D01*
X81688095Y-12600000D01*
X81640476Y-12647619D01*
X81592857Y-12742857D01*
X81592857Y-12885714D01*
X81640476Y-12980952D01*
X81688095Y-13028571D01*
X81783333Y-13076190D01*
X82164285Y-13076190D01*
X80640476Y-13552380D02*
X81211904Y-13552380D01*
X80926190Y-13552380D02*
X80926190Y-12552380D01*
X81021428Y-12695238D01*
X81116666Y-12790476D01*
X81211904Y-12838095D01*
X80307142Y-12552380D02*
X79688095Y-12552380D01*
X80021428Y-12933333D01*
X79878571Y-12933333D01*
X79783333Y-12980952D01*
X79735714Y-13028571D01*
X79688095Y-13123809D01*
X79688095Y-13361904D01*
X79735714Y-13457142D01*
X79783333Y-13504761D01*
X79878571Y-13552380D01*
X80164285Y-13552380D01*
X80259523Y-13504761D01*
X80307142Y-13457142D01*
X87042857Y-16552380D02*
X87376190Y-16076190D01*
X87614285Y-16552380D02*
X87614285Y-15552380D01*
X87233333Y-15552380D01*
X87138095Y-15600000D01*
X87090476Y-15647619D01*
X87042857Y-15742857D01*
X87042857Y-15885714D01*
X87090476Y-15980952D01*
X87138095Y-16028571D01*
X87233333Y-16076190D01*
X87614285Y-16076190D01*
X86090476Y-16552380D02*
X86661904Y-16552380D01*
X86376190Y-16552380D02*
X86376190Y-15552380D01*
X86471428Y-15695238D01*
X86566666Y-15790476D01*
X86661904Y-15838095D01*
X85185714Y-15552380D02*
X85661904Y-15552380D01*
X85709523Y-16028571D01*
X85661904Y-15980952D01*
X85566666Y-15933333D01*
X85328571Y-15933333D01*
X85233333Y-15980952D01*
X85185714Y-16028571D01*
X85138095Y-16123809D01*
X85138095Y-16361904D01*
X85185714Y-16457142D01*
X85233333Y-16504761D01*
X85328571Y-16552380D01*
X85566666Y-16552380D01*
X85661904Y-16504761D01*
X85709523Y-16457142D01*
X111842857Y-58952380D02*
X112176190Y-58476190D01*
X112414285Y-58952380D02*
X112414285Y-57952380D01*
X112033333Y-57952380D01*
X111938095Y-58000000D01*
X111890476Y-58047619D01*
X111842857Y-58142857D01*
X111842857Y-58285714D01*
X111890476Y-58380952D01*
X111938095Y-58428571D01*
X112033333Y-58476190D01*
X112414285Y-58476190D01*
X111509523Y-57952380D02*
X110890476Y-57952380D01*
X111223809Y-58333333D01*
X111080952Y-58333333D01*
X110985714Y-58380952D01*
X110938095Y-58428571D01*
X110890476Y-58523809D01*
X110890476Y-58761904D01*
X110938095Y-58857142D01*
X110985714Y-58904761D01*
X111080952Y-58952380D01*
X111366666Y-58952380D01*
X111461904Y-58904761D01*
X111509523Y-58857142D01*
X109938095Y-58952380D02*
X110509523Y-58952380D01*
X110223809Y-58952380D02*
X110223809Y-57952380D01*
X110319047Y-58095238D01*
X110414285Y-58190476D01*
X110509523Y-58238095D01*
X129992857Y-21652380D02*
X130326190Y-21176190D01*
X130564285Y-21652380D02*
X130564285Y-20652380D01*
X130183333Y-20652380D01*
X130088095Y-20700000D01*
X130040476Y-20747619D01*
X129992857Y-20842857D01*
X129992857Y-20985714D01*
X130040476Y-21080952D01*
X130088095Y-21128571D01*
X130183333Y-21176190D01*
X130564285Y-21176190D01*
X129659523Y-20652380D02*
X129040476Y-20652380D01*
X129373809Y-21033333D01*
X129230952Y-21033333D01*
X129135714Y-21080952D01*
X129088095Y-21128571D01*
X129040476Y-21223809D01*
X129040476Y-21461904D01*
X129088095Y-21557142D01*
X129135714Y-21604761D01*
X129230952Y-21652380D01*
X129516666Y-21652380D01*
X129611904Y-21604761D01*
X129659523Y-21557142D01*
X128659523Y-20747619D02*
X128611904Y-20700000D01*
X128516666Y-20652380D01*
X128278571Y-20652380D01*
X128183333Y-20700000D01*
X128135714Y-20747619D01*
X128088095Y-20842857D01*
X128088095Y-20938095D01*
X128135714Y-21080952D01*
X128707142Y-21652380D01*
X128088095Y-21652380D01*
X83461904Y-88202380D02*
X82890476Y-88202380D01*
X83176190Y-89202380D02*
X83176190Y-88202380D01*
X82557142Y-89202380D02*
X82557142Y-88202380D01*
X82176190Y-88202380D01*
X82080952Y-88250000D01*
X82033333Y-88297619D01*
X81985714Y-88392857D01*
X81985714Y-88535714D01*
X82033333Y-88630952D01*
X82080952Y-88678571D01*
X82176190Y-88726190D01*
X82557142Y-88726190D01*
X81080952Y-88202380D02*
X81557142Y-88202380D01*
X81604761Y-88678571D01*
X81557142Y-88630952D01*
X81461904Y-88583333D01*
X81223809Y-88583333D01*
X81128571Y-88630952D01*
X81080952Y-88678571D01*
X81033333Y-88773809D01*
X81033333Y-89011904D01*
X81080952Y-89107142D01*
X81128571Y-89154761D01*
X81223809Y-89202380D01*
X81461904Y-89202380D01*
X81557142Y-89154761D01*
X81604761Y-89107142D01*
X80052380Y-18738095D02*
X80861904Y-18738095D01*
X80957142Y-18785714D01*
X81004761Y-18833333D01*
X81052380Y-18928571D01*
X81052380Y-19119047D01*
X81004761Y-19214285D01*
X80957142Y-19261904D01*
X80861904Y-19309523D01*
X80052380Y-19309523D01*
X81052380Y-20309523D02*
X81052380Y-19738095D01*
X81052380Y-20023809D02*
X80052380Y-20023809D01*
X80195238Y-19928571D01*
X80290476Y-19833333D01*
X80338095Y-19738095D01*
X95202380Y-79988095D02*
X96011904Y-79988095D01*
X96107142Y-80035714D01*
X96154761Y-80083333D01*
X96202380Y-80178571D01*
X96202380Y-80369047D01*
X96154761Y-80464285D01*
X96107142Y-80511904D01*
X96011904Y-80559523D01*
X95202380Y-80559523D01*
X95202380Y-80940476D02*
X95202380Y-81559523D01*
X95583333Y-81226190D01*
X95583333Y-81369047D01*
X95630952Y-81464285D01*
X95678571Y-81511904D01*
X95773809Y-81559523D01*
X96011904Y-81559523D01*
X96107142Y-81511904D01*
X96154761Y-81464285D01*
X96202380Y-81369047D01*
X96202380Y-81083333D01*
X96154761Y-80988095D01*
X96107142Y-80940476D01*
X86452380Y-69488095D02*
X87261904Y-69488095D01*
X87357142Y-69535714D01*
X87404761Y-69583333D01*
X87452380Y-69678571D01*
X87452380Y-69869047D01*
X87404761Y-69964285D01*
X87357142Y-70011904D01*
X87261904Y-70059523D01*
X86452380Y-70059523D01*
X86785714Y-70964285D02*
X87452380Y-70964285D01*
X86404761Y-70726190D02*
X87119047Y-70488095D01*
X87119047Y-71107142D01*
X140315357Y-49757142D02*
X140362976Y-49804761D01*
X140505833Y-49852380D01*
X140601071Y-49852380D01*
X140743928Y-49804761D01*
X140839166Y-49709523D01*
X140886785Y-49614285D01*
X140934404Y-49423809D01*
X140934404Y-49280952D01*
X140886785Y-49090476D01*
X140839166Y-48995238D01*
X140743928Y-48900000D01*
X140601071Y-48852380D01*
X140505833Y-48852380D01*
X140362976Y-48900000D01*
X140315357Y-48947619D01*
X139458214Y-48852380D02*
X139648690Y-48852380D01*
X139743928Y-48900000D01*
X139791547Y-48947619D01*
X139886785Y-49090476D01*
X139934404Y-49280952D01*
X139934404Y-49661904D01*
X139886785Y-49757142D01*
X139839166Y-49804761D01*
X139743928Y-49852380D01*
X139553452Y-49852380D01*
X139458214Y-49804761D01*
X139410595Y-49757142D01*
X139362976Y-49661904D01*
X139362976Y-49423809D01*
X139410595Y-49328571D01*
X139458214Y-49280952D01*
X139553452Y-49233333D01*
X139743928Y-49233333D01*
X139839166Y-49280952D01*
X139886785Y-49328571D01*
X139934404Y-49423809D01*
X138410595Y-49852380D02*
X138982023Y-49852380D01*
X138696309Y-49852380D02*
X138696309Y-48852380D01*
X138791547Y-48995238D01*
X138886785Y-49090476D01*
X138982023Y-49138095D01*
X140350357Y-47392380D02*
X140683690Y-46916190D01*
X140921785Y-47392380D02*
X140921785Y-46392380D01*
X140540833Y-46392380D01*
X140445595Y-46440000D01*
X140397976Y-46487619D01*
X140350357Y-46582857D01*
X140350357Y-46725714D01*
X140397976Y-46820952D01*
X140445595Y-46868571D01*
X140540833Y-46916190D01*
X140921785Y-46916190D01*
X140017023Y-46392380D02*
X139397976Y-46392380D01*
X139731309Y-46773333D01*
X139588452Y-46773333D01*
X139493214Y-46820952D01*
X139445595Y-46868571D01*
X139397976Y-46963809D01*
X139397976Y-47201904D01*
X139445595Y-47297142D01*
X139493214Y-47344761D01*
X139588452Y-47392380D01*
X139874166Y-47392380D01*
X139969404Y-47344761D01*
X140017023Y-47297142D01*
X139064642Y-46392380D02*
X138445595Y-46392380D01*
X138778928Y-46773333D01*
X138636071Y-46773333D01*
X138540833Y-46820952D01*
X138493214Y-46868571D01*
X138445595Y-46963809D01*
X138445595Y-47201904D01*
X138493214Y-47297142D01*
X138540833Y-47344761D01*
X138636071Y-47392380D01*
X138921785Y-47392380D01*
X139017023Y-47344761D01*
X139064642Y-47297142D01*
X147961904Y-54952380D02*
X147961904Y-55761904D01*
X147914285Y-55857142D01*
X147866666Y-55904761D01*
X147771428Y-55952380D01*
X147580952Y-55952380D01*
X147485714Y-55904761D01*
X147438095Y-55857142D01*
X147390476Y-55761904D01*
X147390476Y-54952380D01*
X146438095Y-54952380D02*
X146914285Y-54952380D01*
X146961904Y-55428571D01*
X146914285Y-55380952D01*
X146819047Y-55333333D01*
X146580952Y-55333333D01*
X146485714Y-55380952D01*
X146438095Y-55428571D01*
X146390476Y-55523809D01*
X146390476Y-55761904D01*
X146438095Y-55857142D01*
X146485714Y-55904761D01*
X146580952Y-55952380D01*
X146819047Y-55952380D01*
X146914285Y-55904761D01*
X146961904Y-55857142D01*
X99033333Y-6142380D02*
X99033333Y-6856666D01*
X99080952Y-6999523D01*
X99176190Y-7094761D01*
X99319047Y-7142380D01*
X99414285Y-7142380D01*
X98509523Y-7142380D02*
X98319047Y-7142380D01*
X98223809Y-7094761D01*
X98176190Y-7047142D01*
X98080952Y-6904285D01*
X98033333Y-6713809D01*
X98033333Y-6332857D01*
X98080952Y-6237619D01*
X98128571Y-6190000D01*
X98223809Y-6142380D01*
X98414285Y-6142380D01*
X98509523Y-6190000D01*
X98557142Y-6237619D01*
X98604761Y-6332857D01*
X98604761Y-6570952D01*
X98557142Y-6666190D01*
X98509523Y-6713809D01*
X98414285Y-6761428D01*
X98223809Y-6761428D01*
X98128571Y-6713809D01*
X98080952Y-6666190D01*
X98033333Y-6570952D01*
X138257142Y-60507142D02*
X138304761Y-60459523D01*
X138352380Y-60316666D01*
X138352380Y-60221428D01*
X138304761Y-60078571D01*
X138209523Y-59983333D01*
X138114285Y-59935714D01*
X137923809Y-59888095D01*
X137780952Y-59888095D01*
X137590476Y-59935714D01*
X137495238Y-59983333D01*
X137400000Y-60078571D01*
X137352380Y-60221428D01*
X137352380Y-60316666D01*
X137400000Y-60459523D01*
X137447619Y-60507142D01*
X137780952Y-61078571D02*
X137733333Y-60983333D01*
X137685714Y-60935714D01*
X137590476Y-60888095D01*
X137542857Y-60888095D01*
X137447619Y-60935714D01*
X137400000Y-60983333D01*
X137352380Y-61078571D01*
X137352380Y-61269047D01*
X137400000Y-61364285D01*
X137447619Y-61411904D01*
X137542857Y-61459523D01*
X137590476Y-61459523D01*
X137685714Y-61411904D01*
X137733333Y-61364285D01*
X137780952Y-61269047D01*
X137780952Y-61078571D01*
X137828571Y-60983333D01*
X137876190Y-60935714D01*
X137971428Y-60888095D01*
X138161904Y-60888095D01*
X138257142Y-60935714D01*
X138304761Y-60983333D01*
X138352380Y-61078571D01*
X138352380Y-61269047D01*
X138304761Y-61364285D01*
X138257142Y-61411904D01*
X138161904Y-61459523D01*
X137971428Y-61459523D01*
X137876190Y-61411904D01*
X137828571Y-61364285D01*
X137780952Y-61269047D01*
X137685714Y-62316666D02*
X138352380Y-62316666D01*
X137304761Y-62078571D02*
X138019047Y-61840476D01*
X138019047Y-62459523D01*
X143607142Y-65207142D02*
X143654761Y-65159523D01*
X143702380Y-65016666D01*
X143702380Y-64921428D01*
X143654761Y-64778571D01*
X143559523Y-64683333D01*
X143464285Y-64635714D01*
X143273809Y-64588095D01*
X143130952Y-64588095D01*
X142940476Y-64635714D01*
X142845238Y-64683333D01*
X142750000Y-64778571D01*
X142702380Y-64921428D01*
X142702380Y-65016666D01*
X142750000Y-65159523D01*
X142797619Y-65207142D01*
X143130952Y-65778571D02*
X143083333Y-65683333D01*
X143035714Y-65635714D01*
X142940476Y-65588095D01*
X142892857Y-65588095D01*
X142797619Y-65635714D01*
X142750000Y-65683333D01*
X142702380Y-65778571D01*
X142702380Y-65969047D01*
X142750000Y-66064285D01*
X142797619Y-66111904D01*
X142892857Y-66159523D01*
X142940476Y-66159523D01*
X143035714Y-66111904D01*
X143083333Y-66064285D01*
X143130952Y-65969047D01*
X143130952Y-65778571D01*
X143178571Y-65683333D01*
X143226190Y-65635714D01*
X143321428Y-65588095D01*
X143511904Y-65588095D01*
X143607142Y-65635714D01*
X143654761Y-65683333D01*
X143702380Y-65778571D01*
X143702380Y-65969047D01*
X143654761Y-66064285D01*
X143607142Y-66111904D01*
X143511904Y-66159523D01*
X143321428Y-66159523D01*
X143226190Y-66111904D01*
X143178571Y-66064285D01*
X143130952Y-65969047D01*
X142702380Y-67064285D02*
X142702380Y-66588095D01*
X143178571Y-66540476D01*
X143130952Y-66588095D01*
X143083333Y-66683333D01*
X143083333Y-66921428D01*
X143130952Y-67016666D01*
X143178571Y-67064285D01*
X143273809Y-67111904D01*
X143511904Y-67111904D01*
X143607142Y-67064285D01*
X143654761Y-67016666D01*
X143702380Y-66921428D01*
X143702380Y-66683333D01*
X143654761Y-66588095D01*
X143607142Y-66540476D01*
X141302380Y-65561904D02*
X140302380Y-65561904D01*
X140302380Y-65800000D01*
X140350000Y-65942857D01*
X140445238Y-66038095D01*
X140540476Y-66085714D01*
X140730952Y-66133333D01*
X140873809Y-66133333D01*
X141064285Y-66085714D01*
X141159523Y-66038095D01*
X141254761Y-65942857D01*
X141302380Y-65800000D01*
X141302380Y-65561904D01*
X140302380Y-66990476D02*
X140302380Y-66800000D01*
X140350000Y-66704761D01*
X140397619Y-66657142D01*
X140540476Y-66561904D01*
X140730952Y-66514285D01*
X141111904Y-66514285D01*
X141207142Y-66561904D01*
X141254761Y-66609523D01*
X141302380Y-66704761D01*
X141302380Y-66895238D01*
X141254761Y-66990476D01*
X141207142Y-67038095D01*
X141111904Y-67085714D01*
X140873809Y-67085714D01*
X140778571Y-67038095D01*
X140730952Y-66990476D01*
X140683333Y-66895238D01*
X140683333Y-66704761D01*
X140730952Y-66609523D01*
X140778571Y-66561904D01*
X140873809Y-66514285D01*
X87433333Y-38228571D02*
X87766666Y-38228571D01*
X87766666Y-38752380D02*
X87766666Y-37752380D01*
X87290476Y-37752380D01*
X86576190Y-38228571D02*
X86433333Y-38276190D01*
X86385714Y-38323809D01*
X86338095Y-38419047D01*
X86338095Y-38561904D01*
X86385714Y-38657142D01*
X86433333Y-38704761D01*
X86528571Y-38752380D01*
X86909523Y-38752380D01*
X86909523Y-37752380D01*
X86576190Y-37752380D01*
X86480952Y-37800000D01*
X86433333Y-37847619D01*
X86385714Y-37942857D01*
X86385714Y-38038095D01*
X86433333Y-38133333D01*
X86480952Y-38180952D01*
X86576190Y-38228571D01*
X86909523Y-38228571D01*
X85861904Y-38752380D02*
X85671428Y-38752380D01*
X85576190Y-38704761D01*
X85528571Y-38657142D01*
X85433333Y-38514285D01*
X85385714Y-38323809D01*
X85385714Y-37942857D01*
X85433333Y-37847619D01*
X85480952Y-37800000D01*
X85576190Y-37752380D01*
X85766666Y-37752380D01*
X85861904Y-37800000D01*
X85909523Y-37847619D01*
X85957142Y-37942857D01*
X85957142Y-38180952D01*
X85909523Y-38276190D01*
X85861904Y-38323809D01*
X85766666Y-38371428D01*
X85576190Y-38371428D01*
X85480952Y-38323809D01*
X85433333Y-38276190D01*
X85385714Y-38180952D01*
X20009523Y-38328571D02*
X20342857Y-38328571D01*
X20342857Y-38852380D02*
X20342857Y-37852380D01*
X19866666Y-37852380D01*
X19152380Y-38328571D02*
X19009523Y-38376190D01*
X18961904Y-38423809D01*
X18914285Y-38519047D01*
X18914285Y-38661904D01*
X18961904Y-38757142D01*
X19009523Y-38804761D01*
X19104761Y-38852380D01*
X19485714Y-38852380D01*
X19485714Y-37852380D01*
X19152380Y-37852380D01*
X19057142Y-37900000D01*
X19009523Y-37947619D01*
X18961904Y-38042857D01*
X18961904Y-38138095D01*
X19009523Y-38233333D01*
X19057142Y-38280952D01*
X19152380Y-38328571D01*
X19485714Y-38328571D01*
X17961904Y-38852380D02*
X18533333Y-38852380D01*
X18247619Y-38852380D02*
X18247619Y-37852380D01*
X18342857Y-37995238D01*
X18438095Y-38090476D01*
X18533333Y-38138095D01*
X17342857Y-37852380D02*
X17247619Y-37852380D01*
X17152380Y-37900000D01*
X17104761Y-37947619D01*
X17057142Y-38042857D01*
X17009523Y-38233333D01*
X17009523Y-38471428D01*
X17057142Y-38661904D01*
X17104761Y-38757142D01*
X17152380Y-38804761D01*
X17247619Y-38852380D01*
X17342857Y-38852380D01*
X17438095Y-38804761D01*
X17485714Y-38757142D01*
X17533333Y-38661904D01*
X17580952Y-38471428D01*
X17580952Y-38233333D01*
X17533333Y-38042857D01*
X17485714Y-37947619D01*
X17438095Y-37900000D01*
X17342857Y-37852380D01*
X88309523Y-48328571D02*
X88642857Y-48328571D01*
X88642857Y-48852380D02*
X88642857Y-47852380D01*
X88166666Y-47852380D01*
X87452380Y-48328571D02*
X87309523Y-48376190D01*
X87261904Y-48423809D01*
X87214285Y-48519047D01*
X87214285Y-48661904D01*
X87261904Y-48757142D01*
X87309523Y-48804761D01*
X87404761Y-48852380D01*
X87785714Y-48852380D01*
X87785714Y-47852380D01*
X87452380Y-47852380D01*
X87357142Y-47900000D01*
X87309523Y-47947619D01*
X87261904Y-48042857D01*
X87261904Y-48138095D01*
X87309523Y-48233333D01*
X87357142Y-48280952D01*
X87452380Y-48328571D01*
X87785714Y-48328571D01*
X86261904Y-48852380D02*
X86833333Y-48852380D01*
X86547619Y-48852380D02*
X86547619Y-47852380D01*
X86642857Y-47995238D01*
X86738095Y-48090476D01*
X86833333Y-48138095D01*
X85309523Y-48852380D02*
X85880952Y-48852380D01*
X85595238Y-48852380D02*
X85595238Y-47852380D01*
X85690476Y-47995238D01*
X85785714Y-48090476D01*
X85880952Y-48138095D01*
X20009523Y-48328571D02*
X20342857Y-48328571D01*
X20342857Y-48852380D02*
X20342857Y-47852380D01*
X19866666Y-47852380D01*
X19152380Y-48328571D02*
X19009523Y-48376190D01*
X18961904Y-48423809D01*
X18914285Y-48519047D01*
X18914285Y-48661904D01*
X18961904Y-48757142D01*
X19009523Y-48804761D01*
X19104761Y-48852380D01*
X19485714Y-48852380D01*
X19485714Y-47852380D01*
X19152380Y-47852380D01*
X19057142Y-47900000D01*
X19009523Y-47947619D01*
X18961904Y-48042857D01*
X18961904Y-48138095D01*
X19009523Y-48233333D01*
X19057142Y-48280952D01*
X19152380Y-48328571D01*
X19485714Y-48328571D01*
X17961904Y-48852380D02*
X18533333Y-48852380D01*
X18247619Y-48852380D02*
X18247619Y-47852380D01*
X18342857Y-47995238D01*
X18438095Y-48090476D01*
X18533333Y-48138095D01*
X17580952Y-47947619D02*
X17533333Y-47900000D01*
X17438095Y-47852380D01*
X17200000Y-47852380D01*
X17104761Y-47900000D01*
X17057142Y-47947619D01*
X17009523Y-48042857D01*
X17009523Y-48138095D01*
X17057142Y-48280952D01*
X17628571Y-48852380D01*
X17009523Y-48852380D01*
X86809523Y-56728571D02*
X87142857Y-56728571D01*
X87142857Y-57252380D02*
X87142857Y-56252380D01*
X86666666Y-56252380D01*
X85952380Y-56728571D02*
X85809523Y-56776190D01*
X85761904Y-56823809D01*
X85714285Y-56919047D01*
X85714285Y-57061904D01*
X85761904Y-57157142D01*
X85809523Y-57204761D01*
X85904761Y-57252380D01*
X86285714Y-57252380D01*
X86285714Y-56252380D01*
X85952380Y-56252380D01*
X85857142Y-56300000D01*
X85809523Y-56347619D01*
X85761904Y-56442857D01*
X85761904Y-56538095D01*
X85809523Y-56633333D01*
X85857142Y-56680952D01*
X85952380Y-56728571D01*
X86285714Y-56728571D01*
X84761904Y-57252380D02*
X85333333Y-57252380D01*
X85047619Y-57252380D02*
X85047619Y-56252380D01*
X85142857Y-56395238D01*
X85238095Y-56490476D01*
X85333333Y-56538095D01*
X84428571Y-56252380D02*
X83809523Y-56252380D01*
X84142857Y-56633333D01*
X84000000Y-56633333D01*
X83904761Y-56680952D01*
X83857142Y-56728571D01*
X83809523Y-56823809D01*
X83809523Y-57061904D01*
X83857142Y-57157142D01*
X83904761Y-57204761D01*
X84000000Y-57252380D01*
X84285714Y-57252380D01*
X84380952Y-57204761D01*
X84428571Y-57157142D01*
X20009523Y-58328571D02*
X20342857Y-58328571D01*
X20342857Y-58852380D02*
X20342857Y-57852380D01*
X19866666Y-57852380D01*
X19152380Y-58328571D02*
X19009523Y-58376190D01*
X18961904Y-58423809D01*
X18914285Y-58519047D01*
X18914285Y-58661904D01*
X18961904Y-58757142D01*
X19009523Y-58804761D01*
X19104761Y-58852380D01*
X19485714Y-58852380D01*
X19485714Y-57852380D01*
X19152380Y-57852380D01*
X19057142Y-57900000D01*
X19009523Y-57947619D01*
X18961904Y-58042857D01*
X18961904Y-58138095D01*
X19009523Y-58233333D01*
X19057142Y-58280952D01*
X19152380Y-58328571D01*
X19485714Y-58328571D01*
X17961904Y-58852380D02*
X18533333Y-58852380D01*
X18247619Y-58852380D02*
X18247619Y-57852380D01*
X18342857Y-57995238D01*
X18438095Y-58090476D01*
X18533333Y-58138095D01*
X17104761Y-58185714D02*
X17104761Y-58852380D01*
X17342857Y-57804761D02*
X17580952Y-58519047D01*
X16961904Y-58519047D01*
X86809523Y-66428571D02*
X87142857Y-66428571D01*
X87142857Y-66952380D02*
X87142857Y-65952380D01*
X86666666Y-65952380D01*
X85952380Y-66428571D02*
X85809523Y-66476190D01*
X85761904Y-66523809D01*
X85714285Y-66619047D01*
X85714285Y-66761904D01*
X85761904Y-66857142D01*
X85809523Y-66904761D01*
X85904761Y-66952380D01*
X86285714Y-66952380D01*
X86285714Y-65952380D01*
X85952380Y-65952380D01*
X85857142Y-66000000D01*
X85809523Y-66047619D01*
X85761904Y-66142857D01*
X85761904Y-66238095D01*
X85809523Y-66333333D01*
X85857142Y-66380952D01*
X85952380Y-66428571D01*
X86285714Y-66428571D01*
X84761904Y-66952380D02*
X85333333Y-66952380D01*
X85047619Y-66952380D02*
X85047619Y-65952380D01*
X85142857Y-66095238D01*
X85238095Y-66190476D01*
X85333333Y-66238095D01*
X83857142Y-65952380D02*
X84333333Y-65952380D01*
X84380952Y-66428571D01*
X84333333Y-66380952D01*
X84238095Y-66333333D01*
X84000000Y-66333333D01*
X83904761Y-66380952D01*
X83857142Y-66428571D01*
X83809523Y-66523809D01*
X83809523Y-66761904D01*
X83857142Y-66857142D01*
X83904761Y-66904761D01*
X84000000Y-66952380D01*
X84238095Y-66952380D01*
X84333333Y-66904761D01*
X84380952Y-66857142D01*
X20009523Y-68328571D02*
X20342857Y-68328571D01*
X20342857Y-68852380D02*
X20342857Y-67852380D01*
X19866666Y-67852380D01*
X19152380Y-68328571D02*
X19009523Y-68376190D01*
X18961904Y-68423809D01*
X18914285Y-68519047D01*
X18914285Y-68661904D01*
X18961904Y-68757142D01*
X19009523Y-68804761D01*
X19104761Y-68852380D01*
X19485714Y-68852380D01*
X19485714Y-67852380D01*
X19152380Y-67852380D01*
X19057142Y-67900000D01*
X19009523Y-67947619D01*
X18961904Y-68042857D01*
X18961904Y-68138095D01*
X19009523Y-68233333D01*
X19057142Y-68280952D01*
X19152380Y-68328571D01*
X19485714Y-68328571D01*
X17961904Y-68852380D02*
X18533333Y-68852380D01*
X18247619Y-68852380D02*
X18247619Y-67852380D01*
X18342857Y-67995238D01*
X18438095Y-68090476D01*
X18533333Y-68138095D01*
X17104761Y-67852380D02*
X17295238Y-67852380D01*
X17390476Y-67900000D01*
X17438095Y-67947619D01*
X17533333Y-68090476D01*
X17580952Y-68280952D01*
X17580952Y-68661904D01*
X17533333Y-68757142D01*
X17485714Y-68804761D01*
X17390476Y-68852380D01*
X17200000Y-68852380D01*
X17104761Y-68804761D01*
X17057142Y-68757142D01*
X17009523Y-68661904D01*
X17009523Y-68423809D01*
X17057142Y-68328571D01*
X17104761Y-68280952D01*
X17200000Y-68233333D01*
X17390476Y-68233333D01*
X17485714Y-68280952D01*
X17533333Y-68328571D01*
X17580952Y-68423809D01*
X86709523Y-76628571D02*
X87042857Y-76628571D01*
X87042857Y-77152380D02*
X87042857Y-76152380D01*
X86566666Y-76152380D01*
X85852380Y-76628571D02*
X85709523Y-76676190D01*
X85661904Y-76723809D01*
X85614285Y-76819047D01*
X85614285Y-76961904D01*
X85661904Y-77057142D01*
X85709523Y-77104761D01*
X85804761Y-77152380D01*
X86185714Y-77152380D01*
X86185714Y-76152380D01*
X85852380Y-76152380D01*
X85757142Y-76200000D01*
X85709523Y-76247619D01*
X85661904Y-76342857D01*
X85661904Y-76438095D01*
X85709523Y-76533333D01*
X85757142Y-76580952D01*
X85852380Y-76628571D01*
X86185714Y-76628571D01*
X84661904Y-77152380D02*
X85233333Y-77152380D01*
X84947619Y-77152380D02*
X84947619Y-76152380D01*
X85042857Y-76295238D01*
X85138095Y-76390476D01*
X85233333Y-76438095D01*
X84328571Y-76152380D02*
X83661904Y-76152380D01*
X84090476Y-77152380D01*
X20009523Y-78328571D02*
X20342857Y-78328571D01*
X20342857Y-78852380D02*
X20342857Y-77852380D01*
X19866666Y-77852380D01*
X19152380Y-78328571D02*
X19009523Y-78376190D01*
X18961904Y-78423809D01*
X18914285Y-78519047D01*
X18914285Y-78661904D01*
X18961904Y-78757142D01*
X19009523Y-78804761D01*
X19104761Y-78852380D01*
X19485714Y-78852380D01*
X19485714Y-77852380D01*
X19152380Y-77852380D01*
X19057142Y-77900000D01*
X19009523Y-77947619D01*
X18961904Y-78042857D01*
X18961904Y-78138095D01*
X19009523Y-78233333D01*
X19057142Y-78280952D01*
X19152380Y-78328571D01*
X19485714Y-78328571D01*
X17961904Y-78852380D02*
X18533333Y-78852380D01*
X18247619Y-78852380D02*
X18247619Y-77852380D01*
X18342857Y-77995238D01*
X18438095Y-78090476D01*
X18533333Y-78138095D01*
X17390476Y-78280952D02*
X17485714Y-78233333D01*
X17533333Y-78185714D01*
X17580952Y-78090476D01*
X17580952Y-78042857D01*
X17533333Y-77947619D01*
X17485714Y-77900000D01*
X17390476Y-77852380D01*
X17200000Y-77852380D01*
X17104761Y-77900000D01*
X17057142Y-77947619D01*
X17009523Y-78042857D01*
X17009523Y-78090476D01*
X17057142Y-78185714D01*
X17104761Y-78233333D01*
X17200000Y-78280952D01*
X17390476Y-78280952D01*
X17485714Y-78328571D01*
X17533333Y-78376190D01*
X17580952Y-78471428D01*
X17580952Y-78661904D01*
X17533333Y-78757142D01*
X17485714Y-78804761D01*
X17390476Y-78852380D01*
X17200000Y-78852380D01*
X17104761Y-78804761D01*
X17057142Y-78757142D01*
X17009523Y-78661904D01*
X17009523Y-78471428D01*
X17057142Y-78376190D01*
X17104761Y-78328571D01*
X17200000Y-78280952D01*
X130059523Y-82228571D02*
X130392857Y-82228571D01*
X130392857Y-82752380D02*
X130392857Y-81752380D01*
X129916666Y-81752380D01*
X129202380Y-82228571D02*
X129059523Y-82276190D01*
X129011904Y-82323809D01*
X128964285Y-82419047D01*
X128964285Y-82561904D01*
X129011904Y-82657142D01*
X129059523Y-82704761D01*
X129154761Y-82752380D01*
X129535714Y-82752380D01*
X129535714Y-81752380D01*
X129202380Y-81752380D01*
X129107142Y-81800000D01*
X129059523Y-81847619D01*
X129011904Y-81942857D01*
X129011904Y-82038095D01*
X129059523Y-82133333D01*
X129107142Y-82180952D01*
X129202380Y-82228571D01*
X129535714Y-82228571D01*
X128011904Y-82752380D02*
X128583333Y-82752380D01*
X128297619Y-82752380D02*
X128297619Y-81752380D01*
X128392857Y-81895238D01*
X128488095Y-81990476D01*
X128583333Y-82038095D01*
X127535714Y-82752380D02*
X127345238Y-82752380D01*
X127250000Y-82704761D01*
X127202380Y-82657142D01*
X127107142Y-82514285D01*
X127059523Y-82323809D01*
X127059523Y-81942857D01*
X127107142Y-81847619D01*
X127154761Y-81800000D01*
X127250000Y-81752380D01*
X127440476Y-81752380D01*
X127535714Y-81800000D01*
X127583333Y-81847619D01*
X127630952Y-81942857D01*
X127630952Y-82180952D01*
X127583333Y-82276190D01*
X127535714Y-82323809D01*
X127440476Y-82371428D01*
X127250000Y-82371428D01*
X127154761Y-82323809D01*
X127107142Y-82276190D01*
X127059523Y-82180952D01*
X143695238Y-58647619D02*
X143790476Y-58600000D01*
X143885714Y-58504761D01*
X144028571Y-58361904D01*
X144123809Y-58314285D01*
X144219047Y-58314285D01*
X144171428Y-58552380D02*
X144266666Y-58504761D01*
X144361904Y-58409523D01*
X144409523Y-58219047D01*
X144409523Y-57885714D01*
X144361904Y-57695238D01*
X144266666Y-57600000D01*
X144171428Y-57552380D01*
X143980952Y-57552380D01*
X143885714Y-57600000D01*
X143790476Y-57695238D01*
X143742857Y-57885714D01*
X143742857Y-58219047D01*
X143790476Y-58409523D01*
X143885714Y-58504761D01*
X143980952Y-58552380D01*
X144171428Y-58552380D01*
X143409523Y-57552380D02*
X142790476Y-57552380D01*
X143123809Y-57933333D01*
X142980952Y-57933333D01*
X142885714Y-57980952D01*
X142838095Y-58028571D01*
X142790476Y-58123809D01*
X142790476Y-58361904D01*
X142838095Y-58457142D01*
X142885714Y-58504761D01*
X142980952Y-58552380D01*
X143266666Y-58552380D01*
X143361904Y-58504761D01*
X143409523Y-58457142D01*
X10695238Y-39647619D02*
X10790476Y-39600000D01*
X10885714Y-39504761D01*
X11028571Y-39361904D01*
X11123809Y-39314285D01*
X11219047Y-39314285D01*
X11171428Y-39552380D02*
X11266666Y-39504761D01*
X11361904Y-39409523D01*
X11409523Y-39219047D01*
X11409523Y-38885714D01*
X11361904Y-38695238D01*
X11266666Y-38600000D01*
X11171428Y-38552380D01*
X10980952Y-38552380D01*
X10885714Y-38600000D01*
X10790476Y-38695238D01*
X10742857Y-38885714D01*
X10742857Y-39219047D01*
X10790476Y-39409523D01*
X10885714Y-39504761D01*
X10980952Y-39552380D01*
X11171428Y-39552380D01*
X9885714Y-38885714D02*
X9885714Y-39552380D01*
X10123809Y-38504761D02*
X10361904Y-39219047D01*
X9742857Y-39219047D01*
X141492857Y-53952380D02*
X141826190Y-53476190D01*
X142064285Y-53952380D02*
X142064285Y-52952380D01*
X141683333Y-52952380D01*
X141588095Y-53000000D01*
X141540476Y-53047619D01*
X141492857Y-53142857D01*
X141492857Y-53285714D01*
X141540476Y-53380952D01*
X141588095Y-53428571D01*
X141683333Y-53476190D01*
X142064285Y-53476190D01*
X140540476Y-53952380D02*
X141111904Y-53952380D01*
X140826190Y-53952380D02*
X140826190Y-52952380D01*
X140921428Y-53095238D01*
X141016666Y-53190476D01*
X141111904Y-53238095D01*
X139683333Y-52952380D02*
X139873809Y-52952380D01*
X139969047Y-53000000D01*
X140016666Y-53047619D01*
X140111904Y-53190476D01*
X140159523Y-53380952D01*
X140159523Y-53761904D01*
X140111904Y-53857142D01*
X140064285Y-53904761D01*
X139969047Y-53952380D01*
X139778571Y-53952380D01*
X139683333Y-53904761D01*
X139635714Y-53857142D01*
X139588095Y-53761904D01*
X139588095Y-53523809D01*
X139635714Y-53428571D01*
X139683333Y-53380952D01*
X139778571Y-53333333D01*
X139969047Y-53333333D01*
X140064285Y-53380952D01*
X140111904Y-53428571D01*
X140159523Y-53523809D01*
X136202380Y-60507142D02*
X135726190Y-60173809D01*
X136202380Y-59935714D02*
X135202380Y-59935714D01*
X135202380Y-60316666D01*
X135250000Y-60411904D01*
X135297619Y-60459523D01*
X135392857Y-60507142D01*
X135535714Y-60507142D01*
X135630952Y-60459523D01*
X135678571Y-60411904D01*
X135726190Y-60316666D01*
X135726190Y-59935714D01*
X136202380Y-61459523D02*
X136202380Y-60888095D01*
X136202380Y-61173809D02*
X135202380Y-61173809D01*
X135345238Y-61078571D01*
X135440476Y-60983333D01*
X135488095Y-60888095D01*
X135202380Y-61792857D02*
X135202380Y-62459523D01*
X136202380Y-62030952D01*
X86561904Y-88200380D02*
X85990476Y-88200380D01*
X86276190Y-89200380D02*
X86276190Y-88200380D01*
X85657142Y-89200380D02*
X85657142Y-88200380D01*
X85276190Y-88200380D01*
X85180952Y-88248000D01*
X85133333Y-88295619D01*
X85085714Y-88390857D01*
X85085714Y-88533714D01*
X85133333Y-88628952D01*
X85180952Y-88676571D01*
X85276190Y-88724190D01*
X85657142Y-88724190D01*
X84704761Y-88295619D02*
X84657142Y-88248000D01*
X84561904Y-88200380D01*
X84323809Y-88200380D01*
X84228571Y-88248000D01*
X84180952Y-88295619D01*
X84133333Y-88390857D01*
X84133333Y-88486095D01*
X84180952Y-88628952D01*
X84752380Y-89200380D01*
X84133333Y-89200380D01*
M02*
