M48
; DRILL file {KiCad (5.1.5)-3} date 02/22/20 12:29:40
; FORMAT={-:-/ absolute / inch / decimal}
; #@! TF.CreationDate,2020-02-22T12:29:40+01:00
; #@! TF.GenerationSoftware,Kicad,Pcbnew,(5.1.5)-3
FMAT,2
INCH
T1C0.0118
T2C0.0197
T3C0.0315
T4C0.0350
T5C0.0394
T6C0.0433
T7C0.0472
T8C0.0512
T9C0.0791
T10C0.0906
T11C0.1181
T12C0.1299
T13C0.0945
T14C0.0976
%
G90
G05
T1
X1.0256Y-3.2047
X1.0276Y-1.5354
X1.0276Y-2.372
X1.0276Y-2.7874
X1.0315Y-1.9547
X3.0984Y-1.5335
X3.0984Y-1.9508
X3.0984Y-2.3681
X3.0984Y-2.7795
X3.0984Y-3.2008
X4.3327Y-3.1949
X4.3346Y-2.8799
X4.8937Y-3.2126
T2
X0.0551Y-1.498
X0.0984Y-0.0394
X0.0984Y-3.8976
X0.1614Y-1.7638
X0.1969Y-0.0394
X0.1969Y-3.8976
X0.2953Y-0.0394
X0.2953Y-3.8976
X0.3937Y-0.0394
X0.3937Y-3.8976
X0.4843Y-1.498
X0.4862Y-2.1929
X0.4921Y-0.0394
X0.4921Y-3.8976
X0.5906Y-0.0394
X0.5906Y-3.8976
X0.6673Y-3.2047
X0.6693Y-1.5354
X0.6693Y-1.9528
X0.6693Y-2.3701
X0.6713Y-2.7835
X0.689Y-0.0394
X0.689Y-3.8976
X0.8858Y-0.0394
X0.8858Y-3.8976
X0.9843Y-0.0394
X0.9843Y-3.8976
X1.0827Y-0.0394
X1.0827Y-3.8976
X1.1811Y-0.0394
X1.1811Y-3.8976
X1.2008Y-0.2126
X1.2795Y-0.0394
X1.2795Y-3.8976
X1.378Y-0.0394
X1.378Y-3.8976
X1.4134Y-2.1772
X1.4173Y-2.5669
X1.4213Y-1.7441
X1.4252Y-2.9961
X1.4331Y-3.189
X1.4764Y-0.0394
X1.4764Y-3.8976
X1.5236Y-3.563
X1.5276Y-1.4764
X1.5276Y-1.8976
X1.5276Y-2.3228
X1.5276Y-2.7323
X1.5315Y-3.1417
X1.5748Y-0.0394
X1.5748Y-3.8976
X1.6732Y-0.0394
X1.6732Y-3.8976
X1.7717Y-0.0394
X1.7717Y-3.8976
X1.8701Y-0.0394
X1.8701Y-3.8976
X1.9685Y-0.0394
X1.9685Y-3.8976
X1.9724Y-0.2126
X2.0669Y-0.0394
X2.0669Y-3.8976
X2.1535Y-1.4764
X2.1535Y-1.8937
X2.1575Y-2.2992
X2.1575Y-2.7283
X2.1575Y-3.1417
X2.1575Y-3.5669
X2.1654Y-0.0394
X2.1654Y-3.8976
X2.2638Y-0.0394
X2.2638Y-3.8976
X2.3622Y-0.0394
X2.3622Y-3.8976
X2.4134Y-0.7244
X2.4606Y-0.0394
X2.4606Y-3.8976
X2.5591Y-0.0394
X2.5591Y-3.8976
X2.5906Y-2.063
X2.5906Y-2.4803
X2.5906Y-2.8976
X2.5906Y-3.315
X2.5945Y-1.2283
X2.5945Y-1.6457
X2.6575Y-0.0394
X2.6575Y-3.8976
X2.7559Y-0.0394
X2.7559Y-3.8976
X2.7677Y-0.7047
X2.8075Y-0.3917
X2.8098Y-1.0031
X2.8543Y-0.0394
X2.8543Y-3.8976
X2.8976Y-3.3661
X2.9016Y-0.7913
X2.9291Y-0.5512
X2.9528Y-0.0394
X2.9528Y-3.8976
X2.9567Y-1.0945
X3.0512Y-0.0394
X3.0512Y-3.8976
X3.1496Y-0.0394
X3.1496Y-3.8976
X3.1693Y-0.4173
X3.1791Y-0.7087
X3.185Y-0.9961
X3.2008Y-2.126
X3.2008Y-2.5394
X3.2008Y-2.9488
X3.2047Y-1.7087
X3.248Y-0.0394
X3.248Y-3.8976
X3.311Y-0.563
X3.311Y-0.8386
X3.3386Y-0.248
X3.3465Y-0.0394
X3.3465Y-3.8976
X3.4449Y-0.0394
X3.4449Y-3.8976
X3.4685Y-0.9449
X3.4685Y-2.9488
X3.4744Y-2.439
X3.498Y-3.2421
X3.5079Y-2.1772
X3.5118Y-2.5925
X3.5433Y-0.0394
X3.5433Y-3.8976
X3.5748Y-3.4094
X3.5984Y-1.8228
X3.6417Y-0.0394
X3.6417Y-3.8976
X3.6594Y-2.8189
X3.6969Y-2.5079
X3.7047Y-2.9449
X3.7283Y-2.0906
X3.748Y-2.4843
X3.7874Y-2.4409
X3.8346Y-1.4882
X3.8465Y-0.7992
X3.9764Y-0.0394
X3.9764Y-3.8976
X4.0764Y-0.0394
X4.0764Y-3.8976
X4.1575Y-3.0197
X4.1764Y-0.0394
X4.1764Y-3.8976
X4.252Y-2.0217
X4.252Y-2.1102
X4.2764Y-0.0394
X4.2764Y-3.8976
X4.3346Y-1.874
X4.3346Y-1.9724
X4.3346Y-2.1142
X4.3764Y-0.0394
X4.3764Y-3.8976
X4.3858Y-2.2559
X4.4764Y-0.0394
X4.4764Y-3.8976
X4.5118Y-3.0669
X4.5764Y-0.0394
X4.5764Y-3.8976
X4.6063Y-2.5433
X4.6437Y-2.8189
X4.6496Y-3.5827
X4.6764Y-0.0394
X4.6764Y-3.8976
X4.7764Y-0.0394
X4.7764Y-3.8976
X4.7795Y-1.3504
X4.8681Y-2.0059
X4.8681Y-2.2559
X4.8764Y-0.0394
X4.8764Y-3.8976
X4.9311Y-2.4114
X4.9311Y-2.5669
X4.9724Y-0.8976
X4.9724Y-1.0551
X4.9764Y-0.0394
X4.9764Y-3.8976
X4.9961Y-1.437
X5.0764Y-0.0394
X5.0764Y-3.8976
X5.1063Y-3.0787
X5.1764Y-0.0394
X5.1764Y-3.8976
X5.1811Y-0.9606
X5.252Y-2.5787
X5.2756Y-1.7313
X5.3406Y-2.3858
X5.3465Y-1.0079
X5.4764Y-0.0394
X5.4764Y-3.8976
X5.563Y-1.2441
X5.5764Y-0.0394
X5.5764Y-3.8976
X5.6693Y-1.1417
X5.6693Y-1.2417
X5.6693Y-1.3417
X5.6764Y-0.0394
X5.6764Y-3.8976
X5.7559Y-1.4016
X5.7717Y-0.2953
X5.7764Y-0.0394
X5.7764Y-3.8976
X5.7795Y-0.8268
X5.7795Y-3.4961
X5.7795Y-3.5984
X5.8583Y-1.4764
T3
X2.8472Y-2.6795
X2.8472Y-2.8795
X2.9472Y-2.6795
X2.9472Y-2.8795
X3.0472Y-2.6795
X3.0472Y-2.8795
X3.2472Y-2.6795
X3.2472Y-2.8795
X4.2346Y-3.174
X4.2346Y-3.374
X4.2346Y-3.474
X4.2346Y-3.574
X4.4346Y-3.174
X4.4346Y-3.374
X4.4346Y-3.474
X4.4346Y-3.574
X0.8787Y-2.6874
X0.8787Y-2.8874
X1.0787Y-2.6874
X1.0787Y-2.8874
X1.1787Y-2.6874
X1.1787Y-2.8874
X1.2787Y-2.6874
X1.2787Y-2.8874
X2.8433Y-2.2701
X2.8433Y-2.4701
X2.9433Y-2.2701
X2.9433Y-2.4701
X3.0433Y-2.2701
X3.0433Y-2.4701
X3.2433Y-2.2701
X3.2433Y-2.4701
X0.8827Y-2.2701
X0.8827Y-2.4701
X1.0827Y-2.2701
X1.0827Y-2.4701
X1.1827Y-2.2701
X1.1827Y-2.4701
X1.2827Y-2.2701
X1.2827Y-2.4701
X4.7425Y-3.174
X4.7425Y-3.374
X4.7425Y-3.474
X4.7425Y-3.574
X4.9425Y-3.174
X4.9425Y-3.374
X4.9425Y-3.474
X4.9425Y-3.574
X2.8472Y-3.1008
X2.8472Y-3.3008
X2.9472Y-3.1008
X2.9472Y-3.3008
X3.0472Y-3.1008
X3.0472Y-3.3008
X3.2472Y-3.1008
X3.2472Y-3.3008
X4.2346Y-2.5102
X4.2346Y-2.6102
X4.2346Y-2.7102
X4.2346Y-2.9102
X4.4346Y-2.5102
X4.4346Y-2.6102
X4.4346Y-2.7102
X4.4346Y-2.9102
X0.8748Y-3.1047
X0.8748Y-3.3047
X1.0748Y-3.1047
X1.0748Y-3.3047
X1.1748Y-3.1047
X1.1748Y-3.3047
X1.2748Y-3.1047
X1.2748Y-3.3047
X5.6654Y-1.8976
X5.6654Y-1.9976
X0.8866Y-1.8528
X0.8866Y-2.0528
X1.0866Y-1.8528
X1.0866Y-2.0528
X1.1866Y-1.8528
X1.1866Y-2.0528
X1.2866Y-1.8528
X1.2866Y-2.0528
X0.8827Y-1.4354
X0.8827Y-1.6354
X1.0827Y-1.4354
X1.0827Y-1.6354
X1.1827Y-1.4354
X1.1827Y-1.6354
X1.2827Y-1.4354
X1.2827Y-1.6354
X2.8433Y-1.4354
X2.8433Y-1.6354
X2.9433Y-1.4354
X2.9433Y-1.6354
X3.0433Y-1.4354
X3.0433Y-1.6354
X3.2433Y-1.4354
X3.2433Y-1.6354
X2.8433Y-1.8528
X2.8433Y-2.0528
X2.9433Y-1.8528
X2.9433Y-2.0528
X3.0433Y-1.8528
X3.0433Y-2.0528
X3.2433Y-1.8528
X3.2433Y-2.0528
T4
X0.8268Y-1.0945
X2.2736Y-1.0945
X3.622Y-2.2717
X4.6535Y-2.7362
X4.6535Y-2.9016
X5.0551Y-2.4409
X5.1575Y-3.5827
X5.5669Y-0.5236
X5.5669Y-0.5945
X5.5669Y-0.6654
X5.5984Y-3.5827
X5.6614Y-0.5236
X5.6614Y-0.5945
X5.6614Y-0.6654
X5.689Y-2.7362
X5.689Y-2.9016
X0.5079Y-0.5827
X0.5079Y-0.6827
T5
X4.9803Y-3.0512
X0.2591Y-1.5945
X0.2591Y-1.6945
X0.2591Y-1.7945
X0.2591Y-1.8945
X0.2591Y-1.9945
X0.2591Y-2.0945
X2.274Y-3.3094
X2.474Y-3.5079
X0.1654Y-2.8307
X0.1654Y-2.9291
X1.652Y-2.4748
X1.852Y-2.6732
X2.274Y-2.0575
X2.474Y-2.2559
X3.8858Y-1.6728
X3.8858Y-1.7728
X3.8858Y-1.8728
X3.8858Y-1.9728
X3.8858Y-2.0728
X3.8858Y-2.1728
X3.8858Y-2.2728
X3.8858Y-2.3728
X3.8858Y-2.4728
X3.8858Y-2.5728
X3.8858Y-2.6728
X3.8858Y-2.7728
X3.8858Y-2.8728
X3.8858Y-2.9728
X3.8858Y-3.0728
X3.8858Y-3.1728
X3.8858Y-3.2728
X3.8858Y-3.3728
X3.8858Y-3.4728
X3.8858Y-3.5728
X2.274Y-2.8921
X2.474Y-3.0906
X5.4685Y-0.374
X5.4685Y-0.5709
X1.652Y-1.2228
X1.852Y-1.4213
X1.652Y-2.8921
X1.852Y-3.0906
X1.652Y-2.0575
X1.852Y-2.2559
X3.8858Y-0.3724
X3.8858Y-0.4724
X3.8858Y-0.5724
X1.652Y-3.3094
X1.852Y-3.5079
X2.274Y-2.4748
X2.474Y-2.6732
X2.274Y-1.6402
X2.474Y-1.8386
X1.652Y-1.6402
X1.852Y-1.8386
X2.274Y-1.2228
X2.474Y-1.4213
T6
X5.7795Y-1.8472
X5.7795Y-1.9472
X5.7795Y-2.0472
X5.7795Y-0.9654
X5.7795Y-1.0654
X5.7795Y-1.1654
T7
X3.5433Y-0.4961
X3.6811Y-0.4961
X1.9724Y-0.6654
X1.9724Y-0.9449
X2.0276Y-0.5433
X2.2717Y-0.3937
X1.185Y-0.6654
X1.185Y-0.9449
X1.2402Y-0.5433
X1.4843Y-0.3937
T8
X4.126Y-0.5197
X4.3228Y-0.5197
T9
X0.3079Y-0.3827
X0.3079Y-0.7827
T10
X0.3937Y-3.4646
T11
X0.2165Y-3.4646
T12
X5.315Y-3.8189
X5.3543Y-0.1181
X3.8189Y-0.1181
X3.8189Y-3.8189
X0.7874Y-0.1181
X0.7874Y-3.8189
T13
X0.0925Y-3.2972
T14
X0.0925Y-3.6319
T0
M30
