G04 #@! TF.GenerationSoftware,KiCad,Pcbnew,(5.1.5)-3*
G04 #@! TF.CreationDate,2020-02-21T20:44:02+01:00*
G04 #@! TF.ProjectId,HL2_MRF101,484c325f-4d52-4463-9130-312e6b696361,2.0-build8*
G04 #@! TF.SameCoordinates,PX42c1d80PY2625a00*
G04 #@! TF.FileFunction,Copper,L2,Inr*
G04 #@! TF.FilePolarity,Positive*
%FSLAX46Y46*%
G04 Gerber Fmt 4.6, Leading zero omitted, Abs format (unit mm)*
G04 Created by KiCad (PCBNEW (5.1.5)-3) date 2020-02-21 20:44:02*
%MOMM*%
%LPD*%
G04 APERTURE LIST*
%ADD10O,2.000000X1.700000*%
%ADD11C,0.100000*%
%ADD12C,2.400000*%
%ADD13R,2.400000X2.400000*%
%ADD14O,1.600000X1.600000*%
%ADD15R,1.600000X1.600000*%
%ADD16C,1.850000*%
%ADD17O,1.700000X1.700000*%
%ADD18R,1.700000X1.700000*%
%ADD19C,5.300000*%
%ADD20R,2.600000X2.600000*%
%ADD21C,2.600000*%
%ADD22O,2.500000X1.600000*%
%ADD23O,7.000000X3.500000*%
%ADD24R,2.000000X2.000000*%
%ADD25C,2.000000*%
%ADD26C,3.500000*%
%ADD27C,4.200000*%
%ADD28R,2.000000X1.905000*%
%ADD29O,2.000000X1.905000*%
%ADD30C,1.300000*%
%ADD31C,0.800000*%
%ADD32C,0.600000*%
%ADD33C,1.600000*%
%ADD34C,1.000000*%
%ADD35C,0.350000*%
%ADD36C,0.500000*%
%ADD37C,0.254000*%
G04 APERTURE END LIST*
D10*
X4200000Y-71900000D03*
G04 #@! TA.AperFunction,ViaPad*
D11*
G36*
X4974594Y-73551203D02*
G01*
X4998853Y-73554802D01*
X5022642Y-73560761D01*
X5045733Y-73569023D01*
X5067902Y-73579508D01*
X5088937Y-73592116D01*
X5108635Y-73606725D01*
X5126806Y-73623194D01*
X5143275Y-73641365D01*
X5157884Y-73661063D01*
X5170492Y-73682098D01*
X5180977Y-73704267D01*
X5189239Y-73727358D01*
X5195198Y-73751147D01*
X5198797Y-73775406D01*
X5200000Y-73799900D01*
X5200000Y-75000100D01*
X5198797Y-75024594D01*
X5195198Y-75048853D01*
X5189239Y-75072642D01*
X5180977Y-75095733D01*
X5170492Y-75117902D01*
X5157884Y-75138937D01*
X5143275Y-75158635D01*
X5126806Y-75176806D01*
X5108635Y-75193275D01*
X5088937Y-75207884D01*
X5067902Y-75220492D01*
X5045733Y-75230977D01*
X5022642Y-75239239D01*
X4998853Y-75245198D01*
X4974594Y-75248797D01*
X4950100Y-75250000D01*
X3449900Y-75250000D01*
X3425406Y-75248797D01*
X3401147Y-75245198D01*
X3377358Y-75239239D01*
X3354267Y-75230977D01*
X3332098Y-75220492D01*
X3311063Y-75207884D01*
X3291365Y-75193275D01*
X3273194Y-75176806D01*
X3256725Y-75158635D01*
X3242116Y-75138937D01*
X3229508Y-75117902D01*
X3219023Y-75095733D01*
X3210761Y-75072642D01*
X3204802Y-75048853D01*
X3201203Y-75024594D01*
X3200000Y-75000100D01*
X3200000Y-73799900D01*
X3201203Y-73775406D01*
X3204802Y-73751147D01*
X3210761Y-73727358D01*
X3219023Y-73704267D01*
X3229508Y-73682098D01*
X3242116Y-73661063D01*
X3256725Y-73641365D01*
X3273194Y-73623194D01*
X3291365Y-73606725D01*
X3311063Y-73592116D01*
X3332098Y-73579508D01*
X3354267Y-73569023D01*
X3377358Y-73560761D01*
X3401147Y-73554802D01*
X3425406Y-73551203D01*
X3449900Y-73550000D01*
X4950100Y-73550000D01*
X4974594Y-73551203D01*
G37*
G04 #@! TD.AperFunction*
D12*
X90000000Y-12600000D03*
D13*
X93500000Y-12600000D03*
D14*
X143900000Y-50740000D03*
D15*
X143900000Y-48200000D03*
D16*
X62840000Y-56100000D03*
X57760000Y-51060000D03*
D17*
X6580000Y-53200000D03*
X6580000Y-50660000D03*
X6580000Y-48120000D03*
X6580000Y-45580000D03*
X6580000Y-43040000D03*
D18*
X6580000Y-40500000D03*
D19*
X20000000Y-3000000D03*
X97000000Y-3000000D03*
X136000000Y-3000000D03*
X135000000Y-97000000D03*
X98000000Y-97000000D03*
X20000000Y-97000000D03*
D17*
X98700000Y-42490000D03*
X98700000Y-45030000D03*
X98700000Y-47570000D03*
X98700000Y-50110000D03*
X98700000Y-52650000D03*
X98700000Y-55190000D03*
X98700000Y-57730000D03*
X98700000Y-60270000D03*
X98700000Y-62810000D03*
X98700000Y-65350000D03*
X98700000Y-67890000D03*
X98700000Y-70430000D03*
X98700000Y-72970000D03*
X98700000Y-75510000D03*
X98700000Y-78050000D03*
X98700000Y-80590000D03*
X98700000Y-83130000D03*
X98700000Y-85670000D03*
X98700000Y-88210000D03*
D18*
X98700000Y-90750000D03*
D20*
X109800000Y-13200000D03*
D21*
X104800000Y-13200000D03*
D12*
X51000000Y-24000000D03*
X51000000Y-16900000D03*
X58600000Y-10000000D03*
X52400000Y-13800000D03*
X31000000Y-24000000D03*
X31000000Y-16900000D03*
X38600000Y-10000000D03*
X32400000Y-13800000D03*
D22*
X12900000Y-17340000D03*
X12900000Y-14800000D03*
D23*
X7820000Y-9720000D03*
X7820000Y-19880000D03*
D16*
X82380000Y-40940000D03*
X77300000Y-40940000D03*
X74760000Y-40940000D03*
X72220000Y-40940000D03*
X72220000Y-35860000D03*
X74760000Y-35860000D03*
X77300000Y-35860000D03*
X82380000Y-35860000D03*
X82380000Y-50940000D03*
X77300000Y-50940000D03*
X74760000Y-50940000D03*
X72220000Y-50940000D03*
X72220000Y-45860000D03*
X74760000Y-45860000D03*
X77300000Y-45860000D03*
X82380000Y-45860000D03*
X82380000Y-60940000D03*
X77300000Y-60940000D03*
X74760000Y-60940000D03*
X72220000Y-60940000D03*
X72220000Y-55860000D03*
X74760000Y-55860000D03*
X77300000Y-55860000D03*
X82380000Y-55860000D03*
X82480000Y-70840000D03*
X77400000Y-70840000D03*
X74860000Y-70840000D03*
X72320000Y-70840000D03*
X72320000Y-65760000D03*
X74860000Y-65760000D03*
X77400000Y-65760000D03*
X82480000Y-65760000D03*
X82480000Y-80940000D03*
X77400000Y-80940000D03*
X74860000Y-80940000D03*
X72320000Y-80940000D03*
X72320000Y-75860000D03*
X74860000Y-75860000D03*
X77400000Y-75860000D03*
X82480000Y-75860000D03*
X23320000Y-35860000D03*
X28400000Y-35860000D03*
X30940000Y-35860000D03*
X33480000Y-35860000D03*
X33480000Y-40940000D03*
X30940000Y-40940000D03*
X28400000Y-40940000D03*
X23320000Y-40940000D03*
X23420000Y-45860000D03*
X28500000Y-45860000D03*
X31040000Y-45860000D03*
X33580000Y-45860000D03*
X33580000Y-50940000D03*
X31040000Y-50940000D03*
X28500000Y-50940000D03*
X23420000Y-50940000D03*
X23320000Y-55860000D03*
X28400000Y-55860000D03*
X30940000Y-55860000D03*
X33480000Y-55860000D03*
X33480000Y-60940000D03*
X30940000Y-60940000D03*
X28400000Y-60940000D03*
X23320000Y-60940000D03*
X23220000Y-65860000D03*
X28300000Y-65860000D03*
X30840000Y-65860000D03*
X33380000Y-65860000D03*
X33380000Y-70940000D03*
X30840000Y-70940000D03*
X28300000Y-70940000D03*
X23220000Y-70940000D03*
X23220000Y-75860000D03*
X28300000Y-75860000D03*
X30840000Y-75860000D03*
X33380000Y-75860000D03*
X33380000Y-80940000D03*
X30840000Y-80940000D03*
X28300000Y-80940000D03*
X23220000Y-80940000D03*
X112640000Y-80620000D03*
X112640000Y-85700000D03*
X112640000Y-88240000D03*
X112640000Y-90780000D03*
X107560000Y-90780000D03*
X107560000Y-88240000D03*
X107560000Y-85700000D03*
X107560000Y-80620000D03*
X107560000Y-73920000D03*
X107560000Y-68840000D03*
X107560000Y-66300000D03*
X107560000Y-63760000D03*
X112640000Y-63760000D03*
X112640000Y-66300000D03*
X112640000Y-68840000D03*
X112640000Y-73920000D03*
X125540000Y-80620000D03*
X125540000Y-85700000D03*
X125540000Y-88240000D03*
X125540000Y-90780000D03*
X120460000Y-90780000D03*
X120460000Y-88240000D03*
X120460000Y-85700000D03*
X120460000Y-80620000D03*
X57760000Y-31060000D03*
X62840000Y-36100000D03*
X62840000Y-46100000D03*
X57760000Y-41060000D03*
X57760000Y-61060000D03*
X62840000Y-66100000D03*
X57760000Y-71060000D03*
X62840000Y-76100000D03*
X57760000Y-81060000D03*
X62840000Y-86100000D03*
X42860000Y-31060000D03*
X47940000Y-36100000D03*
X47940000Y-46100000D03*
X42860000Y-41060000D03*
X42860000Y-51060000D03*
X47940000Y-56100000D03*
X42860000Y-61060000D03*
X47940000Y-66100000D03*
X42860000Y-71060000D03*
X47940000Y-76100000D03*
X42860000Y-81060000D03*
X47940000Y-86100000D03*
D24*
X138900000Y-14500000D03*
D25*
X138900000Y-9500000D03*
D26*
X10000000Y-88000000D03*
D27*
X5500000Y-88000000D03*
D28*
X146800000Y-52000000D03*
D29*
X146800000Y-49460000D03*
X146800000Y-46920000D03*
D28*
X146800000Y-29600000D03*
D29*
X146800000Y-27060000D03*
X146800000Y-24520000D03*
D18*
X98700000Y-9460000D03*
D17*
X98700000Y-12000000D03*
X98700000Y-14540000D03*
D30*
X92000000Y-57700000D03*
D31*
X86800000Y-68000000D03*
X90800000Y-86600000D03*
X75100000Y-27800000D03*
D30*
X57750000Y-27800000D03*
X21000000Y-27800000D03*
D31*
X125250000Y-65200000D03*
X125250000Y-61250000D03*
X17500000Y-99000000D03*
X37500000Y-99000000D03*
X47500000Y-99000000D03*
X52500000Y-99000000D03*
X55000000Y-99000000D03*
X57500000Y-99000000D03*
X60000000Y-99000000D03*
X62500000Y-99000000D03*
X65000000Y-99000000D03*
X67500000Y-99000000D03*
X2500000Y-99000000D03*
X5000000Y-99000000D03*
X7500000Y-99000000D03*
X10000000Y-99000000D03*
X15000000Y-99000000D03*
X40000000Y-99000000D03*
X42500000Y-99000000D03*
X45000000Y-99000000D03*
X50000000Y-99000000D03*
X12500000Y-99000000D03*
X32500000Y-99000000D03*
X75000000Y-99000000D03*
X22500000Y-99000000D03*
X25000000Y-99000000D03*
X87500000Y-99000000D03*
X72500000Y-99000000D03*
X70000000Y-99000000D03*
X82500000Y-99000000D03*
X92500000Y-99000000D03*
X35000000Y-99000000D03*
X27500000Y-99000000D03*
X77500000Y-99000000D03*
X85000000Y-99000000D03*
X80000000Y-99000000D03*
X30000000Y-99000000D03*
X90000000Y-99000000D03*
X101000000Y-1000000D03*
X103540000Y-1000000D03*
X106080000Y-1000000D03*
X108620000Y-1000000D03*
X111160000Y-1000000D03*
X113700000Y-1000000D03*
X116240000Y-1000000D03*
X118780000Y-1000000D03*
X121320000Y-1000000D03*
X123860000Y-1000000D03*
X126400000Y-1000000D03*
X128940000Y-1000000D03*
X131480000Y-1000000D03*
X144180000Y-1000000D03*
X146720000Y-1000000D03*
X101000000Y-99000000D03*
X103540000Y-99000000D03*
X106080000Y-99000000D03*
X108620000Y-99000000D03*
X111160000Y-99000000D03*
X113700000Y-99000000D03*
X116240000Y-99000000D03*
X118780000Y-99000000D03*
X121320000Y-99000000D03*
X123860000Y-99000000D03*
X126400000Y-99000000D03*
X128940000Y-99000000D03*
X131480000Y-99000000D03*
X139100000Y-99000000D03*
X141640000Y-99000000D03*
X144180000Y-99000000D03*
X146720000Y-99000000D03*
X72500000Y-1000000D03*
X80000000Y-1000000D03*
X85000000Y-1000000D03*
X77500000Y-1000000D03*
X30000000Y-1000000D03*
X22500000Y-1000000D03*
X82500000Y-1000000D03*
X90000000Y-1000000D03*
X32500000Y-1000000D03*
X70000000Y-1000000D03*
X92500000Y-1000000D03*
X65000000Y-1000000D03*
X35000000Y-1000000D03*
X27500000Y-1000000D03*
X87500000Y-1000000D03*
X75000000Y-1000000D03*
X25000000Y-1000000D03*
X67500000Y-1000000D03*
X37500000Y-1000000D03*
X62500000Y-1000000D03*
X50000000Y-1000000D03*
X17500000Y-1000000D03*
X7500000Y-1000000D03*
X60000000Y-1000000D03*
X57500000Y-1000000D03*
X55000000Y-1000000D03*
X12500000Y-1000000D03*
X52500000Y-1000000D03*
X15000000Y-1000000D03*
X47500000Y-1000000D03*
X45000000Y-1000000D03*
X42500000Y-1000000D03*
X40000000Y-1000000D03*
X2500000Y-1000000D03*
X5000000Y-1000000D03*
X10000000Y-1000000D03*
X80750000Y-18000000D03*
X94700000Y-53100000D03*
D30*
X118200000Y-69500000D03*
X118200000Y-73700000D03*
X144500000Y-69500000D03*
X144500000Y-73700000D03*
X131000000Y-91000000D03*
D31*
X74400000Y-14000000D03*
X73700000Y-20100000D03*
X61300000Y-18400000D03*
X70300000Y-17900000D03*
X71370000Y-25480000D03*
X80500000Y-10600000D03*
X80900000Y-25300000D03*
X88100000Y-24000000D03*
X91400000Y-46300000D03*
X105600000Y-76700000D03*
X111400000Y-57300000D03*
X141640000Y-1000000D03*
X139100000Y-1000000D03*
X71310000Y-9950000D03*
X146800000Y-88800000D03*
X146800000Y-91400000D03*
X118100000Y-91000000D03*
X114600000Y-77900000D03*
D30*
X142200000Y-91000000D03*
D31*
X74000000Y-89400000D03*
X83900000Y-42300000D03*
X83900000Y-52500000D03*
X83200000Y-72600000D03*
X83900000Y-62000000D03*
X37300000Y-81000000D03*
X73400000Y-83100000D03*
X36800000Y-43400000D03*
X36800000Y-53500000D03*
X36900000Y-63400000D03*
X37000000Y-73400000D03*
X39700000Y-47600000D03*
X39700000Y-37500000D03*
X39700000Y-57800000D03*
X39700000Y-67600000D03*
X39800000Y-77400000D03*
X39600000Y-87500000D03*
X54800000Y-87600000D03*
X54800000Y-77400000D03*
X54800000Y-67500000D03*
X54800000Y-57200000D03*
X54700000Y-47500000D03*
X54700000Y-37500000D03*
X65900000Y-31200000D03*
X65900000Y-41200000D03*
X65800000Y-51200000D03*
X65800000Y-61200000D03*
X65800000Y-71200000D03*
X65800000Y-81200000D03*
X88100000Y-74900000D03*
X89200000Y-65850000D03*
X92950000Y-71600000D03*
X88850000Y-82350000D03*
X12300000Y-38050000D03*
X12350000Y-55700000D03*
X1400000Y-38050000D03*
D32*
X27100000Y-48450000D03*
X27000000Y-38400000D03*
X27000000Y-58450000D03*
X27000000Y-68400000D03*
X27050000Y-78400000D03*
X78700000Y-78400000D03*
X78700000Y-68300000D03*
X78700000Y-58350000D03*
X78700000Y-48350000D03*
X78700000Y-38350000D03*
X110100000Y-73150000D03*
X110050000Y-81150000D03*
X124300000Y-81600000D03*
D30*
X128400000Y-62000000D03*
D31*
X108000000Y-53600000D03*
X108000000Y-51350000D03*
X123650000Y-57300000D03*
X123650000Y-50950000D03*
X134000000Y-43975000D03*
X144000000Y-29000000D03*
X144000000Y-31540000D03*
X144000000Y-34080000D03*
X126900000Y-36500000D03*
X148800000Y-37500000D03*
X135800000Y-25600000D03*
X131600000Y-24400000D03*
X126300000Y-22800000D03*
X126300000Y-26800000D03*
X121400000Y-34300000D03*
X117000000Y-64600000D03*
X133400000Y-65500000D03*
X141300000Y-31600000D03*
X146200000Y-35600000D03*
X146800000Y-21000000D03*
X17900000Y-38400000D03*
X17900000Y-48400000D03*
X17900000Y-58400000D03*
X17950000Y-68300000D03*
X17950000Y-78400000D03*
X135650000Y-60600000D03*
X129700000Y-78200000D03*
X93900000Y-63700000D03*
X117950000Y-71600000D03*
X95200000Y-63100000D03*
X96200000Y-62000000D03*
X110100000Y-53700000D03*
X110100000Y-50100000D03*
D33*
X126500000Y-77500000D03*
D31*
X84100000Y-21300000D03*
X84100000Y-14300000D03*
D30*
X143800000Y-13300000D03*
X141400000Y-13300000D03*
X141400000Y-15100000D03*
X143800000Y-15100000D03*
X141400000Y-16900000D03*
X143800000Y-16900000D03*
D31*
X88250000Y-61950000D03*
X94100000Y-74800000D03*
D34*
X21060000Y-40940000D02*
X23320000Y-40940000D01*
X21000000Y-41000000D02*
X21060000Y-40940000D01*
X21000000Y-51200000D02*
X21260000Y-50940000D01*
X21260000Y-50940000D02*
X23420000Y-50940000D01*
X21000000Y-51200000D02*
X21000000Y-41000000D01*
X21060000Y-60940000D02*
X23320000Y-60940000D01*
X21000000Y-61000000D02*
X21060000Y-60940000D01*
X21000000Y-61000000D02*
X21000000Y-51200000D01*
X21140000Y-70940000D02*
X23220000Y-70940000D01*
X21000000Y-70800000D02*
X21140000Y-70940000D01*
X21000000Y-80200000D02*
X21000000Y-70800000D01*
X21000000Y-70800000D02*
X21000000Y-61000000D01*
X84860000Y-35860000D02*
X82380000Y-35860000D01*
X85000000Y-36000000D02*
X84860000Y-35860000D01*
X84940000Y-45860000D02*
X82380000Y-45860000D01*
X85000000Y-45800000D02*
X84940000Y-45860000D01*
X85000000Y-45800000D02*
X85000000Y-36000000D01*
X85000000Y-56000000D02*
X84860000Y-55860000D01*
X84860000Y-55860000D02*
X82380000Y-55860000D01*
X85000000Y-56000000D02*
X85000000Y-45800000D01*
X84960000Y-65760000D02*
X82480000Y-65760000D01*
X85000000Y-65800000D02*
X84960000Y-65760000D01*
X107560000Y-79000000D02*
X112640000Y-73920000D01*
X107560000Y-80620000D02*
X107560000Y-79000000D01*
X75100000Y-27800000D02*
X57750000Y-27800000D01*
X85000000Y-57700000D02*
X92000000Y-57700000D01*
X85000000Y-65800000D02*
X85000000Y-57700000D01*
X85000000Y-57700000D02*
X85000000Y-56000000D01*
D35*
X85000000Y-67900000D02*
X85100000Y-68000000D01*
D34*
X85000000Y-74648147D02*
X85000000Y-67900000D01*
D35*
X85100000Y-68000000D02*
X86800000Y-68000000D01*
D34*
X85000000Y-67900000D02*
X85000000Y-65800000D01*
X84660000Y-75860000D02*
X82480000Y-75860000D01*
X85000000Y-76200000D02*
X84660000Y-75860000D01*
X85000000Y-74648147D02*
X85000000Y-76200000D01*
X122800000Y-82960000D02*
X120460000Y-80620000D01*
X122800000Y-92200000D02*
X122800000Y-82960000D01*
X121500000Y-93500000D02*
X122800000Y-92200000D01*
X106251853Y-80620000D02*
X107560000Y-80620000D01*
X104000000Y-82871853D02*
X106251853Y-80620000D01*
X104000000Y-93500000D02*
X104000000Y-82871853D01*
X104000000Y-93500000D02*
X121500000Y-93500000D01*
X85000000Y-76200000D02*
X85000000Y-86300000D01*
D35*
X85300000Y-86600000D02*
X90800000Y-86600000D01*
X85000000Y-86300000D02*
X85300000Y-86600000D01*
D34*
X98000000Y-93500000D02*
X104000000Y-93500000D01*
X95500000Y-91000000D02*
X98000000Y-93500000D01*
X24350000Y-91000000D02*
X21000000Y-87650000D01*
X21140000Y-80940000D02*
X23220000Y-80940000D01*
X21000000Y-80800000D02*
X21140000Y-80940000D01*
X21000000Y-80800000D02*
X21000000Y-80200000D01*
X21000000Y-87650000D02*
X21000000Y-80800000D01*
X24350000Y-91000000D02*
X85200000Y-91000000D01*
X85000000Y-90800000D02*
X85200000Y-91000000D01*
X85000000Y-86300000D02*
X85000000Y-90800000D01*
X85200000Y-91000000D02*
X95500000Y-91000000D01*
X21000000Y-29800000D02*
X21000000Y-27800000D01*
X21000000Y-29800000D02*
X21000000Y-41000000D01*
D36*
X125250000Y-61250000D02*
X125250000Y-65200000D01*
D35*
X100600000Y-64100000D02*
X94300000Y-64100000D01*
X94300000Y-64100000D02*
X93900000Y-63700000D01*
X103800000Y-67300000D02*
X100600000Y-64100000D01*
X105500000Y-71600000D02*
X103800000Y-69900000D01*
X103800000Y-69900000D02*
X103800000Y-67300000D01*
X117950000Y-71600000D02*
X105500000Y-71600000D01*
X95200000Y-63100000D02*
X96700000Y-63100000D01*
X96700000Y-63100000D02*
X97200000Y-62600000D01*
X97200000Y-62600000D02*
X97200000Y-54150000D01*
X97200000Y-54150000D02*
X98700000Y-52650000D01*
X96200000Y-52610000D02*
X98700000Y-50110000D01*
X96200000Y-62000000D02*
X96200000Y-52610000D01*
X110100000Y-50665685D02*
X110100000Y-53700000D01*
X110100000Y-50100000D02*
X110100000Y-50665685D01*
D36*
X88250000Y-68950000D02*
X94100000Y-74800000D01*
X88250000Y-61950000D02*
X88250000Y-68950000D01*
D37*
G36*
X126373000Y-76073000D02*
G01*
X126359453Y-76073000D01*
X126083759Y-76127838D01*
X125824062Y-76235409D01*
X125590340Y-76391576D01*
X125391576Y-76590340D01*
X125235409Y-76824062D01*
X125127838Y-77083759D01*
X125073000Y-77359453D01*
X125073000Y-77640547D01*
X125127838Y-77916241D01*
X125235409Y-78175938D01*
X125391576Y-78409660D01*
X125590340Y-78608424D01*
X125824062Y-78764591D01*
X126083759Y-78872162D01*
X126359453Y-78927000D01*
X126373000Y-78927000D01*
X126373000Y-79073000D01*
X125717995Y-79073000D01*
X125692859Y-79068000D01*
X125387141Y-79068000D01*
X125362005Y-79073000D01*
X120637995Y-79073000D01*
X120612859Y-79068000D01*
X120307141Y-79068000D01*
X120282005Y-79073000D01*
X119300000Y-79073000D01*
X119275224Y-79075440D01*
X119251399Y-79082667D01*
X119229443Y-79094403D01*
X119210197Y-79110197D01*
X119194403Y-79129443D01*
X119182667Y-79151399D01*
X119175440Y-79175224D01*
X119173000Y-79200000D01*
X119173000Y-79752606D01*
X119084636Y-79884853D01*
X118967643Y-80167298D01*
X118908000Y-80467141D01*
X118908000Y-80772859D01*
X118967643Y-81072702D01*
X119084636Y-81355147D01*
X119173000Y-81487394D01*
X119173000Y-84832606D01*
X119084636Y-84964853D01*
X118967643Y-85247298D01*
X118908000Y-85547141D01*
X118908000Y-85852859D01*
X118967643Y-86152702D01*
X119084636Y-86435147D01*
X119173000Y-86567394D01*
X119173000Y-87372606D01*
X119084636Y-87504853D01*
X118967643Y-87787298D01*
X118908000Y-88087141D01*
X118908000Y-88392859D01*
X118967643Y-88692702D01*
X119084636Y-88975147D01*
X119173000Y-89107394D01*
X119173000Y-89912606D01*
X119084636Y-90044853D01*
X118967643Y-90327298D01*
X118908000Y-90627141D01*
X118908000Y-90932859D01*
X118967643Y-91232702D01*
X119084636Y-91515147D01*
X119173000Y-91647394D01*
X119173000Y-92073000D01*
X113498414Y-92073000D01*
X113629342Y-91985517D01*
X113845517Y-91769342D01*
X114015364Y-91515147D01*
X114132357Y-91232702D01*
X114192000Y-90932859D01*
X114192000Y-90627141D01*
X114132357Y-90327298D01*
X114015364Y-90044853D01*
X113845517Y-89790658D01*
X113629342Y-89574483D01*
X113532836Y-89510000D01*
X113629342Y-89445517D01*
X113845517Y-89229342D01*
X114015364Y-88975147D01*
X114132357Y-88692702D01*
X114192000Y-88392859D01*
X114192000Y-88087141D01*
X114132357Y-87787298D01*
X114015364Y-87504853D01*
X113845517Y-87250658D01*
X113629342Y-87034483D01*
X113532836Y-86970000D01*
X113629342Y-86905517D01*
X113845517Y-86689342D01*
X114015364Y-86435147D01*
X114132357Y-86152702D01*
X114192000Y-85852859D01*
X114192000Y-85547141D01*
X114132357Y-85247298D01*
X114015364Y-84964853D01*
X113845517Y-84710658D01*
X113629342Y-84494483D01*
X113375147Y-84324636D01*
X113092702Y-84207643D01*
X112792859Y-84148000D01*
X112727000Y-84148000D01*
X112727000Y-82172000D01*
X112792859Y-82172000D01*
X113092702Y-82112357D01*
X113375147Y-81995364D01*
X113629342Y-81825517D01*
X113845517Y-81609342D01*
X114015364Y-81355147D01*
X114132357Y-81072702D01*
X114192000Y-80772859D01*
X114192000Y-80467141D01*
X114132357Y-80167298D01*
X114015364Y-79884853D01*
X113845517Y-79630658D01*
X113629342Y-79414483D01*
X113375147Y-79244636D01*
X113092702Y-79127643D01*
X112792859Y-79068000D01*
X112727000Y-79068000D01*
X112727000Y-75827000D01*
X126373000Y-75827000D01*
X126373000Y-76073000D01*
G37*
X126373000Y-76073000D02*
X126359453Y-76073000D01*
X126083759Y-76127838D01*
X125824062Y-76235409D01*
X125590340Y-76391576D01*
X125391576Y-76590340D01*
X125235409Y-76824062D01*
X125127838Y-77083759D01*
X125073000Y-77359453D01*
X125073000Y-77640547D01*
X125127838Y-77916241D01*
X125235409Y-78175938D01*
X125391576Y-78409660D01*
X125590340Y-78608424D01*
X125824062Y-78764591D01*
X126083759Y-78872162D01*
X126359453Y-78927000D01*
X126373000Y-78927000D01*
X126373000Y-79073000D01*
X125717995Y-79073000D01*
X125692859Y-79068000D01*
X125387141Y-79068000D01*
X125362005Y-79073000D01*
X120637995Y-79073000D01*
X120612859Y-79068000D01*
X120307141Y-79068000D01*
X120282005Y-79073000D01*
X119300000Y-79073000D01*
X119275224Y-79075440D01*
X119251399Y-79082667D01*
X119229443Y-79094403D01*
X119210197Y-79110197D01*
X119194403Y-79129443D01*
X119182667Y-79151399D01*
X119175440Y-79175224D01*
X119173000Y-79200000D01*
X119173000Y-79752606D01*
X119084636Y-79884853D01*
X118967643Y-80167298D01*
X118908000Y-80467141D01*
X118908000Y-80772859D01*
X118967643Y-81072702D01*
X119084636Y-81355147D01*
X119173000Y-81487394D01*
X119173000Y-84832606D01*
X119084636Y-84964853D01*
X118967643Y-85247298D01*
X118908000Y-85547141D01*
X118908000Y-85852859D01*
X118967643Y-86152702D01*
X119084636Y-86435147D01*
X119173000Y-86567394D01*
X119173000Y-87372606D01*
X119084636Y-87504853D01*
X118967643Y-87787298D01*
X118908000Y-88087141D01*
X118908000Y-88392859D01*
X118967643Y-88692702D01*
X119084636Y-88975147D01*
X119173000Y-89107394D01*
X119173000Y-89912606D01*
X119084636Y-90044853D01*
X118967643Y-90327298D01*
X118908000Y-90627141D01*
X118908000Y-90932859D01*
X118967643Y-91232702D01*
X119084636Y-91515147D01*
X119173000Y-91647394D01*
X119173000Y-92073000D01*
X113498414Y-92073000D01*
X113629342Y-91985517D01*
X113845517Y-91769342D01*
X114015364Y-91515147D01*
X114132357Y-91232702D01*
X114192000Y-90932859D01*
X114192000Y-90627141D01*
X114132357Y-90327298D01*
X114015364Y-90044853D01*
X113845517Y-89790658D01*
X113629342Y-89574483D01*
X113532836Y-89510000D01*
X113629342Y-89445517D01*
X113845517Y-89229342D01*
X114015364Y-88975147D01*
X114132357Y-88692702D01*
X114192000Y-88392859D01*
X114192000Y-88087141D01*
X114132357Y-87787298D01*
X114015364Y-87504853D01*
X113845517Y-87250658D01*
X113629342Y-87034483D01*
X113532836Y-86970000D01*
X113629342Y-86905517D01*
X113845517Y-86689342D01*
X114015364Y-86435147D01*
X114132357Y-86152702D01*
X114192000Y-85852859D01*
X114192000Y-85547141D01*
X114132357Y-85247298D01*
X114015364Y-84964853D01*
X113845517Y-84710658D01*
X113629342Y-84494483D01*
X113375147Y-84324636D01*
X113092702Y-84207643D01*
X112792859Y-84148000D01*
X112727000Y-84148000D01*
X112727000Y-82172000D01*
X112792859Y-82172000D01*
X113092702Y-82112357D01*
X113375147Y-81995364D01*
X113629342Y-81825517D01*
X113845517Y-81609342D01*
X114015364Y-81355147D01*
X114132357Y-81072702D01*
X114192000Y-80772859D01*
X114192000Y-80467141D01*
X114132357Y-80167298D01*
X114015364Y-79884853D01*
X113845517Y-79630658D01*
X113629342Y-79414483D01*
X113375147Y-79244636D01*
X113092702Y-79127643D01*
X112792859Y-79068000D01*
X112727000Y-79068000D01*
X112727000Y-75827000D01*
X126373000Y-75827000D01*
X126373000Y-76073000D01*
G36*
X133673000Y-23200000D02*
G01*
X133675440Y-23224776D01*
X133682667Y-23248601D01*
X133694403Y-23270557D01*
X133710197Y-23289803D01*
X133729443Y-23305597D01*
X133751399Y-23317333D01*
X133775224Y-23324560D01*
X133800000Y-23327000D01*
X142873000Y-23327000D01*
X142873000Y-36500000D01*
X142875440Y-36524776D01*
X142882667Y-36548601D01*
X142894403Y-36570557D01*
X142910197Y-36589803D01*
X142929443Y-36605597D01*
X142951399Y-36617333D01*
X142975224Y-36624560D01*
X143000000Y-36627000D01*
X149248000Y-36627000D01*
X149248001Y-50673000D01*
X148303770Y-50673000D01*
X148245501Y-50601999D01*
X148150028Y-50523647D01*
X148057686Y-50474289D01*
X148175969Y-50326923D01*
X148319571Y-50051094D01*
X148390563Y-49832980D01*
X148270594Y-49587000D01*
X146927000Y-49587000D01*
X146927000Y-49607000D01*
X146673000Y-49607000D01*
X146673000Y-49587000D01*
X146653000Y-49587000D01*
X146653000Y-49333000D01*
X146673000Y-49333000D01*
X146673000Y-49313000D01*
X146927000Y-49313000D01*
X146927000Y-49333000D01*
X148270594Y-49333000D01*
X148390563Y-49087020D01*
X148319571Y-48868906D01*
X148175969Y-48593077D01*
X147981315Y-48350563D01*
X147789865Y-48189930D01*
X147969779Y-48042279D01*
X148167160Y-47801769D01*
X148313828Y-47527373D01*
X148404146Y-47229636D01*
X148434642Y-46920000D01*
X148404146Y-46610364D01*
X148313828Y-46312627D01*
X148167160Y-46038231D01*
X147969779Y-45797721D01*
X147729269Y-45600340D01*
X147454873Y-45453672D01*
X147157136Y-45363354D01*
X146925092Y-45340500D01*
X146674908Y-45340500D01*
X146442864Y-45363354D01*
X146145127Y-45453672D01*
X145870731Y-45600340D01*
X145630221Y-45797721D01*
X145432840Y-46038231D01*
X145286172Y-46312627D01*
X145195854Y-46610364D01*
X145165358Y-46920000D01*
X145170516Y-46972370D01*
X145151185Y-46948815D01*
X145054494Y-46869463D01*
X144944180Y-46810498D01*
X144824482Y-46774188D01*
X144700000Y-46761928D01*
X144185750Y-46765000D01*
X144027000Y-46923750D01*
X144027000Y-48073000D01*
X145176250Y-48073000D01*
X145335000Y-47914250D01*
X145336746Y-47621990D01*
X145432840Y-47801769D01*
X145630221Y-48042279D01*
X145810135Y-48189930D01*
X145618685Y-48350563D01*
X145424031Y-48593077D01*
X145336644Y-48760929D01*
X145335000Y-48485750D01*
X145176250Y-48327000D01*
X144027000Y-48327000D01*
X144027000Y-48347000D01*
X143773000Y-48347000D01*
X143773000Y-48327000D01*
X143753000Y-48327000D01*
X143753000Y-48073000D01*
X143773000Y-48073000D01*
X143773000Y-46923750D01*
X143614250Y-46765000D01*
X143100000Y-46761928D01*
X142975518Y-46774188D01*
X142855820Y-46810498D01*
X142827000Y-46825903D01*
X142827000Y-46200000D01*
X142824560Y-46175224D01*
X142817333Y-46151399D01*
X142805597Y-46129443D01*
X142789803Y-46110197D01*
X142770557Y-46094403D01*
X142748601Y-46082667D01*
X142724776Y-46075440D01*
X142700000Y-46073000D01*
X138527000Y-46073000D01*
X138527000Y-42900000D01*
X138524560Y-42875224D01*
X138517333Y-42851399D01*
X138505597Y-42829443D01*
X138489803Y-42810197D01*
X138470557Y-42794403D01*
X138448601Y-42782667D01*
X138424776Y-42775440D01*
X138400000Y-42773000D01*
X135527000Y-42773000D01*
X135527000Y-37400000D01*
X135524560Y-37375224D01*
X135517333Y-37351399D01*
X135505597Y-37329443D01*
X135489803Y-37310197D01*
X135470557Y-37294403D01*
X135448601Y-37282667D01*
X135424776Y-37275440D01*
X135400000Y-37273000D01*
X125727000Y-37273000D01*
X125727000Y-18727000D01*
X133673000Y-18727000D01*
X133673000Y-23200000D01*
G37*
X133673000Y-23200000D02*
X133675440Y-23224776D01*
X133682667Y-23248601D01*
X133694403Y-23270557D01*
X133710197Y-23289803D01*
X133729443Y-23305597D01*
X133751399Y-23317333D01*
X133775224Y-23324560D01*
X133800000Y-23327000D01*
X142873000Y-23327000D01*
X142873000Y-36500000D01*
X142875440Y-36524776D01*
X142882667Y-36548601D01*
X142894403Y-36570557D01*
X142910197Y-36589803D01*
X142929443Y-36605597D01*
X142951399Y-36617333D01*
X142975224Y-36624560D01*
X143000000Y-36627000D01*
X149248000Y-36627000D01*
X149248001Y-50673000D01*
X148303770Y-50673000D01*
X148245501Y-50601999D01*
X148150028Y-50523647D01*
X148057686Y-50474289D01*
X148175969Y-50326923D01*
X148319571Y-50051094D01*
X148390563Y-49832980D01*
X148270594Y-49587000D01*
X146927000Y-49587000D01*
X146927000Y-49607000D01*
X146673000Y-49607000D01*
X146673000Y-49587000D01*
X146653000Y-49587000D01*
X146653000Y-49333000D01*
X146673000Y-49333000D01*
X146673000Y-49313000D01*
X146927000Y-49313000D01*
X146927000Y-49333000D01*
X148270594Y-49333000D01*
X148390563Y-49087020D01*
X148319571Y-48868906D01*
X148175969Y-48593077D01*
X147981315Y-48350563D01*
X147789865Y-48189930D01*
X147969779Y-48042279D01*
X148167160Y-47801769D01*
X148313828Y-47527373D01*
X148404146Y-47229636D01*
X148434642Y-46920000D01*
X148404146Y-46610364D01*
X148313828Y-46312627D01*
X148167160Y-46038231D01*
X147969779Y-45797721D01*
X147729269Y-45600340D01*
X147454873Y-45453672D01*
X147157136Y-45363354D01*
X146925092Y-45340500D01*
X146674908Y-45340500D01*
X146442864Y-45363354D01*
X146145127Y-45453672D01*
X145870731Y-45600340D01*
X145630221Y-45797721D01*
X145432840Y-46038231D01*
X145286172Y-46312627D01*
X145195854Y-46610364D01*
X145165358Y-46920000D01*
X145170516Y-46972370D01*
X145151185Y-46948815D01*
X145054494Y-46869463D01*
X144944180Y-46810498D01*
X144824482Y-46774188D01*
X144700000Y-46761928D01*
X144185750Y-46765000D01*
X144027000Y-46923750D01*
X144027000Y-48073000D01*
X145176250Y-48073000D01*
X145335000Y-47914250D01*
X145336746Y-47621990D01*
X145432840Y-47801769D01*
X145630221Y-48042279D01*
X145810135Y-48189930D01*
X145618685Y-48350563D01*
X145424031Y-48593077D01*
X145336644Y-48760929D01*
X145335000Y-48485750D01*
X145176250Y-48327000D01*
X144027000Y-48327000D01*
X144027000Y-48347000D01*
X143773000Y-48347000D01*
X143773000Y-48327000D01*
X143753000Y-48327000D01*
X143753000Y-48073000D01*
X143773000Y-48073000D01*
X143773000Y-46923750D01*
X143614250Y-46765000D01*
X143100000Y-46761928D01*
X142975518Y-46774188D01*
X142855820Y-46810498D01*
X142827000Y-46825903D01*
X142827000Y-46200000D01*
X142824560Y-46175224D01*
X142817333Y-46151399D01*
X142805597Y-46129443D01*
X142789803Y-46110197D01*
X142770557Y-46094403D01*
X142748601Y-46082667D01*
X142724776Y-46075440D01*
X142700000Y-46073000D01*
X138527000Y-46073000D01*
X138527000Y-42900000D01*
X138524560Y-42875224D01*
X138517333Y-42851399D01*
X138505597Y-42829443D01*
X138489803Y-42810197D01*
X138470557Y-42794403D01*
X138448601Y-42782667D01*
X138424776Y-42775440D01*
X138400000Y-42773000D01*
X135527000Y-42773000D01*
X135527000Y-37400000D01*
X135524560Y-37375224D01*
X135517333Y-37351399D01*
X135505597Y-37329443D01*
X135489803Y-37310197D01*
X135470557Y-37294403D01*
X135448601Y-37282667D01*
X135424776Y-37275440D01*
X135400000Y-37273000D01*
X125727000Y-37273000D01*
X125727000Y-18727000D01*
X133673000Y-18727000D01*
X133673000Y-23200000D01*
M02*
