M48
; DRILL file {KiCad (5.1.5)-3} date 13.01.2020 11:56:03
; FORMAT={-:-/ absolute / metric / decimal}
; #@! TF.CreationDate,2020-01-13T11:56:03+01:00
; #@! TF.GenerationSoftware,Kicad,Pcbnew,(5.1.5)-3
FMAT,2
METRIC
T1C0.300
T2C0.500
T3C0.800
T4C0.890
T5C1.000
T6C1.100
T7C1.200
T8C1.300
T9C2.010
T10C2.300
T11C3.000
T12C3.300
T13C2.400
T14C2.480
%
G90
G05
T1
X95.2Y-63.1
X96.2Y-62.0
T2
X2.5Y-1.0
X2.5Y-99.0
X5.0Y-1.0
X5.0Y-99.0
X7.5Y-1.0
X7.5Y-99.0
X10.0Y-1.0
X10.0Y-99.0
X10.5Y-39.1
X12.5Y-1.0
X12.5Y-99.0
X13.0Y-39.1
X15.0Y-1.0
X15.0Y-99.0
X15.5Y-39.1
X17.5Y-1.0
X17.5Y-99.0
X18.0Y-39.1
X18.0Y-41.64
X18.0Y-44.18
X18.0Y-46.72
X18.0Y-49.26
X18.0Y-51.8
X18.0Y-54.34
X18.0Y-56.88
X18.0Y-59.42
X18.0Y-61.96
X18.0Y-64.5
X18.0Y-67.04
X18.0Y-69.58
X18.0Y-72.12
X18.0Y-74.66
X18.0Y-77.2
X18.0Y-79.74
X18.7Y-82.7
X20.3Y-84.4
X21.8Y-85.9
X22.5Y-1.0
X22.5Y-99.0
X23.4Y-87.4
X25.0Y-1.0
X25.0Y-99.0
X25.2Y-89.0
X27.3Y-91.0
X27.5Y-1.0
X27.5Y-99.0
X30.0Y-1.0
X30.0Y-92.4
X30.0Y-99.0
X32.5Y-1.0
X32.5Y-92.4
X32.5Y-99.0
X35.0Y-1.0
X35.0Y-92.4
X35.0Y-99.0
X37.5Y-1.0
X37.5Y-92.4
X37.5Y-99.0
X40.0Y-1.0
X40.0Y-92.4
X40.0Y-99.0
X42.5Y-1.0
X42.5Y-92.4
X42.5Y-99.0
X45.0Y-1.0
X45.0Y-92.4
X45.0Y-99.0
X47.5Y-1.0
X47.5Y-92.4
X47.5Y-99.0
X50.0Y-1.0
X50.0Y-92.4
X50.0Y-99.0
X52.5Y-1.0
X52.5Y-92.4
X52.5Y-99.0
X55.0Y-1.0
X55.0Y-92.4
X55.0Y-99.0
X57.5Y-1.0
X57.5Y-92.4
X57.5Y-99.0
X60.0Y-1.0
X60.0Y-92.4
X60.0Y-99.0
X61.3Y-18.4
X62.5Y-1.0
X62.5Y-92.4
X62.5Y-99.0
X65.0Y-1.0
X65.0Y-92.4
X65.0Y-99.0
X67.5Y-1.0
X67.5Y-92.4
X67.5Y-99.0
X70.0Y-1.0
X70.0Y-92.4
X70.0Y-99.0
X70.3Y-17.9
X71.31Y-9.95
X71.37Y-25.48
X72.5Y-1.0
X72.5Y-92.4
X72.5Y-99.0
X73.7Y-20.1
X74.4Y-14.0
X75.0Y-1.0
X75.0Y-92.4
X75.0Y-99.0
X75.1Y-20.1
X77.5Y-1.0
X77.5Y-92.4
X77.5Y-99.0
X80.0Y-1.0
X80.0Y-92.4
X80.0Y-99.0
X80.5Y-10.6
X80.75Y-18.0
X80.9Y-25.3
X81.6Y-83.7
X82.5Y-1.0
X82.5Y-92.4
X82.5Y-99.0
X84.1Y-14.3
X84.1Y-21.3
X85.0Y-1.0
X85.0Y-92.4
X85.0Y-99.0
X86.1Y-22.8
X86.8Y-68.0
X86.9Y-73.9
X87.5Y-1.0
X87.5Y-99.0
X88.0Y-87.3
X88.0Y-89.6
X90.0Y-1.0
X90.0Y-99.0
X91.0Y-63.4
X91.4Y-46.3
X92.5Y-1.0
X92.5Y-99.0
X92.8Y-64.5
X94.7Y-53.1
X101.0Y-1.0
X101.0Y-99.0
X103.54Y-1.0
X103.54Y-99.0
X105.6Y-76.7
X106.08Y-1.0
X106.08Y-99.0
X108.62Y-1.0
X108.62Y-99.0
X109.4Y-37.9
X109.6Y-51.6
X111.16Y-1.0
X111.16Y-99.0
X111.4Y-57.3
X113.7Y-1.0
X113.7Y-99.0
X114.6Y-77.9
X116.24Y-1.0
X116.24Y-99.0
X118.1Y-91.0
X118.78Y-1.0
X118.78Y-99.0
X121.32Y-1.0
X121.32Y-99.0
X123.86Y-1.0
X123.86Y-99.0
X126.4Y-1.0
X126.4Y-99.0
X128.6Y-23.6
X128.94Y-1.0
X128.94Y-99.0
X129.9Y-82.5
X131.48Y-1.0
X131.48Y-99.0
X132.3Y-26.2
X135.8Y-22.8
X138.9Y-63.8
X139.1Y-1.0
X139.1Y-99.0
X141.64Y-1.0
X141.64Y-99.0
X141.7Y-32.6
X144.18Y-1.0
X144.18Y-99.0
X146.6Y-28.7
X146.7Y-82.5
X146.72Y-1.0
X146.72Y-99.0
X146.8Y-88.8
X146.8Y-91.4
X147.6Y-62.6
T3
X72.32Y-65.76
X72.32Y-70.84
X74.86Y-65.76
X74.86Y-70.84
X77.4Y-65.76
X77.4Y-70.84
X82.48Y-65.76
X82.48Y-70.84
X120.46Y-80.62
X120.46Y-85.7
X120.46Y-88.24
X120.46Y-90.78
X125.54Y-80.62
X125.54Y-85.7
X125.54Y-88.24
X125.54Y-90.78
X5.0Y-42.46
X5.0Y-45.0
X5.0Y-47.54
X72.22Y-45.86
X72.22Y-50.94
X74.76Y-45.86
X74.76Y-50.94
X77.3Y-45.86
X77.3Y-50.94
X82.38Y-45.86
X82.38Y-50.94
X23.22Y-65.86
X23.22Y-70.94
X28.3Y-65.86
X28.3Y-70.94
X30.84Y-65.86
X30.84Y-70.94
X33.38Y-65.86
X33.38Y-70.94
X23.22Y-75.86
X23.22Y-80.94
X28.3Y-75.86
X28.3Y-80.94
X30.84Y-75.86
X30.84Y-80.94
X33.38Y-75.86
X33.38Y-80.94
X5.0Y-65.46
X5.0Y-68.0
X5.0Y-70.54
X72.22Y-35.86
X72.22Y-40.94
X74.76Y-35.86
X74.76Y-40.94
X77.3Y-35.86
X77.3Y-40.94
X82.38Y-35.86
X82.38Y-40.94
X72.22Y-55.86
X72.22Y-60.94
X74.76Y-55.86
X74.76Y-60.94
X77.3Y-55.86
X77.3Y-60.94
X82.38Y-55.86
X82.38Y-60.94
X72.32Y-75.86
X72.32Y-80.94
X74.86Y-75.86
X74.86Y-80.94
X77.4Y-75.86
X77.4Y-80.94
X82.48Y-75.86
X82.48Y-80.94
X23.32Y-35.86
X23.32Y-40.94
X28.4Y-35.86
X28.4Y-40.94
X30.94Y-35.86
X30.94Y-40.94
X33.48Y-35.86
X33.48Y-40.94
X107.56Y-63.76
X107.56Y-66.3
X107.56Y-68.84
X107.56Y-73.92
X112.64Y-63.76
X112.64Y-66.3
X112.64Y-68.84
X112.64Y-73.92
X107.56Y-80.62
X107.56Y-85.7
X107.56Y-88.24
X107.56Y-90.78
X112.64Y-80.62
X112.64Y-85.7
X112.64Y-88.24
X112.64Y-90.78
X143.6Y-34.78
X143.6Y-42.4
X23.42Y-45.86
X23.42Y-50.94
X28.5Y-45.86
X28.5Y-50.94
X31.04Y-45.86
X31.04Y-50.94
X33.58Y-45.86
X33.58Y-50.94
X23.32Y-55.86
X23.32Y-60.94
X28.4Y-55.86
X28.4Y-60.94
X30.94Y-55.86
X30.94Y-60.94
X33.48Y-55.86
X33.48Y-60.94
T4
X9.4Y-47.6
X9.4Y-65.6
X9.4Y-70.6
X9.6Y-42.6
X86.2Y-91.0
X92.0Y-57.7
X95.5Y-91.0
X118.2Y-69.5
X118.2Y-73.7
X126.6Y-13.4
X126.6Y-15.2
X126.6Y-17.0
X129.0Y-13.4
X129.0Y-15.2
X129.0Y-17.0
X131.0Y-91.0
X132.0Y-63.5
X132.0Y-65.25
X135.5Y-13.25
X135.5Y-15.5
X135.5Y-17.75
X141.0Y-27.0
X141.25Y-13.0
X142.2Y-91.0
X144.5Y-69.5
X144.5Y-72.7
X146.0Y-17.75
X146.0Y-26.0
X12.9Y-14.8
X12.9Y-17.34
T5
X126.5Y-77.5
X42.86Y-71.06
X47.94Y-76.1
X42.86Y-61.06
X47.94Y-66.1
X57.76Y-71.06
X62.84Y-76.1
X145.7Y-61.3
X145.7Y-63.8
X57.76Y-61.06
X62.84Y-66.1
X42.86Y-51.06
X47.94Y-56.1
X57.76Y-51.06
X62.84Y-56.1
X42.86Y-41.06
X47.94Y-46.1
X57.76Y-41.06
X62.84Y-46.1
X42.86Y-81.06
X47.94Y-86.1
X98.7Y-9.46
X98.7Y-12.0
X98.7Y-14.54
X42.86Y-31.06
X47.94Y-36.1
X98.7Y-42.49
X98.7Y-45.03
X98.7Y-47.57
X98.7Y-50.11
X98.7Y-52.65
X98.7Y-55.19
X98.7Y-57.73
X98.7Y-60.27
X98.7Y-62.81
X98.7Y-65.35
X98.7Y-67.89
X98.7Y-70.43
X98.7Y-72.97
X98.7Y-75.51
X98.7Y-78.05
X98.7Y-80.59
X98.7Y-83.13
X98.7Y-85.67
X98.7Y-88.21
X98.7Y-90.75
X57.76Y-81.06
X62.84Y-86.1
X120.5Y-9.4
X120.5Y-14.4
X57.76Y-31.06
X62.84Y-36.1
T6
X146.8Y-36.12
X146.8Y-38.66
X146.8Y-41.2
X146.8Y-46.92
X146.8Y-49.46
X146.8Y-52.0
T7
X92.6Y-10.0
X92.6Y-13.5
X31.0Y-16.9
X31.0Y-24.0
X32.4Y-13.8
X38.6Y-10.0
X51.0Y-16.9
X51.0Y-24.0
X52.4Y-13.8
X58.6Y-10.0
T8
X105.5Y-21.6
X105.5Y-26.6
T9
X7.82Y-9.72
X7.82Y-19.88
T10
X10.0Y-88.0
T11
X5.5Y-88.0
T12
X20.0Y-3.0
X20.0Y-97.0
X97.0Y-3.0
X97.0Y-97.0
X135.0Y-3.0
X135.0Y-97.0
T13
X2.35Y-83.75
T14
X2.35Y-92.25
T0
M30
