G04 #@! TF.GenerationSoftware,KiCad,Pcbnew,5.1.6-c6e7f7d~86~ubuntu18.04.1*
G04 #@! TF.CreationDate,2020-06-11T10:01:39+01:00*
G04 #@! TF.ProjectId,HL2_MRF101,484c325f-4d52-4463-9130-312e6b696361,2.0-build8*
G04 #@! TF.SameCoordinates,PX42c1d80PY2625a00*
G04 #@! TF.FileFunction,Soldermask,Top*
G04 #@! TF.FilePolarity,Negative*
%FSLAX46Y46*%
G04 Gerber Fmt 4.6, Leading zero omitted, Abs format (unit mm)*
G04 Created by KiCad (PCBNEW 5.1.6-c6e7f7d~86~ubuntu18.04.1) date 2020-06-11 10:01:39*
%MOMM*%
%LPD*%
G01*
G04 APERTURE LIST*
%ADD10O,1.900000X1.900000*%
%ADD11R,1.900000X1.900000*%
%ADD12C,2.600000*%
%ADD13O,1.800000X1.800000*%
%ADD14R,1.800000X1.800000*%
%ADD15C,2.050000*%
%ADD16R,2.400000X1.250000*%
%ADD17R,1.250000X1.200000*%
%ADD18O,2.200000X1.900000*%
%ADD19R,2.600000X2.600000*%
%ADD20C,2.450000*%
%ADD21C,5.500000*%
%ADD22C,1.700000*%
%ADD23R,2.800000X2.800000*%
%ADD24C,2.800000*%
%ADD25R,6.199480X4.197960*%
%ADD26O,2.700000X1.800000*%
%ADD27O,7.200000X3.700000*%
%ADD28R,2.200000X2.200000*%
%ADD29C,2.200000*%
%ADD30R,1.100000X1.400000*%
%ADD31C,2.680000*%
%ADD32C,3.700000*%
%ADD33C,4.400000*%
%ADD34R,2.200000X2.105000*%
%ADD35O,2.200000X2.105000*%
%ADD36R,1.100000X1.000000*%
%ADD37C,1.000000*%
%ADD38C,0.800000*%
%ADD39C,1.500000*%
%ADD40C,0.254000*%
G04 APERTURE END LIST*
D10*
X6580000Y-53200000D03*
X6580000Y-50660000D03*
X6580000Y-48120000D03*
X6580000Y-45580000D03*
X6580000Y-43040000D03*
D11*
X6580000Y-40500000D03*
D12*
X30100000Y-24000000D03*
X30100000Y-16900000D03*
X37700000Y-10000000D03*
X31500000Y-13800000D03*
D13*
X143868000Y-50678000D03*
D14*
X143868000Y-48138000D03*
D15*
X112626000Y-75824000D03*
X112626000Y-80904000D03*
X112626000Y-83444000D03*
X112626000Y-85984000D03*
X107546000Y-85984000D03*
X107546000Y-83444000D03*
X107546000Y-80904000D03*
X107546000Y-75824000D03*
X112626000Y-58806000D03*
X112626000Y-63886000D03*
X112626000Y-66426000D03*
X112626000Y-68966000D03*
X107546000Y-68966000D03*
X107546000Y-66426000D03*
X107546000Y-63886000D03*
X107546000Y-58806000D03*
X86464000Y-88270000D03*
X73764000Y-88270000D03*
X78844000Y-88270000D03*
X68684000Y-88270000D03*
X68684000Y-80650000D03*
X78844000Y-80650000D03*
X73764000Y-80650000D03*
X86464000Y-80650000D03*
X86464000Y-76512300D03*
X73764000Y-76512300D03*
X78844000Y-76512300D03*
X68684000Y-76512300D03*
X68684000Y-68892300D03*
X78844000Y-68892300D03*
X73764000Y-68892300D03*
X86464000Y-68892300D03*
X86464000Y-64754600D03*
X73764000Y-64754600D03*
X78844000Y-64754600D03*
X68684000Y-64754600D03*
X68684000Y-57134600D03*
X78844000Y-57134600D03*
X73764000Y-57134600D03*
X86464000Y-57134600D03*
X86464000Y-52996900D03*
X73764000Y-52996900D03*
X78844000Y-52996900D03*
X68684000Y-52996900D03*
X68684000Y-45376900D03*
X78844000Y-45376900D03*
X73764000Y-45376900D03*
X86464000Y-45376900D03*
X107546000Y-53726000D03*
X107546000Y-41026000D03*
X107546000Y-46106000D03*
X107546000Y-35946000D03*
X115166000Y-35946000D03*
X115166000Y-46106000D03*
X115166000Y-41026000D03*
X115166000Y-53726000D03*
X86464000Y-41239200D03*
X73764000Y-41239200D03*
X78844000Y-41239200D03*
X68684000Y-41239200D03*
X68684000Y-33619200D03*
X78844000Y-33619200D03*
X73764000Y-33619200D03*
X86464000Y-33619200D03*
X15852000Y-80650000D03*
X28552000Y-80650000D03*
X23472000Y-80650000D03*
X33632000Y-80650000D03*
X33632000Y-88270000D03*
X23472000Y-88270000D03*
X28552000Y-88270000D03*
X15852000Y-88270000D03*
X15852000Y-68892300D03*
X28552000Y-68892300D03*
X23472000Y-68892300D03*
X33632000Y-68892300D03*
X33632000Y-76512300D03*
X23472000Y-76512300D03*
X28552000Y-76512300D03*
X15852000Y-76512300D03*
X15852000Y-57134600D03*
X28552000Y-57134600D03*
X23472000Y-57134600D03*
X33632000Y-57134600D03*
X33632000Y-64754600D03*
X23472000Y-64754600D03*
X28552000Y-64754600D03*
X15852000Y-64754600D03*
X15852000Y-45376900D03*
X28552000Y-45376900D03*
X23472000Y-45376900D03*
X33632000Y-45376900D03*
X33632000Y-52996900D03*
X23472000Y-52996900D03*
X28552000Y-52996900D03*
X15852000Y-52996900D03*
X15852000Y-33619200D03*
X28552000Y-33619200D03*
X23472000Y-33619200D03*
X33632000Y-33619200D03*
X33632000Y-41239200D03*
X23472000Y-41239200D03*
X28552000Y-41239200D03*
X15852000Y-41239200D03*
D16*
X93925000Y-69375000D03*
D17*
X95450000Y-67900000D03*
D16*
X93925000Y-66425000D03*
G36*
G01*
X100572250Y-56224000D02*
X101184750Y-56224000D01*
G75*
G02*
X101453500Y-56492750I0J-268750D01*
G01*
X101453500Y-57030250D01*
G75*
G02*
X101184750Y-57299000I-268750J0D01*
G01*
X100572250Y-57299000D01*
G75*
G02*
X100303500Y-57030250I0J268750D01*
G01*
X100303500Y-56492750D01*
G75*
G02*
X100572250Y-56224000I268750J0D01*
G01*
G37*
G36*
G01*
X100572250Y-54649000D02*
X101184750Y-54649000D01*
G75*
G02*
X101453500Y-54917750I0J-268750D01*
G01*
X101453500Y-55455250D01*
G75*
G02*
X101184750Y-55724000I-268750J0D01*
G01*
X100572250Y-55724000D01*
G75*
G02*
X100303500Y-55455250I0J268750D01*
G01*
X100303500Y-54917750D01*
G75*
G02*
X100572250Y-54649000I268750J0D01*
G01*
G37*
G36*
G01*
X101184750Y-59216500D02*
X100572250Y-59216500D01*
G75*
G02*
X100303500Y-58947750I0J268750D01*
G01*
X100303500Y-58410250D01*
G75*
G02*
X100572250Y-58141500I268750J0D01*
G01*
X101184750Y-58141500D01*
G75*
G02*
X101453500Y-58410250I0J-268750D01*
G01*
X101453500Y-58947750D01*
G75*
G02*
X101184750Y-59216500I-268750J0D01*
G01*
G37*
G36*
G01*
X101184750Y-60791500D02*
X100572250Y-60791500D01*
G75*
G02*
X100303500Y-60522750I0J268750D01*
G01*
X100303500Y-59985250D01*
G75*
G02*
X100572250Y-59716500I268750J0D01*
G01*
X101184750Y-59716500D01*
G75*
G02*
X101453500Y-59985250I0J-268750D01*
G01*
X101453500Y-60522750D01*
G75*
G02*
X101184750Y-60791500I-268750J0D01*
G01*
G37*
X126343000Y-70441000D03*
D17*
X124818000Y-68966000D03*
D16*
X126343000Y-67491000D03*
D18*
X4200000Y-71900000D03*
G36*
G01*
X5020700Y-75350000D02*
X3379300Y-75350000D01*
G75*
G02*
X3100000Y-75070700I0J279300D01*
G01*
X3100000Y-73729300D01*
G75*
G02*
X3379300Y-73450000I279300J0D01*
G01*
X5020700Y-73450000D01*
G75*
G02*
X5300000Y-73729300I0J-279300D01*
G01*
X5300000Y-75070700D01*
G75*
G02*
X5020700Y-75350000I-279300J0D01*
G01*
G37*
D12*
X90000000Y-12600000D03*
D19*
X93500000Y-12600000D03*
D20*
X61824000Y-57173000D03*
X56744000Y-52133000D03*
D21*
X20000000Y-3000000D03*
X97000000Y-3000000D03*
X136000000Y-3000000D03*
X135000000Y-97000000D03*
X97000000Y-97000000D03*
X20000000Y-97000000D03*
G36*
G01*
X90272250Y-67678500D02*
X89259750Y-67678500D01*
G75*
G02*
X88966000Y-67384750I0J293750D01*
G01*
X88966000Y-66797250D01*
G75*
G02*
X89259750Y-66503500I293750J0D01*
G01*
X90272250Y-66503500D01*
G75*
G02*
X90566000Y-66797250I0J-293750D01*
G01*
X90566000Y-67384750D01*
G75*
G02*
X90272250Y-67678500I-293750J0D01*
G01*
G37*
G36*
G01*
X90272250Y-69553500D02*
X89259750Y-69553500D01*
G75*
G02*
X88966000Y-69259750I0J293750D01*
G01*
X88966000Y-68672250D01*
G75*
G02*
X89259750Y-68378500I293750J0D01*
G01*
X90272250Y-68378500D01*
G75*
G02*
X90566000Y-68672250I0J-293750D01*
G01*
X90566000Y-69259750D01*
G75*
G02*
X90272250Y-69553500I-293750J0D01*
G01*
G37*
D10*
X98700000Y-42490000D03*
X98700000Y-45030000D03*
X98700000Y-47570000D03*
X98700000Y-50110000D03*
X98700000Y-52650000D03*
X98700000Y-55190000D03*
X98700000Y-57730000D03*
X98700000Y-60270000D03*
X98700000Y-62810000D03*
X98700000Y-65350000D03*
X98700000Y-67890000D03*
X98700000Y-70430000D03*
X98700000Y-72970000D03*
X98700000Y-75510000D03*
X98700000Y-78050000D03*
X98700000Y-80590000D03*
X98700000Y-83130000D03*
X98700000Y-85670000D03*
X98700000Y-88210000D03*
D11*
X98700000Y-90750000D03*
D22*
X96217600Y-57713800D03*
D23*
X109800000Y-13200000D03*
D24*
X104800000Y-13200000D03*
D25*
X138698720Y-40599700D03*
X128701280Y-40599700D03*
X128701280Y-20000300D03*
X138698720Y-20000300D03*
D12*
X50100000Y-24000000D03*
X50100000Y-16900000D03*
X57700000Y-10000000D03*
X51500000Y-13800000D03*
D26*
X12900000Y-17340000D03*
X12900000Y-14800000D03*
D27*
X7820000Y-9720000D03*
X7820000Y-19880000D03*
D20*
X56744000Y-30933000D03*
X61824000Y-35973000D03*
X61824000Y-46573000D03*
X56744000Y-41533000D03*
X56744000Y-62733000D03*
X61824000Y-67773000D03*
X56744000Y-73333000D03*
X61824000Y-78373000D03*
X56744000Y-83933000D03*
X61824000Y-88973000D03*
X40944000Y-30933000D03*
X46024000Y-35973000D03*
X46024000Y-46573000D03*
X40944000Y-41533000D03*
X40944000Y-52133000D03*
X46024000Y-57173000D03*
X40944000Y-62733000D03*
X46024000Y-67773000D03*
X40944000Y-73333000D03*
X46024000Y-78373000D03*
X40944000Y-83933000D03*
X46024000Y-88973000D03*
G36*
G01*
X89259750Y-64919500D02*
X90272250Y-64919500D01*
G75*
G02*
X90566000Y-65213250I0J-293750D01*
G01*
X90566000Y-65800750D01*
G75*
G02*
X90272250Y-66094500I-293750J0D01*
G01*
X89259750Y-66094500D01*
G75*
G02*
X88966000Y-65800750I0J293750D01*
G01*
X88966000Y-65213250D01*
G75*
G02*
X89259750Y-64919500I293750J0D01*
G01*
G37*
G36*
G01*
X89259750Y-63044500D02*
X90272250Y-63044500D01*
G75*
G02*
X90566000Y-63338250I0J-293750D01*
G01*
X90566000Y-63925750D01*
G75*
G02*
X90272250Y-64219500I-293750J0D01*
G01*
X89259750Y-64219500D01*
G75*
G02*
X88966000Y-63925750I0J293750D01*
G01*
X88966000Y-63338250D01*
G75*
G02*
X89259750Y-63044500I293750J0D01*
G01*
G37*
G36*
G01*
X139793750Y-65350000D02*
X140806250Y-65350000D01*
G75*
G02*
X141100000Y-65643750I0J-293750D01*
G01*
X141100000Y-66231250D01*
G75*
G02*
X140806250Y-66525000I-293750J0D01*
G01*
X139793750Y-66525000D01*
G75*
G02*
X139500000Y-66231250I0J293750D01*
G01*
X139500000Y-65643750D01*
G75*
G02*
X139793750Y-65350000I293750J0D01*
G01*
G37*
G36*
G01*
X139793750Y-63475000D02*
X140806250Y-63475000D01*
G75*
G02*
X141100000Y-63768750I0J-293750D01*
G01*
X141100000Y-64356250D01*
G75*
G02*
X140806250Y-64650000I-293750J0D01*
G01*
X139793750Y-64650000D01*
G75*
G02*
X139500000Y-64356250I0J293750D01*
G01*
X139500000Y-63768750D01*
G75*
G02*
X139793750Y-63475000I293750J0D01*
G01*
G37*
G36*
G01*
X104372750Y-60118900D02*
X105385250Y-60118900D01*
G75*
G02*
X105679000Y-60412650I0J-293750D01*
G01*
X105679000Y-61000150D01*
G75*
G02*
X105385250Y-61293900I-293750J0D01*
G01*
X104372750Y-61293900D01*
G75*
G02*
X104079000Y-61000150I0J293750D01*
G01*
X104079000Y-60412650D01*
G75*
G02*
X104372750Y-60118900I293750J0D01*
G01*
G37*
G36*
G01*
X104372750Y-58243900D02*
X105385250Y-58243900D01*
G75*
G02*
X105679000Y-58537650I0J-293750D01*
G01*
X105679000Y-59125150D01*
G75*
G02*
X105385250Y-59418900I-293750J0D01*
G01*
X104372750Y-59418900D01*
G75*
G02*
X104079000Y-59125150I0J293750D01*
G01*
X104079000Y-58537650D01*
G75*
G02*
X104372750Y-58243900I293750J0D01*
G01*
G37*
G36*
G01*
X132925000Y-61493750D02*
X132925000Y-62506250D01*
G75*
G02*
X132631250Y-62800000I-293750J0D01*
G01*
X132043750Y-62800000D01*
G75*
G02*
X131750000Y-62506250I0J293750D01*
G01*
X131750000Y-61493750D01*
G75*
G02*
X132043750Y-61200000I293750J0D01*
G01*
X132631250Y-61200000D01*
G75*
G02*
X132925000Y-61493750I0J-293750D01*
G01*
G37*
G36*
G01*
X131050000Y-61493750D02*
X131050000Y-62506250D01*
G75*
G02*
X130756250Y-62800000I-293750J0D01*
G01*
X130168750Y-62800000D01*
G75*
G02*
X129875000Y-62506250I0J293750D01*
G01*
X129875000Y-61493750D01*
G75*
G02*
X130168750Y-61200000I293750J0D01*
G01*
X130756250Y-61200000D01*
G75*
G02*
X131050000Y-61493750I0J-293750D01*
G01*
G37*
G36*
G01*
X126467250Y-63379000D02*
X125454750Y-63379000D01*
G75*
G02*
X125161000Y-63085250I0J293750D01*
G01*
X125161000Y-62497750D01*
G75*
G02*
X125454750Y-62204000I293750J0D01*
G01*
X126467250Y-62204000D01*
G75*
G02*
X126761000Y-62497750I0J-293750D01*
G01*
X126761000Y-63085250D01*
G75*
G02*
X126467250Y-63379000I-293750J0D01*
G01*
G37*
G36*
G01*
X126467250Y-61504000D02*
X125454750Y-61504000D01*
G75*
G02*
X125161000Y-61210250I0J293750D01*
G01*
X125161000Y-60622750D01*
G75*
G02*
X125454750Y-60329000I293750J0D01*
G01*
X126467250Y-60329000D01*
G75*
G02*
X126761000Y-60622750I0J-293750D01*
G01*
X126761000Y-61210250D01*
G75*
G02*
X126467250Y-61504000I-293750J0D01*
G01*
G37*
G36*
G01*
X146825000Y-43893750D02*
X146825000Y-44906250D01*
G75*
G02*
X146531250Y-45200000I-293750J0D01*
G01*
X145943750Y-45200000D01*
G75*
G02*
X145650000Y-44906250I0J293750D01*
G01*
X145650000Y-43893750D01*
G75*
G02*
X145943750Y-43600000I293750J0D01*
G01*
X146531250Y-43600000D01*
G75*
G02*
X146825000Y-43893750I0J-293750D01*
G01*
G37*
G36*
G01*
X144950000Y-43893750D02*
X144950000Y-44906250D01*
G75*
G02*
X144656250Y-45200000I-293750J0D01*
G01*
X144068750Y-45200000D01*
G75*
G02*
X143775000Y-44906250I0J293750D01*
G01*
X143775000Y-43893750D01*
G75*
G02*
X144068750Y-43600000I293750J0D01*
G01*
X144656250Y-43600000D01*
G75*
G02*
X144950000Y-43893750I0J-293750D01*
G01*
G37*
D28*
X138900000Y-14500000D03*
D29*
X138900000Y-9500000D03*
G36*
G01*
X103556450Y-50249500D02*
X102543950Y-50249500D01*
G75*
G02*
X102250200Y-49955750I0J293750D01*
G01*
X102250200Y-49368250D01*
G75*
G02*
X102543950Y-49074500I293750J0D01*
G01*
X103556450Y-49074500D01*
G75*
G02*
X103850200Y-49368250I0J-293750D01*
G01*
X103850200Y-49955750D01*
G75*
G02*
X103556450Y-50249500I-293750J0D01*
G01*
G37*
G36*
G01*
X103556450Y-52124500D02*
X102543950Y-52124500D01*
G75*
G02*
X102250200Y-51830750I0J293750D01*
G01*
X102250200Y-51243250D01*
G75*
G02*
X102543950Y-50949500I293750J0D01*
G01*
X103556450Y-50949500D01*
G75*
G02*
X103850200Y-51243250I0J-293750D01*
G01*
X103850200Y-51830750D01*
G75*
G02*
X103556450Y-52124500I-293750J0D01*
G01*
G37*
G36*
G01*
X118974250Y-54235000D02*
X117961750Y-54235000D01*
G75*
G02*
X117668000Y-53941250I0J293750D01*
G01*
X117668000Y-53353750D01*
G75*
G02*
X117961750Y-53060000I293750J0D01*
G01*
X118974250Y-53060000D01*
G75*
G02*
X119268000Y-53353750I0J-293750D01*
G01*
X119268000Y-53941250D01*
G75*
G02*
X118974250Y-54235000I-293750J0D01*
G01*
G37*
G36*
G01*
X118974250Y-52360000D02*
X117961750Y-52360000D01*
G75*
G02*
X117668000Y-52066250I0J293750D01*
G01*
X117668000Y-51478750D01*
G75*
G02*
X117961750Y-51185000I293750J0D01*
G01*
X118974250Y-51185000D01*
G75*
G02*
X119268000Y-51478750I0J-293750D01*
G01*
X119268000Y-52066250D01*
G75*
G02*
X118974250Y-52360000I-293750J0D01*
G01*
G37*
G36*
G01*
X122912500Y-40006250D02*
X122912500Y-38993750D01*
G75*
G02*
X123206250Y-38700000I293750J0D01*
G01*
X123793750Y-38700000D01*
G75*
G02*
X124087500Y-38993750I0J-293750D01*
G01*
X124087500Y-40006250D01*
G75*
G02*
X123793750Y-40300000I-293750J0D01*
G01*
X123206250Y-40300000D01*
G75*
G02*
X122912500Y-40006250I0J293750D01*
G01*
G37*
G36*
G01*
X121037500Y-40006250D02*
X121037500Y-38993750D01*
G75*
G02*
X121331250Y-38700000I293750J0D01*
G01*
X121918750Y-38700000D01*
G75*
G02*
X122212500Y-38993750I0J-293750D01*
G01*
X122212500Y-40006250D01*
G75*
G02*
X121918750Y-40300000I-293750J0D01*
G01*
X121331250Y-40300000D01*
G75*
G02*
X121037500Y-40006250I0J293750D01*
G01*
G37*
G36*
G01*
X121025000Y-42106250D02*
X121025000Y-41093750D01*
G75*
G02*
X121318750Y-40800000I293750J0D01*
G01*
X121906250Y-40800000D01*
G75*
G02*
X122200000Y-41093750I0J-293750D01*
G01*
X122200000Y-42106250D01*
G75*
G02*
X121906250Y-42400000I-293750J0D01*
G01*
X121318750Y-42400000D01*
G75*
G02*
X121025000Y-42106250I0J293750D01*
G01*
G37*
G36*
G01*
X122900000Y-42106250D02*
X122900000Y-41093750D01*
G75*
G02*
X123193750Y-40800000I293750J0D01*
G01*
X123781250Y-40800000D01*
G75*
G02*
X124075000Y-41093750I0J-293750D01*
G01*
X124075000Y-42106250D01*
G75*
G02*
X123781250Y-42400000I-293750J0D01*
G01*
X123193750Y-42400000D01*
G75*
G02*
X122900000Y-42106250I0J293750D01*
G01*
G37*
D30*
X123292000Y-58044000D03*
X119992000Y-58044000D03*
G36*
G01*
X103556450Y-53703900D02*
X102543950Y-53703900D01*
G75*
G02*
X102250200Y-53410150I0J293750D01*
G01*
X102250200Y-52822650D01*
G75*
G02*
X102543950Y-52528900I293750J0D01*
G01*
X103556450Y-52528900D01*
G75*
G02*
X103850200Y-52822650I0J-293750D01*
G01*
X103850200Y-53410150D01*
G75*
G02*
X103556450Y-53703900I-293750J0D01*
G01*
G37*
G36*
G01*
X103556450Y-55578900D02*
X102543950Y-55578900D01*
G75*
G02*
X102250200Y-55285150I0J293750D01*
G01*
X102250200Y-54697650D01*
G75*
G02*
X102543950Y-54403900I293750J0D01*
G01*
X103556450Y-54403900D01*
G75*
G02*
X103850200Y-54697650I0J-293750D01*
G01*
X103850200Y-55285150D01*
G75*
G02*
X103556450Y-55578900I-293750J0D01*
G01*
G37*
D12*
X2350000Y-83750000D03*
D31*
X2350000Y-92250000D03*
D32*
X10000000Y-88000000D03*
D33*
X5500000Y-88000000D03*
G36*
G01*
X146150000Y-56706250D02*
X146150000Y-55693750D01*
G75*
G02*
X146443750Y-55400000I293750J0D01*
G01*
X147031250Y-55400000D01*
G75*
G02*
X147325000Y-55693750I0J-293750D01*
G01*
X147325000Y-56706250D01*
G75*
G02*
X147031250Y-57000000I-293750J0D01*
G01*
X146443750Y-57000000D01*
G75*
G02*
X146150000Y-56706250I0J293750D01*
G01*
G37*
G36*
G01*
X144275000Y-56706250D02*
X144275000Y-55693750D01*
G75*
G02*
X144568750Y-55400000I293750J0D01*
G01*
X145156250Y-55400000D01*
G75*
G02*
X145450000Y-55693750I0J-293750D01*
G01*
X145450000Y-56706250D01*
G75*
G02*
X145156250Y-57000000I-293750J0D01*
G01*
X144568750Y-57000000D01*
G75*
G02*
X144275000Y-56706250I0J293750D01*
G01*
G37*
D34*
X146800000Y-52000000D03*
D35*
X146800000Y-49460000D03*
X146800000Y-46920000D03*
D36*
X121865000Y-62804000D03*
X121865000Y-60904000D03*
X119865000Y-61854000D03*
G36*
G01*
X141470364Y-93358200D02*
X138494436Y-93358200D01*
G75*
G02*
X138207400Y-93071164I0J287036D01*
G01*
X138207400Y-92095236D01*
G75*
G02*
X138494436Y-91808200I287036J0D01*
G01*
X141470364Y-91808200D01*
G75*
G02*
X141757400Y-92095236I0J-287036D01*
G01*
X141757400Y-93071164D01*
G75*
G02*
X141470364Y-93358200I-287036J0D01*
G01*
G37*
G36*
G01*
X141470364Y-87558200D02*
X138494436Y-87558200D01*
G75*
G02*
X138207400Y-87271164I0J287036D01*
G01*
X138207400Y-86295236D01*
G75*
G02*
X138494436Y-86008200I287036J0D01*
G01*
X141470364Y-86008200D01*
G75*
G02*
X141757400Y-86295236I0J-287036D01*
G01*
X141757400Y-87271164D01*
G75*
G02*
X141470364Y-87558200I-287036J0D01*
G01*
G37*
G36*
G01*
X145670364Y-87558200D02*
X142694436Y-87558200D01*
G75*
G02*
X142407400Y-87271164I0J287036D01*
G01*
X142407400Y-86295236D01*
G75*
G02*
X142694436Y-86008200I287036J0D01*
G01*
X145670364Y-86008200D01*
G75*
G02*
X145957400Y-86295236I0J-287036D01*
G01*
X145957400Y-87271164D01*
G75*
G02*
X145670364Y-87558200I-287036J0D01*
G01*
G37*
G36*
G01*
X145670364Y-93358200D02*
X142694436Y-93358200D01*
G75*
G02*
X142407400Y-93071164I0J287036D01*
G01*
X142407400Y-92095236D01*
G75*
G02*
X142694436Y-91808200I287036J0D01*
G01*
X145670364Y-91808200D01*
G75*
G02*
X145957400Y-92095236I0J-287036D01*
G01*
X145957400Y-93071164D01*
G75*
G02*
X145670364Y-93358200I-287036J0D01*
G01*
G37*
G36*
G01*
X141470364Y-85258200D02*
X138494436Y-85258200D01*
G75*
G02*
X138207400Y-84971164I0J287036D01*
G01*
X138207400Y-83995236D01*
G75*
G02*
X138494436Y-83708200I287036J0D01*
G01*
X141470364Y-83708200D01*
G75*
G02*
X141757400Y-83995236I0J-287036D01*
G01*
X141757400Y-84971164D01*
G75*
G02*
X141470364Y-85258200I-287036J0D01*
G01*
G37*
G36*
G01*
X141470364Y-79458200D02*
X138494436Y-79458200D01*
G75*
G02*
X138207400Y-79171164I0J287036D01*
G01*
X138207400Y-78195236D01*
G75*
G02*
X138494436Y-77908200I287036J0D01*
G01*
X141470364Y-77908200D01*
G75*
G02*
X141757400Y-78195236I0J-287036D01*
G01*
X141757400Y-79171164D01*
G75*
G02*
X141470364Y-79458200I-287036J0D01*
G01*
G37*
G36*
G01*
X142694436Y-77908200D02*
X145670364Y-77908200D01*
G75*
G02*
X145957400Y-78195236I0J-287036D01*
G01*
X145957400Y-79171164D01*
G75*
G02*
X145670364Y-79458200I-287036J0D01*
G01*
X142694436Y-79458200D01*
G75*
G02*
X142407400Y-79171164I0J287036D01*
G01*
X142407400Y-78195236D01*
G75*
G02*
X142694436Y-77908200I287036J0D01*
G01*
G37*
G36*
G01*
X142694436Y-83708200D02*
X145670364Y-83708200D01*
G75*
G02*
X145957400Y-83995236I0J-287036D01*
G01*
X145957400Y-84971164D01*
G75*
G02*
X145670364Y-85258200I-287036J0D01*
G01*
X142694436Y-85258200D01*
G75*
G02*
X142407400Y-84971164I0J287036D01*
G01*
X142407400Y-83995236D01*
G75*
G02*
X142694436Y-83708200I287036J0D01*
G01*
G37*
G36*
G01*
X138494436Y-75608200D02*
X141470364Y-75608200D01*
G75*
G02*
X141757400Y-75895236I0J-287036D01*
G01*
X141757400Y-76871164D01*
G75*
G02*
X141470364Y-77158200I-287036J0D01*
G01*
X138494436Y-77158200D01*
G75*
G02*
X138207400Y-76871164I0J287036D01*
G01*
X138207400Y-75895236D01*
G75*
G02*
X138494436Y-75608200I287036J0D01*
G01*
G37*
G36*
G01*
X138494436Y-69808200D02*
X141470364Y-69808200D01*
G75*
G02*
X141757400Y-70095236I0J-287036D01*
G01*
X141757400Y-71071164D01*
G75*
G02*
X141470364Y-71358200I-287036J0D01*
G01*
X138494436Y-71358200D01*
G75*
G02*
X138207400Y-71071164I0J287036D01*
G01*
X138207400Y-70095236D01*
G75*
G02*
X138494436Y-69808200I287036J0D01*
G01*
G37*
G36*
G01*
X142694436Y-75608200D02*
X145670364Y-75608200D01*
G75*
G02*
X145957400Y-75895236I0J-287036D01*
G01*
X145957400Y-76871164D01*
G75*
G02*
X145670364Y-77158200I-287036J0D01*
G01*
X142694436Y-77158200D01*
G75*
G02*
X142407400Y-76871164I0J287036D01*
G01*
X142407400Y-75895236D01*
G75*
G02*
X142694436Y-75608200I287036J0D01*
G01*
G37*
G36*
G01*
X142694436Y-69808200D02*
X145670364Y-69808200D01*
G75*
G02*
X145957400Y-70095236I0J-287036D01*
G01*
X145957400Y-71071164D01*
G75*
G02*
X145670364Y-71358200I-287036J0D01*
G01*
X142694436Y-71358200D01*
G75*
G02*
X142407400Y-71071164I0J287036D01*
G01*
X142407400Y-70095236D01*
G75*
G02*
X142694436Y-69808200I287036J0D01*
G01*
G37*
G36*
G01*
X138812036Y-61225000D02*
X141787964Y-61225000D01*
G75*
G02*
X142075000Y-61512036I0J-287036D01*
G01*
X142075000Y-62487964D01*
G75*
G02*
X141787964Y-62775000I-287036J0D01*
G01*
X138812036Y-62775000D01*
G75*
G02*
X138525000Y-62487964I0J287036D01*
G01*
X138525000Y-61512036D01*
G75*
G02*
X138812036Y-61225000I287036J0D01*
G01*
G37*
G36*
G01*
X138812036Y-55425000D02*
X141787964Y-55425000D01*
G75*
G02*
X142075000Y-55712036I0J-287036D01*
G01*
X142075000Y-56687964D01*
G75*
G02*
X141787964Y-56975000I-287036J0D01*
G01*
X138812036Y-56975000D01*
G75*
G02*
X138525000Y-56687964I0J287036D01*
G01*
X138525000Y-55712036D01*
G75*
G02*
X138812036Y-55425000I287036J0D01*
G01*
G37*
G36*
G01*
X128987964Y-53775000D02*
X126012036Y-53775000D01*
G75*
G02*
X125725000Y-53487964I0J287036D01*
G01*
X125725000Y-52512036D01*
G75*
G02*
X126012036Y-52225000I287036J0D01*
G01*
X128987964Y-52225000D01*
G75*
G02*
X129275000Y-52512036I0J-287036D01*
G01*
X129275000Y-53487964D01*
G75*
G02*
X128987964Y-53775000I-287036J0D01*
G01*
G37*
G36*
G01*
X128987964Y-47975000D02*
X126012036Y-47975000D01*
G75*
G02*
X125725000Y-47687964I0J287036D01*
G01*
X125725000Y-46712036D01*
G75*
G02*
X126012036Y-46425000I287036J0D01*
G01*
X128987964Y-46425000D01*
G75*
G02*
X129275000Y-46712036I0J-287036D01*
G01*
X129275000Y-47687964D01*
G75*
G02*
X128987964Y-47975000I-287036J0D01*
G01*
G37*
G36*
G01*
X134112036Y-55425000D02*
X137087964Y-55425000D01*
G75*
G02*
X137375000Y-55712036I0J-287036D01*
G01*
X137375000Y-56687964D01*
G75*
G02*
X137087964Y-56975000I-287036J0D01*
G01*
X134112036Y-56975000D01*
G75*
G02*
X133825000Y-56687964I0J287036D01*
G01*
X133825000Y-55712036D01*
G75*
G02*
X134112036Y-55425000I287036J0D01*
G01*
G37*
G36*
G01*
X134112036Y-61225000D02*
X137087964Y-61225000D01*
G75*
G02*
X137375000Y-61512036I0J-287036D01*
G01*
X137375000Y-62487964D01*
G75*
G02*
X137087964Y-62775000I-287036J0D01*
G01*
X134112036Y-62775000D01*
G75*
G02*
X133825000Y-62487964I0J287036D01*
G01*
X133825000Y-61512036D01*
G75*
G02*
X134112036Y-61225000I287036J0D01*
G01*
G37*
G36*
G01*
X130312036Y-52225000D02*
X133287964Y-52225000D01*
G75*
G02*
X133575000Y-52512036I0J-287036D01*
G01*
X133575000Y-53487964D01*
G75*
G02*
X133287964Y-53775000I-287036J0D01*
G01*
X130312036Y-53775000D01*
G75*
G02*
X130025000Y-53487964I0J287036D01*
G01*
X130025000Y-52512036D01*
G75*
G02*
X130312036Y-52225000I287036J0D01*
G01*
G37*
G36*
G01*
X130312036Y-46425000D02*
X133287964Y-46425000D01*
G75*
G02*
X133575000Y-46712036I0J-287036D01*
G01*
X133575000Y-47687964D01*
G75*
G02*
X133287964Y-47975000I-287036J0D01*
G01*
X130312036Y-47975000D01*
G75*
G02*
X130025000Y-47687964I0J287036D01*
G01*
X130025000Y-46712036D01*
G75*
G02*
X130312036Y-46425000I287036J0D01*
G01*
G37*
G36*
G01*
X137487964Y-53775000D02*
X134512036Y-53775000D01*
G75*
G02*
X134225000Y-53487964I0J287036D01*
G01*
X134225000Y-52512036D01*
G75*
G02*
X134512036Y-52225000I287036J0D01*
G01*
X137487964Y-52225000D01*
G75*
G02*
X137775000Y-52512036I0J-287036D01*
G01*
X137775000Y-53487964D01*
G75*
G02*
X137487964Y-53775000I-287036J0D01*
G01*
G37*
G36*
G01*
X137487964Y-47975000D02*
X134512036Y-47975000D01*
G75*
G02*
X134225000Y-47687964I0J287036D01*
G01*
X134225000Y-46712036D01*
G75*
G02*
X134512036Y-46425000I287036J0D01*
G01*
X137487964Y-46425000D01*
G75*
G02*
X137775000Y-46712036I0J-287036D01*
G01*
X137775000Y-47687964D01*
G75*
G02*
X137487964Y-47975000I-287036J0D01*
G01*
G37*
G36*
G01*
X141787964Y-47975000D02*
X138812036Y-47975000D01*
G75*
G02*
X138525000Y-47687964I0J287036D01*
G01*
X138525000Y-46712036D01*
G75*
G02*
X138812036Y-46425000I287036J0D01*
G01*
X141787964Y-46425000D01*
G75*
G02*
X142075000Y-46712036I0J-287036D01*
G01*
X142075000Y-47687964D01*
G75*
G02*
X141787964Y-47975000I-287036J0D01*
G01*
G37*
G36*
G01*
X141787964Y-53775000D02*
X138812036Y-53775000D01*
G75*
G02*
X138525000Y-53487964I0J287036D01*
G01*
X138525000Y-52512036D01*
G75*
G02*
X138812036Y-52225000I287036J0D01*
G01*
X141787964Y-52225000D01*
G75*
G02*
X142075000Y-52512036I0J-287036D01*
G01*
X142075000Y-53487964D01*
G75*
G02*
X141787964Y-53775000I-287036J0D01*
G01*
G37*
G36*
G01*
X124308250Y-63379000D02*
X123295750Y-63379000D01*
G75*
G02*
X123002000Y-63085250I0J293750D01*
G01*
X123002000Y-62497750D01*
G75*
G02*
X123295750Y-62204000I293750J0D01*
G01*
X124308250Y-62204000D01*
G75*
G02*
X124602000Y-62497750I0J-293750D01*
G01*
X124602000Y-63085250D01*
G75*
G02*
X124308250Y-63379000I-293750J0D01*
G01*
G37*
G36*
G01*
X124308250Y-61504000D02*
X123295750Y-61504000D01*
G75*
G02*
X123002000Y-61210250I0J293750D01*
G01*
X123002000Y-60622750D01*
G75*
G02*
X123295750Y-60329000I293750J0D01*
G01*
X124308250Y-60329000D01*
G75*
G02*
X124602000Y-60622750I0J-293750D01*
G01*
X124602000Y-61210250D01*
G75*
G02*
X124308250Y-61504000I-293750J0D01*
G01*
G37*
D22*
X84100000Y-23500000D03*
X84100000Y-12200000D03*
X116436000Y-62565200D03*
D34*
X146800000Y-29600000D03*
D35*
X146800000Y-27060000D03*
X146800000Y-24520000D03*
D11*
X98700000Y-9460000D03*
D10*
X98700000Y-12000000D03*
X98700000Y-14540000D03*
G36*
G01*
X116408850Y-71456200D02*
X115396350Y-71456200D01*
G75*
G02*
X115102600Y-71162450I0J293750D01*
G01*
X115102600Y-70574950D01*
G75*
G02*
X115396350Y-70281200I293750J0D01*
G01*
X116408850Y-70281200D01*
G75*
G02*
X116702600Y-70574950I0J-293750D01*
G01*
X116702600Y-71162450D01*
G75*
G02*
X116408850Y-71456200I-293750J0D01*
G01*
G37*
G36*
G01*
X116408850Y-69581200D02*
X115396350Y-69581200D01*
G75*
G02*
X115102600Y-69287450I0J293750D01*
G01*
X115102600Y-68699950D01*
G75*
G02*
X115396350Y-68406200I293750J0D01*
G01*
X116408850Y-68406200D01*
G75*
G02*
X116702600Y-68699950I0J-293750D01*
G01*
X116702600Y-69287450D01*
G75*
G02*
X116408850Y-69581200I-293750J0D01*
G01*
G37*
G36*
G01*
X122403250Y-69578900D02*
X121390750Y-69578900D01*
G75*
G02*
X121097000Y-69285150I0J293750D01*
G01*
X121097000Y-68697650D01*
G75*
G02*
X121390750Y-68403900I293750J0D01*
G01*
X122403250Y-68403900D01*
G75*
G02*
X122697000Y-68697650I0J-293750D01*
G01*
X122697000Y-69285150D01*
G75*
G02*
X122403250Y-69578900I-293750J0D01*
G01*
G37*
G36*
G01*
X122403250Y-71453900D02*
X121390750Y-71453900D01*
G75*
G02*
X121097000Y-71160150I0J293750D01*
G01*
X121097000Y-70572650D01*
G75*
G02*
X121390750Y-70278900I293750J0D01*
G01*
X122403250Y-70278900D01*
G75*
G02*
X122697000Y-70572650I0J-293750D01*
G01*
X122697000Y-71160150D01*
G75*
G02*
X122403250Y-71453900I-293750J0D01*
G01*
G37*
G36*
G01*
X120325500Y-68459750D02*
X120325500Y-69472250D01*
G75*
G02*
X120031750Y-69766000I-293750J0D01*
G01*
X119444250Y-69766000D01*
G75*
G02*
X119150500Y-69472250I0J293750D01*
G01*
X119150500Y-68459750D01*
G75*
G02*
X119444250Y-68166000I293750J0D01*
G01*
X120031750Y-68166000D01*
G75*
G02*
X120325500Y-68459750I0J-293750D01*
G01*
G37*
G36*
G01*
X118450500Y-68459750D02*
X118450500Y-69472250D01*
G75*
G02*
X118156750Y-69766000I-293750J0D01*
G01*
X117569250Y-69766000D01*
G75*
G02*
X117275500Y-69472250I0J293750D01*
G01*
X117275500Y-68459750D01*
G75*
G02*
X117569250Y-68166000I293750J0D01*
G01*
X118156750Y-68166000D01*
G75*
G02*
X118450500Y-68459750I0J-293750D01*
G01*
G37*
D37*
X90800000Y-86600000D03*
X75100000Y-27800000D03*
D38*
X124691000Y-58044000D03*
D37*
X94846000Y-75265199D03*
D38*
X93830000Y-49662000D03*
X123468000Y-31200000D03*
X90782000Y-19436000D03*
X96370000Y-19436000D03*
X91290000Y-32390000D03*
X84940000Y-27310000D03*
X87480000Y-27310000D03*
X90020000Y-27310000D03*
D37*
X17500000Y-99000000D03*
X37500000Y-99000000D03*
X47500000Y-99000000D03*
X52500000Y-99000000D03*
X55000000Y-99000000D03*
X57500000Y-99000000D03*
X60000000Y-99000000D03*
X62500000Y-99000000D03*
X65000000Y-99000000D03*
X67500000Y-99000000D03*
X2500000Y-99000000D03*
X5000000Y-99000000D03*
X7500000Y-99000000D03*
X10000000Y-99000000D03*
X15000000Y-99000000D03*
X40000000Y-99000000D03*
X42500000Y-99000000D03*
X45000000Y-99000000D03*
X50000000Y-99000000D03*
X12500000Y-99000000D03*
X32500000Y-99000000D03*
X75000000Y-99000000D03*
X22500000Y-99000000D03*
X25000000Y-99000000D03*
X87500000Y-99000000D03*
X72500000Y-99000000D03*
X70000000Y-99000000D03*
X82500000Y-99000000D03*
X92500000Y-99000000D03*
X35000000Y-99000000D03*
X27500000Y-99000000D03*
X77500000Y-99000000D03*
X85000000Y-99000000D03*
X80000000Y-99000000D03*
X30000000Y-99000000D03*
X90000000Y-99000000D03*
X101000000Y-1000000D03*
X103540000Y-1000000D03*
X106080000Y-1000000D03*
X108620000Y-1000000D03*
X111160000Y-1000000D03*
X113700000Y-1000000D03*
X116240000Y-1000000D03*
X118780000Y-1000000D03*
X121320000Y-1000000D03*
X123860000Y-1000000D03*
X126400000Y-1000000D03*
X128940000Y-1000000D03*
X131480000Y-1000000D03*
X144180000Y-1000000D03*
X146720000Y-1000000D03*
X101000000Y-99000000D03*
X103540000Y-99000000D03*
X106080000Y-99000000D03*
X108620000Y-99000000D03*
X111160000Y-99000000D03*
X113700000Y-99000000D03*
X116240000Y-99000000D03*
X118780000Y-99000000D03*
X121320000Y-99000000D03*
X123860000Y-99000000D03*
X126400000Y-99000000D03*
X128940000Y-99000000D03*
X131480000Y-99000000D03*
X139100000Y-99000000D03*
X141640000Y-99000000D03*
X144180000Y-99000000D03*
X146720000Y-99000000D03*
X72500000Y-1000000D03*
X80000000Y-1000000D03*
X85000000Y-1000000D03*
X77500000Y-1000000D03*
X30000000Y-1000000D03*
X22500000Y-1000000D03*
X82500000Y-1000000D03*
X90000000Y-1000000D03*
X32500000Y-1000000D03*
X70000000Y-1000000D03*
X92500000Y-1000000D03*
X65000000Y-1000000D03*
X35000000Y-1000000D03*
X27500000Y-1000000D03*
X87500000Y-1000000D03*
X75000000Y-1000000D03*
X25000000Y-1000000D03*
X67500000Y-1000000D03*
X37500000Y-1000000D03*
X62500000Y-1000000D03*
X50000000Y-1000000D03*
X17500000Y-1000000D03*
X7500000Y-1000000D03*
X60000000Y-1000000D03*
X57500000Y-1000000D03*
X55000000Y-1000000D03*
X12500000Y-1000000D03*
X52500000Y-1000000D03*
X15000000Y-1000000D03*
X47500000Y-1000000D03*
X45000000Y-1000000D03*
X42500000Y-1000000D03*
X40000000Y-1000000D03*
X2500000Y-1000000D03*
X5000000Y-1000000D03*
X10000000Y-1000000D03*
X80750000Y-18000000D03*
D39*
X139982400Y-94583200D03*
X144182400Y-94583200D03*
X139982400Y-68283200D03*
X144182400Y-68283200D03*
X119230000Y-73665000D03*
D37*
X74400000Y-14000000D03*
X73700000Y-20100000D03*
X61300000Y-18400000D03*
X70300000Y-17900000D03*
X71370000Y-25480000D03*
X80500000Y-10600000D03*
X80900000Y-25300000D03*
X88100000Y-24000000D03*
X121871600Y-55021400D03*
X141640000Y-1000000D03*
X139100000Y-1000000D03*
X71310000Y-9950000D03*
X133200000Y-79380000D03*
X147170000Y-60965000D03*
D39*
X125453000Y-73665000D03*
D37*
X37784000Y-48073000D03*
X37784000Y-37216000D03*
X37784000Y-58873000D03*
X37784000Y-69273000D03*
X41506000Y-78110000D03*
X37684000Y-90373000D03*
X53784000Y-90473000D03*
X53784000Y-79673000D03*
X53784000Y-69173000D03*
X53784000Y-58273000D03*
X53684000Y-47973000D03*
X53698000Y-37216000D03*
X64884000Y-31073000D03*
X64884000Y-41673000D03*
X64784000Y-52273000D03*
X64784000Y-62873000D03*
X64784000Y-73473000D03*
X64784000Y-84073000D03*
X88100000Y-74900000D03*
X93322000Y-70642400D03*
X88850000Y-82350000D03*
X1400000Y-38050000D03*
D38*
X10518000Y-31247000D03*
D39*
X128400000Y-62000000D03*
D37*
X127739000Y-51059000D03*
X134000000Y-43975000D03*
X144000000Y-29000000D03*
X144000000Y-31540000D03*
X144000000Y-34080000D03*
X126900000Y-36500000D03*
X148800000Y-37500000D03*
X135800000Y-25600000D03*
X131600000Y-24400000D03*
X126300000Y-22800000D03*
X126300000Y-26800000D03*
X145900000Y-64521000D03*
X141300000Y-31600000D03*
X146200000Y-35600000D03*
X146800000Y-21000000D03*
X84800000Y-6300000D03*
X50100000Y-5400000D03*
X30500000Y-5400000D03*
X4100000Y-44800000D03*
X146600000Y-7500000D03*
X132692000Y-72649000D03*
D38*
X126024500Y-59568000D03*
X128755000Y-67315000D03*
X128755000Y-70490000D03*
X128755000Y-73665000D03*
X122405000Y-73665000D03*
X118595000Y-67315000D03*
X122405000Y-67315000D03*
X36680000Y-19690000D03*
X46078000Y-11054000D03*
X39220000Y-19690000D03*
X86464000Y-36200000D03*
X81384000Y-43058000D03*
X81257000Y-47503000D03*
X81638000Y-54996000D03*
X81130000Y-59060000D03*
X81892000Y-66426000D03*
X105260000Y-49662000D03*
X124818000Y-55250000D03*
X18900000Y-12070000D03*
X21440000Y-12070000D03*
X34140000Y-19690000D03*
X18900000Y-17150000D03*
X21440000Y-17150000D03*
X23980000Y-17150000D03*
X23980000Y-12070000D03*
X96370000Y-27310000D03*
X98910000Y-27310000D03*
X126850000Y-90810000D03*
X124310000Y-90810000D03*
X121770000Y-90810000D03*
X119230000Y-90810000D03*
X114150000Y-90810000D03*
X111610000Y-90810000D03*
X109070000Y-90810000D03*
X129390000Y-89540000D03*
X131930000Y-87000000D03*
X134470000Y-84460000D03*
X116690000Y-90810000D03*
X100180000Y-33660000D03*
X78590000Y-29850000D03*
X76050000Y-32390000D03*
X25250000Y-24770000D03*
X22710000Y-27310000D03*
X30330000Y-27310000D03*
X27790000Y-29850000D03*
X107800000Y-19690000D03*
X111610000Y-19690000D03*
X115420000Y-19690000D03*
X88496000Y-60330000D03*
X90782000Y-60330000D03*
X87988000Y-62870000D03*
X91036000Y-62108000D03*
X86718000Y-73030000D03*
X83924000Y-84968000D03*
D37*
X135650000Y-60600000D03*
X93900000Y-63700000D03*
D38*
X114785000Y-65511600D03*
D37*
X95200000Y-63100000D03*
X96200000Y-62000000D03*
D38*
X114505600Y-31221600D03*
X118976000Y-33152000D03*
D37*
X84100000Y-21300000D03*
X84100000Y-14300000D03*
D39*
X143800000Y-13300000D03*
X141400000Y-13300000D03*
X141400000Y-15100000D03*
X143800000Y-15100000D03*
X141400000Y-16900000D03*
X143800000Y-16900000D03*
D38*
X119915800Y-63784400D03*
X102720000Y-60050600D03*
X93575994Y-62362000D03*
X86845000Y-66680000D03*
D40*
G36*
X149873000Y-176958D02*
G01*
X149873000Y-2422958D01*
X127000Y-2373042D01*
X127000Y-127042D01*
X149873000Y-176958D01*
G37*
X149873000Y-176958D02*
X149873000Y-2422958D01*
X127000Y-2373042D01*
X127000Y-127042D01*
X149873000Y-176958D01*
G36*
X149873000Y-99873000D02*
G01*
X127000Y-99873000D01*
X127000Y-97627000D01*
X149873000Y-97627000D01*
X149873000Y-99873000D01*
G37*
X149873000Y-99873000D02*
X127000Y-99873000D01*
X127000Y-97627000D01*
X149873000Y-97627000D01*
X149873000Y-99873000D01*
M02*
